<?xml version="1.0" encoding="UTF-8"?>
<svg width="512" height="512" version="1.1" viewBox="0 0 512 512" xmlns="http://www.w3.org/2000/svg">
 <defs>
  <radialGradient id="a" cx="170.7" cy="170.7" r="132.3" gradientTransform="matrix(1.615 0 0 1.614 -19.71 -19.62)" gradientUnits="userSpaceOnUse">
   <stop style="stop-color:#fcf3d9" offset=".5076"/>
   <stop style="stop-color:#fcdc69" offset="1"/>
  </radialGradient>
  <linearGradient id="b" x1="231.7" x2="255.2" y1="256.3" y2="268" gradientUnits="userSpaceOnUse">
   <stop style="stop-color:#404040" offset="0"/>
   <stop style="stop-color:#404040" offset=".5"/>
   <stop style="stop-color:#404040" offset="1"/>
  </linearGradient>
 </defs>
 <path d="m221.5 0.5874 3.566 15.39-63.15 16.36-6.59-18.02-63.62 38.35 14.54 13.33-42.09 44.88s-3.963-4.934-14.89-12.04c-5.806 9.088-33.69 58.92-33.69 58.92l19.11 7.834-16.84 61.25-17.3-2.338v63.6l17.3-2.806 14.97 62.2-18.43 5.265 32.75 59.85 15.61-12.74 42.09 44.88-13.35 13.06 64.56 38.35 6.802-18.2 61.75 18.23-3.851 15.37 66.99-0.1369-2.807-14.31 66.88-19.16 5.908 14.95 54.73-32.26-11.52-13.08 48.18-49.09 13.38 10.66 32.27-57.05-17.13-5.982 14.5-64.54 19.25 2.92 0.0802-55.93-19.79 2.976-15.44-68.73 20.34-6.836-32.75-56.11-13.79 12.44-48.64-48.16 13.05-14.76-55.67-32.73-6.505 16.63-67.82-18.23 2.807-14.46z"/>
 <circle cx="256" cy="256" r="213.7" fill="url(#a)"/>
 <path d="m205.3 250.4c1.974 0.3443 3.502 3.727 1.777 6.178-0.4914 0.698-1.426 1.003-1.796 1.068-0.8221 0-49.35-0.0512-49.35-0.0512s-2.962 0.0829-2.962-3.573c0-2.359 1.563-3.66 3.214-3.66 4.676 0 32.73-0.1161 49.14 0.039z"/>
 <path d="m192 234.8c1.474 0.3443 2.614 3.727 1.326 6.178-0.3668 0.698-1.064 1.003-1.341 1.068-0.6137 0-36.86-0.0512-36.86-0.0512s-2.211 0.0829-2.211-3.573c0-2.359 1.166-3.66 2.399-3.66 3.492 0 24.44-0.1161 36.68 0.039z"/>
 <path d="m199.1 219c1.74 0.3443 3.088 3.727 1.566 6.178-0.4334 0.698-1.257 1.003-1.584 1.068-0.7246 0-43.52-0.0512-43.52-0.0512s-2.611 0.0829-2.611-3.573c0-2.359 1.377-3.66 2.834-3.66 4.122 0 28.86-0.1161 43.32 0.039z"/>
 <path d="m294 102.6c10.37 2.009 29.65 8.461 35.16 15.05h41.23c0.7743 0 2.496 0.3118 2.496 2.707v146.2c0 2.127-3.052 2.734-3.052 2.734h-98.41l-10.34 22.91 107.1 0.5295s17.57 35.96 26.08 49.67c0.6934 1.117-0.8651 3.287-2.179 3.287-13.88 0-153.9-1.059-153.9-1.059-2.011 4.012-7.646 19.03-17.76 24.89h198c2.013 0 5.989-2.654 5.989-8.411v-14.36l-40.79-62.31h-9.805v-6.665h10.04c5.658 0 8.338-4.69 8.338-8.461v-159.8c0-2.874-2.952-6.916-5.825-6.916h-92.37zm-22.04 0h-142.2c-3.279 0-6.753 3.342-6.753 6.62v160.1c0 3.122 0.8743 8.461 7.573 8.461h11.76v6.665h-7.43l-47.39 59.68v18c0 3.303 3.123 7.414 5.772 7.414h90.94c-10.66-5.499-14.11-14.95-10.57-24.75 0 0-41.89-0.6619-55.95-0.6619-1.248 0-1.224-2.669-0.5296-3.707 9.998-14.94 33.54-48.71 33.54-48.71h48.12l11.68-22.4h-66c-1.929 0-2.456-1.403-2.456-2.537v-147.2c0-1.308 0.5437-1.96 2.379-1.96h87.52c6.291-6.758 28.6-13.62 39.93-15.05z" style="fill:#333;stroke-width:2;stroke:#000"/>
 <path d="m214.9 127.6c7.451-0.4967 20.24 2.552 26.31 7.106l-13.32 17.7-13.02-2.657z" style="fill:#ffb945;stroke-width:2;stroke:#fa9b00"/>
 <path d="m209.7 149.8c-4.02 0.6933-10.85 1.542-16.88 4.657l-9.947-19.59c6.1-4.243 18.23-7.588 26.13-7.037z" style="fill:#fde27a;stroke-width:2;stroke:#fdd330"/>
 <path d="m189.3 156.3c-5.823 3.201-10.02 8.071-13.03 12.73l-18.2-11.28c4.54-8.14 11.37-14.56 18.99-19.87z" style="fill:#6af7c7;stroke-width:2;stroke:#1cf7a9"/>
 <path d="m148 190.5c-0.2225-8.175 3.036-20.14 7.382-27.28 0 0 14 6.588 19.06 9.555 0 0-4.506 7.83-4.575 17.73z" style="fill:#88c7fe;stroke-width:2;stroke:#39a6fe"/>
 <path d="m217.8 181-12.96 8.151c-5.892 4.312-7.036 12.04-1.698 17.66 5.337 5.622 14.21 3.932 18.61-2.611z" fill="#2e4356"/>
 <path d="m313.1 182.9c8.451 13.54 13.55 34.66 12.95 46.47h-37.46c-0.7612-13.96-4.1-21.77-8.332-30.48z" style="fill:#fd4755;stroke-width:4;stroke:#fd071c"/>
 <path d="m274.8 139.3c15.4 8.768 26.79 22.96 32.79 33.34l-30.27 20.4c-7.732-10.56-11.09-13.6-21.58-22.01z" style="fill:#fb6871;stroke-width:4;stroke:#fb3742"/>
 <path d="m246.3 129.8 19.45 3.876-16.12 34.06c-12.53-5.637-16.6-6.502-29.43-8.053z" style="fill:#ffb945;stroke-width:4;stroke:#fa9b00"/>
 <path d="m295 157.8-75.92 52.58 22.55 26.71z" fill="#2e4356"/>
 <path d="m230.8 261.7c-7.216 16.12-33.69 68.95-40.48 85.2 0.5226 8.744 11.35 13.28 18.88 10.33 2.555-1.475 4.542-5.422 6.26-9.493 8.28-17.81 35.1-72.54 43.31-90.39 26.58 7.777 57.16-0.7458 75.48-21.6 19.92-21.57 24.55-55.36 11.39-81.54-12.42-26.21-41.51-43.15-70.46-41.15-29.13 1.38-56.19 21.8-65.31 49.52-9.696 26.86-1.57 58.75 19.49 77.94l8.077 6.901s-3.956 8.553-6.639 14.27zm67.98-20.32c-26.19 10.01-58.2-2.702-70.79-27.64-12.87-23.38-6.732-55.05 14.1-71.81 20.48-17.78 53.42-18.03 74.14-0.5778 21.28 16.58 27.82 48.63 14.81 72.25-6.724 12.88-18.5 23.16-32.25 27.78z" style="fill:url(#b);stroke-width:2;stroke:#000"/>
 <path d="m245.7 327.9h46.48l0.7092 10.22h-51.86zm113.5-16.22h11.44l4.948 10.44h-12.72zm-4.589-13.71h9.81l4.788 10.13h-11.14zm-11.8 13.71h11.38l3.399 10.44h-11.93zm-3.624-13.71h10.52l3.222 10.13h-10.97zm-12.65 13.91h11.38l2.681 10.44h-11.93zm-2.746-13.71h10.52l2.583 10.13h-10.97zm-30.57 13.5h11.44l1.348 10.44h-11.93zm-1.156-13.71h11.09l1.188 10.13h-11.45zm-15.23 13.71h11.38l0.7566 10.44h-11.78zm-0.351-13.71h10.68l0.5793 10.13h-10.97zm-15.92 13.91h11.38l0.198 10.44h-11.93zm0.5268-13.71h10.52l0.1005 10.13h-10.97zm-8.401 13.71h2.807l-0.4791 10.36h-6.856zm-74.69-0.1766h10.6l-5.231 10.44h-10zm6.207-13.71h11.04l-5.143 10.13h-10.51zm-22.54 13.71h11.21l-4.667 10.44h-11.93zm7.323-13.71h10.31l-4.938 10.13h-10.83zm-23.93 13.91h11.38l-5.558 10.44h-11.93zm8.201-13.71h10.52l-5.655 10.13h-10.97z" style="fill:#404040;stroke-width:2;stroke:#000"/>
</svg>
