<?xml version="1.0" encoding="UTF-8"?>
<svg width="512" height="512" version="1.1" viewBox="0 0 512 512" xmlns="http://www.w3.org/2000/svg">
 <defs>
  <linearGradient id="e" x1="114" x2="274" y1="325.3" y2="398.5" gradientUnits="userSpaceOnUse">
   <stop style="stop-color:#3c3c3c" offset="0"/>
   <stop style="stop-color:#3c3c3c" offset="1"/>
  </linearGradient>
  <linearGradient id="d" x1="104" x2="289.6" y1="332" y2="403.2" gradientUnits="userSpaceOnUse">
   <stop style="stop-color:#636363" offset="0"/>
   <stop style="stop-color:#000000" offset="1"/>
  </linearGradient>
  <linearGradient id="c" x1="17.07" x2="502.8" y1="175.9" y2="303.8" gradientUnits="userSpaceOnUse">
   <stop style="stop-color:#000000" offset="0"/>
   <stop style="stop-color:#2e2e2e" offset=".3"/>
   <stop style="stop-color:#333333" offset=".5"/>
   <stop style="stop-color:#2e2e2e" offset=".7"/>
   <stop style="stop-color:#000000" offset="1"/>
  </linearGradient>
  <radialGradient id="b" cx="321.7" cy="377.5" r="203.5" gradientTransform="matrix(1.013 -.5267 .4093 .7871 -164.2 195.6)" gradientUnits="userSpaceOnUse">
   <stop style="stop-color:#fff600" offset="0"/>
   <stop style="stop-color:#ff9b00" offset="1"/>
  </radialGradient>
  <radialGradient id="a" cx="216.7" cy="246.3" r="59.65" gradientTransform="matrix(1.045 .2993 -.1912 .6674 37.36 25.34)" gradientUnits="userSpaceOnUse">
   <stop style="stop-color:#474541" offset="0"/>
   <stop style="stop-color:#1a1918" offset="1"/>
  </radialGradient>
  <linearGradient id="f" x1="71.34" x2="254.6" y1="151.2" y2="271.2" gradientUnits="userSpaceOnUse">
   <stop style="stop-color:#ff9400" offset="0"/>
   <stop style="stop-color:#ffba00" offset=".5"/>
   <stop style="stop-color:#ffca00" offset="1"/>
  </linearGradient>
 </defs>
 <path d="m95.34 303.1 211.2 99.97-17.23 27.92c-76.8 23.93-188.7-16.22-202.6-96.57z"/>
 <path d="m107.3 312 196.5 85.29-12.05 23.77c-67.64 16.47-170-16.7-191.4-84.48z" fill="url(#d)"/>
 <path d="m127.3 331.4c33.79 36.8 71.42 52.92 117.7 56.21l35.24 10.2c-62.49 9.002-140.4-20.81-166.9-75.74z" fill="url(#e)"/>
 <path d="m504.5 347.2c-34.01 83.47-182.7 79.71-313.9 19.17-118.7-54.78-215.5-153-181.9-230.1 32.06-73.68 168.6-74.82 297.6-22.26 120.3 49.05 229.8 155.7 198.2 233.2z"/>
 <path d="m505.8 341.8c-24.94 70.37-164.2 79.34-311.5 12.58-117.1-53.07-209.9-157.9-177.1-229 19.41-42.13 124.1-77.2 294.2-9.196 140.4 61.71 216.3 163.6 194.4 225.6z" fill="url(#c)"/>
 <path d="m458.8 320.1c-22.97 56.36-143.7 53.82-248.6 5.426-95.52-44.07-174.2-120.9-150-177 24.34-56.3 139.7-51.31 239.4-8.073 95.92 41.57 183.3 120.2 159.1 179.6z" fill="url(#b)"/>
 <path d="m340.6 160.7c-33.56 0.3784-78.95 12.82-78.03 68.85-80.36-33.41-110.8 10.64-80.87 45.03-35.82-3.268-66.96-14.51-93.01-34.89-58.28-65.14-33.03-116.1 25.28-128.5 58.23-12.43 148.6 5.326 226.6 49.55z" fill="url(#f)"/>
 <path d="m315.2 297c-9.746 25.95-54.1 25.85-91.79 8.456-36.89-17.02-60.36-46.09-50.72-68.25 9.719-22.33 48.07-25.3 86.91-8.843 34.36 14.56 64.45 45.09 55.61 68.63z"/>
 <path d="m302.4 292.1c-7.598 20.23-56.24 10.19-73.84 1.324-22.97-11.57-51.26-34.38-43.28-51.42 7.739-16.53 46.89-11.88 69.86-1.327 29.76 13.67 52.71 36.94 47.27 51.42z" fill="url(#a)"/>
</svg>
