<?xml version="1.0" encoding="iso-8859-1"?>
<!-- Uploaded to: SVG Repo, www.svgrepo.com, Generator: SVG Repo Mixer Tools -->
<svg height="800px" width="800px" version="1.1" id="Layer_1" xmlns="http://www.w3.org/2000/svg" xmlns:xlink="http://www.w3.org/1999/xlink" 
	 viewBox="0 0 512 512" xml:space="preserve">
<g>
	<path style="fill:#6A563D;" d="M161.607,511.883h-12.558c-8.634,0-15.698-7.064-15.698-15.698v-16.406
		c0-8.634,7.064-15.698,15.698-15.698h12.558c8.634,0,15.698,7.064,15.698,15.698v16.406
		C177.305,504.819,170.241,511.883,161.607,511.883z"/>
	<path style="fill:#6A563D;" d="M362.953,512h-12.558c-8.634,0-15.698-7.064-15.698-15.698v-16.406
		c0-8.634,7.064-15.698,15.698-15.698h12.558c8.634,0,15.698,7.064,15.698,15.698v16.406C378.65,504.936,371.586,512,362.953,512z"
		/>
</g>
<g>
	<path style="fill:#554431;" d="M161.607,464.081h-12.558c-8.634,0-15.698,7.064-15.698,15.698v16.406h43.954v-16.406
		C177.305,471.145,170.241,464.081,161.607,464.081z"/>
	<path style="fill:#554431;" d="M362.953,464.198h-12.558c-8.634,0-15.698,7.064-15.698,15.698v16.406h43.954v-16.406
		C378.65,471.262,371.586,464.198,362.953,464.198z"/>
</g>
<path style="fill:#957856;" d="M389.788,488.069H122.214c-8.634,0-15.698-7.064-15.698-15.698V15.698
	C106.516,7.064,113.58,0,122.214,0h267.573c8.634,0,15.698,7.064,15.698,15.698v456.673
	C405.485,481.005,398.421,488.069,389.788,488.069z"/>
<g>
	<path style="fill:#6A563D;" d="M155.328,472.459V15.786c0-8.634,7.064-15.698,15.698-15.698L122.214,0
		c-8.634,0-15.698,7.064-15.698,15.698V472.37c0,8.634,7.064,15.698,15.698,15.698h47.168
		C161.513,487.239,155.328,480.537,155.328,472.459z"/>
	<circle style="fill:#6A563D;" cx="273.185" cy="345.028" r="95.882"/>
	<circle style="fill:#6A563D;" cx="271.092" cy="146.513" r="60.595"/>
</g>
<circle style="fill:#FFEB99;" cx="256.001" cy="328.943" r="95.882"/>
<path style="fill:#57565C;" d="M256.001,393.436c-35.559,0-64.489-28.93-64.489-64.489s28.93-64.488,64.489-64.488
	c35.56,0,64.489,28.93,64.489,64.488C320.49,364.507,291.56,393.436,256.001,393.436z"/>
<circle style="fill:#FFEB99;" cx="256.001" cy="132.521" r="60.595"/>
<path style="fill:#57565C;" d="M256.001,166.951c-18.986,0-34.432-15.446-34.432-34.431s15.446-34.432,34.432-34.432
	s34.431,15.447,34.431,34.432S274.986,166.951,256.001,166.951z"/>
<g>
	<path style="fill:#2D2D30;" d="M273.188,281.281c13.185,0,25.455,3.985,35.68,10.803C297.2,275.401,277.859,264.46,256,264.46
		c-35.559,0-64.489,28.93-64.489,64.488c0,22.374,11.458,42.116,28.809,53.686c-7.314-10.457-11.622-23.164-11.622-36.864
		C208.7,310.211,237.629,281.281,273.188,281.281z"/>
	<path style="fill:#2D2D30;" d="M273.188,114.909c4.971,0,9.696,1.067,13.968,2.972c-5.512-11.685-17.403-19.794-31.156-19.794
		c-18.986,0-34.432,15.447-34.432,34.432c0,14.014,8.42,26.09,20.463,31.458c-2.096-4.446-3.275-9.405-3.275-14.637
		C238.756,130.356,254.203,114.909,273.188,114.909z"/>
</g>
<g>
	<circle style="fill:#FFF5CC;" cx="150.899" cy="43.337" r="17.547"/>
	<circle style="fill:#FFF5CC;" cx="361.103" cy="40.992" r="17.547"/>
	<circle style="fill:#FFF5CC;" cx="361.103" cy="447.075" r="17.547"/>
	<circle style="fill:#FFF5CC;" cx="150.899" cy="447.075" r="17.547"/>
</g>
<g>
	<path style="fill:#3E3D42;" d="M267.396,359.887l-9.25-9.25c-2.035-2.035-2.035-5.366,0-7.4l9.25-9.25
		c2.035-2.035,5.366-2.035,7.4,0l9.25,9.25c2.035,2.036,2.035,5.366,0,7.4l-9.25,9.25
		C272.76,361.921,269.43,361.921,267.396,359.887z"/>
	<path style="fill:#3E3D42;" d="M246.49,333.723l-9.25-9.25c-2.035-2.035-2.035-5.366,0-7.4l9.25-9.25
		c2.035-2.035,5.366-2.035,7.4,0l9.25,9.25c2.035,2.035,2.035,5.366,0,7.4l-9.25,9.25
		C251.856,335.758,248.526,335.758,246.49,333.723z"/>
</g>
</svg>