<?xml version="1.0" encoding="utf-8"?>
<svg width="512px" height="512px" viewBox="0 0 128 128" xmlns="http://www.w3.org/2000/svg" xmlns:xlink="http://www.w3.org/1999/xlink" aria-hidden="true" role="img" class="iconify iconify--noto" preserveAspectRatio="xMidYMid meet"><path d="M34.02 20.35v88.57c0 7.92 13.42 14.34 29.98 14.34c16.56 0 29.98-6.42 29.98-14.34V20.35H34.02z" fill="#8dcc47"></path><path d="M94 20.36C94 29.8 78.21 35.73 64.02 35.73C50.2 35.73 35 29.77 34.04 20.36C33.01 10.22 47.46 3.26 64.02 3.26S94 10.92 94 20.36Z" fill="#9ee350"></path><ellipse cx="64.2" cy="17.55" rx="23.64" ry="11.43" fill="#d9d9d9"></ellipse><path d="M76.56 6.44V7.1C76.59 6.69 76.56 6.44 76.56 6.44Z" fill="#9e9e9e"></path><path d="M76.99 51.54C76.99 50.88 76.74 50.48 76.13 50.24C75.56 50.01 74.73 50.25 73.88 50.47C72.2 50.89 70.47 51.13 68.91 51.11C68.28 51.1 68.34 50.5 68.34 49.95V44.47C68.34 43.87 68.27 43.11 67.16 43.11C66.49 43.11 65.68 43.29 63.99 43.31C62.3 43.3 61.49 43.11 60.82 43.11C59.71 43.11 59.64 43.87 59.64 44.47V49.95C59.64 50.5 59.7 51.1 59.07 51.11C57.51 51.13 55.78 50.89 54.1 50.47C53.24 50.26 52.42 50.02 51.85 50.24C51.24 50.49 50.99 50.88 50.99 51.54L50.96 56.63C51.24 57.42 51.53 57.99 51.85 58.16C52.79 58.65 54.84 59.4 58.12 59.56C58.77 59.59 59.5 59.37 59.65 60.08C59.72 60.43 59.65 64.75 59.65 66.5C59.65 68.09 61.95 68.26 63.19 68.36C63.46 68.38 64.54 68.38 64.8 68.36C66.03 68.25 68.34 68.09 68.34 66.5C68.34 64.75 68.27 60.43 68.34 60.08C68.49 59.37 69.21 59.59 69.87 59.56C73.15 59.4 75.2 58.64 76.14 58.16C76.45 58 76.75 57.43 77.03 56.63L76.99 51.54Z" fill="#ffffff"></path><path d="M75.07 102.56S71.22 103.73 64 103.73S52.93 102.56 52.93 102.56C51.56 102.36 50.98 103.43 50.98 104.51V108.73C50.98 109.73 51.63 110.66 52.79 111.23C55.18 112.41 59.04 113.21 63.66 113.16C63.78 113.16 63.89 113.15 64.01 113.15C64.13 113.15 64.24 113.16 64.36 113.16C68.99 113.21 72.84 112.41 75.23 111.23C76.39 110.66 77.04 109.73 77.04 108.73V104.51C77.03 103.43 76.44 102.36 75.07 102.56Z" fill="#ffffff"></path><path d="M58.59 27.81C60.19 26.27 54.43 24.94 51.71 24.01C48.29 22.84 44.71 20.78 43.62 16.75C42.8 13.71 41.37 14.66 41.11 15.02C40.74 15.53 39.31 18.51 42.06 21.82C43.95 24.1 47.01 25.83 49.62 26.71C53.19 27.92 57.53 28.83 58.59 27.81Z" fill="#f5f5f5"></path><path d="M56 13.18C56.33 12.06 59.23 11.37 60.99 11.35C64 11.31 67.1 13.62 67.56 14.41C68.85 16.61 65.91 17.39 60.77 16.94C57.31 16.64 55.67 14.31 56 13.18Z" fill="#f5f5f5"></path><path d="M73.11 15.01C72.76 14.39 72.4 13.74 72.06 13.11C71.7 12.46 71.71 13.16 71.63 13.43C71.22 14.85 70.41 15.48 69.84 15.79C68.12 16.71 66.06 17.15 64.01 17.12C61.95 17.14 59.9 16.71 58.18 15.79C57.6 15.48 56.8 14.85 56.39 13.43C56.31 13.15 56.32 12.46 55.96 13.11C55.61 13.74 55.26 14.39 54.91 15.01C54.01 16.59 54.79 18.34 55.94 19.46C57.95 21.41 61.07 22.31 64.02 22.31S70.09 21.41 72.1 19.46C73.24 18.33 74.01 16.58 73.11 15.01Z" fill="#9e9e9e"></path></svg>