<?xml version="1.0" encoding="UTF-8"?>
<svg width="512" height="512" version="1.1" viewBox="0 0 512 512" xmlns="http://www.w3.org/2000/svg">
 <defs>
  <linearGradient id="b" x1="127.6" x2="384.3" y1="289.7" y2="289.7" gradientUnits="userSpaceOnUse">
   <stop style="stop-color:#1e1919;stop-opacity:0" offset="0"/>
   <stop style="stop-color:#c0bfbf;stop-opacity:.08788" offset=".16"/>
   <stop style="stop-color:#fff;stop-opacity:.1879" offset=".5"/>
   <stop style="stop-color:#bfbfbf;stop-opacity:.08" offset=".84"/>
   <stop style="stop-color:#000;stop-opacity:0" offset="1"/>
  </linearGradient>
  <radialGradient id="a" cx="256" cy="217.7" r="127.5" gradientTransform="matrix(.8175 0 1.417e-8 .2104 46.7 92.34)" gradientUnits="userSpaceOnUse">
   <stop style="stop-color:#eeaa81" offset="0"/>
   <stop style="stop-color:#e7965e" offset="1"/>
  </radialGradient>
 </defs>
 <path d="m110.9 172.8v274.1c0 35.43 64.98 64.15 145.2 64.15 80.18 0 145.2-28.72 145.2-64.15v-274.1z" style="fill:#1e1a19"/>
 <path d="m110.6 72.99v104.4c0 29.17 65.09 52.82 145.4 52.82s145.4-23.65 145.4-52.82v-104.4z" style="fill:#e7965e"/>
 <path d="m401.5 73.68c0 40.12-90.96 65.16-145.4 65.16-54.44 0-140.7-25.17-145.4-65.16-4.995-43.1 65.09-72.68 145.4-72.68s145.4 32.56 145.4 72.68z" style="fill:url(#a)"/>
 <ellipse cx="257" cy="61.73" rx="114.7" ry="48.58" fill="#d9d9d9"/>
 <path d="m196 89.2c-16.6-4.97-34-13.7-39.2-30.9-3.98-12.9-11-9.72-12.2-7.35-9.23 14.2 3.07 38.2 41.3 49.4 37.8 11.2 81.1 10 10.1-11.2z" fill="#f5f5f5"/>
 <path d="m218 43.2c1.6-5.29 15.7-8.55 24.2-8.64 14.6-0.189 29.6 10.7 31.9 14.5 6.26 10.4-8 14.1-32.9 12-16.8-1.42-24.7-12.4-23.1-17.8z" fill="#f5f5f5"/>
 <path d="m300 50.9c-1.7-2.64-3.44-5.4-5.09-8.08-1.75-2.76-1.7 0.212-2.08 1.36-7.17 21.8-67 20.8-73.9 0-0.388-1.19-0.34-4.12-2.08-1.36-1.7 2.68-3.4 5.44-5.09 8.08-4.36 6.72-0.582 14.2 5 18.9 19 16.1 59.4 16.1 78.4 0 5.53-4.8 9.26-12.2 4.9-18.9z" style="fill:#999"/>
 <path d="m110.5 70.24 0.3643 374.5c0.0398 40.92 64.98 66.15 145.2 66.15 80.18 0 145.1-25.13 145.2-66.15l0.1821-374.5c-0.2576 49.04-102.7 69.14-146.3 68.65-52.16-0.4736-144.3-24.75-144.6-68.64z" style="fill:url(#b)"/>
 <path d="m238 385-12.4 79.7 76.1-117-25.1 2.47 13.3-75.4-79 112z" style="fill:#ffcc00"/>
 <path d="m249 154v21.2c-6.68 0.0149-13.6-0.194-20.1-1v12.8c6.71 0.541 13.2 0.927 20.1 1v19.1l13.3 0.0879v-19.2c6.83 0 13.4-0.349 20.1-1l-0.0644-12.8c-6.64 0.624-13.1 1.08-20.1 1v-21.2l-13.3 0.01z"/>
</svg>
