<?xml version="1.0" encoding="UTF-8"?>
<svg width="512" height="512" version="1.1" viewBox="0 0 512 512" xmlns="http://www.w3.org/2000/svg">
 <defs>
  <linearGradient id="a" x1="334" x2="187" y1="176" y2="323"  gradientUnits="userSpaceOnUse">
   <stop style="stop-color:#faf093" offset="0"/>
   <stop style="stop-color:#dbc400" offset="1"/>
  </linearGradient>
  <linearGradient id="b" x1="191" x2="327" y1="183" y2="319"  gradientUnits="userSpaceOnUse">
   <stop style="stop-color:#656565" offset="0"/>
   <stop style="stop-color:#3a3a3a" offset="1"/>
  </linearGradient>
 </defs>
 <path d="m52.3 255c1e-5 -113 91.5-204 204-204v204zm409 0.821c0 113-91.4 204-204 204v-204z" style="fill:url(#a);stroke-width:12;stroke:#e7bf00"/>
 <path d="m52.3 256c0 113 91.5 204 204 204l-0.0259-204zm409-0.237c0-113-91.4-204-204-204l-0.0884 204z" style="fill:url(#b);stroke-width:12;stroke:#333"/>
 <path d="m242 15.7v225h-227c-20.7 0-20.9 29.7 0 29.7h227v225c0 21.4 29.7 21.4 29.7 0v-225h226c19.4 0 19.7-29.7 0-29.7h-226v-225c0-19.7-29.7-20.1-29.7 0z"/>
</svg>
