<?xml version="1.0" encoding="UTF-8"?>
<svg width="512" height="512" version="1.1" viewBox="0 0 512 512" xmlns="http://www.w3.org/2000/svg">
 <defs>
  <radialGradient id="b" cx="281" cy="222" r="114" gradientTransform="matrix(-1.4 .156 .0983 .885 649 -45.8)" gradientUnits="userSpaceOnUse">
   <stop style="stop-color:#f3ce39" offset="0"/>
   <stop style="stop-color:#dec552" offset=".803"/>
   <stop style="stop-color:#c09f5a" offset="1"/>
  </radialGradient>
  <linearGradient id="c" x1="24.6" x2="79" y1="250" y2="252" gradientTransform="matrix(1.03 0 0 1.03 -7.73 -38.7)" gradientUnits="userSpaceOnUse">
   <stop style="stop-color:#bd9883" offset="0"/>
   <stop style="stop-color:#8a5d42" offset="1"/>
  </linearGradient>
  <radialGradient id="a" cx="464" cy="240" r="26.8" gradientTransform="matrix(.0431 1.11 -1.01 .039 701 -304)" gradientUnits="userSpaceOnUse">
   <stop style="stop-color:#ceb156" offset="0"/>
   <stop style="stop-color:#8a5d42" offset="1"/>
  </radialGradient>
  <radialGradient id="e" cx="66.2" cy="49.6" r="52.2" gradientTransform="matrix(-.0461 3.43 3.7 .0498 108 .825)" gradientUnits="userSpaceOnUse">
   <stop stop-color="#f4d6b5" style="stop-color:#fcfb37" offset=".622"/>
   <stop stop-color="#f1d2b2" style="stop-color:#efef61" offset=".813"/>
   <stop stop-color="#d8b19c" style="stop-color:#caca52" offset="1"/>
  </radialGradient>
  <linearGradient id="d" x1="237" x2="285" y1="193" y2="197" gradientUnits="userSpaceOnUse">
   <stop style="stop-color:#bd9883" offset="0"/>
   <stop style="stop-color:#8a5d42" offset="1"/>
  </linearGradient>
 </defs>
 <path d="m138 156s-28.7-32.2-29.4-31.5c-0.748 0.748-16.9 19-16.9 29.1 0 12.7 4.56 27.7 4.56 27.7-93.5-58.5-107-50.7-76 35.2-37.8 105-24.4 90.9 69.4 43.4 0 0-14.9 18-12.9 32.7 1.95 14.9 26.5 49.9 28.8 51 2.33 1.17 32.1-40.5 32.1-40.5z" fill="url(#c)"/>
 <path d="m173 365s-61.6 21.5-63.6 19.1c-1.95-2.33 32-62.4 32-62.4zm62.4 33.5s-44.9 39-49.2 37.5c-4.28-1.58 3.49-64 3.49-64zm83.1 10.1s-31.3 62.4-33.5 62.4c-2.33 0-21.5-66.8-21.5-66.8zm71-25.7s8.57 67.9 4.7 69.5c-3.87 1.58-51.5-46.4-51.5-46.4zm46-49.5s34.7 46 32.7 49.2c-1.95 3.12-64.4-13.6-64.4-13.6zm28.1-72.3s47.3 34 46.9 39.4c-0.416 5.45-63.2 10.5-63.2 10.5zm-264-139s-53.9-37.9-56.1-36.6c-2.33 1.17 3.91 73.8 3.91 73.8zm53.5-16s-36.6-54.3-40.3-53.5c-3.53 0.79-9.77 70.6-9.77 70.6zm66.8-1.95s-24.2-64-26.5-64c-2.33 0-30.4 73-30.4 73zm72.6 21.9s-0.375-69.1-2.75-70.2c-2.33-1.17-46.4 53.5-46.4 53.5zm53.9 46.4s25.4-57 23.8-58.5c-1.58-1.58-55.4 28.9-55.4 28.9z" fill="#8a5d42"/>
 <path d="m125 294c-12.5 12.9-19.5 31.5-23 28.4-3.47-3.09 3.35-22.5 15.2-35.8 6.4-6.42 14.1 0.691 7.69 7.42zm-11.2-57.5c1.17 2.54-23.4 12.8-40.7 17.8-17.2 4.99-52.8 20.4-54.4 16-1.46-4.41 34.5-20.6 51.4-26.2 14.1-4.61 41.6-11.9 43.7-7.48zm6.08-55.3c-11-14.1-15.9-31.4-12.8-34.8 3.18-3.39 7.44 15 20.4 27.3 9.03 8.37-3.8 12.4-7.62 7.49zm1.54 42.4c0.207 4.66-8.77 7.52-42.2 5.74-33.4-1.79-35.8-7.98-35.5-11.4s24.7-3.54 37.1-2.66c12.3 0.873 40.4 2.16 40.7 8.32zm-0.375-10.5c-1.74 7.9-34-8.77-42.7-12.9-8.77-4.12-57.1-27.9-54.4-32.6 2.62-4.7 52.4 20 59.7 23.2 7.32 3.2 38.3 18.2 37.5 22.3zm-6.58 61c-12.3 1.09-25 24.9-27.5 20.9-2.42-3.96 9.72-31 22.2-30.2 3.56 0.222 2.06 7.65 5.2 9.33z" fill="#bd9883"/>
 <path d="m460 265s6.44-3.2 7.32-9.06c0.873-5.86 0.291-29-6.15-51.2-6.44-22.3-20.7-43.7-20.7-43.7l10.8-26.9-24.3 10.5s-14.3-12.6-24.3-18.2c-9.94-5.57-22-11.1-22-11.1l-1.46-32.9-19.9 24.8s-12.6-3.49-28.4-4.7c-15.8-1.17-27.6-2.33-27.6-2.33l-11.6-29.8-9.77 30.4s-10.5-0.291-23.4 0.582-22.6 2.16-22.6 2.16l-15.6-24.2-4.49 29.6s-9.77 3.49-18 7.03c-8.2 3.53-19.2 9.65-19.2 9.65l-23.1-18.2 3.2 30.8s-44.2 22.3-54.2 80.5c-9.94 58.2 11.6 77.5 11.6 77.5z" fill="url(#b)"/>
 <path d="m370 212c53.6 16.5 97.2 46.6 97.2 46.6l-3.2 14.3 23.9 22.3-30.4 4.12s-2.42 7.77-11.3 23.8c-8.81 16.1-15.2 22.4-15.2 22.4l15.7 22.4-29.2-6.03s-10.6 12.2-18.3 18c-7.61 5.86-19.8 15.6-19.8 15.6l3.83 31.1-25.2-21.4s-11.5 4.12-25.5 6.74-29 2.91-29 2.91l-16.1 30.4-11.1-31.3s-17.9-2.03-28.4-4.12c-10.5-2.03-27.2-10.5-27.2-10.5l-28.1 20.7 4.41-33.3s-15.8-9.94-22.5-15c-6.74-4.99-15.8-14-15.8-14l-29 9.35 13.2-28.4s-13.2-16.1-19.6-25.2c-6.44-9.06-15.5-30.8-15.5-30.8s32.6-51.5 107-74c63-19.1 123-6.74 155 3.2z" fill="url(#e)"/>
 <path d="m338 163-18.2-23-23.1 16.8c7.79-14.9 15.3-29.9 26.9-42.6 8.36 16.8 11.9 32.9 14.3 48.8zm-86.2-11.1-28.5-6.69-7.6 27.6c-3.16-16.5-6.72-32.9-5.53-50.1 17 7.95 29.8 18.3 41.6 29.2zm-41.7 124-28.1-1.24 3.07-26.8s-27 46.8-24.6 49.4c2.46 2.67 49.6-21.4 49.6-21.4zm51 51.6-28.6 10.9-11.9-27.1s-4.09 52.5 0.116 55c4.2 2.47 40.4-38.8 40.4-38.8zm104 51c-3.32 3.32-48.1-43.9-48.1-43.9l28.9 4.72 15.2-25.8s7.13 61.8 4.02 64.9zm-49.6-128-27.2 25.3-21.6-26.1s16 65.7 19.9 65.7c3.91 0 28.9-64.9 28.9-64.9zm111 58.2c-3 3.43-49.9-27.9-49.9-27.9l25.4 0.919 1.66-25.1s25.6 48.8 22.8 52zm-255-113-23.8 4.88 5.8 22c-9.17-10.5-18.6-20.8-24.9-33.4 15.9-0.135 29.6 2.85 42.8 6.55z" fill="#a16d4d"/>
 <path d="m401 146c20.6 7.74 25.9 25.9 23.2 37.4-2.71 11.5-13.9 29-45.3 23.5-28.3-4.89-29.9-32.2-23.5-45.5 7.07-15.1 24.8-23.2 45.7-15.5z" fill="#fff"/>
 <path d="m323 205c-0.998 9.9-16.5 14.7-34.7 17.1-19.9 2.75-34.2 1.95-34.2 1.95s-9.77-4.7-9.57-32.4c0.207-26.9 10.7-30.4 10.7-30.4s26.7 1.95 47.8 17.5c11.7 8.65 20.6 18.4 19.9 26.1z" fill="url(#d)"/>
 <path d="m277 179c14.6 3.83 47.1 16.6 46.2 26.3-0.582 7.24-16.2 5.45-37.9 5.28-22.9-0.207-38.1 2.21-38.1 2.21s-0.707-1.95-1.08-3.62c-0.457-1.99-0.541-4.24-0.541-4.24s18.3-3.24 35.6-2.75c13.6 0.375 32.4 2.91 28.3-1.74-1.46-1.66-23.2-10.7-35.1-12.9-11.9-2.16-29.3-3.28-29.3-3.28s0.207-2.5 0.582-4.99c0.25-1.66 0.873-4.32 0.873-4.32s17.8 0.707 30.4 3.99z" fill="#bd9883"/>
 <circle cx="388" cy="177" r="23.6" fill="#333"/>
 <path d="m432 219c-0.833 17.7 38.9 47.1 51.3 28.2 7.28-11.1 6.65-23.9-17.4-25 28.8-1.82 21.1-23.9 11.8-27.9-11.9-5.08-44.8 8.06-45.6 24.8z" fill="url(#a)"/>
</svg>
