<?xml version="1.0" encoding="utf-8"?>
<!-- Uploaded to: SVG Repo, www.svgrepo.com, Generator: SVG Repo Mixer Tools -->
<svg width="800px" height="800px" viewBox="0 0 64 64" xmlns="http://www.w3.org/2000/svg" xmlns:xlink="http://www.w3.org/1999/xlink" aria-hidden="true" role="img" class="iconify iconify--emojione" preserveAspectRatio="xMidYMid meet">
<g fill="#212528">
<path d="M22.9 26c0 1-.8 1.9-1.9 1.9h-8.4c-1 0-1.9-.8-1.9-1.9v-2.4c0-1 .9-1.9 1.9-1.9H21c1 0 1.9.8 1.9 1.9V26">
</path>
<path d="M57 25.9c0 .6-.5 1-1 1h-4.5c-.6 0-1-.5-1-1v-1.3c0-.6.5-1 1-1H56c.6 0 1 .5 1 1v1.3">
</path>
<path d="M59.9 55.9c0 2.6-2.1 4.7-4.7 4.7H8.9c-2.6 0-4.7-2.1-4.7-4.7v-1.4h55.7v1.4">
</path>
</g>
<path d="M4.1 29.6c0-2.6 2.1-4.7 4.7-4.7h46.3c2.6 0 4.7 2.1 4.7 4.7V31H4.1v-1.4z" fill="#51575b">
</path>
<path fill="#3e4347" d="M4.1 30.8h55.7v24.6H4.1z">
</path>
<path d="M51.7 28.8H23.8l2.8-15.3c.2-.9 1.4-2.2 2.1-2.5c4.3-1.9 13.9-1.9 18.1 0c.7.3 1.9 1.7 2.1 2.5l2.8 15.3" fill="#51575b">
</path>
<path d="M50.4 37.8H25.2l2.5-12.7c.2-.7 1.3-1.9 1.9-2.1c3.8-1.6 12.5-1.6 16.4 0c.6.3 1.7 1.4 1.9 2.1l2.5 12.7" fill="#3e4347">
</path>
<path d="M56.9 44.8c0 10.6-8.6 19.2-19.2 19.2s-19.2-8.6-19.2-19.2s8.6-19.2 19.2-19.2c10.6.1 19.2 8.7 19.2 19.2" fill="#788287">
</path>
<path d="M54.8 44.8c0 9.4-7.6 17-17 17s-17-7.6-17-17s7.6-17 17-17s17 7.6 17 17" fill="#212528">
</path>
<circle cx="37.8" cy="44.8" r="13.8" fill="#3e4347">
</circle>
<circle cx="37.8" cy="44.8" r="7.5" fill="#212528">
</circle>
<g fill="#f5f5f5">
<path d="M47.9 38.9c0 2.4-1.9 4.3-4.3 4.3s-4.3-1.9-4.3-4.3s1.9-4.3 4.3-4.3s4.3 2 4.3 4.3" opacity=".5">
</path>
<circle cx="35.1" cy="47.5" r="2.7" opacity=".5">
</circle>
<circle cx="30.3" cy="52.3" r="1.6" opacity=".5">
</circle>
</g>
<path d="M17.2 51.5c0 1-.8 1.9-1.9 1.9H7.2c-1 0-1.9-.8-1.9-1.9V34.6c0-1 .8-1.9 1.9-1.9h8.1c1 0 1.9.8 1.9 1.9v16.9" fill="#636c72">
</path>
<circle cx="12.9" cy="28.2" r="2.8" fill="#212528">
</circle>
<path d="M46 17.4c0 1-.8 1.7-1.7 1.7H31.2c-1 0-1.7-.8-1.7-1.7v-1.8c0-1 .8-1.7 1.7-1.7h13.1c1 0 1.7.8 1.7 1.7v1.8" fill="#ffffff">
</path>
<g fill="#ffce31">
<path d="M42.5 15.2l12-7.9l-2.2-2.9z">
</path>
<path d="M56.5 18.9v-3.4l-12.3 2.3z">
</path>
<path d="M45.1 0H41l-2.2 14.5z">
</path>
<path d="M33.6 15.2L23.4 4.4l-2.3 2.9z">
</path>
<path d="M33.9 0h-4.2l6.9 14.5z">
</path>
<path d="M18.7 15.5v3.4l12.9-1.1z">
</path>
</g>
</svg>