<?xml version="1.0" encoding="UTF-8"?>
<svg width="512" height="512" version="1.1" viewBox="0 0 512 512" xmlns="http://www.w3.org/2000/svg">
 <path d="m183 208c0 7.97-6.38 15.1-15.1 15.1h-66.9c-7.97 0-15.1-6.38-15.1-15.1v-19.1c0-7.97 7.17-15.1 15.1-15.1h66.9c7.97 0 15.1 6.38 15.1 15.1v19.1" fill="#212528"/>
 <path d="m455 207c0 4.78-3.98 7.97-7.97 7.97h-35.9c-4.78 0-7.97-3.98-7.97-7.97v-10.4c0-4.78 3.98-7.97 7.97-7.97h35.9c4.78 0 7.97 3.98 7.97 7.97v10.4" fill="#212528"/>
 <path d="m478 446c0 20.7-16.7 37.5-37.5 37.5h-369c-20.7 0-37.5-16.7-37.5-37.5v-11.2h444v11.2" fill="#212528"/>
 <path d="m33.7 237c0-20.7 16.7-37.5 37.5-37.5h369c20.7 0 37.5 16.7 37.5 37.5v11.2h-444z" fill="#51575b"/>
 <path d="m33.7 246h444v196h-444z" fill="#3e4347"/>
 <path d="m413 230h-222l22.3-122c1.59-7.17 11.2-17.5 16.7-19.9 34.3-15.1 111-15.1 144 0 5.58 2.39 15.1 13.5 16.7 19.9l22.3 122" fill="#51575b"/>
 <path d="m403 302h-201l19.9-101c1.59-5.58 10.4-15.1 15.1-16.7 30.3-12.8 99.6-12.8 131 0 4.78 2.39 13.5 11.2 15.1 16.7l19.9 101" fill="#3e4347"/>
 <path d="m454 358c0 84.5-68.5 153-153 153s-153-68.5-153-153 68.5-153 153-153c84.5 0.797 153 69.3 153 153" fill="#788287"/>
 <path d="m438 358c0 74.9-60.6 135-135 135s-135-60.6-135-135 60.6-135 135-135 135 60.6 135 135" fill="#212528"/>
 <circle cx="302" cy="358" r="110" fill="#3e4347"/>
 <circle cx="302" cy="358" r="59.8" fill="#212528"/>
 <path d="m383 311c0 19.1-15.1 34.3-34.3 34.3s-34.3-15.1-34.3-34.3 15.1-34.3 34.3-34.3 34.3 15.9 34.3 34.3" opacity=".5" fill="#f5f5f5"/>
 <circle cx="281" cy="380" r="21.5" opacity=".5" fill="#f5f5f5"/>
 <circle cx="242" cy="418" r="12.8" opacity=".5" fill="#f5f5f5"/>
 <path d="m138 411c0 7.97-6.38 15.1-15.1 15.1h-64.5c-7.97 0-15.1-6.38-15.1-15.1v-135c0-7.97 6.38-15.1 15.1-15.1h64.5c7.97 0 15.1 6.38 15.1 15.1v135" fill="#636c72"/>
 <circle cx="104" cy="226" r="22.3" fill="#212528"/>
 <path d="m368 140c0 7.97-6.38 13.5-13.5 13.5h-104c-7.97 0-13.5-6.38-13.5-13.5v-14.3c0-7.97 6.38-13.5 13.5-13.5h104c7.97 0 13.5 6.38 13.5 13.5v14.3" fill="#ffffff"/>
 <path d="m340 122 95.6-63-17.5-23.1z" fill="#ffce31"/>
 <path d="m451 152v-27.1l-98 18.3z" fill="#ffce31"/>
 <path d="m360 1h-32.7l-17.5 116z" fill="#ffce31"/>
 <path d="m269 122-81.3-86.1-18.3 23.1z" fill="#ffce31"/>
 <path d="m271 1h-33.5l55 116z" fill="#ffce31"/>
 <path d="m150 125v27.1l103-8.77z" fill="#ffce31"/>
</svg>
