<?xml version="1.0" encoding="iso-8859-1"?>
<!-- Uploaded to: SVG Repo, www.svgrepo.com, Generator: SVG Repo Mixer Tools -->
<svg height="800px" width="800px" version="1.1" id="Layer_1" xmlns="http://www.w3.org/2000/svg" xmlns:xlink="http://www.w3.org/1999/xlink" 
	 viewBox="0 0 491.52 491.52" xml:space="preserve">
<path style="fill:#3A556A;" d="M398.238,361.868c-39.644,37.995-93.36,61.416-152.477,61.416
	c-59.033,0-112.681-23.354-152.31-61.254c-21.846,22.83-38.692,50.484-48.58,81.292c-8.933,27.835,16.509,54.68,44.662,46.804
	c106.184-29.707,210.195-30.694,311.914-1.373c28.308,8.16,54.317-18.661,45.142-46.656
	C436.63,411.703,419.873,384.427,398.238,361.868z"/>
<circle style="fill:#EBF0F3;" cx="245.76" cy="202.706" r="202.706"/>
<path style="fill:#2F4859;" d="M245.76,405.411c-54.046,0-103.112-21.193-139.451-55.669c-4.443,3.928-8.757,8.003-12.856,12.287
	c39.629,37.9,93.276,61.254,152.31,61.254c59.116,0,112.832-23.421,152.477-61.416c-4.105-4.281-8.423-8.35-12.871-12.275
	C349.012,384.157,299.883,405.411,245.76,405.411z"/>
<circle style="fill:#3A556A;" cx="245.76" cy="202.706" r="118.323"/>
<circle style="fill:#64798A;" cx="245.76" cy="202.706" r="88.643"/>
<circle style="fill:#FCD462;" cx="245.76" cy="45.112" r="17.352"/>
<circle style="fill:#27A2DB;" cx="245.76" cy="202.706" r="58.793"/>
<ellipse transform="matrix(-0.7071 -0.7071 0.7071 -0.7071 248.4315 452.8476)" style="fill:#FFFFFF;" cx="218.005" cy="174.971" rx="10.593" ry="20.977"/>
</svg>