<?xml version="1.0" encoding="UTF-8"?>
<svg width="512" height="512" version="1.1" viewBox="0 0 512 512" xmlns="http://www.w3.org/2000/svg">
 <path d="m256 0c-141 0-256 115-256 256s115 256 256 256 256-115 256-256-115-256-256-256zm0 311c-30.2 0-54.9-24.6-54.9-54.9s24.6-54.9 54.9-54.9 54.9 24.6 54.9 54.9-24.6 54.9-54.9 54.9z" fill="#dfdfe1"/>
 <path d="m256 0v201c30.2 0 54.9 24.6 54.9 54.9s-24.6 54.9-54.9 54.9v201c141 0 256-115 256-256s-115-256-256-256z" fill="#cfcdd2"/>
 <path d="m203 270-194 52.1c23.6 88.1 92.9 157 181 181l52.1-194c-18.9-5.06-33.7-19.9-38.8-38.8z" fill="#f2f2f4"/>
 <path d="m309 242 194-52.1c-23.6-88.1-92.9-157-181-181l-52.1 194c18.9 5.06 33.7 19.9 38.8 38.8z" fill="#dfdfe1"/>
</svg>
