<?xml version="1.0" encoding="iso-8859-1"?>
<!-- Uploaded to: SVG Repo, www.svgrepo.com, Generator: SVG Repo Mixer Tools -->
<svg height="800px" width="800px" version="1.1" id="Layer_1" xmlns="http://www.w3.org/2000/svg" xmlns:xlink="http://www.w3.org/1999/xlink" 
	 viewBox="0 0 512 512" xml:space="preserve">
<path style="fill:#DFDFE1;" d="M256,0C114.615,0,0,114.615,0,256s114.615,256,256,256s256-114.615,256-256S397.385,0,256,0z
	 M256,310.857c-30.248,0-54.857-24.609-54.857-54.857s24.609-54.857,54.857-54.857s54.857,24.609,54.857,54.857
	S286.248,310.857,256,310.857z"/>
<path style="fill:#CFCDD2;" d="M256,0v201.143c30.248,0,54.857,24.609,54.857,54.857S286.248,310.857,256,310.857V512
	c141.385,0,256-114.615,256-256S397.385,0,256,0z"/>
<path style="fill:#F2F2F4;" d="M203.015,270.197L8.68,322.269c23.552,88.119,92.932,157.499,181.051,181.051l52.072-194.337
	C222.947,303.927,208.073,289.053,203.015,270.197z"/>
<path style="fill:#DFDFE1;" d="M308.983,241.803l194.337-52.072C479.768,101.612,410.388,32.232,322.269,8.68l-52.072,194.337
	C289.053,208.073,303.927,222.947,308.983,241.803z"/>
</svg>