<?xml version="1.0" encoding="UTF-8"?>
<svg width="512" height="512" version="1.1" viewBox="0 0 512 512" xmlns="http://www.w3.org/2000/svg">
 <defs>
  <linearGradient id="a" x1="76" x2="441" y1="71" y2="437" gradientUnits="userSpaceOnUse">
   <stop style="stop-color:#f3b149" offset="0"/>
   <stop style="stop-color:#e38f12" offset="1"/>
  </linearGradient>
 </defs>
 <circle cx="256" cy="256" r="255" fill="url(#a)"/>
 <path d="m232 273-7.21-108c-1.35-21-2.01-36.1-2.01-45.2 0-12.4 3.27-22.2 9.78-29.1 6.53-6.99 15.1-10.5 25.8-10.5 12.9 0 21.6 4.47 25.9 13.4 4.34 8.94 6.53 21.8 6.53 38.6 0 9.91-0.532 20-1.57 30.2l-9.68 111c-1.05 13.2-3.29 23.3-6.76 30.4-3.45 7.04-9.16 10.6-17.1 10.6-8.11 0-13.7-3.4-16.9-10.2-3.15-6.81-5.41-17.2-6.75-31.2zm25 148c-9.15 0-17.2-2.95-24-8.88-6.83-5.92-10.2-14.2-10.2-24.9 0-9.3 3.27-17.2 9.78-23.8 6.53-6.53 14.5-9.78 24-9.78 9.46 0 17.5 3.26 24.2 9.78 6.68 6.53 10 14.4 10 23.8 0 10.5-3.38 18.7-10.1 24.8-6.74 6-14.6 8.99-23.6 8.99z" fill="#fff"/>
</svg>
