<?xml version="1.0" encoding="UTF-8"?>
<svg width="512" height="512" version="1.1" viewBox="0 0 512 512" xmlns="http://www.w3.org/2000/svg">
 <path d="m511 256c0-140.8-114.2-255-255-255-140.8 0-255 114.2-255 255 0 140.8 114.2 255 255 255 140.8 0 255-114.2 255-255z" fill="#59a60f"/>
 <path d="m396.4 170.6c-6.003-15.48-18.23-13.04-31.49-10.41-7.916 1.65-43.12 11.96-98.83 70.7-23.12 24.38-38.37 43.81-48.41 58.64-6.133-7.53-13.16-15.59-20.54-22.97-22.69-22.69-48-38.27-49.07-38.92-10.62-6.492-24.48-3.152-31 7.46-6.502 10.61-3.172 24.5 7.432 31.02 0.2169 0.1367 21.95 13.57 40.72 32.35 19.15 19.15 36.49 45.04 36.67 45.3a22.56 22.56 0 0 0 22.64 9.725 22.56 22.56 0 0 0 18.03-16.79c0.0545-0.2087 9-24.93 56.26-74.76 38.06-40.14 63.44-52.9 72.24-56.44 0.0843-0.0144 0.1449-0.0206 0.259-0.0442-0.0421 0.0103 0.2847-0.1408 0.8151-0.3793 1.51-0.5664 2.319-0.7832 2.365-0.7946-0.4338 0.1079-0.6589 0.1346-0.6589 0.1346l-0.0144-0.0781a3052 3052 0 0 1 11.85-5.123c11.47-4.713 15.2-17.05 10.72-28.61z" fill="#fff"/>
</svg>
