<?xml version="1.0" encoding="UTF-8"?>
<svg width="512" height="512" version="1.1" viewBox="0 0 512 512" xmlns="http://www.w3.org/2000/svg">
 <defs>
  <linearGradient id="a" x1="76" x2="441" y1="71" y2="437" gradientUnits="userSpaceOnUse">
   <stop style="stop-color:#64bb11" offset="0"/>
   <stop style="stop-color:#4b8c0d" offset="1"/>
  </linearGradient>
 </defs>
 <path d="m511 256c0-141-114-255-255-255s-255 114-255 255 114 255 255 255 255-114 255-255z" fill="url(#a)"/>
 <path d="m396 171c-6-15.5-18.2-13-31.5-10.4-7.92 1.65-43.1 12-98.8 70.7-23.1 24.4-38.4 43.8-48.4 58.6-6.13-7.53-13.2-15.6-20.5-23-22.7-22.7-48-38.3-49.1-38.9-10.6-6.49-24.5-3.15-31 7.46-6.5 10.6-3.17 24.5 7.43 31 0.217 0.137 22 13.6 40.7 32.4 19.2 19.2 36.5 45 36.7 45.3a22.6 22.6 0 0 0 22.6 9.72 22.6 22.6 0 0 0 18-16.8c0.0545-0.209 9-24.9 56.3-74.8 38.1-40.1 63.4-52.9 72.2-56.4 0.0843-0.0144 0.145-0.0206 0.259-0.0442-0.0421 0.0103 0.285-0.141 0.815-0.379 1.51-0.566 2.32-0.783 2.36-0.795-0.434 0.108-0.659 0.135-0.659 0.135l-0.0144-0.0781a3052 3052 0 0 1 11.8-5.12c11.5-4.71 15.2-17 10.7-28.6z" fill="#fff"/>
</svg>
