<svg xmlns="http://www.w3.org/2000/svg" viewBox="0 0 496.158 496.158"><path d="M496.158 248.085C496.158 111.064 385.088.003 248.082.003 111.07.003 0 111.063 0 248.085c0 137.002 111.07 248.07 248.082 248.07 137.006 0 248.076-111.068 248.076-248.07z" fill="#59a60f"/><path d="M384.673 164.968c-5.84-15.059-17.74-12.682-30.635-10.127-7.701 1.605-41.953 11.631-96.148 68.777-22.49 23.717-37.326 42.625-47.094 57.045-5.967-7.326-12.803-15.164-19.982-22.346-22.078-22.072-46.699-37.23-47.734-37.867-10.332-6.316-23.82-3.066-30.154 7.258-6.326 10.324-3.086 23.834 7.23 30.174.211.133 21.354 13.205 39.619 31.475 18.627 18.629 35.504 43.822 35.67 44.066a21.943 21.943 0 0 0 22.022 9.461 21.951 21.951 0 0 0 17.545-16.332c.053-.203 8.756-24.256 54.73-72.727 37.029-39.053 61.723-51.465 70.279-54.908.082-.014.141-.02.252-.043-.041.01.277-.137.793-.369 1.469-.551 2.256-.762 2.301-.773-.422.105-.641.131-.641.131l-.014-.076a2969.508 2969.508 0 0 1 11.533-4.984c11.16-4.585 14.789-16.589 10.428-27.835z" fill="#fff"/></svg>
