<svg xmlns="http://www.w3.org/2000/svg" viewBox="0 0 496.158 496.158"><path d="M496.158 248.085C496.158 111.064 385.088.003 248.082.003 111.07.003 0 111.063 0 248.085c0 137.002 111.07 248.07 248.082 248.07 137.006 0 248.076-111.068 248.076-248.07z" fill="#e04f5f"/><path d="M277.042 248.082l72.528-84.196c7.91-9.182 6.876-23.041-2.31-30.951-9.172-7.904-23.032-6.876-30.947 2.306l-68.236 79.212-68.229-79.212c-7.91-9.188-21.771-10.216-30.954-2.306-9.186 7.91-10.214 21.77-2.304 30.951l72.522 84.196-72.522 84.192c-7.91 9.182-6.882 23.041 2.304 30.951a21.864 21.864 0 0 0 14.316 5.318 21.914 21.914 0 0 0 16.638-7.624l68.229-79.212 68.236 79.212c4.338 5.041 10.47 7.624 16.637 7.624a21.863 21.863 0 0 0 14.311-5.318c9.186-7.91 10.22-21.77 2.31-30.951l-72.529-84.192z" fill="#fff"/></svg>