<?xml version="1.0" encoding="UTF-8"?>
<svg width="512" height="512" version="1.1" viewBox="0 0 512 512" xmlns="http://www.w3.org/2000/svg">
 <defs>
  <linearGradient id="a" x1="76" x2="441" y1="71" y2="437" gradientUnits="userSpaceOnUse">
   <stop style="stop-color:#64bb11" offset="0"/>
   <stop style="stop-color:#4b8c0d" offset="1"/>
  </linearGradient>
 </defs>
 <path d="m511 256c0-141-114-255-255-255s-255 114-255 255 114 255 255 255 255-114 255-255z" fill="url(#a)"/>
 <path d="m396 171c-6.33-12.7-18.2-13-31.5-10.4-7.92 1.65-43.1 12-98.8 70.7-23.1 24.4-38.4 43.8-48.4 58.6-6.13-7.53-13.2-15.6-20.5-23-22.7-22.7-42.6-35.9-49.1-38.9-8.55-3.94-23.9-2.78-31 7.46-4.91 7.1-3.17 24.5 7.43 31 0.217 0.137 22 13.6 40.7 32.4 19.2 19.2 26.7 31.8 36.7 45.3 5.31 7.16 13.8 11.2 22.6 9.72 8.79-1.55 12.7-8.12 18-16.8 14.1-23.1 20.3-36.1 56.3-74.8 25.7-29.9 51.9-47.7 86.8-62.7 11.6-5.24 15.6-19 10.8-28.6z" fill="#fff"/>
</svg>
