<?xml version="1.0" encoding="UTF-8"?>
<svg width="512" height="512" version="1.1" viewBox="0 0 512 512" xmlns="http://www.w3.org/2000/svg">
 <defs>
  <linearGradient id="a" x1="76" x2="441" y1="71" y2="437" gradientUnits="userSpaceOnUse">
   <stop style="stop-color:#f94343" offset="0"/>
   <stop style="stop-color:#c90d0d" offset="1"/>
  </linearGradient>
 </defs>
 <path d="m511 256c0-141-114-255-255-255s-255 114-255 255 114 255 255 255 255-114 255-255z" fill="url(#a)"/>
 <path d="m286 256 74.6-86.5c8.13-9.44 7.07-23.7-2.37-31.8-9.43-8.12-23.7-7.07-31.8 2.37l-70.1 81.4-70.1-81.4c-8.13-9.44-22.4-10.5-31.8-2.37-9.44 8.13-10.5 22.4-2.37 31.8l74.6 86.5-74.6 86.5c-8.13 9.44-7.07 23.7 2.37 31.8a22.5 22.5 0 0 0 14.7 5.47 22.5 22.5 0 0 0 17.1-7.84l70.1-81.4 70.1 81.4c4.46 5.18 10.8 7.84 17.1 7.84a22.5 22.5 0 0 0 14.7-5.47c9.44-8.13 10.5-22.4 2.37-31.8z" fill="#fff"/>
</svg>
