<?xml version="1.0" encoding="UTF-8"?>
<svg width="512" height="512" version="1.1" viewBox="0 0 512 512" xmlns="http://www.w3.org/2000/svg">
 <path d="m511 256c0-140.8-114.2-255-255-255-140.8 0-255 114.2-255 255 0 140.8 114.2 255 255 255 140.8 0 255-114.2 255-255z" fill="#e72020"/>
 <path d="m285.8 256 74.55-86.54c8.131-9.438 7.068-23.68-2.374-31.81-9.428-8.125-23.67-7.068-31.81 2.37l-70.14 81.42-70.13-81.42c-8.131-9.444-22.38-10.5-31.82-2.37-9.442 8.131-10.5 22.38-2.368 31.81l74.55 86.54-74.55 86.54c-8.131 9.438-7.074 23.68 2.368 31.81a22.47 22.47 0 0 0 14.72 5.466 22.53 22.53 0 0 0 17.1-7.837l70.13-81.42 70.14 81.42c4.459 5.182 10.76 7.837 17.1 7.837a22.47 22.47 0 0 0 14.71-5.466c9.442-8.131 10.51-22.38 2.374-31.81z" fill="#fff"/>
</svg>
