<?xml version="1.0" encoding="UTF-8"?>
<svg width="512" height="512" version="1.1" viewBox="0 0 512 512" xmlns="http://www.w3.org/2000/svg">
 <circle cx="256" cy="256" r="255" fill="#e79e2d"/>
 <path d="m231.7 272.6-7.208-107.8c-1.353-21-2.013-36.08-2.013-45.23 0-12.45 3.266-22.17 9.776-29.13 6.527-6.994 15.12-10.48 25.76-10.48 12.91 0 21.55 4.466 25.89 13.39 4.341 8.935 6.527 21.8 6.527 38.59 0 9.906-0.5316 19.97-1.57 30.15l-9.68 110.9c-1.047 13.21-3.294 23.33-6.757 30.39-3.451 7.042-9.157 10.56-17.1 10.56-8.11 0-13.73-3.398-16.88-10.24-3.152-6.812-5.411-17.21-6.751-31.16zm24.98 148.1c-9.148 0-17.15-2.947-23.96-8.879-6.829-5.915-10.24-14.2-10.24-24.86 0-9.305 3.266-17.22 9.776-23.75 6.527-6.527 14.52-9.784 23.97-9.784 9.455 0 17.51 3.257 24.19 9.784 6.676 6.527 10.02 14.45 10.02 23.75 0 10.49-3.375 18.74-10.13 24.75-6.745 5.996-14.62 8.992-23.62 8.992z" fill="#fff"/>
</svg>
