<svg xmlns="http://www.w3.org/2000/svg" xmlns:xlink="http://www.w3.org/1999/xlink" width="800" height="800" viewBox="0 0 32 32">
  <defs>
    <path id="i" fill="#ec771d" d="M12.807 10.036L4.875 10L4.907 13.016L4.207 13.665V9.354L13.507 9.385L12.807 10.034ZM12.821 15.656L13.483 14.94L4.183 14.909L4.217 19.286L4.863 18.622L4.883 15.622L12.815 15.655"/>
  </defs>
  <defs>
    <linearGradient id="a" x1="-414.07" x2="-413.475" y1="-323.688" y2="-323.688" gradientTransform="rotate(-2.754 55095.274 -73583.23) scale(8.352)" gradientUnits="userSpaceOnUse">
      <stop offset="0" stop-color="#3dc2f3"/>
      <stop offset="1" stop-color="#fff"/>
    </linearGradient>
    <linearGradient xlink:href="#a" id="d" x1="-466.763" x2="-466.168" y1="-351.799" y2="-351.799" gradientTransform="rotate(176.688 -1581.368 -1116.272) scale(6.683)"/>
    <linearGradient xlink:href="#a" id="e" x1="-515.182" x2="-514.587" y1="-375.873" y2="-375.873" gradientTransform="rotate(180 -662.65 -481.324) scale(2.607)"/>
    <linearGradient id="b" x1="-413.465" x2="-412.869" y1="-322.372" y2="-322.372" gradientTransform="rotate(-1.63 93678.305 -123744.426) scale(8.403)" gradientUnits="userSpaceOnUse">
      <stop offset="0" stop-color="#0995dd"/>
      <stop offset="1" stop-color="#fff"/>
    </linearGradient>
    <linearGradient xlink:href="#a" id="f" x1="-515.182" x2="-514.587" y1="-373.034" y2="-373.034" gradientTransform="rotate(180 -662.625 -472.184) scale(2.607)"/>
    <linearGradient xlink:href="#b" id="g" x1="-415.664" x2="-415.069" y1="-321.968" y2="-321.968" gradientTransform="rotate(-7.749 19166.393 -28309.74) scale(8.752)"/>
    <linearGradient xlink:href="#a" id="j" x1="-397.199" x2="-396.604" y1="-317.443" y2="-317.443" gradientTransform="rotate(.719 -126538.107 155625.572) scale(4.876)"/>
    <radialGradient id="c" cx="-428.363" cy="-337.616" r=".076" gradientTransform="matrix(22.426 -.918 .944 23.053 9940.275 7417.533)" gradientUnits="userSpaceOnUse">
      <stop offset="0" stop-color="#fff"/>
      <stop offset="1" stop-color="#41c3f3"/>
    </radialGradient>
    <radialGradient xlink:href="#c" id="h" cx="-435.908" cy="-337.858" r=".076" gradientTransform="matrix(22.426 -.918 .944 23.053 10123.552 7416.068)"/>
  </defs>
  <path fill="#2e2a2b" d="M9.832 2L17.247 2.053A2 2 0 0 1 19.301 2.989L19.971 3.808H25.643C26.143 3.84 26.443 3.983 26.592 4.254A2.8 2.8 0 0 1 26.684 5.3L26.703 6.213C26.711 7.747 26.315 7.746 25.694 7.736L24.384 7.753V19.494A8.05 8.05 0 0 1 25.23 19.513C25.851 19.524 26.42 19.518 26.421 20.879C26.412 21.103 26.404 21.329 26.411 21.5A2.2 2.2 0 0 0 26.411 22.069C26.379 22.569 26.341 22.899 26.111 23.116C25.931 23.347 25.624 23.428 25.123 23.396C24.846 23.372 24.607 23.417 24.382 23.408L24.366 25.615C24.471 25.646 24.591 25.622 24.696 25.654C24.852 25.699 25.025 25.694 25.115 25.775A1.43 1.43 0 0 1 26.239 27.175L28.191 27.288A0.587 0.587 0 0 1 28.418 26.9A0.754 0.754 0 0 1 28.942 26.655L28.995 26.67A0.9 0.9 0 0 1 29.785 27.47L29.77 27.523L29.782 28.264A0.942 0.942 0 0 1 29.496 28.864A1.194 1.194 0 0 1 28.919 29.093A0.753 0.753 0 0 1 28.373 28.822A0.425 0.425 0 0 1 28.225 28.551L26.143 28.685A1.6 1.6 0 0 1 25.691 29.462A2.156 2.156 0 0 1 24.178 29.987L21.278 29.998A2.421 2.421 0 0 1 19.693 29.598A1.483 1.483 0 0 1 19.211 28.721L16.011 28.588A0.518 0.518 0 0 1 15.8 28.923A0.866 0.866 0 0 1 15.223 29.153A0.745 0.745 0 0 1 14.663 28.934A0.868 0.868 0 0 1 14.433 28.357V27.563A0.754 0.754 0 0 1 14.704 27.018A0.6 0.6 0 0 1 15.281 26.788A0.745 0.745 0 0 1 15.841 27.007A0.428 0.428 0 0 1 15.99 27.277L19.19 27.013A1.928 1.928 0 0 1 19.79 26.113A2.406 2.406 0 0 1 21.064 25.633L21.08 23.425C20.788 23.453 20.512 23.425 20.167 23.444L18.92 24.613A2.482 2.482 0 0 1 16.762 25.406C15.572 25.401 14.262 25.418 12.953 25.435C11.71 25.415 10.469 25.395 9.106 25.397A2.971 2.971 0 0 1 7.962 25.235A3.342 3.342 0 0 1 6.91 24.363A5.746 5.746 0 0 1 6.441 23.83C6.314 23.68 6.188 23.53 5.972 23.297A0.763 0.763 0 0 1 5.808 23.079A0.467 0.467 0 0 1 5.914 22.712C5.981 22.675 6.064 22.586 6.132 22.549C6.304 22.542 6.491 22.483 6.664 22.476C8.079 22.489 9.717 22.511 11.303 22.517S14.476 22.53 16.115 22.552A2.273 2.273 0 0 0 17.115 22.219A5.376 5.376 0 0 0 17.948 21.497C18.828 20.617 19.992 19.537 20.785 19.54A0.5 0.5 0 0 1 21.062 19.563L21.095 7.715H20.695A1.545 1.545 0 0 1 19.295 7.081L17.918 5.381C17.285 4.631 17.285 4.631 16.372 4.649L7.55 4.572C7.033 4.592 6.121 4.612 6.745 3.828L7.572 2.928A3.127 3.127 0 0 1 8.66 2.115A5.06 5.06 0 0 1 9.828 2"/>
  <path fill="url(#c)" d="M15.366 27.055L15.361 27.073L15.32 27.08L15.279 27.087L15.261 27.08L15.179 27.095L15.161 27.088L15.033 27.128L15.005 27.158L14.964 27.165L14.948 27.219L14.902 27.244L14.884 27.237L14.868 27.291L14.852 27.345L14.836 27.399L14.82 27.453L14.804 27.507L14.788 27.561L14.772 27.615L14.794 27.738L14.789 27.756L14.779 27.791L14.801 27.914L14.785 27.968L14.797 28.126L14.781 28.18L14.765 28.234L14.796 28.262L14.804 28.303L14.788 28.357L14.772 28.411L14.82 28.444L14.81 28.479L14.848 28.548L14.891 28.599L14.886 28.617L14.94 28.632L14.978 28.701L15.032 28.716C15.06 28.767 15.124 28.784 15.205 28.786H15.282L15.364 28.771A0.45 0.45 0 0 0 15.528 28.741L15.579 28.697L15.597 28.704L15.613 28.65L15.698 28.558L15.714 28.504L15.73 28.45L15.746 28.396L15.762 28.342L15.778 28.288L15.788 28.253L15.75 28.184L15.781 28.077L15.764 27.936L15.79 27.847L15.768 27.724L15.784 27.67L15.8 27.616L15.762 27.547L15.778 27.493L15.788 27.458L15.757 27.43L15.749 27.389L15.736 27.366L15.711 27.32L15.673 27.251L15.653 27.187L15.599 27.172L15.454 27.072L15.365 27.046Z"/>
  <path fill="url(#a)" d="M19.234 27.352L19.111 27.375L19.058 27.36L18.935 27.382L18.776 27.394L18.723 27.379L18.6 27.402L18.477 27.424L18.355 27.447L18.247 27.415L18.13 27.419L18.025 27.447L17.972 27.432L17.849 27.454L17.672 27.462L17.619 27.446L17.496 27.469L17.373 27.491L17.32 27.476L17.161 27.488L17.039 27.511L16.985 27.495L16.862 27.518L16.74 27.54L16.632 27.509L16.51 27.531L16.405 27.559L16.399 27.577L16.336 27.597L16.282 27.582L16.106 27.589L16.085 28.261L16.154 28.222L16.244 28.248L16.366 28.226L16.42 28.241L16.473 28.256L16.65 28.249L16.703 28.264L16.757 28.28L16.88 28.257L16.933 28.273L17.022 28.299L17.145 28.276L17.199 28.291L17.375 28.284L17.429 28.3L17.482 28.315L17.605 28.292L17.659 28.308L17.766 28.339L17.871 28.311L17.924 28.327L18.047 28.304L18.154 28.335L18.208 28.351L18.33 28.328L18.384 28.344L18.437 28.359L18.596 28.347L18.65 28.362L18.703 28.377L18.82 28.373L18.928 28.404L19.05 28.382L19.104 28.397L19.158 28.412L19.28 28.39L19.287 27.366L19.233 27.35L19.234 27.352Z"/>
  <path fill="url(#d)" d="M24.59 26.043A0.777 0.777 0 0 1 24.414 26.05C24.314 26.02 24.252 26.003 24.184 26.043L24.13 26.028L24.076 26.013L23.741 26.032L23.565 26.039L23.389 26.046L23.231 26.058L22.894 26.019L22.541 26.033L22.383 26.045L22.207 26.052L22.031 26.059L21.664 25.991L21.31 26L21.187 26.022L21.133 26.007L21.069 26.027H21.01A1.327 1.327 0 0 0 20.71 26.115A1.161 1.161 0 0 0 20.536 26.181L20.449 26.214A0.406 0.406 0 0 0 20.293 26.285L20.219 26.341L20.109 26.386L20.093 26.44C20.04 26.425 20.022 26.478 19.955 26.516L19.911 26.6L19.878 26.648L19.788 26.758L19.778 26.793A0.967 0.967 0 0 0 19.654 27.222L19.636 28.422A1.128 1.128 0 0 0 19.8 29L19.807 29.041C19.844 29.108 19.867 29.175 19.972 29.205L20.051 29.266L20.135 29.31A0.551 0.551 0 0 0 20.285 29.392L20.316 29.42L20.387 29.441L20.476 29.467C20.576 29.497 20.691 29.473 20.795 29.501S21.029 29.508 21.186 29.556L21.191 29.538L21.209 29.545L21.309 29.536L21.363 29.551L21.521 29.539L21.697 29.532L21.873 29.525L22.21 29.564L22.368 29.552L22.544 29.545L22.72 29.538L22.891 29.549L23.049 29.537L23.225 29.53L23.562 29.569L23.897 29.55L23.933 29.561H24.127C24.194 29.524 24.127 29.561 24.181 29.576L24.281 29.548C24.387 29.536 24.49 29.548 24.598 29.524A0.942 0.942 0 0 0 24.772 29.458A0.936 0.936 0 0 0 25.097 29.339L25.102 29.321A0.588 0.588 0 0 0 25.245 29.227L25.25 29.209L25.3 29.2L25.323 29.188L25.397 29.132A1.072 1.072 0 0 0 25.559 28.908A0.881 0.881 0 0 0 25.786 28.393A0.344 0.344 0 0 0 25.795 28.163V27.157L25.785 27.057A0.681 0.681 0 0 0 25.677 26.696A0.562 0.562 0 0 0 25.448 26.417A1.075 1.075 0 0 0 25.265 26.248L25 26.166L24.893 26.135L24.643 26.062L24.589 26.047Z"/>
  <path fill="url(#e)" d="M23.876 7.715L23.541 7.734L23.204 7.694L22.869 7.713L22.693 7.72L22.517 7.727L22.239 7.685L21.958 7.72L21.782 7.727L21.552 7.718L21.524 10.15L21.53 16L21.539 16.235V18.889L21.529 19.525H21.606L21.706 19.516A0.531 0.531 0 0 0 21.941 19.506A1.656 1.656 0 0 1 22.201 19.543L22.301 19.534H22.378A0.811 0.811 0 0 1 22.554 19.527C22.674 19.504 22.769 19.527 22.889 19.508C22.941 19.523 22.944 19.524 23.012 19.486L23.101 19.512A0.824 0.824 0 0 0 23.377 19.495L23.418 19.488A2.009 2.009 0 0 1 23.684 19.507A1.4 1.4 0 0 1 23.825 19.489L23.861 19.5C23.913 19.515 23.915 19.515 23.93 19.462L23.949 17.262L23.935 14.373L23.942 11.412L23.935 11.236L23.928 8.523V7.729H23.869L23.874 7.711Z"/>
  <path fill="url(#b)" d="M25.9 4.263A2.521 2.521 0 0 1 25.617 4.239L25.341 4.256L24.769 4.226H24.033L23.292 4.243L22.605 4.276H21.48L20.7 4.227L19.941 4.239L19.89 4.282L19.69 4.166L19.614 4.028L18.94 3.213A2.164 2.164 0 0 0 18.627 2.89A1.118 1.118 0 0 0 18.156 2.579A2.133 2.133 0 0 0 17.393 2.474L17.27 2.496L17.004 2.477L16.651 2.491L15.872 2.439H15.136L14.395 2.456H13.989L13.248 2.473H12.86L12.14 2.419H11.887L11.734 2.413L11 2.439H10.612L10.259 2.453L9.817 2.441C9.698 2.463 9.591 2.416 9.523 2.453H9.135A1.279 1.279 0 0 0 8.82 2.536L8.751 2.574A1.308 1.308 0 0 0 8.551 2.652A1.45 1.45 0 0 0 8.361 2.771L8.333 2.802A1.919 1.919 0 0 0 7.948 3.194L7.1 4.136A2.047 2.047 0 0 1 7.5 4.156L8.679 4.15L9.032 4.136H10.174L10.915 4.119L11.694 4.171L12.029 4.152H13.965L14.3 4.133H14.706L15.431 4.169H15.625L15.832 4.19L16.397 4.179C16.467 4.179 16.512 4.172 16.573 4.172A3.12 3.12 0 0 1 16.961 4.172A1.219 1.219 0 0 1 17.647 4.41A3.355 3.355 0 0 1 18.028 4.83A1.089 1.089 0 0 1 18.237 5.045L18.722 5.709L19.434 6.593L19.617 6.762A1.878 1.878 0 0 0 19.826 6.977L19.844 6.982A1.451 1.451 0 0 0 20.17 7.193A1.558 1.558 0 0 0 20.561 7.248A0.173 0.173 0 0 0 20.719 7.236L20.944 7.262H21.35L22.075 7.298L22.41 7.279L22.763 7.265H24.293L24.646 7.251H25.44L25.706 7.27L25.76 7.286L25.86 7.276A0.319 0.319 0 0 0 26.185 7.022A3.266 3.266 0 0 0 26.237 6.243L26.282 5.288C26.282 5.22 26.277 5.174 26.275 5.112C26.262 4.767 26.275 4.55 26.191 4.468C26.169 4.348 26.058 4.313 25.901 4.268ZM23.874 7.7L23.929 8.51V7.716L23.874 7.7Z"/>
  <path fill="url(#f)" d="M23.876 23.365L23.871 23.383H23.754L23.7 23.368H23.583L23.529 23.353L23.46 23.391L23.299 23.344L23.294 23.362L23.23 23.382L23.141 23.356L23.072 23.394L22.911 23.347L22.86 23.391L22.842 23.384L22.735 23.353L22.666 23.391L22.559 23.36L22.436 23.382L22.4 23.371L22.277 23.393L22.206 23.372L22.048 23.384L21.994 23.369C21.926 23.406 21.923 23.407 21.871 23.391H21.794A0.258 0.258 0 0 1 21.641 23.391L21.605 23.38L21.6 23.4L21.559 23.407L21.536 23.419L21.513 24.032L21.534 25.161V25.567L21.588 25.582L21.642 25.597L21.8 25.585L21.854 25.6L21.977 25.578L22.031 25.593L22.207 25.586L22.261 25.601L22.384 25.579L22.438 25.594L22.596 25.582L22.65 25.597L22.773 25.575L22.827 25.59L23 25.587L23.054 25.602H23.171L23.225 25.617L23.383 25.605L23.437 25.62L23.56 25.598L23.614 25.613L23.79 25.606L23.844 25.621L23.849 25.603L23.913 25.583V24.654L23.934 23.382L23.88 23.367Z"/>
  <path fill="url(#g)" d="M25.542 19.973A1.57 1.57 0 0 0 25.305 19.924L25.236 19.962A0.5 0.5 0 0 0 25.065 19.951A2.583 2.583 0 0 0 24.442 19.964C24.3 19.964 24.166 19.972 24.054 19.964A3.98 3.98 0 0 1 23.594 19.944A3.534 3.534 0 0 1 23.206 19.944L23.106 19.953H22.912C22.812 19.962 22.693 19.964 22.559 19.967A3.682 3.682 0 0 0 21.941 19.967A3.69 3.69 0 0 1 21.553 19.967C21.44 19.967 21.32 19.96 21.206 19.967L21.094 19.953C21.026 19.99 20.934 19.965 20.866 20.003A0.2 0.2 0 0 0 20.69 20.01L20.544 20.045L20.462 20.06L20.311 20.113L20.306 20.131A8.1 8.1 0 0 0 19.543 20.631C19.426 20.739 19.32 20.85 19.197 20.957L19.151 20.982L19.095 21.043C19.002 21.12 18.903 21.193 18.795 21.267C18.712 21.356 18.627 21.467 18.536 21.56L18.456 21.634A1.176 1.176 0 0 1 18.233 21.802C18.15 21.891 18.133 21.929 18.069 21.967L18.064 21.985A2.265 2.265 0 0 1 17.392 22.565L17.376 22.619A5.191 5.191 0 0 1 16.611 22.919A1.5 1.5 0 0 1 16.411 22.956L16.37 22.963A0.84 0.84 0 0 1 16.199 22.952L16.153 22.977L16.13 22.989C16.03 22.958 15.914 22.982 15.757 22.939A4.353 4.353 0 0 1 15.164 22.98A4.292 4.292 0 0 0 14.64 22.98C14.534 22.98 14.425 22.961 14.316 22.964C14.097 22.957 13.877 22.964 13.662 22.95C13.385 22.926 13.145 22.975 12.868 22.95L12.827 22.957H12.768C12.648 22.957 12.527 22.94 12.408 22.93C12.115 22.959 11.836 22.941 11.545 22.97A0.406 0.406 0 0 0 11.315 22.963C11.263 22.948 11.229 22.92 11.162 22.963C11.022 22.963 10.881 22.955 10.756 22.963A4.247 4.247 0 0 1 10.314 22.95C10.178 22.95 10.041 22.96 9.908 22.95A4.249 4.249 0 0 1 9.466 22.937C9.407 22.948 9.335 22.937 9.272 22.937H9.06C8.768 22.965 8.494 22.93 8.202 22.959A4.549 4.549 0 0 0 7.354 22.945C7.187 22.945 7.021 22.945 6.854 22.936C6.797 22.936 6.74 22.927 6.683 22.925L6.56 22.947C6.482 22.961 6.41 22.983 6.332 22.997L6.316 23.051A1.663 1.663 0 0 1 6.703 23.451L6.784 23.571A1.712 1.712 0 0 1 6.972 23.723L7.12 23.882L7.133 23.905A0.3 0.3 0 0 0 7.316 24.074A1.572 1.572 0 0 0 7.606 24.41L7.619 24.433L7.667 24.466A1.675 1.675 0 0 0 8.074 24.797L8.181 24.828L8.538 24.928H9.156L9.25 24.937H9.385C9.662 24.961 9.951 24.945 10.228 24.969L10.369 24.952C10.457 24.961 10.547 24.963 10.635 24.971C10.913 24.944 11.181 24.961 11.457 24.938L11.498 24.931A4.606 4.606 0 0 0 12.346 24.945C12.57 24.952 12.788 24.975 13.012 24.983C13.184 24.977 13.352 24.964 13.577 24.973C13.723 24.958 13.871 24.965 14.006 24.962C14.275 24.94 14.536 24.962 14.806 24.942C14.863 24.942 14.92 24.953 14.977 24.953A3.859 3.859 0 0 0 15.677 24.961C15.813 24.961 15.95 24.951 16.083 24.961S16.336 24.961 16.471 24.961C16.591 24.939 16.704 24.968 16.824 24.947L16.931 24.978C17.223 24.949 17.463 24.897 17.703 24.853L17.726 24.841L17.744 24.848C17.828 24.827 17.885 24.815 17.954 24.793A1.435 1.435 0 0 0 18.11 24.722L18.156 24.697A2.2 2.2 0 0 0 18.397 24.535L18.497 24.466L18.502 24.448C18.554 24.401 18.61 24.356 18.661 24.3L18.83 24.117L19.012 23.957L19.204 23.757L19.591 23.424L19.991 23.037L20.165 22.971L20.259 22.98L20.341 22.965C20.474 22.976 20.611 22.965 20.747 22.965C21.024 22.989 21.318 22.955 21.595 22.979C21.834 22.955 22.061 22.979 22.295 22.969L22.453 22.957A0.17 0.17 0 0 0 22.611 22.945L22.723 22.959H23.246C23.523 22.983 23.817 22.95 24.094 22.973C24.386 22.944 24.666 22.962 24.957 22.933C25.027 22.933 25.094 22.952 25.164 22.955A1.918 1.918 0 0 0 25.764 22.896L25.849 22.804A1.285 1.285 0 0 0 26 22.063A2.921 2.921 0 0 1 25.989 21.498A2.092 2.092 0 0 1 25.999 20.862C25.991 20.755 25.979 20.662 25.964 20.581A1.147 1.147 0 0 0 25.901 20.33L25.843 20.197L25.818 20.151L25.739 20.09L25.731 20.049L25.66 20.028L25.54 19.974Z"/>
  <path fill="url(#h)" d="M28.993 27H28.817L28.789 27.03L28.748 27.037L28.738 27.072H28.679L28.663 27.126L28.612 27.169L28.602 27.204L28.586 27.258L28.57 27.312L28.554 27.366L28.538 27.42L28.522 27.474L28.506 27.528V27.646L28.501 27.664L28.496 27.682L28.5 27.7L28.508 27.741L28.523 27.823L28.492 27.93L28.52 28.03L28.504 28.084L28.488 28.138L28.526 28.207L28.51 28.261L28.494 28.315L28.525 28.343L28.533 28.384L28.546 28.407L28.556 28.507L28.61 28.522L28.648 28.591L28.702 28.606L28.74 28.675L28.847 28.706L28.99 28.747C29.048 28.716 29.141 28.684 29.21 28.656L29.251 28.649L29.302 28.606L29.335 28.558L29.404 28.52L29.409 28.502L29.419 28.467L29.435 28.413L29.451 28.359L29.467 28.305L29.483 28.251L29.493 28.216L29.455 28.147L29.471 28.093L29.487 28.039L29.48 27.863L29.496 27.809L29.489 27.633L29.467 27.51L29.483 27.456L29.493 27.421L29.48 27.398L29.467 27.375L29.454 27.352L29.47 27.298L29.452 27.291L29.432 27.227L29.414 27.22L29.358 27.146A0.055 0.055 0 0 1 29.32 27.077L29.213 27.046L29.159 27.031A1.383 1.383 0 0 0 28.998 26.984Z"/>
  <path fill="#b3272c" d="M4.416 5.513H17.121A0.2 0.2 0 0 1 17.263 5.613L17.337 5.748L17.349 19.197L17.288 19.406L16.288 20.306L15.288 21.206L15.22 21.243L15.153 21.28L2.463 21.227C2.363 21.196 2.216 21.098 2.247 20.993L2.219 7.6L2.234 7.547A0.168 0.168 0 0 1 2.316 7.458L4.225 5.57A0.29 0.29 0 0 1 4.413 5.511"/>
  <path fill="#f46d22" d="M16.556 5.989L4.488 5.947L2.992 7.386L14.995 7.464L16.557 5.989M16.854 6.287L15.343 7.778L15.355 15.948L15.328 20.536L15.96 19.924L16.876 19.112L16.854 6.288"/>
  <path fill="#f6ea16" d="M14.89 20.807L14.898 7.875L2.658 7.84L2.649 20.772L14.89 20.807"/>
  <path fill="#2e2a2b" d="M12.807 15.689L13.469 14.973L13.451 19.336L4.209 19.32L4.855 18.656L12.799 18.637V15.689ZM6.973 11.16L10.543 11.174L10.57 11.863L7 11.849L6.973 11.16ZM12.792 10.069L12.824 13.084L4.892 13.052L4.192 13.701L13.492 13.732V9.421L12.792 10.07ZM6.992 16.782L6.966 17.456L10.535 17.471L10.56 16.797L6.991 16.782"/>
  <use xlink:href="#i"/>
  <path fill="url(#j)" d="M27.982 27.59L27.976 27.608L27.912 27.628L27.859 27.613L27.752 27.582L27.647 27.609L27.593 27.594L27.54 27.579L27.417 27.601L27.363 27.586L27.256 27.555L27.251 27.572L27.187 27.592L27.133 27.577L27.026 27.546L26.909 27.55L26.855 27.535L26.766 27.509L26.761 27.527L26.697 27.547L26.643 27.531L26.536 27.5L26.467 27.538L26.413 27.523L26.36 27.508L26.306 27.493L26.301 27.51L26.237 27.53L26.216 28.202L26.226 28.302L26.224 28.378L26.277 28.394L26.4 28.371L26.454 28.387L26.577 28.364L26.612 28.375L26.735 28.352L26.853 28.348L26.906 28.363L27.029 28.341L27.082 28.356L27.205 28.334L27.259 28.349L27.381 28.327L27.435 28.342L27.486 28.299L27.54 28.314L27.663 28.292L27.716 28.307L27.839 28.285L27.892 28.3L27.898 28.282L27.962 28.262L28.015 28.278L28.069 28.293L28.074 28.275L28.138 28.255L28.191 28.27L28.196 27.652L28.143 27.637L28.089 27.621L27.982 27.59Z"/>
  <use xlink:href="#i"/>
  <path fill="#2e2a2b" d="M20.9 9.083L24.285 8.364L24.385 8.394A0.746 0.746 0 0 1 24.976 8.509A0.975 0.975 0 0 1 25.293 9L25.278 9.052A0.329 0.329 0 0 1 25.269 9.276C25.254 9.328 25.291 9.396 25.223 9.433A0.855 0.855 0 0 1 24.54 10.033L21.102 10.733L21.05 10.718A0.773 0.773 0 0 1 20.459 10.603A0.965 0.965 0 0 1 20.146 10.115L20.108 10.048A0.329 0.329 0 0 0 20.117 9.824L20.163 9.667A0.9 0.9 0 0 1 20.899 9.087ZM20.723 17.313L24.198 16.676L24.266 16.638A1.1 1.1 0 0 1 24.841 16.805A0.529 0.529 0 0 1 25.153 17.293L25.19 17.36L25.197 17.533L25.136 17.742A0.984 0.984 0 0 1 24.4 18.322L20.978 18.974C20.911 19.011 20.911 19.011 20.858 18.995A0.633 0.633 0 0 1 20.335 18.843A0.791 0.791 0 0 1 19.955 18.393L19.985 18.293A0.2 0.2 0 0 1 19.978 18.121L20.024 17.964A1.013 1.013 0 0 1 20.724 17.316ZM20.851 11.791A1.013 1.013 0 0 0 20.151 12.44L20.105 12.597A0.411 0.411 0 0 0 20.097 12.822L20.082 12.874A0.864 0.864 0 0 0 20.447 13.374A0.666 0.666 0 0 0 20.985 13.474L21.037 13.489L24.475 12.784A0.983 0.983 0 0 0 25.211 12.203L25.257 12.046C25.287 11.946 25.25 11.874 25.266 11.822L25.229 11.755A0.624 0.624 0 0 0 24.917 11.267A0.787 0.787 0 0 0 24.327 11.153L24.274 11.138L20.852 11.79ZM20.788 14.552A1.07 1.07 0 0 0 20.037 15.185L19.991 15.342A0.2 0.2 0 0 1 19.997 15.514L19.982 15.566L20.02 15.634A1.473 1.473 0 0 0 20.333 16.121A0.773 0.773 0 0 0 20.924 16.235L20.976 16.25L24.466 15.561A0.921 0.921 0 0 0 25.149 14.961L25.21 14.752A0.2 0.2 0 0 0 25.203 14.58L25.218 14.528A0.727 0.727 0 0 0 24.906 14.04A1.122 1.122 0 0 0 24.33 13.873C24.263 13.91 24.263 13.91 24.211 13.895L20.789 14.547"/>
</svg>
