<?xml version="1.0" encoding="iso-8859-1"?>
<!-- Uploaded to: SVG Repo, www.svgrepo.com, Generator: SVG Repo Mixer Tools -->
<svg version="1.1" id="Layer_1" xmlns="http://www.w3.org/2000/svg" xmlns:xlink="http://www.w3.org/1999/xlink" 
	 viewBox="0 0 512.003 512.003" xml:space="preserve">
<path style="fill:#2D2D2D;" d="M0.003,345.002V52.226c0.104-5.144,4.256-9.296,9.4-9.4h443.872c5.144,0.104,9.296,4.256,9.4,9.4
	v292.8C462.675,345.026-1.437,343.554,0.003,345.002z"/>
<g>
	<path style="fill:#BCBCBC;" d="M0.003,345.002v37.6c0.112,5.152,4.256,9.296,9.4,9.4h443.872c5.144-0.104,9.296-4.256,9.4-9.4
		v-37.6C462.675,345.002-1.437,346.45,0.003,345.002z"/>
	<rect x="132.299" y="458.482" style="fill:#BCBCBC;" width="198.08" height="9.4"/>
</g>
<polygon style="fill:#2D2D2D;" points="297.123,458.498 165.555,458.498 174.947,391.994 287.723,391.994 "/>
<rect x="18.803" y="61.626" style="fill:#FFFFFF;" width="425.04" height="264.56"/>
<path d="M488.171,469.178H364.803c-13.144-0.032-23.8-10.688-23.832-23.832V185.138c0.032-13.144,10.688-23.8,23.832-23.832h123.368
	c13.144,0.032,23.8,10.688,23.832,23.832v260.208C511.963,458.49,501.323,469.138,488.171,469.178z"/>
<g>
	<rect x="352.243" y="185.602" style="fill:#CCCCCC;" width="148.472" height="242.76"/>
	<path style="fill:#CCCCCC;" d="M448.747,176.002h-30.344c-1.368-0.008-2.472-1.112-2.48-2.48l0,0
		c0.008-1.368,1.112-2.472,2.48-2.48h30.4c1.368,0.008,2.472,1.112,2.48,2.48l0,0c-0.008,1.376-1.12,2.488-2.496,2.48
		C448.779,176.002,448.763,176.002,448.747,176.002z"/>
	<circle style="fill:#CCCCCC;" cx="404.243" cy="173.514" r="2.48"/>
	<path style="fill:#CCCCCC;" d="M426.483,460.498c-6.48,0-11.736-5.256-11.736-11.736c0-6.48,5.256-11.736,11.736-11.736
		c6.48,0,11.736,5.256,11.736,11.736l0,0C438.211,455.242,432.963,460.49,426.483,460.498z M426.483,439.426
		c-5.16,0-9.336,4.176-9.336,9.336s4.176,9.336,9.336,9.336s9.336-4.176,9.336-9.336l0,0
		C435.819,443.61,431.643,439.434,426.483,439.426z"/>
</g>
<rect x="363.923" y="339.362" style="fill:#FFFFFF;" width="125.072" height="74.096"/>
<rect x="378.163" y="351.146" width="96.64" height="3.544"/>
<g>
	<rect x="378.163" y="363.122" style="fill:#CCCCCC;" width="96.64" height="3.544"/>
	<rect x="378.163" y="372.234" style="fill:#CCCCCC;" width="96.64" height="3.544"/>
	<rect x="378.163" y="381.37" style="fill:#CCCCCC;" width="96.64" height="3.544"/>
	<rect x="378.163" y="390.514" style="fill:#CCCCCC;" width="96.64" height="3.544"/>
	<rect x="378.163" y="399.658" style="fill:#CCCCCC;" width="96.64" height="3.544"/>
</g>
<rect x="363.923" y="255.25" style="fill:#FFFFFF;" width="125.072" height="74.096"/>
<rect x="378.163" y="267.01" width="96.64" height="3.544"/>
<g>
	<rect x="378.163" y="278.954" style="fill:#CCCCCC;" width="96.64" height="3.544"/>
	<rect x="378.163" y="288.082" style="fill:#CCCCCC;" width="96.64" height="3.544"/>
	<rect x="378.163" y="297.202" style="fill:#CCCCCC;" width="96.64" height="3.544"/>
	<rect x="378.163" y="306.402" style="fill:#CCCCCC;" width="96.64" height="3.544"/>
	<rect x="378.163" y="315.522" style="fill:#CCCCCC;" width="96.64" height="3.544"/>
</g>
<rect x="363.923" y="200.562" style="fill:#E21B1B;" width="125.072" height="44.648"/>
</svg>