<?xml version="1.0" encoding="UTF-8"?>
<svg width="512" height="512" version="1.1" viewBox="0 0 512 512" xmlns="http://www.w3.org/2000/svg">
 <defs>
  <linearGradient id="b" x1="195" x2="195" y1="460" y2="485" gradientUnits="userSpaceOnUse">
   <stop stop-color="#4d4d4d" offset="0"/>
   <stop stop-color="#808080" offset=".5"/>
   <stop stop-color="#4d4d4d" offset="1"/>
  </linearGradient>
  <linearGradient id="a" x1="86.4" x2="159" y1="425" y2="425" gradientUnits="userSpaceOnUse">
   <stop stop-color="#4d4d4d" offset="0"/>
   <stop stop-color="#808080" offset=".5"/>
   <stop stop-color="#4d4d4d" offset="1"/>
  </linearGradient>
  <linearGradient id="c" x1="70.5" x2="175" y1="474" y2="474" gradientUnits="userSpaceOnUse">
   <stop stop-color="#808080" offset="0"/>
   <stop stop-color="#ccc" offset=".5"/>
   <stop stop-color="#808080" offset="1"/>
  </linearGradient>
  <linearGradient id="d" x1="239" x2="275" y1="103" y2="306" gradientUnits="userSpaceOnUse">
   <stop stop-color="#ffd452" offset="0"/>
   <stop stop-color="#f0b300" offset="1"/>
  </linearGradient>
 </defs>
 <path d="m86 509h72.8v-452h-72.8v452" fill="url(#a)"/>
 <path d="m158 76.1-72.7 26.7v27.4l72.7-26.7zm0 38.3-72.7 26.7v27.4l72.7-26.7zm0 38.3-72.7 26.7v27.4l72.7-26.7zm0 38.3-72.7 26.7v27.4l72.7-26.7zm0 38.3-72.7 26.7v27.4l72.7-26.7zm0 38.3-72.7 26.7v27.4l72.7-26.7zm0 77.1-72.7 26.7v27.4l72.7-26.7zm0 38.3-72.7 26.7v27.4l72.7-26.7zm0 38.3-72.7 26.7v27.4l72.7-26.7z" fill="#525254"/>
 <path d="m155 79.3-72.8 26.9c-5.72 2.12-8.66 8.53-6.55 14.2h0.0021c2.12 5.71 8.52 8.66 14.2 6.55l72.8-26.9c5.71-2.12 8.66-8.52 6.54-14.2-2.21-5.99-8.84-8.56-14.2-6.55zm0 38.3c-24.3 8.97-48.5 18-72.8 26.9-5.72 2.12-8.66 8.53-6.55 14.2h0.0021c2.12 5.72 8.52 8.66 14.2 6.55 24.3-8.97 48.5-18 72.8-26.9 5.71-2.12 8.5-8.18 6.54-14.2v-2e-3c-2.9-7.96-10.3-7.86-14.2-6.54zm0 38.3c-24.3 8.97-48.5 18-72.8 26.9v-2e-3c-5.72 2.12-8.66 8.52-6.55 14.2l0.0021 3e-3c2.12 5.71 8.52 8.66 14.2 6.54 24.3-8.97 48.5-18 72.8-26.9 5.71-2.12 8.66-8.52 6.54-14.2-2.21-5.98-8.81-8.56-14.2-6.55zm0 38.3c-24.3 8.97-48.5 18-72.8 26.9-5.72 2.12-8.66 8.52-6.55 14.2h0.0021c2.12 5.72 8.52 8.66 14.2 6.55 24.3-8.97 48.5-18 72.8-26.9 5.71-2.12 8.66-8.52 6.54-14.2v-3e-3c-1.62-5.97-9.18-8.07-14.2-6.54zm0 38.3c-24.3 8.97-48.5 18-72.8 26.9-5.72 2.12-8.66 8.52-6.55 14.2l0.0021 2e-3c2.12 5.71 8.52 8.66 14.2 6.55 24.3-8.97 48.5-18 72.8-26.9 5.71-2.12 8.66-8.52 6.54-14.2-2.22-6-8.84-8.56-14.2-6.55zm0 38.3-72.8 26.9c-5.72 2.12-8.66 8.52-6.55 14.2h0.0021c2.12 5.71 8.52 8.66 14.2 6.55l72.8-26.9c5.71-2.12 8.66-8.53 6.54-14.2-2.21-5.97-8.8-8.56-14.2-6.54zm-0.145 77-72.8 26.9c-5.72 2.12-8.66 8.53-6.55 14.2h0.0021c2.12 5.71 8.52 8.66 14.2 6.55l72.8-26.9c5.71-2.12 8.66-8.52 6.54-14.2-2.44-6.61-9.29-8.38-14.2-6.55zm0 38.3c-24.3 8.97-48.5 18-72.8 26.9-5.72 2.12-8.66 8.53-6.55 14.2h0.0021c2.12 5.72 8.52 8.66 14.2 6.55 24.3-8.97 48.5-18 72.8-26.9 5.71-2.12 8.66-8.52 6.54-14.2v-2e-3c-2.69-7.29-10.3-8-14.2-6.54zm0 38.3c-24.3 8.97-48.5 18-72.8 26.9v-2e-3c-5.72 2.12-8.66 8.52-6.55 14.2l0.0021 3e-3c2.12 5.71 8.52 8.66 14.2 6.54 24.3-8.97 48.5-18 72.8-26.9 5.71-2.12 8.66-8.52 6.54-14.2-2.64-6.74-9.44-8.04-14.2-6.55z" fill="#8c8c8c"/>
 <path d="m152 81.6-70.4 26.5c-5.21 1.96-2.3 9.86 2.92 7.89l70.3-26.5c5.44-2.05 2.05-9.76-2.92-7.89zm0 38.3c-23.5 8.82-46.9 17.7-70.4 26.5-5.21 1.95-2.3 9.85 2.92 7.89 23.5-8.82 46.9-17.7 70.3-26.5 5.44-2.05 2.05-9.76-2.92-7.89zm0 38.3c-23.5 8.82-46.9 17.7-70.4 26.5-5.21 1.96-2.3 9.86 2.92 7.89 23.5-8.82 46.9-17.7 70.3-26.5 5.44-2.05 2.05-9.76-2.92-7.89zm0 38.3c-23.5 8.82-46.9 17.7-70.4 26.5-5.21 1.96-2.3 9.86 2.92 7.89 23.5-8.82 46.9-17.7 70.3-26.5 5.44-2.05 2.05-9.76-2.92-7.89zm0 38.3c-23.5 8.82-46.9 17.7-70.4 26.5-5.21 1.96-2.3 9.85 2.92 7.89 23.5-8.82 46.9-17.7 70.3-26.5 5.44-2.05 2.05-9.76-2.92-7.89zm0 38.3-70.4 26.5c-5.21 1.96-2.3 9.85 2.92 7.89l70.3-26.5c5.44-2.05 2.05-9.76-2.92-7.89zm0.101 76.9-70.4 26.5c-5.21 1.96-2.3 9.86 2.92 7.89l70.3-26.5c5.44-2.05 2.05-9.76-2.92-7.89zm0 38.3c-23.5 8.82-46.9 17.7-70.4 26.5-5.21 1.95-2.3 9.85 2.92 7.89 23.5-8.82 46.9-17.7 70.3-26.5 5.44-2.05 2.05-9.76-2.92-7.89zm0 38.3c-23.5 8.82-46.9 17.7-70.4 26.5-5.21 1.96-2.3 9.86 2.92 7.89 23.5-8.82 46.9-17.7 70.3-26.5 5.44-2.05 2.05-9.76-2.92-7.89z" fill="#b3b3b2"/>
 <path d="m246 3.39c-58.1 0.14-115 10.8-172 32.5-7.24 2.78-11.8 9.19-12.3 16.9l-1.74 34.3c-0.273 5.37 1.47 10.1 5.18 14s8.34 5.89 13.7 5.89h71.2c15.4 0 28.6-3.53 41.9-11.2 2.6-1.5 5.18-2.99 7.78-4.49 13.3-7.69 26.5-11.2 41.9-11.2h154c6.61 0 12-5.39 12-12v-14.9c0-15-9.72-27.6-24.2-31.5-46.1-12.3-91.7-18.5-137-18.4zm-167 284c-5.38 0-10 1.98-13.7 5.89-3.71 3.9-5.45 8.63-5.18 14l1.74 34.3c0.394 7.75 5.04 14.1 12.3 16.9 101 38.7 204 42.2 308 14.1 14.4-3.84 24.2-16.5 24.2-31.5v-14.9c0-6.61-5.39-12-12-12h-154c-15.4 0-28.6-3.53-41.9-11.2-2.6-1.5-5.18-2.99-7.78-4.49-13.3-7.69-26.5-11.2-41.9-11.2z" fill="#b4b2b1"/>
 <path d="m250 3.39c-59.5-0.358-118 10.2-177 32.5-7.24 2.78-11.8 9.19-12.3 16.9l-1.04 20.5 5.52-19.1c1.64-5.66 5.45-9.85 10.9-12 64.1-25.2 135-38.7 214-36.9-13.8-1.24-27.6-1.91-41.3-1.98zm-171 284 20.4 2.05c15.9 1.6 29.3 5.02 44 11.2l45.5 19.2c16.7 7.06 32.3 10.2 50.4 10.2h149c6.84 0 12.5 5.54 12.6 12.4l0.0582 4.66c0.132 11.1-6.8 20.7-17.4 24l-23.1 7.16a577 577 0 0 0 23.3-5.67c14.4-3.84 24.2-16.5 24.2-31.5v-14.9c0-6.61-5.39-12-12-12h-154c-15.4 0-28.6-3.53-41.9-11.2-2.6-1.5-5.18-2.99-7.78-4.49-13.3-7.69-26.5-11.2-41.9-11.2z" fill="#ccc"/>
 <path d="m360 16.2 23.1 7.16c10.7 3.29 17.6 12.9 17.4 24l-0.0582 4.66c-0.08 6.85-5.68 12.4-12.6 12.4h-149c-18.2 0-33.6 3.15-50.4 10.2l-45.5 19.2c-14.7 6.23-28.1 9.65-44 11.2l-20.4 2.05h71.2c15.4 0 28.6-3.53 41.9-11.2 2.6-1.5 5.18-2.99 7.78-4.49 13.3-7.69 26.5-11.2 41.9-11.2h154c6.61 0 12-5.39 12-12v-14.9c0-15-9.72-27.6-24.2-31.5-7.76-2.07-15.5-3.95-23.3-5.67zm-299 304 1.04 20.5c0.394 7.75 5.04 14.1 12.3 16.9 71.2 27.4 143 37.2 217 30.5-79.3 1.85-151-11.6-214-36.9-5.48-2.16-9.29-6.34-10.9-12z" fill="#8e8d8b"/>
 <path d="m304 486v-26.5h-264v26.5h264" fill="url(#b)"/>
 <path d="m1 473c0 14.2 11.6 26 26 26 14.2 0 26-11.6 26-26 0-14.2-11.6-26-26-26-14.2 0-26 11.6-26 26zm294 0c0 14.2 11.6 26 26 26 14.2 0 26-11.6 26-26 0-14.2-11.6-26-26-26-14.2 0-26 11.6-26 26z" fill="#2e2d2d"/>
 <path d="m22.2 450c-8.53 0-16.9 6.92-18.7 15.5-1.81 8.53 3.66 15.5 12.2 15.5 8.53 0 16.9-6.92 18.7-15.5 1.81-8.53-3.65-15.5-12.2-15.5zm294-0.054c-8.53 0-16.9 6.92-18.7 15.5-1.81 8.53 3.66 15.5 12.2 15.5 8.53 0 16.9-6.92 18.7-15.5 1.81-8.54-3.65-15.5-12.2-15.5z" fill="#4b4b4e"/>
 <path d="m70 502v-57.8h105v57.8z" fill="url(#c)"/>
 <path d="m335 124h-81.6c-3.7 0-7.05-2.1-8.72-5.42l-7.05-14.2 7.05-14.2a9.75 9.75 0 0 1 8.72-5.42h81.6c3.7 0 7.05 2.1 8.72 5.42l7.05 14.2-7.05 14.2a9.75 9.75 0 0 1-8.72 5.42z" fill="#f59a00"/>
 <path d="m496 96.6h-257c-2.7 0-4.88 2.19-4.88 4.9v21.4h266v-21.4c0-2.71-2.18-4.9-4.88-4.9z" fill="#eff2fa" stroke="#b1bfe7" stroke-width="2"/>
 <path d="m237 113h264v9.81h-264z" fill="#e1e6f2"/>
 <path d="m501 103h-154a4.89 4.89 0 0 0-4.37 2.71l-5.72 11.5a9.75 9.75 0 0 1-8.72 5.42h-70.5c-3.7 0-7.05-2.1-8.72-5.42l-5.72-11.5a4.88 4.88 0 0 0-4.37-2.71h-1.87c-5.39 0-9.78 4.38-9.78 9.81v186c0 5.41 4.37 9.81 9.78 9.81h264c5.39 0 9.78-4.38 9.78-9.81v-186c0-5.41-4.37-9.81-9.78-9.81z" fill="url(#d)"/>
 <path d="m496 299h-253c-6.39 0-6.39-9.81 0-9.81h253c6.39 0 6.39 9.81 0 9.81z" fill="#f59a00"/>
 <path d="m70 495h105v7.06h-105z" fill-opacity=".1"/> 
</svg>
