<?xml version="1.0" encoding="UTF-8"?>
<svg width="512" height="512" version="1.1" viewBox="0 0 512 512" xmlns="http://www.w3.org/2000/svg">
 <defs>
  <linearGradient id="a" x1="366" x2="393" y1="87" y2="114" gradientUnits="userSpaceOnUse">
   <stop style="stop-color:#ffc847" offset="0"/>
   <stop style="stop-color:#bd6d00" offset="1"/>
  </linearGradient>
  <linearGradient id="b" x1="329" x2="340" y1="140" y2="151" gradientUnits="userSpaceOnUse">
   <stop style="stop-color:#787878" offset="0"/>
   <stop style="stop-color:#0e0e0e" offset="1"/>
  </linearGradient>
 </defs>
 <path d="m293 167h-92c-67.8 0-69 0.104-75.2 4.3-2.77 1.95-2.77 1.95-5.63 0-1.54-1.02-4.3-2.46-6.25-3.07-4.92-1.74-58.3-1.64-64 0-5.63 1.64-14.1 10.1-15.8 15.8-1.64 5.74-1.74 59.1 0 64 0.615 1.95 2.05 4.71 3.07 6.25 1.95 2.87 1.95 2.87 0 5.63-3.89 5.74-4.3 9.02-4.3 38.2 0 29.2 0.409 32.5 4.3 38.2 1.95 2.77 1.95 2.77 0 5.63-3.89 5.63-4.3 8.91-4.3 38.1 0 29.2 0.409 32.5 4.3 38.2 1.95 2.77 1.95 2.77 0 5.63-1.02 1.54-2.46 4.3-3.07 6.25-1.74 4.92-1.64 58.3 0 64 1.64 5.63 10.1 14.1 15.8 15.8 5.84 1.74 141 1.74 146 0 1.95-0.615 4.71-2.05 6.25-3.07 2.87-1.95 2.87-1.95 5.63 0 6.15 4.2 7.27 4.3 79.2 4.3 71.9 0 73-0.102 79.2-4.3 2.77-1.95 2.77-1.95 5.63 0 1.54 1.02 4.3 2.46 6.25 3.07 5.12 1.74 60.6 1.74 66.6 0 5.63-1.64 14.1-10.1 15.8-15.8 1.64-5.74 1.74-59.1 0-64-0.615-1.95-2.05-4.71-3.07-6.35-3.12-3.95 1.69-7.84 3.07-11.9 1.74-4.92 1.64-58.3 0-64-1.64-5.63-4.56-13.9-16-15.6-5.7-0.85-54.2-1.35-54.2-1.35-11.9 0-13.9-6.37-13.7-14.1l0.15-45.9c0.13-39.8-83.6-11-83.8-104z" fill="#1a1a1a"/>
 <rect x="49.9" y="429" width="148" height="67.1" rx="10" ry="10" fill="#946853"/>
 <path d="m188 429c5.84 0 10.6 4.86 10.6 10.8v46.6l-122-0.0605c-12.6-6e-3 -16-3.76-16-17.2v-40.1z" fill="#c18569"/>
 <path d="m110 429c0 4.22 0.246 7.23 7.78 7.2h58.1c17.5 0 15.2-0.0368 15.2 26.4 0 6.99 1.8 7.63 7.52 7.63v-30.4c0-5.96-4.7-10.8-10.5-10.8z" fill="#ddaf94"/>
 <rect x="214" y="429" width="148" height="67.1" rx="10" ry="10" fill="#795348"/>
 <path d="m351 429c5.84 0 10.6 4.86 10.6 10.8v46.6l-122-0.0606c-12.6-6e-3 -16-3.76-16-17.2v-40.1z" fill="#ae5841"/>
 <path d="m272 429c0 4.22 0.246 7.23 7.78 7.2h59.7c17.5 0 15.2-0.0368 15.2 26.4 0 6.99 1.8 7.63 7.52 7.63v-30.4c0-5.96-4.7-10.8-10.5-10.8z" fill="#bf9075"/>
 <rect x="49.9" y="346" width="64.4" height="67.1" rx="10" ry="10" fill="#795348"/>
 <path d="m104 346c5.77 0 10.5 4.86 10.5 10.8v46.6l-37.8-0.0605c-12.5-0.0199-15.8-3.76-15.8-17.2v-40.1z" fill="#ae5841"/>
 <path d="m75.1 346c0 4.22 0.243 7.75 7.69 7.71 25.9 0 23.5-3.9 23.5 25.9 0 6.99 2.27 7.63 7.93 7.63v-30.4c0-5.96-4.65-10.8-10.4-10.8z" fill="#bf9075"/>
 <rect x="379" y="429" width="64.4" height="67.1" rx="10" ry="10" fill="#946853"/>
 <path d="m433 429c5.77 0 10.5 4.86 10.5 10.8v46.6l-37.8-0.0605c-12.5-0.02-15.8-3.76-15.8-17.2v-40.1z" fill="#c18569"/>
 <path d="m404 429c0 4.22 0.243 7.75 7.69 7.71 25.9 0 23.5-3.9 23.5 25.9 0 6.99 2.27 7.63 7.93 7.63v-30.4c0-5.96-4.65-10.8-10.4-10.8z" fill="#ddaf94"/>
 <rect x="50.1" y="181" width="63.3" height="67.1" rx="10" ry="10" fill="#946853"/>
 <path d="m103 181c5.68 0 10.3 4.86 10.3 10.8v46.6l-37.1-0.0605c-12.2-0.0199-15.6-3.76-15.6-17.2v-40.1z" fill="#c18569"/>
 <path d="m74.9 181c0 4.22 0.239 7.75 7.55 7.71 25.5 0 23.1-3.9 23.1 25.9 0 6.99 2.23 7.63 7.8 7.63v-30.4c0-5.96-4.57-10.8-10.2-10.8z" fill="#ddaf94"/>
 <rect x="132" y="346" width="148" height="67.1" rx="10" ry="10" fill="#946853"/>
 <path d="m269 346c5.84 0 10.6 4.86 10.6 10.8v46.6l-122-0.0605c-12.6-6e-3 -16-3.76-16-17.2v-40.1z" fill="#c18569"/>
 <path d="m188 346c0 4.22 0.246 7.23 7.78 7.2h61.3c17.5 0 15.2-0.0368 15.2 26.4 0 6.99 1.8 7.63 7.52 7.63v-30.4c0-5.96-4.7-10.8-10.5-10.8z" fill="#ddaf94"/>
 <rect x="214" y="264" width="148" height="67.1" rx="10" ry="10" fill="#946853"/>
 <path d="m351 264c5.84 0 10.6 4.86 10.6 10.8v46.6l-122-0.0605c-12.6-6e-3 -16-3.76-16-17.2v-40.1z" fill="#c18569"/>
 <path d="m270 264c0 4.22 0.246 7.23 7.78 7.2h61.3c17.5 0 15.2-0.0368 15.2 26.4 0 6.99 1.8 7.63 7.52 7.63v-30.4c0-5.96-4.7-10.8-10.5-10.8z" fill="#ddaf94"/>
 <rect x="49.9" y="264" width="148" height="67.1" rx="10" ry="10" fill="#795348"/>
 <path d="m188 264c5.84 0 10.6 4.86 10.6 10.8v46.6l-122-0.0605c-12.6-6e-3 -16-3.76-16-17.2v-40.1z" fill="#ae5841"/>
 <path d="m108 264c0 4.22 0.246 7.23 7.78 7.2h59.7c17.5 0 15.2-0.0368 15.2 26.4 0 6.99 1.8 7.63 7.52 7.63v-30.4c0-5.96-4.7-10.8-10.5-10.8z" fill="#bf9075"/>
 <rect x="132" y="181" width="148" height="67.1" rx="10" ry="10" fill="#795348"/>
 <path d="m269 181c5.84 0 10.6 4.86 10.6 10.8v46.6l-122-0.0605c-12.6-6e-3 -16-3.76-16-17.2v-40.1z" fill="#ae5841"/>
 <path d="m189 181c0 4.22 0.246 7.23 7.78 7.2h59.7c17.5 0 15.2-0.0368 15.2 26.4 0 6.99 1.8 7.63 7.52 7.63v-30.4c0-5.96-4.7-10.8-10.5-10.8z" fill="#bf9075"/>
 <rect x="296" y="346" width="148" height="67.1" rx="10" ry="10" fill="#795348"/>
 <path d="m434 346c5.84 0 10.6 4.86 10.6 10.8v46.6l-122-0.0605c-12.6-6e-3 -16-3.76-16-17.2v-40.1z" fill="#ae5841"/>
 <path d="m354 346c0 4.22 0.246 7.23 7.78 7.2h59.7c17.5 0 15.2-0.0368 15.2 26.4 0 6.99 1.8 7.63 7.52 7.63v-30.4c0-5.96-4.7-10.8-10.5-10.8z" fill="#bf9075"/>
 <path d="m459 19.4c49.6 47.9-83.5 115-83.5 115l-29.9-30.2s63.8-132 113-84.6z" fill="url(#a)"/>
 <path d="m224 115c10.6-24.1 26.6-32.1 48.4-24.4 11.6 0.76 122 105 120 123 1.21 13.4 1.06 24.9-16.6 37.3-61.6 18.3-189 62.9-187 39.2-27.8-6.28 22-121 35-175z" fill="#b3b3b3"/>
 <path d="m266 88.6s105 92.1 120 118c14.2 34-16.1 45.8-79.7 62.3-32.1 8.33-65.8 21.4-81.3-2.88-7.76-12.2-3.24-13.9 41.5-178z" fill="#ececec"/>
 <path d="m421 2.48c-6.66 1.74-13.6 5.53-18.7 10-2.15 1.84-37.3 47.8-37.3 47.8s-33.3 44.8-33 47.7c8.49 9.58 16.4 20.5 10.7 26.2-7.88 7.88-15.2-1.64-23.2-10.1 0 0-29.9-36.3-52.7-40.7-17.8-3.07-37.2 6.76-45 22.8l-45.9 165s-8.18 16.2 3.59 28c11.8 11.8 30.7 4.43 30.7 4.43l164-45.4c16.1-7.79 25.9-27.1 22.8-45-4.19-20.8-41.6-53.7-41.6-53.7-8.51-8.41-18.8-16-10.8-24 6.09-6.09 16.8 2.7 27.9 12.4 2.87 0.41 47.6-32.9 47.6-32.9s46-35.1 47.8-37.3c16.1-18.3 15.2-46-2.05-63.3-8.68-8.68-20.6-13.5-28.8-13.5s-12.2 0.507-16.1 1.56zm40.9 50.4c-2.25 11.1-3.38 12.2-47.6 45.5l-40.9 30.7-22.4-22.4 30.7-40.9c19.9-26.4 32.1-41.8 34.5-43.3 5.32-3.59 11.2-5.09 22.6-4.72s27 16 23.1 35.1zm-190 49.3c13.2 9.84 36.1 33.9 36.1 33.9l35.4 35.4s35 30.5 37.5 46.3c1.23 11.1-5.12 25-16 28.7l-156 41.7c-15.5 4.13-20.6 1.27-16.6-13.7 2.63-9.86 43.1-157 45.1-161 5.12-12.9 19.5-18.6 34.5-11.3z"/>
 <circle cx="288" cy="189" r="20.4" fill="#1a1a1a"/>
 <path d="m357 135-60.1 60.4c-8.81 8.86-22.3-4.66-13.5-13.5l60.1-60.4z" fill="url(#b)"/>
</svg>
