<?xml version="1.0" encoding="UTF-8"?>
<svg width="512" height="512" version="1.1" viewBox="0 0 512 512" xmlns="http://www.w3.org/2000/svg">
 <path d="m230 30.9c-4.87 0-8.83 3.95-8.83 8.83v20.1h17.7v-20.1c0-4.88-3.96-8.83-8.83-8.83zm26.5 0c-4.87 0-8.83 3.95-8.83 8.83v20.1h17.7v-20.1c0-4.88-3.96-8.83-8.83-8.83zm230 0c-4.88 0-8.83 3.95-8.83 8.83v20.1h17.7v-20.1c0-4.88-3.95-8.83-8.83-8.83z" fill="#cbd4d8"/>
 <path d="m282 30.9v29.1h35.3v-29.1zm70.6 0v29.1h35.3v-29.1zm70.6 0v29.1h35.3v-29.1z" fill="#546a79"/>
 <path d="m317 30.9v29.3h36.1v-29.3zm70.6 0v29.3h36.1v-29.3z" fill="#283238"/>
 <path d="m0 57.4v35.3h26.5c4.87 0 8.83 3.95 8.83 8.83s-3.95 8.83-8.83 8.83h-26.5v8.83h26.5c4.87 0 8.83 3.95 8.83 8.83s-3.95 8.83-8.83 8.83h-26.5v8.83h26.5c4.87 0 8.83 3.95 8.83 8.83s-3.95 8.83-8.83 8.83h-26.5v177h26.5c4.87 0 8.83 3.95 8.83 8.83s-3.95 8.83-8.83 8.83h-26.5v8.83h26.5c4.87 0 8.83 3.95 8.83 8.83s-3.95 8.83-8.83 8.83h-26.5v8.83h26.5c4.87 0 8.83 3.95 8.83 8.83s-3.95 8.83-8.83 8.83h-26.5v8.83h26.5c4.87 0 8.83 3.95 8.83 8.83s-3.95 8.83-8.83 8.83h-26.5v8.83h26.5c4.87 0 8.83 3.95 8.83 8.83s-3.95 8.83-8.83 8.83h-26.5v17.7h512v-424z" fill="#5e5e60"/>
 <path d="m0 92.7v17.7h26.5c4.87 0 8.83-3.95 8.83-8.83s-3.96-8.83-8.83-8.83zm0 26.5v17.7h26.5c4.87 0 8.83-3.95 8.83-8.83s-3.96-8.83-8.83-8.83zm0 26.5v17.7h26.5c4.87 0 8.83-3.95 8.83-8.83s-3.96-8.83-8.83-8.83zm0 194v17.7h26.5c4.87 0 8.83-3.95 8.83-8.83s-3.96-8.83-8.83-8.83zm0 26.5v17.7h26.5c4.87 0 8.83-3.95 8.83-8.83s-3.96-8.83-8.83-8.83zm88.3 17.7c-4.87 0-8.83 3.95-8.83 8.83s3.95 8.83 8.83 8.83h17.7c4.87 0 8.83-3.94 8.83-8.83s-3.95-8.83-8.83-8.83zm70.6 0c-4.87 0-8.83 3.95-8.83 8.83s3.96 8.83 8.83 8.83h17.7c4.87 0 8.83-3.94 8.83-8.83s-3.96-8.83-8.83-8.83zm-159 8.83v17.7h26.5c4.87 0 8.83-3.95 8.83-8.83s-3.96-8.83-8.83-8.83zm88.3 17.7c-4.87 0-8.83 3.95-8.83 8.83s3.95 8.83 8.83 8.83h17.7c4.87 0 8.83-3.95 8.83-8.83s-3.95-8.83-8.83-8.83zm70.6 0c-4.87 0-8.83 3.95-8.83 8.83s3.96 8.83 8.83 8.83h17.7c4.87 0 8.83-3.95 8.83-8.83s-3.96-8.83-8.83-8.83zm-159 8.83v17.7h26.5c4.87 0 8.83-3.94 8.83-8.83 0-4.88-3.96-8.83-8.83-8.83zm0 26.5v17.7h26.5c4.87 0 8.83-3.95 8.83-8.83s-3.96-8.83-8.83-8.83z" fill="#f3cc6d"/>
 <circle cx="238" cy="216" r="8.83" fill="#e7eced"/>
 <circle cx="238" cy="243" r="8.83" fill="#f3cc6d"/>
 <circle cx="238" cy="269" r="8.83" fill="#f3cc6d"/>
 <circle cx="238" cy="137" r="8.83" fill="#f3cc6d"/>
 <circle cx="212" cy="154" r="8.83" fill="#e7eced"/>
 <circle cx="212" cy="190" r="8.83" fill="#e7eced"/>
 <circle cx="159" cy="340" r="8.83" fill="#e7eced"/>
 <circle cx="132" cy="340" r="8.83" fill="#e7eced"/>
 <circle cx="106" cy="340" r="8.83" fill="#f3cc6d"/>
 <circle cx="26.5" cy="234" r="8.83" fill="#f3cc6d"/>
 <circle cx="26.5" cy="260" r="8.83" fill="#f3cc6d"/>
 <circle cx="26.5" cy="287" r="8.83" fill="#f3cc6d"/>
 <circle cx="238" cy="163" r="8.83" fill="#f3cc6d"/>
 <circle cx="238" cy="190" r="8.83" fill="#e7eced"/>
 <path d="m468 316c-4.88 0-8.83 3.95-8.83 8.83s3.95 8.83 8.83 8.83h17.7c4.88 0 8.83-3.95 8.83-8.83s-3.95-8.83-8.83-8.83zm0 35.3c-4.88 0-8.83 3.95-8.83 8.83s3.95 8.83 8.83 8.83h17.7c4.88 0 8.83-3.95 8.83-8.83s-3.95-8.83-8.83-8.83zm0 35.3c-4.88 0-8.83 3.95-8.83 8.83s3.95 8.83 8.83 8.83h17.7c4.88 0 8.83-3.94 8.83-8.83s-3.95-8.83-8.83-8.83zm0 35.3c-4.88 0-8.83 3.95-8.83 8.83s3.95 8.83 8.83 8.83h17.7c4.88 0 8.83-3.94 8.83-8.83 0-4.88-3.95-8.83-8.83-8.83z" fill="#bfa380"/>
 <path d="m221 316c-4.87 0-8.83 3.95-8.83 8.83s3.95 8.83 8.83 8.83h17.7c4.87 0 8.83-3.95 8.83-8.83s-3.96-8.83-8.83-8.83zm0 35.3c-4.87 0-8.83 3.95-8.83 8.83s3.95 8.83 8.83 8.83h17.7c4.87 0 8.83-3.95 8.83-8.83s-3.96-8.83-8.83-8.83zm0 35.3c-4.87 0-8.83 3.95-8.83 8.83s3.95 8.83 8.83 8.83h17.7c4.87 0 8.83-3.94 8.83-8.83s-3.96-8.83-8.83-8.83zm0 35.3c-4.87 0-8.83 3.95-8.83 8.83s3.95 8.83 8.83 8.83h17.7c4.87 0 8.83-3.94 8.83-8.83 0-4.88-3.96-8.83-8.83-8.83z" fill="#8f8f99"/>
 <path d="m88.6 199c-4.87 0-8.83 3.95-8.83 8.83v17.7c0 4.88 3.95 8.83 8.83 8.83 4.87 0 8.83-3.95 8.83-8.83v-17.7c0-4.88-3.96-8.83-8.83-8.83zm70.6 53c-4.87 0-8.83 3.95-8.83 8.83v17.7c0 4.88 3.96 8.83 8.83 8.83 4.87 0 8.83-3.95 8.83-8.83v-17.7c0-4.88-3.96-8.83-8.83-8.83z" fill="#283238"/>
 <path d="m70.6 57.4v150h35.3v-150zm70.6 0v203h35.3v-203zm-79.4 203v44.1h44.1v-44.1zm44.1 115v61.8h53v-61.8z" fill="#333"/>
 <rect x="239" y="378" width="230" height="35.3" fill="#38454f"/>
 <rect x="239" y="343" width="230" height="35.3" fill="#dd352e"/>
 <rect x="239" y="413" width="230" height="35.3" fill="#dd352e"/>
 <rect x="239" y="308" width="229" height="35.3" fill="#38454f"/>
 <rect x="72.6" y="271" width="22.5" height="23.2" fill="#38454f"/>
 <rect x="122" y="388" width="22.5" height="36.7" fill="#38454f"/>
 <path d="m461 358h-212v6.84h212zm0 70.6h-212v6.84h212zm0-105h-212v6.84h212zm0 70.6h-212v6.84h212z" fill="#283238"/>
 <rect x="277" y="106" width="149" height="149" fill="#cacfd7"/>
 <path d="m352 256c-41.2 0-74.7-33.5-74.7-74.7s33.5-74.7 74.7-74.7 74.7 33.5 74.7 74.7-33.5 74.7-74.7 74.7z" fill="#7a8290"/>
 <path d="m423 191 5.64-20.6c-0.578-0.156-14.2-3.86-30.7-5.75-8.39-0.969-16-1.27-22.8-0.938 9.86-9.86 23.6-19.7 34.4-25.8l-10.6-18.5c-0.516 0.297-12.8 7.33-25.8 17.6-6.62 5.27-12.2 10.4-16.8 15.5 0-4.52 0.297-9.52 0.906-14.9 1.66-14.8 5.08-27.4 5.16-27.8l-20.6-5.62c-0.156 0.562-3.86 14.2-5.75 30.7-0.953 8.39-1.27 16-0.938 22.8-9.86-9.84-19.7-23.6-25.8-34.4l-18.5 10.6c0.297 0.516 7.33 12.8 17.6 25.8 5.27 6.62 10.4 12.2 15.5 16.8-4.52 0.016-9.52-0.281-14.9-0.891-14.9-1.69-27.6-5.14-27.8-5.17h0.016l-5.64 20.6c0.562 0.156 14.2 3.88 30.7 5.77 6.22 0.703 12 1.06 17.4 1.06 1.86 0 3.67-0.047 5.42-0.125-9.86 9.84-23.6 19.7-34.4 25.8l10.6 18.5c0.516-0.297 12.8-7.33 25.8-17.6 6.62-5.25 12.2-10.4 16.8-15.5 0.016 4.52-0.281 9.5-0.891 14.9-1.69 14.9-5.12 27.6-5.17 27.7l20.6 5.64c0.156-0.578 3.88-14.2 5.77-30.7 0.953-8.39 1.27-16 0.938-22.8 9.84 9.86 19.7 23.6 25.8 34.4l18.5-10.6c-0.297-0.516-7.33-12.8-17.6-25.8-5.25-6.62-10.4-12.2-15.5-16.8 4.52 0 9.5 0.297 14.9 0.906 14.9 1.67 27.6 5.12 27.7 5.16z" fill="#434a54"/>
 <path d="m352 202c-11.8 0-21.3-9.56-21.3-21.3s9.58-21.3 21.3-21.3 21.3 9.58 21.3 21.3-9.56 21.3-21.3 21.3z" fill="#ccd1d9"/>
 <path d="m352 149c-17.7 0-32 14.3-32 32s14.3 32 32 32 32-14.3 32-32-14.3-32-32-32zm0 42.7c-5.89 0-10.7-4.78-10.7-10.7 0-5.89 4.78-10.7 10.7-10.7 5.88 0 10.7 4.78 10.7 10.7 0 5.88-4.78 10.7-10.7 10.7z" fill="#e6e9ed"/>
 <path d="m352 95.5c-47.1 0-85.3 38.2-85.3 85.3s38.2 85.3 85.3 85.3 85.3-38.2 85.3-85.3-38.2-85.3-85.3-85.3zm0 149c-35.3 0-64-28.7-64-64s28.7-64 64-64 64 28.7 64 64-28.7 64-64 64z" fill="#434a54"/>
 <path d="m454 106v149h42.7v-149zm21.3 21.3c5.91 0 10.7 4.78 10.7 10.7s-4.77 10.7-10.7 10.7c-5.88 0-10.7-4.78-10.7-10.7s4.78-10.7 10.7-10.7zm0 42.7c5.91 0 10.7 4.78 10.7 10.7 0 5.89-4.77 10.7-10.7 10.7-5.88 0-10.7-4.77-10.7-10.7 0-5.89 4.78-10.7 10.7-10.7zm0 42.7c5.91 0 10.7 4.77 10.7 10.7 0 5.89-4.77 10.7-10.7 10.7-5.88 0-10.7-4.78-10.7-10.7 0-5.89 4.78-10.7 10.7-10.7z" fill="#e6e9ed"/>
 <path d="m162 249v-183h-6.84v183zm-70.6-53.1v-130h-6.84v130z"/>
</svg>
