<?xml version="1.0" encoding="UTF-8"?>
<svg width="512" height="512" version="1.1" viewBox="0 0 512 512" xmlns="http://www.w3.org/2000/svg">
 <path d="m225 1c-6.85 0-12.4 5.56-12.4 12.4 0 6.87 5.58 12.4 12.4 12.4h24.9c6.87 0 12.4-5.58 12.4-12.4 0-6.87-5.56-12.4-12.4-12.4h-24.9zm75 0c-6.85 0-12.4 5.56-12.4 12.4 0 6.87 5.58 12.4 12.4 12.4h24.9c6.87 0 12.4-5.58 12.4-12.4 0-6.87-5.56-12.4-12.4-12.4h-24.9zm75 0c-6.87 0-12.4 5.56-12.4 12.4 0 6.87 5.58 12.4 12.4 12.4h24.9c6.87 0 12.4-5.58 12.4-12.4 0-6.87-5.58-12.4-12.4-12.4h-24.9zm73.9 0c-6.85 0-12.4 5.56-12.4 12.4 0 6.87 5.58 12.4 12.4 12.4 6.89 0 12.4-5.58 12.4-12.4 0-6.87-5.56-12.4-12.4-12.4z" fill="#434a54"/>
 <rect x="25.3" y="13.4" width="461" height="498" fill="#28b186"/>
 <path d="m101 462c-23.9 0-34.4-20-34.4-44.1v-44h84v88.1z" fill="#e6e9ed"/>
 <path d="m101 63.7c-6.87 0-12.4 5.33-12.4 16.3v237c0 10.9 5.58 16.1 12.4 16.1 6.87 0 12.4-5.15 12.4-16.1v-237c0-10.9-5.56-16.3-12.4-16.3zm50 0c-6.85 0-12.4 5.33-12.4 16.3v237c0 10.9 5.58 16.1 12.4 16.1 6.89 0 12.4-5.15 12.4-16.1v-237c0-10.9-5.56-16.3-12.4-16.3zm50-0.43c-6.87 0-12.4 5.58-12.4 12.4s5.58 12.4 12.4 12.4h224c6.87 0 12.4-5.56 12.4-12.4s-5.58-12.4-12.4-12.4zm0 49.7c-6.87 0-12.4 5.56-12.4 12.4s5.58 12.4 12.4 12.4h224c6.87 0 12.4-5.58 12.4-12.4s-5.58-12.4-12.4-12.4zm0 273c-6.87 0-12.4 5.58-12.4 12.4 0 6.87 5.58 12.4 12.4 12.4h224c6.87 0 12.4-5.58 12.4-12.4 0-6.87-5.58-12.4-12.4-12.4zm0 49.8c-6.87 0-12.4 5.58-12.4 12.4 0 6.87 5.58 12.4 12.4 12.4h224c6.87 0 12.4-5.56 12.4-12.4s-5.58-12.4-12.4-12.4z" fill="#333"/>
 <path d="m412 163v199h74.6v-199zm49.8 174h-24.9v-149h24.9z" fill="#cacfd7"/>
 <rect x="201" y="175" width="174" height="174" fill="#cacfd7"/>
 <path d="m288 349c-48 0-87.1-39-87.1-87.1s39.1-87.1 87.1-87.1 87.1 39.1 87.1 87.1-39 87.1-87.1 87.1z" fill="#656d78"/>
 <path d="m370 274 6.58-24c-0.674-0.182-16.6-4.5-35.8-6.71-9.79-1.13-18.7-1.48-26.6-1.09 11.5-11.5 27.6-23 40.1-30.1l-12.3-21.6c-0.602 0.346-14.9 8.55-30.1 20.6-7.73 6.14-14.2 12.2-19.6 18.1 0-5.27 0.346-11.1 1.06-17.3 1.93-17.2 5.92-32 6.01-32.4l-24-6.56c-0.182 0.655-4.5 16.6-6.71 35.8-1.11 9.79-1.48 18.7-1.09 26.6-11.5-11.5-23-27.6-30.1-40.1l-21.6 12.3c0.346 0.602 8.55 14.9 20.6 30 6.14 7.73 12.2 14.3 18.1 19.6-5.27 0.0187-11.1-0.328-17.3-1.04-17.3-1.97-32.2-6-32.4-6.03l-3.28 12 3.3-12-6.58 24c0.655 0.182 16.6 4.52 35.8 6.72 7.25 0.82 14 1.24 20.3 1.24 2.17 0 4.28-0.0548 6.32-0.146-11.5 11.5-27.6 23-40.1 30.1l12.3 21.6c0.602-0.346 14.9-8.55 30-20.6 7.73-6.12 14.3-12.2 19.6-18.1 0.0187 5.27-0.328 11.1-1.04 17.3-1.97 17.3-5.98 32.2-6.03 32.3l24 6.58c0.182-0.674 4.52-16.6 6.72-35.8 1.11-9.79 1.48-18.7 1.09-26.6 11.5 11.5 23 27.6 30.1 40.1l21.6-12.3c-0.346-0.602-8.55-14.9-20.6-30-6.12-7.73-12.2-14.2-18.1-19.6 5.27 0 11.1 0.346 17.3 1.06 17.3 1.95 32.2 5.98 32.3 6.01z" fill="#434a54"/>
 <path d="m288 287c-13.7 0-24.9-11.2-24.9-24.9s11.2-24.9 24.9-24.9 24.9 11.2 24.9 24.9-11.2 24.9-24.9 24.9z" fill="#ccd1d9"/>
 <path d="m288 225c-20.6 0-37.3 16.7-37.3 37.3s16.7 37.3 37.3 37.3 37.3-16.7 37.3-37.3-16.7-37.3-37.3-37.3zm0 49.7c-6.87 0-12.4-5.58-12.4-12.4 0-6.87 5.58-12.4 12.4-12.4 6.85 0 12.4 5.58 12.4 12.4 0 6.85-5.58 12.4-12.4 12.4z" fill="#e6e9ed"/>
 <path d="m288 163c-55 0-99.5 44.6-99.5 99.5 0 55 44.6 99.5 99.5 99.5 55 0 99.5-44.6 99.5-99.5 0-55-44.6-99.5-99.5-99.5zm0 174c-41.2 0-74.6-33.5-74.6-74.6 0-41.2 33.5-74.6 74.6-74.6s74.6 33.5 74.6 74.6-33.5 74.6-74.6 74.6z" fill="#434a54"/>
</svg>
