<?xml version="1.0" encoding="utf-8"?>
<!-- Uploaded to: SVG Repo, www.svgrepo.com, Generator: SVG Repo Mixer Tools -->
<svg width="800px" height="800px" viewBox="0 0 1024 1024" class="icon"  version="1.1" xmlns="http://www.w3.org/2000/svg"><path d="M508.52 403.143c16.242 49.498 78.115 54.139 79.662 51.045 0.773-0.773-3.094-2.32-5.414-6.961v-8.508c5.414-26.296 4.64-34.804-3.094-47.952 0 0-5.414 3.867-11.601 3.094-4.64-0.773-8.508-3.094-10.828-5.414-2.32-2.32-3.867-6.187-3.094-12.375 0.773-6.961 5.414-10.054 5.414-10.054-20.882-18.562-34.804-4.64-40.218-2.32l-8.508-5.414c-3.094-3.094-5.414-6.961-5.414-6.961s-3.867-0.773-2.32 3.867l6.187 4.64c3.867 3.867 6.961 7.734 6.961 7.734s-14.695 14.695-7.734 35.577zM496.145 141.729c0 0 15.468 13.148 35.577 6.961 47.952-15.468 50.272-75.021 47.952-76.568-0.773-0.773-1.547 3.094-6.187 4.64h-8.508c-16.242-3.094-21.656-5.414-38.671 0.773-8.508 3.094-17.015 6.961-29.39 20.109-17.789 20.109-7.734 34.804-4.64 40.218l-5.414 8.508c-3.094 3.094-6.961 4.64-6.961 4.64s-0.773 3.867 3.867 2.32l3.867-6.187c4.64-2.32 8.508-5.414 8.508-5.414zM923.843 345.137c-1.547-0.773-3.094 5.414-11.601 8.508-3.867 1.547-10.054 0.773-14.695 0-27.843-5.414-38.671-9.281-68.060 1.547-15.468 5.414-30.163 11.601-51.045 35.577-30.937 35.577-13.148 61.1-7.734 70.381 0.773 1.547-3.867 9.281-9.281 14.695-5.414 6.187-11.601 9.281-11.601 9.281s-1.547 6.961 6.961 4.64c0.773 0 4.64-7.734 6.961-10.828 6.187-6.187 13.148-10.828 13.148-10.828s27.069 23.202 62.647 11.601c85.076-27.843 88.943-131.48 84.302-134.574zM262.574 399.276c-0.773-0.773 0.773-6.187 2.32-10.054 2.32-4.64 4.64-7.734 4.64-7.734s0-4.64-4.64-1.547l-2.32 7.734c-2.32 4.64-5.414 9.281-5.414 9.281s-20.882-7.734-39.444 6.187c-43.311 34.030-23.976 95.13-20.882 95.903 1.547 0 0.773-3.867 4.64-7.734l8.508-3.094c17.789-3.094 24.749-3.094 39.444-14.695 7.734-6.187 15.468-13.148 22.429-31.71 11.601-27.069-4.64-37.897-9.281-42.538zM691.819 529.983c-33.257 0-49.498 27.069-49.498 27.069s-6.961-2.32-13.921-5.414c-3.094-1.547-7.734-6.961-9.281-6.961-7.734 0.773-4.64 5.414-4.64 5.414s6.187 0.773 12.375 3.867c6.187 3.094 12.375 7.734 11.601 9.281-1.547 9.281-9.281 35.577 26.296 56.459 23.976 13.921 38.671 15.468 52.592 15.468 27.069 0.773 34.804-5.414 57.233-17.789 3.867-2.32 8.508-4.64 12.375-4.64 7.734 0.773 10.828 5.414 11.601 3.867 3.867-1.547-28.616-87.396-106.731-86.622zM411.069 193.548c-3.867-1.547-77.341 53.366-54.912 128.387 9.281 31.71 40.218 39.444 40.218 39.444s0 7.734-1.547 15.468c-0.773 3.867-3.867 9.281-3.867 10.828 2.32 6.961 6.961 2.32 6.961 2.32s-0.773-6.187 0.773-13.148c0.773-6.187 3.867-13.921 5.414-13.921 9.281-0.773 37.124-0.773 47.178-40.991 6.961-27.069 3.867-40.991 0-54.912-6.961-26.296-14.695-31.71-33.257-49.498-3.094-3.094-6.961-6.961-7.734-10.828-1.547-8.508 3.094-12.375 0.773-13.148zM765.293 293.319c6.187-0.773 10.054 3.094 10.828 2.32 2.32-3.094-35.577-71.154-101.317-61.873-27.843 3.867-37.897 28.616-37.897 28.616s-6.187-0.773-12.375-3.094l-8.508-4.64c-6.187 1.547-3.094 5.414-3.094 5.414s4.64 0 10.828 1.547c5.414 1.547 10.828 4.64 10.828 6.187 0 7.734-3.867 30.937 29.39 44.858 22.429 9.281 34.030 8.508 46.405 6.961 23.202-3.094 28.616-8.508 45.631-21.656 2.32-1.547 6.187-3.867 9.281-4.64zM565.752 533.077c21.656 4.64 36.35-10.828 36.35-10.828s4.64 2.32 8.508 5.414l5.414 5.414c5.414 0.773 3.867-3.094 3.867-3.094s-3.867-1.547-7.734-4.64c-3.094-3.094-6.961-6.961-6.187-7.734 2.32-5.414 11.601-22.429-9.281-40.991-13.921-13.148-23.202-15.468-32.483-17.789-17.789-4.64-23.976-1.547-40.218 3.867l-8.508 0.773c-4.64-1.547-6.187-5.414-6.961-4.64-3.867 2.32 5.414 63.42 57.233 74.248zM179.045 273.983c0 0 4.64-1.547 10.054-2.32h7.734c3.867-3.094 0-4.64 0-4.64s-3.867 1.547-8.508 2.32c-4.64 0.773-10.054 0-10.054-0.773-2.32-5.414-8.508-23.202-36.35-21.656-18.562 1.547-27.069 6.187-35.577 11.601-15.468 10.054-17.789 16.242-24.749 31.71l-4.64 6.961c-4.64 2.32-8.508 0.773-8.508 2.32 0 3.094 50.272 37.897 93.583 8.508 18.562-12.375 17.015-34.030 17.015-34.030zM442.779 461.149c0 0 1.547-4.64 4.64-9.281l5.414-5.414c0-5.414-3.094-3.094-3.094-3.094s-0.773 3.867-3.867 7.734c-2.32 3.867-6.187 7.734-6.961 6.961-6.187-1.547-22.429-8.508-39.444 12.375 3.094-30.163-16.242-42.538-23.202-48.725-1.547-1.547 0.773-10.054 3.094-17.015 3.094-6.961 7.734-12.375 7.734-12.375s-0.773-6.961-7.734-1.547c-0.773 0.773-1.547 8.508-3.094 12.375-3.094 8.508-7.734 15.468-7.734 15.468s-34.030-11.601-62.647 12.375c-68.060 57.233-34.030 154.683-28.616 155.456 2.32 0 0.773-6.187 6.961-12.375 3.094-3.094 9.281-4.64 13.921-5.414 27.843-5.414 39.444-5.414 62.647-26.296 7.734-6.961 15.468-14.695 23.202-27.069 0 10.828 3.094 17.015 8.508 29.39l2.32 8.508c-0.773 5.414-4.64 6.961-3.867 7.734 2.32 2.32 61.873-13.148 67.287-65.74 0.773-20.882-15.468-34.030-15.468-34.030zM307.432 306.467c0 0 0.773 4.64 0 10.054l-2.32 6.961c2.32 4.64 4.64 1.547 4.64 1.547s-0.773-3.867 0-8.508c0.773-4.64 2.32-9.281 3.094-9.281 6.187-0.773 24.749-2.32 30.163-30.163 3.094-18.562 0.773-27.843-2.32-37.124-6.187-17.789-11.601-20.882-23.976-31.71l-5.414-6.961c-1.547-4.64 0.773-7.734 0-8.508-3.094-0.773-49.498 39.444-30.937 88.943 6.187 20.882 27.069 24.749 27.069 24.749zM575.033 120.074c-3.094-0.773-41.764 47.952-14.695 92.81 11.601 19.335 32.483 19.335 32.483 19.335s1.547 4.64 1.547 10.054l-0.773 7.734c3.094 4.64 4.64 0.773 4.64 0.773s-1.547-3.867-1.547-8.508c0-4.64 0-10.054 1.547-10.054 6.187-2.32 23.976-6.961 23.976-34.804 0-19.335-3.867-27.843-9.281-36.35-9.281-16.242-15.468-18.562-30.163-27.069l-6.961-5.414c-1.547-4.64 0-7.734-0.773-8.508zM794.683 491.313c-22.429-1.547-34.804 15.468-34.804 15.468s-4.64-1.547-9.281-4.64l-5.414-5.414c-5.414 0-3.094 3.867-3.094 3.867s3.867 0.773 7.734 3.094c3.867 2.32 7.734 6.187 7.734 6.961-1.547 6.187-8.508 23.202 13.921 39.444 15.468 10.828 24.749 12.375 34.030 13.921 18.562 2.32 23.976-1.547 39.444-8.508l8.508-2.32c5.414 0.773 6.961 4.64 7.734 3.867 2.32-1.547-13.921-61.1-66.514-65.74zM565.752 355.192c8.508 17.015 16.242 22.429 23.976 27.843 15.468 10.054 21.656 9.281 38.671 10.828l8.508 2.32c3.867 3.094 3.867 6.961 5.414 6.961 3.094-0.773 15.468-61.1-29.39-88.943-18.562-11.601-37.897-2.32-37.897-2.32s-3.094-3.867-6.187-8.508l-2.32-6.961c-4.64-2.32-4.64 1.547-4.64 1.547s3.094 2.32 5.414 6.961c2.32 3.867 3.867 8.508 3.094 9.281-3.094 3.867-17.015 16.242-4.64 40.991zM523.988 298.732l-1.547 7.734c2.32 4.64 4.64 0.773 4.64 0.773s-0.773-3.867-0.773-8.508c0-4.64 1.547-9.281 2.32-10.054 6.187-1.547 24.749-4.64 27.069-32.483 1.547-18.562-1.547-27.843-5.414-36.35-7.734-17.015-13.148-20.109-27.069-29.39l-6.187-6.961c-2.32-4.64 0-7.734-0.773-8.508-3.094-0.773-45.631 43.311-23.202 91.263 9.281 20.109 30.937 22.429 30.937 22.429s0.773 4.64 0 10.054zM592.048 585.669c-0.773-0.773-1.547-6.961-0.773-11.601 0.773-5.414 3.094-9.281 3.094-9.281s-1.547-4.64-5.414 0v8.508c-0.773 6.187-3.094 11.601-3.094 11.601s-25.523-2.32-40.218 17.789c-35.577 48.725 4.64 107.505 7.734 107.505 1.547 0-0.773-4.64 3.094-9.281l8.508-5.414c17.789-8.508 24.749-10.054 36.35-27.069 6.187-9.281 11.601-18.562 13.921-40.218 3.094-32.483-17.015-39.444-23.202-42.538zM686.405 507.554c0 0 1.547 4.64 5.414 0v-8.508c0.773-6.187 3.094-10.828 3.094-10.828s25.523 3.867 40.991-16.242c37.124-47.178 0-107.505-3.094-107.505-1.547 0 0 4.64-3.094 9.281l-8.508 5.414c-17.789 7.734-25.523 9.281-37.897 26.296-6.961 8.508-12.375 17.789-15.468 39.444-4.64 31.71 15.468 39.444 21.656 42.538 0.773 0.773 0.773 6.961 0 11.601-0.773 4.64-3.094 8.508-3.094 8.508zM240.918 269.343c0 0 1.547 5.414 2.32 11.601l-0.773 8.508c3.867 4.64 5.414 0.773 5.414 0.773s-1.547-3.867-2.32-9.281c-0.773-4.64 0-10.828 1.547-11.601 6.187-2.32 27.069-8.508 26.296-40.218-0.773-21.656-6.187-30.937-11.601-40.218-10.828-17.789-17.789-20.882-34.804-29.39l-7.734-6.187c-3.094-5.414-0.773-9.281-2.32-9.281-3.094-0.773-47.178 55.686-14.695 106.731 13.148 19.335 38.671 18.562 38.671 18.562zM463.662 199.735c-4.64-4.64-6.961-9.281-6.961-9.281s17.015-18.562 10.054-43.311c-17.015-57.233-88.169-61.1-90.489-58.779-0.773 1.547 3.867 2.32 5.414 7.734 0.773 3.094 0 6.961-0.773 10.054-3.867 18.562-6.961 25.523 0 45.631 3.094 10.828 7.734 20.882 23.202 34.804 23.202 21.656 40.991 10.054 47.178 6.961 1.547-0.773 6.187 3.094 9.281 6.961 3.867 3.867 5.414 7.734 5.414 7.734s4.64 1.547 3.094-4.64l-5.414-3.867zM645.414 196.642c1.547 0.773 1.547 6.961 0 11.601-0.773 5.414-3.094 9.281-3.094 9.281s1.547 4.64 5.414 0v-8.508c0.773-6.187 3.094-11.601 3.094-11.601s12.375 1.547 24.749-4.64c0 2.32 0.773 4.64 0.773 6.187 0 1.547-6.961 6.187-12.375 8.508-6.961 2.32-12.375 3.094-12.375 3.094s-3.867 4.64 3.867 6.187c0.773 0 6.187-4.64 10.054-6.187 6.961-3.094 14.695-4.64 14.695-4.64s13.148 28.616 46.405 31.71c78.115 7.734 118.332-74.248 116.012-78.115-0.773-1.547-4.64 3.094-12.375 3.094-3.867 0-8.508-3.094-11.601-5.414-20.882-14.695-27.843-20.882-54.912-23.202-14.695-0.773-28.616-1.547-54.139 10.828-0.773 0.773-1.547 0.773-2.32 1.547 6.187-38.671-17.789-74.248-20.882-73.474-1.547 0 0 4.64-3.094 9.281l-8.508 5.414c-17.789 7.734-24.749 10.054-37.124 27.069-6.187 9.281-12.375 18.562-14.695 39.444-3.867 31.71 16.242 38.671 22.429 42.538zM217.716 384.581c6.961-8.508 13.148-17.789 17.015-38.671 5.414-31.71-13.921-40.218-20.109-43.311-0.773-0.773-0.773-6.961 0.773-11.601 1.547-5.414 3.867-9.281 3.867-9.281s-1.547-4.64-5.414 0l-0.773 8.508c-1.547 6.187-3.867 10.828-3.867 10.828s-24.749-4.64-41.764 14.695c-39.444 45.631-3.867 107.505-0.773 107.505 1.547 0 0-4.64 3.094-9.281l8.508-5.414c18.562-6.187 26.296-7.734 39.444-23.976z" fill="#148d13" /><path d="M442.006 936.026l17.015-494.211-127.613-80.435-107.505 23.976 97.45-30.163-124.52-93.583 266.054 167.831 16.242-303.952 3.094 220.423 188.713-155.456-75.795 79.662 92.036 53.366-100.544-46.405-104.411 87.396 2.32 235.118 165.511-78.115-25.523-108.278 37.124 103.637 115.239-45.631-292.35 144.628 0.773 320.967h-43.311z" fill="#824522" /></svg>