<?xml version="1.0" encoding="utf-8"?>
<!-- Uploaded to: SVG Repo, www.svgrepo.com, Generator: SVG Repo Mixer Tools -->
<!DOCTYPE svg PUBLIC "-//W3C//DTD SVG 1.1//EN" "http://www.w3.org/Graphics/SVG/1.1/DTD/svg11.dtd">
<svg xmlns="http://www.w3.org/2000/svg" xmlns:xlink="http://www.w3.org/1999/xlink" version="1.1" id="Layer_1"  width="512" height="512" viewBox="0 0 512 512" enable-background="new 0 0 512 512" xml:space="preserve">
<g id="motherboard">
	<g>
		<rect y="58.672" fill="#4A89DC" width="512" height="426.656"/>
	</g>
	<g>
		<path fill="#434A54" d="M480,26.672c-5.875,0-10.656,4.766-10.656,10.656S474.125,48,480,48c5.906,0,10.672-4.781,10.672-10.672    S485.906,26.672,480,26.672z"/>
		<path fill="#434A54" d="M309.344,26.672H288c-5.875,0-10.656,4.766-10.656,10.656S282.125,48,288,48h21.344    C315.234,48,320,43.219,320,37.328S315.234,26.672,309.344,26.672z"/>
		<path fill="#434A54" d="M373.344,26.672H352c-5.875,0-10.656,4.766-10.656,10.656S346.125,48,352,48h21.344    C379.234,48,384,43.219,384,37.328S379.234,26.672,373.344,26.672z"/>
		<path fill="#434A54" d="M437.344,26.672h-21.328c-5.891,0-10.672,4.766-10.672,10.656S410.125,48,416.016,48h21.328    c5.891,0,10.672-4.781,10.672-10.672S443.234,26.672,437.344,26.672z"/>
	</g>
	<g>
		<rect y="37.328" fill="#5D9CEC" width="512" height="426.672"/>
	</g>
	<rect x="53.344" y="90.672" fill="#656D78" width="42.656" height="42.656"/>
	<path fill="#434A54" d="M42.672,80v64h64V80H42.672z M85.344,122.672H64v-21.344h21.344V122.672z"/>
	<path fill="#E6E9ED" d="M85.344,410.672c-13.281,0-22.281-4.875-27.516-14.906c-4.344-8.281-4.484-17.062-4.484-17.156v-31.938H224   v64H85.344z"/>
	<path fill="#CACFD7" d="M42.672,336v42.672c0,0,0,42.656,42.672,42.656c42.656,0,149.328,0,149.328,0V336H42.672z M213.344,400   h-128c-11.469,0-15.453-4.422-17.844-8.75c-2.688-4.891-3.422-10.797-3.5-12.766v-21.156h149.344V400z"/>
	<g>
		<path fill="#434A54" d="M53.344,165.328c-5.891,0-10.672,4.781-10.672,10.672v128l0,0c0,5.891,4.781,10.672,10.672,10.672    S64,309.891,64,304l0,0V176C64,170.109,59.234,165.328,53.344,165.328z"/>
		<path fill="#434A54" d="M96,165.328c-5.875,0-10.656,4.781-10.656,10.672v128l0,0c0,5.891,4.781,10.672,10.656,10.672    c5.906,0,10.672-4.781,10.672-10.672l0,0V176C106.672,170.109,101.906,165.328,96,165.328z"/>
		<path fill="#434A54" d="M224,165.328c-5.875,0-10.656,4.781-10.656,10.672v128l0,0c0,5.891,4.781,10.672,10.656,10.672    c5.906,0,10.672-4.781,10.672-10.672l0,0V176C234.672,170.109,229.906,165.328,224,165.328z"/>
		<path fill="#434A54" d="M181.344,165.328c-5.891,0-10.672,4.781-10.672,10.672v128l0,0c0,5.891,4.781,10.672,10.672,10.672    S192,309.891,192,304l0,0V176C192,170.109,187.234,165.328,181.344,165.328z"/>
	</g>
	<g>
		<path fill="#434A54" d="M458.672,400L458.672,400h-192l0,0c-5.891,0-10.672,4.781-10.672,10.672s4.781,10.656,10.672,10.656l0,0    h192l0,0c5.891,0,10.672-4.766,10.672-10.656S464.562,400,458.672,400z"/>
		<path fill="#434A54" d="M266.672,378.672L266.672,378.672h192l0,0c5.891,0,10.672-4.781,10.672-10.672    s-4.781-10.672-10.672-10.672l0,0h-192l0,0c-5.891,0-10.672,4.781-10.672,10.672S260.781,378.672,266.672,378.672z"/>
	</g>
	<g>
		<path fill="#434A54" d="M458.672,122.672L458.672,122.672h-192l0,0c-5.891,0-10.672,4.766-10.672,10.656S260.781,144,266.672,144    l0,0h192l0,0c5.891,0,10.672-4.781,10.672-10.672S464.562,122.672,458.672,122.672z"/>
		<path fill="#434A54" d="M266.672,101.328L266.672,101.328h192l0,0c5.891,0,10.672-4.766,10.672-10.656S464.562,80,458.672,80l0,0    h-192l0,0C260.781,80,256,84.781,256,90.672S260.781,101.328,266.672,101.328z"/>
	</g>
	<rect x="458.672" y="176" fill="#E6E9ED" width="42.672" height="149.328"/>
	<path fill="#CACFD7" d="M448,165.328V336h64V165.328H448z M490.672,314.672h-21.328v-128h21.328V314.672z"/>
	<path fill="#CACFD7" d="M490.672,208c0,5.891-4.766,10.672-10.672,10.672c-5.875,0-10.656-4.781-10.656-10.672   s4.781-10.672,10.656-10.672C485.906,197.328,490.672,202.109,490.672,208z"/>
	<path fill="#CACFD7" d="M490.672,250.672c0,5.891-4.766,10.656-10.672,10.656c-5.875,0-10.656-4.766-10.656-10.656   S474.125,240,480,240C485.906,240,490.672,244.781,490.672,250.672z"/>
	<path fill="#CACFD7" d="M490.672,293.328c0,5.891-4.766,10.672-10.672,10.672c-5.875,0-10.656-4.781-10.656-10.672   s4.781-10.656,10.656-10.656C485.906,282.672,490.672,287.438,490.672,293.328z"/>
	<path fill="#4A89DC" d="M149.344,90.672c0,5.891-4.781,10.656-10.672,10.656S128,96.562,128,90.672S132.781,80,138.672,80   S149.344,84.781,149.344,90.672z"/>
	<path fill="#4A89DC" d="M192,133.328c0,5.891-4.766,10.672-10.656,10.672s-10.672-4.781-10.672-10.672s4.781-10.656,10.672-10.656   S192,127.438,192,133.328z"/>
	<path fill="#4A89DC" d="M170.672,112c0,5.891-4.766,10.672-10.672,10.672c-5.875,0-10.656-4.781-10.656-10.672   s4.781-10.672,10.656-10.672C165.906,101.328,170.672,106.109,170.672,112z"/>
	<path fill="#4A89DC" d="M192,90.672c0,5.891-4.766,10.656-10.656,10.656s-10.672-4.766-10.672-10.656S175.453,80,181.344,80   S192,84.781,192,90.672z"/>
	<path fill="#4A89DC" d="M149.344,133.328c0,5.891-4.781,10.672-10.672,10.672S128,139.219,128,133.328s4.781-10.656,10.672-10.656   S149.344,127.438,149.344,133.328z"/>
	<path fill="#4A89DC" d="M234.672,133.328c0,5.891-4.766,10.672-10.672,10.672c-5.875,0-10.656-4.781-10.656-10.672   s4.781-10.656,10.656-10.656C229.906,122.672,234.672,127.438,234.672,133.328z"/>
	<path fill="#4A89DC" d="M213.344,112c0,5.891-4.781,10.672-10.672,10.672S192,117.891,192,112s4.781-10.672,10.672-10.672   S213.344,106.109,213.344,112z"/>
	<path fill="#4A89DC" d="M234.672,90.672c0,5.891-4.766,10.656-10.672,10.656c-5.875,0-10.656-4.766-10.656-10.656   S218.125,80,224,80C229.906,80,234.672,84.781,234.672,90.672z"/>
	<path fill="#CACFD7" d="M181.344,368H96c-5.875,0-10.656,4.781-10.656,10.672S90.125,389.328,96,389.328h85.344   c5.891,0,10.656-4.766,10.656-10.656S187.234,368,181.344,368z"/>
	<g>
		<rect x="266.672" y="176" fill="#CACFD7" width="149.328" height="149.328"/>
	</g>
	<g>
		<path fill="#4A89DC" d="M138.672,208c-5.891,0-10.672,4.781-10.672,10.672v42.656c0,5.891,4.781,10.672,10.672,10.672    s10.672-4.781,10.672-10.672v-42.656C149.344,212.781,144.562,208,138.672,208z"/>
		<path fill="#4A89DC" d="M138.672,186.672c5.891,0,10.672-4.781,10.672-10.672s-4.781-10.672-10.672-10.672S128,170.109,128,176    S132.781,186.672,138.672,186.672z"/>
		<path fill="#4A89DC" d="M138.672,293.328c-5.891,0-10.672,4.781-10.672,10.672s4.781,10.672,10.672,10.672    s10.672-4.781,10.672-10.672S144.562,293.328,138.672,293.328z"/>
	</g>
	<path fill="#656D78" d="M341.344,325.328c-41.172,0-74.672-33.484-74.672-74.656S300.172,176,341.344,176S416,209.5,416,250.672   S382.516,325.328,341.344,325.328z"/>
	<path fill="#434A54" d="M412.188,260.953l5.641-20.578c-0.578-0.156-14.234-3.859-30.688-5.75c-8.391-0.969-16-1.266-22.812-0.938   c9.859-9.859,23.625-19.703,34.391-25.844l-10.562-18.531c-0.516,0.297-12.797,7.328-25.781,17.625   c-6.625,5.266-12.219,10.438-16.812,15.5c0-4.516,0.297-9.516,0.906-14.875c1.656-14.766,5.078-27.422,5.156-27.75l0,0L341.344,177   l-10.297-2.812c-0.156,0.562-3.859,14.219-5.75,30.688c-0.953,8.391-1.266,16-0.938,22.797   c-9.859-9.844-19.703-23.625-25.844-34.375l-18.531,10.562c0.297,0.516,7.328,12.797,17.625,25.766   c5.266,6.625,10.438,12.234,15.5,16.812c-4.516,0.016-9.516-0.281-14.875-0.891c-14.875-1.688-27.625-5.141-27.75-5.172   l-2.812,10.297l2.828-10.297l-5.641,20.578c0.562,0.156,14.219,3.875,30.688,5.766c6.219,0.703,12.016,1.062,17.375,1.062   c1.859,0,3.672-0.047,5.422-0.125c-9.859,9.844-23.625,19.688-34.375,25.844l5.281,9.266l5.281,9.266   c0.516-0.297,12.797-7.328,25.766-17.641c6.625-5.25,12.234-10.422,16.812-15.484c0.016,4.516-0.281,9.5-0.891,14.875   c-1.688,14.859-5.125,27.609-5.172,27.734l20.578,5.641c0.156-0.578,3.875-14.234,5.766-30.688c0.953-8.391,1.266-16,0.938-22.812   c9.844,9.859,19.688,23.625,25.828,34.375l18.547-10.562c-0.297-0.516-7.328-12.797-17.641-25.766   c-5.25-6.625-10.422-12.219-15.484-16.812c4.516,0,9.5,0.297,14.875,0.906C399.328,257.469,412.062,260.922,412.188,260.953z"/>
	<path fill="#CCD1D9" d="M341.344,272C329.578,272,320,262.438,320,250.672s9.578-21.344,21.344-21.344s21.328,9.578,21.328,21.344   S353.109,272,341.344,272z"/>
	<path fill="#E6E9ED" d="M341.344,218.672c-17.672,0-32,14.328-32,32s14.328,32,32,32s32-14.328,32-32   S359.016,218.672,341.344,218.672z M341.344,261.328c-5.891,0-10.672-4.781-10.672-10.656c0-5.891,4.781-10.672,10.672-10.672   c5.875,0,10.656,4.781,10.656,10.672C352,256.547,347.219,261.328,341.344,261.328z"/>
	<path fill="#434A54" d="M341.344,165.328c-47.125,0-85.344,38.203-85.344,85.344C256,297.797,294.219,336,341.344,336   s85.328-38.203,85.328-85.328C426.672,203.531,388.469,165.328,341.344,165.328z M341.344,314.672c-35.297,0-64-28.719-64-64   c0-35.297,28.703-64,64-64c35.281,0,64,28.703,64,64C405.344,285.953,376.625,314.672,341.344,314.672z"/>
</g>
</svg>