<?xml version="1.0" encoding="UTF-8" standalone="no"?>
<!-- Uploaded to: SVG Repo, www.svgrepo.com, Generator: SVG Repo Mixer Tools -->

<svg
   version="1.1"
   id="Layer_1"
   width="395.64746"
   height="437.328"
   viewBox="0 0 395.64746 437.32801"
   enable-background="new 0 0 512 512"
   xml:space="preserve"
   sodipodi:docname="devices.svg"
   inkscape:version="1.1.2 (0a00cf5339, 2022-02-04)"
   xmlns:inkscape="http://www.inkscape.org/namespaces/inkscape"
   xmlns:sodipodi="http://sodipodi.sourceforge.net/DTD/sodipodi-0.dtd"
   xmlns="http://www.w3.org/2000/svg"
   xmlns:svg="http://www.w3.org/2000/svg"><defs
   id="defs104">
	
	
	
	
	
	
	
	
	
	
	
	
	
	
	
	
	
	
	
	
	
	
	
	
	
	
	
	
	
	
	

		
		
		
	
		
	
		
		
		
		
	
		
		
	
		
		
	</defs><sodipodi:namedview
   id="namedview102"
   pagecolor="#ffffff"
   bordercolor="#666666"
   borderopacity="1.0"
   inkscape:pageshadow="2"
   inkscape:pageopacity="0.0"
   inkscape:pagecheckerboard="0"
   showgrid="false"
   inkscape:zoom="1.9024628"
   inkscape:cx="186.33741"
   inkscape:cy="262.81723"
   inkscape:window-width="3840"
   inkscape:window-height="2065"
   inkscape:window-x="0"
   inkscape:window-y="0"
   inkscape:window-maximized="1"
   inkscape:current-layer="Layer_1" />
<g
   id="g14"
   transform="translate(-116.35255,-26.672)">
		<path
   fill="#434a54"
   d="m 480,26.672 c -5.875,0 -10.656,4.766 -10.656,10.656 0,5.89 4.781,10.672 10.656,10.672 5.906,0 10.672,-4.781 10.672,-10.672 0,-5.891 -4.766,-10.656 -10.672,-10.656 z"
   id="path6" />
		<path
   fill="#434a54"
   d="M 309.344,26.672 H 288 c -5.875,0 -10.656,4.766 -10.656,10.656 0,5.89 4.781,10.672 10.656,10.672 h 21.344 C 315.234,48 320,43.219 320,37.328 320,31.437 315.234,26.672 309.344,26.672 Z"
   id="path8" />
		<path
   fill="#434a54"
   d="M 373.344,26.672 H 352 c -5.875,0 -10.656,4.766 -10.656,10.656 0,5.89 4.781,10.672 10.656,10.672 h 21.344 C 379.234,48 384,43.219 384,37.328 384,31.437 379.234,26.672 373.344,26.672 Z"
   id="path10" />
		<path
   fill="#434a54"
   d="m 437.344,26.672 h -21.328 c -5.891,0 -10.672,4.766 -10.672,10.656 0,5.89 4.781,10.672 10.672,10.672 h 21.328 c 5.891,0 10.672,-4.781 10.672,-10.672 0,-5.891 -4.782,-10.656 -10.672,-10.656 z"
   id="path12" />
	</g><rect
   y="10.655999"
   fill="#5d9cec"
   width="395.64743"
   height="426.672"
   id="rect16"
   x="0"
   style="fill:#28b186;fill-opacity:1;stroke-width:0.879061" /><path
   fill="#e6e9ed"
   d="m 49.147993,395.56396 c -5.6033,0 -9.40043,-5.75585 -11.6091,-17.59932 -1.83275,-9.77727 -1.89181,-20.14488 -1.89181,-20.25586 V 320 h 72.000367 v 75.56396 z"
   id="path24"
   style="stroke-width:0.705785" /><path
   fill="#434a54"
   d="m 107.64745,50.779039 c -5.875,0 -10.655997,7.594235 -10.655997,16.951616 v 203.317735 0 c 0,9.35738 4.780997,16.95162 10.655997,16.95162 5.906,0 10.672,-7.59424 10.672,-16.95162 v 0 -203.317735 c 0,-9.357381 -4.766,-16.951616 -10.672,-16.951616 z"
   id="path32"
   style="fill:#323232;fill-opacity:1;stroke-width:1.26033" /><path
   fill="#434a54"
   d="m 64.991453,50.779039 c -5.891,0 -10.672,7.594235 -10.672,16.951616 v 203.317735 0 c 0,9.35738 4.781,16.95162 10.672,16.95162 5.891,0 10.656,-7.59424 10.656,-16.95162 v 0 -203.317735 c 0,-9.357381 -4.766,-16.951616 -10.656,-16.951616 z"
   id="path34"
   style="fill:#323232;fill-opacity:1;stroke-width:1.26033" /><path
   fill="#434a54"
   d="m 342.31945,373.328 v 0 h -192 v 0 c -5.891,0 -10.672,4.781 -10.672,10.672 0,5.891 4.781,10.656 10.672,10.656 v 0 h 192 v 0 c 5.891,0 10.672,-4.766 10.672,-10.656 0,-5.89 -4.782,-10.672 -10.672,-10.672 z"
   id="path38"
   style="fill:#323232;fill-opacity:1" /><path
   fill="#434a54"
   d="m 150.31945,352 v 0 h 192 v 0 c 5.891,0 10.672,-4.781 10.672,-10.672 0,-5.891 -4.781,-10.672 -10.672,-10.672 v 0 h -192 v 0 c -5.891,0 -10.672,4.781 -10.672,10.672 0,5.891 4.781,10.672 10.672,10.672 z"
   id="path40"
   style="fill:#323232;fill-opacity:1" /><path
   fill="#434a54"
   d="m 342.31945,96 v 0 h -192 v 0 c -5.891,0 -10.672,4.766 -10.672,10.656 0,5.89 4.781,10.672 10.672,10.672 v 0 h 192 v 0 c 5.891,0 10.672,-4.781 10.672,-10.672 0,-5.891 -4.782,-10.656 -10.672,-10.656 z"
   id="path44"
   style="fill:#323232;fill-opacity:1" /><path
   fill="#434a54"
   d="m 150.31945,74.656 v 0 h 192 v 0 c 5.891,0 10.672,-4.766 10.672,-10.656 0,-5.89 -4.782,-10.672 -10.672,-10.672 v 0 h -192 v 0 c -5.891,0 -10.672,4.781 -10.672,10.672 0,5.891 4.781,10.656 10.672,10.656 z"
   id="path46"
   style="fill:#323232;fill-opacity:1" /><path
   fill="#cacfd7"
   d="m 331.64745,138.656 v 170.672 h 64 V 138.656 Z M 374.31945,288 h -21.328 V 160 h 21.328 z"
   id="path52"
   style="fill:#cacfd7;fill-opacity:1;stroke-width:1;stroke-miterlimit:4;stroke-dasharray:none" /><g
   id="g80"
   transform="translate(-116.35255,-26.672)">
		<rect
   x="266.672"
   y="176"
   fill="#cacfd7"
   width="149.328"
   height="149.328"
   id="rect78" />
	</g><path
   fill="#656d78"
   d="m 224.99145,298.656 c -41.172,0 -74.672,-33.484 -74.672,-74.656 0,-41.172 33.5,-74.672 74.672,-74.672 41.172,0 74.656,33.5 74.656,74.672 0,41.172 -33.484,74.656 -74.656,74.656 z"
   id="path90" /><path
   fill="#434a54"
   d="m 295.83545,234.281 5.641,-20.578 c -0.578,-0.156 -14.234,-3.859 -30.688,-5.75 -8.391,-0.969 -16,-1.266 -22.812,-0.938 9.859,-9.859 23.625,-19.703 34.391,-25.844 l -10.562,-18.531 c -0.516,0.297 -12.797,7.328 -25.781,17.625 -6.625,5.266 -12.219,10.438 -16.812,15.5 0,-4.516 0.297,-9.516 0.906,-14.875 1.656,-14.766 5.078,-27.422 5.156,-27.75 v 0 l -10.283,-2.812 -10.297,-2.812 c -0.156,0.562 -3.859,14.219 -5.75,30.688 -0.953,8.391 -1.266,16 -0.938,22.797 -9.859,-9.844 -19.703,-23.625 -25.844,-34.375 l -18.531,10.562 c 0.297,0.516 7.328,12.797 17.625,25.766 5.266,6.625 10.438,12.234 15.5,16.812 -4.516,0.016 -9.516,-0.281 -14.875,-0.891 -14.875,-1.688 -27.625,-5.141 -27.75,-5.172 l -2.812,10.297 2.828,-10.297 -5.641,20.578 c 0.562,0.156 14.219,3.875 30.688,5.766 6.219,0.703 12.016,1.062 17.375,1.062 1.859,0 3.672,-0.047 5.422,-0.125 -9.859,9.844 -23.625,19.688 -34.375,25.844 l 5.281,9.266 5.281,9.266 c 0.516,-0.297 12.797,-7.328 25.766,-17.641 6.625,-5.25 12.234,-10.422 16.812,-15.484 0.016,4.516 -0.281,9.5 -0.891,14.875 -1.688,14.859 -5.125,27.609 -5.172,27.734 l 20.578,5.641 c 0.156,-0.578 3.875,-14.234 5.766,-30.688 0.953,-8.391 1.266,-16 0.938,-22.812 9.844,9.859 19.688,23.625 25.828,34.375 l 18.547,-10.562 c -0.297,-0.516 -7.328,-12.797 -17.641,-25.766 -5.25,-6.625 -10.422,-12.219 -15.484,-16.812 4.516,0 9.5,0.297 14.875,0.906 14.875,1.671 27.609,5.124 27.735,5.155 z"
   id="path92" /><path
   fill="#ccd1d9"
   d="m 224.99145,245.328 c -11.766,0 -21.344,-9.562 -21.344,-21.328 0,-11.766 9.578,-21.344 21.344,-21.344 11.766,0 21.328,9.578 21.328,21.344 0,11.766 -9.563,21.328 -21.328,21.328 z"
   id="path94" /><path
   fill="#e6e9ed"
   d="m 224.99145,192 c -17.672,0 -32,14.328 -32,32 0,17.672 14.328,32 32,32 17.672,0 32,-14.328 32,-32 0,-17.672 -14.328,-32 -32,-32 z m 0,42.656 c -5.891,0 -10.672,-4.781 -10.672,-10.656 0,-5.891 4.781,-10.672 10.672,-10.672 5.875,0 10.656,4.781 10.656,10.672 0,5.875 -4.781,10.656 -10.656,10.656 z"
   id="path96" /><path
   fill="#434a54"
   d="m 224.99145,138.656 c -47.125,0 -85.344,38.203 -85.344,85.344 0,47.125 38.219,85.328 85.344,85.328 47.125,0 85.328,-38.203 85.328,-85.328 0,-47.141 -38.203,-85.344 -85.328,-85.344 z m 0,149.344 c -35.297,0 -64,-28.719 -64,-64 0,-35.297 28.703,-64 64,-64 35.281,0 64,28.703 64,64 0,35.281 -28.719,64 -64,64 z"
   id="path98" />
</svg>
