<?xml version="1.0" encoding="UTF-8"?>
<svg width="512" height="512" version="1.1" viewBox="0 0 512 512" xmlns="http://www.w3.org/2000/svg">
 <defs>
  <linearGradient id="c" x1="198" x2="432" y1="244" y2="244" gradientUnits="userSpaceOnUse">
   <stop style="stop-color:#fff;stop-opacity:.18" offset="0"/>
   <stop style="stop-color:#fff;stop-opacity:0" offset=".464"/>
   <stop style="stop-color:#fff;stop-opacity:0" offset=".59"/>
   <stop style="stop-color:#fff;stop-opacity:.18" offset="1"/>
  </linearGradient>
  <linearGradient id="a" x1="210" x2="421" y1="380" y2="380" gradientUnits="userSpaceOnUse">
   <stop style="stop-color:#0000ff;stop-opacity:0" offset="0"/>
   <stop style="stop-color:#0000ff" offset=".16"/>
   <stop style="stop-color:#0000ff" offset=".81"/>
   <stop style="stop-color:#0000ff;stop-opacity:0" offset="1"/>
  </linearGradient>
  <linearGradient id="e" x1="118" x2="242" y1="256" y2="256" gradientUnits="userSpaceOnUse">
   <stop offset="0"/>
   <stop style="stop-color:#454545" offset="1"/>
  </linearGradient>
  <radialGradient id="d" cx="222" cy="264" r="45.5" gradientTransform="matrix(2.87,0,3.95e-6,7.88,-453,-1810)" gradientUnits="userSpaceOnUse">
   <stop style="stop-color:#0000fd" offset="0"/>
   <stop style="stop-color:#0303ea;stop-opacity:0" offset="1"/>
  </radialGradient>
  <radialGradient id="b" cx="224" cy="180" r="27.5" gradientTransform="matrix(2.49,0,0,3.25,-366,-405)" gradientUnits="userSpaceOnUse">
   <stop style="stop-color:#4d4dff" offset="0"/>
   <stop style="stop-color:#4d4dff;stop-opacity:0" offset="1"/>
  </radialGradient>
  <linearGradient id="g" x1="125" x2="90.2" y1="438" y2="403" gradientTransform="matrix(1.12 0 0 1.12 -24.4 -53)" gradientUnits="userSpaceOnUse">
   <stop style="stop-color:#e80" offset="0"/>
   <stop style="stop-color:#fc6" offset="1"/>
  </linearGradient>
  <linearGradient id="f" x1="200" x2="417" y1="170" y2="170" gradientUnits="userSpaceOnUse">
   <stop style="stop-color:#fff" offset="0"/>
   <stop style="stop-color:#9bcbff;stop-opacity:.35" offset="1"/>
  </linearGradient>
 </defs>
 <path d="m79.8 85.2 122-82.7 1.32 508-124-43.4z" fill="url(#e)"/>
 <path d="m422 511h-215c-4.54 0-8.26-3.71-8.26-8.26v-494c0-4.54 3.71-8.26 8.26-8.26h215c7.11 0 10.3 3.27 10.3 10.3v61.2l23.7 28.1-0.451 139-23.2 33.3v228c-0.0636 7.14-3.82 10.3-10.3 10.3z"/>
 <path d="m210 1.05v155c0 12.1 9.91 22 22 22h184c12.1 0 22-9.91 22-22l-0.125-80.2-17.9-16.9v-57.9z" fill="#333"/>
 <rect x="210" y="79.1" width="228" height="5.5"/>
 <rect x="210" y="11.6" width="210" height="5.5"/>
 <rect x="279" y="132" width="23" height="6.1" fill="#5b5c5f"/>
 <rect x="248" y="132" width="23" height="6.1" fill="#db2b42"/>
 <rect x="374" y="132" width="23" height="6.1" fill="#db2b42"/>
 <rect x="342" y="132" width="23" height="6.1" fill="#5b5c5f"/>
 <rect x="311" y="132" width="23" height="6.1" fill="#db2b42"/>
 <circle cx="413" cy="222" r="30.6" fill="#5b5c5f"/>
 <circle cx="413" cy="222" r="21.8"/>
 <circle cx="413" cy="222" r="9.26" fill="#db2b42"/>
 <path d="m290 444h57.7v21.1h-57.7z" fill="#999"/>
 <path d="m398 147h-149l-21 30.3c1.38 0.202 2.78 0.349 4.23 0.349h182c1.45 0 2.85-0.147 4.23-0.349z" fill="#5b5c5f"/>
 <circle cx="340" cy="164" r="4.7"/>
 <circle cx="355" cy="164" r="4.7"/>
 <circle cx="372" cy="164" r="4.7"/>
 <circle cx="388" cy="164" r="4.7"/>
 <rect x="253" y="159" width="29.3" height="9.35"/>
 <rect x="295" y="159" width="29.3" height="9.35"/>
 <path d="m432 511h-225c-4.54 0-8.26-3.71-8.26-8.26v-494c0-4.54 3.71-8.26 8.26-8.26h217c4.54 0 8.26 3.71 8.26 8.26v61.8l23.3 26.4v146l-23.3 27.5v232c0 4.54 4.55 8.26 0 8.26z" fill="url(#c)"/>
 <path d="m210 255v248l36-9.83v-228zm211 42-32 9.83v186l32 9.83z" fill="url(#a)"/>
 <path d="m91.7 101 91-52.6v426l-91-25.2z" fill="url(#d)"/>
 <path d="m183 105c-73.4 21.1-73.4 128 0 149z" fill="url(#b)"/>
 <path d="m316 461v-5.93h-4.62v5.93h-2.56v-13.6h2.56v5.47h4.62v-5.47h2.56v13.6zm4.62 0v-1.88c2.01-2.44 6.28-5.01 6.28-7.8 0-1.88-2.53-2.97-5-0.63l-1.34-1.73c0.876-0.814 2.36-1.81 4.4-1.81 2.77 0 4.49 1.51 4.42 3.99-0.114 3.73-3.06 5.46-5.25 7.51h5.74v2.34z"/>
 <path d="m335 4.83c-47 0.846-97 19-127 59.6-18.2 24.3-32.4 60-35.1 82.6h-0.116c-3.81 50.6 7.84 98.9 43.8 136l-41.4 41.1 17.7 17.7 42.2-41.9c12.7 10.3 25.2 16.6 42.2 23.5 74.8 25.5 155 3.71 197-62.2 34.1-48.9 38.8-118 9.89-171-42.1-72.9-104-85.2-148-85.2zm1.8 29c13.2-0.167 26.3 1.67 39 5.47 51.4 13.7 94.2 59.7 95.7 116h0.165c5.99 66.4-41.9 134-107 144-57.8 10.9-125-17.7-148-75.1-20.4-45.1-16.3-103 16.7-141 24.9-31.9 64.4-49.8 104-50.2z" fill="#3c65fc"/>
 <path d="m164 296c6.44 0.01 13 0.754 19 3.41 3.78 1.62 7.11 4.18 10 7.14 6.31 6 12.5 12.2 18.5 18.5 5.84 6.8 8.61 16.1 7.94 25.1-0.559 8-3.79 15.8-9.41 21.5-35.2 34.7-70.7 69.1-106 104-8.35 8.22-16.7 16.5-25 24.8-5.18 5.45-11.8 9.69-19.1 11.3-9.92 2.23-20.8-0.143-28.8-6.64-3.26-2.74-6.28-5.78-9.33-8.75-4.1-4.07-8.17-8.17-12.2-12.3-6.8-7.6-9.92-18.5-8.28-28.7 1.21-7.89 5.24-15.2 11-20.6 26.1-26.2 52.5-52 79-77.9 16.5-16.1 33.1-32.3 49.4-48.5 4.1-4.43 8.88-8.38 14.5-10.6 2.79-1.08 5.76-1.58 8.75-1.63z" fill="#3c65fc"/>
 <path d="m155 310c4.21-4.12 10.9-4.12 15.1-8e-3l34.8 34.7c4.15 4.05 4.15 10.8 0 14.9l-141 139c-4.21 4.1-10.8 4.1-15.1 0l-34.8-34.7c-4.15-4.05-4.15-10.8 0-14.9z" fill="url(#g)"/>
 <path d="m220 221c79-26.7 59.3-129 208-145-27.9-23.8-59.6-36.1-91.2-35.6-71.4 0-129 57.3-129 129 0 24.8 5.79 39.6 12 51.9z" style="fill-opacity:.7;fill:#fff"/>
 <path d="m200 170c0 73.9 60.9 135 136 135 74.6 0 136-60.6 136-135 0-74.1-60.9-135-136-135-74.6 0-136 60.6-136 135z" fill="url(#f)"/>
 <path d="m337 25.3c79.6 0 145 64.5 145 143 0 79-65.1 143-145 143-79.6 0-145-64.5-145-143 0-79 65.1-143 145-143zm0 10.9c-74.6 0.0428-133 58.5-133 133 0 73.9 59.3 133 133 133 74.6 0 133-58.9 133-133 0-73.9-59.3-133-133-133z" fill="#8eb9df"/>
</svg>
