<?xml version="1.0" encoding="UTF-8"?>
<svg width="512" height="512" version="1.1" viewBox="0 0 512 512" xmlns="http://www.w3.org/2000/svg">
 <path d="m263 196c9.56 29.2 46.1 31.9 47 30.1 0.456-0.456-1.82-1.37-3.19-4.11v-5.02c3.19-15.5 2.74-20.5-1.82-28.3 0 0-3.19 2.28-6.84 1.82-2.74-0.456-5.02-1.82-6.37-3.19s-2.28-3.65-1.82-7.32c0.456-4.11 3.19-5.96 3.19-5.96-12.3-11-20.5-2.74-23.7-1.37l-5.02-3.19c-1.82-1.82-3.19-4.11-3.19-4.11s-2.28-0.456-1.37 2.28l3.65 2.74c2.28 2.28 4.11 4.56 4.11 4.56s-8.67 8.67-4.56 21zm-7.32-154s9.14 7.73 21 4.11c28.3-9.14 29.7-44.2 28.3-45.2-0.456-0.456-0.914 1.82-3.65 2.74h-5.02c-9.56-1.82-12.8-3.19-22.8 0.456-5.02 1.82-10 4.11-17.3 11.9-10.5 11.9-4.56 20.5-2.74 23.7l-3.19 5.02c-1.82 1.82-4.11 2.74-4.11 2.74s-0.456 2.28 2.28 1.37l2.28-3.65c2.74-1.37 5.02-3.19 5.02-3.19zm253 120c-0.914-0.456-1.82 3.19-6.84 5.02-2.28 0.914-5.96 0.456-8.67 0-16.4-3.19-22.8-5.48-40.2 0.914-9.14 3.19-17.8 6.84-30.1 21-18.2 21-7.73 36-4.56 41.5 0.456 0.914-2.28 5.48-5.48 8.67-3.19 3.65-6.84 5.48-6.84 5.48s-0.914 4.11 4.11 2.74c0.456 0 2.74-4.56 4.11-6.37 3.65-3.65 7.73-6.37 7.73-6.37s16 13.7 36.9 6.84c50.2-16.4 52.5-77.3 49.7-79.6zm-390 31.9c-0.456-0.456 0.456-3.65 1.37-5.96 1.37-2.74 2.74-4.56 2.74-4.56s0-2.74-2.74-0.914l-1.37 4.56c-1.37 2.74-3.19 5.48-3.19 5.48s-12.3-4.56-23.2 3.65c-25.5 20.1-14.2 56.1-12.3 56.6 0.914 0 0.456-2.28 2.74-4.56l5.02-1.82c10.5-1.82 14.6-1.82 23.2-8.67 4.56-3.65 9.14-7.73 13.2-18.7 6.84-16-2.74-22.4-5.48-25.1zm253 77.3c-19.6 0-29.2 16-29.2 16s-4.11-1.37-8.2-3.19c-1.82-0.914-4.56-4.11-5.48-4.11-4.56 0.456-2.74 3.19-2.74 3.19s3.65 0.456 7.32 2.28c3.65 1.82 7.32 4.56 6.84 5.48-0.914 5.48-5.48 21 15.5 33.3 14.2 8.2 22.8 9.14 31 9.14 16 0.456 20.5-3.19 33.7-10.5 2.28-1.37 5.02-2.74 7.32-2.74 4.56 0.456 6.37 3.19 6.84 2.28 2.28-0.914-16.9-51.6-63.1-51.1zm-166-198c-2.28-0.914-45.6 31.5-32.4 75.5 5.48 18.7 23.7 23.2 23.7 23.2s0 4.56-0.914 9.14c-0.456 2.28-2.28 5.48-2.28 6.37 1.37 4.11 4.11 1.37 4.11 1.37s-0.456-3.65 0.456-7.73c0.456-3.65 2.28-8.2 3.19-8.2 5.48-0.456 21.9-0.456 27.8-24.2 4.11-16 2.28-24.2 0-32.4-4.11-15.5-8.67-18.7-19.6-29.2-1.82-1.82-4.11-4.11-4.56-6.37-0.914-5.02 1.82-7.32 0.456-7.73zm209 58.9c3.65-0.456 5.96 1.82 6.37 1.37 1.37-1.82-21-42-59.6-36.5-16.4 2.28-22.4 16.9-22.4 16.9s-3.65-0.456-7.32-1.82l-5.02-2.74c-3.65 0.914-1.82 3.19-1.82 3.19s2.74 0 6.37 0.914c3.19 0.914 6.37 2.74 6.37 3.65 0 4.56-2.28 18.2 17.3 26.5 13.2 5.48 20.1 5.02 27.4 4.11 13.7-1.82 16.9-5.02 26.9-12.8 1.37-0.914 3.65-2.28 5.48-2.74zm-118 142c12.8 2.74 21.5-6.37 21.5-6.37s2.74 1.37 5.02 3.19l3.19 3.19c3.19 0.456 2.28-1.82 2.28-1.82s-2.28-0.914-4.56-2.74c-1.82-1.82-4.11-4.11-3.65-4.56 1.37-3.19 6.84-13.2-5.48-24.2-8.2-7.73-13.7-9.14-19.2-10.5-10.5-2.74-14.2-0.914-23.7 2.28l-5.02 0.456c-2.74-0.914-3.65-3.19-4.11-2.74-2.28 1.37 3.19 37.4 33.7 43.8zm-228-153s2.74-0.914 5.96-1.37h4.56c2.28-1.82 0-2.74 0-2.74s-2.28 0.914-5.02 1.37c-2.74 0.456-5.96 0-5.96-0.456-1.37-3.19-5.02-13.7-21.5-12.8-11 0.914-16 3.65-21 6.84-9.14 5.96-10.5 9.56-14.6 18.7l-2.74 4.11c-2.74 1.37-5.02 0.456-5.02 1.37 0 1.82 29.7 22.4 55.2 5.02 11-7.32 10-20.1 10-20.1zm156 110s0.914-2.74 2.74-5.48l3.19-3.19c0-3.19-1.82-1.82-1.82-1.82s-0.456 2.28-2.28 4.56c-1.37 2.28-3.65 4.56-4.11 4.11-3.65-0.914-13.2-5.02-23.2 7.32 1.82-17.8-9.56-25.1-13.7-28.7-0.914-0.914 0.456-5.96 1.82-10 1.82-4.11 4.56-7.32 4.56-7.32s-0.456-4.11-4.56-0.914c-0.456 0.456-0.914 5.02-1.82 7.32-1.82 5.02-4.56 9.14-4.56 9.14s-20.1-6.84-36.9 7.32c-40.2 33.7-20.1 91.4-16.9 91.4 1.37 0 0.456-3.65 4.11-7.32 1.82-1.82 5.48-2.74 8.2-3.19 16.4-3.19 23.2-3.19 36.9-15.5 4.56-4.11 9.14-8.67 13.7-16 0 6.37 1.82 10 5.02 17.3l1.37 5.02c-0.456 3.19-2.74 4.11-2.28 4.56 1.37 1.37 36.5-7.73 39.7-38.8 0.456-12.3-9.14-20.1-9.14-20.1zm-79.6-91.4s0.456 2.74 0 5.96l-1.37 4.11c1.37 2.74 2.74 0.914 2.74 0.914s-0.456-2.28 0-5.02 1.37-5.48 1.82-5.48c3.65-0.456 14.6-1.37 17.8-17.8 1.82-11 0.456-16.4-1.37-21.9-3.65-10.5-6.84-12.3-14.2-18.7l-3.19-4.11c-0.914-2.74 0.456-4.56 0-5.02-1.82-0.456-29.2 23.2-18.2 52.5 3.65 12.3 16 14.6 16 14.6zm158-110c-1.82-0.456-24.7 28.3-8.67 54.8 6.84 11.4 19.2 11.4 19.2 11.4s0.914 2.74 0.914 5.96l-0.456 4.56c1.82 2.74 2.74 0.456 2.74 0.456s-0.914-2.28-0.914-5.02 0-5.96 0.914-5.96c3.65-1.37 14.2-4.11 14.2-20.5 0-11.4-2.28-16.4-5.48-21.5-5.48-9.56-9.14-11-17.8-16l-4.11-3.19c-0.914-2.74 0-4.56-0.456-5.02zm130 219c-13.2-0.914-20.5 9.14-20.5 9.14s-2.74-0.914-5.48-2.74l-3.19-3.19c-3.19 0-1.82 2.28-1.82 2.28s2.28 0.456 4.56 1.82c2.28 1.37 4.56 3.65 4.56 4.11-0.914 3.65-5.02 13.7 8.2 23.2 9.14 6.37 14.6 7.32 20.1 8.2 11 1.37 14.2-0.914 23.2-5.02l5.02-1.37c3.19 0.456 4.11 2.74 4.56 2.28 1.37-0.914-8.2-36-39.2-38.8zm-135-80.2c5.02 10 9.56 13.2 14.2 16.4 9.14 5.96 12.8 5.48 22.8 6.37l5.02 1.37c2.28 1.82 2.28 4.11 3.19 4.11 1.82-0.456 9.14-36-17.3-52.5-11-6.84-22.4-1.37-22.4-1.37s-1.82-2.28-3.65-5.02l-1.37-4.11c-2.74-1.37-2.74 0.914-2.74 0.914s1.82 1.37 3.19 4.11c1.37 2.28 2.28 5.02 1.82 5.48-1.82 2.28-10 9.56-2.74 24.2zm-24.7-33.3-0.914 4.56c1.37 2.74 2.74 0.456 2.74 0.456s-0.456-2.28-0.456-5.02 0.914-5.48 1.37-5.96c3.65-0.914 14.6-2.74 16-19.2 0.914-11-0.914-16.4-3.19-21.5-4.56-10-7.73-11.9-16-17.3l-3.65-4.11c-1.37-2.74 0-4.56-0.456-5.02-1.82-0.456-26.9 25.5-13.7 53.9 5.48 11.9 18.2 13.2 18.2 13.2s0.456 2.74 0 5.96zm40.2 169c-0.456-0.456-0.914-4.11-0.456-6.84 0.456-3.19 1.82-5.48 1.82-5.48s-0.914-2.74-3.19 0v5.02c-0.456 3.65-1.82 6.84-1.82 6.84s-15-1.37-23.7 10.5c-21 28.7 2.74 63.7 4.56 63.7 0.914 0-0.456-2.74 1.82-5.48l5.02-3.19c10.5-5.02 14.6-5.96 21.5-16 3.65-5.48 6.84-11 8.2-23.7 1.82-19.2-10-23.2-13.7-25.1zm55.7-46.1s0.914 2.74 3.19 0v-5.02c0.456-3.65 1.82-6.37 1.82-6.37s15 2.28 24.2-9.56c21.9-27.8 0-63.7-1.82-63.7-0.914 0 0 2.74-1.82 5.48l-5.02 3.19c-10.5 4.56-15 5.48-22.4 15.5-4.11 5.02-7.32 10.5-9.14 23.2-2.74 18.7 9.14 23.2 12.8 25.1 0.456 0.456 0.456 4.11 0 6.84s-1.82 5.02-1.82 5.02zm-263-140s0.914 3.19 1.37 6.84l-0.456 5.02c2.28 2.74 3.19 0.456 3.19 0.456s-0.914-2.28-1.37-5.48c-0.456-2.74 0-6.37 0.914-6.84 3.65-1.37 16-5.02 15.5-23.7-0.456-12.8-3.65-18.2-6.84-23.7-6.37-10.5-10.5-12.3-20.5-17.3l-4.56-3.65c-1.82-3.19-0.456-5.48-1.37-5.48-1.82-0.456-27.8 32.9-8.67 63.1 7.73 11.4 22.8 11 22.8 11zm132-41.1c-2.74-2.74-4.11-5.48-4.11-5.48s10-11 5.96-25.5c-10-33.7-52-36-53.4-34.7-0.456 0.914 2.28 1.37 3.19 4.56 0.456 1.82 0 4.11-0.456 5.96-2.28 11-4.11 15 0 26.9 1.82 6.37 4.56 12.3 13.7 20.5 13.7 12.8 24.2 5.96 27.8 4.11 0.914-0.456 3.65 1.82 5.48 4.11 2.28 2.28 3.19 4.56 3.19 4.56s2.74 0.914 1.82-2.74l-3.19-2.28zm107-1.82c0.914 0.456 0.914 4.11 0 6.84-0.456 3.19-1.82 5.48-1.82 5.48s0.914 2.74 3.19 0v-5.02c0.456-3.65 1.82-6.84 1.82-6.84s7.32 0.914 14.6-2.74c0 1.37 0.456 2.74 0.456 3.65s-4.11 3.65-7.32 5.02c-4.11 1.37-7.32 1.82-7.32 1.82s-2.28 2.74 2.28 3.65c0.456 0 3.65-2.74 5.96-3.65 4.11-1.82 8.67-2.74 8.67-2.74s7.73 16.9 27.4 18.7c46.1 4.56 69.6-43.8 68.4-46.1-0.456-0.914-2.74 1.82-7.32 1.82-2.28 0-5.02-1.82-6.84-3.19-12.3-8.67-16.4-12.3-32.4-13.7-8.67-0.456-16.9-0.914-31.9 6.37-0.456 0.456-0.914 0.456-1.37 0.914 3.65-22.8-10.5-43.8-12.3-43.4-0.914 0 0 2.74-1.82 5.48l-5.02 3.19c-10.5 4.56-14.6 5.96-21.9 16-3.65 5.48-7.32 11-8.67 23.2-2.28 18.7 9.56 22.8 13.2 25.1zm-253 111c4.11-5.02 7.73-10.5 10-22.8 3.19-18.7-8.2-23.7-11.9-25.5-0.456-0.456-0.456-4.11 0.456-6.84 0.914-3.19 2.28-5.48 2.28-5.48s-0.914-2.74-3.19 0l-0.456 5.02c-0.914 3.65-2.28 6.37-2.28 6.37s-14.6-2.74-24.7 8.67c-23.2 26.9-2.28 63.7-0.456 63.7 0.914 0 0-2.74 1.82-5.48l5.02-3.19c11-3.65 15.5-4.56 23.2-14.2z" fill="#148d13"/>
 <path d="m224 511 10-291-75.5-47.4-63.7 14.2 57.5-17.8-73.8-55.2 157 99.1 9.56-179 1.82 130 112-91.4-44.7 47 54.3 31.5-59.6-27.4-61.4 51.6 1.37 139 97.9-46.1-15-63.7 21.9 61.4 67.8-26.9-172 85.6 0.456 189h-25.5z" fill="#824522"/>
</svg>
