<?xml version="1.0" encoding="UTF-8"?>
<svg width="512" height="512" version="1.1" viewBox="0 0 512 512" xmlns="http://www.w3.org/2000/svg">
 <rect x="5.83" y="182" width="22.8" height="52" rx="4.83" ry="5" fill="#999"/>
 <rect x="5.83" y="275" width="22.8" height="52" rx="4.83" ry="5" fill="#999"/>
 <path d="m36.8 354-0.0113-217h472l0.0145 217z" style="fill:#52a1e0;stroke-width:5;stroke:#0071b7"/>
 <path d="m33.2 352v47.5h26.6v-37.3h55.6v37.3h32.6l-4e-3 -26.2c0-18.7 28.8-20 28.8-0.176v45.3l189-6e-3 -4e-3 -35c0-14.3 18.9-14.6 18.9-0.176v35.2h102v-56.2h24.6v-10.3z" fill="#0071b7"/>
 <path d="m303 284v40.8l12.3 9.38v27.9m-45.8-79.2-0.216 42.7-13.7 9.01-0.52 20.7m0.53-74.4v36.2l-30.1 17.9-0.216 20.2m159-77.3 0.089 32.1-39.7 26.9-0.216 23m51.9-77-0.305 41.1 9.18 6.59v24.7m2.82-72.4-0.0761 35.2 27.4 20.8v16.4m-252-150h22.2l13.8 12.6h160m0 15.9h-160l-13.8-12.6h-22.2m196 28.5h-160l-13.8-12.6h-22.2m196 44.4h-160l-13.8-12.6h-22.2m196-3.3h-160l-13.8-12.6h-22.2m-106 22.5h-10.6l-15.6 34.9h-12.8m39-45.6h-15.9l-12.5 28.3h-10.6m0-75.9h13.3l9.79 17.6h15.9m-39-36.6h12.8l14.3 25.4h12.3m369 59.7v33.7l17.5 14v24.4m-178-69.9v69.6" style="fill:none;stroke-width:4;stroke:#0071b7"/>
 <path d="m406 380c-12.2 0-9.48 0.358-9.92 38h19.8c-0.426-37.6 2.03-38-9.92-38zm29.8 0c-12.2 0-9.48 0.358-9.92 38h19.8c-0.426-37.6 2.03-38-9.92-38zm29.8 0c-12.2 0-9.47 0.358-9.92 38h19.8c-0.426-37.6 2.03-38-9.92-38zm-270 0.075c-12.2 0-9.48 0.358-9.92 38h19.8c-0.426-37.6 2.03-38-9.92-38zm29.8 0c-12.2 0-9.48 0.358-9.92 38h19.8c-0.426-37.6 2.03-38-9.92-38zm29.8 0c-12.2 0-9.48 0.358-9.92 38h19.8c-0.426-37.6 2.03-38-9.92-38zm29.8 0c-12.2 0-9.48 0.358-9.92 38h19.8c-0.426-37.6 2.03-38-9.92-38zm29.8 0c-12.2 0-9.48 0.358-9.92 38h19.8c-0.426-37.6 2.03-38-9.92-38zm29.8 0c-12.2 0-9.47 0.358-9.92 38h19.8c-0.426-37.6 2.03-38-9.92-38z" fill="#ffce54"/>
 <path d="m437 226v49.6h-38.7v-49.6zm-137 0v49.6h-38.7v-49.6z" fill="#656d78"/>
 <rect x="90.8" y="201" width="74.4" height="75.7" fill="#656d78"/>
 <path d="m71.2 183 9e-3 112h114v-112zm22.9 21.7h59l9.04 9.04-4e-3 59.6-68 0.0133zm145-2.34 0.0155 93h84.7v-93zm136 0 0.0154 93h84.7v-93zm-108 28.3h28.3l-0.0155 36.3-28.2 0.0193zm136 0h28.3l-0.0154 36.3-28.2 0.0193z" fill="#434a54"/>
 <path d="m445 182v6.9h-16v-6.9zm-39.9 0v6.9h-16v-6.9zm-95.9 0v6.9h-16v-6.9zm-39.9 0v6.9h-16v-6.9zm-179-25.1v10.1h23.3v-10.1zm53.8 0v10.1h23.3v-10.1zm-53.9 154v10.1h23.3v-10.1zm53.8 0v10.1h23.3v-10.1z" fill="#c2a58d"/>
 <path d="m448 181v8.69h-5.76v-8.69zm-15.4 0v8.69h-5.76v-8.69zm-24.5 0v8.69h-5.76v-8.69zm-15.4 0v8.69h-5.76v-8.69zm-80.3 0.574v8.12h-5.76v-8.12zm-15.4 0v8.12h-5.76v-8.12zm-24.5 0v8.12h-5.76v-8.12zm-15.4 0v8.12h-5.76v-8.12zm-170-25.4v11.9h8.4v-11.9zm22.5 0v11.9h8.4v-11.9zm31.3 0v11.9h8.4v-11.9zm22.5 0v11.9h8.4v-11.9zm-76 154v11.9h8.4v-11.9zm22.5 0v11.9h8.4v-11.9zm31.3 0v11.9h8.4v-11.9zm22.5 0v11.9h8.4v-11.9z" fill="#dedede"/>
 <path d="m22.8 57h-21.5v-14.9h35.2v416h-13.8z" fill="#2e3238"/>
 <path d="m39 458v-418h-37.7" style="fill:none;stroke-width:10;stroke:#999"/>
</svg>
