<?xml version="1.0" encoding="UTF-8"?>
<svg width="512" height="512" version="1.1" viewBox="0 0 512 512" xmlns="http://www.w3.org/2000/svg">
 <defs>
  <radialGradient id="a" cx="267" cy="119" r="22.6" gradientTransform="matrix(4.07 0 0 3.15 -830 -257)" gradientUnits="userSpaceOnUse">
   <stop style="stop-color:#fe4600" offset="0"/>
   <stop offset="1"/>
  </radialGradient>
 </defs>
 <path d="m225 485c4.85 13.8 19.5 23.8 36.9 23.8s32-10 36.9-23.8h-73.8" fill="#333"/>
 <path d="m298 486 24.6-17.9 9.72-7.28c4.26-2.28-0.606-6.37-0.606-6.37l-5.67-2.73c-6.08-4.55 0-7.28 0-7.28l10.3-5.46c4.86-3.64 0-6.83 0-6.83l-6.28-4.1c-4.26-3.19 0-5.92 0-5.92l10.3-5.01c4.86-3.18 0-7.28 0-7.28l-7.49-4.82c-5.47-3.46 0-7.01 0-7.01l10.9-8.65h-168l10.9 8.65s5.47 3.55 0 7.01l-7.49 4.82s-4.86 4.1 0 7.28l10.3 5.01s4.25 2.73 0 5.92l-6.28 4.1s-4.86 3.19 0 6.83l10.3 5.46s6.08 2.73 0 7.28l-5.67 2.73s-4.86 4.09-0.608 6.37l9.72 7.28 24.6 17.9h76.7" fill="#aaa7a9"/>
 <path d="m176 389 53.7 8.41s1.52-5.64 2.54-8.41zm10.9 15.7-7.49 4.82s-2.16 1.82-2.16 3.98c0 1.08 0.541 2.24 2.16 3.3l10.3 5.01s1.89 1.21 1.89 2.97c0 0.876-0.472 1.88-1.89 2.95l-6.28 4.09s-2.16 1.42-2.16 3.44c1e-3 1.01 0.542 2.17 2.16 3.39 0.672 0.349 23.6 3.52 50.6 7.14-2.45-4.23-4.14-8.82-5.23-13.5l-45.1-0.421 6.28-4.1c4.25-3.19 0-5.92 0-5.92l-10.3-5.01 47.7 5.47c-0.322-4.89-0.126-9.79 0.433-14.5 0.0407-0.317 0.0773-0.635 0.118-0.953zm8.18 45.7c-0.346 0.353-0.768 0.719-1.27 1.1 0.506-0.379 0.926-0.745 1.27-1.1zm-6.94 3.83s-2.35 1.98-2.35 3.95c-1e-3 0.864 0.45 1.73 1.74 2.42l9.72 7.28 24.6 17.9h76.7l3e-3 -2e-3 18.8-13.7a53.2 53.2 0 0 1-1.86 0.496c-5.1 1.24-10.4 1.76-15.6 1.76-6.74 0-13.5-0.862-20-2.2-12.2-2.52-24.9-6.58-34.7-13.7a41.2 41.2 0 0 1-3.51-2.9z" fill="#908e8f"/>
 <path d="m176 389 10.9 8.65s2.44 1.58 2.44 3.66c-1e-3 1.04-2.44 3.35-2.44 3.35l134 6.96zm3.7 27.9 10.3 5.01s4.25 2.73 0 5.91l-6.28 4.09 138 1.05zm3.8 21.8 10.3 5.45s2.69 1.22 2.69 3.38c-1e-3 1.08-0.669 2.39-2.69 3.9l-5.67 2.74 132 3.17z" fill="#636363"/>
 <path d="m93 143c-3.35 37.9 6.26 77.8 34 108 22.8 25 50.6 51.7 49.9 85.8 1.69 13.6-3.71 34.4 14.9 40.2 28 2.28 56.5 0.317 84.6 0.936 20.5-3.3 50.7 7.31 63.3-11.1 4.58-22-0.171-46.1 12.6-66.5 20-35.9 58.4-63.6 66.5-105 15-54.5-4.9-118-58.3-152-29.3-19.4-66-30.4-125-31.2s-137 58.9-142 131z" fill="#ffeb22"/>
 <ellipse cx="246" cy="145" rx="142" ry="124" fill="#ffff53"/>
 <path d="m117 56.5c-42.6 42.5-51 105-31.2 157 11.2 39.9 55.3 63.2 70.6 101 11.4 22.1-4.82 49.4 13.8 69.3 14.1 9.06 33.1 7.09 46.4 7.06 37.2 0.0488 76.9-0.0106 109 0v4e-3c28.4-1.36 31.8-27 29.6-46.4-3.44-32.7 21.8-59.1 42.4-83.8 26.8-28.7 39.4-65.8 39-103 2.7-58.6-38.6-115-98.2-141-25-11.3-52.8-16.8-93.2-16.3s-94.2 20.2-128 56.1zm284 35c24 41.4 23.6 92.7 1.27 134-18.7 32.1-53.8 56.9-62.2 93.4-5.2 15.6-0.378 31-4.74 46.1-3.24 11-28.8 8.77-52 8.87-23.3 0.0977-60.7 0.181-86.5-0.366-24.3-0.0374-17.8-23.5-18.5-37.2-0.179-34.8-27.6-62.3-51.7-87.5-30.6-33.7-39.1-79.9-30.7-122 19.4-56.6 59.1-96.4 135-108 80.2-9.06 147 28.7 170 72.3z" fill="#f9a72b"/>
 <path d="m270 104c-6.05 0.329-6.54 21.2-11.6 24.2-4.02 1.04-3.08-1.67-10.8-16.1-7.75-14.4-12.6 3-15.5 12.7-3.97 11.8-9.96-14.1-16.2-15.1-5.49-2.38-8.34 8.05-11 15.2-4.23 8.5-9.26-2.24-11.7-8.53-5.26-10-8.02-5.23-15.5 9.02-6.09 13-8.07-1.27-12.4-4.23 0.681 0.93-0.281-0.821 3.84 8.32 1.24 2.8 2.52 4.14 3.86 4.39 22.8 39.2 44.8 76.4 67.6 116 4.99 10.4 10.5 28-0.708 33-11.2 5.05-23.1 16.1-22.4 29.7-0.309 26.7 0.244 54.2-0.0488 78.8h7.35l0.0407 0.0159c-0.285-28.1-0.713-57.3-0.946-75-0.232-17.6 9.73-24.9 21.1-32 11.4-7.02 2.7-28.9-4.45-41.2-22.9-37.3-44.6-72.4-67.2-109 3.23 0.274 6.84-5.84 11.2-14.5 3.14-6.24 5.61-2.4 9.81 8.76 4.97 9.74 12.8 3.38 15.6-6.39 3.86-10 10.2 0.0403 12.5 7.47 5.15 10.6 10.5 11.5 15-2.96 3.01-13.1 7.1-13.2 12.8 3.53 5.55 22 11.6 10.1 15.5-4.47 4.21-17.3 9.5-6.3 11.7 3.16 3.62 11 11.9 9.37 15.1-1.42 4.83-14.9 7.64-13.9 12.9 0.461 6.16 14.7 14 2.18 17.8-7.75 4.64-11.4 9.43 8.46 14.4 11.7 1.42 1.01 2.58 1.37 3.56 1.3-22.6 37-44.7 73.3-67.5 110-7.16 12.3-15.8 34.2-4.45 41.2 11.4 7.02 21.3 14.3 21.1 32-0.232 17.6-0.659 46.9-0.946 75l0.0488-0.0159h7.35c-0.293-24.5 0.26-52.1-0.0488-78.8 0.65-13.6-11.2-24.7-22.4-29.7-11.2-5.05-5.69-22.6-0.707-33 22.7-39.4 45.1-77.9 67.9-117 4.35-0.701 4.94-10.6 8.04-13.3-5.67 4.46-3.69 10.8-9.15 10.3-6.76-2.4-8.97-24.8-17.6-16.2-4.16 4.59-8.45 20.5-14.2 10.5-3.1-10.5-8.88-24.5-15-10.4-2.26 4.11-5.32 14.8-9.43 13.4-5.16-3.46-6.72-24.1-13.4-23.1a2.82 2.82 0 0 0-0.604-0.0317zm-105 17.3c-0.0407-0.0326 0-0.024-0.0488-0.0635v0.0159c0 0.0122 0.0407 0.0346 0.057 0.0476z" fill="url(#a)"/>
 <path d="m209 36c-6.04 0.1-12.9 1.49-19.6 4.64-16.3 7.76-21.4 18.3-18 24.6 5.45 10.4 19.6-2.68 27.8-7.44 9.11-5.34 31.2-6.43 27.3-15.5v-0.0081c-1.68-3.86-8.68-6.47-17.5-6.32zm-51 29.9c-3.72-0.0814-8.46 1.14-13.3 6.87-6.39 7.65-4.23 15.3-0.317 16.1 3.91 0.794 11.6-1.06 18-8.71 6.39-7.65 2.79-13-1.12-13.8-0.976-0.199-2.1-0.37-3.34-0.398z" fill="#ffffff"/>
</svg>
