<?xml version="1.0" encoding="UTF-8"?>
<svg width="512" height="512" version="1.1" viewBox="0 0 512 512" xmlns="http://www.w3.org/2000/svg">
 <path d="m107 11c-3.3 0-5.98 2.68-5.98 5.98v17.9h-5.98c-3.3 0-5.98 2.68-5.98 5.98v41.8h47.8v-41.8c0-3.3-2.68-5.98-5.98-5.98h-5.98v-17.9c0-3.3-2.68-5.98-5.98-5.98zm95.6 0c-3.3 0-5.98 2.68-5.98 5.98v17.9h-5.98c-3.3 0-5.98 2.68-5.98 5.98v41.8h47.8v-41.8c0-3.3-2.68-5.98-5.98-5.98h-5.98v-17.9c0-3.3-2.68-5.98-5.98-5.98zm95.6 0c-3.3 0-5.98 2.68-5.98 5.98v17.9h-5.98c-3.3 0-5.98 2.68-5.98 5.98v41.8h47.8v-41.8c0-3.3-2.68-5.98-5.98-5.98h-5.98v-17.9c0-3.3-2.68-5.98-5.98-5.98zm95.6 0c-3.3 0-5.98 2.68-5.98 5.98v17.9h-5.98c-3.3 0-5.98 2.68-5.98 5.98v41.8h47.8v-41.8c0-3.3-2.68-5.98-5.98-5.98h-5.98v-17.9c0-3.3-2.68-5.98-5.98-5.98zm-305 419v41.8c0 3.3 2.68 5.98 5.98 5.98h5.98v17.9c0 3.3 2.68 5.98 5.98 5.98h12c3.3 0 5.98-2.68 5.98-5.98v-17.9h5.98c3.3 0 5.98-2.68 5.98-5.98v-41.8zm95.6 0v41.8c0 3.3 2.68 5.98 5.98 5.98h5.98v17.9c0 3.3 2.68 5.98 5.98 5.98h12c3.3 0 5.98-2.68 5.98-5.98v-17.9h5.98c3.3 0 5.98-2.68 5.98-5.98v-41.8zm95.6 0v41.8c0 3.3 2.68 5.98 5.98 5.98h5.98v17.9c0 3.3 2.68 5.98 5.98 5.98h12c3.3 0 5.98-2.68 5.98-5.98v-17.9h5.98c3.3 0 5.98-2.68 5.98-5.98v-41.8zm95.6 0v41.8c0 3.3 2.68 5.98 5.98 5.98h5.98v17.9c0 3.3 2.68 5.98 5.98 5.98h12c3.3 0 5.98-2.68 5.98-5.98v-17.9h5.98c3.3 0 5.98-2.68 5.98-5.98v-41.8z" fill="#808080"/>
 <path d="m463 431h-414c-26.4 0-47.8-21.4-47.8-47.8v-255c0-26.4 21.4-47.8 47.8-47.8h414c26.4 0 47.8 21.4 47.8 47.8v255c0 26.4-21.4 47.8-47.8 47.8z" fill="#1a1a1a"/>
 <path d="m387 80.4-338 0.087c-24 0.0062-47.7 17.7-47.7 50.4v254c0 24.9 21.9 46.3 44.3 46.3h82z" fill="#4d4d4d"/>
 <path d="m51.7 131s41.1-2.13 61.2 1.09c13.3 2.16 22.5 13.1 22.5 25.7 0 9.72-5.56 18.8-14.9 23.1 14.3 4.17 20.2 14.8 20.2 25.7 0 7.97-4.4 27.6-26.9 30.1-20.6 1.13-62.1 0.725-62.1 0.725zm21.4 17.7v24.6c27 0 41.5 1.96 41.4-12.5-0.0578-14.4-14.7-12.1-41.4-12.1zm0 42.3v28.4c31.4 0 45.4 1.45 45.4-13.9 0-15.8-16.2-14.5-45.4-14.5zm85.1 46.3v-106h21.4v106zm37.6-52.5c0-23.9 10.5-55.6 51.4-55.6 29.1 0 51.7 18.1 51.7 55.1 0 36.5-22 54.8-51.4 54.8-30.6 0-51.7-19.2-51.7-54.3zm22.1-0.725c0 30.9 18.9 36.7 29.5 36.7 7.4 0 29.3-2.88 29.3-36.9 0-11.9-3.18-36.3-29.3-36.3-26.6 0-29.5 25.4-29.5 36.6zm92.6 18.6 20.9-2.03c1.84 10.3 6.94 20.3 23.2 20.3 20.3 0 20.9-13.1 20.9-14.7-0.624-12.2-18.2-13.5-27.1-15.7-17.1-3.7-33.3-12.6-34-31.9 0-11.6 8.05-29.7 38.8-29.7 13.6 0 39.8 3.71 40.8 32.2l-21.4 0.944c-1.84-11-7.75-15.4-19.5-15.4-8.96 0-18.1 3-18.1 10.4 0 6.15 5.34 9.44 22.9 13.6 19.1 4.49 39.1 10.4 39.1 35.4 0 7.3-2.84 32.8-42.5 32.8-28.1 0-41.2-13.8-43.9-36.5z" fill="#b3b3b3"/>
 <path d="m137 273h21.9v58.6c0 20.9 1.47 32.7 21.9 32.7 21.4 0 20.7-15.7 20.7-31.5v-59.9h21.9v56.8c0 29.4-2.28 53.2-41.9 53.2-40.5 0-44.4-23.5-44.4-52.4zm110 108v-108h80.3v18.3h-58.4v24h54.3v18.3h-54.3v29.4h60.4v18.3zm101 0v-108h74.2v18.3h-52.4v25.6h45.2v18.3h-45.2v46zm91.4 0v-108h21.9v108z" fill="#b3b3b3"/>
 <circle cx="60.6" cy="376" r="22.5"/>
</svg>
