<?xml version="1.0" encoding="UTF-8"?>
<svg width="512" height="512" version="1.1" viewBox="0 0 512 512" xmlns="http://www.w3.org/2000/svg">
 <path d="m363 185c-1.12 1.12-3.1 31.6-3.42 32-1.15 1.47-8.6 0.764-26.5 11-1.31 0.769-2.42 1.19-2.69 1.04-0.842-0.481-25.2-20.6-25.6-20.4-3.43 1.37-27.1 24.7-25.3 26.8 6.34 8.6 14.2 16.1 20.3 24.9 0 2.43-4.34 2.04-11.7 27.6-0.239 0.718-30.8 3.06-32.3 4.15-2.54 1.9-1.79 33.9 0.346 36.5 0.798 1.03 29.8 2.92 31.6 3.46 0.231 0.0769 0.538 0.884 0.692 1.81 1.27 7.31 7.1 18.9 11.8 27.3 0 0.646-13.8 16.4-20.4 25.2 9.79 12.7 16.6 19 23.8 24.5 2.19 1.69 2.54 1.84 3.23 1.38 2.9-1.83 23.6-20 24.8-20 1.49 0 9.22 5.79 22 9.23 3.88 1.04 5.8 1.73 5.8 2.04 0 2.5 3.31 31.6 3.65 32.1 0.212 0.53 21.5 2.44 37.2-0.154 1.07-4.67 2.59-27.6 3.23-31.1 0.346-1.84 0.538-1.96 6.96-3.84 13.3-3.83 20.3-10.3 21.7-9.42 0.18 0.108 24.5 20.4 25.2 20.4 2.44 0 23.5-21.9 25.7-26.1 1.12-1.99-18.1-22.1-20.3-26-0.192-0.333 1.04-2.69 2.27-5.15 7.23-14.2 7.12-21.1 8.65-21.6 1.43-0.597 31.7-2.81 32.2-3.58 0.0455-0.0835 4.06-24.4-0.192-37.4-0.828-0.828-31.7-2.83-32.4-3.88-0.269-0.346-0.73-1.81-1.08-3.27-2.4-10.5-9.8-22.9-9.8-24 0-1.56 20.6-25.1 20-26.2-2.51-4.66-22-23.3-25.9-25.5-0.946-0.552-25.2 20.1-25.8 20.2-1.62 0-15-8.52-26.1-10.7-2.48-0.481-3.23-32.2-5-33.3-3.26-2.18-34.9-1.69-36.6 0zm15.9 173c-37.2-1.32-52.9-40.9-39.4-67.9 17.1-34.1 64.2-33.4 82.1-3.76 19.3 31.9-2.81 73.4-42.7 71.6z" style="fill:#f05262;stroke-width:6;stroke:#333"/>
 <path d="m147 42.9c-10.1 0.226-20.3 0.884-30.1 3.63-2.03 0.621-3.83 1.11-3.96 1.11-0.411 0-20.6-28.6-21.4-29.2-0.392-0.262-3.04 0.719-6.96 2.55-9.41 3.9-28.6 16.2-28.6 18.3 4.64 10.8 9.8 21.5 14.8 32.2-8.17 7.89-14.6 17.2-20.6 26.8-0.646 0-35.2-6.28-35.7-5.66-4.03 7.71-9.59 28.8-10.3 39.3-0.164 0.425 2.26 1.47 12.5 5.36 7.02 2.68 14 5.41 21 8.11 0 25.7 4.58 28.8 4.58 34.1 0 0.535-27.3 19.6-28.4 20.9-1.17 1.36 10.8 24.1 20.4 35.8l5.72-2.65c13.8-6.44 26.4-12.1 27-12.1 0.327 0 2.48 1.8 4.84 4.02 12.4 11.7 21.2 13.9 21.4 15.9 0.239 1.32-5.88 34.7-4.81 35.4 5.77 3.71 38.7 11.1 39.4 10.4 0.947-1.22 12.6-33.6 13-34 0.196-0.131 2.65-0.262 5.43-0.262 9.47 0.363 18.6-2.13 27.6-4.64 7.45 9.69 14.4 19.8 21.4 29.8 21-9.66 29.4-15.4 35.6-21.7l-2.55-5.72c-3.3-7.54-11.4-24.5-11.9-26.1 5.88-7.72 12.3-17.9 18.3-25.9 0.523-0.556-0.262-0.654 19.6 2.62 9.56 1.61 14.6 2.42 16.7 2.68 2.68-6.74 7.92-20.7 10.4-38.6 0.196-1.34 0.164-1.41-1.01-2-3.3-1.72-30.8-11.5-32-12.4-0.719-0.458-0.752-0.654-0.752-5.62 0-15-4.17-25.1-3.86-27 0.153-1.14 25.3-18.7 28.8-21.8 1.74-1.54-18.3-35.3-20.9-35.3-1.53 0-30.7 14.1-31.9 14.3-7.81-6.9-17-12.8-25.5-19.2-0.687-0.556-0.948 1.31 2.98-23.4 0.857-5.59 1.67-10.5 2-12.8-16.8-6.6-28.8-9.56-39.9-10.9-7.78 19.8-8.13 22.2-12.4 33.6zm4.2 156c-41.8 5.92-74.4-36.6-52.7-76.5 17.8-32.2 65.8-35.6 87.2-4.37 20.7 30.3 5.32 74-34.4 80.9z" style="fill:#ffd23c;stroke-width:6;stroke:#333"/>
 <path d="m118 321c-0.509 1.11 6.3 23.8 6.18 24.2-0.102 0.324-1.12 1.18-2.26 1.89-8.14 5.33-14.8 14.9-15.7 14.7-0.741-0.121-23.9-8.2-24.2-7.92-2.12 1.93-13 25.3-11.1 26.3 4.79 2.84 9.59 5.66 14.4 8.44 3.84 2.2 7.02 4.07 7.06 4.18 0.658 1.76-2.6 2.66-1.04 23.3 0.0193 0.587-21.5 10.6-22.3 11.8-1.33 2.07 7.87 25.1 10.1 26.4 0.858 0.53 22.4-5.95 23.9-6.04 0.628-0.02 5.21 8.49 15.1 16.3 0.92 0.675 1.74 1.33 1.79 1.47 0.175 0.469-5.57 15.7-7.98 23.8 17.1 10.6 26.2 12.1 26.6 11.5 1.61-2.11 11.7-20.9 12.6-21.2 1.08-0.403 8.27 1.71 18.4 0.762 3.1-0.297 4.69-0.315 4.77-0.0911 0.677 1.82 11 22.1 11.4 22.4 0.298 0.328 16.3-4.05 27-10.2-0.491-3.7-5.59-20.7-6.08-23.5-0.529-3.06 7.26-5.39 14.8-15.1 1.56-2.04 1.94-2.41 2.49-2.29 0.16 0.0298 23.3 8.18 23.8 7.98 1.78-0.661 11.1-22.2 11.6-25.9-8.13-6.81-21.3-12-21.8-13.4-0.308-0.827 1.46-12 0.536-19.2-0.264-2.16-0.259-2.83 0.153-3.18 0.879-0.821 22.3-10.6 22.4-11.3 0.49-3.41-8.31-26.4-10.3-27.1-0.826-0.378-23.8 6.52-24.6 5.96-0.289-0.179-1.02-1.12-1.67-2.08-4.59-6.99-13.3-14-13.6-14.8-0.422-1.13 8.18-23.8 7.43-24.5-3.08-2.7-22.3-11-25.7-11.5-0.837-0.145-12.8 21.4-13.2 21.7-1.17 0.437-13.2-2.12-21.8-0.737-1.93 0.323-11.1-22.5-12.6-22.8-2.59-0.61-25.8 8.1-26.6 9.9zm58.2 120c-26.3 8.45-50.4-14-47.4-38.2 2.42-24.6 30.6-43 55.7-27s21.2 55.8-8.34 65.2z" style="fill:#1fafeb;stroke-width:6;stroke:#333"/>
</svg>
