<?xml version="1.0" encoding="UTF-8"?>
<svg width="512" height="512" version="1.1" viewBox="0 0 512 512" xmlns="http://www.w3.org/2000/svg">
 <circle cx="256" cy="256" r="247" style="fill:#3f3f3f"/>
 <path d="m178 272 10.9-59.6c-42.5-16.5-103-9.82-143 7.02 11.5-52.6 43.9-110 87.8-138 40.1 16.5 86.8 54.4 105 95.6l60.1 10.4c15.7-42.1 11.4-101-5.27-141 53.1 11.4 108 42.3 137 86.7-16.6 39.7-54.3 86.8-95.2 105l-10.8 59.8c42 15.6 101 9.89 141-6.76-11.3 53.1-43.6 110-87.8 138-40-16.5-86.3-54.5-105-95.6l-60.4-11.7c-16.1 42.3-11.2 102 5.49 142-52.6-11.5-107-43.6-136-87.6 16.6-40.2 54-86.4 95.4-105z" style="fill:#e6e6e6"/>
 <path d="m256 1c49.8 0 97.5 14.2 138 40.7h68.4c4.19 0 7.6 3.4 7.6 7.59v68.4c26.5 40.9 40.7 88.5 40.7 138 0 49.8-14.2 97.5-40.7 138v68.4c0 4.19-3.4 7.6-7.6 7.6h-68.4c-40.9 26.5-88.5 40.7-138 40.7s-97.5-14.2-138-40.7h-68.4c-4.19 0-7.6-3.4-7.6-7.6v-68.4c-26.5-40.9-40.7-88.5-40.7-138 0-49.8 14.2-97.5 40.7-138v-68.4c0-4.19 3.4-7.59 7.6-7.59h68.4c40.9-26.5 88.5-40.7 138-40.7zm2e-3 15.2c-132 0-240 108-240 240s108 240 240 240 240-108 240-240-108-240-240-240zm-188 34.2c-9.47 9.2e-4 -17.1 7.68-17.1 17.1-1.59e-4 9.47 7.68 17.1 17.1 17.1 9.47 1.58e-4 17.1-7.68 17.1-17.1-9.16e-4 -9.47-7.68-17.1-17.1-17.1zm376 0.202c-9.47-1.57e-4 -17.1 7.68-17.1 17.1 9.2e-4 9.47 7.68 17.1 17.1 17.1 9.47 1.56e-4 17.1-7.68 17.1-17.1 1.5e-4 -9.47-7.68-17.1-17.1-17.1zm0.0354 376c-9.47-1.6e-4 -17.1 7.68-17.1 17.1-1.6e-4 9.47 7.68 17.1 17.1 17.1 9.47 1.6e-4 17.1-7.68 17.1-17.1 1.6e-4 -9.47-7.68-17.1-17.1-17.1zm-375 0.076c-9.47-1.6e-4 -17.1 7.68-17.1 17.1-1.6e-4 9.47 7.68 17.1 17.1 17.1 9.47 1.6e-4 17.1-7.68 17.1-17.1 1.5e-4 -9.47-7.68-17.1-17.1-17.1z"/>
 <circle cx="256" cy="256" r="72.8" style="fill:#808080"/>
 <path d="m100 100c41.7-41.7 97-64.6 156-64.6 58.9 0 114 22.9 156 64.6 41.7 41.7 64.6 97 64.6 156 0 58.9-22.9 114-64.6 156-41.7 41.7-97 64.6-156 64.6s-114-22.9-156-64.6c-41.7-41.7-64.6-97-64.6-156 0-58.9 22.9-114 64.6-156zm-43.4 106c42.4-17.9 91.1-18.1 136-0.36 9.83-12.6 23.3-22.2 38.8-27.2-19.7-42.7-54.6-74.5-97.1-88.4-38 28-66.1 68.8-77.8 116zm200 115c36.3 0 65.8-29.5 65.8-65.8s-29.5-65.8-65.8-65.8-65.8 29.5-65.8 65.8 29.5 65.8 65.8 65.8zm-107-242c19.4 7.9 37.6 19.5 53.2 34.1 18.2 17 33.1 38.1 43.4 61.3 3.25-0.397 6.55-0.627 9.9-0.627 13 0 25.4 3.12 36.3 8.61 16-44 13.7-91-6.49-131-9.94-1.48-20.1-2.26-30.5-2.26-38.7 2e-3 -75 10.8-106 29.5zm155-23.6c8.16 19.3 12.8 40.4 13.6 61.9 0.863 24.6-3.41 49.9-12.4 73.4 12.9 9.97 22.8 23.7 27.8 39.6 42.3-19.7 74-54.3 88-96.4-28.1-38.5-69.3-66.9-117-78.6zm127 94.2c-17.3 42.1-51.1 76.4-95.1 95.9 0.35 3.05 0.549 6.14 0.549 9.29 0 13.2-3.19 25.6-8.8 36.6 43.9 15.8 90.8 13.4 130-6.7 1.43-9.78 2.19-19.8 2.19-29.9-1e-3 -38.4-10.6-74.4-29.1-105zm23.3 154c-19.3 8.17-40.4 12.8-61.8 13.6-2.15 0.0767-4.3 0.117-6.46 0.117-22.5 0-45.4-4.23-66.8-12.3-10.1 12.9-24 22.7-40 27.7 19.8 42.5 54.6 74.2 96.9 88 38.3-28.2 66.5-69.4 78.1-117zm-93.7 128c-19.5-7.94-37.7-19.6-53.4-34.3-18-16.9-32.9-37.9-43.1-61-2.85 0.305-5.74 0.47-8.67 0.47-13.7 0-26.5-3.41-37.8-9.4-16.2 44.1-14.1 91.5 6.16 131 10.1 1.54 20.5 2.34 31 2.34 38.7 0 75-10.8 106-29.5zm-155 23.4c-17.9-42.3-18.3-91-0.689-136-12.3-9.94-21.6-23.4-26.5-38.8-42.8 19.7-74.8 54.7-88.8 97.3 28 38 68.8 66.1 116 77.8zm-126-93.4c17.3-42.7 51.5-77.4 96-96.9-0.329-2.96-0.512-5.96-0.512-9.01 0-13.2 3.21-25.7 8.85-36.8-43.8-16.4-91.1-14.6-131 5.42-0.2 0.101-0.405 0.181-0.61 0.262-1.54 10.1-2.35 20.5-2.35 31.1-9.96e-4 38.7 10.8 74.9 29.5 106z"/>
</svg>
