<?xml version="1.0" encoding="UTF-8"?>
<svg width="512" height="512" version="1.1" viewBox="0 0 512 512" xmlns="http://www.w3.org/2000/svg">
 <defs>
  <linearGradient id="a" x1="313" x2="199" y1="44.6" y2="159" gradientUnits="userSpaceOnUse">
   <stop style="stop-color:#ccc" offset="0"/>
   <stop style="stop-color:#fff" offset=".5"/>
   <stop style="stop-color:#ccc" offset="1"/>
  </linearGradient>
 </defs>
 <path d="m258 358v-52.9h177v52.9m-177-107v54.1h-180v52.9" style="fill:none;stroke-width:20;stroke:#cc3434"/>
 <path d="m276 353 41.9 42.6v97c0 10.3-8.29 18.6-18.6 18.6h-85.9c-10.3 0-18.6-8.29-18.6-18.6v-121c0-10.3 8.29-18.6 18.6-18.6z" fill="#bfc8d6"/>
 <path d="m317 462v29.7c0 10.3-8.29 18.6-18.6 18.6h-85.9c-10.3 0-18.6-8.29-18.6-18.6v-29.7z" fill="#fcc10a"/>
 <path d="m318 395-23.3-0.159c-10.3-0.0704-18.6-8.29-18.6-18.6l-0.0241-23.5z" fill="#7a859f"/>
 <path d="m357 235c0 11.7-9.48 21.2-21.2 21.2h-159c-11.7 0-21.2-9.48-21.2-21.2v-202c0-11.7 9.48-21.2 21.2-21.2h159c11.7 0 21.2 9.48 21.2 21.2z" fill="#1a1a1a"/>
 <path d="m357 224c0 11.7-9.48 21.2-21.2 21.2h-159c-11.7 0-21.2-9.48-21.2-21.2v-202c0-11.7 9.48-21.2 21.2-21.2h159c11.7 0 21.2 9.48 21.2 21.2z" fill="#4d4d4d"/>
 <path d="m165 162v53.9c0 15 4.88 21.2 21.2 21.2h79.3v-32.4c-47.9 1.57-73.4-17-93.3-42.7z" fill="#b3b3b3"/>
 <path d="m256 188c-23.2 0-45-9.03-61.4-25.5-16.4-16.4-25.5-38.2-25.5-61.4s9.03-45 25.5-61.4c16.4-16.4 38.2-25.5 61.4-25.5s45 9.03 61.4 25.5c16.4 16.4 25.5 38.2 25.5 61.4s-9.03 45-25.5 61.4c-16.4 16.4-38.2 25.5-61.4 25.5z" fill="url(#a)"/>
 <path d="m256 8c-51.4 0-92.8 41.7-92.8 92.8 0 51.4 41.7 93.3 92.8 93.3s92.8-41.7 92.8-93.3c0-51.4-41.7-92.8-92.8-92.8zm56.9 150c-7.39 7.39-16 13.2-25.6 17.3-9.93 4.2-20.5 6.34-31.4 6.34s-21.5-2.13-31.4-6.34c-9.63-4.07-18.2-9.88-25.6-17.3-7.44-7.39-13.2-16-17.3-25.6-4.2-9.93-6.34-20.5-6.34-31.4s2.14-21.5 6.34-31.4c4.06-9.58 9.88-18.2 17.3-25.6 7.39-7.44 16-13.2 25.6-17.3 9.93-4.2 20.5-6.34 31.4-6.34s21.5 2.13 31.4 6.34c9.63 4.06 18.2 9.88 25.6 17.3 7.44 7.44 13.2 16 17.3 25.6 4.2 9.93 6.34 20.5 6.34 31.4s-2.14 21.5-6.34 31.4c-4.06 9.58-9.88 18.2-17.3 25.6z" fill="#cad2db"/>
 <path d="m256 70.1c-17.1 0-31 13.9-31 31s13.9 31 31 31 31-13.9 31-31-13.9-31-31-31zm0 49.7c-10.3 0-18.6-8.33-18.6-18.6 0-10.3 8.33-18.6 18.6-18.6 10.3 0 18.6 8.33 18.6 18.6 0 10.3-8.33 18.6-18.6 18.6z" fill="#cad0db"/>
 <path d="m213 218 63.9-61.9c1.57-1.43 0.286-3.98 1.74-5.19 0 0 5.99-5.04 8.93-7.49 1.41-1.2-0.594-3.63-2.07-2.61-3.19 2.19-9.48 6.94-9.48 6.94-1.43 1.01-3.69-1.21-5.54-0.0201l-76.4 45.1c-4.28 2.35-7.44 6.64-8.13 11.8-1.18 8.73 4.93 16.7 13.6 17.9 5.19 0.704 10.1-1.19 13.6-4.69z" fill="#333"/>
 <circle cx="202" cy="207" r="6.49" fill="#999"/>
 <circle cx="280" cy="102" r="3.33" fill="#808080"/>
 <circle cx="231" cy="100" r="3.33" fill="#808080"/>
 <circle cx="269" cy="80.1" r="3.33" fill="#808080"/>
 <circle cx="243" cy="122" r="3.33" fill="#808080"/>
 <circle cx="267" cy="123" r="3.33" fill="#808080"/>
 <circle cx="244" cy="79.6" r="3.33" fill="#808080"/>
 <circle cx="256" cy="101" r="6.49" fill="#808080"/>
 <circle cx="176" cy="30.9" r="6.49" fill="#999"/>
 <circle cx="335" cy="30.9" r="6.49" fill="#999"/>
 <circle cx="335" cy="232" r="6.49" fill="#999"/>
 <path d="m97.9 352 41.9 42.6v97c0 10.3-8.29 18.6-18.6 18.6h-85.9c-10.3 0-18.6-8.29-18.6-18.6v-121c0-10.3 8.29-18.6 18.6-18.6z" fill="#bfc8d6"/>
 <path d="m140 462v29.7c0 10.3-8.29 18.6-18.6 18.6h-85.9c-10.3 0-18.6-8.29-18.6-18.6v-29.7z" fill="#fcc10a"/>
 <path d="m140 394-23.3-0.159c-10.3-0.0704-18.6-8.29-18.6-18.6l-0.0242-23.5z" fill="#7a859f"/>
 <path d="m454 352 41.9 42.6v97c0 10.3-8.29 18.6-18.6 18.6h-85.9c-10.3 0-18.6-8.29-18.6-18.6v-121c0-10.3 8.29-18.6 18.6-18.6z" fill="#bfc8d6"/>
 <path d="m495 462v29.7c0 10.3-8.29 18.6-18.6 18.6h-85.9c-10.3 0-18.6-8.29-18.6-18.6v-29.7z" fill="#fcc10a"/>
 <path d="m496 394-23.3-0.159c-10.3-0.0704-18.6-8.29-18.6-18.6l-0.0242-23.5z" fill="#7a859f"/>
 <path d="m388 500v-26.7h3.63l14 21v-21h3.39v26.7h-3.63l-14-21v21zm33.8 0v-23.6h-8.8v-3.15h21.2v3.15h-8.84v23.6zm16.2 0v-26.7h18v3.15h-14.5v8.28h12.5v3.15h-12.5v12.1zm19.8-8.59 3.34-0.292c0.317 2.68 1.89 6.16 7.89 6.16 7.21 0 8.98-6.23 3.5-8.31-2.14-0.835-7.51-1.69-9.92-2.97-5.71-2.99-4.65-10.1 0.711-12.3 5.19-2.14 14.6-0.875 14.9 7.07l-3.39 0.255c-0.747-6.92-9.39-5.38-11.2-3.94-2.01 1.6-1.77 3.98-0.419 5.2 1.67 1.52 8.22 2.23 11.2 3.61 7.89 3.64 5.29 14.5-5.32 14.5-10.2 0-11.3-6.68-11.4-9.04zm-246 8.03v-26.7h19.3v3.15h-15.8v8.18h14.8v3.14h-14.8v9.1h16.4v3.15zm22.1 0 10.3-13.9-9.11-12.8h4.21l7 10.1 7.49-10.1h3.85l-9.39 12.6 10.1 14.1h-4.37l-7.89-11.3-7.98 11.3zm34.4 0v-23.6h-8.8v-3.15h21.2v3.15h-8.84v23.6zm25.2 0v-6.4h-11.6v-3.01l12.2-17.3h2.68v17.3h3.61v3.01h-3.61v6.4zm0-9.41v-12l-8.37 12zm-246 9.96v-26.7h18v3.15h-14.5v8.28h12.5v3.15h-12.5v12.1zm17.6 0 10.3-26.7h3.81l10.9 26.7h-4.03l-3.12-8.09h-11.2l-2.93 8.09zm7.71-11h9.06l-4.68-12.9zm24.2 11v-23.6h-8.8v-3.15h21.2v3.15h-8.84v23.6z"/>
</svg>
