<?xml version="1.0" encoding="UTF-8"?>
<svg width="512" height="512" version="1.1" viewBox="0 0 512 512" xmlns="http://www.w3.org/2000/svg">
 <path d="m85.1 10.7c-3.69 0-6.69 2.68-6.69 5.98v17.9h-6.69c-3.69 0-6.69 2.68-6.69 5.98v41.8h61.5v-41.8c0-3.3-3-5.98-6.69-5.98h-6.69v-17.9c0-3.3-3-5.98-6.69-5.98zm107 0c-3.69 0-6.69 2.68-6.69 5.98v17.9h-6.69c-3.69 0-6.69 2.68-6.69 5.98v41.8h61.5v-41.8c0-3.3-3-5.98-6.69-5.98h-6.69v-17.9c0-3.3-3-5.98-6.69-5.98zm107 0c-3.69 0-6.69 2.68-6.69 5.98v17.9h-6.69c-3.69 0-6.69 2.68-6.69 5.98v41.8h61.5v-41.8c0-3.3-3-5.98-6.69-5.98h-6.69v-17.9c0-3.3-3-5.98-6.69-5.98zm107 0c-3.69 0-6.69 2.68-6.69 5.98v17.9h-6.69c-3.69 0-6.69 2.68-6.69 5.98v41.8h61.5v-41.8c0-3.3-3-5.98-6.69-5.98h-6.69v-17.9c0-3.3-3-5.98-6.69-5.98zm-341 419v41.8c0 3.3 3 5.98 6.69 5.98h6.69v17.9c0 3.3 3 5.98 6.69 5.98h21.4c3.69 0 6.69-2.68 6.69-5.98v-17.9h6.69c3.69 0 6.69-2.68 6.69-5.98v-41.8zm107 0v41.8c0 3.3 3 5.98 6.69 5.98h6.69v17.9c0 3.3 3 5.98 6.69 5.98h21.4c3.69 0 6.69-2.68 6.69-5.98v-17.9h6.69c3.69 0 6.69-2.68 6.69-5.98v-41.8zm107 0v41.8c0 3.3 3 5.98 6.69 5.98h6.69v17.9c0 3.3 3 5.98 6.69 5.98h21.4c3.69 0 6.69-2.68 6.69-5.98v-17.9h6.69c3.69 0 6.69-2.68 6.69-5.98v-41.8zm107 0v41.8c0 3.3 3 5.98 6.69 5.98h6.69v17.9c0 3.3 3 5.98 6.69 5.98h21.4c3.69 0 6.69-2.68 6.69-5.98v-17.9h6.69c3.69 0 6.69-2.68 6.69-5.98v-41.8z" fill="#808080"/>
 <path d="m463 431h-414c-26.4 0-47.8-21.4-47.8-47.8v-255c0-26.4 21.4-47.8 47.8-47.8h414c26.4 0 47.8 21.4 47.8 47.8v255c0 26.4-21.4 47.8-47.8 47.8z" fill="#1a1a1a"/>
 <path d="m68.2 250v-84.9h58.2v14.4h-41.1v20.1h35.5v14.4h-35.5v36.1zm68.8 0v-84.9h17.1v70.6h42.6v14.3zm155 0h-18.7l-7.41-19.3h-33.9l-7.01 19.3h-18.2l33.1-84.9h18.1zm-31.6-33.6-11.7-31.5-11.5 31.5zm36.3 5.97 16.7-1.62c1.47 8.2 5.55 16.3 18.5 16.3 16.2 0 16.7-10.5 16.7-11.7-1.18-17.7-47.6-5.74-48.8-38 0-9.33 6.43-22.2 31-22.2 9.25 0 24.9-0.497 31 22l-15.7 2.67c-1.47-8.76-5.7-12.7-15.1-12.7-7.16 0-14.7 4.3-14.6 10.2 0.226 20.3 49.7 5.17 49.4 38-0.0401 5.83-2.27 24.7-34 24.7-22.5 0-32.9-9.57-35-27.6zm79.5 27.6v-84.9h17.1v33.4h33.6v-33.4h17.1v84.9h-17.1v-37.1h-33.6v37.1z" fill="#b3b3b3"/>
 <circle cx="95.7" cy="342" r="32" fill="#008080"/>
</svg>
