<?xml version="1.0" encoding="UTF-8"?>
<svg width="512" height="512" version="1.1" viewBox="0 0 512 512" xmlns="http://www.w3.org/2000/svg">
 <path d="m87.1 10.7c-3.69 0-6.69 2.68-6.69 5.98v17.9h-6.69c-3.69 0-6.69 2.68-6.69 5.98v41.8h57.5v-41.8c0-3.3-3-5.98-6.69-5.98h-6.69v-17.9c0-3.3-3-5.98-6.69-5.98zm107 0c-3.69 0-6.69 2.68-6.69 5.98v17.9h-6.69c-3.69 0-6.69 2.68-6.69 5.98v41.8h57.5v-41.8c0-3.3-3-5.98-6.69-5.98h-6.69v-17.9c0-3.3-3-5.98-6.69-5.98zm107 0c-3.69 0-6.69 2.68-6.69 5.98v17.9h-6.69c-3.69 0-6.69 2.68-6.69 5.98v41.8h57.5v-41.8c0-3.3-3-5.98-6.69-5.98h-6.69v-17.9c0-3.3-3-5.98-6.69-5.98zm107 0c-3.69 0-6.69 2.68-6.69 5.98v17.9h-6.69c-3.69 0-6.69 2.68-6.69 5.98v41.8h57.5v-41.8c0-3.3-3-5.98-6.69-5.98h-6.69v-17.9c0-3.3-3-5.98-6.69-5.98zm-341 419v41.8c0 3.3 3 5.98 6.69 5.98h6.69v17.9c0 3.3 3 5.98 6.69 5.98h17.4c3.69 0 6.69-2.68 6.69-5.98v-17.9h6.69c3.69 0 6.69-2.68 6.69-5.98v-41.8zm107 0v41.8c0 3.3 3 5.98 6.69 5.98h6.69v17.9c0 3.3 3 5.98 6.69 5.98h17.4c3.69 0 6.69-2.68 6.69-5.98v-17.9h6.69c3.69 0 6.69-2.68 6.69-5.98v-41.8zm107 0v41.8c0 3.3 3 5.98 6.69 5.98h6.69v17.9c0 3.3 3 5.98 6.69 5.98h17.4c3.69 0 6.69-2.68 6.69-5.98v-17.9h6.69c3.69 0 6.69-2.68 6.69-5.98v-41.8zm107 0v41.8c0 3.3 3 5.98 6.69 5.98h6.69v17.9c0 3.3 3 5.98 6.69 5.98h17.4c3.69 0 6.69-2.68 6.69-5.98v-17.9h6.69c3.69 0 6.69-2.68 6.69-5.98v-41.8z" fill="#808080"/>
 <path d="m463 431h-414c-26.4 0-47.8-21.4-47.8-47.8v-255c0-26.4 21.4-47.8 47.8-47.8h414c26.4 0 47.8 21.4 47.8 47.8v255c0 26.4-21.4 47.8-47.8 47.8z" fill="#1a1a1a"/>
 <path d="m71.1 156s31.3-1.62 46.6 0.83c10.1 1.64 17.1 9.97 17.1 19.6 0 7.4-4.23 14.3-11.3 17.6 10.9 3.17 15.4 11.3 15.4 19.6 0 6.07-3.35 21-20.5 22.9-15.7 0.86-47.3 0.552-47.3 0.552zm16.3 13.5v18.7c20.6 0 31.6 1.49 31.5-9.51-0.044-11-11.2-9.21-31.5-9.21zm0 32.2v21.6c23.9 0 34.6 1.1 34.6-10.6 0-12-12.3-11-34.6-11zm64.8 35.2v-80.7h16.3v80.7zm28.6-40c0-18.2 7.99-42.3 39.1-42.3 22.2 0 39.4 13.8 39.4 41.9 0 27.8-16.7 41.7-39.1 41.7-23.3 0-39.4-14.6-39.4-41.3zm16.8-0.552c0 23.5 14.4 27.9 22.5 27.9 5.63 0 22.3-2.19 22.3-28.1 0-9.06-2.42-27.6-22.3-27.6-20.2 0-22.5 19.3-22.5 27.9zm70.5 14.2 15.9-1.55c1.4 7.84 5.28 15.5 17.7 15.5 15.5 0 15.9-9.97 15.9-11.2-0.475-9.29-13.9-10.3-20.6-12-13-2.82-25.3-9.59-25.9-24.3 0-8.83 6.13-22.6 29.5-22.6 10.4 0 30.3 2.82 31.1 24.5l-16.3 0.719c-1.4-8.37-5.9-11.7-14.8-11.7-6.82 0-13.8 2.28-13.8 7.92 0 4.68 4.06 7.19 17.4 10.4 14.5 3.42 29.8 7.92 29.8 26.9 0 5.56-2.16 25-32.4 25-21.4 0-31.4-10.5-33.4-27.8z" fill="#b3b3b3"/>
 <path d="m194 274h16.7v44.6c0 15.9 1.12 24.9 16.7 24.9 16.3 0 15.8-12 15.8-24v-45.6h16.7v43.2c0 22.4-1.74 40.5-31.9 40.5-30.8 0-33.8-17.9-33.8-39.9zm83.7 82.2v-82.2h61.1v13.9h-44.5v18.3h41.3v13.9h-41.3v22.4h46v13.9zm76.9 0v-82.2h56.5v13.9h-39.9v19.5h34.4v13.9h-34.4v35zm69.6 0v-82.2h16.7v82.2z" fill="#b3b3b3"/>
 <circle cx="87.1" cy="345" r="32" fill="#008080"/>
</svg>
