/* XPM */
static char * gen_connector_xpm[] = {
"16 16 27 1",
" 	c None",
".	c #000000",
"+	c #F0F0F0",
"@	c #FFFFFF",
"#	c #EEEEEE",
"$	c #EBEBEB",
"%	c #E4E4E4",
"&	c #C5C5C5",
"*	c #C9C9C9",
"=	c #D2D2D2",
"-	c #BABABA",
";	c #A1A1A1",
">	c #F7F7F7",
",	c #EDEDED",
"'	c #B8B8B8",
")	c #8C8C8C",
"!	c #989898",
"~	c #ADADAD",
"{	c #7B7B7B",
"]	c #BDBDBD",
"^	c #D0D0D0",
"/	c #CECECE",
"(	c #DBDBDB",
"_	c #DFDFDF",
":	c #464646",
"<	c #DDDDDD",
"[	c #7E7E7E",
"                ",
"   ...........  ",
"   .+@#$%%%%&.  ",
" . .*@=*----;. .",
"  ............. ",
"  .>,,,,,,,,,'. ",
"  .,)!!!!!!!~{. ",
"  .,;-------*{. ",
"  .,]^^^^^^/({. ",
"  ._{{{{{{{{{:. ",
"   ...{{{{{...  ",
"      .<-[.     ",
"      ..-..     ",
"       .-.      ",
"       .-.      ",
"       .-.      "};
