<?xml version="1.0" encoding="iso-8859-1"?>
<!-- Uploaded to: SVG Repo, www.svgrepo.com, Generator: SVG Repo Mixer Tools -->
<svg version="1.1" id="Capa_1" xmlns="http://www.w3.org/2000/svg" xmlns:xlink="http://www.w3.org/1999/xlink" 
	 viewBox="0 0 59 59" xml:space="preserve">
<rect x="4" y="12.5" style="fill:#38454F;" width="55" height="32"/>
<circle style="fill:#546A79;" cx="7" cy="15.5" r="1"/>
<circle style="fill:#546A79;" cx="7" cy="41.5" r="1"/>
<circle style="fill:#546A79;" cx="56" cy="15.5" r="1"/>
<circle style="fill:#546A79;" cx="56" cy="41.5" r="1"/>
<rect y="27.5" style="fill:#839594;" width="3" height="13"/>
<path style="fill:#F3CC6D;" d="M3,26.5H1c-0.553,0-1-0.447-1-1s0.447-1,1-1h2c0.553,0,1,0.447,1,1S3.553,26.5,3,26.5z"/>
<path style="fill:#F3CC6D;" d="M3,43.5H1c-0.553,0-1-0.447-1-1s0.447-1,1-1h2c0.553,0,1,0.447,1,1S3.553,43.5,3,43.5z"/>
<rect y="15.5" style="fill:#839594;" width="3" height="4"/>
<g>
	<rect x="12" y="44.5" style="fill:#28812F;" width="24" height="4"/>
</g>
<path style="fill:#6C797A;" d="M24.389,38.655c-1.76-2.032-2.974-4.996-3.295-8.376c-0.003-0.025-0.005-0.05-0.008-0.075
	C21.035,29.645,21,29.079,21,28.5s0.035-1.145,0.086-1.704c0.003-0.025,0.005-0.05,0.008-0.075c0.321-3.38,1.535-6.344,3.295-8.376
	c0.781-1.046,1.67-2.005,2.667-2.845H17c-4.971,0-9,5.82-9,13s4.029,13,9,13h10.057C26.059,40.66,25.171,39.7,24.389,38.655z"/>
<path style="fill:#283238;" d="M34.846,41.5C29.534,39.394,26,34.23,26,28.5s3.534-10.894,8.846-13h10.309
	C50.466,17.606,54,22.77,54,28.5s-3.534,10.894-8.846,13H34.846z"/>
<circle style="fill:#CBD4D8;" cx="40" cy="28.5" r="3"/>
<path style="fill:#546A79;" d="M49.903,29.739c0.119-0.499-0.359-0.91-0.848-0.753c-1.66,0.535-4.09,0.448-6.093-0.863
	C42.978,28.248,43,28.371,43,28.5c0,1.304-0.837,2.403-2,2.816c0,0,3.823,2.809,7,3.184C48.896,33.459,49.557,31.183,49.903,29.739z
	"/>
<path style="fill:#546A79;" d="M30.019,27.261c-0.119,0.499,0.359,0.91,0.848,0.753c1.66-0.535,4.09-0.448,6.093,0.863
	c-0.016-0.125-0.038-0.248-0.038-0.376c0-1.304,0.837-2.403,2-2.816c0,0-3.823-2.809-7-3.184
	C31.025,23.541,30.364,25.817,30.019,27.261z"/>
<path style="fill:#546A79;" d="M34.343,36.796c0.391,0.333,0.974,0.093,1.056-0.414c0.277-1.722,1.457-3.848,3.535-5.037
	c-0.118-0.043-0.238-0.079-0.353-0.137c-1.162-0.592-1.761-1.837-1.601-3.061c0,0-4.238,2.131-6.015,4.792
	C31.485,34.21,33.213,35.833,34.343,36.796z"/>
<path style="fill:#546A79;" d="M45.578,20.204c-0.391-0.333-0.974-0.093-1.056,0.414c-0.277,1.722-1.457,3.848-3.535,5.037
	c0.118,0.043,0.238,0.079,0.353,0.137c1.162,0.592,1.761,1.837,1.601,3.061c0,0,4.238-2.131,6.015-4.792
	C48.436,22.79,46.708,21.167,45.578,20.204z"/>
<path style="fill:#546A79;" d="M44.179,37.588c0.487-0.163,0.582-0.787,0.189-1.118c-1.334-1.124-2.548-3.231-2.497-5.624
	c-0.097,0.079-0.19,0.163-0.299,0.232c-1.106,0.691-2.482,0.563-3.448-0.204c0,0-0.356,4.73,1.009,7.623
	C40.49,38.706,42.771,38.06,44.179,37.588z"/>
<path style="fill:#546A79;" d="M35.743,19.412c-0.487,0.163-0.582,0.787-0.189,1.118c1.334,1.124,2.548,3.231,2.497,5.624
	c0.097-0.079,0.19-0.163,0.299-0.232c1.106-0.691,2.482-0.563,3.448,0.204c0,0,0.356-4.73-1.009-7.623
	C39.431,18.294,37.151,18.94,35.743,19.412z"/>
<g>
	<rect x="14" y="46.5" style="fill:#F3CC6D;" width="2" height="2"/>
	<rect x="17" y="46.5" style="fill:#F3CC6D;" width="2" height="2"/>
	<rect x="20" y="46.5" style="fill:#F3CC6D;" width="2" height="2"/>
	<rect x="23" y="46.5" style="fill:#F3CC6D;" width="2" height="2"/>
	<rect x="26" y="46.5" style="fill:#F3CC6D;" width="2" height="2"/>
	<rect x="29" y="46.5" style="fill:#F3CC6D;" width="2" height="2"/>
	<rect x="32" y="46.5" style="fill:#F3CC6D;" width="2" height="2"/>
</g>
<path style="fill:#CBD4D8;" d="M4,7.5H1c-0.553,0-1,0.447-1,1s0.447,1,1,1h2v41c0,0.553,0.447,1,1,1s1-0.447,1-1v-42
	C5,7.947,4.553,7.5,4,7.5z"/>
</svg>