<?xml version="1.0" encoding="UTF-8"?>
<svg width="512" height="512" version="1.1" viewBox="0 0 512 512" xmlns="http://www.w3.org/2000/svg">
 <path d="m411 368v31.6h26.6v13l-5.82 7.01h-48.2v-14.2c0-18.7-24.8-20-24.8-0.176v29.3h-161v-31c0-14.3-18.9-14.6-18.9-0.176v31.2h-72v-66.5z" fill="#28812f"/>
 <path d="m158 396c12.2 0 9.48 0.358 9.92 38h-19.8c0.426-37.6-2.03-38 9.92-38zm-29.8 0c12.2 0 9.47 0.358 9.92 38h-19.8c0.426-37.6-2.03-38 9.92-38zm210 0.075c12.2 0 9.48 0.358 9.92 38h-19.8c0.426-37.6-2.03-38 9.92-38zm-29.8 0c12.2 0 9.48 0.358 9.92 38h-19.8c0.426-37.6-2.03-38 9.92-38zm-29.8 0c12.2 0 9.48 0.358 9.92 38h-19.8c0.426-37.6-2.03-38 9.92-38zm-29.8 0c12.2 0 9.48 0.358 9.92 38h-19.8c0.426-37.6-2.03-38 9.92-38zm-29.8 0c12.2 0 9.47 0.358 9.92 38h-19.8c0.426-37.6-2.03-38 9.92-38z" fill="#ffce54"/>
 <rect x="35.6" y="109" width="475" height="277" fill="#38454f"/>
 <circle cx="61.5" cy="135" r="8.64" fill="#546a79"/>
 <circle cx="61.5" cy="360" r="8.64" fill="#546a79"/>
 <circle cx="485" cy="135" r="8.64" fill="#546a79"/>
 <circle cx="485" cy="360" r="8.64" fill="#546a79"/>
 <rect x="1" y="239" width="25.9" height="112" fill="#999"/>
 <path d="m9.64 213c-11.3 0-11.3 17.3 0 17.3h17.3c11.3 0 11.3-17.3 0-17.3zm0 147c-11.3 0-11.3 17.3 0 17.3h17.3c11.3 0 11.3-17.3 0-17.3z" fill="#f3cc6d"/>
 <rect x="1" y="135" width="25.9" height="34.6" fill="#999"/>
 <path d="m182 247c0-28.8 8.06-75.1 52.4-112h-86.9c-43 0-77.8 50.3-77.8 112 0 62.1 34.8 112 77.8 112h86.9c-44.4-37.4-52.4-83.8-52.4-112z" fill="#6c797a"/>
 <path d="m96.2 148c-3.95 4.01-7.64 8.44-11.1 13.2h137c3.02-4.42 6.36-8.84 10.1-13.2zm-19.4 26.6c-2.29 4.22-4.4 8.62-6.29 13.2h138c1.84-4.37 4-8.78 6.39-13.2zm-10.9 26.6c-1.3 4.29-2.43 8.7-3.37 13.2h137c0.942-4.3 2.14-8.71 3.55-13.2zm-5.46 26.6c-0.533 4.33-0.906 8.74-1.1 13.2h137c0.19-4.17 0.549-8.58 1.15-13.2zm-1.09 26.6c0.16 4.47 0.487 8.87 0.987 13.2h137c-0.565-4.63-0.908-9.06-1.07-13.2zm3.13 26.6c0.908 4.51 2.01 8.91 3.27 13.2h137c-1.38-4.5-2.52-8.91-3.42-13.2zm7.92 26.6c1.84 4.58 3.89 8.98 6.13 13.2h137c-2.35-4.43-4.49-8.84-6.28-13.2zm14.2 26.6c3.33 4.76 6.94 9.17 10.8 13.2h136c-3.63-4.38-6.92-8.78-9.87-13.2z" fill="#38454f"/>
 <path d="m302 360c-45.9-18.2-76.5-62.8-76.5-112s30.6-94.2 76.5-112h89.1c45.9 18.2 76.5 62.8 76.5 112s-30.6 94.2-76.5 112z" fill="#283238"/>
 <path d="m310 169c-4.21 1.41-5.03 6.8-1.63 9.66 9.72 8.19 18.7 22.4 21 39.1-11.5-7.36-33.3-19.8-52.4-22.1-7.75 8.99-13.5 28.7-16.4 41.2-1.03 4.31 3.1 7.86 7.33 6.51 12.8-4.14 31-3.96 47.1 4.25-10.9 6.16-34.6 20.9-46.3 38.3 4.5 11 19.4 25 29.2 33.3 3.38 2.88 8.42 0.804 9.13-3.58 2.05-12.7 9.8-28 23.2-38.6-0.193 13.5 0.685 39.1 9.06 56.9 11.7 1.81 31.4-3.78 43.6-7.86 4.21-1.41 5.03-6.8 1.63-9.66-9.72-8.19-18.7-22.4-21-39.1 11.5 7.36 33.3 19.8 52.4 22.1 7.74-9 13.5-28.7 16.4-41.2 1.03-4.31-3.1-7.87-7.33-6.51-12.8 4.14-31 3.96-47.1-4.25 10.9-6.16 34.6-20.9 46.3-38.3-4.5-11-19.4-25-29.2-33.3-3.38-2.88-8.42-0.804-9.13 3.58-2.05 12.7-9.8 28-23.2 38.6 0.193-13.5-0.688-39.1-9.06-56.8-12.3-1.89-33.4 4.45-43.6 7.86zm35.9 52.4c12.6-0.0916 28.5 9.96 26.5 29.6-0.985 9.44-7.8 17.7-16.5 21-17.5 6.69-37.6-6.73-35.4-27.8 1.54-14.7 14.2-22.7 25.4-22.8z" fill="#688797"/>
 <circle cx="347" cy="247" r="26.8" fill="#cbd4d8"/>
 <path d="m24.2 46.1h-21.5v-14.9h35.2v430h-13.8z" fill="#2e3238"/>
 <path d="m40.4 461v-432h-37.7" style="fill:none;stroke-width:10;stroke:#999"/>
</svg>
