<?xml version="1.0" encoding="UTF-8"?>
<svg width="512" height="512" version="1.1" viewBox="0 0 512 512" xmlns="http://www.w3.org/2000/svg">
 <defs>
  <linearGradient id="s" x1="4120" x2="4127" y1="96.48" y2="104.1" gradientTransform="matrix(-1.804 0 0 1.798 7892 286)" gradientUnits="userSpaceOnUse">
   <stop style="stop-color:#f90" offset="0"/>
   <stop style="stop-color:#fc6" offset="1"/>
  </linearGradient>
  <linearGradient id="t" x1="4146" x2="4211" y1="45" y2="45" gradientTransform="matrix(-1.804 0 0 1.798 7892 286)" gradientUnits="userSpaceOnUse">
   <stop style="stop-color:#fff" offset="0"/>
   <stop style="stop-color:#9bcbff;stop-opacity:.68" offset="1"/>
  </linearGradient>
 </defs>
 <g>
  <path d="m157.6 9.106 261.7-1.611-0.03548 448.1-324.3 0.06535-0.6251-383.8z" fill="#fcf2d6" style="stroke-width:.9999"/>
  <path d="m154.9 1-69.88 69.26v377.2c0 9.598 4.338 15.71 15.59 15.71h213.8c9.115 0 9.304-15.35-0.617-15.46-70.8-0.7893-141.7-0.0802-212.6-0.2406-0.5659-119.3-0.2541-357.9-0.2541-357.9h57.18c8.638 0 16.56-4.722 16.56-15.18 0-10.45-0.2999-57.78-0.2999-57.78h236.3c0.6752 91.55 0.506 248.8 0.506 274.8 0 12.13 16.04 10.98 16.04 0.801 0 0 0.0404-182.5 0.0404-276.4 0-8.939-6.251-14.83-15.76-14.83h-256.7zm3.759 17.78 0.2033 55.35-56.21-0.1643z" style="fill:#3c65fc;stroke-width:.9999"/>
 </g>
 <g>
  <path d="m249.5 358.7c4.645 0.7128 8.239 7.716 4.18 12.79-1.156 1.445-3.354 2.076-4.226 2.212-1.934 0-116.1-0.1059-116.1-0.1059s-6.968 0.1716-6.968-7.397c0-4.884 3.677-7.577 7.56-7.577 11 0 77-0.2403 115.6 0.0807z" style="fill:#010101;stroke-width:.9999"/>
  <path d="m257 326.3c4.93 0.7128 8.744 7.716 4.437 12.79-1.227 1.445-3.56 2.076-4.485 2.212-2.053 0-123.3-0.1059-123.3-0.1059s-7.395 0.1716-7.395-7.397c0-4.884 3.901-7.577 8.025-7.577 11.68 0 81.75-0.2403 122.7 0.0807z" style="fill:#010101;stroke-width:.9999"/>
  <path d="m280.6 293.6c5.822 0.7128 10.33 7.716 5.24 12.79-1.45 1.445-4.206 2.076-5.299 2.212-2.424 0-145.6-0.1059-145.6-0.1059s-8.734 0.1716-8.734-7.397c0-4.884 4.607-7.577 9.479-7.577 13.79 0 96.54-0.2403 144.9 0.0807z" style="fill:#010101;stroke-width:.9999"/>
 </g>
 <g>
  <path d="m250.9 86.11c38.42-1.269 63.89 8.124 90.19 26.19 40.84 27.21 65.74 70.02 65.59 118.8-0.7263 10.4-4.645 11.39-29.15 11.07-24.5-0.3166-36.7 3.374-37.89-13.51-2.202-32.7-18.55-52.99-43.91-66.44-36.16-20.52-86.15-9.119-108.5 25.89-9.545 14.12-14.91 29.08-14.89 46.08-2.582 10.57-12.92 8.106-37.13 8.106s-29 1.915-29.15-14.8c1.766-30.07 11.46-56.72 29.86-80.83 26.48-36.27 76.52-59.28 114.9-60.54z" fill="#010101" style="stroke-width:.9999"/>
  <path d="m134.2 173.3 35.02 19.78s-9.7 17.48-9.863 36.73c-8.999 0.0561-41.07-0.0907-41.07-0.0907s-0.5337-12.34 4.18-29.03c4.714-16.69 11.73-27.38 11.73-27.38z" fill="#88c7fe" style="stroke-width:.9999"/>
  <path d="m262.6 99.29s12.07-0.9707 29.83 3.468c17.75 4.441 26.78 11.22 26.78 11.22l-20.08 34.96s-11.88-5.185-18.11-6.867c-6.028-1.625-18.48-3.063-18.48-3.063z" fill="#f9cb6f" style="fill:#ffb945;stroke-width:.9999"/>
  <path d="m377.9 173.3s7.535 11.27 12.19 28.09 3.888 27.64 3.888 27.64l-41.02-0.0615s-1.701-15.11-3.868-22.35c-1.473-4.922-6.147-14.14-6.147-14.14z" fill="#fb4b57" style="fill:#fd4755;stroke-width:.9999"/>
  <path d="m330.4 120.8s12.27 6.535 23.12 17.43c10.85 10.89 17.66 22.47 17.66 22.47l-34.69 21.16s-7.868-10.37-12.41-14.68c-4.536-4.309-13.94-11.56-13.94-11.56z" fill="#fb6871" style="fill:#fe646f;stroke-width:.9999"/>
  <path d="m181.2 120.8c6.882 11.52 21.09 34.45 21.09 34.45s-5.967 3.934-10.01 7.987c-2.953 2.464-8.254 7.579-10.53 10.72-0.0889 7.6e-4 -6.673 8.428-6.673 8.428l-34.69-20.48s4.033-6.356 5.652-8.623c8.399-11.69 17.64-19.85 28.84-28.37 1.983-1.513 6.333-4.111 6.333-4.111z" fill="#6af7c7" style="stroke-width:.9999"/>
  <path d="m249.8 99.49 0.0413 39.82s-10.19 1.426-19.95 4.083c-9.761 2.657-16.39 5.542-16.39 5.542l-19.93-34.83s9.481-6.579 26.71-11.09c17.23-4.514 29.5-3.511 29.5-3.511z" fill="#fde27a" style="fill:#ffe177;stroke-width:.9999"/>
 </g>
 <g>
  <path d="m283.4 235.9a27.09 27 0 0 1-27.09 27 27.09 27 0 0 1-27.09-27 27.09 27 0 0 1 27.09-27 27.09 27 0 0 1 27.09 27zm15.52-49.65c3.842-0.7417 6.737 2.581 7.367 5.56 0.2623 2.69-2.073 4.838-3.677 6.784-3.004 3.278-10.4 10.63-24.85 24.94 0 0-6.043-6.13-9.065-9.195 7.87-7.711 15.37-15.79 23.46-23.28 1.934-1.792 4.013-4.273 6.767-4.805z" style="fill:#010101;stroke-width:1.6"/>
  <ellipse cx="256.2" cy="235.9" rx="13.66" ry="13.61" style="fill:#685e68;stroke-width:.9999"/>
 </g>
 <g>
  <path d="m356.1 294.1c23.63 0.4119 43.66 9.907 57 27.51 8.208 10.5 14.54 26.07 15.73 35.79h0.0523c1.712 21.94-3.517 42.96-19.66 58.97l18.58 17.84-7.901 7.66-18.94-18.16c-5.7 4.441-11.31 7.209-18.94 10.18-33.54 11.08-69.45 1.606-88.74-26.98-15.31-21.22-17.5-51.07-4.419-73.89 11.81-23.02 36.98-38.83 62.59-39.01 1.602-0.054 3.192-0.0666 4.762-0.0378zm-0.8099 14.29c-5.916-0.0726-11.81 0.7265-17.5 2.374-23.09 5.915-42.21 25.89-42.92 50.36h-0.0739c-2.689 28.78 18.76 58.26 47.98 62.57 25.97 4.712 55.73-7.678 66.56-32.55 9.093-19.6 7.324-44.58-7.504-60.95-11.2-13.88-28.87-21.58-46.53-21.76z" style="fill:#3c65fc;stroke-width:1.6"/>
  <path d="m429.8 420c-2.8 4e-3 -5.659 0.3172-8.251 1.434-1.644 0.6842-3.095 1.761-4.358 3.002-2.745 2.524-5.418 5.122-8.041 7.769-2.541 2.86-3.746 6.789-3.454 10.58 0.243 3.364 1.65 6.685 4.094 9.046 15.32 14.61 30.77 29.08 46.1 43.7 3.631 3.463 7.265 6.936 10.87 10.43 2.254 2.297 5.113 4.081 8.287 4.76 4.315 0.9388 9.049-0.0603 12.53-2.792 1.419-1.154 2.729-2.432 4.058-3.683 1.784-1.712 3.558-3.437 5.306-5.185 2.961-3.199 4.318-7.787 3.603-12.08-0.5283-3.318-2.278-6.401-4.778-8.64-11.36-11.02-22.84-21.91-34.36-32.78-7.184-6.796-14.38-13.58-21.52-20.42-1.785-1.865-3.863-3.531-6.307-4.443-1.214-0.4534-2.51-0.6675-3.804-0.6888z" style="fill:#3c65fc;stroke-width:1.6"/>
  <path d="m430 431.1c-1.641-1.555-4.221-1.555-5.863-3e-3l-7.324 7.05c-1.613 1.525-1.613 4.081 0 5.611l57.53 54.66c1.64 1.543 4.203 1.543 5.845 0l7.324-7.029c1.613-1.525 1.613-4.081 0-5.611z" style="fill:url(#s);stroke-width:1.6"/>
  <path d="m354.3 306c-34.64 0-62.95 27.16-62.95 60.42 0 33.26 28.31 60.42 62.95 60.42s62.95-27.16 62.95-60.42c0-33.26-28.31-60.42-62.95-60.42zm0 4.585c32.48 0.018 58.27 24.63 58.27 55.93 0 31.11-25.79 55.93-58.27 55.93-32.48 0-58.27-24.81-58.27-55.93 0-31.11 25.79-55.93 58.27-55.93z" fill="#a4d1ff" style="stroke-width:1.6"/>
  <path d="m413.8 366.8c0 31.11-26.51 56.64-58.98 56.64-32.48 0-58.98-25.53-58.98-56.64 0-31.11 26.51-56.64 58.98-56.64 32.48 0 58.98 25.53 58.98 56.64z" style="fill:url(#t);stroke-width:1.6"/>
  <path d="m410.2 366.5c0 7.911-1.804 15.44-5.014 22.3-2.147-0.7012-4.15-1.798-5.88-3.202-28.51-18.52-27.78-51.6-84.42-57.91 12.18-10.03 25.97-15.19 39.69-14.98 31.03 0 55.55 24.1 55.55 53.93z" fill="#ffffff" style="stroke-width:1.6"/>
 </g>
</svg>
