<?xml version="1.0" encoding="UTF-8"?>
<svg width="512" height="512" version="1.1" viewBox="0 0 512 512" xmlns="http://www.w3.org/2000/svg">
 <defs>
  <linearGradient id="a" x1="4120" x2="4127" y1="96.48" y2="104.1" gradientTransform="matrix(-1.745 0 0 1.798 7647 286)" gradientUnits="userSpaceOnUse">
   <stop style="stop-color:#e80" offset="0"/>
   <stop style="stop-color:#fc6" offset="1"/>
  </linearGradient>
  <linearGradient id="b" x1="4146" x2="4211" y1="45" y2="45" gradientTransform="matrix(-1.745 0 0 1.798 7647 286)" gradientUnits="userSpaceOnUse">
   <stop style="stop-color:#fff" offset="0"/>
   <stop style="stop-color:#9bcbff;stop-opacity:.68" offset="1"/>
  </linearGradient>
 </defs>
 <g>
  <path d="m157.6 9.106 261.7-1.611-0.03548 448.1-324.3 0.06535-0.6251-383.8z" fill="#fcf2d6"/>
  <path d="m154.9 1-69.88 69.26v377.2c0 9.598 4.338 15.71 15.59 15.71h213.8c9.115 0 9.304-15.35-0.617-15.46-70.8-0.7893-141.7-0.0802-212.6-0.2406-0.5659-119.3-0.2541-357.9-0.2541-357.9h57.18c8.638 0 16.56-4.722 16.56-15.18 0-10.45-0.2999-57.78-0.2999-57.78h236.3c0.6752 91.55 0.506 248.8 0.506 274.8 0 12.13 16.04 10.98 16.04 0.801 0 0 0.0404-182.5 0.0404-276.4 0-8.939-6.251-14.83-15.76-14.83h-256.7zm3.759 17.78 0.2033 55.35-56.21-0.1643z" fill="#3c65fc"/>
 </g>
 <g>
  <path d="m249.5 358.7c4.645 0.7128 8.239 7.716 4.18 12.79-1.156 1.445-3.354 2.076-4.226 2.212-1.934 0-116.1-0.1059-116.1-0.1059s-6.968 0.1716-6.968-7.397c0-4.884 3.677-7.577 7.56-7.577 11 0 77-0.2403 115.6 0.0807z"/>
  <path d="m257 326.3c4.93 0.7128 8.744 7.716 4.437 12.79-1.227 1.445-3.56 2.076-4.485 2.212-2.053 0-123.3-0.1059-123.3-0.1059s-7.395 0.1716-7.395-7.397c0-4.884 3.901-7.577 8.025-7.577 11.68 0 81.75-0.2403 122.7 0.0807z"/>
  <path d="m280.6 293.6c5.822 0.7128 10.33 7.716 5.24 12.79-1.45 1.445-4.206 2.076-5.299 2.212-2.424 0-145.6-0.1059-145.6-0.1059s-8.734 0.1716-8.734-7.397c0-4.884 4.607-7.577 9.479-7.577 13.79 0 96.54-0.2403 144.9 0.0807z"/>
 </g>
 <g>
  <path d="m250.9 86.11c38.42-1.269 63.89 8.124 90.19 26.19 40.84 27.21 65.74 70.02 65.59 118.8-0.7263 10.4-4.645 11.39-29.15 11.07-24.5-0.3166-36.7 3.374-37.89-13.51-2.202-32.7-18.55-52.99-43.91-66.44-36.16-20.52-86.15-9.119-108.5 25.89-9.545 14.12-14.91 29.08-14.89 46.08-2.582 10.57-12.92 8.106-37.13 8.106s-29 1.915-29.15-14.8c1.766-30.07 11.46-56.72 29.86-80.83 26.48-36.27 76.52-59.28 114.9-60.54z" fill="#010101"/>
  <path d="m134.2 173.3 35.02 19.78s-9.7 17.48-9.863 36.73c-8.999 0.0561-41.07-0.0907-41.07-0.0907s-0.5337-12.34 4.18-29.03c4.714-16.69 11.73-27.38 11.73-27.38z" fill="#88c7fe"/>
  <path d="m262.6 99.29s12.07-0.9707 29.83 3.468c17.75 4.441 26.78 11.22 26.78 11.22l-20.08 34.96s-11.88-5.185-18.11-6.867c-6.028-1.625-18.48-3.063-18.48-3.063z" fill="#ffb945"/>
  <path d="m377.9 173.3s7.535 11.27 12.19 28.09 3.888 27.64 3.888 27.64l-41.02-0.0615s-1.701-15.11-3.868-22.35c-1.473-4.922-6.147-14.14-6.147-14.14z" fill="#fd4755"/>
  <path d="m330.4 120.8s12.27 6.535 23.12 17.43c10.85 10.89 17.66 22.47 17.66 22.47l-34.69 21.16s-7.868-10.37-12.41-14.68c-4.536-4.309-13.94-11.56-13.94-11.56z" fill="#fb6871"/>
  <path d="m181.2 120.8c6.882 11.52 21.09 34.45 21.09 34.45s-5.967 3.934-10.01 7.987c-2.953 2.464-8.254 7.579-10.53 10.72-0.0889 7.6e-4 -6.673 8.428-6.673 8.428l-34.69-20.48s4.033-6.356 5.652-8.623c8.399-11.69 17.64-19.85 28.84-28.37 1.983-1.513 6.333-4.111 6.333-4.111z" fill="#6af7c7"/>
  <path d="m249.8 99.49 0.0413 39.82s-10.19 1.426-19.95 4.083c-9.761 2.657-16.39 5.542-16.39 5.542l-19.93-34.83s9.481-6.579 26.71-11.09c17.23-4.514 29.5-3.511 29.5-3.511z" fill="#fde27a"/>
 </g>
 <g>
  <path d="m283.4 235.9a27.09 27 0 0 1-27.09 27 27.09 27 0 0 1-27.09-27 27.09 27 0 0 1 27.09-27 27.09 27 0 0 1 27.09 27zm15.52-49.65c3.842-0.7417 6.737 2.581 7.367 5.56 0.2623 2.69-2.073 4.838-3.677 6.784-3.004 3.278-10.4 10.63-24.85 24.94 0 0-6.043-6.13-9.065-9.195 7.87-7.711 15.37-15.79 23.46-23.28 1.934-1.792 4.013-4.273 6.767-4.805z" fill="#010101"/>
  <circle cx="256.2" cy="235.9" r="13.66" fill="#685e68"/>
 </g>
 <g>
  <path d="m357.2 294.1c22.86 0.4119 42.23 9.907 55.14 27.51 7.94 10.5 14.07 26.07 15.22 35.79h0.0506c1.656 21.94-3.402 42.96-19.02 58.97l17.97 17.84-7.643 7.66-18.32-18.16c-5.514 4.441-10.94 7.209-18.32 10.18-32.45 11.08-67.18 1.606-85.84-26.98-14.81-21.22-16.93-51.07-4.275-73.89 11.42-23.02 35.77-38.83 60.55-39.01 1.55-0.054 3.088-0.0666 4.607-0.0378zm-0.7835 14.29c-5.723-0.0726-11.42 0.7265-16.93 2.374-22.34 5.915-40.83 25.89-41.52 50.36h-0.0715c-2.601 28.78 18.15 58.26 46.41 62.57 25.12 4.712 53.91-7.678 64.39-32.55 8.796-19.6 7.085-44.58-7.259-60.95-10.83-13.88-27.93-21.58-45.01-21.76z" fill="#3c65fc"/>
  <path d="m428.5 420c-2.709 4e-3 -5.474 0.3172-7.982 1.434-1.59 0.6842-2.994 1.761-4.216 3.002-2.655 2.524-5.241 5.122-7.779 7.769-2.458 2.86-3.624 6.789-3.341 10.58 0.2351 3.364 1.596 6.685 3.96 9.046 14.82 14.61 29.77 29.08 44.6 43.7 3.512 3.463 7.028 6.936 10.52 10.43 2.18 2.297 4.946 4.081 8.016 4.76 4.174 0.9388 8.754-0.0603 12.12-2.792 1.373-1.154 2.64-2.432 3.926-3.683 1.726-1.712 3.442-3.437 5.133-5.185 2.864-3.199 4.177-7.787 3.485-12.08-0.511-3.318-2.204-6.401-4.622-8.64-10.99-11.02-22.09-21.91-33.24-32.78-6.95-6.796-13.91-13.58-20.82-20.42-1.727-1.865-3.737-3.531-6.101-4.443-1.174-0.4534-2.428-0.6675-3.68-0.6888z" fill="#3c65fc"/>
  <path d="m428.7 431.1c-1.587-1.555-4.083-1.555-5.672-3e-3l-7.085 7.05c-1.56 1.525-1.56 4.081 0 5.611l55.65 54.66c1.586 1.543 4.066 1.543 5.654 0l7.085-7.029c1.56-1.525 1.56-4.081 0-5.611z" fill="url(#a)"/>
  <path d="m355.5 306c-33.51 0-60.9 27.16-60.9 60.42s27.39 60.42 60.9 60.42 60.9-27.16 60.9-60.42-27.39-60.42-60.9-60.42zm0 4.585c31.42 0.018 56.37 24.63 56.37 55.93 0 31.11-24.95 55.93-56.37 55.93s-56.37-24.81-56.37-55.93c0-31.11 24.95-55.93 56.37-55.93z" fill="#a4d1ff"/>
  <path d="m413 366.8c0 31.11-25.64 56.64-57.05 56.64-31.42 0-57.05-25.53-57.05-56.64s25.64-56.64 57.05-56.64c31.42 0 57.05 25.53 57.05 56.64z" fill="url(#b)"/>
  <path d="m409.6 366.5c0 7.911-1.745 15.44-4.85 22.3-2.077-0.7012-4.015-1.798-5.688-3.202-27.58-18.52-26.87-51.6-81.66-57.91 11.78-10.03 25.12-15.19 38.39-14.98 30.02 0 53.74 24.1 53.74 53.93z" fill="#fff"/>
 </g>
</svg>
