/* XPM */
static char * hdd_xpm[] = {
"16 16 119 2",
"  	c None",
". 	c #5A5A5A",
"+ 	c #626262",
"@ 	c #363636",
"# 	c #434343",
"$ 	c #686868",
"% 	c #6E6356",
"& 	c #A87B4A",
"* 	c #EBCAA5",
"= 	c #E3B88A",
"- 	c #AA9277",
"; 	c #7C746C",
"> 	c #877159",
", 	c #B06F28",
"' 	c #C58C4D",
") 	c #EDCCA9",
"! 	c #EBC7A1",
"~ 	c #F2D8BC",
"{ 	c #EBD0B2",
"] 	c #8A7E71",
"^ 	c #5D5852",
"/ 	c #C79055",
"( 	c #BC7F3E",
"_ 	c #C28544",
": 	c #B28C64",
"< 	c #CCA276",
"[ 	c #EFD3B6",
"} 	c #EFD3B5",
"| 	c #B79672",
"1 	c #666666",
"2 	c #5D5D5D",
"3 	c #745A3F",
"4 	c #E5BD92",
"5 	c #E4BA8E",
"6 	c #70471D",
"7 	c #83684A",
"8 	c #84582B",
"9 	c #C79967",
"0 	c #E8C096",
"a 	c #E8C196",
"b 	c #423426",
"c 	c #565656",
"d 	c #272624",
"e 	c #796045",
"f 	c #F0D4B7",
"g 	c #EBCBA9",
"h 	c #7A4F22",
"i 	c #A67F56",
"j 	c #513416",
"k 	c #986E42",
"l 	c #EAC6A1",
"m 	c #ECCAA6",
"n 	c #352615",
"o 	c #6B6A6A",
"p 	c #6A6A6A",
"q 	c #7A7A7A",
"r 	c #797877",
"s 	c #938A80",
"t 	c #B2A89E",
"u 	c #A39A8F",
"v 	c #7F6E5B",
"w 	c #7A5734",
"x 	c #744F28",
"y 	c #B27532",
"z 	c #CE975A",
"A 	c #B38350",
"B 	c #494745",
"C 	c #606060",
"D 	c #747474",
"E 	c #858585",
"F 	c #656463",
"G 	c #767575",
"H 	c #514F4C",
"I 	c #776C5F",
"J 	c #BFB0A0",
"K 	c #F0D4B6",
"L 	c #EECEAB",
"M 	c #DAAC79",
"N 	c #B37736",
"O 	c #AF6E28",
"P 	c #715E4B",
"Q 	c #282828",
"R 	c #474747",
"S 	c #A5A5A5",
"T 	c #797979",
"U 	c #171310",
"V 	c #15110D",
"W 	c #2A2015",
"X 	c #B89C7D",
"Y 	c #EDCCA8",
"Z 	c #F0D1AF",
"` 	c #E0B78C",
" .	c #B97E3F",
"..	c #78624A",
"+.	c #616161",
"@.	c #4D4D4D",
"#.	c #A4A4A4",
"$.	c #767473",
"%.	c #261A0E",
"&.	c #5C4D3D",
"*.	c #55412B",
"=.	c #4F4C4C",
"-.	c #4B4B4B",
";.	c #A2A2A2",
">.	c #474542",
",.	c #5F5F5F",
"'.	c #262626",
").	c #A7A7A7",
"!.	c #474441",
"~.	c #5C5C5C",
"{.	c #252525",
"].	c #4E4E4E",
"^.	c #AAAAAA",
"/.	c #8D8D8D",
"(.	c #5B5B5B",
"_.	c #4F4F4F",
":.	c #999999",
"<.	c #777777",
"[.	c #242424",
"                . +             ",
"              . @ # $           ",
"            % & * = - ;         ",
"          > , ' ) ! ~ { ]       ",
"        ^ / ( _ : < [ } | 1     ",
"      2 3 4 5 6 7 8 9 0 a b $   ",
"    c d e f g h i j k l m n o   ",
"  p q r s t u v w x y z A B C   ",
"D E F G H I J K L M N O P C Q   ",
"R S T U V W X Y Z `  ...+.Q     ",
"  @.#.$.V V V %.&.*.=.C Q       ",
"    -.;.$.V V V V >.,.'.        ",
"      @.).$.U V !.~.{.          ",
"        ].^./.1 (.{.            ",
"          _.:.<.[.              ",
"                                "};
