<?xml version="1.0" encoding="UTF-8"?>
<svg width="512" height="512" version="1.1" viewBox="0 0 512 512" xmlns="http://www.w3.org/2000/svg">
 <defs>
  <linearGradient id="a" x1="367" x2="140" y1="84" y2="312" gradientUnits="userSpaceOnUse">
   <stop style="stop-color:#ccc" offset="0"/>
   <stop style="stop-color:#fff" offset=".5"/>
   <stop style="stop-color:#ccc" offset="1"/>
  </linearGradient>
 </defs>
 <path d="m458 469c0 23.5-19 42.5-42.5 42.5h-319c-23.5 0-42.5-19-42.5-42.5v-404c0-23.5 19-42.5 42.5-42.5h319c23.5 0 42.5 19 42.5 42.5z" fill="#808080"/>
 <path d="m458 447c0 23.5-19 42.5-42.5 42.5h-319c-23.5 0-42.5-19-42.5-42.5v-404c0-23.5 19-42.5 42.5-42.5h319c23.5 0 42.5 19 42.5 42.5z" fill="#b3b3b3"/>
 <path d="m267 421v52.3h20.4v-52.3zm30.4 0v52.3h20.4v-52.3zm30.4 0v52.3h20.4v-52.3zm30.4 0v52.3h20.4v-52.3z" fill="#666"/>
 <path d="m91 320h-36.9v128c0 23.5 19 42.5 42.5 42.5h159v-85c-68 0-128-33.6-165-85z" fill="#e0e5eb"/>
 <path d="m256 374c-46.5 0-90.2-18.1-123-51-32.9-32.9-51-76.6-51-123 0-46.5 18.1-90.2 51-123 32.9-32.9 76.6-51 123-51s90.2 18.1 123 51c32.9 32.9 51 76.6 51 123 0 46.5-18.1 90.2-51 123-32.9 32.9-76.6 51-123 51z" fill="url(#a)"/>
 <path d="m256 13.5c-103 0-186 83.5-186 186 0 103 83.5 187 186 187s186-83.5 186-187c0-103-83.5-186-186-186zm114 301c-14.8 14.8-32.1 26.5-51.4 34.7-19.9 8.41-41.1 12.7-62.9 12.7s-43-4.26-62.9-12.7c-19.3-8.16-36.5-19.8-51.4-34.7-14.9-14.8-26.5-32.1-34.7-51.4-8.41-19.9-12.7-41.1-12.7-62.9 0-21.8 4.28-43 12.7-62.9 8.14-19.2 19.8-36.5 34.7-51.4 14.8-14.9 32.1-26.5 51.4-34.6 19.9-8.42 41.1-12.7 62.9-12.7 21.8 0 43 4.27 62.9 12.7 19.3 8.13 36.5 19.8 51.4 34.6 14.9 14.9 26.5 32.1 34.7 51.4 8.41 19.9 12.7 41.1 12.7 62.9 0 21.8-4.28 43-12.7 62.9-8.14 19.2-19.8 36.5-34.7 51.4z" fill="#cad2db"/>
 <path d="m256 138c-34.3 0-62.2 27.8-62.2 62.2 0 34.3 27.8 62.2 62.2 62.2s62.2-27.8 62.2-62.2c0-34.3-27.8-62.2-62.2-62.2zm0 99.5c-20.6 0-37.3-16.7-37.3-37.3 0-20.6 16.7-37.3 37.3-37.3 20.6 0 37.3 16.7 37.3 37.3 0 20.6-16.7 37.3-37.3 37.3z" fill="#cad0db"/>
 <path d="m170 434 128-124c1.81-1.64 3.07-3.89 3.42-6.48 0.784-5.8-3.3-11.2-9.11-11.9-2.59-0.35-5.09 0.254-7.14 1.58l-153 90.3c-8.57 4.7-14.9 13.3-16.3 23.7-2.36 17.5 9.87 33.5 27.3 35.9 10.4 1.41 20.3-2.38 27.2-9.39z" fill="#44546b"/>
 <circle cx="148" cy="411" r="13" fill="#808080"/>
 <ellipse cx="305" cy="202" rx="6.47" ry="6.67" fill="#808080"/>
 <ellipse cx="207" cy="199" rx="6.47" ry="6.67" fill="#808080"/>
 <ellipse cx="282" cy="158" rx="6.47" ry="6.67" fill="#808080"/>
 <ellipse cx="231" cy="242" rx="6.47" ry="6.67" fill="#808080"/>
 <ellipse cx="279" cy="244" rx="6.47" ry="6.67" fill="#808080"/>
 <ellipse cx="232" cy="157" rx="6.47" ry="6.67" fill="#808080"/>
 <circle cx="256" cy="200" r="13" fill="#808080"/>
 <circle cx="96.6" cy="43.5" r="13" fill="#666"/>
 <circle cx="415" cy="43.5" r="13" fill="#666"/>
 <circle cx="415" cy="447" r="13" fill="#666"/>
</svg>
