<?xml version="1.0" encoding="UTF-8"?>
<svg width="512" height="512" version="1.1" viewBox="0 0 512 512" xmlns="http://www.w3.org/2000/svg">
 <defs>
  <radialGradient id="b" cx="165.9" cy="442.1" r="164" gradientTransform="matrix(1.034 -.8995 1.451 1.669 -608.7 -150.4)" gradientUnits="userSpaceOnUse">
   <stop style="stop-color:#ffffff" offset="0"/>
   <stop style="stop-color:#d7d7d7" offset=".3"/>
   <stop style="stop-color:#909090" offset=".85"/>
  </radialGradient>
  <radialGradient id="a" cx="151.5" cy="277.3" r="32.43" gradientTransform="matrix(.5589 -.7744 2.054 1.482 -502.6 -17.61)" gradientUnits="userSpaceOnUse">
   <stop style="stop-color:#498dbc" offset="0"/>
   <stop style="stop-color:#709ec2" offset=".396"/>
   <stop style="stop-color:#4b708f" offset=".725"/>
   <stop style="stop-color:#314960" offset="1"/>
  </radialGradient>
 </defs>
 <path d="m395.6 44.67-65.89 59.37v32.76l7.661 4.094 7.151-26.1 51.08-44.02zm103.7 47.6-69.97 59.37v29.68l25.54 10.75-69.97 66.53v96.22l81.21-88.54-6.234-41.9 50.67-50.73zm-151.2 52.2-73.55 62.95v73.7l22.47-62.95 51.08-44.53z" fill="#333"/>
 <path d="m329.7 104-80.7-36.85 73.55-57.02 73.04 34.5m33.71 107-84.79-36.85 69.46-58.86 85.3 36.34m-114.4 166.3-87.85-40.43 73.55-62.95 84.27 36.85m-180.3 15.35-80.7-36.85 69.46-62.95 84.79 36.85" fill="#999"/>
 <path d="m337.3 140.9 7.151-26.1 84.79 36.85v29.68l-58.74-26.1-22.47 18.42v-29.17zm-116.1 4.905 27.77-78.61 80.7 36.85v32.76l-66.4-29.17zm-55.99 94.39 28.6-69.61 80.7 36.85v73.7l22.47-62.95 87.85 40.43v96.22z" fill="#ccc"/>
 <path d="m392 189c-7.66-11.3-22-11.3-26-4.09-3.58 7.16 18.4 14.8 7.66 25.6-3.58 4.09-22 0-26-10.8m70-129-14.8 25.6 22.5-4.09v18.9l29.1-18.9m-129-39.9 3.58 14.8m-22-26.1c-7.66 7.68 0 18.4 14.8 18.4 11.2 0 25.5-13.1 18.4-22.4-7.21-8.89-24.9-6.29-33.2 3.98zm-51.6 103 20.5 8.75m-38.9-1.58 43.9-14.8-10.7 33.8" style="fill:none;stroke-width:7;stroke:#000"/>
 <path d="m220.4 146.8 28.57-79.57 73.55-57.02 73.04 34.5v26.1m-125.6 223.7 27.07-76.26 73.55-62.95 84.27 36.85 11.24 74.21-81.21 88.54-219.6-114.6 28.6-69.61 69.46-62.95 84.79 36.85v29.17m-10.73-32.76 7.151-26.1 69.46-58.86 85.3 36.34 11.24 81.38-50.67 50.91" style="fill:none;stroke:#333"/>
 <path d="m115 252c-97-57.3-3.7-136-30.9-179-23.4-36.6-82-30.4-84-31.9v-15.5c44.9-0.217 79.5 6.19 101 44.1 27.5 49-65.7 123 30.9 174 0 3.07-17.4 8.7-17.4 8.7z" fill="#808080"/>
 <path d="m337.3 372.7c8.269 28.64 11.87 87.8-40.86 110.5-28.26 12.17-91.58 28.2-150.7-11.26-51.52-34.39-94.73-90.11-112.6-122.3s-14.56-40.83-14.56-52.72c0.9753-17.37 9.385-22.83 42.9-37.87 78.24-35.11 101.6-29.68 130.8-29.68 37.91 0 117.8 49 145.1 143.3z" style="fill:url(#b);stroke-width:4;stroke:#999"/>
 <path d="m222.4 315s-49.62-55.74-100.1-79.92c0 0 38.83-8.459 63.84-6.653 17.32 1.251 36.04 2.466 64.64 22.93 48.39 37.54 48.56 35-28.35 63.64zm-184-47.21c37.44 11.77 66.8 52.46 78.3 63.98s17.49 13.86 34.73 11.77c29.44-3.566 67.84-27.03 67.84-27.03s-50.48-57.42-102.6-80.45c-17.37 5.63-55.16 23.03-78.3 31.73z" style="fill:#e2e6e9;stroke-width:4;stroke:#6c7782"/>
 <path d="m136.7 241.3c-20.87 9.755 32.74 60.76 59.46 49.45 20.62-17.3-32.25-62.17-59.46-49.45z" style="fill:url(#a);stroke-width:4;stroke:#6d7883"/>
 <ellipse transform="rotate(-25)" cx="86.6" cy="479.2" rx="23.9" ry="11.7" fill="#a2b8c0"/>
</svg>
