<?xml version="1.0" encoding="UTF-8"?>
<svg width="512" height="512" version="1.1" viewBox="0 0 512 512" xmlns="http://www.w3.org/2000/svg">
 <defs>
  <linearGradient id="a" x1="70.1" x2="435" y1="77.1" y2="442" gradientUnits="userSpaceOnUse">
   <stop style="stop-color:#1a65e5" offset="0"/>
   <stop style="stop-color:#0f4988" offset="1"/>
  </linearGradient>
 </defs>
 <path d="m256 1c-141 0-255 114-255 255s114 255 255 255 255-114 255-255-114-255-255-255zm48.9 155c9.23 19.5 23.9 30.6 46.1 33.5 2.02 15.8 3.28 35.9 3.7 52.4h-84.4v-84.9c10.2-0.0831 24.4-0.503 34.7-1.01zm-34.7-27.3v-96.7c19.3 6.8 39.6 31.5 54.7 63.1-12.4 8.23-17.2 17.4-22.2 32.6-9.66 0.42-23.1 0.756-32.6 0.924zm84.5 142c-0.504 16.8-1.85 37.3-3.95 53.4-22.9 1.09-37.8 13-45.6 32.5-10.3-0.504-24.7-0.924-35-1.01v-84.9h84.5zm23.9 59.2c2.44-18 3.95-40.5 4.45-59.2h99.2c-2.44 38.9-14.7 75.1-34.4 106-12.9-2.94-29.8-5.54-42.7-7.81-2.66-18.9-10.3-29.5-26.6-39.3zm4.45-87.6c-0.504-18.5-1.93-40.5-4.28-58.2 15.3-10 23.3-22.2 26.7-40.3 12.9-2.27 29.7-4.96 42.6-7.81 19.7 31.2 31.9 67.4 34.4 106h-99.3zm18-126c-11.5-21.3-28.4-29.8-49.2-29.4-7.56-16.3-18-34.4-27.3-46 41.5 13.2 77.8 38 105 70.6-8.23 1.76-20.5 3.36-28.7 4.87zm-131 268c9.41 0.168 22.9 0.504 32.3 0.924 4.12 14.2 9.3 24.9 21.9 33.5-14.9 31.2-35.1 55.5-54.3 62.3v-96.7zm54.3 88.6c9.15-11.3 19.5-29.1 26.8-45 25.6-1.78 39.7-10.6 50.2-30.4 8.15 1.51 20.1 3.11 28.3 4.79-27.4 32.7-63.8 57.5-105 70.6zm-156-113c-3.7-15.8-7.65-36.6-9.5-54.2 17.8-6.76 27.4-17.6 34.1-35.1h48.9v84.8c-24.4 0.59-49 2.02-73.4 4.45zm73.5 24v96.7c-26.3-9.32-50.2-44-65.8-93 21.9-2.1 43.9-3.27 65.8-3.7zm-149-142h-63c2.44-38.9 14.7-75.1 34.4-106 25.2 5.71 50.5 10.2 75.9 13.8-3.61 16.4-7.48 37.8-9.5 55.9-19.1 5.01-31.1 16.2-37.7 36.7zm100 0c-5.75-18.5-15.7-27.1-34.1-35.1 1.93-17.6 5.8-38.4 9.42-54.1 24.5 2.52 49 3.95 73.5 4.28v84.8zm-45.7-120c-21.7-2.77-43.3-6.55-64.8-11.2 27.3-32.5 63.6-57.4 105-70.5-16.2 20.4-30 48.2-40.1 81.6zm-54.4 148c6.25 19.5 17.5 30.8 37.7 36.7 1.93 18.3 5.89 39.6 9.5 56-25.4 3.44-50.8 8.06-75.9 13.8-19.7-31.2-31.9-67.4-34.4-106zm54.4 120c10.2 33.3 23.9 61.1 40.1 81.6-41.4-13.2-77.7-38-105-70.6 21.6-4.62 43.3-8.32 64.9-11.1zm94.6-262c-22-0.42-44-1.6-65.9-3.7 15.6-49.1 39.6-83.7 65.9-93z" fill="url(#a)"/>
</svg>
