<?xml version="1.0" encoding="UTF-8"?>
<svg width="512" height="512" version="1.1" viewBox="0 0 512 512" xmlns="http://www.w3.org/2000/svg">
 <defs>
  <linearGradient id="a" x1="70.1" x2="435" y1="77.1" y2="442" gradientUnits="userSpaceOnUse">
   <stop style="stop-color:#1a65e5" offset="0"/>
   <stop style="stop-color:#0f4988" offset="1"/>
  </linearGradient>
 </defs>
 <path d="m255 0c-141 0-255 114-255 255s114 255 255 255 255-114 255-255-114-255-255-255zm44.9 155c7.31 21.1 26.9 36.5 50.1 37.5 2.02 15.8 3.28 31.9 3.7 48.4h-84.4v-84.9c10.2-0.0831 20.4-0.503 30.7-1.01zm-30.7-27.3v-96.7c19.3 6.8 37.6 27.5 52.7 59.1-12.4 8.23-21.4 21.4-24.2 36.6-9.66 0.42-19.1 0.756-28.6 0.924zm84.5 142c-0.504 16.8-1.85 33.3-3.95 49.4-22.9 1.09-42.1 16-49.6 36.5-10.3-0.504-20.7-0.924-31-1.01v-84.9h84.5zm23.9 55.2c2.44-18 3.95-36.5 4.45-55.2h99.2c-2.44 38.9-14.7 75.1-34.4 106-12.9-2.94-25.8-5.54-38.7-7.81-2.18-19.1-14-35.1-30.6-43.3zm4.45-83.6c-0.504-18.5-1.93-36.5-4.28-54.2 16.6-8.4 28.6-24.9 30.7-44.3 12.9-2.27 25.7-4.96 38.6-7.81 19.7 31.2 31.9 67.4 34.4 106h-99.3zm22-126c-8.65-19.7-28.4-33.6-51.3-33.6-1.34 0-2.6 0.0844-3.95 0.168-7.56-16.3-16-30.4-25.3-42 41.5 13.2 77.8 38 105 70.6-8.23 1.76-16.5 3.36-24.7 4.87zm-135 268c9.41 0.168 18.9 0.504 28.3 0.924 2.52 15.5 11.3 28.9 23.9 37.5-14.9 31.2-33.1 51.5-52.3 58.3v-96.7zm54.3 88.6c9.15-11.3 17.5-25.1 24.8-41 1.43 0.0845 2.94 0.168 4.45 0.168 23.3 0 43.3-14.4 51.7-34.6 8.15 1.51 16.1 3.11 24.3 4.79-27.4 32.7-63.8 57.5-105 70.6zm-156-113c-3.7-15.8-6.55-32.6-8.4-50.2 18.1-5.8 32.2-20.6 37-39.1h44.9v84.8c-24.4 0.59-49 2.02-73.4 4.45zm73.5 24v96.7c-26.3-9.32-50.2-44-65.8-93 21.9-2.1 43.9-3.27 65.8-3.7zm-153-142h-59c2.44-38.9 14.7-75.1 34.4-106 25.2 5.71 50.5 10.2 75.9 13.8-3.61 16.4-6.38 33.8-8.4 51.9-21 4.37-37.5 20.2-42.8 40.7zm108 0c-4.79-18.5-18.9-33.3-37-39.1 1.93-17.6 4.7-34.4 8.32-50.1 24.5 2.52 49 3.95 73.5 4.28v84.8zm-49.7-120c-21.7-2.77-43.3-6.55-64.8-11.2 27.3-32.5 63.6-57.4 105-70.5-16.2 20.4-30 48.2-40.1 81.6zm-58.4 148c5.29 20.5 22 36.4 42.8 40.7 1.93 18.3 4.79 35.6 8.4 52-25.4 3.44-50.8 8.06-75.9 13.8-19.7-31.2-31.9-67.4-34.4-106zm58.4 120c10.2 33.3 23.9 61.1 40.1 81.6-41.4-13.2-77.7-38-105-70.6 21.6-4.62 43.3-8.32 64.9-11.1zm94.6-262c-22-0.42-44-1.6-65.9-3.7 15.6-49.1 39.6-83.7 65.9-93z" fill="url(#a)"/>
</svg>
