<?xml version="1.0" encoding="UTF-8"?>
<svg width="512" height="512" version="1.1" viewBox="0 0 512 512" xmlns="http://www.w3.org/2000/svg">
 <defs>
  <linearGradient id="a" x1="70.1" x2="435" y1="77.1" y2="442" gradientUnits="userSpaceOnUse">
   <stop style="stop-color:#1aa4e5" offset="0"/>
   <stop style="stop-color:#116b98" offset="1"/>
  </linearGradient>
 </defs>
 <path d="m1 254c0 139 105 261 261 257 122-2.91 217-90.7 242-195 22.4-92.3-7.3-208-108-274-80-52.8-179-51.5-258-11.1-78.7 40.4-137 120-137 223zm271-219c30.4 13.5 49 58.9 55.8 77.7-11 7.38-15.7 16.3-17.7 20.1-12.7-1.23-25.4-2.12-38.2-2.47zm-31.4 95.6c-21.2 0.62-42.3 2.42-63.3 5.61 15.2-54.8 39.5-90.3 63.3-101zm-96.8 12.4c-50.9 12-81.9 29.4-99.2 42.1 7.57-22.6 42.3-108 141-141-12.3 16.9-29.9 48.1-42 99.2zm264 11.5c-1.11-27.7-23.5-48.6-49.5-49.6-7.69-21.5-17.4-42.5-30.9-61 70 21 115 76.3 141 142-20.6-13.5-40.7-27.2-60.6-31.4zm-168 85.4h-45.2c-6.95-21.3-23.8-29.8-30.9-32.5 1.99-20.5 4.91-36.2 5.3-38.3 32.6-6.04 61.1-7.33 70.4-7.64zm31.6-78.3c11.2 0.382 21.2 1.02 33.4 2.16 3.81 23.2 22.1 39.4 42.5 42.6 1.08 11.2 1.79 22.4 2.17 33.6-26.1 0.0133-52.1 0.0265-78.2 0.0398 9.7e-4 -26.1 3e-3 -52.2 4e-3 -78.4l0.0967 3e-3zm-135 15.2c-1.37 9.31-2.7 19.6-3.59 29-18.1 4.85-30.9 18.5-35.9 34h-61.3c19.1-30.1 64.5-60.9 101-63zm339 63.2c-31.6-3e-3 -63.2-5e-3 -94.8-8e-3 -0.396-12.8-1.2-25.6-2.5-38.3 7.96-4.05 14.9-10.1 19.9-17.6 23 8.38 64.8 27.1 77.4 55.9zm-236 31.3v78.4c-30.8-1.05-54.6-4.53-70.9-7.57-2.27-12.7-4.11-25.4-5.27-38.3 20.7-7.92 28.5-25 30.9-32.5 3.29 6e-3 33.5-0.031 45.3-0.03zm-143 0c5.58 17.2 19.4 29.5 35.6 33.9 0.956 9.73 2.11 19.5 3.57 29.1-22.5-6.35-84.2-26.7-101-63.1zm252 0.165c-0.501 15-1.53 27.1-2.17 33.6-21.7 3.46-39.1 20.8-42.5 42.6-8.01 0.832-20.6 1.78-33.5 2.19v-78.4zm127 0.416c-13.1 29.8-57 48.6-77.5 55.9-4.94-7.36-12.1-13.6-20-17.6-0.284-0.0544 1.76-15.1 2.43-38.3zm-118 136c28.7-1.17 48.5-24.6 49.5-49.6 21.3-7.67 42.8-21.7 61.1-35.1-19 68.6-81.9 121-142 146 14-18.2 23.4-39.8 31.4-61.3zm-173 61.6c-81.6-27.2-125-93.1-141-141 28.8 20.9 64.7 33.8 98.9 41.9 5.49 30.7 19.2 70.5 42.1 99.1zm54.3 7.6c-36.8-16.1-57.4-79.4-63.5-101-0.0132-0.0518 22.5 4.7 63.5 5.87zm87.2-77.9c-8.43 23.3-27 64.8-55.8 77.6 3e-3 -31.7 5e-3 -63.3 8e-3 -95 12.8-0.395 25.5-1.21 38.3-2.51 0.751 2.27 4.87 11.5 17.5 19.9z" fill="url(#a)"/>
</svg>
