<?xml version="1.0" encoding="UTF-8"?>
<svg width="512" height="512" version="1.1" viewBox="0 0 512 512" xmlns="http://www.w3.org/2000/svg">
 <defs>
  <radialGradient id="a" cx="265" cy="49.1" r="89.2" gradientUnits="userSpaceOnUse">
   <stop style="stop-color:#fb8899" offset="0"/>
   <stop style="stop-color:#e82637" offset="1"/>
  </radialGradient>
 </defs>
 <path d="m468 393c-5.95-25.5-27.2-76.5-40.8-100-19.6-34.8-323-34.8-343 0-13.6 23.8-34.8 74.8-40.8 100-3.4 13.6 9.35 79 9.35 79 4.25 21.2 24.6 39.1 46.8 39.1h313c21.2 0 42.5-17.8 45.9-39.1 0 0 12.8-63.8 9.35-79" fill="#242a33"/>
 <path d="m461 378c-7.15 12.5-18.9 17.8-32.3 20.4-18.5 1.16-44.6 2.55-66.3 2.55-91.5 2.18-159 2.53-212 0-30.9-1.47-25.6-5e-3 -66.3-2.55-6.05 0-24.4-4.57-32.3-20.4 7.14 8.33 19 15.3 32.3 15.3 18.5-1.16 44.6-2.55 66.3-2.55 70.8-2.51 142-1.68 212 0 30.9 1.47 25.6 5e-3 66.3 2.55 16.7 0 27.4-9.62 32.3-15.3" fill="#a1acb3"/>
 <path d="m50.7 438c7.15-12.5 18.9-17.8 32.3-20.4 18.5-1.16 44.6-2.55 66.3-2.55 91.5-2.18 159-2.53 212 0 30.9 1.47 25.6 5e-3 66.3 2.55 6.05 0 24.4 4.57 32.3 20.4-7.14-8.33-19-15.3-32.3-15.3-18.5 1.16-44.6 2.55-66.3 2.55-70.8 2.51-142 1.68-212 0-30.9-1.47-25.6-5e-3 -66.3-2.55-12.8-0.631-23.5 6.73-32.3 15.3" fill="#6b7278"/>
 <ellipse cx="290" cy="332" rx="101" ry="38.2" fill="#53585b"/>
 <ellipse cx="290" cy="306" rx="90.1" ry="29.8" fill="#676e72"/>
 <ellipse cx="290" cy="286" rx="79.9" ry="26.3" fill="#53585b"/>
 <path d="m323 129h-64.6v144c0 16.2 64.6 16.2 64.6 0v-144" fill="#d2cfcf"/>
 <ellipse cx="290" cy="89.4" rx="89.2" ry="88.4" fill="url(#a)"/>
 <path d="m189 282h-85.8v18.7c15.3 18.7 71.4 18.7 86.7 0-0.85 0-0.85-18.7-0.85-18.7" fill="#a5000c"/>
 <ellipse cx="146" cy="282" rx="43.3" ry="18.7" fill="#ed4c5c"/>
</svg>
