<?xml version="1.0" encoding="UTF-8"?>
<svg width="512" height="512" version="1.1" viewBox="0 0 512 512" xmlns="http://www.w3.org/2000/svg">
 <path d="m78.28 158.1h-23.39v-28.25c0-20.96 17.05-38.01 38.01-38.01h317.6c8.062 0 14.62-6.559 14.62-14.62 0-8.062-6.559-14.62-14.62-14.62h-322.8c-20.96 0-38.01-17.05-38.01-38.01v-24.56h23.39v24.56c0 8.062 6.557 14.62 14.62 14.62h322.8c20.96 0 38.01 17.05 38.01 38.01 0 20.96-17.05 38.01-38.01 38.01h-317.6c-8.062 0-14.62 6.559-14.62 14.62z" fill="#66645d"/>
 <path d="m486.6 378.6h-461.2c-12.37 0-22.41-10.03-22.41-22.41v-175.7c0-12.38 10.03-22.41 22.41-22.41h461.2c12.38 0 22.41 10.03 22.41 22.41v175.7c0 12.38-10.03 22.41-22.41 22.41z" style="fill:#ccc;stroke-width:4;stroke:#b2b2b2"/>
 <path d="m42.26 194.3c-2.761 0-5 2.238-5 4.998v35.82c-0.0012 2.761 2.238 4.998 5 4.998h38.04c2.761 0 4.998-2.238 4.998-4.998v-35.82c0-2.761-2.237-4.998-4.998-4.998zm56.23 0c-2.761 0-4.998 2.238-4.998 4.998v35.82c0 2.761 2.237 4.998 4.998 4.998h36.2c2.761 0 4.998-2.238 4.998-4.998v-35.82c0-2.761-2.238-4.998-4.998-4.998zm54.39 0c-2.761 0-4.998 2.238-4.998 4.998v35.82c0 2.761 2.238 4.998 4.998 4.998h36.2c2.759 0 4.998-2.238 4.998-4.998v-35.82c0-2.761-2.238-4.998-4.998-4.998zm54.39 0c-2.761 0-4.998 2.238-4.998 4.998v35.82c0 2.761 2.238 4.998 4.998 4.998h36.2c2.759 0 4.998-2.238 4.998-4.998v-35.82c0-2.761-2.237-4.998-4.998-4.998zm54.39 0c-2.761 0-4.998 2.238-4.998 4.998v35.82c0 2.761 2.237 4.998 4.998 4.998h36.21c2.759 0 4.998-2.238 4.998-4.998v-35.82c0-2.761-2.238-4.998-4.998-4.998zm54.39 0c-2.761 0-4.998 2.238-4.998 4.998v35.82c0 2.761 2.238 4.998 4.998 4.998h33.79c2.761 0 4.998-2.238 4.998-4.998v-35.82c0-2.761-2.238-4.998-4.998-4.998zm85.59 0c-2.874 0-5.203 2.33-5.203 5.203v35.41c0 2.874 2.329 5.203 5.203 5.203h24.1c2.874 0 5.203-2.33 5.203-5.203v-35.41c0-2.874-2.33-5.203-5.203-5.203zm42.69 0c-2.874 0-5.203 2.33-5.203 5.203v35.41c0 2.874 2.329 5.203 5.203 5.203h25.21c2.874 0 5.203-2.329 5.203-5.203v-35.41c0-2.874-2.33-5.203-5.203-5.203zm-316 54c-2.761 0-4.998 2.237-4.998 4.998v31.72c0 2.761 2.238 4.998 4.998 4.998h36.2c2.761 0 5-2.238 5-4.998v-31.72c1e-3 -2.761-2.239-4.998-5-4.998zm108.8 0c-2.761 0-5 2.237-5 4.998v31.72c0 2.761 2.239 4.998 5 4.998h36.2c2.761 0 4.998-2.238 4.998-4.998v-31.72c9.9e-4 -2.761-2.238-4.998-4.998-4.998zm54.39 0c-2.761 0-4.998 2.237-4.998 4.998v31.72c0 2.761 2.238 4.998 4.998 4.998h58.35c2.761 0 4.998-2.238 4.998-4.998v-31.72c0-2.761-2.238-4.998-4.998-4.998zm152.8 0c-2.874 0-5.203 2.329-5.203 5.203v31.31c0 2.874 2.329 5.203 5.203 5.203h25.21c2.874 0 5.203-2.33 5.203-5.203v-31.31c0-2.873-2.329-5.203-5.203-5.203zm-402.1 2e-3c-2.761 0-5 2.238-5 4.998v31.72c-0.0012 2.759 2.238 4.998 5 4.998h16.99c2.761 0 4.998-2.238 4.998-4.998v-31.72c0-2.761-2.237-4.998-4.998-4.998zm35.17 0c-2.761-1e-3 -5 2.236-5 4.998v31.72c0 2.761 2.237 4.998 4.998 4.998h32.7c2.761 0 4.998-2.238 4.998-4.998v-31.72c0-2.761-2.237-4.998-4.998-4.998zm105.3 0c-2.761-1e-3 -5 2.236-5 4.998v31.72c0 2.761 2.239 4.998 5 4.998h36.2c2.761 0 4.998-2.238 4.998-4.998v-31.72c0-2.761-2.237-4.998-4.998-4.998zm218.9 0c-2.874 0-5.203 2.329-5.203 5.203v31.31c0 2.873 2.329 5.203 5.203 5.203h24.1c2.874 0 5.203-2.33 5.203-5.203v-31.31c0-2.874-2.33-5.203-5.203-5.203zm-359.4 49.91c-2.761 0-5 2.238-5 4.998v35.82c-0.0012 2.761 2.238 4.998 5 4.998h38.04c2.761 0 4.998-2.237 4.998-4.998v-35.82c0-2.761-2.237-4.998-4.998-4.998zm56.23 0c-2.761 0-4.998 2.238-4.998 4.998v35.82c0 2.761 2.237 4.998 4.998 4.998h36.2c2.761 0 4.998-2.237 4.998-4.998v-35.82c0-2.761-2.238-4.998-4.998-4.998zm54.39 0c-2.761 0-4.998 2.238-4.998 4.998v35.82c0 2.761 2.238 4.998 4.998 4.998h90.59c2.761 0 4.998-2.237 4.998-4.998v-35.82c1e-3 -2.761-2.237-4.998-4.998-4.998zm108.8 0c-2.761 0-4.998 2.238-4.998 4.998v35.82c0 2.761 2.237 4.998 4.998 4.998h36.2c2.761 0 4.998-2.237 4.998-4.998v-35.82c0-2.761-2.238-4.998-4.998-4.998zm54.39 0c-2.761 0-4.998 2.238-4.998 4.998v35.82c0 2.761 2.237 4.998 4.998 4.998h33.79c2.761 0 4.998-2.237 4.998-4.998v-35.82c0-2.761-2.237-4.998-4.998-4.998zm85.59 0c-2.874 0-5.203 2.329-5.203 5.203v35.41c0 2.874 2.329 5.203 5.203 5.203h24.1c2.874 0 5.203-2.33 5.203-5.203v-35.41c0-2.874-2.33-5.203-5.203-5.203zm42.69 0c-2.874 0-5.203 2.329-5.203 5.203v35.41c0 2.874 2.329 5.203 5.203 5.203h25.21c2.874 0 5.203-2.33 5.203-5.203v-35.41c0-2.874-2.33-5.203-5.203-5.203z" fill="#4d4d4d"/>
</svg>
