<?xml version="1.0" encoding="iso-8859-1"?>
<!-- Uploaded to: SVG Repo, www.svgrepo.com, Generator: SVG Repo Mixer Tools -->
<!DOCTYPE svg PUBLIC "-//W3C//DTD SVG 1.1//EN" "http://www.w3.org/Graphics/SVG/1.1/DTD/svg11.dtd">
<svg height="800px" width="800px" version="1.1" id="Capa_1" xmlns="http://www.w3.org/2000/svg" xmlns:xlink="http://www.w3.org/1999/xlink" 
	 viewBox="0 0 436 436" xml:space="preserve">
<g>
	<path style="fill:#CCCCCC;" d="M416.692,380.573H19.308C8.645,380.573,0,371.929,0,361.265V209.881
		c0-10.664,8.645-19.308,19.308-19.308h397.384c10.664,0,19.308,8.645,19.308,19.308v151.384
		C436,371.929,427.355,380.573,416.692,380.573z"/>
	<g>
		<path style="fill:#4D4D4D;" d="M400.552,267.74h-21.548c-2.457,0-4.448,1.991-4.448,4.448v26.77c0,2.457,1.991,4.448,4.448,4.448
			h21.548c2.457,0,4.448-1.992,4.448-4.448v-26.77C405,269.732,403.009,267.74,400.552,267.74z"/>
		<path style="fill:#4D4D4D;" d="M405,256.292v-30.27c0-2.457-1.992-4.448-4.448-4.448h-21.548c-2.457,0-4.448,1.992-4.448,4.448
			v30.27c0,2.457,1.991,4.448,4.448,4.448h21.548C403.009,260.74,405,258.749,405,256.292z"/>
		<path style="fill:#4D4D4D;" d="M342.506,303.407h20.602c2.457,0,4.448-1.992,4.448-4.448v-26.77c0-2.457-1.992-4.448-4.448-4.448
			h-20.602c-2.457,0-4.448,1.991-4.448,4.448v26.77C338.058,301.415,340.049,303.407,342.506,303.407z"/>
		<path style="fill:#4D4D4D;" d="M342.506,349.573h20.602c2.457,0,4.448-1.992,4.448-4.448v-30.27c0-2.457-1.992-4.448-4.448-4.448
			h-20.602c-2.457,0-4.448,1.991-4.448,4.448l0,30.27C338.058,347.582,340.049,349.573,342.506,349.573z"/>
		<path style="fill:#4D4D4D;" d="M342.506,260.74h20.602c2.457,0,4.448-1.992,4.448-4.448v-30.27c0-2.457-1.992-4.448-4.448-4.448
			h-20.602c-2.457,0-4.448,1.992-4.448,4.448l0,30.27C338.058,258.749,340.049,260.74,342.506,260.74z"/>
		<path style="fill:#4D4D4D;" d="M374.556,314.855v30.27c0,2.457,1.991,4.448,4.448,4.448h21.548c2.457,0,4.448-1.992,4.448-4.448
			v-30.27c0-2.457-1.992-4.448-4.448-4.448h-21.548C376.547,310.407,374.556,312.398,374.556,314.855z"/>
	</g>
	<g>
		<path style="fill:#4D4D4D;" d="M118.568,345.3v-30.62c0-2.36-1.913-4.273-4.273-4.273H83.344c-2.36,0-4.273,1.913-4.273,4.273
			v30.62c0,2.36,1.913,4.273,4.273,4.273h30.951C116.655,349.573,118.568,347.66,118.568,345.3z"/>
		<path style="fill:#4D4D4D;" d="M139.794,267.74h-30.951c-2.36,0-4.273,1.913-4.273,4.273v27.12c0,2.36,1.913,4.273,4.273,4.273
			h30.951c2.36,0,4.273-1.913,4.273-4.273v-27.12C144.068,269.653,142.154,267.74,139.794,267.74z"/>
		<path style="fill:#4D4D4D;" d="M207.29,310.407h-77.448c-2.36,0-4.273,1.913-4.273,4.273v30.62c0,2.36,1.913,4.273,4.273,4.273
			h77.448c2.36,0,4.273-1.913,4.273-4.273v-30.62C211.564,312.32,209.65,310.407,207.29,310.407z"/>
		<path style="fill:#4D4D4D;" d="M61.071,272.014v27.12c0,2.36,1.913,4.273,4.273,4.273h27.951c2.36,0,4.273-1.913,4.273-4.273
			v-27.12c0-2.36-1.913-4.273-4.273-4.273H65.345C62.985,267.74,61.071,269.653,61.071,272.014z"/>
		<path style="fill:#4D4D4D;" d="M151.068,272.014v27.12c0,2.36,1.913,4.273,4.273,4.273h30.95c2.36,0,4.273-1.913,4.273-4.273
			v-27.12c0-2.36-1.913-4.273-4.273-4.273h-30.95C152.981,267.74,151.068,269.653,151.068,272.014z"/>
		<path style="fill:#4D4D4D;" d="M302.495,256.467v-30.62c0-2.36-1.913-4.273-4.273-4.273h-28.886c-2.36,0-4.273,1.913-4.273,4.273
			v30.62c0,2.36,1.913,4.273,4.273,4.273h28.886C300.582,260.74,302.495,258.827,302.495,256.467z"/>
		<path style="fill:#4D4D4D;" d="M222.837,349.573h30.951c2.36,0,4.273-1.913,4.273-4.273v-30.62c0-2.36-1.913-4.273-4.273-4.273
			h-30.951c-2.36,0-4.273,1.913-4.273,4.273v30.62C218.564,347.66,220.477,349.573,222.837,349.573z"/>
		<path style="fill:#4D4D4D;" d="M118.568,256.467v-30.62c0-2.36-1.913-4.273-4.273-4.273H83.344c-2.36,0-4.273,1.913-4.273,4.273
			v30.62c0,2.36,1.913,4.273,4.273,4.273h30.951C116.655,260.74,118.568,258.827,118.568,256.467z"/>
		<path style="fill:#4D4D4D;" d="M35.274,303.407h14.524c2.36,0,4.273-1.913,4.273-4.273v-27.12c0-2.36-1.913-4.273-4.273-4.273
			H35.274c-2.36,0-4.273,1.913-4.273,4.273v27.12C31,301.493,32.913,303.407,35.274,303.407z"/>
		<path style="fill:#4D4D4D;" d="M35.274,349.573h32.523c2.36,0,4.273-1.913,4.273-4.273v-30.62c0-2.36-1.913-4.273-4.273-4.273
			H35.274c-2.36,0-4.273,1.913-4.273,4.273l0,30.62C31,347.66,32.913,349.573,35.274,349.573z"/>
		<path style="fill:#4D4D4D;" d="M35.274,260.74h32.523c2.36,0,4.273-1.913,4.273-4.273v-30.62c0-2.36-1.913-4.273-4.273-4.273
			H35.274c-2.36,0-4.273,1.913-4.273,4.273l0,30.62C31,258.827,32.913,260.74,35.274,260.74z"/>
		<path style="fill:#4D4D4D;" d="M165.067,256.467v-30.62c0-2.36-1.913-4.273-4.273-4.273h-30.951c-2.36,0-4.273,1.913-4.273,4.273
			v30.62c0,2.36,1.913,4.273,4.273,4.273h30.951C163.153,260.74,165.067,258.827,165.067,256.467z"/>
		<path style="fill:#4D4D4D;" d="M265.062,314.68v30.62c0,2.36,1.913,4.273,4.273,4.273h28.886c2.36,0,4.273-1.913,4.273-4.273
			v-30.62c0-2.36-1.913-4.273-4.273-4.273h-28.886C266.975,310.407,265.062,312.32,265.062,314.68z"/>
		<path style="fill:#4D4D4D;" d="M232.789,267.74h-30.951c-2.36,0-4.273,1.913-4.273,4.273v27.12c0,2.36,1.913,4.273,4.273,4.273
			h30.951c2.36,0,4.273-1.913,4.273-4.273v-27.12C237.063,269.653,235.149,267.74,232.789,267.74z"/>
		<path style="fill:#4D4D4D;" d="M211.564,256.467v-30.62c0-2.36-1.913-4.273-4.273-4.273h-30.95c-2.36,0-4.273,1.913-4.273,4.273
			v30.62c0,2.36,1.913,4.273,4.273,4.273h30.95C209.65,260.74,211.564,258.827,211.564,256.467z"/>
		<path style="fill:#4D4D4D;" d="M298.222,267.74h-49.885c-2.36,0-4.273,1.913-4.273,4.273v27.12c0,2.36,1.913,4.273,4.273,4.273
			h49.885c2.36,0,4.273-1.913,4.273-4.273v-27.12C302.495,269.653,300.582,267.74,298.222,267.74z"/>
		<path style="fill:#4D4D4D;" d="M258.062,256.467v-30.62c0-2.36-1.913-4.273-4.273-4.273h-30.951c-2.36,0-4.273,1.913-4.273,4.273
			v30.62c0,2.36,1.913,4.273,4.273,4.273h30.951C256.148,260.74,258.062,258.827,258.062,256.467z"/>
	</g>
	<path style="fill:#66645D;" d="M66.071,190.573h-20v-24.152c0-17.92,14.579-32.499,32.499-32.499h271.486
		c6.892,0,12.499-5.607,12.499-12.499c0-6.892-5.607-12.499-12.499-12.499H74.07c-17.92,0-32.498-14.579-32.498-32.499V55.427h20
		v20.999c0,6.892,5.606,12.499,12.498,12.499h275.986c17.92,0,32.499,14.579,32.499,32.499s-14.579,32.499-32.499,32.499H78.57
		c-6.892,0-12.499,5.607-12.499,12.499V190.573z"/>
</g>
</svg>