<?xml version="1.0" encoding="UTF-8"?>
<svg width="512" height="512" version="1.1" viewBox="0 0 512 512" xmlns="http://www.w3.org/2000/svg">
 <defs>
  <linearGradient id="a" x1="374" x2="374" y1="165" y2="373" gradientUnits="userSpaceOnUse">
   <stop style="stop-color:#e5e5e5" offset="0"/>
   <stop style="stop-color:#bfbfbf" offset="1"/>
  </linearGradient>
 </defs>
 <path d="m78.3 158h-23.4v-28.2c0-21 17-38 38-38h318c8.06 0 14.6-6.56 14.6-14.6 0-8.06-6.56-14.6-14.6-14.6h-323c-21 0-38-17-38-38v-24.6h23.4v24.6c0 8.06 6.56 14.6 14.6 14.6h323c21 0 38 17 38 38s-17 38-38 38h-318c-8.06 0-14.6 6.56-14.6 14.6z" fill="#808080"/>
 <path d="m487 379h-461c-12.4 0-22.4-10-22.4-22.4v-176c0-12.4 10-22.4 22.4-22.4h461c12.4 0 22.4 10 22.4 22.4v176c0 12.4-10 22.4-22.4 22.4z" style="fill:url(#a);stroke-width:4;stroke:#999"/>
 <path d="m42.26 194.3c-2.761 0-5 2.238-5 4.998v35.82c-0.0012 2.761 2.238 4.998 5 4.998h38.04c2.761 0 4.998-2.238 4.998-4.998v-35.82c0-2.761-2.237-4.998-4.998-4.998zm56.23 0c-2.761 0-4.998 2.238-4.998 4.998v35.82c0 2.761 2.237 4.998 4.998 4.998h36.2c2.761 0 4.998-2.238 4.998-4.998v-35.82c0-2.761-2.238-4.998-4.998-4.998zm54.39 0c-2.761 0-4.998 2.238-4.998 4.998v35.82c0 2.761 2.238 4.998 4.998 4.998h36.2c2.759 0 4.998-2.238 4.998-4.998v-35.82c0-2.761-2.238-4.998-4.998-4.998zm54.39 0c-2.761 0-4.998 2.238-4.998 4.998v35.82c0 2.761 2.238 4.998 4.998 4.998h36.2c2.759 0 4.998-2.238 4.998-4.998v-35.82c0-2.761-2.237-4.998-4.998-4.998zm54.39 0c-2.761 0-4.998 2.238-4.998 4.998v35.82c0 2.761 2.237 4.998 4.998 4.998h36.21c2.759 0 4.998-2.238 4.998-4.998v-35.82c0-2.761-2.238-4.998-4.998-4.998zm54.39 0c-2.761 0-4.998 2.238-4.998 4.998v35.82c0 2.761 2.238 4.998 4.998 4.998h33.79c2.761 0 4.998-2.238 4.998-4.998v-35.82c0-2.761-2.238-4.998-4.998-4.998zm85.59 0c-2.874 0-5.203 2.33-5.203 5.203v35.41c0 2.874 2.329 5.203 5.203 5.203h24.1c2.874 0 5.203-2.33 5.203-5.203v-35.41c0-2.874-2.33-5.203-5.203-5.203zm42.69 0c-2.874 0-5.203 2.33-5.203 5.203v35.41c0 2.874 2.329 5.203 5.203 5.203h25.21c2.874 0 5.203-2.329 5.203-5.203v-35.41c0-2.874-2.33-5.203-5.203-5.203zm-316 54c-2.761 0-4.998 2.237-4.998 4.998v31.72c0 2.761 2.238 4.998 4.998 4.998h36.2c2.761 0 5-2.238 5-4.998v-31.72c1e-3 -2.761-2.239-4.998-5-4.998zm108.8 0c-2.761 0-5 2.237-5 4.998v31.72c0 2.761 2.239 4.998 5 4.998h36.2c2.761 0 4.998-2.238 4.998-4.998v-31.72c9.9e-4 -2.761-2.238-4.998-4.998-4.998zm54.39 0c-2.761 0-4.998 2.237-4.998 4.998v31.72c0 2.761 2.238 4.998 4.998 4.998h58.35c2.761 0 4.998-2.238 4.998-4.998v-31.72c0-2.761-2.238-4.998-4.998-4.998zm152.8 0c-2.874 0-5.203 2.329-5.203 5.203v31.31c0 2.874 2.329 5.203 5.203 5.203h25.21c2.874 0 5.203-2.33 5.203-5.203v-31.31c0-2.873-2.329-5.203-5.203-5.203zm-402.1 2e-3c-2.761 0-5 2.238-5 4.998v31.72c-0.0012 2.759 2.238 4.998 5 4.998h16.99c2.761 0 4.998-2.238 4.998-4.998v-31.72c0-2.761-2.237-4.998-4.998-4.998zm35.17 0c-2.761-1e-3 -5 2.236-5 4.998v31.72c0 2.761 2.237 4.998 4.998 4.998h32.7c2.761 0 4.998-2.238 4.998-4.998v-31.72c0-2.761-2.237-4.998-4.998-4.998zm105.3 0c-2.761-1e-3 -5 2.236-5 4.998v31.72c0 2.761 2.239 4.998 5 4.998h36.2c2.761 0 4.998-2.238 4.998-4.998v-31.72c0-2.761-2.237-4.998-4.998-4.998zm218.9 0c-2.874 0-5.203 2.329-5.203 5.203v31.31c0 2.873 2.329 5.203 5.203 5.203h24.1c2.874 0 5.203-2.33 5.203-5.203v-31.31c0-2.874-2.33-5.203-5.203-5.203zm-359.4 49.91c-2.761 0-5 2.238-5 4.998v35.82c-0.0012 2.761 2.238 4.998 5 4.998h38.04c2.761 0 4.998-2.237 4.998-4.998v-35.82c0-2.761-2.237-4.998-4.998-4.998zm56.23 0c-2.761 0-4.998 2.238-4.998 4.998v35.82c0 2.761 2.237 4.998 4.998 4.998h36.2c2.761 0 4.998-2.237 4.998-4.998v-35.82c0-2.761-2.238-4.998-4.998-4.998zm54.39 0c-2.761 0-4.998 2.238-4.998 4.998v35.82c0 2.761 2.238 4.998 4.998 4.998h90.59c2.761 0 4.998-2.237 4.998-4.998v-35.82c1e-3 -2.761-2.237-4.998-4.998-4.998zm108.8 0c-2.761 0-4.998 2.238-4.998 4.998v35.82c0 2.761 2.237 4.998 4.998 4.998h36.2c2.761 0 4.998-2.237 4.998-4.998v-35.82c0-2.761-2.238-4.998-4.998-4.998zm54.39 0c-2.761 0-4.998 2.238-4.998 4.998v35.82c0 2.761 2.237 4.998 4.998 4.998h33.79c2.761 0 4.998-2.237 4.998-4.998v-35.82c0-2.761-2.237-4.998-4.998-4.998zm85.59 0c-2.874 0-5.203 2.329-5.203 5.203v35.41c0 2.874 2.329 5.203 5.203 5.203h24.1c2.874 0 5.203-2.33 5.203-5.203v-35.41c0-2.874-2.33-5.203-5.203-5.203zm42.69 0c-2.874 0-5.203 2.329-5.203 5.203v35.41c0 2.874 2.329 5.203 5.203 5.203h25.21c2.874 0 5.203-2.33 5.203-5.203v-35.41c0-2.874-2.33-5.203-5.203-5.203z" fill="#4d4d4d"/>
</svg>
