<?xml version="1.0" encoding="UTF-8"?>
<svg width="512" height="512" version="1.1" viewBox="0 0 512 512" xmlns="http://www.w3.org/2000/svg">
 <defs>
  <linearGradient id="a" x1="148" x2="346" y1="147" y2="346" gradientUnits="userSpaceOnUse">
   <stop style="stop-color:#20405f" offset="0"/>
   <stop style="stop-color:#4c87c8" offset="1"/>
  </linearGradient>
 </defs>
 <rect x="35.3" y="35.3" width="441" height="441" rx="50" ry="50" fill="url(#a)"/>
 <path d="m254 434 69.7-174h32.4l71.2 174-33.9-0.636-18.1-45.4-70.2-0.954-18.5 46.3zm63.2-78.5h46.9l-24.5-57.6z"/>
 <path d="m87 131 0.104-28.7 63.6 0.54-0.307-24.8 30.4 0.17 0.526 24.7s47 0.812 70.5 1.19c0.562 6.07-11.5 83.5-52.5 121 13.3 10.5 34.8 19.2 54.6 27.6l-16.2 26.5c-20.4-8.28-40.4-17.5-63.5-35-27.3 16.6-57 21.5-87.7 23l-2-29.1c25.4-1.14 52.3-1.74 67.9-13.2-18.7-18.8-32.4-40.2-38.9-61.1l27.4-11.9c4.65 12.5 10.1 36.1 36.6 56.4 20.9-19.5 32.9-48.4 40-77.7z" fill="#fff"/>
</svg>
