<?xml version="1.0" encoding="UTF-8"?>
<svg width="512" height="512" version="1.1" viewBox="0 0 512 512" xmlns="http://www.w3.org/2000/svg">
 <path d="m505 63-56.1-56.1c-3.4-3.4-10.2-5.95-14.4-5.95h-374v34h-34v-34h-17c-4.25 0-8.5 4.25-8.5 8.5v493c0 4.25 4.25 8.5 8.5 8.5h493c4.25 0 8.5-4.25 8.5-8.5v-425c0-5.1-2.55-11-5.95-14.4" fill="#3e4347"/>
 <path d="m86 511v-238c0-9.35 7.65-17 17-17h306c9.35 0 17 7.65 17 17v238h-340" fill="#fff"/>
 <path d="m137 1v170c0 9.35 7.65 17 17 17h255c9.35 0 17-7.65 17-17v-170h-289" fill="#e8e8e8"/>
 <path d="m290 35h85v136h-85z" fill="#3e4347"/>
 <path d="m486 460c0-5.1-4.25-8.5-8.5-8.5h-17c-4.25 0-8.5 3.4-8.5 8.5v17c0 4.25 4.25 8.5 8.5 8.5h17c4.25 0 8.5-4.25 8.5-8.5v-17" fill="#fff"/>
 <path d="m128.5 290v17h255v-17zm0 51v17h255v-17zm0 51v17h255v-17zm-42.5 51v68h340.2l-4e-3 -68z" fill="#f15744"/>
</svg>
