<?xml version="1.0" encoding="UTF-8"?>
<svg width="512" height="512" version="1.1" viewBox="0 0 512 512" xmlns="http://www.w3.org/2000/svg">
 <defs>
  <linearGradient id="a" x1="311" x2="410" y1="293" y2="293" gradientUnits="userSpaceOnUse">
   <stop style="stop-color:#007ed8" offset="0"/>
   <stop style="stop-color:#005ea1" offset="1"/>
  </linearGradient>
 </defs>
 <rect x="285" y="3.5" width="125" height="98.4" style="fill:#ececec;stroke-width:5;stroke:#808080"/>
 <rect x="311" y="30.4" width="19.9" height="16.8" style="fill:#999;stroke-width:5;stroke:#808080"/>
 <rect x="363" y="30.4" width="19.9" height="16.8" style="fill:#999;stroke-width:5;stroke:#808080"/>
 <path d="m290 79.1h-19.8c-9.85 0-17.7 7.9-17.7 17.7v14.1s45.3 37.2 67.8 55.9c3.35 2.78 3.98 3.5 3.98 8.15v257c0 11.7-9.37 21-21 21h-50.8v17.8c0 9.85 7.9 17.6 17.7 17.7l49.8 0.638c1.19 28.7 48.9 31.1 52.7 0l49.8-0.638c9.85-0.126 17.7-7.9 17.7-17.7v-374c0-9.85-7.9-17.7-17.7-17.7h-19.8zm41.9 410h28.2c-1.2 15.6-27.3 15.9-28.2 0z" fill="url(#a)"/>
 <rect x="86.4" y="144" width="175" height="66" rx="10" ry="10" fill="#ffce54"/>
 <path d="m83 128c-6.14-7e-5 -11 4.95-11 11.1v287c0 6.14 4.86 11.1 11 11.1h212c6.14 0 11.1-4.96 11.1-11.1v-248l-59.7-49.6zm14.3 18.5h7.16c2.73 0 4.84 2.09 4.84 4.84v49.8c0 2.73-2.1 5-4.84 5h-7.16c-2.73 0-5-2.26-5-5v-49.8c0-2.73 2.26-4.84 5-4.84zm30.2 0h7.24c2.73 0 4.92 2.09 4.92 4.84v49.8c0 2.73-2.18 5-4.92 5h-7.24c-2.73 0-4.84-2.26-4.84-5v-49.8c0-2.73 2.09-4.84 4.84-4.84zm30.4 0h7.08c2.73 0 5 2.09 5 4.84v49.8c0 2.73-2.26 5-5 5h-7.08c-2.73 0-4.92-2.26-4.92-5v-49.8c0-2.73 2.18-4.84 4.92-4.84zm30.3 0h7.16c2.73 0 4.92 2.09 4.92 4.84v49.8c0 2.73-2.18 5-4.92 5h-7.16c-2.73 0-4.92-2.26-4.92-5v-49.8c0-2.73 2.18-4.84 4.92-4.84zm30.3 0h7.16c2.73 0 4.92 2.09 4.92 4.84v49.8c0 2.73-2.18 5-4.92 5h-7.16c-2.73 0-4.92-2.26-4.92-5v-49.8c0-2.73 2.18-4.84 4.92-4.84zm30.3 7.98h7.16c2.73 0 5 2.09 5 4.84v41.8c0 2.73-2.26 5-5 5h-7.16c-2.73 0-4.92-2.26-4.92-5v-41.8c0-2.73 2.18-4.84 4.92-4.84z" fill="#666"/>
 <path d="m324 200-9e-3 -6.83 22-39.7 26.9 45.9-18.9 0.12-0.279 112c1.6-0.877 3.19-1.69 4.89-2.59 11-5.68 32.9-11 31.9-44.9h-14v-38.9h40.9v38.9h-14c-0.528 39.9-24.9 48.9-38.9 56.8-5.18 2.69-9.57 4.98-11 9.07l-0.14 58.8c9.97 2.79 16.9 12 16.9 21.9 0.0279 13-9.97 22.9-22.9 22.9-13 0.0289-22.9-9.97-22.9-22.9-0.0209-9.67 5.98-17.9 15-21.9l0.0907-31.9c-1.38-6.71-5.69-9.03-15.5-11.3l-9.9e-4 -13.9 7.6 3.16c2.58 1.03 5.28 2.09 8.08 3.39l0.339-138z" fill="#fff"/>
 <rect x="92.8" y="233" width="193" height="186" rx="10" ry="10" fill="#b3b3b3"/>
</svg>
