<?xml version="1.0" encoding="UTF-8"?>
<svg width="512" height="512" version="1.1" viewBox="0 0 512 512" xmlns="http://www.w3.org/2000/svg">
 <path d="m85.3 192h-10.6v-107l64.3-64h298v150h-10v64h10v277h-362v-299h10.6z" fill="#4a89dc"/>
 <path d="m437 192c0 5.89-4.77 10.7-10.7 10.7s-10.7-4.77-10.7-10.7 4.78-10.7 10.7-10.7 10.7 4.77 10.7 10.7z" fill="#ccd1d9"/>
 <path d="m85.3 192h-10.6v-128l64.3-64h298v171h-10v64h10v256h-362v-278h10.6z" fill="#5d9cec"/>
 <path d="m128 64c-5.89 0-10.7 4.77-10.7 10.7v64c0 5.89 4.78 10.7 10.7 10.7s10.7-4.78 10.7-10.7v-64c0-5.89-4.78-10.7-10.7-10.7z" fill="#ffce54"/>
 <path d="m171 42.7c-5.89 0-10.7 4.78-10.7 10.7v64c0 5.89 4.78 10.7 10.7 10.7s10.7-4.77 10.7-10.7v-64c0-5.89-4.77-10.7-10.7-10.7z" fill="#ffce54"/>
 <path d="m213 42.7c-5.89 0-10.7 4.78-10.7 10.7v64c0 5.89 4.77 10.7 10.7 10.7s10.7-4.77 10.7-10.7v-64c0-5.89-4.78-10.7-10.7-10.7z" fill="#ffce54"/>
 <path d="m256 42.7c-5.89 0-10.7 4.78-10.7 10.7v64c0 5.89 4.78 10.7 10.7 10.7s10.7-4.77 10.7-10.7v-64c0-5.89-4.78-10.7-10.7-10.7z" fill="#ffce54"/>
 <path d="m299 42.7c-5.89 0-10.7 4.78-10.7 10.7v64c0 5.89 4.78 10.7 10.7 10.7s10.7-4.77 10.7-10.7v-64c0-5.89-4.77-10.7-10.7-10.7z" fill="#ffce54"/>
 <path d="m341 42.7c-5.89 0-10.7 4.78-10.7 10.7v64c0 5.89 4.77 10.7 10.7 10.7s10.7-4.77 10.7-10.7v-64c0-5.89-4.78-10.7-10.7-10.7z" fill="#ffce54"/>
 <path d="m384 42.7c-5.89 0-10.7 4.78-10.7 10.7v64c0 5.89 4.78 10.7 10.7 10.7s10.7-4.77 10.7-10.7v-64c0-5.89-4.78-10.7-10.7-10.7z" fill="#ffce54"/>
 <path d="m279 398c-17-4.81-26.1-5.41-26.1-12.8 0-6.11 5.16-9.7 13.8-9.7 9.95 0 15.5 4.44 16.2 12.7h17.7c-0.375-19-14.9-27.2-32.8-27.2-19.9 0-32.8 10.1-32.8 25.5 0 17.4 13.3 20.9 27.2 24.8 17.6 5.03 23.4 6.25 23.4 13 0 7.08-5.98 11.4-15.8 11.4-11.4 0-18.9-4.56-19.3-16.1h-18.6c0.234 19.3 13.9 30.4 37 30.4 17.4 0 35.1-7.44 35.1-27.6 0-14.3-9.7-20.1-24.9-24.4z" fill="#2a73d5"/>
 <path d="m353 363h-34.5v85.3h34.5c26.5 0 41.3-15.2 41.3-42.7 0-27.6-14.9-42.7-41.3-42.7zm-2.28 69.8h-13.7v-54.2h13.7c16.9 0 24.8 9.94 24.8 27.1s-7.67 27.1-24.8 27.1z" fill="#2a73d5"/>
</svg>
