<?xml version="1.0" encoding="utf-8"?>
<!-- Uploaded to: SVG Repo, www.svgrepo.com, Generator: SVG Repo Mixer Tools -->
<!DOCTYPE svg PUBLIC "-//W3C//DTD SVG 1.1//EN" "http://www.w3.org/Graphics/SVG/1.1/DTD/svg11.dtd">
<svg xmlns="http://www.w3.org/2000/svg" xmlns:xlink="http://www.w3.org/1999/xlink" version="1.1" id="Layer_1"  width="512" height="512" viewBox="0 0 512 512" enable-background="new 0 0 512 512" xml:space="preserve">
<g id="sd_card">
	<g>
		<polygon fill="#4A89DC" points="437.328,512 74.672,512 74.672,213.336 85.328,213.336 85.328,192.031 74.672,192 74.672,85.336     138.672,21.336 437.328,21.336 437.328,170.664 426.672,170.664 426.672,234.664 437.328,234.664   "/>
	</g>
	<path fill="#CCD1D9" d="M437.328,192c0,5.891-4.766,10.664-10.656,10.664S416,197.891,416,192s4.781-10.664,10.672-10.664   S437.328,186.109,437.328,192z"/>
	<g>
		<polygon fill="#5D9CEC" points="437.328,490.656 74.672,490.656 74.672,213.336 85.328,213.336 85.328,192.031 74.672,192     74.672,64 138.672,0 437.328,0 437.328,170.664 426.672,170.664 426.672,234.664 437.328,234.664   "/>
	</g>
	<g>
		<path fill="#FFCE54" d="M128,64c-5.891,0-10.672,4.773-10.672,10.664v64c0,5.891,4.781,10.672,10.672,10.672    s10.672-4.781,10.672-10.672v-64C138.672,68.773,133.891,64,128,64z"/>
		<path fill="#FFCE54" d="M170.672,42.664c-5.891,0-10.672,4.781-10.672,10.672v64c0,5.891,4.781,10.664,10.672,10.664    s10.656-4.773,10.656-10.664v-64C181.328,47.445,176.562,42.664,170.672,42.664z"/>
		<path fill="#FFCE54" d="M213.328,42.664c-5.891,0-10.656,4.781-10.656,10.672v64c0,5.891,4.766,10.664,10.656,10.664    S224,123.227,224,117.336v-64C224,47.445,219.219,42.664,213.328,42.664z"/>
		<path fill="#FFCE54" d="M256,42.664c-5.891,0-10.672,4.781-10.672,10.672v64c0,5.891,4.781,10.664,10.672,10.664    s10.672-4.773,10.672-10.664v-64C266.672,47.445,261.891,42.664,256,42.664z"/>
		<path fill="#FFCE54" d="M298.672,42.664c-5.891,0-10.672,4.781-10.672,10.672v64c0,5.891,4.781,10.664,10.672,10.664    s10.656-4.773,10.656-10.664v-64C309.328,47.445,304.562,42.664,298.672,42.664z"/>
		<path fill="#FFCE54" d="M341.328,42.664c-5.891,0-10.656,4.781-10.656,10.672v64c0,5.891,4.766,10.664,10.656,10.664    S352,123.227,352,117.336v-64C352,47.445,347.219,42.664,341.328,42.664z"/>
		<path fill="#FFCE54" d="M384,42.664c-5.891,0-10.672,4.781-10.672,10.672v64c0,5.891,4.781,10.664,10.672,10.664    s10.672-4.773,10.672-10.664v-64C394.672,47.445,389.891,42.664,384,42.664z"/>
	</g>
	<g>
		<path fill="#4A89DC" d="M279.234,397.938c-17.016-4.812-26.125-5.406-26.125-12.828c0-6.109,5.156-9.703,13.781-9.703    c9.953,0,15.453,4.438,16.188,12.688h17.734c-0.375-19.047-14.859-27.188-32.844-27.188c-19.891,0-32.828,10.062-32.828,25.516    c0,17.375,13.297,20.859,27.203,24.797c17.609,5.031,23.359,6.25,23.359,12.953c0,7.078-5.984,11.391-15.812,11.391    c-11.391,0-18.938-4.562-19.297-16.062h-18.562c0.234,19.281,13.891,30.438,37.016,30.438c17.375,0,35.109-7.438,35.109-27.562    C304.156,408.109,294.453,402.25,279.234,397.938z"/>
		<path fill="#4A89DC" d="M353.328,362.688h-34.516v85.328h34.516c26.484,0,41.344-15.219,41.344-42.656    C394.672,377.797,379.812,362.688,353.328,362.688z M351.047,432.438h-13.656v-54.156h13.656c16.891,0,24.812,9.938,24.812,27.078    S368.188,432.438,351.047,432.438z"/>
	</g>
</g>
</svg>