<?xml version="1.0" encoding="UTF-8" standalone="no"?>
<!-- Uploaded to: SVG Repo, www.svgrepo.com, Generator: SVG Repo Mixer Tools -->
<svg xmlns:dc="http://purl.org/dc/elements/1.1/"
     xmlns:cc="http://creativecommons.org/ns#"
     xmlns:rdf="http://www.w3.org/1999/02/22-rdf-syntax-ns#"
     xmlns:svg="http://www.w3.org/2000/svg"
     xmlns="http://www.w3.org/2000/svg"
     xmlns:xlink="http://www.w3.org/1999/xlink"
     width="128" height="128" version="1.1">
    <title>Pen Drive + Card Icon</title>
    <desc>This is shape (source) for Clarity vector icon theme for gtk</desc>
    <metadata>
        <rdf:RDF>
            <cc:Work rdf:about="">
                <dc:title>Pen Drive + Card Icon</dc:title>
                <dc:description>This is shape (source) for Clarity vector icon theme for gtk</dc:description>
                <dc:creator>
                    <cc:Agent>
                        <dc:title>Jakub Jankiewicz</dc:title>
                    </cc:Agent>
                </dc:creator>
                <dc:rights>
                    <cc:Agent>
                        <dc:title>Jakub Jankiewicz</dc:title>
                    </cc:Agent>
                </dc:rights>
                <dc:date>2010</dc:date>
                <dc:format>image/svg+xml</dc:format>
                <dc:type rdf:resource="http://purl.org/dc/dcmitype/StillImage" />
                <cc:license rdf:resource="http://creativecommons.org/licenses/by-sa/3.0/" />
             </cc:Work>
        </rdf:RDF>
    </metadata>
    <path d="M 68.40039,6.2343769 V 22.828127 h -4.5 c -2.238022,0 -4.03125,1.793224 -4.03125,4.03125 v 4.501953 h 5.371094 c 0.824044,0 1.146287,0.04585 1.818359,0.603515 l 14.121094,11.714844 c 0.761098,0.631534 0.904297,0.795677 0.904297,1.851563 v 58.333978 c 0,2.64896 -2.130338,4.78125 -4.779297,4.78125 H 59.86914 v 4.05664 c 0,2.23801 1.793228,4.03125 4.03125,4.03125 h 10.6875 c 0.115719,2.79739 2.423339,5.03125 5.25,5.03125 h 1.46875 c 2.826662,0 5.13428,-2.23386 5.25,-5.03125 h 11.937501 c 2.238019,0 4.031249,-1.79323 4.031249,-4.03125 V 26.859377 c 0,-2.238026 -1.79323,-4.03125 -4.031249,-4.03125 H 93.99414 V 6.2343769 Z m 4.4375,5.3125001 h 4.09375 c 0.46792,0 0.84375,0.375833 0.84375,0.84375 v 2.875 c 0,0.467917 -0.37583,0.84375 -0.84375,0.84375 h -4.09375 c -0.467922,0 -0.84375,-0.375833 -0.84375,-0.84375 v -2.875 c 0,-0.467917 0.375828,-0.84375 0.84375,-0.84375 z m 12.625,0 h 4.125 c 0.46792,0 0.84375,0.375833 0.84375,0.84375 v 2.875 c 0,0.467917 -0.37583,0.84375 -0.84375,0.84375 h -4.125 c -0.467921,0 -0.84375,-0.375833 -0.84375,-0.84375 v -2.875 c 0,-0.467917 0.375829,-0.84375 0.84375,-0.84375 z m -57.490234,23.84375 c -1.394715,-1.7e-5 -2.498047,1.122863 -2.498047,2.517578 v 65.148435 c 0,1.39472 1.103332,2.51953 2.498047,2.51953 h 48.166015 c 1.39471,0 2.517579,-1.12481 2.517579,-2.51953 V 46.656252 L 65.082031,35.390627 Z m 2.783203,4.222656 h 1.173828 c 0.621533,0 1.099609,0.476123 1.099609,1.097656 v 11.302735 c 0,0.621534 -0.478076,1.136718 -1.099609,1.136718 h -1.173828 c -0.621536,0 -1.134766,-0.515184 -1.134766,-1.136718 V 40.710939 c 0,-0.621533 0.51323,-1.097656 1.134766,-1.097656 z m 5.964844,0 h 1.191406 c 0.621535,0 1.117187,0.476123 1.117187,1.097656 v 11.302735 c 0,0.621534 -0.495652,1.136718 -1.117187,1.136718 h -1.191406 c -0.621536,0 -1.097657,-0.515184 -1.097657,-1.136718 V 40.710939 c 0,-0.621533 0.476121,-1.097656 1.097657,-1.097656 z m 6.001953,0 h 1.154297 c 0.621535,0 1.136718,0.476123 1.136718,1.097656 v 11.302735 c 0,0.621534 -0.515183,1.136718 -1.136718,1.136718 h -1.154297 c -0.621536,0 -1.117188,-0.515184 -1.117188,-1.136718 V 40.710939 c 0,-0.621533 0.495652,-1.097656 1.117188,-1.097656 z m 5.982422,0 h 1.173828 c 0.621535,0 1.117187,0.476123 1.117187,1.097656 v 11.302735 c 0,0.621534 -0.495652,1.136718 -1.117187,1.136718 h -1.173828 c -0.621534,0 -1.117188,-0.515184 -1.117188,-1.136718 V 40.710939 c 0,-0.621533 0.495654,-1.097656 1.117188,-1.097656 z m 5.982422,0 h 1.173828 c 0.621535,0 1.117187,0.476123 1.117187,1.097656 v 11.302735 c 0,0.621534 -0.495652,1.136718 -1.117187,1.136718 H 54.6875 c -0.621536,0 -1.117188,-0.515184 -1.117188,-1.136718 V 40.710939 c 0,-0.621533 0.495652,-1.097656 1.117188,-1.097656 z m 5.982421,0 h 1.173829 c 0.621532,0 1.136718,0.476123 1.136718,1.097656 v 11.302735 c 0,0.621534 -0.515186,1.136718 -1.136718,1.136718 h -1.173829 c -0.621535,0 -1.117187,-0.515184 -1.117187,-1.136718 V 40.710939 c 0,-0.621533 0.495652,-1.097656 1.117187,-1.097656 z M 77.36914,116.73437 h 6.40625 c -0.0927,1.48121 -1.307106,2.65625 -2.8125,2.65625 h -0.78125 c -1.505392,0 -2.71978,-1.17504 -2.8125,-2.65625 z"/>
</svg>