<?xml version="1.0" encoding="UTF-8"?>
<svg width="512" height="512" version="1.1" viewBox="0 0 512 512" xmlns="http://www.w3.org/2000/svg">
 <path d="m275 1v73.3h-19.9c-9.88 0-17.8 7.92-17.8 17.8v19.9h23.7c3.64 0 5.06 0.202 8.03 2.66l62.3 51.7c3.36 2.79 3.99 3.51 3.99 8.17v258c0 11.7-9.4 21.1-21.1 21.1h-77v17.9c0 9.88 7.92 17.8 17.8 17.8h47.2c0.511 12.3 10.7 22.2 23.2 22.2h6.48c12.5 0 22.7-9.86 23.2-22.2h52.7c9.88 0 17.8-7.92 17.8-17.8v-379c0-9.88-7.92-17.8-17.8-17.8h-19.9v-73.3zm19.6 23.5h18.1c2.07 0 3.72 1.66 3.72 3.72v12.7c0 2.07-1.66 3.72-3.72 3.72h-18.1c-2.07 0-3.72-1.66-3.72-3.72v-12.7c0-2.07 1.66-3.72 3.72-3.72zm55.7 0h18.2c2.07 0 3.72 1.66 3.72 3.72v12.7c0 2.07-1.66 3.72-3.72 3.72h-18.2c-2.07 0-3.72-1.66-3.72-3.72v-12.7c0-2.07 1.66-3.72 3.72-3.72zm-254 105c-6.16-7e-5 -11 4.96-11 11.1v288c0 6.16 4.87 11.1 11 11.1h213c6.16 0 11.1-4.97 11.1-11.1v-249l-59.9-49.7zm12.3 18.6h5.18c2.74 0 4.85 2.1 4.85 4.85v49.9c0 2.74-2.11 5.02-4.85 5.02h-5.18c-2.74 0-5.01-2.27-5.01-5.02v-49.9c0-2.74 2.27-4.85 5.01-4.85zm26.3 0h5.26c2.74 0 4.93 2.1 4.93 4.85v49.9c0 2.74-2.19 5.02-4.93 5.02h-5.26c-2.74 0-4.85-2.27-4.85-5.02v-49.9c0-2.74 2.1-4.85 4.85-4.85zm26.5 0h5.1c2.74 0 5.02 2.1 5.02 4.85v49.9c0 2.74-2.27 5.02-5.02 5.02h-5.1c-2.74 0-4.93-2.27-4.93-5.02v-49.9c0-2.74 2.19-4.85 4.93-4.85zm26.4 0h5.18c2.74 0 4.93 2.1 4.93 4.85v49.9c0 2.74-2.19 5.02-4.93 5.02h-5.18c-2.74 0-4.93-2.27-4.93-5.02v-49.9c0-2.74 2.19-4.85 4.93-4.85zm26.4 0h5.18c2.74 0 4.93 2.1 4.93 4.85v49.9c0 2.74-2.19 5.02-4.93 5.02h-5.18c-2.74 0-4.93-2.27-4.93-5.02v-49.9c0-2.74 2.19-4.85 4.93-4.85zm26.4 0h5.18c2.74 0 5.02 2.1 5.02 4.85v49.9c0 2.74-2.27 5.02-5.02 5.02h-5.18c-2.74 0-4.93-2.27-4.93-5.02v-49.9c0-2.74 2.19-4.85 4.93-4.85zm73.7 340h28.3c-0.409 6.54-5.77 11.7-12.4 11.7h-3.45c-6.65 0-12-5.19-12.4-11.7z"/>
</svg>
