<?xml version="1.0" encoding="UTF-8"?>
<svg width="512" height="512" version="1.1" viewBox="0 0 512 512" xmlns="http://www.w3.org/2000/svg">
 <rect transform="rotate(45)" x="247" y="-247" width="230" height="136" fill="#fff"/>
 <path d="m357 60.7-22.3 22.3 24.6 24.6 22.3-22.3zm69.1 69.1-22.3 22.3 24.6 24.6 22.3-22.3z" fill="#39acc6"/>
 <rect transform="rotate(45)" x="222" y="-151" width="280" height="82.3" fill="#f9f3ad"/>
 <path d="m49 463c-63.1-63.1-63.1-166 0-229l170-170 229 229-170 170c-63.4 63.4-166 63.4-229 0z" fill="#eb6b6b"/>
 <path d="m448 293-172 172c-61.8 61.8-162 61.8-224 0l-5.6-5.6c-40.4-40.4-54.3-97.7-41.7-150 0.627 39.7 16 79.2 46.1 109l5.6 5.6c61.8 61.8 162 61.8 224 0l150-150z" style="fill-opacity:.1;fill:#040000"/>
 <circle cx="151" cy="362" r="26.1" fill="#fff"/>
 <rect transform="rotate(45)" x="358" y="-7.11" width="10.1" height="148" fill="#fff"/>
 <path d="m296 218-54 14.5 39.6 39.6zm-104 30.6-27.7 27.7 4.18 63.3 8.64-0.57-3.92-59.3 25-25zm85 49.6-25 25-59.3-3.92-0.57 8.64 63.3 4.18 27.7-27.7z" fill="#fff"/>
 <circle cx="195" cy="251" r="18.7" fill="#fff"/>
 <rect transform="rotate(45)" x="394" y="-1.98" width="32.9" height="32.9" fill="#fff"/>
 <path d="m432 278 29.1-29.1-17.7-17.7 68.1-68.1-81.3-81.3-382 382 2.8 2.8c51.7 51.7 130 60.1 191 25.4 0.558-0.321 1.13-0.612 1.68-0.94 1.19-0.703 2.35-1.47 3.53-2.2 1.05-0.656 2.11-1.28 3.14-1.96 0.731-0.483 1.44-1.01 2.17-1.51 3.62-2.48 7.19-5.09 10.6-7.91 0.547-0.446 1.07-0.932 1.62-1.39 3.57-2.99 7.05-6.12 10.4-9.48l172-172z" style="fill-opacity:.1;fill:#040000"/>
</svg>
