<?xml version="1.0" encoding="utf-8"?><!-- Uploaded to: SVG Repo, www.svgrepo.com, Generator: SVG Repo Mixer Tools -->
<svg width="800px" height="800px" viewBox="0 0 512 512" xmlns="http://www.w3.org/2000/svg" xmlns:xlink="http://www.w3.org/1999/xlink" aria-hidden="true" role="img" class="iconify iconify--fxemoji" preserveAspectRatio="xMidYMid meet"><path d="M484.558 507.003H28.006c-9.94 0-17.998-8.058-17.998-17.998v-85.929c0-9.94 8.058-17.998 17.998-17.998h456.552c9.94 0 17.998 8.058 17.998 17.998v85.929c0 9.94-8.058 17.998-17.998 17.998z" fill="#000000"></path><path fill="#132028" d="M507.167 112.893C507.167 53.585 394.716 5.507 256 5.507S4.833 53.585 4.833 112.893c0 1.85.11 3.69.326 5.517a81.33 81.33 0 0 0-.326 7.05c0 44.418 36.008 80.427 80.427 80.427a80.257 80.257 0 0 0 27.424-4.803c40.646 12.097 90.039 19.195 143.317 19.195s102.671-7.098 143.317-19.195a80.257 80.257 0 0 0 27.424 4.803c44.418 0 80.427-36.008 80.427-80.427a81.35 81.35 0 0 0-.326-7.05c.215-1.828.324-3.667.324-5.517z"></path><path fill="#5A5D5E" d="M473.477 288.609l-45.639-127.294C415.415 135.367 387 117.332 354 113.615V72.102c0-13.518-10.982-24.476-24.5-24.476S305 58.584 305 72.102V113h-98V72.102c0-13.518-10.982-24.476-24.5-24.476S158 58.584 158 72.102v41.513c-33 3.717-61.415 21.751-73.838 47.7L38.595 288.609c-6.415 13.399-8.321 28.1-4.948 42.235C48.116 391.481 112.91 405 190.697 405h130.607c77.787 0 142.617-13.519 157.086-74.157c3.372-14.134 1.503-28.835-4.913-42.234z"></path><path fill="#F4F9F9" d="M212.891 179.082c0 7.857-11.904 14.226-26.588 14.226s-26.588-6.369-26.588-14.226c0-7.857 11.904-14.226 26.588-14.226s26.588 6.369 26.588 14.226zM256 164.856c-14.684 0-26.588 6.369-26.588 14.226c0 7.857 11.904 14.226 26.588 14.226c14.684 0 26.588-6.369 26.588-14.226c0-7.857-11.904-14.226-26.588-14.226zm69.697 0c-14.684 0-26.588 6.369-26.588 14.226c0 7.857 11.904 14.226 26.588 14.226s26.588-6.369 26.588-14.226c0-7.857-11.904-14.226-26.588-14.226zm-153.989 43.419c-17.919 0-32.444 7.772-32.444 17.36c0 9.587 14.526 17.36 32.444 17.36s32.444-7.772 32.444-17.36c0-9.587-14.526-17.36-32.444-17.36zm84.292 0c-17.919 0-32.444 7.772-32.444 17.36c0 9.587 14.526 17.36 32.444 17.36s32.444-7.772 32.444-17.36c0-9.587-14.525-17.36-32.444-17.36zm84.292 0c-17.919 0-32.444 7.772-32.444 17.36c0 9.587 14.526 17.36 32.444 17.36s32.444-7.772 32.444-17.36c.001-9.587-14.525-17.36-32.444-17.36zm-184.353 49.879c-21.413 0-38.772 9.288-38.772 20.745s17.359 20.745 38.772 20.745s38.772-9.288 38.772-20.745s-17.359-20.745-38.772-20.745zm100.061 0c-21.413 0-38.772 9.288-38.772 20.745s17.359 20.745 38.772 20.745s38.772-9.288 38.772-20.745s-17.359-20.745-38.772-20.745zm100.061 0c-21.413 0-38.772 9.288-38.772 20.745s17.359 20.745 38.772 20.745c21.413 0 38.772-9.288 38.772-20.745s-17.359-20.745-38.772-20.745z"></path><circle fill="#FF473E" cx="66.789" cy="454.325" r="21.2"></circle><circle fill="#FFB636" cx="410.423" cy="454.325" r="11.895"></circle><circle fill="#BCBCBC" cx="460.139" cy="454.325" r="11.895"></circle><path fill="#BCBCBC" d="M297.852 433.124H150.347c-11.709 0-21.2 9.492-21.2 21.2c0 11.709 9.492 21.2 21.2 21.2h147.505c11.709 0 21.2-9.492 21.2-21.2c0-11.708-9.491-21.2-21.2-21.2z"></path></svg>