<?xml version="1.0" encoding="UTF-8"?>
<svg width="512" height="512" version="1.1" viewBox="0 0 512 512" xmlns="http://www.w3.org/2000/svg">
 <path d="m488 511h-464c-10.1 0-18.3-8.18-18.3-18.3v-87.2c0-10.1 8.18-18.3 18.3-18.3h464c10.1 0 18.3 8.18 18.3 18.3v87.2c0 10.1-8.18 18.3-18.3 18.3z"/>
 <path d="m511 110c0-60.2-114-109-255-109-141 0-255 48.8-255 109 0 1.88 0.112 3.75 0.331 5.6a82.6 82.6 0 0 0-0.331 7.16c0 45.1 36.6 81.7 81.7 81.7a81.5 81.5 0 0 0 27.8-4.88c41.3 12.3 91.4 19.5 146 19.5s104-7.21 146-19.5a81.5 81.5 0 0 0 27.8 4.88c45.1 0 81.7-36.6 81.7-81.7a82.6 82.6 0 0 0-0.331-7.16c0.218-1.86 0.329-3.72 0.329-5.6z" fill="#132028"/>
 <path d="m477 289-46.3-129c-12.6-26.3-41.5-44.7-75-48.4v-42.1c0-13.7-11.1-24.8-24.9-24.8s-24.9 11.1-24.9 24.8v41.5h-99.5v-41.5c0-13.7-11.1-24.8-24.9-24.8s-24.9 11.1-24.9 24.8v42.1c-33.5 3.77-62.4 22.1-75 48.4l-46.3 129c-6.51 13.6-8.45 28.5-5.02 42.9 14.7 61.6 80.5 75.3 159 75.3h133c79 0 145-13.7 159-75.3 3.42-14.3 1.53-29.3-4.99-42.9z" fill="#5a5d5e"/>
 <path d="m212 178c0 7.98-12.1 14.4-27 14.4s-27-6.47-27-14.4c0-7.98 12.1-14.4 27-14.4s27 6.47 27 14.4zm43.8-14.4c-14.9 0-27 6.47-27 14.4 0 7.98 12.1 14.4 27 14.4 14.9 0 27-6.47 27-14.4 0-7.98-12.1-14.4-27-14.4zm70.8 0c-14.9 0-27 6.47-27 14.4 0 7.98 12.1 14.4 27 14.4s27-6.47 27-14.4c0-7.98-12.1-14.4-27-14.4zm-156 44.1c-18.2 0-32.9 7.89-32.9 17.6 0 9.73 14.7 17.6 32.9 17.6s32.9-7.89 32.9-17.6c0-9.73-14.7-17.6-32.9-17.6zm85.6 0c-18.2 0-32.9 7.89-32.9 17.6 0 9.73 14.7 17.6 32.9 17.6 18.2 0 32.9-7.89 32.9-17.6 0-9.73-14.7-17.6-32.9-17.6zm85.6 0c-18.2 0-32.9 7.89-32.9 17.6 0 9.73 14.7 17.6 32.9 17.6s32.9-7.89 32.9-17.6c1e-3 -9.73-14.7-17.6-32.9-17.6zm-187 50.6c-21.7 0-39.4 9.43-39.4 21.1 0 11.6 17.6 21.1 39.4 21.1 21.7 0 39.4-9.43 39.4-21.1 0-11.6-17.6-21.1-39.4-21.1zm102 0c-21.7 0-39.4 9.43-39.4 21.1 0 11.6 17.6 21.1 39.4 21.1 21.7 0 39.4-9.43 39.4-21.1 0-11.6-17.6-21.1-39.4-21.1zm102 0c-21.7 0-39.4 9.43-39.4 21.1 0 11.6 17.6 21.1 39.4 21.1 21.7 0 39.4-9.43 39.4-21.1 0-11.6-17.6-21.1-39.4-21.1z" fill="#f4f9f9"/>
 <circle cx="63.9" cy="457" r="21.5" fill="#ff473e"/>
 <circle cx="413" cy="457" r="12.1" fill="#ffb636"/>
 <circle cx="463" cy="457" r="12.1" fill="#bcbcbc"/>
 <path d="m298 436h-150c-11.9 0-21.5 9.64-21.5 21.5 0 11.9 9.64 21.5 21.5 21.5h150c11.9 0 21.5-9.64 21.5-21.5 0-11.9-9.64-21.5-21.5-21.5z" fill="#bcbcbc"/>
</svg>
