<?xml version="1.0" encoding="UTF-8"?>
<svg width="512" height="512" version="1.1" viewBox="0 0 512 512" xmlns="http://www.w3.org/2000/svg">
 <defs>
  <linearGradient id="a" x1="131" x2="373" y1="143" y2="385" gradientUnits="userSpaceOnUse">
   <stop style="stop-color:#5b75b7" offset="0"/>
   <stop style="stop-color:#374b7d" offset="1"/>
  </linearGradient>
 </defs>
 <path d="m256 15.1 241 241-241 241-241-241z" style="fill:url(#a);stroke-width:20;stroke:#354878"/>
 <path d="m260 42.5-22.7 14.3s-2.77-1.2-5.33-2.92l-87 87c6.2 1.35 16 5.34 21.5 17.1 1.31 2.88 7.88 19.3-5.67 34.1-9.13 9.9-23.3 12.6-35 6.83-7.58-3.85-15.8-12.8-17-21.9l-78.9 78.9 69.6 69.6 5.31-9.44 18 1.12 5.77 28.3h20.6l5.39-28.4 16.6-3.06 15.2 25.7 18.6-6.35-3.65-29.6s10.2-5.6 15.4-8.36l22.4 20s10.5-8.43 15.9-12.6l-13.4-26.2s7.91-9.43 12-13.9l27.5 11.1 10.6-16.3-21.2-20.2 7.21-17 28 1.54 5.67-17.3-26.1-16.2 0.577-15.6 28.5-8.27-2.31-19.1-27.6-3.17s-3.51-12.4-5-18.7l23.8-16.2-7.59-17.5-27.6 5.79-11-16 16.3-23.1zm134 142s-4.07 0.602-17.6 3.15c-0.181 8.5-0.361 17-0.54 25.5-5.38 0.841-17.5 4.68-17.5 4.68l-15.9-17.7s-7.33 3.81-15.8 8.83c5.94 18.3 7.3 22.3 7.3 22.3l-13.9 12c-7.05-4.01-21-12.3-21-12.3l-13 13.8 15.1 20.2-8.83 14.2-25-4.5-6.39 17.4 19.5 13.8s-3.92 17.8-4.06 17.3l-24.5 2.99c-0.901 10.8-1.53 18.2-1.53 18.2l24.4 7.83 1.43 17.4-22.3 10.4 4.59 18.6 25.3-1.35 7.3 15.5-18.9 18 11.3 16.1 16.4-7.12 38.2-38.2c-13.6-20.2-19.7-45.7-15.1-71.2 5.39-30.1 27.4-51.6 39.5-59.5 8.7-5.75 38.1-22.5 74.3-13.5 11.6 2.91 22.1 7.88 31.3 14.3l15.4-15.4-58.1-58.1-3 8.48-18.9 0.54z" style="fill-opacity:.5;fill:#fff"/>
</svg>
