<?xml version="1.0" encoding="UTF-8"?>
<svg width="512" height="512" version="1.1" viewBox="0 0 512 512" xmlns="http://www.w3.org/2000/svg">
 <defs>
  <linearGradient id="a" x1="237" x2="275" y1="215" y2="215" gradientUnits="userSpaceOnUse">
   <stop style="stop-color:#4a6a82" offset="0"/>
   <stop style="stop-color:#2c4153" offset="1"/>
  </linearGradient>
  <linearGradient id="b" x1="158" x2="354" y1="302" y2="302" gradientUnits="userSpaceOnUse">
   <stop style="stop-color:#d9d9d9" offset="0"/>
   <stop style="stop-color:#bfbfbf" offset="1"/>
  </linearGradient>
 </defs>
 <path d="m267.9 158.1h-23.39v-28.25c0-20.96 17.05-38.01 38.01-38.01h128c8.062 0 14.62-6.559 14.62-14.62 0-8.062-6.559-14.62-14.62-14.62h-322.8c-20.96 0-38.01-17.05-38.01-38.01v-24.56h23.39v24.56c0 8.062 6.557 14.62 14.62 14.62h322.8c20.96 0 38.01 17.05 38.01 38.01s-17.05 38.01-38.01 38.01h-128c-8.062 0-14.62 6.559-14.62 14.62z" fill="#808080"/>
 <path d="m256 141.2c-45.35-4.3e-4 -96 37.44-96 96.44v129c0 53.28 42.98 96.44 96 96.44s96-43.19 96-96.44v-129c0-58.72-50.65-96.44-96-96.44z" style="fill:url(#b);stroke-width:4;stroke:#b2b2b2"/>
 <ellipse cx="256" cy="407.4" rx="25.92" ry="12.75" fill="#a2b8c0"/>
 <path d="m161.8 237.1v35.63h91.8v-129.7c-50.06 2.224-91.8 43.43-91.8 94.06z" fill="#e2e6e9"/>
 <path d="m258.4 143v129.7h91.8v-35.63c0-50.65-41.76-91.87-91.8-94.06z" fill="#d3d6d9"/>
 <path d="m256 142.9c-1.424 0-0.981 0.1504-2.391 0.2126v128.9l-91.8-0.1525v4.571l188.4 0.3201v-4.572l-91.8-0.1525v-128.9c-1.408-0.0621-0.9655-0.2126-2.389-0.2126z" fill="#6c7782"/>
 <ellipse cx="256" cy="208.6" rx="17" ry="31" fill="url(#a)"/>
</svg>
