<?xml version="1.0" encoding="UTF-8"?>
<svg width="512" height="512" version="1.1" viewBox="0 0 512 512" xmlns="http://www.w3.org/2000/svg">
 <defs>
  <linearGradient id="a" x1="237" x2="275" y1="215" y2="215" gradientUnits="userSpaceOnUse">
   <stop style="stop-color:#6598be" offset="0"/>
   <stop style="stop-color:#314960" offset="1"/>
  </linearGradient>
  <linearGradient id="b" x1="158" x2="354" y1="302" y2="302" gradientUnits="userSpaceOnUse">
   <stop style="stop-color:#d9d9d9" offset="0"/>
   <stop style="stop-color:#bfbfbf" offset="1"/>
  </linearGradient>
 </defs>
 <path d="m268 158h-23.4v-28.2c0-21 17-38 38-38h128c8.06 0 14.6-6.56 14.6-14.6 0-8.06-6.56-14.6-14.6-14.6h-323c-21 0-38-17-38-38v-24.6h23.4v24.6c0 8.06 6.56 14.6 14.6 14.6h323c21 0 38 17 38 38s-17 38-38 38h-128c-8.06 0-14.6 6.56-14.6 14.6z" fill="#808080"/>
 <path d="m256 150.1c-50.52-4.8e-4 -106.9 41.67-106.9 107.3v143.6c0 59.3 47.88 107.3 106.9 107.3s106.9-48.07 106.9-107.3v-143.6c0-65.36-56.42-107.3-106.9-107.3z" style="fill:url(#b);stroke-width:4;stroke:#b2b2b2"/>
 <ellipse cx="256" cy="446" rx="28.9" ry="14.2" fill="#a2b8c0"/>
 <path d="m151.1 256.9v39.66h102.3v-144.4c-55.77 2.475-102.3 48.34-102.3 104.7z" fill="#e2e6e9"/>
 <path d="m258.7 152.1v144.4h102.3v-39.66c0-56.38-46.52-102.3-102.3-104.7z" fill="#d3d6d9"/>
 <path d="m256 152c-1.586 0-1.093 0.1674-2.664 0.2366v34.09s-20.65 2.163-20.65 38.12 20.65 39.5 20.65 39.5v31.8l-102.3-0.1697v5.088l209.9 0.3563v-5.089l-102.3-0.1697v-31.81s20.54-4.052 20.54-39.5-20.54-38.12-20.54-38.12v-34.07c-1.568-0.0691-1.076-0.2366-2.661-0.2366z" fill="#6c7782"/>
 <ellipse cx="256" cy="225.2" rx="18.94" ry="34.5" fill="url(#a)" style="fill:url(#a)"/>
</svg>
