<?xml version="1.0" encoding="iso-8859-1"?>
<!-- Uploaded to: SVG Repo, www.svgrepo.com, Generator: SVG Repo Mixer Tools -->
<svg version="1.1" id="Layer_1" xmlns="http://www.w3.org/2000/svg" xmlns:xlink="http://www.w3.org/1999/xlink" 
	 viewBox="0 0 512.001 512.001" xml:space="preserve">
<path style="fill:#547475;" d="M429.457,333.679c-0.009-0.319-0.022-0.627-0.035-0.932l-0.028-0.639
	c-0.039-1.106-0.077-2.177-0.135-3.246c-0.022-0.393-0.049-0.785-0.075-1.143l-0.049-0.71c-0.062-0.971-0.124-1.937-0.204-2.916
	c-0.033-0.395-0.072-0.805-0.11-1.201l-0.101-1.06c-0.076-0.818-0.154-1.637-0.24-2.429c-0.047-0.424-0.096-0.834-0.146-1.243
	l-0.117-0.971c-0.102-0.834-0.205-1.667-0.317-2.485c-0.07-0.509-0.144-1.006-0.219-1.517l-0.073-0.493
	c-0.131-0.879-0.265-1.763-0.413-2.671c-0.095-0.564-0.196-1.145-0.301-1.741l-0.04-0.221c-0.155-0.874-0.313-1.755-0.481-2.618
	c-0.13-0.673-0.262-1.323-0.392-1.955c-0.183-0.889-0.367-1.764-0.563-2.65c-0.141-0.636-0.285-1.272-0.434-1.91
	c-0.205-0.876-0.417-1.751-0.64-2.648c-0.152-0.605-0.307-1.222-0.474-1.862c-0.229-0.866-0.469-1.752-0.713-2.626l-0.154-0.549
	c-0.117-0.414-0.232-0.828-0.357-1.262c-0.258-0.883-0.53-1.777-0.815-2.71l-0.524-1.677c-0.29-0.909-0.595-1.825-0.91-2.75
	l-0.54-1.593c-0.331-0.946-0.676-1.892-1.021-2.827l-0.533-1.445c-0.388-1.024-0.786-2.025-1.181-3.012l-0.493-1.237
	c-0.465-1.136-0.946-2.257-1.405-3.312l-0.361-0.846c-0.629-1.427-1.259-2.805-1.909-4.179l-0.423-0.894
	c-1.199-2.493-2.492-5.024-3.847-7.525l-0.094-0.181c-26.012-53.78-19.585-95.774-9.609-121.538
	c6.891-17.8,16.203-30.446,22.798-37.919c3.005-3.405,2.966-8.526-0.09-11.885c-0.335-0.368-0.672-0.735-1.015-1.106
	c-30.07-32.45-68.761-56.419-108.948-67.492c-2.68-0.736-5.55-0.184-7.761,1.501c-2.21,1.685-3.508,4.304-3.508,7.083v36.091
	h-88.918V24.437c0-2.779-1.299-5.399-3.508-7.083c-2.21-1.684-5.081-2.237-7.761-1.501c-40.186,11.073-78.878,35.043-108.955,67.501
	c-0.337,0.364-0.672,0.73-1.007,1.097c-3.056,3.359-3.094,8.48-0.089,11.885c6.597,7.474,15.906,20.119,22.797,37.919
	c9.976,25.765,16.404,67.758-9.608,121.537l-0.093,0.184c-1.481,2.735-2.886,5.496-4.173,8.205l-0.158,0.334
	c-0.627,1.332-1.237,2.672-1.877,4.124l-0.292,0.685c-0.502,1.15-0.981,2.271-1.469,3.467l-0.466,1.17
	c-0.397,0.991-0.795,1.995-1.173,2.992c-0.109,0.285-0.213,0.57-0.317,0.854l-0.22,0.604c-0.349,0.948-0.696,1.892-1.025,2.83
	c-0.128,0.367-0.248,0.721-0.382,1.12l-0.173,0.51c-0.302,0.896-0.608,1.811-0.908,2.749c-0.176,0.554-0.352,1.124-0.521,1.678
	c-0.279,0.905-0.551,1.8-0.815,2.709c-0.17,0.588-0.337,1.181-0.502,1.774c-0.247,0.886-0.49,1.774-0.718,2.649
	c-0.164,0.624-0.321,1.244-0.48,1.879c-0.216,0.863-0.429,1.741-0.633,2.621c-0.15,0.641-0.295,1.277-0.433,1.902
	c-0.197,0.887-0.381,1.763-0.563,2.651c-0.132,0.65-0.264,1.297-0.392,1.958c-0.165,0.858-0.325,1.737-0.484,2.643l-0.016,0.09
	c-0.11,0.622-0.221,1.244-0.325,1.875c-0.145,0.877-0.278,1.763-0.411,2.652l-0.053,0.355c-0.082,0.545-0.163,1.09-0.242,1.657
	c-0.108,0.798-0.208,1.606-0.307,2.42l-0.1,0.823c-0.059,0.477-0.117,0.954-0.17,1.438c-0.085,0.771-0.159,1.555-0.24,2.434
	l-0.088,0.922c-0.043,0.451-0.087,0.902-0.127,1.387c-0.062,0.764-0.115,1.554-0.165,2.345l-0.081,1.193
	c-0.028,0.397-0.056,0.797-0.075,1.174c-0.057,1.016-0.093,2.02-0.129,3.009l-0.038,0.917c-0.013,0.292-0.026,0.583-0.033,0.873
	c-0.043,1.606-0.067,3.213-0.067,4.823c0,7.382,0.469,14.818,1.394,22.105c0.368,2.884,0.811,5.781,1.317,8.61
	c0.502,2.81,1.085,5.662,1.734,8.477c17.789,77.053,85.475,132.271,164.596,134.277c1.497,0.039,2.994,0.059,4.488,0.059
	c1.496,0,2.988-0.02,4.468-0.059c84.886-2.15,156.965-67.224,167.664-151.37c0.925-7.285,1.394-14.72,1.394-22.099
	C429.524,336.861,429.5,335.254,429.457,333.679z"/>
<path style="fill:#8AACAD;" d="M211.539,24.437c0-2.779-1.299-5.399-3.508-7.083c-2.194-1.671-5.035-2.225-7.698-1.514
	c-0.132,0.036-0.265,0.071-0.397,0.109c-17.174,4.763-34.069,11.884-50.133,21.012c-0.429,0.245-0.859,0.488-1.287,0.733
	c-0.578,0.333-1.152,0.672-1.729,1.011c-0.817,0.482-1.634,0.965-2.443,1.455c-0.262,0.159-0.522,0.317-0.784,0.476
	c-20.163,12.315-37.859,27.193-52.24,42.712c-0.421,0.453-0.824,0.917-1.238,1.375c-2.824,3.358-2.793,8.298,0.135,11.615
	c0.218,0.247,0.446,0.515,0.671,0.774c0.024,0.028,0.049,0.057,0.075,0.086c5.931,6.862,13.777,17.671,20.142,32.415
	c0.001,0.003,0.002,0.007,0.004,0.01c0.651,1.508,1.292,3.043,1.907,4.635c1.331,3.438,2.594,7.174,3.731,11.179
	c0.151,0.529,0.298,1.061,0.444,1.597c0.151,0.561,0.297,1.132,0.443,1.703c2.927,11.354,4.632,24.248,4.064,38.629h89.843v-29.218
	h88.918v29.218h23.808h25.971h40.065c-0.569-14.378,1.136-27.271,4.06-38.624c0.147-0.573,0.294-1.146,0.445-1.71
	c0.146-0.534,0.292-1.067,0.443-1.596c1.136-4.006,2.399-7.741,3.731-11.179c0.616-1.591,1.257-3.124,1.907-4.631
	c0.002-0.006,0.004-0.011,0.008-0.018c6.354-14.723,14.188-25.522,20.116-32.384c0.046-0.053,0.089-0.104,0.135-0.157
	c0.21-0.244,0.429-0.496,0.633-0.73c2.927-3.316,2.957-8.258,0.132-11.617c-0.411-0.453-0.811-0.913-1.228-1.363
	c-0.003-0.004-0.007-0.008-0.011-0.012c-0.909-0.982-1.829-1.956-2.755-2.922c-13.877-14.474-30.623-28.275-49.539-39.82
	c-0.225-0.137-0.45-0.275-0.674-0.411c-0.847-0.513-1.701-1.018-2.557-1.523c-0.542-0.317-1.082-0.637-1.625-0.951
	c-0.466-0.269-0.937-0.534-1.407-0.803c-16.044-9.109-32.917-16.215-50.067-20.972c-0.128-0.035-0.256-0.071-0.386-0.106
	c-2.662-0.711-5.505-0.158-7.699,1.514c-2.211,1.685-3.508,4.304-3.508,7.083v36.091h-13.669h-61.58h-13.669V24.437H211.539z"/>
<path style="fill:#53CAF9;" d="M255.998,0c-7.973,0-14.436,6.462-14.436,14.435v58.337h28.87V14.435
	C270.433,6.462,263.97,0,255.998,0z"/>
<g>
	<path style="fill:#6D8C8C;" d="M264.346,404.006c0-4.611-3.738-8.348-8.348-8.348s-8.348,3.736-8.348,8.348V511.8
		c1.284,0.061,2.571,0.11,3.862,0.142c1.497,0.039,2.994,0.059,4.488,0.059c1.496,0,2.988-0.02,4.468-0.059
		c1.296-0.032,2.588-0.081,3.878-0.144L264.346,404.006L264.346,404.006z"/>
	<path style="fill:#6D8C8C;" d="M255.998,369.807c-4.61,0-8.348-3.736-8.348-8.348V158.145c0-4.611,3.738-8.348,8.348-8.348
		s8.348,3.736,8.348,8.348v203.314C264.346,366.071,260.608,369.807,255.998,369.807z"/>
</g>
<circle style="fill:#D3D3D3;" cx="255.997" cy="382.729" r="21.27"/>
<path style="opacity:0.15;fill:#231F20;enable-background:new    ;" d="M252.533,382.732c0-8.565,5.073-15.929,12.368-19.301
	c-2.711-1.253-5.72-1.972-8.903-1.972c-11.75,0-21.274,9.524-21.274,21.272c0,11.75,9.524,21.273,21.274,21.273
	c3.183,0,6.193-0.718,8.903-1.971C257.605,398.662,252.533,391.299,252.533,382.732z"/>
<rect x="211.542" y="60.527" style="fill:#3E5B5B;" width="88.918" height="32.534"/>
<rect x="211.542" y="93.061" style="fill:#547475;" width="88.918" height="32.534"/>
<rect x="211.542" y="125.606" style="fill:#3E5B5B;" width="88.918" height="32.534"/>
<g style="opacity:0.15;">
	<rect x="282.643" y="60.527" style="fill:#231F20;" width="17.809" height="97.613"/>
</g>
<g style="opacity:0.15;">
	<path style="fill:#231F20;" d="M101.841,389.353c-0.716-3.104-1.359-6.247-1.912-9.346c-0.558-3.12-1.046-6.315-1.451-9.494
		c-1.021-8.035-1.537-16.236-1.537-24.374c0-1.774,0.026-3.546,0.073-5.317c0.009-0.318,0.022-0.641,0.038-0.962l0.041-1.012
		c0.039-1.09,0.08-2.197,0.141-3.317c0.022-0.416,0.052-0.855,0.082-1.294l0.089-1.317c0.057-0.871,0.115-1.743,0.184-2.586
		c0.045-0.536,0.091-1.032,0.14-1.529l0.096-1.016c0.09-0.968,0.173-1.833,0.266-2.684c0.058-0.534,0.122-1.059,0.187-1.586
		l0.111-0.906c0.109-0.897,0.219-1.789,0.338-2.669c0.087-0.624,0.176-1.227,0.266-1.828l0.058-0.392
		c0.147-0.981,0.294-1.957,0.453-2.924c0.116-0.697,0.237-1.384,0.358-2.068l0.018-0.1c0.177-1,0.352-1.969,0.534-2.914
		c0.141-0.729,0.286-1.443,0.432-2.158c0.201-0.979,0.404-1.946,0.621-2.924c0.152-0.689,0.313-1.39,0.477-2.097
		c0.226-0.971,0.461-1.939,0.699-2.892c0.176-0.699,0.348-1.381,0.529-2.07c0.252-0.965,0.519-1.943,0.791-2.921
		c0.183-0.654,0.365-1.308,0.553-1.957c0.291-1.001,0.591-1.988,0.898-2.986c0.188-0.612,0.381-1.239,0.575-1.851
		c0.331-1.034,0.668-2.044,1.002-3.031l0.19-0.562c0.147-0.44,0.279-0.83,0.421-1.234c0.362-1.035,0.744-2.076,1.129-3.121
		l0.244-0.667c0.115-0.313,0.229-0.628,0.35-0.942c0.417-1.099,0.856-2.206,1.293-3.298l0.515-1.29
		c0.539-1.32,1.066-2.556,1.621-3.822l0.322-0.756c0.705-1.601,1.378-3.078,2.068-4.547l0.175-0.368
		c1.418-2.987,2.966-6.032,4.6-9.048l0.104-0.203c28.682-59.298,21.594-105.602,10.595-134.01
		c-7.599-19.627-17.864-33.57-25.138-41.811c-1.918-2.172-2.704-4.978-2.379-7.676c-4.057,3.819-7.992,7.779-11.788,11.876
		c-0.337,0.364-0.672,0.73-1.007,1.097c-3.056,3.359-3.094,8.48-0.089,11.885c6.597,7.474,15.906,20.119,22.797,37.919
		c9.976,25.765,16.404,67.758-9.608,121.537l-0.093,0.184c-1.481,2.735-2.886,5.496-4.173,8.205l-0.158,0.334
		c-0.627,1.332-1.237,2.672-1.877,4.124l-0.292,0.685c-0.502,1.15-0.981,2.271-1.469,3.467l-0.466,1.17
		c-0.397,0.991-0.795,1.995-1.173,2.992c-0.109,0.285-0.213,0.57-0.317,0.854l-0.22,0.604c-0.349,0.948-0.696,1.892-1.025,2.83
		c-0.128,0.367-0.248,0.721-0.382,1.12l-0.173,0.51c-0.302,0.896-0.608,1.811-0.908,2.749c-0.176,0.554-0.352,1.124-0.521,1.678
		c-0.279,0.905-0.551,1.8-0.815,2.709c-0.17,0.588-0.337,1.181-0.502,1.774c-0.247,0.886-0.49,1.774-0.718,2.649
		c-0.164,0.624-0.321,1.244-0.48,1.879c-0.216,0.863-0.429,1.741-0.633,2.621c-0.15,0.641-0.295,1.277-0.433,1.902
		c-0.197,0.887-0.381,1.763-0.563,2.651c-0.132,0.65-0.264,1.297-0.392,1.958c-0.165,0.858-0.325,1.737-0.484,2.643l-0.016,0.09
		c-0.11,0.622-0.221,1.244-0.325,1.875c-0.145,0.877-0.278,1.763-0.411,2.652l-0.053,0.355c-0.082,0.545-0.163,1.09-0.242,1.657
		c-0.108,0.798-0.208,1.606-0.307,2.42l-0.1,0.823c-0.059,0.477-0.117,0.954-0.17,1.438c-0.085,0.771-0.159,1.555-0.24,2.434
		l-0.088,0.922c-0.043,0.451-0.087,0.902-0.127,1.387c-0.062,0.764-0.115,1.554-0.165,2.345l-0.081,1.193
		c-0.028,0.397-0.056,0.797-0.075,1.174c-0.057,1.016-0.093,2.02-0.129,3.009l-0.038,0.917c-0.013,0.292-0.026,0.583-0.033,0.873
		c-0.043,1.606-0.067,3.213-0.067,4.823c0,7.382,0.469,14.818,1.394,22.105c0.368,2.884,0.811,5.781,1.317,8.61
		c0.502,2.81,1.085,5.662,1.734,8.477c8.386,36.324,27.863,67.79,54.395,91.121C122.547,446.32,108.764,419.34,101.841,389.353z"/>
</g>
</svg>