<?xml version="1.0" encoding="UTF-8"?>
<svg width="512" height="512" version="1.1" viewBox="0 0 512 512" xmlns="http://www.w3.org/2000/svg">
<defs>
 <radialGradient id="a" cx="175" cy="307" r="245" gradientTransform="matrix(-.679 -.723 -.647 .608 620 264)" gradientUnits="userSpaceOnUse">
  <stop style="stop-color:#ec9b59" offset="0"/>
  <stop style="stop-color:#c96816" offset=".31"/>
  <stop style="stop-color:#ec9a59" offset=".43"/>
  <stop style="stop-color:#c96816" offset=".641"/>
  <stop style="stop-color:#ec9a59" offset="1"/>
 </radialGradient>
 </defs>
 <path d="m402 74.9c9.48 9.32 15 34.1 29.5 49.4 14.5 15.4 27.1 14.2 36.4 27.8 5.02 7.3 8.61 20.6 9.78 36.7 4.5 38.6 9.55 42.8 26.4 70.7 4.61 8.67 4.24 18.4-1.04 28.5-10.4 20.1-11.8 32.7-6.19 53.3 6.48 20.7-0.898 26.6-20.5 34.6-2.29 0.672-24.9 13.5-47.5 52-4.91 12.5-8.71 17.5-15 19.2-1.77 0.528-13.1 0.609-25.2 0.305-25.9-0.812-30.8 0.273-40.9 8.78-14.3 13.9-20 38.5-44.8 14.1-10.7-10.8-12.3-9.35-26.5-0.629-13.9 9.26-19.8 6.62-28.6-2.99-10.3-11.4-15.5-29.2-25.6-32.7-13.1-4.81-22.7 5.36-34.3-7-21-22.3 3.77-39.2-20.7-68-13.9-14.7-18.5-45.3-17.7-59.5 0.913-16.3-1.93-12.9-21.1-27.2-11.3-8.44-111-56.6-123-110-2.68-12-6.16-22.3 14.3-34 38.1-19.8 52.5-44.5 62.1-54.3 25.9-21 32.4 3.7 65.1-24 18.5-17.1 39.1-21 64.1-17.5 23.8 3.98 47.6 8.27 71.8 5.09 17.5-3.17 24.5-1.56 40.3 9.64 17 12.1 21.2 13.6 42.3 14.7 16.7 0.797 25.7 3.68 36.1 13.2z" style="fill:url(#a);stroke-width:6.5;stroke:#8b410c"/>
 <path d="m389 84.9c-2.55 6.93-55.1 29.2-94.2 91-2.99 4.64-5.45 8.79-5.39 9.16-0.0501 1.6 12.1-0.131 35.8 8.92 9.29 3.57 9.65 3.66 11.5 1.31 5.84-7.24 49.8-41 106-45.1 11.8-0.794 23 9.77-4.49 13-29.9 4.75-75.1 16.8-98.3 37.5 15.9 8.85 27.6 23.1 40 36.1 33-7.17 66.9-0.0668 97.9 12.1 6.04 2.57 24.3 19.7-11.1 6.14-44.8-17.4-81.2-15.2-83.9-12.7-2.52 2.37 8.63 5.53 15.7 50.4 52.2 8.73 84 44.5 88.8 51.1 1.03 1.79 1.8 14.9-9.56 2.76-27.6-29.4-68.5-46.5-77.5-48.3-3.04-0.477-0.634 18.5-8.71 38.4-2.13 5.25-2.16 6.13-0.326 8.08 10.6 11.3 26.9 51.8 29.5 75 2.11 22-9.62 17-12.1-4.61-1.49-12.9-10.9-43.8-17.8-58.7-4.17-8.95-4.38-9.03-7.5-4.83-8.83 12-26 23.7-39.6 27.3-6.25 1.63-6.62 1.83-6.17 3.82 2.28 8.96 2.82 49.6-5.53 76.6-3.08 9.82-8.36 15.5-10.2 11-5.08-7.58 18.3-43.9 9.98-88.4-8.76 0.0997-17.6 0.525-26.3-1.19-3.76-0.847-6.95-1.38-7.18-1.17-0.15 0.141-1.19 3.24-2.18 6.86-8.19 28.9-29.7 71.2-36.8 72.3-3.59 0.544-4.33-4.96 0.928-14.6 5.05-9.19 28.7-45.1 32.7-66.8-10.1-4.03-18.9-10.2-27.3-16.9-4.62 6.84-45.3 48.6-57.8 52.1-8.09 2.22-10.4-4.63-3.66-11 4.46-4.19 49.5-38 54-42.3 3.3-3.1 3.46-3.54 2-5.84-6.82-9.36-10.2-20.2-13.3-31.2-37.6 19.9-68.1 24.4-72.3 22.4-3.01-1.53-12.4-7.5 13.4-12.1 19.8-4.14 39.1-10.1 58.4-15.7l0.608-7.78c2.36-31 29.3-54.9 60.2-53.7 26.6 1.05 46.7 18.3 50.3 43.1 5.07 35.3-28.2 60.3-59.4 47.7-8.44-3.44-16.9-12.1-20.2-21.8-8.81-26.1 14.8-49.1 39.2-40.2 29.4 11.4 21.7 56.3-6.15 49.9-10.3-2.36-15.5-15.9-9.02-23.8 3.56-4.33 10.7-6.37 15.6-4.47 2.95 1.19 3.66 1.79 3.75 3.54 0.195 3.07-1.58 4.03-5.19 2.75-3.67-1.35-8.09-0.0347-9.63 2.69-5.67 10.2 11.8 19.2 19.9 8.35 5.48-7.55 4.17-19.2-3.16-27.1-11.9-13-33.6-8.12-39.5 8.82-1.52 4.25-1.31 14 0.304 18.2 6.32 17.1 26.1 24.6 45.2 17.2 28.8-11.1 30.1-55.5 2.1-71.7-17.8-10.2-39.4-9.03-56.4 2.9-12.4 8.72-20.3 23.1-21.4 38.8-2.01 31.6 21.3 58.9 54.9 64.3 27.3 4.5 55.9-6.56 69.6-26.7 18.5-27.1 18.5-65.5-0.216-100-18-33.9-69.1-70-135-50.7-37.7 11.2-70.9 44.4-84.2 84-4.7 11.3-5.13 15.7-6.61 28.3-1.48 12.6-10.7-2.65-0.314-28.3l1.79-6.07c-97.6-106-97.5-156-94.4-160 2.38-3.49 6.55-1.97 8.38 0.804 16.6 43.3 37.6 81.7 63.3 120 7.1 10.6 24 32.8 24.9 32.9 1.9-0.318 0.685-3.49 15.9-26.8-49.5-70.4-56.5-172-42.1-167 10.5 3.57-2 51.1 31.2 133 3.45 8.49 13.2 28.5 14 28.6 0.375-0.112 7.96-7.82 20.8-21-9.54-32.8-13.5-66.7-12.7-101 1.79-57.2 14.4-62.2 17.2-59.2 5.34 6.14-15.7 57.5-2.85 139 1.21 8.06 2.58 15.2 2.85 16.1 0.475 1.11 1.73 0.637 5.54-2.23 7.57-5.6 18.1-10.9 31.7-16.2-1.17-25.8 2.95-75.2 41.2-128 16.3-22.4 28.1-17.5 12.2 3.27-32.7 44.7-48.7 95.6-47.9 123 13-3.87 26.6-4.47 40-5.52 4.45-14.9 35.3-75.2 93.1-104 2.36-1.22 14.4-2.66 12.7 4z" fill="#8c410b"/>
 <path d="m464 177c4.38 4.44 5.04 9.28 4.99 27.8-0.14 11.4-0.432 13.8-2.04 13.9-5.52 0.223-3.31-10.1-3.29-13.7 0.244-14.8-0.294-18.5-3.12-23.8-3.46-6.78 0.913-6.79 3.46-4.21zm-5.32 24.1c-2.48 2.33-4.8-0.297-3.87-4.28 1.01-3.61-7.35-18.2 2.21-10.1 4.17 2.94 4.79 10.4 1.66 14.4zm-119-131c-2.78 5.97-24.9-6.84-20-10 3.31-2.51 9.95 4.68 15.9 5.97 2.46 0.514 5.39 1.59 4.1 4.06zm8.54 8.94c-2.03 4.16-14.3 4.8-24.2 1.14-9.44-3.43-20.9-15.4-17.6-18.5 4-3.76 4 7.42 20.6 13.5 15.6 5.73 24.2-2.38 21.2 3.8zm38.9 64.1c2.4 2.43-3.04 4.26-6.33 5.11-11.5 3.27-19.5 9.63-21.7 7.26-1.9-2.03 1.16-4.48 11-8.91 9.18-3.98 15.4-5.17 17.1-3.46zm6.15 9.07c-0.13 1.82-1.99 3-8.83 5.19-30.9 9.99-43.7 31-43.9 22-0.369-8.1 52.9-37 52.7-27.2zm95 120c4.05 6.32-5 2.35-7.57 0.916-8.88-4.94-26.5-11.5-35.2-13.2-7.24-1.39-8.75-2.24-8.17-4.48 1.35-4.39 42.1 7.15 50.9 16.8zm-31-2.81c-2.56 3.5-16.3-1.36-20-2.23-9.49-1.97-11.6-3.06-11.1-5.45 0.795-2.8 32.2 3.4 31.1 7.68zm23.8 92.3c-0.783 1.72-1.45 2.07-10 5.74-14.2 6.06-30.8 30.8-30.5 20.5 0.0604-1.93 17.5-23.8 35.1-27.9 4.71-1.14 6.74-0.896 5.41 1.7zm-302-316c2.99 3.18-1.57 4.62-2.68 4.07-2.66-1.32-7.34 1.52-16.8 10.3-13.1 12-18.5 10.7-20.7 8.39-1.34-1.43 1.01-4.34 3.12-4.06 3.77 0.555 9.65-3.12 17.8-11.1 7.52-7.35 15-12 19.2-7.56zm290 312c-1.05 2.13-5.43 2.17-14.3 9.03-6.65 5.11-8.34 5.57-8.52 2.21-0.195-3.07 10.2-11.7 16.1-13.6 4.72-1.36 7.83-0.0978 6.7 2.32zm-40.6-37.8c1.16 6.22-9.94-2.86-18.6-5.17-5.85-1.57-8.19-3.9-5.58-5.64 2.01-1.47 10.9 1.22 18.4 5.61 2.36 1.41 5.11 2.34 5.74 5.21zm-252-260c-2.05 0.227-4.66 2.11-9.31 6.49-5.11 4.8-9.99 8.17-10.6 4.33-0.382-1.76 13.7-14.7 17.1-15.6 4.49-1.34 9.25 3.75 2.84 4.83zm264 277c0.694 3.45-3.07 2.75-13.2-2.6-12.1-6.43-14.5-8.4-13.1-10.5 1.14-1.64 7.55 0.704 16.7 6.06 3.4 1.98 8.93 3.91 9.55 7zm-104-108c-7e-3 2.55-3.16 3.25-9.03 1.98-7.09-1.53-7.54-2.38-7.49-5.26 0.0455-2.7 15.9 0.333 16.5 3.29zm6.76 17c-0.0912 2.91-1.12 3.03-7.37 0.426-8.56-3.55-19.9-5.58-29.1-5.36-15.9 0.601-6.52-4.68-2.98-4.98 16.2-1.66 39.6 4.88 39.4 9.91zm-29.3-18.4c0.0112 1.97-2.51 3.2-6.14 2.94-8.72-0.273-20.7 3.24-28.6 5.96-4.49 1.54-7.86-0.392-5.23-2.86 3.82-3.59 40.4-12.4 40-6.04zm54.4 69.3c3.99 4.1 2.83 22 1.17 26.6-3.32 9.48-9.96 9.41-5.87-0.985 6.38-16.7-1.82-22.3 1.68-25.6 1.06-0.992 2.1-0.992 3.03-0.0439zm-164-165c-2.26 18.7-2.38 37.7 0.861 56.3 1.3 7.4 0.152 11.4-2.6 8.52-1.69-1.8-4.06-17-4.67-30.1-0.934-19.1 1.07-41.1 3.95-42.3 3.7-1.51 2.94 4.63 2.46 7.58zm8.97 7.57c0.902 0.983 1.22 3.85 0.815 8.12-0.758 7.92-2.23 10.9-4.35 8.61-2.08-2.21-0.047-20.6 3.53-16.7zm163 191c-2.14 7.95-11.9 21.1-15.5 20.7-3.12-0.462-2.92-2.2 0.567-6.47 4.25-5.26 7.39-10.3 9.05-14.4 1.24-4.37 7.36-5.78 5.9 0.257zm-85.3-88.7c-2.26 4.37-9.72-0.637-28.3 16.2-5.18 4.72-6.37 5.41-7.58 4.57-1.92-1.45-0.126-5.25 4.68-9.77 16.2-15.2 34-16.3 31.2-11zm-77.2-68.8c0.443 11.5-0.23 14.4-2.87 12.4-1.28-0.915-3-18.2-2.28-22.7 5.05-10.1 5.06 8.4 5.14 10.3zm35.2 41.7c-0.191 1.45-1.32 2.51-4.28 4.17-12.1 7.87-24.9 20-27.5 17.2-1.48-1.58-1.4-1.79 7.73-9.52 15.5-12.3 24.6-16.3 24.1-11.9zm109 121c0.987 1.05 0.805 2.21-0.87 4.49-5.38 6.93-22.4 20-27.6 16-1.78-1.29-0.659-2.21 8.75-6.94 11.1-5.86 17.1-16.5 19.7-13.6zm-54.9-37.4c-4.04 1.11-9.62 7.06-11.2 12.1-2.24 7.48-6.67 5.87-5.08-3 0.888-5.07 8.87-13.1 14.1-14.2 6.95-1.26 7.28 3.6 2.25 5.1zm95.5 105c3.31 12.9 4.57 31 2.39 33.1-2.18 2.05-3.99-0.635-4.12-5.74-0.367-22.6-8.16-36.4-5.49-38.9 3.02-2.83 5.83 6.12 7.22 11.6zm-14.4-9.16c2.26 2.45 6.57 23.6 4.61 25.4-2.85 2.68-4.37-0.135-6.47-12.3-3.11-17.5 0.734-14.3 1.86-13.1zm-156-155c1.27 1.35 0.665 2.06-10.3 12.4-6.9 6.34-12.2 10.8-12.9 10.5-1.53-0.219-4.53-1.82 7.03-12.7 10.1-9.52 14.3-12.2 16.1-10.2zm-16.7 3.56c-1.14 1.91-14.6 16.1-19.1 24.5-4.1 7.52-8.47 19.1-8.73 22.6-0.175 5.59-6.25 7.28-4.91-1.47 4.13-30.8 40-59.1 32.8-45.6zm50.9 78.6c2.71 14.8-5.36 10.2-5.43-1.12-0.0327-5.37-1.63-11.3 1.6-16.2 4.1-2.4 2.56 10.4 3.83 17.3zm11.9 12.3c1.89 2.46 1.95 5.38 0.0385 5.76-5.64 1.04-12.5-20.5-7.49-21.4 4.74-0.973 2.66 9.8 7.46 15.6zm-172-180c7.8 20.9 7.93 21.5 6.57 22.8-2.33 2.19-4.75-2.04-11.6-20.2-4.57-12.2-5.09-14.3-3.74-15.6 2.17-2.04 4.7 2.09 8.78 13zm14.5 10.8c0.335 0.357 14.2 23.3 11.3 26.8-0.685 0.926-1.94 1.4-2.66 1.08-1.51-0.703-12.8-25.3-12.8-27.6 0.0684-2.18 2.33-2.33 4.09-0.31zm168 193c-3.55 1.49-18.1-9.71-21.9-17.2-1.74-3.68-2.79-13.2 4.75-2.77 5.66 7.68 10.5 11.4 14.8 13.3 3.86 1.07 6.43 4.28 2.27 6.63zm-164-161c9.17 18.9 25.1 37.7 22.6 40.1-0.751 0.705-2.07 0.956-2.79 0.642-3.23-1.59-34.5-48.8-30.4-54 4.37-3.4 9 10.1 10.6 13.2zm161 189c-0.401 3.49-9 24.4-13.7 33.1-4.1 7.67-6.06 9.5-7.89 7.55-1.34-1.43-0.858-2.87 5.11-14.1 2.64-5.02 7.53-15.8 8.63-19.7 1.1-3.86 6.83-15.6 7.87-6.82zm-248-248c-8.39 5.55-11.7 9.57-6.44 23.1 0.625 5.63-0.387 7.71-2.88 5.96-13.2-17.3-4-31.9 10.5-35.8 6.09-0.097 0.0795 5.26-1.2 6.74zm237 252c-1.73 4.12-7.16 22.2-12 19.7-1.14-0.765-0.867-2.58 1.1-7.11 1.42-3.31 3.46-8.2 4.57-10.8 4.48-10.1 7.72-5.28 6.33-1.84zm-53.2-40.5c-6.32 1.55-8.93 1.18-8.85-1.44 0.0456-1.46 1.31-2.22 6.46-3.66 11-2.97 12.3 2.74 2.39 5.1zm-173-179c3.15 4.25 3.69 5.44 2.57 6.49-3.54 3.32-14.4-8.35-14.1-21.1 0.114-3.64 0.915-4.49 2.18-4.45 5.37-0.319-0.371 6.06 9.39 19zm174 186c6e-3 2.11-3.26 3.91-10.1 5.52-7.72 2.02-10.8 1.99-11.3 0.0103-0.373-2.05 1.48-3.09 10.8-5.78 7.79-2.24 10.7-2.41 10.6 0.258zm88.8 85.5c-1.54 5.14-7.35 1.11-15.4 1.92-2.77 0.059-4.87-0.37-4.99-1.25-0.764-3.52 5.04-4.87 14.5-3.41 5.17 0.738 6.01 1.13 5.96 2.74zm-99.9-90c-1.17 2.37-9.1 4.31-18.9 4.51-8.17 0.181-12.5-1.74-9.86-3.88 3.16-2.57 7.15-0.207 18.8-2.69 4.17-0.877 12.1-2.23 9.99 2.06zm103 101c5.4 5.75-1.5 5.92-3.12 4.2-14-10.6-29.7 0.964-26.4-6.15 3.12-6.46 22.8-5.19 29.5 1.95zm-253-251c-3.82 5.18-23.2-18.7-25.8-21.9-2.81-3.34-1.44-9.39 1.07-6.4 15.1 18 26.1 26 24.8 28.3z" fill="#fbb47e"/>
</svg>
