<?xml version="1.0" encoding="UTF-8"?>
<svg width="512" height="512" version="1.1" viewBox="0 0 512 512" xmlns="http://www.w3.org/2000/svg">
 <defs>
  <linearGradient id="a" x1="351" x2="374" y1="474" y2="474" gradientUnits="userSpaceOnUse">
   <stop style="stop-color:#333" offset="0"/>
   <stop style="stop-color:#808080" offset=".5"/>
   <stop style="stop-color:#333" offset="1"/>
  </linearGradient>
  <linearGradient id="b" x1="339" x2="392" y1="455" y2="265" gradientUnits="userSpaceOnUse">
   <stop style="stop-color:#2b34e7" offset="0"/>
   <stop style="stop-color:#a5a5fd" offset="1"/>
  </linearGradient>
  <linearGradient id="c" x1="44.1" x2="278" y1="51.1" y2="285" gradientUnits="userSpaceOnUse">
   <stop style="stop-color:#1aa4e5" offset="0"/>
   <stop style="stop-color:#116b98" offset="1"/>
  </linearGradient>
 </defs>
 <path d="m0.981 163c0 88.9 67.2 167 167 165 77.8-1.86 139-58.2 154-124 14.3-59.2-4.66-133-69.2-176-50.9-33.8-114-32.9-165-7.11-50.4 25.8-87.4 76.9-87.4 143zm173-139c22.7 8.84 37.6 44.1 41.4 63.9-11.9-2.12-33.4-3.08-41.5-3.08zm-20 61c-13.6 0.397-27 1.54-40.4 3.59 9.73-35 25.3-57.7 40.4-64.4zm-62 7.94c-32.5 7.69-52.3 18.8-63.4 27 4.85-14.5 27-69.3 90.3-90.4-7.87 10.9-19.1 30.8-26.9 63.5zm144-1.86c-6.34-23.2-15.1-45.2-27-61.6 44.7 13.4 78.7 51.5 90.3 91.3-11.4-6.3-34.6-21-63.4-29.9zm-83.1 63.9h-28.8c-4.45-13.6-15.3-19.1-19.7-20.8 1.27-13.1 3.14-23.2 3.39-24.5 20.9-3.87 39-4.69 45-4.9zm20.2-50c8.65 0 31.4 0.471 46 4.04 3.01 24.2 3.41 34.6 3.81 46.1-16.7 8e-3 -33.3 0.0169-50 0.0255 6e-4 -16.7 2e-3 -33.4 3e-3 -50l0.0619 2e-3zm-86.5 9.73c-0.874 5.96-1.72 12.5-2.29 18.5-11.6 3.1-19.7 11.8-22.9 21.7h-39.2c12.2-19.3 41.2-38.9 64.4-40.2zm216 40.4c-20.2-2e-3 -40.4-3e-3 -60.6-6e-3 -0.653-21.2-3.2-38.8-3.49-40.9 14.7 5.38 56.2 22.4 63.8 40.9zm-151 20v50c-19.7-0.673-34.9-2.9-45.3-4.86-1.45-8.12-2.63-16.3-3.37-24.5 13.2-5.04 18.2-16 19.7-20.8 2.11 4e-3 21.3 0.144 28.9 0.144zm-91.7 0c3.57 11 12.4 18.9 22.7 21.7 0.61 6.21 1.35 12.4 2.28 18.6-14.3-4.06-53.8-17-64.4-40.4zm162 0.106c0.459 11.5-2.04 41.8-4.8 46.4-15.1 3.08-33.4 3.83-46.5 3.7v-50zm79.7 0.267c-10.1 22.9-53.3 38.2-63.4 41.6 1.52-13.4 2.94-26.8 3.36-41.6zm-95.5 126c21.2-26.5 27.5-59.2 29-64.4 19-3.71 50-18.3 61.5-29-12.2 43.9-52.3 77.4-90.8 93.3zm-118-63.5c4.59 19.4 12.7 44.2 27 63.5-52.3-17.4-79.7-59.6-90.3-90.4 18.4 13.4 41.4 21.6 63.4 26.9zm62 7.5v61c-23.5-10.3-36.7-51-40.6-64.4-8e-3 -0.0332 14.3 3 40.6 3.75zm20 61c2e-3 -20.3 3e-3 -40.5 6e-3 -60.6 14 0 31.5-1.18 42.8-3.72-3.08 14.9-18.1 53.3-42.8 64.4z" fill="url(#c)"/>
 <path d="m258 370h-166v-198" style="fill:none;stroke-width:20;stroke:#cc3434"/>
 <circle cx="91.9" cy="165" r="22.1" fill="#cc3434"/>
 <path d="m303 502-0.702 5.28c-0.189 1.38 1.13 2.52 2.51 2.52h111c1.38 0 3.58-1.15 3.33-2.52l-0.607-5.61z" style="fill:#808080;stroke-width:1.38;stroke:#808080"/>
 <path d="m303 503c-0.173 1.22 1.13 2.22 2.53 2.22h111c1.4 0 2.76-1.01 2.53-2.22 0 0-0.841-6.83-1.53-10.2-0.243-1.21-0.599-2.75-3.4-2.75-35.5 0.122-71.3 0.311-89.8 0.311-19.9 0-20-0.49-20.4 2.74z" style="fill:#333;stroke-width:1.25;stroke:#333"/>
 <path d="m351 455h23.5v38.9c0 8.53-23.5 8.37-23.5 0z" fill="url(#a)"/>
 <path d="m217 265h288v190h-288z" fill="url(#b)"/>
 <path d="m217 265h288c-60.5 72.9-129 122-288 138z" style="fill-opacity:.35;fill:#97f0ff"/>
 <rect x="217" y="265" width="290" height="190" rx=".625" ry=".625" style="fill:none;stroke-width:8;stroke:#333"/>
</svg>
