<?xml version="1.0" encoding="UTF-8" standalone="no"?>
<!-- Uploaded to: SVG Repo, www.svgrepo.com, Generator: SVG Repo Mixer Tools -->

<svg
   version="1.1"
   id="Layer_1"
   viewBox="0 0 468.52 468.52"
   xml:space="preserve"
   sodipodi:docname="network-statistics.svg"
   inkscape:version="1.1.2 (0a00cf5339, 2022-02-04)"
   xmlns:inkscape="http://www.inkscape.org/namespaces/inkscape"
   xmlns:sodipodi="http://sodipodi.sourceforge.net/DTD/sodipodi-0.dtd"
   xmlns="http://www.w3.org/2000/svg"
   xmlns:svg="http://www.w3.org/2000/svg"><defs
   id="defs99">
	
	
	
	
	
	
	
	
	
	
	
	
	
	
	
	
	
	
	
	
	
	
	
	
	
	
	
	
	
	
	
	
	
	
	
	
	
	
	
	
	
	
	
	
	
	
</defs><sodipodi:namedview
   id="namedview97"
   pagecolor="#ffffff"
   bordercolor="#666666"
   borderopacity="1.0"
   inkscape:pageshadow="2"
   inkscape:pageopacity="0.0"
   inkscape:pagecheckerboard="0"
   showgrid="false"
   inkscape:zoom="1.3446598"
   inkscape:cx="233.88815"
   inkscape:cy="234.25999"
   inkscape:window-width="3840"
   inkscape:window-height="2065"
   inkscape:window-x="0"
   inkscape:window-y="0"
   inkscape:window-maximized="1"
   inkscape:current-layer="Layer_1" />
<path
   style="fill:#e6e6e6"
   d="m 468.52,102.595 v 251.88 c 0,11.14 -7.571,20.52 -17.86,23.25 -1.98,0.531 -4.06,0.81 -6.2,0.81 H 38.58 c -13.29,0 -24.061,-10.77 -24.061,-24.06 v -251.88 c 0,-13.29 10.771,-24.06 24.061,-24.06 h 405.88 c 2.14,0 4.22,0.28 6.2,0.81 10.289,2.73 17.86,12.11 17.86,23.25"
   id="path2" /><path
   style="fill:#b3b3b3"
   d="m 468.518,102.591 v 23.94 h -454 v -23.94 c 0,-13.29 10.771,-24.06 24.06,-24.06 h 405.88 c 13.289,10e-4 24.06,10.771 24.06,24.06"
   id="path4" /><rect
   x="42.098999"
   y="141.002"
   style="fill:#999999"
   width="118.901"
   height="16.532"
   id="rect6" /><polyline
   style="fill:#ffffff"
   points="442.383,222.765 256.652,222.765 256.652,354.496 442.383,354.496 442.383,222.765  "
   id="polyline8" /><polyline
   style="fill:#29abe2"
   points="434.552,329.733 265.552,329.733 265.552,346.265 434.552,346.265 434.552,329.733  "
   id="polyline10" /><polyline
   style="fill:#fc7a51"
   points="286.552,297.744 265.552,297.744 265.552,314.276 286.552,314.276 286.552,297.744  "
   id="polyline12" /><polyline
   style="fill:#f9de58"
   points="350.552,265.754 265.552,265.754 265.552,282.286 350.552,282.286 350.552,265.754  "
   id="polyline14" /><polyline
   style="fill:#999999"
   points="411.552,233.765 265.552,233.765 265.552,250.297 411.552,250.297 411.552,233.765  "
   id="polyline16" /><circle
   style="fill:#fc7a51"
   cx="47.516998"
   cy="102.532"
   r="15"
   id="circle18" /><circle
   style="fill:#f9de58"
   cx="87.516998"
   cy="102.532"
   r="15"
   id="circle20" /><path
   style="fill:#eeeeee"
   d="m 463.696,88.139 c 3.027,4.024 4.822,9.029 4.822,14.453 v 23.94 h -23.321 c 0.04,35.899 -19.42,70.584 -53.444,88.347 -2.102,0.921 -4.223,1.779 -6.365,2.574 l 2.774,5.313 h 54.222 V 354.497 H 298.563 l 7.326,24.038 h 138.57 c 2.14,0 4.22,-0.28 6.2,-0.81 10.29,-2.73 17.86,-12.11 17.86,-23.25 v -251.88 c 10e-4,-5.425 -1.794,-10.431 -4.823,-14.456 m -0.039,-0.051 c 0.012,0.016 0.023,0.031 0.036,0.047 -0.012,-0.015 -0.024,-0.032 -0.036,-0.047 m -0.036,-0.048 c 0.008,0.01 0.015,0.02 0.023,0.03 -0.008,-0.01 -0.015,-0.02 -0.023,-0.03 m -0.031,-0.041 c 0.003,0.004 0.006,0.008 0.009,0.012 -0.003,-0.004 -0.006,-0.008 -0.009,-0.012"
   id="path22" /><path
   style="fill:#cbcbcb"
   d="m 444.46,78.535 h -11.739 c 0.396,0.716 0.784,1.437 1.165,2.167 7.655,14.662 11.293,30.36 11.31,45.83 h 23.321 v -23.94 c 0,-5.424 -1.795,-10.429 -4.822,-14.453 v 0 c -10e-4,-10e-4 -0.002,-0.002 -0.003,-0.003 v 0 c -0.012,-0.016 -0.023,-0.031 -0.036,-0.047 v 0 c -0.005,-0.006 -0.009,-0.012 -0.014,-0.018 v 0 c -0.008,-0.01 -0.015,-0.02 -0.023,-0.03 v 0 c -0.007,-0.01 -0.014,-0.019 -0.022,-0.029 v 0 C 463.594,88.008 463.591,88.004 463.588,88 v 0 c -3.187,-4.171 -7.708,-7.269 -12.93,-8.654 -1.978,-0.531 -4.058,-0.811 -6.198,-0.811"
   id="path24" /><path
   style="fill:#ffffff"
   d="m 442.383,222.765 h -54.222 l 5.326,10.202 c -0.519,0.271 -1.04,0.537 -1.561,0.798 h 19.626 v 16.532 H 266.807 l 4.711,15.457 h 79.034 v 16.532 h -73.996 l 4.711,15.458 h 5.285 v 16.532 h -0.246 l 4.711,15.457 h 143.536 v 16.532 H 296.055 l 2.509,8.231 H 442.383 V 222.765"
   id="path26" /><polyline
   style="fill:#6ec6eb"
   points="434.552,329.733 291.016,329.733 296.055,346.265 434.552,346.265 434.552,329.733  "
   id="polyline28" /><polyline
   style="fill:#fda589"
   points="286.552,297.744 281.267,297.744 286.306,314.276 286.552,314.276 286.552,297.744  "
   id="polyline30" /><polyline
   style="fill:#fbe98e"
   points="350.552,265.754 271.518,265.754 276.556,282.286 350.552,282.286 350.552,265.754  "
   id="polyline32" /><path
   style="fill:#eeeeee"
   d="m 246.265,126.531 h -17.178 l 29.329,96.234 h 62.908 c -1.465,-0.282 -2.926,-0.591 -4.384,-0.929 l -1.001,-0.232 c -24.282,-7.625 -45.651,-24.51 -58.362,-48.855 -7.72,-14.787 -11.356,-30.621 -11.312,-46.218"
   id="path34" /><path
   style="fill:#cbcbcb"
   d="m 258.73,78.535 h -44.27 l 14.628,47.996 h 17.178 c 0.028,-10.08 1.594,-20.062 4.587,-29.594 1.999,-6.368 4.636,-12.537 7.877,-18.402"
   id="path36" /><path
   style="fill:#ffffff"
   d="m 321.324,222.765 h -62.908 l 7.136,23.415 v -12.415 h 53.983 l 3.362,-10.708 c -0.524,-0.094 -1.049,-0.191 -1.573,-0.292"
   id="path38" /><path
   style="fill:#bababa"
   d="m 411.552,233.765 h -19.626 c -14.25,7.129 -29.421,10.514 -44.383,10.514 -10.173,0 -20.251,-1.566 -29.869,-4.586 l 1.861,-5.928 h -53.983 v 12.415 l 1.255,4.117 h 144.745 v -16.532"
   id="path40" /><path
   style="fill:#cecece"
   d="m 385.387,217.453 c -6.196,2.3 -12.551,4.073 -18.994,5.313 h 21.767 l -2.773,-5.313"
   id="path42" /><path
   style="fill:#dbdbdb"
   d="m 388.161,222.765 h -21.767 c -7.428,1.428 -14.973,2.147 -22.536,2.147 -6.999,0 -14.015,-0.616 -20.959,-1.855 l -3.362,10.708 h 72.391 c 0.521,-0.261 1.042,-0.527 1.561,-0.798 l -5.328,-10.202"
   id="path44" /><path
   style="fill:#a4a4a4"
   d="m 391.926,233.765 h -72.391 l -1.861,5.928 c 9.618,3.02 19.696,4.586 29.869,4.586 14.962,0 30.134,-3.385 44.383,-10.514"
   id="path46" /><path
   style="fill:#dbdbdb"
   d="m 345.64,27.261 c -15.507,0 -31.24,3.637 -45.936,11.309 -17.955,9.374 -31.855,23.466 -40.973,39.961 H 432.718 C 419.89,55.351 399.077,39.243 375.519,31.849 365.898,28.829 355.817,27.261 345.64,27.261"
   id="path48" /><polyline
   style="fill:#9f9f9f"
   points="432.719,78.532 258.732,78.532 258.73,78.535 432.721,78.535 432.719,78.532  "
   id="polyline50" /><path
   style="fill:#cecece"
   d="M 445.196,126.531 H 246.265 c -0.044,15.597 3.592,31.43 11.312,46.218 12.711,24.345 34.08,41.23 58.362,48.855 l 1.001,0.232 c 1.458,0.338 2.919,0.647 4.384,0.929 h 45.069 c 6.443,-1.239 12.797,-3.012 18.994,-5.313 2.142,-0.795 4.263,-1.653 6.365,-2.574 34.024,-17.763 53.485,-52.447 53.444,-88.347"
   id="path52" /><path
   style="fill:#b2b2b2"
   d="M 432.721,78.535 H 258.73 c -3.241,5.865 -5.878,12.033 -7.878,18.402 -2.993,9.532 -4.559,19.515 -4.587,29.594 h 198.931 c -0.017,-15.469 -3.656,-31.168 -11.31,-45.83 -0.381,-0.729 -0.769,-1.45 -1.165,-2.166"
   id="path54" /><path
   style="fill:#dbdbdb"
   d="m 366.393,222.765 h -45.069 c 0.524,0.101 1.049,0.198 1.574,0.292 6.945,1.239 13.96,1.855 20.959,1.855 7.563,0 15.108,-0.719 22.536,-2.147"
   id="path56" /><path
   style="fill:#f9de58"
   d="m 345.73,113.225 -5.24,16.69 -24.55,78.18 c -24.28,-7.62 -45.65,-24.51 -58.36,-48.85 -12.71,-24.35 -14.35,-51.53 -6.73,-75.81 l 83.46,26.2 z"
   id="path58" /><path
   style="fill:#29abe2"
   d="m 393.49,219.465 c -7.48,3.9 -15.23,6.76 -23.08,8.63 -17.7,4.21 -35.91,3.38 -52.74,-1.91 l 26.47,-84.29 3.32,-10.59 z"
   id="path60" /><path
   style="fill:#fc7a51"
   d="m 391.75,201.375 -46.02,-88.15 -11.42,-3.59 -83.46,-26.2 c 7.63,-24.29 24.51,-45.66 48.85,-58.37 2.55,-1.33 5.12,-2.54 7.73,-3.62 22.27,-9.33 46.35,-9.93 68.09,-3.1 24.29,7.62 45.66,24.5 58.37,48.85 25.41,48.69 6.55,108.76 -42.14,134.18 z"
   id="path62" /><polyline
   style="fill:#ffffff"
   points="226.383,168.765 40.652,168.765 40.652,354.496 226.383,354.496 226.383,168.765  "
   id="polyline64" /><polyline
   style="fill:#2be0c6"
   points="93.6,254.001 57.602,254.001 57.602,343.996 93.6,343.996 93.6,254.001  "
   id="polyline66" /><polyline
   style="fill:#f9de58"
   points="151.517,224.002 115.518,224.002 115.518,343.996 151.517,343.996 151.517,224.002  "
   id="polyline68" /><polyline
   style="fill:#fc7a51"
   points="209.432,191.004 173.435,191.004 173.435,343.996 209.432,343.996 209.432,191.004  "
   id="polyline70" />
</svg>
