<?xml version="1.0" encoding="utf-8"?>
<!-- Uploaded to: SVG Repo, www.svgrepo.com, Generator: SVG Repo Mixer Tools -->
<!DOCTYPE svg PUBLIC "-//W3C//DTD SVG 1.1//EN" "http://www.w3.org/Graphics/SVG/1.1/DTD/svg11.dtd">
<svg xmlns="http://www.w3.org/2000/svg" xmlns:xlink="http://www.w3.org/1999/xlink" version="1.1" id="Layer_1"  width="512" height="512" viewBox="0 0 512 512" enable-background="new 0 0 512 512" xml:space="preserve">
<g id="local_network">
	<g>
		<g>
			<polygon fill="#AAB2BC" points="405.328,314.672 277.328,314.672 298.609,240.094 384.016,240.062    "/>
		</g>
		<path fill="#4A89DC" d="M192,250.672c-5.875,0-10.672-4.781-10.672-10.672V37.344c0-5.891,4.797-10.672,10.672-10.672h298.672    c5.875,0,10.656,4.781,10.656,10.672V240c0,5.891-4.781,10.672-10.656,10.672H192z"/>
		<path fill="#CCD1D9" d="M490.672,16H192c-11.781,0-21.328,9.562-21.328,21.344V240c0,11.797,9.547,21.344,21.328,21.344h298.672    c11.781,0,21.328-9.547,21.328-21.344V37.344C512,25.562,502.453,16,490.672,16z M490.672,240H192V37.344h298.672V240z"/>
		<rect x="186.609" y="218.672" fill="#CCD1D9" width="309.438" height="31.062"/>
		<path fill="#434A54" d="M352,240c0,5.906-4.781,10.672-10.672,10.672s-10.656-4.766-10.656-10.672    c0-5.891,4.766-10.656,10.656-10.656S352,234.109,352,240z"/>
		<path fill="#CCD1D9" d="M405.328,293.344h-128c-5.891,0-10.656,4.766-10.656,10.656c0,5.906,4.766,10.672,10.656,10.672h128    c5.891,0,10.672-4.766,10.672-10.672C416,298.109,411.219,293.344,405.328,293.344z"/>
	</g>
	<polygon opacity="0.1" fill="#FFFFFF" points="360,218.672 298.672,218.672 362.672,37.344 423.984,37.344  "/>
	<g>
		<path fill="#5D9CEC" d="M480,304c5.891,0,10.672-4.766,10.672-10.656s-4.781-10.672-10.672-10.672s-10.672,4.781-10.672,10.672    S474.109,304,480,304z"/>
		<path fill="#5D9CEC" d="M480,325.344c-5.891,0-10.672,4.766-10.672,10.656s4.781,10.672,10.672,10.672s10.672-4.781,10.672-10.672    S485.891,325.344,480,325.344z"/>
		<path fill="#5D9CEC" d="M480,368c-5.891,0-10.672,4.781-10.672,10.672s4.781,10.672,10.672,10.672s10.672-4.781,10.672-10.672    S485.891,368,480,368z"/>
		<path fill="#5D9CEC" d="M480,410.672c-5.891,0-10.672,4.781-10.672,10.672S474.109,432,480,432s10.672-4.766,10.672-10.656    S485.891,410.672,480,410.672z"/>
		<path fill="#5D9CEC" d="M480,453.344c-5.891,0-10.672,4.766-10.672,10.656s4.781,10.672,10.672,10.672s10.672-4.781,10.672-10.672    S485.891,453.344,480,453.344z"/>
		<path fill="#5D9CEC" d="M437.328,453.344c-5.891,0-10.656,4.766-10.656,10.656s4.766,10.672,10.656,10.672S448,469.891,448,464    S443.219,453.344,437.328,453.344z"/>
		<path fill="#5D9CEC" d="M394.672,453.344c-5.891,0-10.672,4.766-10.672,10.656s4.781,10.672,10.672,10.672    s10.656-4.781,10.656-10.672S400.562,453.344,394.672,453.344z"/>
		<path fill="#5D9CEC" d="M352,453.344c-5.891,0-10.672,4.766-10.672,10.656s4.781,10.672,10.672,10.672s10.672-4.781,10.672-10.672    S357.891,453.344,352,453.344z"/>
		<path fill="#5D9CEC" d="M309.328,453.344c-5.891,0-10.656,4.766-10.656,10.656s4.766,10.672,10.656,10.672S320,469.891,320,464    S315.219,453.344,309.328,453.344z"/>
		<path fill="#5D9CEC" d="M266.672,453.344c-5.891,0-10.672,4.766-10.672,10.656s4.781,10.672,10.672,10.672    s10.656-4.781,10.656-10.672S272.562,453.344,266.672,453.344z"/>
	</g>
	<g>
		<g>
			<polygon fill="#CCD1D9" points="234.672,496 106.672,496 127.938,421.422 213.359,421.391    "/>
		</g>
		<path fill="#5D9CEC" d="M21.328,432c-5.875,0-10.656-4.781-10.656-10.656V218.672c0-5.875,4.781-10.672,10.656-10.672H320    c5.875,0,10.672,4.797,10.672,10.672v202.672c0,5.875-4.797,10.656-10.672,10.656H21.328z"/>
		<path fill="#E6E9ED" d="M320,197.344H21.328C9.547,197.344,0,206.891,0,218.672v202.672c0,11.781,9.547,21.328,21.328,21.328H320    c11.781,0,21.328-9.547,21.328-21.328V218.672C341.328,206.891,331.781,197.344,320,197.344z M320,421.344H21.328V218.672H320    V421.344z"/>
		<rect x="15.953" y="400" fill="#E6E9ED" width="309.438" height="31.062"/>
		<path fill="#434A54" d="M181.328,421.344c0,5.891-4.766,10.656-10.656,10.656S160,427.234,160,421.344s4.781-10.672,10.672-10.672    S181.328,415.453,181.328,421.344z"/>
		<path fill="#E6E9ED" d="M234.672,474.672h-128c-5.891,0-10.672,4.781-10.672,10.672S100.781,496,106.672,496h128    c5.891,0,10.656-4.766,10.656-10.656S240.562,474.672,234.672,474.672z"/>
	</g>
	<polygon opacity="0.1" fill="#FFFFFF" points="189.328,400 128,400 192,218.672 253.328,218.672  "/>
</g>
</svg>