<?xml version="1.0" encoding="utf-8"?>
<!-- Uploaded to: SVG Repo, www.svgrepo.com, Generator: SVG Repo Mixer Tools -->
<!DOCTYPE svg PUBLIC "-//W3C//DTD SVG 1.1//EN" "http://www.w3.org/Graphics/SVG/1.1/DTD/svg11.dtd">
<svg xmlns="http://www.w3.org/2000/svg" xmlns:xlink="http://www.w3.org/1999/xlink" version="1.1" id="Layer_1"  width="512" height="512" viewBox="0 0 512 512" enable-background="new 0 0 512 512" xml:space="preserve">
<g id="database">
	<g>
		<polygon fill="#434A54" points="288,426.66 288,333.348 224,333.348 224,426.66 0,426.66 0,490.66 224,490.66 288,490.66     512,490.66 512,426.66   "/>
	</g>
	<g>
		<rect x="170.688" y="426.66" fill="#CCD1D9" width="170.656" height="64"/>
	</g>
	<g>
		<rect x="224" y="255.996" fill="#CCD1D9" width="64" height="170.664"/>
	</g>
	<rect x="170.688" y="448.004" fill="#E6E9ED" width="170.656" height="21.344"/>
	<rect x="245.344" y="256.887" fill="#E6E9ED" width="21.344" height="191.961"/>
	<g>
		<g>
			<path fill="#4A89DC" d="M85.344,74.668v64v85.328v85.352c0,29.438,76.406,53.312,170.656,53.312     c94.266,0,170.688-23.875,170.688-53.312v-85.352v-85.328v-64H85.344z"/>
		</g>
		<g>
			<path fill="#5D9CEC" d="M426.688,74.668c0,29.453-76.422,53.328-170.688,53.328c-94.25,0-170.656-23.875-170.656-53.328     S161.75,21.34,256,21.34C350.266,21.34,426.688,45.215,426.688,74.668z"/>
		</g>
		<g opacity="0.1">
			<path d="M426.688,261.371v-37.375c0,29.469-76.422,53.352-170.688,53.352c-94.25,0-170.656-23.883-170.656-53.352v37.375     c0.25,0.188,0.484,0.359,0.734,0.547c10.516,7.766,24.953,14.555,42.891,20.148c34.25,10.719,79.359,16.594,127.031,16.594     c47.688,0,92.812-5.875,127.062-16.594c17.938-5.594,32.375-12.383,42.875-20.148     C426.188,261.746,426.438,261.559,426.688,261.371z"/>
		</g>
		<g opacity="0.1">
			<path d="M426.688,176.043v-37.375c0,29.453-76.422,53.328-170.688,53.328c-94.25,0-170.656-23.875-170.656-53.328v37.359     c0.25,0.188,0.484,0.375,0.734,0.562c10.516,7.766,24.953,14.547,42.891,20.156c34.25,10.703,79.359,16.594,127.031,16.594     c47.688,0,92.812-5.891,127.062-16.594c17.938-5.609,32.375-12.391,42.875-20.156     C426.188,176.402,426.438,176.23,426.688,176.043z"/>
		</g>
	</g>
</g>
</svg>