<?xml version="1.0" encoding="UTF-8"?>
<svg width="512" height="512" version="1.1" viewBox="0 0 512 512" xmlns="http://www.w3.org/2000/svg">
 <path d="m511 151v283c0 16.2-13.5 27-27 27h-456c-14.9 0-27-12.1-27-27v-283c0-14.9 12.1-27 27-27h456c13.5 0 27 10.8 27 27" fill="#e6e6e6"/>
 <path d="m511 151v26.9h-510v-26.9c0-14.9 12.1-27 27-27h456c14.9 1e-3 27 12.1 27 27" fill="#9da3c9"/>
 <path d="m482 286h-209v148h209v-148" fill="#fff"/>
 <rect x="285" y="403" width="148" height="18.6" rx="8.3" ry="8.3" fill="#999"/>
 <rect x="285" y="372" width="178" height="18.6" rx="8.3" ry="8.3" fill="#999"/>
 <rect x="285" y="340" width="73.4" height="18.6" rx="8.3" ry="8.3" fill="#999"/>
 <rect x="285" y="309" width="134" height="18.6" rx="8.3" ry="8.3" fill="#999"/>
 <rect x="32" y="194" width="134" height="18.6" rx="8.3" ry="8.3" fill="#999"/>
 <path d="m392 143-121 16.1c-0.26 92.1 58.7 140 133 135 76-5.77 108-60.6 108-139" fill="#bbb"/>
 <path d="m391 150-36.7 117c-63.5-19.9-99.2-89.5-79.2-153z" fill="#ffda19"/>
 <path d="m445 273c-22.6 15.2-63.9 16.6-84.8 7.91l33.3-109z" fill="#614ae8"/>
 <path d="m447 258-55.9-107-116-36.2c32.6-104 174-112 223-19.7 30.8 59.1 7.96 132-51.1 163z" fill="#ff460e"/>
 <path d="m239 225h-209v209h209v-209" fill="#fff"/>
 <path d="m89.8 321h-40.4v101h40.4v-101" fill="#614ae8"/>
 <path d="m155 287h-40.4v135h40.4v-135" fill="#ffda19"/>
 <path d="m220 250h-40.4v172h40.4v-172" fill="#ff460e"/>
</svg>
