<?xml version="1.0" encoding="UTF-8"?>
<svg width="512" height="512" version="1.1" viewBox="0 0 512 512" xmlns="http://www.w3.org/2000/svg">
 <defs>
  <linearGradient id="a" x1="236" x2="277" y1="409" y2="409" gradientTransform="matrix(.421 0 0 .419 148 -7.55)" gradientUnits="userSpaceOnUse">
   <stop style="stop-color:#333" offset="0"/>
   <stop style="stop-color:#808080" offset=".5"/>
   <stop style="stop-color:#333" offset="1"/>
  </linearGradient>
  <linearGradient id="b" x1="219" x2="298" y1="383" y2="53" gradientTransform="matrix(.421 0 0 .419 148 -16.6)" gradientUnits="userSpaceOnUse">
   <stop style="stop-color:#2b34e7" offset="0"/>
   <stop style="stop-color:#a5a5fd" offset="1"/>
  </linearGradient>
  <linearGradient id="c" x1="236" x2="277" y1="409" y2="409" gradientTransform="matrix(.421 0 0 .419 293 306)" gradientUnits="userSpaceOnUse">
   <stop style="stop-color:#333" offset="0"/>
   <stop style="stop-color:#808080" offset=".5"/>
   <stop style="stop-color:#333" offset="1"/>
  </linearGradient>
  <linearGradient id="d" x1="219" x2="298" y1="383" y2="53" gradientTransform="matrix(.421 0 0 .419 293 297)" gradientUnits="userSpaceOnUse">
   <stop style="stop-color:#2b34e7" offset="0"/>
   <stop style="stop-color:#a5a5fd" offset="1"/>
  </linearGradient>
  <linearGradient id="e" x1="236" x2="277" y1="409" y2="409" gradientTransform="matrix(.421 0 0 .419 3.35 306)" gradientUnits="userSpaceOnUse">
   <stop style="stop-color:#333" offset="0"/>
   <stop style="stop-color:#808080" offset=".5"/>
   <stop style="stop-color:#333" offset="1"/>
  </linearGradient>
  <linearGradient id="f" x1="219" x2="298" y1="383" y2="53" gradientTransform="matrix(.421 0 0 .419 3.35 297)" gradientUnits="userSpaceOnUse">
   <stop style="stop-color:#2b34e7" offset="0"/>
   <stop style="stop-color:#a5a5fd" offset="1"/>
  </linearGradient>
 </defs>
 <path d="m257 253h254-109v76.9m-145-151v74.1h-256 112v76.9" style="fill:none;stroke-width:20;stroke:#cc3434"/>
 <circle cx="257" cy="253" r="25" fill="#cc3434"/>
 <circle cx="113" cy="253" r="25" fill="#cc3434"/>
 <circle cx="402" cy="253" r="25" fill="#cc3434"/>
 <path d="m214 175-1.07 6.97c-0.138 1 0.825 1.83 1.84 1.83h81.2c1.01 0 2.02-0.837 1.84-1.83l-1.5-7.33z" style="fill:#808080;stroke-width:11;stroke:#808080"/>
 <path d="m213 179c-0.127 0.888 0.829 1.62 1.85 1.62h81.6c1.02 0 2.02-0.737 1.85-1.62 0 0-0.614-4.98-1.12-7.45-0.178-0.879-1.47-2-2.49-2-26 0.0888-52.2 0.188-65.6 0.226s-14.9-0.331-14.9 0.537z" style="fill:#333;stroke-width:10;stroke:#333"/>
 <path d="m248 144h17.2v28.3c0 6.2-17.2 6.11-17.2 0z" fill="url(#a)"/>
 <path d="m150 5.61h211v138h-211z" fill="url(#b)"/>
 <path d="m150 5.57h211c-44.2 53.2-94.3 88.8-211 100z" style="fill-opacity:.35;fill:#97f0ff"/>
 <rect x="150" y="5.4" width="212" height="138" rx="5" ry="5" style="fill:none;stroke-width:8;stroke:#333"/>
 <path d="m359 490-0.871 6.4c-0.138 1 0.825 1.83 1.84 1.83h81.5c1.01 0 2.02-0.837 1.84-1.83l-1.61-6.3z" style="fill:#808080;stroke-width:11;stroke:#808080"/>
 <path d="m358 492c-0.127 0.888 0.829 1.62 1.85 1.62h81.6c1.02 0 2.02-0.737 1.85-1.62 0 0-0.614-4.98-1.12-7.45-0.178-0.879-1.47-2-2.49-2-26 0.0888-52.2 0.188-65.6 0.226s-14.9-0.299-14.9 0.628z" style="fill:#333;stroke-width:10;stroke:#333"/>
 <path d="m392 457h17.2v28.3c0 6.2-17.2 6.11-17.2 0z" fill="url(#c)"/>
 <path d="m295 319h211v138h-211z" fill="url(#d)"/>
 <path d="m295 319h211c-44.2 53.2-94.3 88.8-211 100z" style="fill-opacity:.35;fill:#97f0ff"/>
 <rect x="295" y="319" width="212" height="138" rx="5" ry="5" style="fill:none;stroke-width:8;stroke:#333"/>
 <path d="m69.6 488-1.43 7.52c-0.138 1 0.825 1.83 1.84 1.83h81.4c1.01 0 2.02-0.837 1.84-1.83l-0.742-4.25z" style="fill:#808080;stroke-width:11;stroke:#808080"/>
 <path d="m68.2 492c-0.127 0.888 0.829 1.62 1.85 1.62h81.6c1.02 0 2.02-0.737 1.85-1.62 0 0-0.614-4.98-1.12-7.45-0.178-0.879-1.47-2-2.49-2-26 0.0888-52.2 0.188-65.6 0.226s-14.9-0.177-14.9 0.639z" style="fill:#333;stroke-width:10;stroke:#333"/>
 <path d="m103 457h17.2v28.3c0 6.2-17.2 6.11-17.2 0z" fill="url(#e)"/>
 <path d="m5.26 319h211v138h-211z" fill="url(#f)"/>
 <path d="m5.4 319h211c-44.2 53.2-94.3 88.8-211 100z" style="fill-opacity:.35;fill:#97f0ff"/>
 <rect x="5.33" y="319" width="212" height="138" rx="5" ry="5" style="fill:none;stroke-width:8;stroke:#333"/>
</svg>
