<?xml version="1.0" encoding="UTF-8" standalone="no"?>
<!-- Uploaded to: SVG Repo, www.svgrepo.com, Generator: SVG Repo Mixer Tools -->

<svg
   height="512"
   width="257.698"
   version="1.1"
   id="_x36_"
   viewBox="0 0 257.698 512"
   xml:space="preserve"
   sodipodi:docname="nqueens.svg"
   inkscape:version="1.1.2 (0a00cf5339, 2022-02-04)"
   xmlns:inkscape="http://www.inkscape.org/namespaces/inkscape"
   xmlns:sodipodi="http://sodipodi.sourceforge.net/DTD/sodipodi-0.dtd"
   xmlns="http://www.w3.org/2000/svg"
   xmlns:svg="http://www.w3.org/2000/svg"><defs
   id="defs49" /><sodipodi:namedview
   id="namedview47"
   pagecolor="#ffffff"
   bordercolor="#666666"
   borderopacity="1.0"
   inkscape:pageshadow="2"
   inkscape:pageopacity="0.0"
   inkscape:pagecheckerboard="0"
   showgrid="false"
   inkscape:zoom="1.2304688"
   inkscape:cx="255.59365"
   inkscape:cy="256"
   inkscape:window-width="3840"
   inkscape:window-height="2065"
   inkscape:window-x="0"
   inkscape:window-y="0"
   inkscape:window-maximized="1"
   inkscape:current-layer="_x36_" />
<g
   id="g44">
	<path
   style="fill:#ffffff"
   d="m 255.13,477.751 c 0,-2.179 -0.389,-4.28 -1.089,-6.069 -0.155,-0.467 -0.389,-0.856 -0.544,-1.245 -0.156,-0.312 -0.312,-0.545 -0.467,-0.856 -0.234,-0.389 -0.545,-0.778 -0.856,-1.167 -0.155,-0.156 -0.311,-0.389 -0.467,-0.545 -0.311,-0.467 -0.622,-0.778 -1.012,-1.089 -0.155,-0.156 -0.311,-0.311 -0.545,-0.389 -0.467,-0.389 -0.934,-0.701 -1.478,-0.934 l -6.458,-70.494 -1.012,-11.048 v -0.156 c 0.623,-0.622 1.167,-1.4 1.556,-2.179 0.155,-0.155 0.233,-0.311 0.311,-0.467 0.078,-0.078 0.078,-0.078 0.156,-0.155 0.233,-0.389 0.467,-0.778 0.622,-1.245 0.078,0 0.078,-0.078 0.078,-0.078 0.234,-0.389 0.389,-0.856 0.545,-1.245 0,-0.078 0.078,-0.156 0.078,-0.156 0.233,-0.545 0.389,-1.089 0.545,-1.634 0.078,-0.156 0.078,-0.389 0.156,-0.623 0.077,-0.156 0.077,-0.311 0.155,-0.545 0,-0.156 0.078,-0.311 0.078,-0.467 0.234,-1.089 0.311,-2.256 0.311,-3.424 0,-8.092 -5.213,-15.017 -12.449,-17.662 -0.389,-0.155 -0.778,-0.233 -1.167,-0.389 -0.389,-0.078 -0.778,-0.156 -1.167,-0.311 v -0.078 c -0.312,-0.934 -0.623,-1.867 -0.934,-2.957 -0.156,-0.623 -0.311,-1.245 -0.545,-1.867 0,-0.078 0,-0.234 -0.078,-0.312 -0.467,-1.789 -0.934,-3.657 -1.478,-5.68 -0.233,-0.934 -0.467,-2.023 -0.778,-3.112 -0.389,-1.556 -0.778,-3.268 -1.167,-5.058 -0.389,-1.79 -0.856,-3.657 -1.245,-5.525 -0.312,-1.245 -0.545,-2.567 -0.856,-3.813 -0.467,-2.412 -1.012,-4.824 -1.478,-7.314 -1.945,-9.103 -3.812,-18.829 -5.602,-28.555 -0.156,-0.623 -0.234,-1.167 -0.389,-1.789 -0.234,-1.478 -0.467,-2.879 -0.778,-4.357 -0.233,-1.478 -0.545,-2.957 -0.778,-4.435 -0.234,-1.4 -0.467,-2.801 -0.778,-4.124 -0.234,-1.401 -0.467,-2.801 -0.701,-4.201 h -0.078 c -0.156,-1.089 -0.389,-2.179 -0.545,-3.19 -0.622,-3.501 -1.167,-6.924 -1.789,-10.271 -0.234,-1.478 -0.467,-2.879 -0.701,-4.357 -0.233,-1.323 -0.467,-2.723 -0.7,-3.968 -0.078,-0.312 -0.156,-0.701 -0.156,-1.089 -0.233,-1.478 -0.467,-2.879 -0.7,-4.202 -0.156,-0.7 -0.234,-1.4 -0.389,-2.023 0,-0.156 -0.077,-0.312 -0.077,-0.467 -0.389,-2.335 -0.778,-4.513 -1.089,-6.536 -1.012,-6.302 -1.79,-11.126 -2.179,-13.616 1.478,-1.945 2.412,-4.435 2.412,-7.08 0,-4.902 -3.112,-9.182 -7.547,-10.815 -1.012,-4.435 -2.101,-10.193 -3.035,-16.651 -0.467,-2.801 -0.856,-5.758 -1.167,-8.792 0.078,-0.078 0.234,-0.156 0.311,-0.311 1.712,-1.478 2.801,-3.501 2.801,-5.835 0,-2.957 -1.712,-5.447 -4.046,-6.847 -0.155,-0.078 -0.389,-0.234 -0.545,-0.311 0.156,0.077 0.389,0.155 0.545,0.233 -0.077,-1.245 -0.077,-2.49 -0.077,-3.735 0,-33.38 17.662,-49.797 28.71,-63.88 3.501,-4.357 6.303,-8.559 7.781,-12.994 H 210.313 L 194.596,67.626 177.634,84.59 188.216,73.853 c -0.312,-1.4 -0.7,-2.879 -1.167,-4.279 -0.389,-1.4 -0.856,-2.801 -1.4,-4.124 -0.311,-0.856 -0.623,-1.634 -1.089,-2.412 0,-0.155 -0.078,-0.311 -0.233,-0.389 -0.234,-0.623 -0.623,-1.323 -0.934,-1.945 -0.234,-0.545 -0.467,-1.012 -0.701,-1.556 -0.778,-1.634 -1.634,-3.112 -2.645,-4.59 -0.623,-1.011 -1.323,-2.023 -2.023,-2.957 -0.545,-0.934 -1.245,-1.789 -1.945,-2.646 -0.078,-0.155 -0.156,-0.233 -0.311,-0.311 -1.245,-1.556 -2.567,-3.035 -3.968,-4.435 -0.078,-0.156 -0.234,-0.311 -0.311,-0.389 -1.556,-1.478 -3.112,-2.957 -4.824,-4.279 -0.467,-0.389 -1.011,-0.778 -1.478,-1.167 -1.556,-1.167 -3.112,-2.256 -4.668,-3.19 -0.856,-0.545 -1.712,-1.012 -2.568,-1.478 0,-0.078 0,-0.078 -0.078,-0.078 -2.023,-1.089 -4.046,-2.101 -6.147,-2.957 -0.545,-0.234 -1.089,-0.467 -1.634,-0.701 -0.934,-0.389 -1.945,-0.7 -2.879,-1.011 -0.389,-0.155 -0.856,-0.311 -1.245,-0.389 -0.701,-0.233 -1.323,-0.389 -2.023,-0.545 -0.701,-0.233 -1.478,-0.467 -2.179,-0.622 0.078,-0.078 0.078,-0.078 0.078,-0.156 1.867,-2.646 3.035,-5.913 3.112,-9.415 v -0.467 c 0,-8.792 -6.458,-15.95 -14.861,-17.117 V 0.013 c -0.467,0 -0.856,0.078 -1.245,0.078 -0.389,0 -0.778,-0.078 -1.245,-0.078 v 0.234 c -0.077,0 -0.077,0 -0.155,0.077 -8.325,1.167 -14.706,8.325 -14.706,17.04 0,3.657 1.167,7.081 3.113,9.882 0,0.078 0.077,0.078 0.155,0.156 -0.389,0.078 -0.7,0.155 -1.089,0.311 -1.09,0.234 -2.101,0.545 -3.19,0.856 -7.003,2.101 -13.538,5.524 -19.218,9.804 -2.257,1.712 -4.357,3.501 -6.302,5.447 -3.035,3.112 -5.836,6.458 -8.248,10.115 -3.113,4.746 -5.602,10.037 -7.314,15.639 -0.467,1.401 -0.856,2.879 -1.167,4.279 L 80.064,84.59 63.102,67.628 47.384,83.267 H 26.532 c 6.069,18.44 36.492,33.068 36.492,76.874 0,1.245 0,2.49 -0.078,3.735 0.156,-0.078 0.389,-0.233 0.545,-0.233 -0.155,0.077 -0.389,0.233 -0.545,0.311 -2.334,1.4 -4.046,3.89 -4.046,6.847 0,2.334 1.089,4.357 2.801,5.835 0.078,0.155 0.233,0.233 0.311,0.311 -0.311,3.035 -0.7,5.991 -1.167,8.792 -0.934,6.458 -2.101,12.216 -3.035,16.651 -4.435,1.634 -7.548,5.913 -7.548,10.815 0,2.645 0.934,5.135 2.412,7.08 -0.389,2.49 -1.167,7.314 -2.179,13.616 -0.778,4.668 -1.712,10.193 -2.723,16.339 -0.312,2.023 -0.701,4.124 -1.089,6.302 -0.545,3.268 -1.167,6.614 -1.789,10.115 -0.389,2.334 -0.778,4.746 -1.245,7.158 -1.712,9.648 -3.579,19.685 -5.524,29.411 -0.622,3.19 -1.245,6.303 -1.867,9.337 -0.311,1.712 -0.622,3.424 -1.012,5.058 -0.467,2.412 -1.011,4.824 -1.478,7.158 -1.712,8.014 -3.424,15.25 -4.979,21.164 -0.778,2.645 -1.401,5.057 -2.101,7.158 v 0.078 c -0.389,0.155 -0.778,0.233 -1.167,0.311 -0.389,0.078 -0.778,0.234 -1.167,0.389 -7.236,2.646 -12.45,9.571 -12.45,17.662 0,1.789 0.234,3.501 0.701,5.058 0.156,0.544 0.311,1.089 0.545,1.634 0.778,2.023 1.945,3.89 3.346,5.525 v 0.156 l -1.012,11.204 -6.458,70.338 c -0.622,0.233 -1.167,0.623 -1.634,1.012 -0.156,0.078 -0.312,0.155 -0.389,0.311 -0.389,0.311 -0.778,0.7 -1.089,1.089 -0.467,0.545 -0.856,1.089 -1.245,1.712 -0.389,0.701 -0.7,1.401 -1.012,2.101 -0.7,1.789 -1.089,3.89 -1.089,6.069 L 0.233,497.202 0,499.07 c 0,7.158 4.124,12.916 9.181,12.916 h 239.336 c 5.057,0 9.181,-5.758 9.181,-12.916 z M 127.604,34.404 v 0.078 c -0.311,-0.078 -0.622,-0.078 -0.934,-0.233 0.312,0.077 0.623,0.077 0.934,0.155 z m -1.712,-0.311 h -0.078 c -0.233,-0.078 -0.467,-0.156 -0.7,-0.234 0.234,0.156 0.545,0.156 0.778,0.234 z m -6.536,47.929 -17.896,23.965 -0.155,-0.156 z"
   id="path2" />
	<g
   id="g42">
		<g
   id="g32">
			<path
   style="fill:#e3b967"
   d="m 130.094,178.892 v 22.72 H 61.857 c -1.4,0 -2.801,0.312 -4.046,0.778 0.934,-4.435 2.101,-10.193 3.035,-16.651 0.467,-2.801 0.856,-5.758 1.167,-8.792 1.401,1.167 3.113,1.945 4.98,1.945 z"
   id="path4" />
			<path
   style="fill:#c99557"
   d="m 188.216,73.852 -10.582,10.738 -0.856,0.856 -20.23,20.541 -0.156,-0.156 -18.829,-24.898 -8.714,-11.516 -8.481,11.126 -0.7,1.011 -0.312,0.467 -18.051,23.809 -0.156,0.156 L 80.92,85.446 80.064,84.59 69.482,73.852 c 0.311,-1.4 0.701,-2.879 1.167,-4.279 1.712,-5.524 4.201,-10.815 7.314,-15.639 2.412,-3.657 5.213,-7.002 8.248,-10.115 1.945,-1.945 4.046,-3.735 6.302,-5.447 5.68,-4.279 12.215,-7.703 19.218,-9.804 1.089,-0.311 2.101,-0.622 3.19,-0.856 0.389,-0.156 0.7,-0.233 1.089,-0.311 h 0.078 c 0.623,0.856 1.323,1.712 2.101,2.49 0.078,0.155 0.233,0.233 0.389,0.311 0.467,0.467 0.934,0.856 1.4,1.167 0.311,0.233 0.623,0.467 0.934,0.622 1.011,0.701 2.179,1.245 3.346,1.634 0.467,0.233 1.012,0.389 1.556,0.467 0.545,0.233 1.167,0.389 1.789,0.389 0.156,0.078 0.39,0.078 0.623,0.156 0,0 0.078,0 0.156,0 0.156,0 0.311,0.078 0.467,0.078 0.156,0 0.389,0 0.545,-0.078 0,0 0,0 0.078,0 0.233,0 0.389,-0.078 0.622,-0.156 0.623,0 1.245,-0.156 1.79,-0.389 1.789,-0.389 3.424,-1.089 4.902,-2.101 0.311,-0.155 0.622,-0.389 0.934,-0.622 0.467,-0.312 0.934,-0.701 1.4,-1.167 0.155,-0.078 0.311,-0.156 0.389,-0.311 0.778,-0.778 1.478,-1.634 2.101,-2.49 h 0.155 c 0.7,0.155 1.478,0.389 2.179,0.622 0.7,0.156 1.323,0.312 2.023,0.545 0.389,0.078 0.856,0.234 1.245,0.389 0.934,0.312 1.945,0.623 2.879,1.011 0.545,0.234 1.089,0.467 1.634,0.701 2.101,0.856 4.124,1.867 6.147,2.957 h 0.078 v 0.078 c 0.856,0.467 1.712,0.934 2.568,1.478 1.556,0.934 3.112,2.023 4.668,3.19 0.7,0.545 1.323,1.012 1.945,1.634 1.478,1.167 2.957,2.49 4.357,3.813 0.078,0.078 0.234,0.233 0.311,0.389 1.4,1.401 2.723,2.879 3.968,4.435 0.156,0.078 0.234,0.156 0.311,0.311 0.7,0.856 1.4,1.712 1.945,2.646 0.622,0.778 1.167,1.556 1.712,2.334 0.078,0.234 0.234,0.467 0.312,0.623 1.011,1.478 1.867,2.957 2.645,4.59 0.623,1.089 1.167,2.257 1.634,3.501 0.155,0.078 0.233,0.234 0.233,0.389 0.934,2.101 1.79,4.28 2.49,6.536 0.467,1.401 0.856,2.879 1.167,4.279 z"
   id="path6" />
			<path
   style="fill:#e3b967"
   d="m 199.894,202.373 c -1.245,-0.467 -2.646,-0.778 -4.046,-0.778 H 127.61 v -22.72 h 63.024 c 1.945,0 3.657,-0.778 5.057,-1.945 0.311,3.035 0.701,5.991 1.167,8.792 0.935,6.458 2.024,12.216 3.036,16.651 z"
   id="path8" />
			<path
   style="fill:#e3b967"
   d="m 223.385,96.261 c -11.048,14.083 -28.71,30.5 -28.71,63.88 0,1.245 0,2.49 0.077,3.735 -0.155,-0.078 -0.389,-0.156 -0.545,-0.233 -0.233,-0.156 -0.467,-0.234 -0.7,-0.311 -0.856,-0.467 -1.867,-0.7 -2.879,-0.7 H 66.992 c -1.245,0 -2.412,0.389 -3.501,1.011 -0.155,0 -0.389,0.155 -0.545,0.233 0.078,-1.245 0.078,-2.49 0.078,-3.735 0,-43.806 -30.423,-58.434 -36.492,-76.874 h 20.852 l 15.717,-15.639 17.819,17.818 20.386,20.385 0.155,0.156 17.896,-23.965 0.312,-0.467 0.7,-1.011 7.236,-9.648 v -3.268 l 1.245,1.634 1.245,-1.634 v 3.268 l 7.47,10.037 18.674,25.054 0.155,-0.156 20.385,-20.385 0.856,-0.856 16.962,-16.962 15.717,15.639 h 20.852 c -1.478,4.435 -4.28,8.637 -7.781,12.994 z"
   id="path10" />
			<path
   style="fill:#e3b967"
   d="m 144.955,17.364 v 0.467 c -0.078,3.501 -1.245,6.769 -3.112,9.415 0,0.078 0,0.078 -0.078,0.156 h -0.078 c -0.622,0.934 -1.323,1.789 -2.178,2.49 -0.078,0.155 -0.234,0.233 -0.389,0.311 -0.467,0.467 -0.934,0.856 -1.4,1.167 -0.312,0.233 -0.623,0.467 -0.934,0.622 -1.556,0.934 -3.19,1.634 -4.902,2.101 -0.623,0.078 -1.167,0.233 -1.79,0.311 v 0.312 c -0.233,0 -0.467,-0.078 -0.622,-0.078 -0.078,0 -0.078,0 -0.078,0 -0.234,-0.078 -0.389,-0.078 -0.545,-0.078 -0.156,0 -0.311,0 -0.467,0.078 -0.078,0 -0.156,0 -0.156,0 -0.233,0 -0.467,0.078 -0.623,0.078 v -0.312 c -0.311,-0.078 -0.622,-0.078 -0.934,-0.155 -0.233,-0.078 -0.545,-0.078 -0.778,-0.156 h -0.078 c -0.233,-0.078 -0.467,-0.156 -0.7,-0.234 -0.311,-0.077 -0.545,-0.155 -0.856,-0.233 -0.545,-0.234 -1.012,-0.467 -1.556,-0.701 -0.545,-0.233 -1.011,-0.467 -1.478,-0.778 -0.078,0 -0.156,-0.078 -0.312,-0.156 -0.311,-0.155 -0.623,-0.389 -0.934,-0.622 -0.467,-0.312 -0.934,-0.701 -1.4,-1.167 -0.156,-0.078 -0.311,-0.156 -0.389,-0.311 -0.856,-0.7 -1.556,-1.556 -2.179,-2.49 -0.078,-0.078 -0.155,-0.078 -0.155,-0.156 -1.945,-2.801 -3.113,-6.225 -3.113,-9.882 0,-8.714 6.38,-15.873 14.706,-17.04 0.078,-0.077 0.078,-0.077 0.155,-0.077 V 0.013 c 0.467,0 0.856,0.078 1.245,0.078 0.389,0 0.778,-0.078 1.245,-0.078 v 0.234 c 8.405,1.167 14.863,8.325 14.863,17.117 z"
   id="path12" />
			<path
   style="fill:#c99557"
   d="m 198.798,170.801 c 0,2.334 -1.089,4.357 -2.801,5.835 -0.078,0.155 -0.234,0.233 -0.311,0.311 -1.4,1.167 -3.112,1.945 -5.057,1.945 H 66.992 c -1.867,0 -3.579,-0.778 -4.98,-1.945 -0.078,-0.078 -0.233,-0.156 -0.311,-0.311 -1.712,-1.478 -2.801,-3.501 -2.801,-5.835 0,-2.957 1.712,-5.447 4.046,-6.847 0.156,-0.078 0.389,-0.234 0.545,-0.311 1.089,-0.623 2.257,-1.011 3.501,-1.011 h 123.636 c 1.012,0 2.023,0.233 2.879,0.7 0.233,0.078 0.467,0.234 0.7,0.311 0.156,0.077 0.389,0.233 0.545,0.311 2.334,1.4 4.046,3.89 4.046,6.847 z"
   id="path14" />
			<path
   style="fill:#c99557"
   d="m 207.434,213.206 c 0,2.645 -0.934,5.135 -2.412,7.08 -2.178,2.723 -5.447,4.591 -9.181,4.591 H 61.857 c -3.735,0 -7.003,-1.868 -9.181,-4.591 -1.478,-1.945 -2.412,-4.435 -2.412,-7.08 0,-4.902 3.112,-9.182 7.548,-10.815 1.245,-0.467 2.646,-0.778 4.046,-0.778 h 133.984 c 1.4,0 2.801,0.312 4.046,0.778 4.434,1.633 7.546,5.913 7.546,10.815 z"
   id="path16" />
			<path
   style="fill:#e3b967"
   d="m 228.598,358.472 h -22.331 c 0.233,0.389 0.389,0.856 0.545,1.245 -1.478,-0.778 -3.112,-1.245 -4.747,-1.245 H 55.632 c -1.634,0 -3.268,0.467 -4.746,1.245 0.156,-0.389 0.312,-0.856 0.545,-1.245 H 29.1 c -1.634,0 -3.268,0.467 -4.746,1.245 0.778,-1.634 1.556,-3.89 2.412,-6.613 0.623,-2.101 1.323,-4.513 2.023,-7.158 1.556,-5.913 3.268,-13.149 4.979,-21.164 0.467,-2.334 1.012,-4.746 1.478,-7.158 0.389,-1.634 0.701,-3.346 1.012,-5.058 0.623,-3.034 1.245,-6.147 1.867,-9.337 1.945,-9.726 3.813,-19.763 5.524,-29.411 0.467,-2.412 0.856,-4.824 1.245,-7.158 0.622,-3.501 1.245,-6.847 1.789,-10.115 0.389,-2.178 0.778,-4.279 1.089,-6.302 1.012,-6.147 1.945,-11.671 2.723,-16.339 1.011,-6.302 1.789,-11.126 2.179,-13.616 2.178,2.723 5.446,4.591 9.181,4.591 h 133.984 c 3.735,0 7.003,-1.868 9.181,-4.591 0.389,2.49 1.167,7.314 2.179,13.616 0.311,2.023 0.7,4.201 1.089,6.536 0,0.155 0.077,0.311 0.077,0.467 0.312,1.867 0.623,3.813 0.934,5.758 0.078,0.155 0.078,0.311 0.156,0.467 0,0.389 0.078,0.778 0.156,1.089 0.078,0.7 0.233,1.4 0.311,2.023 0.312,2.023 0.7,4.124 1.089,6.302 0.623,3.346 1.167,6.77 1.789,10.271 0.156,1.012 0.389,2.101 0.545,3.19 0.234,1.401 0.467,2.723 0.778,4.201 0.233,1.4 0.544,2.724 0.778,4.124 0.233,1.478 0.545,2.957 0.778,4.435 0.312,1.478 0.545,2.879 0.778,4.357 0.155,0.622 0.233,1.167 0.389,1.789 1.79,9.726 3.657,19.452 5.602,28.555 0.467,2.49 0.934,4.98 1.478,7.314 0.311,1.245 0.545,2.568 0.856,3.813 0.389,1.945 0.778,3.735 1.245,5.525 0.389,1.789 0.778,3.501 1.167,5.058 0.233,1.089 0.467,2.1 0.778,3.112 0.545,2.023 1.012,3.89 1.478,5.68 0,0.156 0.078,0.234 0.078,0.312 0.233,0.623 0.389,1.245 0.545,1.867 0.311,1.089 0.545,2.023 0.856,2.957 0.856,2.801 1.634,4.98 2.412,6.613 -1.475,-0.78 -3.109,-1.247 -4.743,-1.247 z"
   id="path18" />
			<path
   style="opacity:0.1;fill:#040000"
   d="M 196.853,185.74 H 60.846 c 0.467,-2.801 0.856,-5.758 1.167,-8.792 -0.078,-0.078 -0.233,-0.156 -0.311,-0.311 0.078,0 0.078,0 0.156,0 h 133.984 c 0.078,0 0.078,0 0.156,0 -0.078,0.155 -0.234,0.233 -0.311,0.311 0.31,3.034 0.699,5.991 1.166,8.792 z"
   id="path20" />
			<path
   style="fill:#e3b967"
   d="M 249.14,470.437 H 8.559 l 0.467,-4.98 6.458,-70.338 1.012,-11.204 v -0.156 l 0.311,-2.957 c 0.545,0.856 1.089,1.634 1.712,2.334 1.867,2.101 4.124,3.268 6.536,3.268 h 6.38 l 0.467,-5.602 c 0.545,0.856 1.167,1.634 1.79,2.334 1.867,2.101 4.124,3.268 6.458,3.268 h 3.579 l 0.545,-5.602 c 0.545,0.856 1.089,1.634 1.712,2.334 1.867,2.101 4.124,3.268 6.536,3.268 h 6.38 l 0.545,-5.602 c 0.544,0.856 1.089,1.634 1.712,2.334 1.867,2.101 4.124,3.268 6.536,3.268 h 122.313 c 2.412,0 4.669,-1.167 6.536,-3.268 0.622,-0.7 1.167,-1.478 1.711,-2.334 l 0.545,5.602 h 6.38 c 2.412,0 4.668,-1.167 6.536,-3.268 0.623,-0.7 1.167,-1.478 1.712,-2.334 l 0.545,5.602 h 3.579 c 2.335,0 4.591,-1.167 6.458,-3.268 0.623,-0.7 1.245,-1.478 1.79,-2.334 l 0.467,5.602 h 6.38 c 2.412,0 4.669,-1.167 6.536,-3.268 0.623,-0.7 1.167,-1.478 1.712,-2.334 l 0.312,2.957 v 0.156 l 1.012,11.048 6.458,70.494 z"
   id="path22" />
			<path
   style="fill:#c99557"
   d="m 257.698,499.07 c 0,7.158 -4.124,12.916 -9.181,12.916 H 9.181 C 4.124,511.986 0,506.228 0,499.07 l 0.233,-1.867 2.335,-19.452 c 0,-2.179 0.389,-4.28 1.089,-6.069 0.312,-0.7 0.623,-1.4 1.012,-2.101 0.389,-0.622 0.778,-1.167 1.245,-1.712 0.311,-0.389 0.7,-0.778 1.089,-1.089 0.078,-0.156 0.234,-0.233 0.389,-0.311 0.467,-0.389 1.012,-0.778 1.634,-1.012 0.856,-0.389 1.79,-0.623 2.724,-0.623 h 234.2 c 0.934,0 1.867,0.234 2.723,0.623 0.545,0.233 1.012,0.545 1.478,0.934 0.234,0.078 0.389,0.233 0.545,0.389 0.389,0.311 0.778,0.7 1.089,1.089 0.467,0.545 0.856,1.089 1.245,1.712 0.155,0.311 0.311,0.545 0.467,0.856 0.155,0.389 0.389,0.778 0.544,1.245 0.701,1.789 1.089,3.89 1.089,6.069 z"
   id="path24" />
			<path
   style="opacity:0.1;fill:#040000"
   d="M 207.201,233.902 H 50.653 c -0.078,0 -0.156,0 -0.156,0 1.011,-6.302 1.789,-11.126 2.179,-13.616 2.178,2.723 5.446,4.591 9.181,4.591 h 133.984 c 3.735,0 7.003,-1.868 9.181,-4.591 0.389,2.49 1.168,7.314 2.179,13.616 z"
   id="path26" />
			<path
   style="opacity:0.1;fill:#040000"
   d="m 242.215,394.964 c -2.879,1.556 -6.225,2.568 -9.804,2.568 H 24.743 c -3.346,0 -6.458,-0.934 -9.259,-2.412 l 1.012,-11.204 v -0.156 l 0.311,-2.957 c 0.545,0.856 1.089,1.634 1.712,2.334 1.867,2.101 4.124,3.268 6.536,3.268 h 6.38 l 0.467,-5.602 c 0.545,0.856 1.167,1.634 1.79,2.334 1.867,2.101 4.124,3.268 6.458,3.268 h 3.579 l 0.545,-5.602 c 0.545,0.856 1.089,1.634 1.712,2.334 1.867,2.101 4.124,3.268 6.536,3.268 h 6.38 l 0.545,-5.602 c 0.544,0.856 1.089,1.634 1.712,2.334 1.867,2.101 4.124,3.268 6.536,3.268 h 122.313 c 2.412,0 4.669,-1.167 6.536,-3.268 0.622,-0.7 1.167,-1.478 1.711,-2.334 l 0.545,5.602 h 6.38 c 2.412,0 4.668,-1.167 6.536,-3.268 0.623,-0.7 1.167,-1.478 1.712,-2.334 l 0.545,5.602 h 3.579 c 2.335,0 4.591,-1.167 6.458,-3.268 0.623,-0.7 1.245,-1.478 1.79,-2.334 l 0.467,5.602 h 6.38 c 2.412,0 4.669,-1.167 6.536,-3.268 0.623,-0.7 1.167,-1.478 1.712,-2.334 l 0.312,2.957 v 0.156 z"
   id="path28" />
			<path
   style="fill:#c99557"
   d="m 245.793,371.544 c 0,1.167 -0.077,2.334 -0.311,3.424 0,0.156 -0.078,0.311 -0.078,0.467 -0.078,0.234 -0.078,0.389 -0.155,0.545 -0.078,0.233 -0.078,0.467 -0.156,0.623 -0.156,0.544 -0.312,1.089 -0.545,1.634 0,0 -0.078,0.078 -0.078,0.156 -0.156,0.389 -0.311,0.856 -0.545,1.245 -0.622,1.556 -1.556,2.957 -2.723,4.28 -0.312,0.389 -0.778,0.856 -1.167,1.245 -0.856,0.778 -1.789,1.556 -2.801,2.256 -2.957,1.945 -6.536,3.113 -10.348,3.113 H 30.811 c -3.812,0 -7.391,-1.167 -10.348,-3.113 -1.011,-0.7 -1.945,-1.478 -2.801,-2.256 -0.389,-0.389 -0.856,-0.856 -1.167,-1.245 -1.478,-1.712 -2.646,-3.579 -3.346,-5.68 -0.234,-0.545 -0.389,-1.089 -0.545,-1.634 -0.467,-1.556 -0.701,-3.268 -0.701,-5.058 0,-8.092 5.213,-15.017 12.45,-17.662 0.389,-0.155 0.778,-0.311 1.167,-0.389 0.389,-0.078 0.778,-0.156 1.167,-0.311 v -0.078 h 0.078 c 1.323,-0.311 2.645,-0.467 4.046,-0.467 h 196.075 c 1.4,0 2.724,0.156 4.046,0.467 h 0.078 v 0.078 c 0.389,0.155 0.778,0.233 1.167,0.311 0.389,0.156 0.778,0.234 1.167,0.389 7.236,2.643 12.449,9.568 12.449,17.66 z"
   id="path30" />
		</g>
		<g
   style="opacity:0.1"
   id="g40">
			<path
   style="fill:#040000"
   d="m 127.626,34.716 c 0.248,0 0.482,-0.048 0.718,-0.089 -0.246,-0.029 -0.475,-0.105 -0.718,-0.145 z"
   id="path34" />
			<path
   style="fill:#040000"
   d="m 128.849,162.641 v 13.978 2.256 h -1.239 v 6.847 15.872 h 1.239 1.251 65.747 c 1.4,0 2.801,0.312 4.046,0.778 -1.012,-4.435 -2.101,-10.193 -3.035,-16.651 -0.467,-2.801 -0.856,-5.758 -1.167,-8.792 0.078,-0.078 0.234,-0.156 0.311,-0.311 1.712,-1.478 2.801,-3.501 2.801,-5.835 0,-2.957 -1.712,-5.447 -4.046,-6.847 -0.404,-0.253 -0.836,-0.426 -1.262,-0.618 0.423,0.184 0.855,0.351 1.25,0.589 -0.038,-1.249 -0.068,-2.497 -0.068,-3.728 0,-43.851 30.395,-58.468 36.485,-76.891 h -20.86 l -15.683,-15.683 -6.43,6.43 -11.398,11.399 11.447,-11.598 c -5.344,-23.057 -23.496,-41.114 -46.525,-46.409 0.038,-0.053 0.09,-0.093 0.128,-0.147 1.968,-2.815 3.142,-6.225 3.142,-9.92 0,-8.749 -6.495,-15.913 -14.912,-17.111 V 0 c -0.419,0 -0.811,0.095 -1.223,0.123 v 34.44 c -0.171,0.012 -0.339,0.034 -0.505,0.063 0.173,0.021 0.33,0.086 0.505,0.102 v 34.515 l -1.223,-1.639 v 3.279 l -7.954,10.662 9.177,-12.134 v 93.202 0.028 z"
   id="path36" />
			<path
   style="fill:#040000"
   d="m 255.124,477.765 c 0,-2.179 -0.389,-4.279 -1.089,-6.069 -1.129,-2.935 -3.05,-5.178 -5.349,-6.209 l -6.473,-70.542 -1.024,-11.159 c 2.842,-3.308 4.643,-7.528 4.643,-12.205 0,-8.144 -5.242,-15.063 -12.497,-17.717 -0.76,-0.278 -1.557,-0.472 -2.353,-0.663 -7.615,-24.248 -18.787,-89.204 -23.752,-119.276 -1.046,-6.337 -1.819,-11.134 -2.222,-13.649 1.514,-1.962 2.453,-4.387 2.453,-7.043 0,-4.96 -3.166,-9.185 -7.565,-10.842 -1.266,-0.477 -2.621,-0.773 -4.049,-0.773 h -65.775 -1.223 v 23.229 9.077 118.733 5.776 28.008 4.062 7.041 67.303 5.604 V 512 h 1.251 118.41 c 5.058,0 9.181,-5.758 9.181,-12.916 z"
   id="path38" />
		</g>
	</g>
</g>
</svg>
