<?xml version="1.0" encoding="UTF-8"?>
<svg width="512" height="512" version="1.1" viewBox="0 0 512 512" xmlns="http://www.w3.org/2000/svg">
 <defs>
  <linearGradient id="a" x1="63" x2="445" y1="146" y2="365" gradientUnits="userSpaceOnUse">
   <stop style="stop-color:#d6c6ee" offset="0"/>
   <stop style="stop-color:#7f71ad" offset="1"/>
  </linearGradient>
 </defs>
 <path d="m304 8.43c-24.3-10.5-56.4-8.12-79.4-5.32-12.8 1.63-24 8.86-30.6 19.8-6.53 10.8-7.75 23.9-3.32 35.7 3.74 9.94-1.21 20.9-11.5 25.6-11.6 5.21-22.6 11.6-32.9 19-8.6 6.23-20.7 5.81-28-3.02-3.13-3.82-6.93-7.04-11.2-9.52-18-10.4-41.1-5.61-53.8 11.1-13.2 17.6-24 36.5-31.9 55.4-9.99 23.9 4.39 52.6 31.4 57.1 10.1 1.65 17.4 12.1 16.4 22.7-1.29 12.6-1.31 25.4-0.0549 38 1.13 11.2-5.95 21-16.4 22.7-12.4 2.02-23.2 9.66-29.3 20.7-6.2 11.2-6.89 24.7-1.86 36.5 13.8 23.6 21.9 52.9 44.3 66.1 17.6 10.2 39.7 6.24 52.6-9.37 6.75-8.2 18.9-9.31 28-2.77 10.1 7.34 21.3 13.8 32.7 18.9 10.2 4.62 15.3 15.7 11.6 25.6-7.1 18.9 0.55 40 18.2 50.2 24.3 10.5 56.3 8.1 79.4 5.32 12.8-1.63 24-8.85 30.6-19.8 6.53-10.8 7.75-23.9 3.32-35.7-3.73-9.94 1.21-20.9 11.5-25.5 11.6-5.21 22.6-11.6 32.9-19 8.61-6.24 20.8-5.79 28 3.03 3.13 3.83 6.92 7.06 11.2 9.54 18 10.4 41.1 5.61 53.8-11.1 13.3-17.6 24-36.6 32-55.4 9.98-24-4.42-52.6-31.4-57.1-10.1-1.66-17.5-12.1-16.4-22.7 1.3-12.6 1.32-25.4 0.0676-38-1.13-11.2 5.95-21 16.4-22.7 12.4-2.02 23.2-9.66 29.3-20.7 6.21-11.3 6.87-24.6 1.86-36.5-13.8-23.6-21.9-52.9-44.3-66.1-17.6-10.2-39.7-6.24-52.6 9.37-6.75 8.21-18.9 9.41-28 2.77-10.2-7.43-21.2-13.8-32.7-18.9-10.3-4.52-15.3-15.7-11.6-25.6 7.1-18.9-0.546-40-18.2-50.2zm9 146c0.294 0.169 0.588 0.339 0.882 0.509 56.9 32.9 76.4 102 43.6 159-32.9 56.9-102 76.4-159 43.6-56.9-32.9-76.4-102-43.6-159 32.7-56.6 101-76.3 158-44.1z" fill="#17559c"/>
 <path d="m408 106c-14.3-0.264-18.7 8.46-27.9 15.5-17.5 12.7-41.3-9.43-58-17.8-6.85-3.71-11.7-11.1-12-18.9 3.19-20.3 7.26-39.4-15.4-49.6-23-8.68-68.2-7.18-81.9 2.01-3.78 2.48-13.7 10.8-14.7 25.3-1.02 13 9.06 22.9-1.8 35.6-16.4 10.1-40.2 34.4-60.9 25.7-8.07-3.78-14.2-18.5-33.8-17.9-26.3 1.51-44.5 39.4-53.7 60.9-10 22.2 1.75 40.3 21 43.8 25.3 9.1 19.1 18.1 19.7 51.8 5.28 49.6-14.3 25.2-40 52.6-10.2 19.1 8.23 51.9 21.3 71.3 18.9 27.5 45.4 23.9 59 7.05 17.3-17.6 43.9 6.46 61 15.5 6.06 3.43 15.8 13.4 9.81 28.6-5 15.1 2.36 32.1 15.5 39 11.2 4.64 73.8 17.5 93.5-11.4 9.57-14 2.45-22.5 1.59-35.3-1.66-24.4 56.1-43.4 57.1-43.4 10.1-0.57 18.6 8.42 25.4 13.8 14.8 11.8 32.6 7.48 43.5-7.14 16.6-21.6 28-47.7 29.1-51.1 11.7-33.9-11.1-37.3-31.3-45.7-6.62-3.01-11.5-8.32-10.6-22.1 5.52-49.2-9.93-55.5 17.4-59.9 8.54-1.79 16.3-7.14 20.9-14.5 15.9-24.8-20.8-95.1-53.8-93.7zm-81.1 28.9c52.6 29 82 96.8 60.7 165-34 90.7-118 109-189 84.1-77.5-41.8-108-130-55.2-213 43.6-56.7 122-68.2 183-36.1z" fill="url(#a)"/>
</svg>
