/* XPM */
static char * pci_xpm[] = {
"16 16 111 2",
"  	c None",
". 	c #030303",
"+ 	c #D6DDD0",
"@ 	c #A5B393",
"# 	c #95B882",
"$ 	c #B8CAB0",
"% 	c #A9BEA2",
"& 	c #809A75",
"* 	c #93AB88",
"= 	c #ACBEA4",
"- 	c #3C5234",
"; 	c #3F5A32",
"> 	c #738B57",
", 	c #4B673F",
"' 	c #546B47",
") 	c #3B542F",
"! 	c #FFFFFF",
"~ 	c #717171",
"{ 	c #DADBDA",
"] 	c #B9B691",
"^ 	c #55643F",
"/ 	c #A0A591",
"( 	c #606950",
"_ 	c #A0A593",
": 	c #2C3A21",
"< 	c #A9AAA9",
"[ 	c #B1B1B1",
"} 	c #A4A4A4",
"| 	c #A9A9A9",
"1 	c #6D6B59",
"2 	c #3E4832",
"3 	c #8F9391",
"4 	c #4F4436",
"5 	c #8F9393",
"6 	c #1E2416",
"7 	c #B0BFA7",
"8 	c #8A866E",
"9 	c #000000",
"0 	c #848069",
"a 	c #B9B086",
"b 	c #474736",
"c 	c #343E25",
"d 	c #6A706E",
"e 	c #443B33",
"f 	c #606769",
"g 	c #1D2416",
"h 	c #FAFAFA",
"i 	c #BEBEBE",
"j 	c #475236",
"k 	c #383E2B",
"l 	c #313726",
"m 	c #313425",
"n 	c #363A28",
"o 	c #1F2317",
"p 	c #3A4225",
"q 	c #3C502C",
"r 	c #334425",
"s 	c #364525",
"t 	c #27341C",
"u 	c #4D6538",
"v 	c #556437",
"w 	c #48552F",
"x 	c #4A552F",
"y 	c #4D5932",
"z 	c #3F4D29",
"A 	c #4D6433",
"B 	c #658042",
"C 	c #658248",
"D 	c #8F976F",
"E 	c #57604B",
"F 	c #848257",
"G 	c #939165",
"H 	c #B1B091",
"I 	c #9E9E77",
"J 	c #6B6942",
"K 	c #45592F",
"L 	c #4D6B36",
"M 	c #658442",
"N 	c #62824B",
"O 	c #80887A",
"P 	c #545454",
"Q 	c #343A21",
"R 	c #2B311C",
"S 	c #474D2B",
"T 	c #2C321D",
"U 	c #2D311C",
"V 	c #556736",
"W 	c #778F4A",
"X 	c #648241",
"Y 	c #648047",
"Z 	c #485441",
"` 	c #262925",
" .	c #547E47",
"..	c #A0A95E",
"+.	c #D1CC84",
"@.	c #8B9752",
"#.	c #BBBB75",
"$.	c #989E55",
"%.	c #CAC77F",
"&.	c #91A054",
"*.	c #CFCB83",
"=.	c #27361C",
"-.	c #10140D",
";.	c #0B0D09",
">.	c #B8B078",
",.	c #DDD58F",
"'.	c #A5A161",
").	c #D4CD84",
"!.	c #ADA772",
"~.	c #D7D088",
"{.	c #DAD38B",
"                            .   ",
"                          .     ",
"                          .     ",
"  . . . . . . . . . . . . .     ",
". + @ @ @ @ @ @ @ @ @ @ @ .     ",
". # $ % & * = - ; > , ' ) .     ",
". # ! ~ ! ~ { ] ^ / ( _ : .     ",
". ! < [ } | ~ 1 2 3 4 5 6 . .   ",
". 7 8 9 0 9 a b c d e f g . h   ",
". # j k l m n o p q r s t . 9   ",
". # u v w x y z A B C D E .     ",
". # F G H I J K L M N O P .     ",
". # Q R S T U V W X Y Z ` .     ",
".  ...+.@.#.$.%.&.*.=.-.;..     ",
"  . >.,.'.).!.~.'.{..     .     ",
"  . . . . . . . . . .     .     "};


/*
 * Ripped from Ximian Setup Tools <http://www.ximian.com>
 * Unknown author
 */
