<?xml version="1.0" encoding="UTF-8"?>
<svg width="512" height="512" version="1.1" viewBox="0 0 512 512" xmlns="http://www.w3.org/2000/svg">
 <path d="m162 199 2.37-7.65s6.86 0.242 17.3-0.689c10.4-0.931 19.1-3.47 24.3-8.8 6.14-6.31 7.32-13.8 7.32-20.9 0-3.95-0.467-7.42-4.02-14.1-3.54-6.72-12.8-7.64-12.8-7.64h-10.9c-1.18 0-3.55 1.15-4.96 1.85-1.43 0.689-2.61 4.17-2.61 4.17l-14.2 52.6-8.5 32.9s-1.43 4.63 4.72 8.82c6.14 4.16 12.8 2.77 12.8 2.77v5.57h-93.1l3.31-6.03s14.6-0.23 18-2.31c3.78-2.32 7.09-9.75 7.09-9.75l34-85.3s0.86-3.78-0.713-5.33c-1.89-1.86-11.6-2.32-11.6-2.32l2.59-6.26h77c6.62 0 22.7 5.56 26.9 8.59 3.26 2.3 13 9.96 13 22 0 13.9-8.9 24-16.5 30.4-7.8 6.48-28.4 9.96-40.4 9.96-9.45 0-30.5-2.55-30.5-2.55"/>
 <path d="m367 131 15.1 24.3-7.34 3.71s-10.4-9.73-17.7-14.1c-7.32-4.41-17.7-7.65-28.1-7.65-10.4 0-25.3 8.82-30.7 21.8-5.5 13.2-4.72 18.5-4.72 27.4 0 8.8 3.31 25.7 14.9 37.1 11.6 11.4 25.3 20.6 51.3 20.6 17.7 0 27.4-5.1 31.7-9.04 3.44-3.18 6.86-7.65 7.32-18.1l10.4-0.46 8.98 17.1s-4.96 8.11-25.5 13.4c-20 5.19-29.5 4.63-47.3 4.63-17.7 0-52.9-6.25-70.9-20.2-15.9-12.3-22.9-24.8-22.9-39.9 0-19 9.57-31.6 18.2-40.1 8.63-8.46 34.3-22 52.9-22 18.7 0 32.6 4.63 35.4 4.63 2.84 0 8.98-3.24 8.98-3.24"/>
 <path d="m170 276-0.946-17.6s-1.43 0.46-3.78 0.46-16.5-2.78-29.8-2.78c-13.2 0-37.3 2.78-53.9 13-16.5 10.2-25.9 22.5-25.9 33.1 0 10.7 9.69 19.2 20.1 24.2 11.1 5.33 22.4 9.38 41.2 9.38 14.2 0 44-10.2 44-10.2l2.84-16.2h-4.25s-5.68 5.1-12.3 9.73c-8.38 5.86-14.6 8.34-28.8 8.34-18.1 0-29.3-9.27-29.3-27.8 0-9.5 6.02-21 12.8-26.9 4.89-4.28 14.7-11.6 33.1-11.6 8.16 0 13.6 1.15 18.3 3.94 4.73 2.77 10 9.96 10 9.96l6.62 0.919"/>
 <path d="m262 322 3.32 3.01s-14.9 8.11-24.6 8.11c-9.68 0-18-7.41-18-7.41s-14.1 9.17-26.4 9.26c-14.2 0.121-24.6-6.37-24.7-14.5-0.123-8.11 6.14-14.5 19.1-17.7 13-3.24 35.7-3.94 35.7-3.94v4.63s-13.4-0.689-19.8 3.25c-6.65 4.03-6.5 8.22-6.5 9.86 0 1.62 0.233 9.15 11 9.15 7.91 0 12.3-5.57 12.3-5.57s1.18-9.96 1.66-18.5c0.467-8.57 0.467-16.7-0.713-19.5-1.18-2.78-3.78-6.02-6.14-6.02s-4.48 2.78-8.5 6.95c-4.02 4.17-5.09 5.33-7.8 6.48-2.26 0.967-13 3.02-15.8 3.02s-4.13 0-5.43-1.28c-1.28-1.25-2.89-3.26-0.823-6.02 1.88-2.55 5.55-5.67 19.5-10.7 6.14-2.2 13.7-3.01 21-3.01 7.32 0 22.1 0.46 25.3 4.28 3.27 3.92 3.55 6.26 3.78 9.75 0.233 3.47 1.18 38.9 1.18 38.9s0.565 1.27 1.77 1.27c3.67 0 9.57-3.82 9.57-3.82"/>
 <path d="m327 333v-5.44s-8.98 0.689-12.4-0.931c-3.43-1.62-4.14-3.59-4.14-3.59l-4.37-32.6s1.89-3.25 3.55-3.94c1.66-0.689 4.48-1.97 7.09-1.16 2.61 0.81 4.02 2.78 6.27 4.4 2.24 1.63 5.1 2.19 7.79 2.55 4.26 0.58 9.11 0.121 12.2-3.24 2.35-2.56 2.02-4.86 2.02-5.91 0-2.2-0.713-6.25-5.57-9.26-3.7-2.31-5.43-1.98-9.81-1.98-4.37 0-10.2 1.28-12.3 2.79-2.13 1.5-12.1 9.38-12.1 9.38l-0.713-12.1-35.9 13.2 1.18 3.36 11-2.9s0.59 0.121 0.836 0.58c0.233 0.459-0.59 38.5-0.59 38.5s0 1.39-1.3 2.32c-1.03 0.726-10.3 0.689-10.3 0.689v5.21h57.6"/>
 <path d="m423 250s-9.23 3.94-17.5 5.1c-8.27 1.16-18.9 2.09-18.9 2.09l0.246 3.7s8.74-0.46 11.8 1.16c4.29 2.26 26.2 58.4 26.2 58.4s-8.04 3.25-15.1 3.25c-7.09 0-14.9-2.55-19.8-6.72-4.96-4.17-12.3-13.2-12.3-24.8 0-7.88 1.66-9.73 5.68-12.1 3.37-1.93 7.09-3.01 12.1-3.01 5.91 0 14.4 3.48 14.4 3.48l-2.84-4.87s-8.98-2.78-17-2.78c-8.04 0-21.8 0.278-30.5 7.42-8.5 6.94-10.4 12.5-10.4 18.1 0 9.96 6.38 18.8 14.4 24.8 8.04 6.02 24.1 9.26 31.7 9.26 7.56 0 31-6.48 31-6.48l2.61 6.25s14.4-3.71 18.7-4.63c4.25-0.931 19.4-4.87 19.4-4.87l-2.61-6.95s-5.43 0.46-8.98-0.689c-3.42-1.12-32.1-65.1-32.1-65.1"/>
 <path d="m27 386h455v-8.34h-455z"/>
 <path d="m10.9 338 101-220s1.87-4.03 7.09-6.95c3.31-1.85 7.56-1.39 7.56-1.39h246s8.27 0.23 13.2 3.01c4.95 2.78 8.5 8.82 8.5 8.82l108 220s3.32 8.57-4.48 16.2c-5.62 5.5-15.1 5.56-15.1 5.56h-453s-9.57 0.798-17-6.49c-7.2-7.07-1.89-18.5-1.89-18.5zm492 7.88v38.5s0.59 9.15-5.2 14.8c-4.61 4.52-12.3 4.63-12.3 4.63h-458s-7.45 1.04-14.2-5.56c-5.43-5.33-4.73-12.1-4.73-12.1v-38.7" fill="none" stroke="#000000" stroke-width="16"/>
</svg>
