<?xml version="1.0" encoding="UTF-8"?>
<!-- Created with Inkscape (http://www.inkscape.org/) -->
<svg width="2109.9" height="1285.4" version="1.1" viewBox="0 0 2109.9 1285.4" xmlns="http://www.w3.org/2000/svg">
 <path d="m657.26 395.75 10.052-32.969s29.062 1.0414 73.125-2.9686c44.062-4.0104 81.146-14.948 103.18-37.917 26.042-27.188 31.042-59.583 31.042-89.844 0-17.031-1.9791-31.979-17.031-60.938-15-28.958-54.062-32.917-54.062-32.917h-46.094c-5 0-15.052 4.948-21.042 7.9688-6.0417 2.9688-11.042 17.969-11.042 17.969l-60.104 226.61-36.042 141.77s-6.0416 19.948 20 37.969c26.042 17.917 54.115 11.927 54.115 11.927v24.01h-394.69l14.01-25.99s61.719-0.989 76.146-9.9479c16.042-10 30.052-41.979 30.052-41.979l144.27-367.34s3.6459-16.302-3.0208-22.969c-8.0208-8.0208-49.062-10-49.062-10l10.99-26.979h326.56c28.073 0 96.198 23.958 114.22 36.979 13.802 9.8959 55.104 42.917 55.104 94.844 0 59.896-37.708 103.33-70.104 130.78-33.073 27.917-120.21 42.917-171.35 42.917-40.052 0-129.22-10.99-129.22-10.99"/>
 <path d="m1526.8 102.26 64.114 104.79-31.094 15.99s-44.063-41.927-75.104-60.886c-31.042-19.01-75.156-32.969-119.22-32.969-44.062 0-107.19 37.969-130.26 93.854-23.333 56.667-20 79.844-20 117.81 0 37.917 14.01 110.83 63.073 159.74 49.114 48.906 107.24 88.854 217.4 88.854 75.156 0 116.25-21.979 134.27-38.958 14.583-13.698 29.062-32.969 31.042-77.864l44.063-1.9792 38.073 73.854s-21.042 34.948-108.18 57.917c-84.896 22.344-125.21 19.948-200.36 19.948-75.156 0-224.38-26.927-300.52-86.823-67.292-52.917-97.188-106.82-97.188-171.72 0-81.875 40.573-136.3 77.135-172.71 36.563-36.458 145.26-94.844 224.43-94.844 79.115 0 138.23 19.948 150.26 19.948 12.031 0 38.073-13.958 38.073-13.958"/>
 <path d="m689.34 730.18-4.0105-75.833s-6.0416 1.9792-16.042 1.9792-70.104-11.979-126.2-11.979c-56.094 0-158.28 11.979-228.44 55.885-70.104 43.958-109.69 96.875-109.69 142.76 0 45.938 41.094 82.864 85.156 104.37 47.188 22.969 95 40.417 174.79 40.417 60.26 0 186.35-43.958 186.35-43.958l12.031-69.844h-18.021s-24.063 21.979-52.136 41.927c-35.521 25.26-61.979 35.937-122.19 35.937-76.823 0-124.22-39.948-124.22-119.79 0-40.938 25.521-90.365 54.063-115.83 20.729-18.438 62.135-49.896 140.26-49.896 34.583 0 57.604 4.9478 77.656 16.979 20.052 11.927 42.552 42.917 42.552 42.917l28.073 3.9583"/>
 <path d="m1081 928.88 14.062 12.969s-63.125 34.948-104.22 34.948c-41.042 0-76.094-31.927-76.094-31.927s-59.636 39.479-111.72 39.896c-60.104 0.521-104.22-27.448-104.69-62.396-0.521-34.948 26.042-62.396 81.146-76.354 55.104-13.958 151.25-16.979 151.25-16.979v19.948s-56.614-2.9688-84.114 14.01c-28.177 17.344-27.552 35.417-27.552 42.448 0 6.9792 0.989 39.427 46.562 39.427 33.542 0 52.083-24.01 52.083-24.01s5-42.917 7.0314-79.844c1.979-36.927 1.979-71.875-3.021-83.854s-16.042-25.938-26.042-25.938-19.01 11.979-36.042 29.948c-17.031 17.969-21.562 22.969-33.073 27.917-9.5834 4.1666-55.104 13.021-67.135 13.021-12.031 0-17.5 0-23.021-5.5207-5.4166-5.3646-12.24-14.063-3.4896-25.938 7.9687-10.99 23.542-24.427 82.604-45.938 26.042-9.4792 58.125-12.969 89.167-12.969 31.042 0 93.646 1.9792 107.19 18.438 13.854 16.875 15.052 26.979 16.042 41.979 0.989 14.948 5 167.71 5 167.71s2.3958 5.4688 7.5 5.4688c15.573 0 40.573-16.458 40.573-16.458"/>
 <path d="m1354 972.78v-23.438s-38.073 2.9688-52.604-4.0104c-14.531-6.9792-17.552-15.469-17.552-15.469l-18.542-140.26s8.021-14.01 15.052-16.979c7.0312-2.9688 19.01-8.4896 30.052-5 11.042 3.4895 17.031 11.979 26.562 18.958 9.4792 7.0312 21.615 9.427 33.021 10.99 18.073 2.4999 38.594 0.521 51.615-13.958 9.9478-11.042 8.5417-20.938 8.5417-25.469 0-9.4792-3.0209-26.927-23.594-39.896-15.677-9.9478-23.021-8.5416-41.562-8.5416-18.542 0-43.073 5.5208-52.083 12.031-9.0104 6.4583-51.094 40.417-51.094 40.417l-3.021-51.927-152.24 56.927 5 14.479 46.563-12.5s2.5 0.521 3.5417 2.5c0.989 1.9791-2.5 165.73-2.5 165.73s0 5.9896-5.5209 10c-4.375 3.1251-43.594 2.9688-43.594 2.9688v22.448h243.96"/>
 <path d="m1761.3 617.37s-39.115 16.979-74.167 21.979c-35.052 5-80.156 9.0104-80.156 9.0104l1.0413 15.938s37.031-1.9792 50.052 5c18.177 9.7394 111.2 251.56 111.2 251.56s-34.062 14.01-64.114 14.01-63.073-10.989-84.114-28.958c-21.042-17.969-52.136-56.927-52.136-106.82 0-33.958 7.0312-41.927 24.062-51.927 14.271-8.3333 30.052-12.969 51.094-12.969 25.052 0 61.094 15 61.094 15l-12.031-20.99s-38.073-11.979-72.083-11.979c-34.063 0-92.24 1.1974-129.27 31.979-36.042 29.896-44.062 53.906-44.062 77.865 0 42.917 27.031 80.833 61.094 106.82 34.062 25.937 102.19 39.896 134.27 39.896 32.031 0 131.2-27.917 131.2-27.917l11.042 26.927s61.094-15.99 79.167-19.948c18.021-4.0104 82.135-20.99 82.135-20.99l-11.042-29.948s-23.021 1.9792-38.073-2.9688c-14.479-4.8438-136.2-280.57-136.2-280.57"/>
 <path d="m84.293 1201.4h1927.4v-35.938h-1927.4z"/>
 <path d="m16.116 993.67 427.76-949.43s7.9167-17.344 30.052-29.948c14.01-7.9688 32.031-5.9896 32.031-5.9896h1040.8s35.052 0.991 56.146 12.969c20.99 11.979 36.042 37.969 36.042 37.969l459.79 948.44s14.062 36.927-19.01 69.896c-23.802 23.698-64.115 23.958-64.115 23.958h-1919.4s-40.573 3.4376-72.135-27.969c-30.521-30.469-8.0208-79.896-8.0208-79.896zm2085.7 33.958v165.73s2.5 39.427-22.031 63.906c-19.531 19.479-52.083 19.948-52.083 19.948h-1939.4s-31.562 4.4792-60.104-23.958c-23.021-22.969-20.052-51.927-20.052-51.927v-166.72" fill="none" stroke="#000" stroke-width="16"/>
</svg>
