<?xml version="1.0" encoding="UTF-8"?>
<svg width="512" height="512" version="1.1" viewBox="0 0 512 512" xmlns="http://www.w3.org/2000/svg">
 <path d="m115 109 272-0.187 113 227-0.433 68.4-487-0.793 0.173-73.3z" fill="#ececec"/>
 <path d="m162 199 2.37-7.65s6.86 0.242 17.3-0.689c10.4-0.931 19.1-3.47 24.3-8.8 3.23-3.32 13-16.8 3.3-35-3.54-6.72-12.8-7.64-12.8-7.64-7.19-0.0167-15-1.85-18.5 6.02-7.84 28.4-15.3 56.9-22.7 85.5 0 0-1.43 4.63 4.72 8.82 6.14 4.16 12.8 2.77 12.8 2.77v5.57h-93.1l3.31-6.03s14.6-0.23 18-2.31c3.78-2.32 7.09-9.75 7.09-9.75l34-85.3s0.86-3.78-0.713-5.33c-1.89-1.86-11.6-2.32-11.6-2.32l2.59-6.26h77c9.57 0 22.7 5.56 26.9 8.59 18.7 13.2 16.9 35.2-3.5 52.4-7.8 6.48-28.4 9.96-40.4 9.96-9.45 0-30.5-2.55-30.5-2.55"/>
 <path d="m367 131 15.1 24.3-7.34 3.71s-10.4-9.73-17.7-14.1c-24.4-14.7-50.4-6.14-58.8 14.2-10.9 26.1-2.33 52.2 10.2 64.5 33.7 33.2 75.1 18.8 83 11.6 3.44-3.18 6.86-7.65 7.32-18.1l10.4-0.46 8.98 17.1s-4.96 8.11-25.5 13.4c-44.7 11.6-97 0.866-118-15.6-38.9-30.1-20.6-64.4-4.7-80 8.63-8.46 34.3-22 52.9-22 18.7 0 32.6 4.63 35.4 4.63 2.84 0 8.98-3.24 8.98-3.24"/>
 <path d="m170 276-0.946-17.6s-1.43 0.46-3.78 0.46c-28.6-4.19-57.6-4.09-83.7 10.2-31.2 19.3-35 43.3-5.8 57.3 28 13.4 48.5 11.5 85.2-0.82l2.84-16.2h-4.25c-20.2 18-29.6 18.1-41.1 18.1-36.9 0-34.6-39-16.5-54.7 17.6-15.4 42.5-12.9 51.4-7.66 4.73 2.77 10 9.96 10 9.96l6.62 0.919"/>
 <path d="m262 322 3.32 3.01s-14.9 8.11-24.6 8.11c-9.68 0-18-7.41-18-7.41s-14.1 9.17-26.4 9.26c-29 0.247-34.7-25-5.6-32.2 13-3.24 35.7-3.94 35.7-3.94v4.63s-13.4-0.689-19.8 3.25c-10.5 6.36-8.45 19 4.5 19 7.91 0 12.3-5.57 12.3-5.57 0.242-2.07 3.63-31.6 0.947-38-1.18-2.78-3.78-6.02-6.14-6.02-4.27 0-9.78 10.8-16.3 13.4-6.58 2.67-15.8 6.01-21.2 1.74-1.28-1.25-2.89-3.26-0.823-6.02 1.4-1.91 14.8-13.7 40.5-13.7 7.32 0 18.7-1.13 25.3 4.28 2.7 2.2 3.55 6.26 3.78 9.75 0.233 3.47 1.18 38.9 1.18 38.9s0.565 1.27 1.77 1.27c3.67 0 9.57-3.82 9.57-3.82"/>
 <path d="m327 333v-5.44s-8.98 0.689-12.4-0.931c-3.43-1.62-4.14-3.59-4.14-3.59l-4.37-32.6s1.89-3.25 3.55-3.94c1.66-0.689 4.48-1.97 7.09-1.16s4.02 2.78 6.27 4.4c13.1 9.53 32.1-6.18 16.4-15.9-13.4-6.84-24.3 2.4-34.2 10.2l-0.713-12.1-35.9 13.2 1.18 3.36 11-2.9s0.59 0.121 0.836 0.58c0.233 0.459-0.59 38.5-0.59 38.5s0 1.39-1.3 2.32c-1.03 0.726-10.3 0.689-10.3 0.689v5.21h57.6"/>
 <path d="m423 250c-10.2 4.27-17.2 5.48-36.4 7.19l0.246 3.7s8.74-0.46 11.8 1.16c4.29 2.26 26.2 58.4 26.2 58.4-4.82 1.89-22.1 7.46-34.9-3.47-11.5-9.66-18-30.2-6.62-36.9 6.42-3.68 14.3-4.41 26.5 0.47l-2.84-4.87c-68.5-20.5-77.2 56.8-11.8 56.8 7.56 0 31-6.48 31-6.48l2.61 6.25s14.4-3.71 18.7-4.63c4.25-0.931 19.4-4.87 19.4-4.87l-2.61-6.95s-5.43 0.46-8.98-0.689c-3.42-1.12-32.1-65.1-32.1-65.1"/>
 <path d="m27 388h455v-8.34h-455z"/>
 <path d="m10.9 338 101-220s1.87-4.03 7.09-6.95c3.31-1.85 7.56-1.39 7.56-1.39h246s8.27 0.23 13.2 3.01c4.95 2.78 8.5 8.82 8.5 8.82l108 220s3.32 8.57-4.48 16.2c-5.62 5.5-15.1 5.56-15.1 5.56h-453s-9.57 0.798-17-6.49c-7.2-7.07-1.89-18.5-1.89-18.5zm492 7.88v38.5s0.59 9.15-5.2 14.8c-4.61 4.52-12.3 4.63-12.3 4.63h-458s-7.45 1.04-14.2-5.56c-5.43-5.33-4.73-12.1-4.73-12.1v-38.7" fill="none" stroke="#000" stroke-width="16"/>
</svg>
