<?xml version="1.0" encoding="iso-8859-1"?>

<!DOCTYPE svg PUBLIC "-//W3C//DTD SVG 1.1//EN" "http://www.w3.org/Graphics/SVG/1.1/DTD/svg11.dtd">
<!-- Uploaded to: SVG Repo, www.svgrepo.com, Generator: SVG Repo Mixer Tools -->
<svg version="1.1" id="_x36_" xmlns="http://www.w3.org/2000/svg" xmlns:xlink="http://www.w3.org/1999/xlink" 
	 viewBox="0 0 512 512"  xml:space="preserve">
<g>
	<rect x="380.114" y="112.101" style="fill:none;" width="1.358" height="25.6"/>
	<rect x="130.472" y="112.101" style="fill:none;" width="1.358" height="25.6"/>
	<g>
		<rect x="376.762" y="98.028" style="fill:none;" width="1.321" height="24.901"/>
		<rect x="133.932" y="98.028" style="fill:none;" width="1.321" height="24.901"/>
		<path style="fill:#525252;" d="M512,213.141l-12.854,141.256c0,6.566-7.894,11.946-17.465,11.946H30.319
			c-9.571,0-17.465-5.379-17.465-11.946l-1.048-9.08L0,213.141c0-0.418,0.07-0.837,0.139-1.327c0-0.35,0.07-0.697,0.21-0.977
			c0-0.14,0.07-0.21,0.07-0.28l2.026-1.538l3.423-2.514l6.567-4.82c1.607-0.35,3.284-0.49,5.03-0.49h477.07
			c1.747,0,3.423,0.14,5.03,0.49l1.607,1.187l4.96,3.633l1.537,1.119l1.956,1.395l0.978,0.769l0.978,0.769
			c0,0.07,0.07,0.14,0.07,0.28c0.14,0.28,0.209,0.628,0.279,0.977C512,212.234,512,212.723,512,213.141z"/>
		<polygon style="fill:#909091;" points="512,210.837 0,210.837 0.419,210.557 2.445,209.019 5.868,206.505 12.435,201.685 
			76.985,154.46 435.014,154.46 499.565,201.685 501.172,202.872 506.132,206.505 507.668,207.624 509.625,209.019 510.602,209.788 
			511.581,210.557 		"/>
		<g>
			<path style="fill:#CB456A;" d="M54.02,210.837v12.762v9.977v12.762c0,1.538,0.754,2.785,1.684,2.785l11.126-11.14l11.126,11.14
				c0.93,0,1.684-1.247,1.684-2.785v-12.762v-9.977v-12.762H54.02z"/>
			<path style="fill:#5B9BD4;" d="M98.755,210.837v12.762v9.977v12.762c0,1.538,0.754,2.785,1.684,2.785l11.126-11.14l11.127,11.14
				c0.93,0,1.684-1.247,1.684-2.785v-12.762v-9.977v-12.762H98.755z"/>
			<path style="fill:#62BC87;" d="M143.489,210.837v12.762v9.977v12.762c0,1.538,0.754,2.785,1.684,2.785l11.126-11.14l11.126,11.14
				c0.93,0,1.684-1.247,1.684-2.785v-12.762v-9.977v-12.762H143.489z"/>
			<path style="fill:#DCDD52;" d="M188.223,210.837v12.762v9.977v12.762c0,1.538,0.754,2.785,1.684,2.785l11.126-11.14l11.126,11.14
				c0.93,0,1.684-1.247,1.684-2.785v-12.762v-9.977v-12.762H188.223z"/>
		</g>
		<path style="fill:#555557;" d="M402.743,307.6h-293.47c-1.442,0-2.61,1.272-2.61,2.84v7.186c0,1.568,1.169,2.84,2.61,2.84h293.47
			c1.442,0,2.61-1.271,2.61-2.84v-7.186C405.353,308.871,404.184,307.6,402.743,307.6z"/>
		<polygon style="fill:#525252;" points="412.171,36.396 412.171,185.827 341.403,185.827 341.403,122.953 378.079,122.953 
			378.079,98.013 350.555,98.013 350.555,36.396 		"/>
		<polygon style="fill:#525252;" points="170.597,122.953 170.597,185.827 99.829,185.827 99.829,36.396 161.445,36.396 
			161.445,98.013 133.921,98.013 133.921,122.953 		"/>
		<g>
			<rect x="135.253" y="314.033" style="fill:#FFFFFF;" width="241.509" height="72.306"/>
			<rect x="163.065" y="350.937" style="fill:#B4DEDF;" width="89.061" height="12.122"/>
			<rect x="163.065" y="324.07" style="fill:#B4DEDF;" width="185.885" height="12.122"/>
		</g>
		<path style="fill:#FFFFFF;" d="M339.587,0H135.248v188.201h241.504V37.166L339.587,0z M163.052,50.089h89.071v12.157h-89.071
			V50.089z M163.052,76.985h185.896v12.155H163.052V76.985z M163.052,106.815h185.896v12.086H163.052V106.815z M348.948,134.619
			v12.156H163.052v-12.156H348.948z"/>
		<rect x="163.065" y="50.119" style="fill:#B4DEDF;" width="89.061" height="12.122"/>
		<rect x="163.065" y="76.987" style="fill:#B4DEDF;" width="185.885" height="12.122"/>
		<rect x="163.065" y="106.803" style="fill:#B4DEDF;" width="185.885" height="12.122"/>
		<rect x="163.065" y="134.654" style="fill:#B4DEDF;" width="185.885" height="12.122"/>
		<polygon style="fill:#B4DEDF;" points="376.752,37.166 339.587,37.166 339.587,0 		"/>
		<circle style="fill:#7C7C7D;" cx="377.527" cy="254.639" r="15.718"/>
		<circle style="fill:#9B9B9B;" cx="427.889" cy="254.639" r="15.718"/>
	</g>
	<polygon style="fill:none;" points="163.052,89.142 256,89.142 256,89.11 163.065,89.11 163.065,76.987 256,76.987 256,76.985 
		163.052,76.985 	"/>
	<rect x="170.596" y="134.62" style="fill:none;" width="85.404" height="0.033"/>
	<rect x="302.473" y="30.512" style="fill:none;" width="0.002" height="92.948"/>
	<polygon style="fill:none;" points="252.123,62.241 163.065,62.241 163.065,50.12 252.123,50.12 252.123,50.088 163.052,50.088 
		163.052,62.246 252.123,62.246 	"/>
	<rect x="256" y="134.62" style="fill:none;" width="85.403" height="0.033"/>
	<rect x="256" y="89.11" style="fill:none;" width="92.948" height="0.032"/>
	<polygon style="fill:none;" points="133.921,122.954 135.248,122.954 135.248,122.93 133.932,122.93 133.932,98.028 
		135.248,98.028 135.248,98.014 133.921,98.014 	"/>
	<rect x="163.052" y="106.816" style="fill:none;" width="0.013" height="12.084"/>
	<polygon style="fill:none;" points="376.752,122.954 378.079,122.954 378.079,122.93 376.762,122.93 376.762,98.028 
		378.079,98.028 378.079,98.014 376.752,98.014 	"/>
	<path style="opacity:0.1;fill:#3B3B3C;" d="M511.651,210.836H512l-0.42-0.279l-0.978-0.77l-0.978-0.77l-1.956-1.394l-1.537-1.12
		l-4.96-3.631l-1.607-1.187l-64.55-47.226h-22.844V36.396h-36.189L339.587,0H256v76.985h92.948v0.002H256V89.11h92.948v0.032H256
		v45.478h85.403v0.033H256v251.685h120.762v-19.996h104.919c9.57,0,17.465-5.379,17.465-11.946L512,213.142
		c0-0.419,0-0.908-0.07-1.327C511.86,211.464,511.79,211.117,511.651,210.836z M378.079,98.028h-1.317v24.902h1.317v0.025h-1.327
		v-24.94h1.327V98.028z"/>
</g>
</svg>