<?xml version="1.0" encoding="UTF-8"?>
<svg width="512" height="512" version="1.1" viewBox="0 0 512 512" xmlns="http://www.w3.org/2000/svg">
 <defs>
	 <radialGradient id="a" cx="256" cy="50.67" r="18" gradientTransform="matrix(.302 0 0 .302 -45.53 213.5)" gradientUnits="userSpaceOnUse">
   <stop style="stop-color:#caff9b" offset="0"/>
   <stop style="stop-color:#a4f754" offset=".66"/>
   <stop style="stop-color:#67cd00" offset="1"/>
  </radialGradient>
 </defs>
 <rect x="153" y="59.6" width="207" height="66.1" style="fill:#e3e2e2;stroke-width:2;stroke:#b3b3b3"/>
 <path d="m511 216.8v164.6c0 9.594-7.823 17.42-17.34 17.42h-475.3c-9.522 0-17.34-7.823-17.34-17.42v-164.6c0-0.6644 0-1.329 0.07371-1.993 0.1474-1.328 0.4433-2.657 0.9592-3.912 1.12-3.104 2.939-4.87 4.798-7.085 3.026-2.805 7.159-4.429 11.51-4.429h475.3c4.355 0 8.488 1.625 11.51 4.429 2.063 2.145 3.733 4.327 4.798 7.085 0.517 1.255 0.8118 2.584 0.9592 3.912 0.07271 0.6644 0.07271 1.328 0.07271 1.993z" fill="#2b2d30"/>
 <path d="m77.68 117.3h356.6l70.85 86.57c2.041 2.158 3.764 4.33 4.815 7.099h-508c0.927-2.57 2.574-4.682 4.815-7.099z" fill="#414142"/>
 <path d="m391.2 287.3v111.5h-270.5v-111.5c0-14.88 12.17-27.05 27.05-27.05h216.4c14.88 0 27.05 12.17 27.05 27.05z" fill="#414142"/>
 <path d="m31.91 271.9c-8.27 0-14.97-6.704-14.97-14.97s6.704-14.97 14.97-14.97c8.27 0 14.97 6.704 14.97 14.97 9.96e-4 8.269-6.703 14.97-14.97 14.97z" style="fill:#e3e2e2;opacity:.1"/>
 <path d="m76.83 271.9c-8.27 0-14.97-6.704-14.97-14.97s6.704-14.97 14.97-14.97c8.27 0 14.97 6.704 14.97 14.97-9.97e-4 8.269-6.705 14.97-14.97 14.97z" style="fill:#e3e2e2;opacity:.1"/>
 <path d="m429.9 271.9c-8.27 0-14.97-6.704-14.97-14.97s6.704-14.97 14.97-14.97c8.27 0 14.97 6.704 14.97 14.97 1e-3 8.269-6.703 14.97-14.97 14.97z" style="fill:#e3e2e2;opacity:.1"/>
 <path d="m474.8 271.9c-8.27 0-14.97-6.704-14.97-14.97s6.704-14.97 14.97-14.97c8.27 0 14.97 6.704 14.97 14.97 9.9e-4 8.269-6.703 14.97-14.97 14.97z" style="fill:#e3e2e2;opacity:.1"/>
 <path d="m510.9 214.8h-509.9c0.1474-1.328 0.4433-2.657 0.9592-3.912h507.9c0.517 1.255 0.8118 2.584 0.9602 3.912z" style="fill:#f2f2f2;opacity:.2"/>
 <rect x="343" y="199" width="58.8" height="12" fill="#4a7297"/>
 <rect x="273" y="199" width="58.8" height="12" fill="#964b61"/>
 <rect x="413" y="199" width="58.8" height="12" fill="#a8a845"/>
 <path d="m372.7 287h-235.7c-1.157 0-2.097 0.9393-2.097 2.097v5.305c0 1.157 0.9393 2.097 2.097 2.097h235.7c1.158 0 2.097-0.9383 2.097-2.097v-5.305c0-1.157-0.9383-2.097-2.097-2.097z" fill="#2b2d30"/>
 <path d="m371.9 292.7 38.33 159.7h-308.5l38.33-159.7z" style="fill:#e3e2e2;stroke-width:2;stroke:#bfbfbf"/>
 <path d="m381.2 331.5h-250.5l9.331-38.85h231.8z" style="fill:#000;opacity:.06"/>
 <path d="m77.68 117.3-70.85 86.57c-2.018 2.164-3.79 4.304-4.798 7.085-0.517 1.255-0.8118 2.584-0.9592 3.912-0.07371 0.6644-0.07371 1.328-0.07371 1.993v164.6c0 9.594 7.823 17.42 17.34 17.42h94.82l281.6-281.6z" style="fill:#fff;opacity:.06"/>
 <circle cx="31.9" cy="229" r="5.44" fill="url(#a)"/>
</svg>
