<?xml version="1.0" encoding="iso-8859-1"?>

<!DOCTYPE svg PUBLIC "-//W3C//DTD SVG 1.1//EN" "http://www.w3.org/Graphics/SVG/1.1/DTD/svg11.dtd">
<!-- Uploaded to: SVG Repo, www.svgrepo.com, Generator: SVG Repo Mixer Tools -->
<svg version="1.1" id="_x35_" xmlns="http://www.w3.org/2000/svg" xmlns:xlink="http://www.w3.org/1999/xlink" 
	 viewBox="0 0 512 512"  xml:space="preserve">
<g>
	<g>
		<rect x="152.267" style="fill:#E3E2E2;" width="207.467" height="113.218"/>
		<path style="fill:#2B2D30;" d="M512,157.824v165.233c0,9.632-7.854,17.486-17.413,17.486H17.413
			C7.854,340.543,0,332.689,0,323.057V157.824c0-0.667,0-1.334,0.074-2.001c0.148-1.333,0.445-2.667,0.963-3.927
			c0.37-1.037,0.815-2.001,1.334-2.963l3.483-4.15c3.038-2.816,7.187-4.446,11.559-4.446h477.175c4.372,0,8.521,1.631,11.559,4.446
			l3.483,4.15c0.519,0.962,0.963,1.926,1.334,2.963c0.519,1.26,0.815,2.594,0.963,3.927C512,156.49,512,157.156,512,157.824z"/>
		<polygon style="fill:#414142;" points="512,151.896 0,151.896 2.371,148.933 5.854,144.783 76.985,57.869 435.015,57.869 
			506.146,144.783 509.629,148.933 		"/>
		<path style="fill:#414142;" d="M391.768,228.586v111.951H120.231V228.586c0-14.934,12.219-27.154,27.154-27.154h217.23
			C379.549,201.432,391.768,213.651,391.768,228.586z"/>
		<g>
			<g style="opacity:0.1;">
				<path style="fill:#E3E2E2;" d="M31.036,213.069L31.036,213.069c-8.302,0-15.031-6.73-15.031-15.032l0,0
					c0-8.302,6.73-15.031,15.031-15.031l0,0c8.302,0,15.031,6.73,15.031,15.031l0,0C46.068,206.339,39.338,213.069,31.036,213.069z"
					/>
				<path style="fill:#E3E2E2;" d="M76.131,213.069L76.131,213.069c-8.302,0-15.031-6.73-15.031-15.032l0,0
					c0-8.302,6.73-15.031,15.031-15.031l0,0c8.302,0,15.032,6.73,15.032,15.031l0,0C91.162,206.339,84.432,213.069,76.131,213.069z"
					/>
			</g>
			<g style="opacity:0.1;">
				<path style="fill:#E3E2E2;" d="M430.584,213.069L430.584,213.069c-8.302,0-15.032-6.73-15.032-15.032l0,0
					c0-8.302,6.73-15.031,15.031-15.031h0c8.302,0,15.031,6.73,15.031,15.031l0,0C445.615,206.339,438.885,213.069,430.584,213.069z
					"/>
				<path style="fill:#E3E2E2;" d="M475.678,213.069L475.678,213.069c-8.302,0-15.032-6.73-15.032-15.032l0,0
					c0-8.302,6.73-15.031,15.031-15.031h0c8.302,0,15.032,6.73,15.032,15.031l0,0C490.71,206.339,483.98,213.069,475.678,213.069z"
					/>
			</g>
		</g>
		<path style="opacity:0.2;fill:#F2F2F2;" d="M511.926,155.823H0.074c0.148-1.333,0.445-2.667,0.963-3.927h509.925
			C511.481,153.156,511.777,154.49,511.926,155.823z"/>
		<g>
			<rect x="343.091" y="139.851" style="fill:#4A7297;" width="59.018" height="12.064"/>
			<rect x="273.036" y="139.851" style="fill:#964B61;" width="59.018" height="12.064"/>
			<rect x="413.145" y="139.851" style="fill:#A8A845;" width="59.018" height="12.064"/>
		</g>
		<path style="fill:#2B2D30;" d="M373.111,228.262H136.455c-1.162,0-2.105,0.943-2.105,2.105v5.326c0,1.162,0.943,2.105,2.105,2.105
			h236.656c1.163,0,2.105-0.942,2.105-2.105v-5.326C375.216,229.205,374.274,228.262,373.111,228.262z"/>
		<polygon style="fill:#E3E2E2;" points="410.854,394.301 101.146,394.301 130.259,272.982 139.627,233.978 372.373,233.978 
			381.741,272.982 		"/>
		<polygon style="opacity:0.06;fill:#040000;" points="381.741,272.982 130.259,272.982 139.627,233.978 372.373,233.978 		"/>
	</g>
	<path style="opacity:0.06;fill:#FFFFFF;" d="M359.734,57.869V0H152.267v57.869H76.985L5.854,144.783l-3.483,4.15L0,151.896h1.037
		c-0.519,1.26-0.815,2.594-0.963,3.927C0,156.49,0,157.156,0,157.824v165.233c0,9.632,7.854,17.486,17.413,17.486h95.195
		L395.281,57.869H359.734z"/>
</g>
</svg>