<?xml version="1.0" encoding="UTF-8"?>
<svg width="512" height="512" version="1.1" viewBox="0 0 512 512" xmlns="http://www.w3.org/2000/svg">
 <path d="m43.5 11.7c-5.84 0-10.6 4.75-10.6 10.6s4.73 10.6 10.6 10.6c5.84 0 10.6-4.76 10.6-10.6s-4.73-10.6-10.6-10.6zm42.5 0c-5.85 0-10.6 4.75-10.6 10.6s4.73 10.6 10.6 10.6c5.84 0 10.6-4.76 10.6-10.6s-4.75-10.6-10.6-10.6zm43 0c-5.85 0-10.6 4.75-10.6 10.6s4.73 10.6 10.6 10.6c5.84 0 10.6-4.76 10.6-10.6s-4.75-10.6-10.6-10.6zm42 0c-5.84 0-10.6 4.75-10.6 10.6s4.73 10.6 10.6 10.6c5.84 0 10.6-4.76 10.6-10.6s-4.76-10.6-10.6-10.6zm43 0c-5.85 0-10.6 4.75-10.6 10.6s4.73 10.6 10.6 10.6c5.84 0 10.6-4.76 10.6-10.6s-4.73-10.6-10.6-10.6zm42 0c-5.84 0-10.6 4.75-10.6 10.6s4.73 10.6 10.6 10.6c5.84 0 10.6-4.76 10.6-10.6s-4.76-10.6-10.6-10.6zm43 0c-5.85 0-10.6 4.75-10.6 10.6s4.72 10.6 10.6 10.6c5.84 0 10.6-4.76 10.6-10.6s-4.75-10.6-10.6-10.6zm42 0c-5.85 0-10.6 4.75-10.6 10.6s4.73 10.6 10.6 10.6c5.85 0 10.6-4.76 10.6-10.6s-4.73-10.6-10.6-10.6zm43 0c-5.84 0-10.6 4.75-10.6 10.6s4.75 10.6 10.6 10.6c5.84 0 10.6-4.76 10.6-10.6s-4.72-10.6-10.6-10.6zm42 0c-5.84 0-10.6 4.75-10.6 10.6s4.72 10.6 10.6 10.6c5.84 0 10.6-4.76 10.6-10.6s-4.75-10.6-10.6-10.6zm43 0c-5.85 0-10.6 4.75-10.6 10.6s4.73 10.6 10.6 10.6c5.84 0 10.6-4.76 10.6-10.6s-4.73-10.6-10.6-10.6zm-457 21.2c-5.85 0-10.6 4.73-10.6 10.6 0 5.84 4.73 10.6 10.6 10.6 5.84 0 10.6-4.73 10.6-10.6 0-5.84-4.73-10.6-10.6-10.6zm489 0c-5.84 0-10.6 4.73-10.6 10.6 0 5.84 4.72 10.6 10.6 10.6 5.84 0 10.6-4.73 10.6-10.6 0-5.84-4.75-10.6-10.6-10.6zm-489 42.5c-5.85 0-10.6 4.73-10.6 10.6 0 5.85 4.73 10.6 10.6 10.6 5.84 0 10.6-4.73 10.6-10.6 0-5.84-4.73-10.6-10.6-10.6zm489 0c-5.84 0-10.6 4.73-10.6 10.6 0 5.85 4.72 10.6 10.6 10.6 5.84 0 10.6-4.73 10.6-10.6 0-5.84-4.75-10.6-10.6-10.6zm-489 42c-5.85 0-10.6 4.73-10.6 10.6 0 5.85 4.73 10.6 10.6 10.6 5.84 0 10.6-4.73 10.6-10.6 0-5.85-4.73-10.6-10.6-10.6zm489 0c-5.84 0-10.6 4.73-10.6 10.6 0 5.85 4.72 10.6 10.6 10.6 5.84 0 10.6-4.73 10.6-10.6 0-5.85-4.75-10.6-10.6-10.6zm-489 43c-5.85 0-10.6 4.76-10.6 10.6s4.73 10.6 10.6 10.6c5.84 0 10.6-4.73 10.6-10.6 0-5.84-4.73-10.6-10.6-10.6zm489 0c-5.84 0-10.6 4.76-10.6 10.6s4.72 10.6 10.6 10.6c5.84 0 10.6-4.73 10.6-10.6 0-5.84-4.75-10.6-10.6-10.6zm-489 42c-5.85 0-10.6 4.75-10.6 10.6s4.73 10.6 10.6 10.6c5.84 0 10.6-4.73 10.6-10.6 0-5.84-4.73-10.6-10.6-10.6zm489 0c-5.84 0-10.6 4.75-10.6 10.6s4.72 10.6 10.6 10.6c5.84 0 10.6-4.73 10.6-10.6 0-5.84-4.75-10.6-10.6-10.6zm-489 43c-5.85 0-10.6 4.73-10.6 10.6 0 5.85 4.73 10.6 10.6 10.6 5.84 0 10.6-4.73 10.6-10.6 0-5.85-4.73-10.6-10.6-10.6zm489 0c-5.84 0-10.6 4.73-10.6 10.6 0 5.85 4.72 10.6 10.6 10.6 5.84 0 10.6-4.73 10.6-10.6 0-5.85-4.75-10.6-10.6-10.6zm-489 42c-5.85 0-10.6 4.75-10.6 10.6 0 5.84 4.73 10.6 10.6 10.6 5.84 0 10.6-4.72 10.6-10.6 0-5.84-4.73-10.6-10.6-10.6zm489 0c-5.84 0-10.6 4.75-10.6 10.6 0 5.84 4.72 10.6 10.6 10.6 5.84 0 10.6-4.72 10.6-10.6 0-5.84-4.75-10.6-10.6-10.6zm-489 43c-5.85 0-10.6 4.72-10.6 10.6 0 5.84 4.73 10.6 10.6 10.6 5.84 0 10.6-4.75 10.6-10.6 0-5.84-4.73-10.6-10.6-10.6zm489 0c-5.84 0-10.6 4.72-10.6 10.6 0 5.84 4.72 10.6 10.6 10.6 5.84 0 10.6-4.75 10.6-10.6 0-5.84-4.75-10.6-10.6-10.6zm-489 42c-5.85 0-10.6 4.73-10.6 10.6 0 5.85 4.73 10.6 10.6 10.6 5.84 0 10.6-4.73 10.6-10.6 0-5.85-4.73-10.6-10.6-10.6zm489 0c-5.84 0-10.6 4.73-10.6 10.6 0 5.85 4.72 10.6 10.6 10.6 5.84 0 10.6-4.73 10.6-10.6 0-5.85-4.75-10.6-10.6-10.6zm-489 43c-5.85 0-10.6 4.75-10.6 10.6 0 5.84 4.73 10.6 10.6 10.6 5.84 0 10.6-4.72 10.6-10.6 0-5.84-4.73-10.6-10.6-10.6zm489 0c-5.84 0-10.6 4.75-10.6 10.6 0 5.84 4.72 10.6 10.6 10.6 5.84 0 10.6-4.72 10.6-10.6 0-5.84-4.75-10.6-10.6-10.6zm-489 43c-5.85 0-10.6 4.72-10.6 10.6 0 5.84 4.73 10.6 10.6 10.6 5.84 0 10.6-4.75 10.6-10.6 0-5.84-4.73-10.6-10.6-10.6zm489 0c-5.84 0-10.6 4.72-10.6 10.6 0 5.84 4.72 10.6 10.6 10.6 5.84 0 10.6-4.75 10.6-10.6 0-5.84-4.75-10.6-10.6-10.6zm-457 20.4c-5.85 0-10.6 4.75-10.6 10.6 0 5.84 4.73 10.6 10.6 10.6 5.84 0 10.6-4.72 10.6-10.6 0-5.84-4.73-10.6-10.6-10.6zm42.5 0c-5.84 0-10.6 4.75-10.6 10.6 0 5.84 4.73 10.6 10.6 10.6 5.85 0 10.6-4.72 10.6-10.6 0-5.84-4.73-10.6-10.6-10.6zm42 0c-5.85 0-10.6 4.75-10.6 10.6 0 5.84 4.73 10.6 10.6 10.6 5.85 0 10.6-4.72 10.6-10.6 0-5.84-4.75-10.6-10.6-10.6zm43 0c-5.85 0-10.6 4.75-10.6 10.6 0 5.84 4.73 10.6 10.6 10.6 5.84 0 10.6-4.72 10.6-10.6 0-5.84-4.73-10.6-10.6-10.6zm43 0c-5.84 0-10.6 4.75-10.6 10.6 0 5.84 4.73 10.6 10.6 10.6 5.85 0 10.6-4.72 10.6-10.6 0-5.84-4.73-10.6-10.6-10.6zm42 0c-5.85 0-10.6 4.75-10.6 10.6 0 5.84 4.73 10.6 10.6 10.6 5.85 0 10.6-4.72 10.6-10.6 0-5.84-4.75-10.6-10.6-10.6zm42 0c-5.84 0-10.6 4.75-10.6 10.6 0 5.84 4.75 10.6 10.6 10.6 5.84 0 10.6-4.72 10.6-10.6 0-5.84-4.72-10.6-10.6-10.6zm43 0c-5.84 0-10.6 4.75-10.6 10.6 0 5.84 4.72 10.6 10.6 10.6 5.84 0 10.6-4.72 10.6-10.6 0-5.84-4.75-10.6-10.6-10.6zm43 0c-5.85 0-10.6 4.75-10.6 10.6 0 5.84 4.73 10.6 10.6 10.6 5.85 0 10.6-4.72 10.6-10.6 0-5.84-4.75-10.6-10.6-10.6zm42 0c-5.84 0-10.6 4.75-10.6 10.6 0 5.84 4.75 10.6 10.6 10.6 5.84 0 10.6-4.72 10.6-10.6 0-5.84-4.72-10.6-10.6-10.6zm43 0c-5.84 0-10.6 4.75-10.6 10.6 0 5.84 4.72 10.6 10.6 10.6 5.84 0 10.6-4.72 10.6-10.6 0-5.84-4.75-10.6-10.6-10.6z" fill="#ffce54"/>
 <rect x="22.3" y="32.9" width="467" height="446" fill="#014c52"/>
 <path d="m23.8 424-7.57 7.97v52.8h51.7l8.97-7.97zm189 19.1c-5.84 0-10.6 4.75-10.6 10.6 0 5.84 4.73 10.6 10.6 10.6 5.85 0 10.6-4.72 10.6-10.6s-4.73-10.6-10.6-10.6zm43 0c-5.85 0-10.6 4.75-10.6 10.6 0 5.84 4.75 10.6 10.6 10.6s10.6-4.72 10.6-10.6-4.75-10.6-10.6-10.6zm42 0c-5.84 0-10.6 4.75-10.6 10.6 0 5.84 4.75 10.6 10.6 10.6 5.84 0 10.6-4.72 10.6-10.6s-4.72-10.6-10.6-10.6z" fill="#eddc6e"/>
 <path d="m11.6 22.2v467h489v-467zm16 15h458v68.2c-7.53 0-12.8 5.67-12.8 12.6s5.02 12.8 12.8 12.6v344h-458v-344c8.39-0.547 11.9-6.94 11.9-12.6 0-5.61-3.52-12-11.9-12.6z" fill="#049faa"/>
 <path d="m447 171v-85c0-11.7-9.52-21.3-21.3-21.3h-340c-11.7 0-21.3 9.52-21.3 21.3v85l-10.6 21.3v128l10.6 21.3v85c0 11.7 9.51 21.3 21.3 21.3h95.6l21.2-10.6h117l21.3 10.6h85c11.7 0 21.3-9.52 21.3-21.3v-85l10.6-21.3v-128z" fill="#c4cad4"/>
 <rect x="107" y="107" width="298" height="298" fill="#e6e9ed"/>
 <path d="m216 291c-19.6 7.88-53.7 7.66-53.7-33.9 0-39.1 31.1-45 53.7-37.5v14.2c-43.2-20.4-46.7 37.4-26.7 46.6 9.54 4.28 21.3-0.395 26.7-2.79zm67.8-48.9c-0.511 23.4-19.3 27.4-38.4 27.4v24.5h-14.4v-76.1c20.6-0.234 50.7-3.5 52.8 24.2zm-15 0.99c-0.0316-13.3-13.4-13.3-23.3-13.3v27.9c10.9 0.679 22.9-1.23 23.3-14.6zm80.4 22.9c0 23.3-12.9 29.4-28.2 29.4-24.9 0-27.2-16.9-27.2-27v-50.5h14.3v49.6c0 7.47 1.54 16 13.5 16 6.61 0 13.3-1.97 13.3-16.6v-49h14.3z" fill="#434a54"/>
</svg>
