<?xml version="1.0" encoding="UTF-8"?>
<svg width="512" height="512" version="1.1" viewBox="0 0 512 512" xmlns="http://www.w3.org/2000/svg">
 <path d="m111 10.5v74.3c0 12.5 19 12.5 19 0v-74.3c0-12.5-19-12.5-19 0zm38.8 0v74.3c0 12.5 19 12.5 19 0v-74.3c0-12.5-19-12.5-19 0zm38.8 0v74.3c0 12.5 19 12.5 19 0v-74.3c0-12.5-19-12.5-19 0zm38.8 0v74.3c0 12.5 19 12.5 19 0v-74.3c0-12.5-19-12.5-19 0zm38.8 0v74.3c0 12.5 19 12.5 19 0v-74.3c0-12.5-19-12.5-19 0zm38.8 0v74.3c0 12.5 19 12.5 19 0v-74.3c0-12.5-19-12.5-19 0zm38.8 0v74.3c0 12.5 19 12.5 19 0v-74.3c0-12.5-19-12.5-19 0zm38.8 0v74.3c0 12.5 19 12.5 19 0v-74.3c0-12.5-19-12.5-19 0zm-372 100c-12.5 0-12.5 19 0 19h74.3c12.5 0 12.5-19 0-19zm417 0c-12.5 0-12.5 19 0 19h74.3c12.5 0 12.5-19 0-19zm-417 38.8c-12.5 0-12.5 19 0 19h74.3c12.5 0 12.5-19 0-19zm417 0c-12.5 0-12.5 19 0 19h74.3c12.5 0 12.5-19 0-19zm-417 38.8c-12.5 0-12.5 19 0 19h74.3c12.5 0 12.5-19 0-19zm417 0c-12.5 0-12.5 19 0 19h74.3c12.5 0 12.5-19 0-19zm-417 38.8c-12.5 0-12.5 19 0 19h74.3c12.5 0 12.5-19 0-19zm417 0c-12.5 0-12.5 19 0 19h74.3c12.5 0 12.5-19 0-19zm-417 38.8c-12.5 0-12.5 19 0 19h74.3c12.5 0 12.5-19 0-19zm417 0c-12.5 0-12.5 19 0 19h74.3c12.5 0 12.5-19 0-19zm-417 38.8c-12.5 0-12.5 19 0 19h74.3c12.5 0 12.5-19 0-19zm417 0c-12.5 0-12.5 19 0 19h74.3c12.5 0 12.5-19 0-19zm-417 38.8c-12.5 0-12.5 19 0 19h74.3c12.5 0 12.5-19 0-19zm417 0c-12.5 0-12.5 19 0 19h74.3c12.5 0 12.5-19 0-19zm-417 38.8c-12.5 0-12.5 19 0 19h74.3c12.5 0 12.5-19 0-19zm417 0c-12.5 0-12.5 19 0 19h74.3c12.5 0 12.5-19 0-19zm-317 44.8v74.3c0 12.5 19 12.5 19 0v-74.3c0-12.5-19-12.5-19 0zm38.8 0v74.3c0 12.5 19 12.5 19 0v-74.3c0-12.5-19-12.5-19 0zm38.8 0v74.3c0 12.5 19 12.5 19 0v-74.3c0-12.5-19-12.5-19 0zm38.8 0v74.3c0 12.5 19 12.5 19 0v-74.3c0-12.5-19-12.5-19 0zm38.8 0v74.3c0 12.5 19 12.5 19 0v-74.3c0-12.5-19-12.5-19 0zm38.8 0v74.3c0 12.5 19 12.5 19 0v-74.3c0-12.5-19-12.5-19 0zm38.8 0v74.3c0 12.5 19 12.5 19 0v-74.3c0-12.5-19-12.5-19 0zm38.8 0v74.3c0 12.5 19 12.5 19 0v-74.3c0-12.5-19-12.5-19 0z" fill="#808080"/>
 <path d="m101 69h309c17.9 0 32.4 14.5 32.4 32.4v309c0 17.9-14.5 32.4-32.4 32.4h-309c-17.9 0-32.4-14.5-32.4-32.4v-309c0-17.9 14.5-32.4 32.4-32.4z" fill="#1a1a1a"/>
 <path d="m400 69h-299c-17.9 0-32.4 14.5-32.4 32.4v309c0 17.9 14.5 32.4 32.4 32.4h22.9z" fill="#4d4d4d"/>
 <rect x="114" y="354" width="198" height="24.8" rx="10" ry="10" fill="#808080"/>
 <rect x="114" y="300" width="131" height="24.8" rx="10" ry="10" fill="#808080"/>
 <path d="m168 193c-3.39 1.36-6.68 2.38-9.88 3.04-3.16 0.663-6.45 0.994-9.88 0.994-5.5 0-10.4-0.799-14.6-2.4-4.21-1.64-7.78-4.05-10.7-7.25-2.88-3.2-5.09-7.15-6.61-11.9-1.48-4.75-2.22-10.3-2.22-16.5 0-6.43 0.818-12.1 2.46-17.1 1.64-5.03 3.98-9.26 7.02-12.7 3.04-3.47 6.72-6.1 11-7.89 4.37-1.83 9.26-2.75 14.7-2.75 1.75 0 3.39 0.0389 4.91 0.117 1.56 0.078 3.08 0.234 4.56 0.468 1.48 0.195 2.98 0.468 4.5 0.818 1.52 0.351 3.1 0.799 4.74 1.34v14.3c-3.31-1.56-6.47-2.67-9.47-3.33-3-0.663-5.73-0.994-8.18-0.994-3.62 0-6.72 0.663-9.3 1.99-2.57 1.29-4.7 3.12-6.37 5.5-1.64 2.34-2.85 5.14-3.62 8.42-0.779 3.23-1.17 6.8-1.17 10.7 0 4.13 0.39 7.83 1.17 11.1 0.818 3.23 2.07 5.98 3.74 8.24 1.68 2.26 3.82 3.99 6.43 5.2 2.61 1.17 5.71 1.75 9.3 1.75 1.29 0 2.67-0.117 4.15-0.351 1.52-0.273 3.04-0.604 4.56-0.994 1.56-0.429 3.08-0.916 4.56-1.46 1.52-0.585 2.92-1.17 4.21-1.75zm68.1-49.1c0 3.98-0.663 7.66-1.99 11-1.33 3.35-3.29 6.26-5.9 8.71-2.61 2.46-5.87 4.37-9.76 5.73-3.9 1.36-8.42 2.05-13.6 2.05h-7.31v24.6h-14.5v-76.4h22.4c4.95 0 9.32 0.546 13.1 1.64 3.82 1.05 7.02 2.61 9.59 4.68 2.61 2.07 4.58 4.62 5.9 7.66 1.36 3 2.05 6.45 2.05 10.3zm-15.1 0.994c0-2.03-0.331-3.86-0.994-5.5-0.624-1.68-1.6-3.1-2.92-4.27-1.29-1.17-2.92-2.07-4.91-2.69-1.99-0.624-4.35-0.935-7.07-0.935h-7.54v28h8.01c2.49 0 4.7-0.331 6.61-0.994 1.91-0.702 3.51-1.7 4.79-2.98 1.33-1.29 2.32-2.83 2.98-4.62 0.702-1.79 1.05-3.8 1.05-6.02zm80.7 23c0 4.87-0.663 9.16-1.99 12.9-1.29 3.66-3.16 6.72-5.61 9.18-2.42 2.46-5.38 4.31-8.89 5.55-3.51 1.25-7.44 1.87-11.8 1.87-4.91 0-9.12-0.624-12.6-1.87-3.51-1.25-6.35-3.04-8.54-5.38-2.18-2.34-3.76-5.18-4.74-8.54-0.974-3.35-1.46-7.11-1.46-11.3v-50.7h14.4v49.8c0 2.57 0.214 4.85 0.643 6.84 0.468 1.99 1.25 3.68 2.34 5.09 1.13 1.36 2.53 2.4 4.21 3.1 1.68 0.702 3.78 1.05 6.31 1.05 2.38 0 4.38-0.292 6.02-0.877 1.64-0.624 3-1.6 4.09-2.92 1.09-1.36 1.91-3.1 2.46-5.2 0.546-2.1 0.818-4.66 0.818-7.66v-49.2h14.4zm81.3 8.24-1.99 19.9h-11.5l2.05-19.9h-13.6l-1.99 19.9h-11.5l2.05-19.9h-10.3v-10.7h11.3l1.7-16.8h-9.94v-10.7h11l1.87-18.4h11.5l-1.87 18.4h13.5l1.87-18.4h11.5l-1.87 18.4h10.4v10.7h-11.5l-1.7 16.8h10.1v10.7zm-8.65-27.5h-13.5l-1.7 16.8h13.5z" fill="#b3b3b3"/>
</svg>
