<?xml version="1.0" encoding="UTF-8" standalone="no"?>
<svg
   height="512px"
   width="512px"
   version="1.1"
   id="Capa_1"
   viewBox="0 0 58 58"
   xml:space="preserve"
   sodipodi:docname="processor.svg"
   inkscape:version="1.1.2 (0a00cf5339, 2022-02-04)"
   xmlns:inkscape="http://www.inkscape.org/namespaces/inkscape"
   xmlns:sodipodi="http://sodipodi.sourceforge.net/DTD/sodipodi-0.dtd"
   xmlns="http://www.w3.org/2000/svg"
   xmlns:svg="http://www.w3.org/2000/svg"><sodipodi:namedview
   id="namedview49"
   pagecolor="#ffffff"
   bordercolor="#666666"
   borderopacity="1.0"
   inkscape:pageshadow="2"
   inkscape:pageopacity="0.0"
   inkscape:pagecheckerboard="0"
   showgrid="false"
   inkscape:zoom="1.2304688"
   inkscape:cx="256"
   inkscape:cy="256"
   inkscape:window-width="3840"
   inkscape:window-height="2065"
   inkscape:window-x="0"
   inkscape:window-y="0"
   inkscape:window-maximized="1"
   inkscape:current-layer="Capa_1" /><defs
   id="defs2" /><path
   style="fill:#56a157"
   d="m 0,0 v 58 c 29.559742,-0.08679 29.462852,0.02027 58,0 V 0 C 28.140606,-0.10054227 28.119687,0 0,0 Z"
   id="path2"
   sodipodi:nodetypes="ccccc" />
<polygon
   style="fill:#EBDA6C;"
   points="0,0 0,8 8,0 "
   id="polygon4" />
<path
   style="fill:#EDDC6E;"
   d="M43.033,10H14.967C12.224,10,10,12.224,10,14.967V20.5c0,0.828,0.672,1.5,1.5,1.5h0  c0.828,0,1.5,0.672,1.5,1.5v11c0,0.828-0.672,1.5-1.5,1.5h0c-0.828,0-1.5,0.672-1.5,1.5v5.533C10,45.776,12.224,48,14.967,48h28.067  C45.776,48,48,45.776,48,43.033V14.967C48,12.224,45.776,10,43.033,10z"
   id="path6" />
<g
   id="g82">
	<circle
   style="fill:#eddc6e"
   cx="3"
   cy="50"
   r="1"
   id="circle8" />
	<circle
   style="fill:#eddc6e"
   cx="3"
   cy="55"
   r="1"
   id="circle10" />
	<circle
   style="fill:#eddc6e"
   cx="55"
   cy="3"
   r="1"
   id="circle12" />
	<circle
   style="fill:#eddc6e"
   cx="55"
   cy="55"
   r="1"
   id="circle14" />
	<circle
   style="fill:#eddc6e"
   cx="5"
   cy="48"
   r="1"
   id="circle16" />
	<circle
   style="fill:#eddc6e"
   cx="53"
   cy="34"
   r="1"
   id="circle18" />
	<circle
   style="fill:#eddc6e"
   cx="55"
   cy="36"
   r="1"
   id="circle20" />
	<circle
   style="fill:#eddc6e"
   cx="53"
   cy="44"
   r="1"
   id="circle22" />
	<circle
   style="fill:#eddc6e"
   cx="55"
   cy="46"
   r="1"
   id="circle24" />
	<circle
   style="fill:#eddc6e"
   cx="53"
   cy="24"
   r="1"
   id="circle26" />
	<circle
   style="fill:#eddc6e"
   cx="55"
   cy="26"
   r="1"
   id="circle28" />
	<circle
   style="fill:#eddc6e"
   cx="3"
   cy="45"
   r="1"
   id="circle30" />
	<circle
   style="fill:#eddc6e"
   cx="5"
   cy="43"
   r="1"
   id="circle32" />
	<circle
   style="fill:#eddc6e"
   cx="3"
   cy="40"
   r="1"
   id="circle34" />
	<circle
   style="fill:#eddc6e"
   cx="5"
   cy="38"
   r="1"
   id="circle36" />
	<circle
   style="fill:#eddc6e"
   cx="3"
   cy="35"
   r="1"
   id="circle38" />
	<circle
   style="fill:#eddc6e"
   cx="5"
   cy="33"
   r="1"
   id="circle40" />
	<circle
   style="fill:#eddc6e"
   cx="3"
   cy="30"
   r="1"
   id="circle42" />
	<circle
   style="fill:#eddc6e"
   cx="5"
   cy="28"
   r="1"
   id="circle44" />
	<circle
   style="fill:#eddc6e"
   cx="3"
   cy="25"
   r="1"
   id="circle46" />
	<circle
   style="fill:#eddc6e"
   cx="5"
   cy="23"
   r="1"
   id="circle48" />
	<circle
   style="fill:#eddc6e"
   cx="3"
   cy="10"
   r="1"
   id="circle50" />
	<circle
   style="fill:#eddc6e"
   cx="16"
   cy="3"
   r="1"
   id="circle52" />
	<circle
   style="fill:#eddc6e"
   cx="12"
   cy="3"
   r="1"
   id="circle54" />
	<circle
   style="fill:#eddc6e"
   cx="3"
   cy="13"
   r="1"
   id="circle56" />
	<circle
   style="fill:#eddc6e"
   cx="36"
   cy="55"
   r="1"
   id="circle58" />
	<circle
   style="fill:#eddc6e"
   cx="34"
   cy="53"
   r="1"
   id="circle60" />
	<circle
   style="fill:#eddc6e"
   cx="31"
   cy="55"
   r="1"
   id="circle62" />
	<circle
   style="fill:#eddc6e"
   cx="29"
   cy="53"
   r="1"
   id="circle64" />
	<circle
   style="fill:#eddc6e"
   cx="26"
   cy="55"
   r="1"
   id="circle66" />
	<circle
   style="fill:#eddc6e"
   cx="24"
   cy="53"
   r="1"
   id="circle68" />
	<circle
   style="fill:#eddc6e"
   cx="21"
   cy="55"
   r="1"
   id="circle70" />
	<circle
   style="fill:#eddc6e"
   cx="19"
   cy="53"
   r="1"
   id="circle72" />
	<circle
   style="fill:#eddc6e"
   cx="16"
   cy="55"
   r="1"
   id="circle74" />
	<circle
   style="fill:#eddc6e"
   cx="14"
   cy="53"
   r="1"
   id="circle76" />
	<circle
   style="fill:#eddc6e"
   cx="11"
   cy="55"
   r="1"
   id="circle78" />
	<circle
   style="fill:#eddc6e"
   cx="9"
   cy="53"
   r="1"
   id="circle80" />
</g>
<path
   style="fill:#414141;"
   d="M41.687,45H16.313C14.483,45,13,43.517,13,41.687V16.313C13,14.483,14.483,13,16.313,13h25.375  C43.517,13,45,14.483,45,16.313v25.375C45,43.517,43.517,45,41.687,45z"
   id="path84" />

<text
   xml:space="preserve"
   style="font-style:normal;font-weight:normal;font-size:2.9px;line-height:1.25;font-family:sans-serif;fill:#000000;fill-opacity:1;stroke:none;stroke-width:0.0725"
   x="18.504763"
   y="26.606348"
   id="text6489"><tspan
     sodipodi:role="line"
     id="tspan6487"
     style="font-style:normal;font-variant:normal;font-weight:bold;font-stretch:normal;font-size:9.66667px;font-family:sans-serif;-inkscape-font-specification:'sans-serif, Bold';font-variant-ligatures:normal;font-variant-caps:normal;font-variant-numeric:normal;font-variant-east-asian:normal;fill:#ffffff;fill-opacity:1;stroke-width:0.0725"
     x="18.504763"
     y="26.606348">CPU</tspan></text></svg>
