<?xml version="1.0" encoding="UTF-8"?>
<svg width="512" height="512" version="1.1" viewBox="0 0 512 512" xmlns="http://www.w3.org/2000/svg">
 <defs>
  <linearGradient id="b" x1="-2.65" x2="60.6" y1="193" y2="193" gradientTransform="matrix(.996 -.105 .105 .996 -40.1 20)" gradientUnits="userSpaceOnUse">
   <stop stop-color="#4d4d4d" offset="0"/>
   <stop stop-color="#838383" offset="1"/>
  </linearGradient>
  <linearGradient id="c" x1="142" x2="452" y1="156" y2="426" gradientTransform="matrix(.459 -.048 .051 .485 54.9 90.4)" gradientUnits="userSpaceOnUse">
   <stop stop-color="#ffff80" offset="0"/>
   <stop stop-color="#fff" stop-opacity="0" offset="1"/>
  </linearGradient>
  <radialGradient id="a" cx="240" cy="140" r="200" fx="260" fy="160" gradientTransform="matrix(1.43 0 0 1.43 -61.3 81.3)" gradientUnits="userSpaceOnUse">
   <stop stop-color="#fff3b9" offset="0"/>
   <stop stop-color="#FF0000" offset=".25"/>
   <stop stop-color="#C00000" offset=".5"/>
   <stop stop-color="#7F0000" offset=".7"/>
   <stop stop-color="#400000" offset=".85"/>
   <stop offset="1"/>
  </radialGradient>
 </defs>
 <circle cx="367" cy="366" r="143" fill="url(#a)"/>
 <path d="M115 .036h21.4l24.1 141-20.2-16.7-25.4-125z" fill="#333"/>
 <path d="M105 47c-80.6 5.49-74.3 62-70.7 83.8 20.2 17.5 48.8 49.8 68.9 67.3 26.8-24 61.3-49.7 88-73.6-23.4-21.5-62.9-56-86.3-77.4z" fill="url(#b)"/>
 <path d="M26.9.025h21.5l27.2 150-20.2-16.7z" fill="#333"/>
 <path d="M106 132 87.7 259l123-44.1 22.5-118z" fill="#1a1a1a"/>
 <path d="m205 155c2.16 20.5-15.2 46.6-38.8 58.4s-44.4 4.71-46.6-15.8c-2.16-20.5 15.2-46.6 38.8-58.4s44.4-4.71 46.6 15.8z" fill="#fffd80"/>
 <path d="m124 174 121 171 131-77.9-216-128c-19.2 10.2-28.6 22.4-35.1 35.3z" fill="url(#c)"/>
</svg>
