<?xml version="1.0" encoding="UTF-8" standalone="no"?>
<svg
   viewBox="0 0 315.58171 353.16415"
   version="1.1"
   id="svg26"
   sodipodi:docname="raytrace.svg"
   width="315.58173"
   height="353.16415"
   inkscape:version="1.1.2 (0a00cf5339, 2022-02-04)"
   xmlns:inkscape="http://www.inkscape.org/namespaces/inkscape"
   xmlns:sodipodi="http://sodipodi.sourceforge.net/DTD/sodipodi-0.dtd"
   xmlns="http://www.w3.org/2000/svg"
   xmlns:svg="http://www.w3.org/2000/svg">
  <sodipodi:namedview
     id="namedview28"
     pagecolor="#ffffff"
     bordercolor="#666666"
     borderopacity="1.0"
     inkscape:pageshadow="2"
     inkscape:pageopacity="0.0"
     inkscape:pagecheckerboard="0"
     showgrid="false"
     inkscape:zoom="1.1241168"
     inkscape:cx="294.89819"
     inkscape:cy="280.22"
     inkscape:window-width="3840"
     inkscape:window-height="2065"
     inkscape:window-x="0"
     inkscape:window-y="0"
     inkscape:window-maximized="1"
     inkscape:current-layer="svg26" />
  <defs
     id="defs12">
    <linearGradient
       id="a"
       y2="193.19"
       gradientUnits="userSpaceOnUse"
       x2="60.588001"
       y1="193.19"
       x1="-2.654"
       gradientTransform="translate(-61.565791,0.498)">
      <stop
         offset="0"
         stop-color="#4d4d4d"
         id="stop2" />
      <stop
         offset="1"
         stop-color="#838383"
         id="stop4" />
    </linearGradient>
    <linearGradient
       id="b"
       y2="425.67999"
       gradientUnits="userSpaceOnUse"
       x2="451.92999"
       y1="155.73"
       x1="142.36"
       gradientTransform="matrix(0.46066577,0,0,0.48721248,15.21383,80.3544)">
      <stop
         offset="0"
         stop-color="#ff0"
         id="stop7" />
      <stop
         offset="1"
         stop-color="#ff0"
         stop-opacity="0"
         id="stop9" />
    </linearGradient>
  </defs>
  <path
     d="m 104.56421,1.33 19.958,-1.33 0.87,142 -18.26,-18.68 -2.57,-121.99 z"
     fill-rule="evenodd"
     fill="#333333"
     id="path14" />
  <path
     d="M 79.264209,42.418 C -1.3667906,39.425 -1.0127906,96.139 0.29020942,118.178 18.481209,137.653 43.500209,172.735 61.690209,192.21 c 29.105,-20.973 66.014001,-42.921 95.119001,-63.894 -20.98,-23.76 -56.58,-62.145 -77.550001,-85.9 z"
     fill-rule="evenodd"
     fill="url(#a)"
     id="path16"
     style="fill:url(#a)" />
  <path
     d="m 18.909209,1.33 19.955,-1.33 0.87,142 -18.257,-18.68 z"
     fill-rule="evenodd"
     fill="#333333"
     id="path18" />
  <path
     d="m 71.554209,127.168 -31.46,124.55 127.120001,-30.82 34.67,-114.92 z"
     fill-rule="evenodd"
     fill="#1a1a1a"
     id="path20" />
  <path
     d="M 80.794209,180.14039 177.19774,353.16416 315.58173,289.59755 118.53656,156.228 Z"
     fill-rule="evenodd"
     fill="url(#b)"
     id="path22"
     style="fill:url(#b);stroke-width:0.473753" />
  <path
     d="m 167.21021,160.554 c 0,20.566 -19.978,44.712 -44.623,53.932 -24.643001,9.22 -44.622001,0.022 -44.622001,-20.545 0,-20.566 19.978,-44.713 44.622001,-53.933 24.644,-9.22 44.622,-0.021 44.622,20.546 z"
     fill="#ffcc00"
     id="path24" />
</svg>
