<?xml version="1.0" encoding="UTF-8"?>
<svg width="512" height="512" version="1.1" viewBox="0 0 512 512" xmlns="http://www.w3.org/2000/svg">
 <defs>
  <linearGradient id="a" x1="129" x2="393" y1="120" y2="384" gradientUnits="userSpaceOnUse">
   <stop style="stop-color:#31c323" offset="0"/>
   <stop style="stop-color:#21881b" offset="1"/>
  </linearGradient>
 </defs>
 <path d="m85.5 175 62.3 29.5c19.6-42.1 62-69 108-69.3 29 0.0713 56.9 10.6 78.8 29.7l-60.2 51.1 169 27.4-0.0817-171-55.2 46.9c-35-34.6-76.5-53.9-137-53.7-61 0.224-133 42.4-165 108zm-16.8 93.5 0.0817 171 55.2-46.9c35 34.6 78 53.9 139 53.7 61-0.149 133-42.3 163-108l-62.3-29.5c-19.6 42.1-62 69-108 69.3-29-0.0713-56.9-10.6-78.8-29.7l60.2-51.1z" fill="url(#a)"/>
</svg>
