<?xml version="1.0" encoding="UTF-8"?>
<svg width="512" height="512" version="1.1" viewBox="0 0 512 512" xmlns="http://www.w3.org/2000/svg">
 <defs>
  <linearGradient id="b" x1="254" x2="298" y1="242" y2="279" gradientUnits="userSpaceOnUse">
   <stop style="stop-color:#ddb97f" offset="0"/>
   <stop style="stop-color:#785201" offset="1"/>
  </linearGradient>
  <radialGradient id="a" cx="256" cy="41.8" r="81.5" gradientTransform="matrix(3.09 0 0 .198 -534 40.4)" gradientUnits="userSpaceOnUse">
   <stop style="stop-color:#808080" offset="0"/>
   <stop style="stop-color:#383838" offset="1"/>
  </radialGradient>
 </defs>
 <rect x="71" y="39.9" width="370" height="471" rx="25" ry="25" fill="url(#b)"/>
 <rect x="76.5" y="44.2" width="359" height="461" rx="25" ry="25" fill="#ba8c41"/>
 <rect x="107" y="77.7" width="298" height="397" fill="#fff"/>
 <rect x="141" y="184" width="57.2" height="56.2" fill="#5cd65c"/>
 <rect x="141" y="278" width="57.2" height="56.2" fill="#5c92d6"/>
 <rect x="141" y="369" width="57.2" height="56.2" fill="#ff6666"/>
 <path d="m240 406h74.8c4.62 0 8.34 3.72 8.34 8.34v0.199c0 4.62-3.72 8.34-8.34 8.34h-74.8c-4.62 0-8.34-3.72-8.34-8.34v-0.199c0-4.62 3.72-8.34 8.34-8.34z" fill="#555"/>
 <path d="m240 373h133c4.62 0 8.34 3.72 8.34 8.34v0.199c0 4.62-3.72 8.34-8.34 8.34h-133c-4.62 0-8.34-3.72-8.34-8.34v-0.199c0-4.62 3.72-8.34 8.34-8.34z" fill="#555"/>
 <path d="m240 314h97.7c4.62 0 8.34 3.72 8.34 8.34v0.199c0 4.62-3.72 8.34-8.34 8.34h-97.7c-4.62 0-8.34-3.72-8.34-8.34v-0.199c0-4.62 3.72-8.34 8.34-8.34z" fill="#555"/>
 <path d="m240 281h131c4.62 0 8.34 3.72 8.34 8.34v0.199c0 4.62-3.72 8.34-8.34 8.34h-131c-4.62 0-8.34-3.72-8.34-8.34v-0.199c0-4.62 3.72-8.34 8.34-8.34z" fill="#555"/>
 <path d="m177 128h152c4.62 0 8.34 3.72 8.34 8.34v0.199c0 4.62-3.72 8.34-8.34 8.34h-152c-4.62 0-8.34-3.72-8.34-8.34v-0.199c0-4.62 3.72-8.34 8.34-8.34z" fill="#555"/>
 <path d="m240 188h131c4.62 0 8.34 3.72 8.34 8.34v0.199c0 4.62-3.72 8.34-8.34 8.34h-131c-4.62 0-8.34-3.72-8.34-8.34v-0.199c0-4.62 3.72-8.34 8.34-8.34z" fill="#555"/>
 <path d="m240 221h74.8c4.62 0 8.34 3.72 8.34 8.34v0.199c0 4.62-3.72 8.34-8.34 8.34h-74.8c-4.62 0-8.34-3.72-8.34-8.34v-0.199c0-4.62 3.72-8.34 8.34-8.34z" fill="#555"/>
 <path d="m228 13c-2.76 5.64-1.4 11.8-0.258 15.6h-30c-13 0-23.4 5.36-23.4 19.6v52.8h163v-52.8c0-15-10.5-19.6-23.4-19.6h-29.8c1.31-4.54 1.74-9.52-0.121-14-3.07-7.35-12.4-11.9-17.7-13.1-17.1-3.87-33.7 2.04-38.3 11.4zm39.2 16.2c-3.6 6.73-10.5 7.82-15 6.52-3.6-1.08-6.76-3.78-8.06-7.12-4.57-11.8 5.84-18.1 11.4-17.9 12 0.546 15.3 11.7 11.7 18.5z" fill="url(#a)"/>
</svg>
