<?xml version="1.0" encoding="UTF-8"?>
<svg width="512" height="512" version="1.1" viewBox="0 0 512 512" xmlns="http://www.w3.org/2000/svg">
 <defs>
  <linearGradient id="a" x1="131" x2="373" y1="139" y2="380" gradientUnits="userSpaceOnUse">
   <stop style="stop-color:#f5a430" offset="0"/>
   <stop style="stop-color:#c17206" offset="1"/>
  </linearGradient>
 </defs>
 <path d="m256 15.1 241 241-241 241-241-241z" style="fill:url(#a);stroke-width:20;stroke:#ce5c00"/>
 <path d="m77.1 239c-7.36 7.34-16.6 17.5-24 24.8-5.78 1.89-6.53-2.99-8.92-6.94-2.07-3.28-5.49-5.61-9.23-6.48l-5.77 5.77 63.1 63.1c7.86-5.47 16.6-5.7 26.1 1.53 2.16 1.88 4.23 3.88 6.28 5.89l19.4-19.2c-8.22-8.63-12.9-13.2-19.3-19.7-4.75 9.26-11.3 14.9-21.2 14.4-14.7-0.791-21.8-13.7-21.9-22.1-0.0577-5.85 1.63-11.5 6.12-15.2 2.65-2.15 6.29-4.11 9.47-5.31-6.71-6.83-13.8-14.3-20.2-20.6zm71.3 73.6c-7.9 7.73-16.4 17-24.7 24.8-8.04-12.7-18.2-16.9-26.2-12.9l110 110c5.69-11.6-2.36-22.7-10.5-25.2-2.4-0.61-3.92-3.23-3.47-5.63 6.51-7.78 14.4-14.9 21.5-22.1 0.635-1.08 0.248-2.26-0.615-3.08-6.53-6.48-16.2-17-16.2-17-1.72-2.04-2.83 10.5-14.9 13.4-20.4 4.97-31.2-11.3-31.2-22.7 0.125-15.1 11.4-20.3 13.3-20.8 0.814-0.264 1.09-1.29 0.52-1.93-6.84-6.96-11-10.3-18-17.2zm57.4-233-68.1 68.1 10.1 9.93s14.6-14.7 21.9-22c1.5-0.49 6.51-0.349 8.05 3.87 2.5 8.3 10.9 10.7 15.4 10.3 8.41-0.719 15.1-6.9 15.1-15.5 0.12-5.05-2.55-10.1-6.86-12.8-2.07-1.41-4.92-1.6-6.52-3.68-1.49-1.75-1.58-4.19-1.21-6.35 7.3-7.4 14.7-14.7 22-22.1-3.35-3.2-6.57-6.51-9.81-9.81zm-73.2 73.2-66.8 67.1s6.2 5.83 9.19 8.84c0.69 0.785 1.92 1.72 2.94 0.92 7.3-7.2 13.1-14 20.8-20.7 2.2-0.31 4.57 0.89 5.39 3 1.07 3.72 3.47 7.03 6.71 9.16 2.9 1.91 9.97 6.24 19.4-0.553 10.4-7.5 9.65-23.4-1.25-29-3.24-1.65-6.88-2.59-5.93-7.23 6.3-7.5 20.2-21.2 20.2-21.2zm87.4-58.8c-1.12-0.176-19.2 18.6-19.9 19.3-1.78 2.69 11.8 3.14 14.2 17.7 2.39 14.4-8.26 25-20.1 25.1-22.7 0.329-20.2-17.6-24.6-12-6.96 6.84-10.7 11.3-17.6 18.3 7.79 7.77 16.7 16.8 24.5 25.1-7.53 4.75-15 12-14.4 21.7 0.945 8 9.82 15.5 18.1 13.7 9.84-1.87 12.8-8.76 17.2-14.6 8.12 8.14 16.6 15.9 24.3 24.5 1.48-0.0145 11.5-11.8 20.9-20.4 2.26-1.64 5.77-0.972 7.24 1.41 2.87 7.67 8.77 12.9 17.2 13.4 10.7 0.147 19.5-10.5 16.7-21.2-1.41-5.97-6.15-11-12-12.8-2.58-0.868-3.97-4.02-2.99-6.53 6.78-7.48 13.7-14.3 20.5-21.2 0.642-0.639 0.358-1.65-0.324-2.13-7.24-7.18-14.5-14.4-21.7-21.5-0.271-1.83 0.223-3.85 1.72-5.04 1.97-1.54 9.86-2.8 13.1-9.78 4.97-10.8-0.819-21.2-9.89-24.5-10.3-4.01-21 3.2-23.5 11.3-0.61 2.4-3.85 5.15-5.63 3.47-10-9.46-21.2-21.5-23.3-23.3zm-71.9 74.7c-6.62 6.63-10.4 10.4-17 17.1 7.88 2.74 12.2 8.46 13.6 19 0.057 14.9-9.21 24.2-23.4 25.5-9.85-0.223-17.9-3.44-21.8-12.8-6.77 6.34-11.1 10.9-17.8 17.3 7.34 7.36 14.7 14.7 22 22.1 0.368 2.16 0.278 4.6-1.21 6.35-1.6 2.08-4.45 2.27-6.52 3.68-11.9 7.46-7.7 27 8.64 29.3 4.46-0.104 12.5-3 15-11.3 1.54-4.22 6.55-4.36 8.05-3.87 7.31 7.33 14.6 14.7 21.9 22 6.84-6.34 13.3-13.1 19.9-19.8 1.89-1.17 4.36-1.74 6.43-0.689 4.75 2.33 5.34 8.95 9.21 11.5 11.2 8.69 25.6-0.206 25.7-11.8 0.259-10.6-7.66-14.1-11.9-15.8-3.5-0.861-5.29-6.54-2.38-10.3 6.53-6.53 13.1-13 19.6-19.6-7.89-7.99 0.65 0.66-17.8-17.8-4.72 5.01-11.2 9.74-18.1 11-7.87 1.22-20.2-4.05-24.7-16.4-3.86-10.9 3.17-19.7 10.3-27zm231 6.77c-8.03-0.212-16.1 3.55-18.7 13.9-0.731 2.97-0.684 5.94 4e-3 8.74 0.368 1.5-0.534 2.86-1.86 3.4l-29.5-7.17c-1.7-0.414-3.41 0.593-3.81 2.25l-6.74 27.8c-0.643 2.42 1.07 4.97 4.08 4.18 6.86-2.24 15.2-0.729 22 6.37 6.98 9.35 3.7 23.3-6.94 28.4-9.3 3.18-17.4 0.666-22.5-4.48-0.554-0.625-4.48-3.25-5.54 1.82l-6.84 27.8c-0.413 1.64 0.63 3.32 2.34 3.74l29.5 7.26c0.928 1.08 1.11 2.7 0.0879 3.86-1.9 2.16-3.31 4.78-4.03 7.74-5.11 22.3 22.3 29.4 31.8 20.5 7.39-6.9 7.46-13.6 5.86-20.1-0.362-1.46 0.416-2.77 1.63-3.37 0 0 19 4.89 29.3 7.21 3.79 0.85 4.18-3.02 4.18-3.02l6.42-26.5c0.801-1.83 3.25-2.52 4.86-1.14 2.27 1.95 5.03 3.42 8.15 4.18 10.6 2.59 21.2-3.75 23.4-14.1 2.76-10.2-3.72-20.8-14.3-23.3-3.14-0.752-6.26-0.725-9.17-0.0469-2.07 0.486-3.92-1.26-3.79-3.26l6.51-26.5c0.414-2.12 0.381-3.91-2.32-4.61l-29.4-7.12c-0.814-1.08-0.883-2.62 0.105-3.74 4.39-5 6.74-12.4 3.27-20.9-2.25-5.55-10.2-9.74-18.2-9.96zm-157 65.2c-8.76 9.11-13.8 14.2-19.5 19.7 4.3 1.98 8.63 4.49 11.2 8.59 10.2 17.2-0.0157 32.5-13.6 35.3-6.19 1.34-12.9 0.0576-18.1-3.52-6.64-4.2-8.44-11.6-8.99-10.9-6.26 6.32-12.3 12.9-18.9 18.8 6.71 7.09 13.9 13.7 20.2 21.2 0.952 4.64-2.69 5.58-5.93 7.23-10.9 5.63-11.7 21.5-1.25 29 9.43 6.79 16.5 2.46 19.4 0.553 3.24-2.13 5.64-5.44 6.71-9.16 0.818-2.11 3.19-3.31 5.39-3 7.67 6.68 14.9 14.6 22.2 21.8 1.02 0.803 2.25-0.135 2.94-0.92 6.26-6.31 12.5-12.6 18.8-18.9 2.18-1.66 5.63-1.16 7.19 1.1 3.21 7.61 8.54 13.1 17.3 13.6 10.6 0.217 19.7-10.3 16.9-21.4-1.43-5.94-6.16-10.9-12-12.7-2.58-0.868-3.96-4.02-2.99-6.53 0.679-2.07 7.95-7.94 18.8-19.5 1.92-1.83 2.55-2.72 0.553-4.68-6.94-6.88-13.9-13.8-20.8-20.6-0.718-4.57 2.86-5.43 6.06-7.07 11.7-6.02 12-23-0.219-29.9-9.11-5.39-21.5-1.27-24.7 9.58-0.89 2.19-3.46 3.33-5.72 2.84-8.81-7.94-20.5-20.4-20.9-20.5zm-161-16.3-22.2 22.2c7.11 2.15 9.46 4.28 11.9 10.9l21.6-21.6z" style="fill-opacity:.5;fill:#fff"/>
</svg>
