<?xml version="1.0" encoding="UTF-8"?>
<svg width="512" height="512" version="1.1" viewBox="0 0 512 512" xmlns="http://www.w3.org/2000/svg">
 <path d="m0.838 223 510-4v104c0 72.1-119 153-255 153-141 0-255-78.7-255-153z" fill="#4467ae"/>
 <path d="m75.5 91.9c99.5-74.2 261-74.2 361 0 99.5 74.2 99.5 195 0 269-99.5 74.2-261 74.2-361 0-99.5-74.2-99.5-195 0-269z" fill="#5c84db"/>
 <path d="m179 309 22.9 17.1-69.7-7.51-8.72-53 22.9 17.1 59.1-44 32.6 26.5zm154-166-22.9-17 69.7 7.51 8.72 53-22.9-17.1-59.1 44-32.6-26.4zm-154 0.0519 22.9-17-69.7 7.51-8.72 53 22.9-17.1 59.1 44 32.6-26.5zm156 166-22.9 17.1 69.7-7.51 6.72-53-22.9 17.1-59.1-44-30.6 26.4z" fill="#fff"/>
</svg>
