/* XPM */
static char * scsi_xpm[] = {
"16 16 60 1",
" 	g None",
".	g #696969",
"+	g #B4B4B4",
"@	g #B1B1B1",
"#	g #6D6D6D",
"$	g #B2B2B2",
"%	g #ADADAD",
"&	g #A5A5A5",
"*	g #5E5E5E",
"=	g #B0B0B0",
"-	g #A3A3A3",
";	g #595959",
">	g #969696",
",	g #9A9A9A",
"'	g #585858",
")	g #818181",
"!	g #616161",
"~	g #8C8C8C",
"{	g #868686",
"]	g #505050",
"^	g #797979",
"/	g #515151",
"(	g #464646",
"_	g #747474",
":	g #9C9C9C",
"<	g #7C7C7C",
"[	g #5B5B5B",
"}	g #A7A7A7",
"|	g #5D5D5D",
"1	g #6A6A6A",
"2	g #666666",
"3	g #636363",
"4	g #5F5F5F",
"5	g #575757",
"6	g #A6A6A6",
"7	g #919191",
"8	g #676767",
"9	g #404040",
"0	g #5C5C5C",
"a	g #555555",
"b	g #4E4E4E",
"c	g #737373",
"d	g #7D7D7D",
"e	g #707070",
"f	g #3E3E3E",
"g	g #2F2F2F",
"h	g #606060",
"i	g #474747",
"j	g #3B3B3B",
"k	g #4B4B4B",
"l	g #3F3F3F",
"m	g #4F4F4F",
"n	g #545454",
"o	g #3C3C3C",
"p	g #373737",
"q	g #414141",
"r	g #454545",
"s	g #363636",
"t	g #353535",
"u	g #313131",
"        .       ",
"       +@#      ",
"      $@%&*     ",
"     =-*;>,'    ",
"     )!   ~{]   ",
"    ^/    (_    ",
"  :<[           ",
" }-|    (1234[5 ",
" 678    9!0aa]b ",
"  cd|           ",
"   8e]    fbg   ",
"    ;hi  jkl    ",
"     mnop(o     ",
"      qrqs      ",
"       tu       ",
"                "};
