<?xml version="1.0" encoding="UTF-8"?>
<svg width="512" height="512" version="1.1" viewBox="0 0 512 512" xmlns="http://www.w3.org/2000/svg">
 <path d="m17.7 60.9 78.1-8.95 16.7-22.8 54.5 0.983 0.787-21.9c56-9.71 117-9.21 175-0.787l1.18 27.1 85.3 0.983 7.96 22.5 55.9-2.65s9.11 85.1 1.57 127c-9.54 52.6-16.5 74.3-58.2 149-41.7 75.2-144 180-178 180-43.4-0.239-132-101-178-174-46.2-73.3-53.7-104-64.4-161-7.09-37.6 0.787-115 0.787-115z" fill="#825403"/>
 <path d="m345 49v380c32.4-33.7 57.7-70.6 77-105 26.6-46.3 46.1-82.6 55.4-134 7.32-40.4-0.758-120-0.758-120l-37.9 4.47 0.357 42.4-15.8-2.79-0.328-44.5-9.09-18.9zm-15.6-28.6c-48.8-7.57-97.5-8.14-146 0.692v420c28.8 28.1 56.5 50.5 75.4 50.6 9.42-0.219 16.2-6.18 23.6-11.3 2.8-1.68 1.24-85.5 1.24-85.5l15.4 10.4s2.14 62.3 5.57 59.4c6.66-5.65 17.3-15.5 24.8-22.7zm-207 22.9-13 21.8-73.7 9.23c-0.156 0-8.45 34.1-2.48 92.7 4.45 43.7 18 80.2 18 80.2l27.7 7.86 0.0133-24 15.1-8.57 1.31 103s42.2 67 71.6 98.7v-380z" fill="#edbd71"/>
 <path d="m318 35.2c-41.3-7.74-82.6-7.15-124 0.661v97.8l28.3 0.0957-6.42 58-21.8 0.39v243c27.5 26.8 45.5 42 63.6 42.1 9-0.21 15.5-10.8 15.5-10.8l1.51-81.2 33.6-6.64s-0.537 68.8 4.28 66c5.83-4.27 5.5-13 5.5-13zm-188 21.7-13.7 21.8-71.1 7.55c-0.149 0-6.91 27.5-1.2 83.6 4.25 41.8 15.4 68.2 15.4 68.2l9.01 3.29 0.569-36.3 36.2 11.3 0.31 101s21.9 48.4 50 78.6l-0.573-340zm226 4.62 1.53 335c31.5-35.9 42.7-59.5 60.4-86.9 20.1-38.7 29.7-54.9 48-120 7-38.6 0.0372-108 0.0372-108l-16.8 5.03 0.331 43.1-36.4-3.41-1.69-45.3-7.37-20.9z" fill="#e4971e"/>
 <path d="m223 133-29.1 0.282c15.5 8.32 20.5 20.1 22.3 58.8zm10.7 337c11.3 7.48 26.3 13 40-1.25l0.762-83.1c-9.31 29.4-11.2 64.5-40.8 84.4zm123-71.6c26.3-28.8 32-40.3 49.6-70.3l-49.3-25.5zm-201 0.571-0.311-46.9-50.9-135 0.331 102c18.8 39.2 33.8 58.8 50.9 80.4zm-87.5-157 1.48-36.4-24.9-21.6c11.8 59.9 11 55.8 23.4 58.1zm399-161-20 4.63 1.23 45.9z" fill="#edab45"/>
 <path d="m262 15c1.99 54.4 8.52 110-17.5 160-18.8 39.7-36.5 81.9-33.9 127-4.36 55-7.75 110 0.547 165 2.27 1.87 4.49 3.63 6.71 5.33 0.522-36.7-10.3-72.9-3.28-110 2.32-69.3 13.9-140 45-202 25 5.38 18.8 45.1 40.4 58.4 28.4 50.5 25.1 126-0.326 210 0.325 6.04 0.717 11.2 1.19 17.1 10.3-34.9 15.5-71.2 21.4-107 5.68-47 4.81-100-26.6-139-36.4-55.8-27.6-122-27.7-185-1.92-0.0514-3.84-0.0889-5.76-0.115zm-12.6 0.0137c-1.17 0.0181-2.34 0.0485-3.51 0.0762-0.117 67.6-6.76 123-27.7 181-38.8 69.2-28.9 147-22.7 220 1.98 11.8 0.864 25.1 1.47 38 3.24 2.96 6.45 5.81 9.62 8.52 0.225-23.2-8.82-46.3-7.36-69.8-0.164-44.3 2.81-88.6 5.04-133 7.05-51 39.8-94.6 43.1-146 3.93-32.8 3.09-65.8 2.01-98.7zm-12.2 0.283c-1.12 0.0496-2.23 0.162-3.35 0.221-4.58 59.2-10.4 119-40.8 171-4.07 8.89-7.36 17.9-10.1 27v71.7c3.47-39.1 12-77.6 27.8-114 16.6-50.6 23.5-104 26.5-157zm49 0.682c-0.245 36.6 4.17 73.3 1.57 110 4.73 43.6 30.8 81.3 41.2 123l-2e-3 -22.5c-12.7-41.9-36.6-81.6-32.8-127-0.939-27.7 0.313-55.5-0.666-83.1-3.09-0.269-6.17-0.474-9.26-0.682zm-64.7 0.352c-1.25 0.104-2.51 0.205-3.76 0.32-2.84 24.7-3.29 49.9-12.7 73.4-5.95 22.1-13.5 43.7-22.1 64.9v19.5c9.01-23.2 19.1-46.1 25.8-70 6.96-28.9 10.1-58.5 12.8-88zm-17.4 1.84c-2.07 0.263-4.15 0.55-6.22 0.846-3.42 23.1-5.83 46.4-14.9 68v24.9c10.3-30.2 16.3-62 21.1-93.8zm111 0.598c0.165 79.3 6.8 134 13.9 178l-2e-3 -108c-2.63-22.9-5.07-45.9-6.5-68.9-2.48-0.353-4.95-0.702-7.43-1.02zm-122 1.02c-1.3 0.202-2.6 0.4-3.89 0.615-1.53 11.2-3.3 22.3-6.1 33v12.8c5.06-14.8 8.03-30.5 10-46.3zm-71 23.8-1.98 3.32c6.65 20.2 16.7 38.1 36.2 38.6 4.24-2.32 7.58-5.23 10.3-8.5v-16.6c-2.66 4.79-5.63 9.44-9.02 13.9-19.7 10.1-27-10.8-32.4-30.6zm10.8 0.223c4.45 7.67 9.84 14.8 16.4 21.2 7.63 3.57 14.1-8.81 17.4-18.2l-1.8-0.469c-10.8 7.32-19.7 4.69-26.7-2.38zm228 5.86c0.169 32.8 1.46 65.6 0.285 98.3 1.53 81.2 10.8 163 3.11 244-2.66 3.72-4.53 13.2-5.09 21.7 3.47-3.95 6.86-7.93 10.1-11.9 4.46-117-0.635-235-1.06-352zm44 1.07c-4.8 41.3-12.5 76.2-15.9 110-8.3 67.7 1.06 135 8.47 203 3.06-4.53 6.03-9.05 8.88-13.6-7.62-49.2-17.9-98.2-14.6-148 1.63-53 11.3-74.3 18-151zm9.33 0.877-8.6 82.6c-13.8 63.7-9.59 132 15 192 3.49-5.58 5.97-9.9 8.07-14.1-3.75-26.3-9.19-52.4-15.8-78.1-8.68-55 3.24-109 10.1-164-2.8-6.15-5.83-12.3-8.78-18.4zm-299 4.08-1.78 2.99c8.13 22.1 20 42.6 37 59.6 6.42-5.8 11.8-12.2 16.5-19v-9.47c-15.1 20.8-25.2 18-51.8-34.1zm-9.14 10.1-9.2 1.15c2.52 8.53 5.07 17 7.33 25.5 10.7 30.6 27.4 59 47.9 84 5.53-8.16 10.4-16.6 14.8-25.2v-28.8c-12.5 13.2-30.2 16.7-38.9-9.18-9.19-15-16.5-30.9-22-47.5zm-23.6 2.95-6.24 0.781c11.7 53.5 32.3 105 57.7 154 20.2 57.4 11.2 118 13.9 178 4.52 5.85 8.92 11.2 13.2 16.2-6.48-63.2-3.49-126 5.74-189 0.0271-0.143 0.0702-0.281 0.0976-0.424v-41.7c-7.13 22.4-11.4 48.9-17.1 57.5-7.59-36.2-29.8-67.3-44-101-11.3-23.5-18.6-48.4-23.4-73.8zm390 2.07-8.65 1.02c2.02 17.8 9.57 50.3 17 67l-1.69-42.2c-3.73-9.35-7.9-19.1-6.65-25.6-0.0194-0.079-0.0297-0.159-0.0488-0.238zm-424 2.25-2.29 0.287c0.987 6.42 1.86 12.8 2.35 19.2 18.7 69.8 60.4 134 61.7 208 1.72 17.8 3.1 35.2 4.03 53.1 3.75 5.58 7.15 10.6 11.6 17-1.37-77.2-15.1-156-55-223-11.2-23.7-18.1-48.8-22.4-74.5zm404 0.0898-10.8 1.27c-0.778 3.83-1.7 7.63-2.63 11.4l0.264 31.3-9.31-1.64c-1.68 4.47-3.45 8.92-5.41 13.3-15.3 55-8.89 114 13.8 166 2.58-4.76 5.05-9.49 7.44-14.2-10.8-36.1-28.2-71.8-16.6-110 7.11-32.6 18.1-65 23.2-98.1zm-420 29.8c-0.511 7.11-0.884 15.2-0.844 24.8 6.74 17.3 18.7 33.1 32.1 45.3 8.18 18.3 14.2 37.3 18.9 56.5l5.81-3.3c-8.82-34.3-22.5-67.3-44.1-95.7-4.88-8.73-9.04-18-11.8-27.7zm0.109 49c0.326 4.99 0.643 9.98 1.2 15.4 0.01 0.0981 0.027 0.189 0.0371 0.287 12 27.5 41.5 47.9 39.2 80.5l0.957 5.71 5.47 1.55c0.0058-5.07-6.14-32.3-7.65-38.6-5.38-1.07-10.9-39.9-24.8-51.1-4.21-5.16-9.07-9.8-14.4-13.7zm230 28c-32.5 57.9-35 123-39 181-0.17 39.4 2.41 78.5 4.93 118 1.36 0.912 2.71 1.81 4.03 2.63-1.42-32.4-7.15-64.7-2.84-97.1 1.43-55.7 4.73-122 28.2-173 35.3 20.5 35.2 45.6 44.1 67.6 9.72 41 0.601 82.2-8.49 123l6.11 4.12c23.2-92.9 17.1-170-20.7-195-5.94-7.01-8.02-26.7-16.3-30.7zm-224 21.2c1.41 6.84 2.89 13.1 4.36 18.7 5.91 9.58 11.3 19.5 15.6 29.7l8.25 2.34-0.252-6.95c-4.85-16.6-13.7-33.7-28-43.8zm306 29.4v65.2c1.85 19.5 2.26 39.3 0 61.7v50.1c12.2-55.1 6.72-119 0-177zm-81.7 4.73c-33.1 55.2-22.6 122-22.2 183 1.4 23.6 3.22 47.2 4.69 70.8l12.9 2.83c-2.55-31.7 8.27-25.2-8.45-97.2-0.388-36.9-13.7-76.3 4.2-111 16.5-39.2 36.2 34.1 33.7 55-6.24 30.2-24 57.7-20.9 89.8 1.62 20.9-3.6 42.7-4.01 62.7 8.92-3.27 12-4.97 16-7.87-0.433-5.27-0.762-10-0.334-12.7-0.398-21.7 1.97-43.1 4.92-64.4l1.33-9.7c3.36-23.3 7.07-46.5 8.38-69.9 0.0136-32.4-9.06-65.8-30.2-90.9zm-169 22.2c0.731 23.1-0.328 45.9 1.51 68.9 0.465 0.736 3.16 4.94 7.78 12-2.52-27.2-4.58-54-9.29-80.9zm170 28.1c-8.05 7.07-9.58 16.5-11.2 25.8 3.71-5.36 7.92-15 11.1-15.5 5.35 0.0534 13 19 16.9 29.8-1.54-10.6-6.94-34.5-16.7-40.2zm-81.1 95.2v60.1c2.42 2.36 4.81 4.6 7.21 6.87-1.75-22.5-5.39-44.5-7.21-67zm146 0.145c-4.66 27.6-12 54.8-21.5 81.1 3.48-3.05 7.11-6.3 11.2-10.1 5.21-12 7.89-24.5 10.3-37.3zm110-202c-8.23 19 0.418 69.6 11.9 87.6 0.496-0.47 9.59-18.8 14.5-38.1 4.89-19.3 5.57-39.6 5.79-41.6-6.38 16.6-12.1 44.8-19.2 47.9-9.96-12.2-11.9-38.7-12.9-55.8zm-175 197c-7.14-8.47-8.24-36-12.4-47.2 2.32 14.5 1.62 44.7 9.79 65.4 3.53 0.852 14.8-28.9 15.6-43.9-5.2 9.99-5.89 21.6-13 25.7z" style="fill-opacity:.5;fill:#edb55d"/>
 <path d="m198 40 1.22 83.7 33.9 0.081-9.88 67.6 27.5-17.5c-0.414-62.8-8.77-85.4-52.7-134zm-75.7 41c4 27.3-9.62 40.6 25.7 93l0.405-102zm318 165c15.6-27.5 21.8-73.5 21.7-93.6l-23.5 12.8zm-239 23.1 9.78-43.3 14.9 11.8-5.13-37.2-18.7-0.0912zm73.3 107 35-7.7 1.24-82.4c-17.5 19.1-30.9 50.9-36.2 90.1zm-48.3 77.5c-2.84-56.1-5.32-112-25-158l0.408 135s13.7 16.6 24.6 23zm82.9-267-0.781-142-48.6-3.94c34.6 42 41.2 84.4 49.4 146z" fill="#ba7912"/>
</svg>
