<?xml version="1.0" encoding="UTF-8"?>
<svg width="512" height="512" version="1.1" viewBox="0 0 512 512" xmlns="http://www.w3.org/2000/svg">
 <path d="m17.7 60.9 78.1-8.95 16.7-21.5 57 0.983 0.787-23.2c56-9.71 113-9.21 171-0.787l1.18 27.1 86.7 0.983 7.96 22.5 55.9-2.65s9.11 85.1 1.57 127c-9.54 52.6-16.5 74.3-58.2 149-41.7 75.2-144 180-178 180-43.4-0.239-132-101-178-174-46.2-73.3-53.7-104-64.4-161-7.09-37.6 0.787-115 0.787-115z" fill="#98630e"/>
 <path d="m343 49v385c32.4-33.7 59.8-73.6 79.1-108 40.6-73 45.8-84.8 55.1-136 7.32-40.4-0.758-120-0.758-120l-37.9 4.47 0.357 42.4-15.8-2.79-0.328-44.5-9.09-18.9zm-13.8-28.6c-48.8-7.57-97.5-8.14-146 0.692v420c28.8 28.1 56.5 50.5 75.4 50.6 9.42-0.219 16.2-6.18 23.6-11.3 2.8-1.68 1.24-85.5 1.24-85.5l15.4 10.4s2.14 62.3 5.57 59.4c6.66-5.65 17.3-15.5 24.8-22.7zm-207 22.9-13 21.8-73.7 9.23c-0.156 0-8.45 34.1-2.48 92.7 4.45 43.7 18 80.2 18 80.2l27.7 7.86 0.0133-24 15.1-8.57 1.31 103s44 67 73.4 98.7v-380z" fill="#edbd71"/>
 <path d="m318 35.2c-41.3-7.74-82.6-7.15-124 0.661v97.8l28.3 0.0957-6.42 58-21.8 0.39v243c27.5 26.8 45.5 42 63.6 42.1 9-0.21 15.5-10.8 15.5-10.8l1.51-81.2 33.6-6.64s-0.537 68.8 4.28 66c5.83-4.27 5.5-13 5.5-13zm-188 21.7-13.7 21.8-71.1 7.55c-0.149 0-6.91 27.5-1.2 83.6 4.25 41.8 15.4 68.2 15.4 68.2l9.01 3.29 0.569-36.3 36.2 11.3 0.31 101s23.7 48.4 51.8 78.6l-0.573-340zm224 4.62 1.53 343c31-32.2 43.8-58.5 62.2-91.7 38.8-69.8 39.1-73.8 48-123 7-38.6 0.0372-108 0.0372-108l-16.8 5.03 0.331 43.1-36.4-3.41-1.69-45.3-7.37-20.9z" fill="#e4971e"/>
 <path d="m198 40 1.22 83.7 33.9 0.081-9.88 67.6 27.5-17.5c-0.414-62.8-8.77-85.4-52.7-134zm-75.7 41c4 27.3-9.41 40.6 25.9 93l0.723-95.8zm315 185c15.6-27.5 25-93.9 24.9-114l-24.8 18.5zm-236 2.71 9.78-43.3 14.9 11.8-5.13-37.2-18.7-0.0912zm73.3 107 35-7.7 1.24-82.4c-17.5 19.1-30.9 50.9-36.2 90.1zm-48.3 77.5c-2.84-56.1-5.32-112-25-158l0.408 135s13.7 16.6 24.6 23zm82.9-267-0.781-142-48.6-3.94c34.6 42 41.2 84.4 49.4 146z" fill="#c07d12"/>
 <path d="m223 133-29.1 0.282c-0.385 24.5 0.549 40.4 22.3 58.8zm10.7 337c11.3 7.48 26.3 13 40-1.25l0.762-83.1c-9.31 29.4-11.2 64.5-40.8 84.4zm121-63.8c26.3-28.8 35.1-43.8 52.7-73.8l-52.4-29.8zm-197-7.22-0.311-46.9-52.7-135 0.331 102c18.8 39.2 35.6 58.8 52.7 80.4zm-89.3-157 1.48-36.4-24.9-21.6c11.8 59.9 11 55.8 23.4 58.1zm399-161-20 4.63 1.23 45.9z" fill="#edac45"/>
</svg>
