<?xml version="1.0" encoding="iso-8859-1"?>
<!-- Uploaded to: SVG Repo, www.svgrepo.com, Generator: SVG Repo Mixer Tools -->
<svg version="1.1" id="Layer_1" xmlns="http://www.w3.org/2000/svg" xmlns:xlink="http://www.w3.org/1999/xlink" 
	 viewBox="0 0 512 512" xml:space="preserve">
<path id="SVGCleanerId_0" style="fill:#FFC36E;" d="M183.295,123.586H55.05c-6.687,0-12.801-3.778-15.791-9.76l-12.776-25.55
	l12.776-25.55c2.99-5.982,9.103-9.76,15.791-9.76h128.246c6.687,0,12.801,3.778,15.791,9.76l12.775,25.55l-12.776,25.55
	C196.096,119.808,189.983,123.586,183.295,123.586z"/>
<g>
	<path id="SVGCleanerId_0_1_" style="fill:#FFC36E;" d="M183.295,123.586H55.05c-6.687,0-12.801-3.778-15.791-9.76l-12.776-25.55
		l12.776-25.55c2.99-5.982,9.103-9.76,15.791-9.76h128.246c6.687,0,12.801,3.778,15.791,9.76l12.775,25.55l-12.776,25.55
		C196.096,119.808,189.983,123.586,183.295,123.586z"/>
</g>
<path style="fill:#EFF2FA;" d="M485.517,70.621H26.483c-4.875,0-8.828,3.953-8.828,8.828v44.138h476.69V79.448
	C494.345,74.573,490.392,70.621,485.517,70.621z"/>
<rect x="17.655" y="105.931" style="fill:#E1E6F2;" width="476.69" height="17.655"/>
<path style="fill:#FFD782;" d="M494.345,88.276H217.318c-3.343,0-6.4,1.889-7.895,4.879l-10.336,20.671
	c-2.99,5.982-9.105,9.76-15.791,9.76H55.05c-6.687,0-12.801-3.778-15.791-9.76L28.922,93.155c-1.495-2.99-4.552-4.879-7.895-4.879
	h-3.372C7.904,88.276,0,96.18,0,105.931v335.448c0,9.751,7.904,17.655,17.655,17.655h476.69c9.751,0,17.655-7.904,17.655-17.655
	V105.931C512,96.18,504.096,88.276,494.345,88.276z"/>
<path style="fill:#FFC36E;" d="M485.517,441.379H26.483c-4.875,0-8.828-3.953-8.828-8.828l0,0c0-4.875,3.953-8.828,8.828-8.828
	h459.034c4.875,0,8.828,3.953,8.828,8.828l0,0C494.345,437.427,490.392,441.379,485.517,441.379z"/>
<g>
	<path style="fill:#FFF5D7;" d="M361.931,273.655c-14.519,0-27.663,5.852-37.231,15.313c12.22,15.148,19.576,34.376,19.576,55.308
		h61.793c4.875,0,8.828-3.953,8.828-8.828v-8.828C414.897,297.368,391.183,273.655,361.931,273.655z"/>
	<circle style="fill:#FFF5D7;" cx="361.931" cy="220.69" r="35.31"/>
</g>
<g>
	<path style="fill:#FFEBBE;" d="M353.103,220.69c0-15.971,8.003-29.308,18.916-33.671c-3.217-0.964-6.558-1.64-10.089-1.64
		c-19.501,0-35.31,15.809-35.31,35.31S342.43,256,361.931,256c3.531,0,6.872-0.675,10.089-1.64
		C361.107,249.997,353.103,236.66,353.103,220.69z"/>
	<path style="fill:#FFEBBE;" d="M361.931,273.655c-14.519,0-27.663,5.852-37.231,15.313c4.755,5.894,8.74,12.416,11.87,19.411
		c3.741-17.105,17.311-30.52,34.566-33.871C368.141,273.981,365.077,273.655,361.931,273.655z"/>
</g>
<g>
	<path style="fill:#FFF5D7;" d="M187.3,288.967c-9.568-9.461-22.712-15.311-37.231-15.311c-29.252,0-52.966,23.713-52.966,52.966
		v8.828c0,4.875,3.953,8.828,8.828,8.828h61.793C167.724,323.343,175.081,304.115,187.3,288.967z"/>
	<circle style="fill:#FFF5D7;" cx="150.069" cy="220.69" r="35.31"/>
</g>
<g>
	<path style="fill:#FFEBBE;" d="M123.586,336.919v-19.126c0-21.482,15.36-39.338,35.688-43.286
		c-2.995-0.526-6.059-0.852-9.205-0.852c-29.252,0-52.966,23.713-52.966,52.966v8.828c0,4.875,3.953,8.828,8.828,8.828h25.012
		C126.88,344.276,123.586,340.982,123.586,336.919z"/>
	<path style="fill:#FFEBBE;" d="M141.241,220.69c0-15.971,8.003-29.308,18.916-33.671c-3.217-0.964-6.558-1.64-10.089-1.64
		c-19.501,0-35.31,15.809-35.31,35.31S130.568,256,150.069,256c3.531,0,6.872-0.675,10.089-1.64
		C149.245,249.997,141.241,236.66,141.241,220.69z"/>
</g>
<g>
	<path style="fill:#FFFFFF;" d="M314.85,370.759h-117.7c-6.5,0-11.77-5.27-11.77-11.77v-14.712
		c0-39.002,31.618-70.621,70.621-70.621l0,0c39.003,0,70.621,31.618,70.621,70.621v14.712
		C326.621,365.489,321.351,370.759,314.85,370.759z"/>
	<circle style="fill:#FFFFFF;" cx="256" cy="211.862" r="44.138"/>
</g>
<g>
	<path style="fill:#FFF5D7;" d="M220.69,360.95v-28.444c0-28.642,20.481-52.451,47.583-57.715
		c-3.992-0.702-8.078-1.137-12.273-1.137c-39.002,0-70.621,31.618-70.621,70.621v14.712c0,6.5,5.269,11.77,11.77,11.77h33.348
		C225.081,370.759,220.69,366.367,220.69,360.95z"/>
	<path style="fill:#FFF5D7;" d="M244.966,211.862c0-19.964,10.005-36.634,23.646-42.088c-4.021-1.206-8.198-2.05-12.611-2.05
		c-24.377,0-44.138,19.761-44.138,44.138C211.862,236.238,231.623,256,256,256c4.414,0,8.59-0.844,12.611-2.05
		C254.97,248.495,244.966,231.825,244.966,211.862z"/>
</g>
</svg>