<?xml version="1.0" encoding="UTF-8"?>
<svg width="512" height="512" version="1.1" viewBox="0 0 512 512" xmlns="http://www.w3.org/2000/svg">
 <defs>
  <linearGradient id="a" x1="166" x2="266" y1="89" y2="457" gradientUnits="userSpaceOnUse">
   <stop style="stop-color:#ffd452" offset="0"/>
   <stop style="stop-color:#f0b300" offset="1"/>
  </linearGradient>
 </defs>
 <path d="m183 125h-127c-6.66 0-12.7-3.76-15.7-9.72l-12.7-25.5 12.7-25.5c2.98-5.96 9.06-9.72 15.7-9.72h127c6.66 0 12.7 3.76 15.7 9.72l12.7 25.5-12.7 25.5c-2.98 5.96-9.06 9.72-15.7 9.72z" fill="#ffc36e"/>
 <path id="b" d="m194 125h-147c-6.66 0-12.7-3.76-15.7-9.72l-12.7-25.5 12.7-25.5c2.98-5.96 9.06-9.72 15.7-9.72h147c6.66 0 12.7 3.76 15.7 9.72l12.7 25.5-12.7 25.5c-2.98 5.96-9.06 9.72-15.7 9.72z" fill="#f59a00"/>
 <path d="m485 76.9h-461c-4.86 0-8.79 3.93-8.79 8.79v38.3h479v-38.3c0-4.86-3.93-8.79-8.79-8.79z" style="fill:#eff2fa;stroke-width:2;stroke:#b1bfe7"/>
 <rect x="18.6" y="107" width="475" height="17.6" fill="#e1e6f2"/>
 <path d="m493 88.9h-276c-3.33 0-6.37 1.88-7.87 4.86l-10.3 20.6c-2.98 5.96-9.06 9.72-15.7 9.72h-127c-6.66 0-12.7-3.76-15.7-9.72l-10.3-20.6c-1.49-2.98-4.53-4.86-7.87-4.86h-3.36c-9.71 0-17.6 7.87-17.6 17.6v334c0 9.71 7.87 17.6 17.6 17.6h475c9.71 0 17.6-7.87 17.6-17.6v-334c0-9.71-7.87-17.6-17.6-17.6z" fill="url(#a)"/>
 <path d="m485 440h-457c-11.5 0-11.5-17.6 0-17.6h457c11.5 0 11.5 17.6 0 17.6z" fill="#f59a00"/>
 <path d="m150 274c-29.2 0-52.8 23.6-52.8 52.8v8.79c0 4.86 3.93 8.79 8.79 8.79h61.6c0-20.8 7.33-40 19.5-55.1l-0.0293-0.0606c-9.53-9.42-22.6-15.2-37.1-15.2zm211 0.238-0.0293 0.0606c-14.4 0-27.6 5.83-37.1 15.2 12.2 15 19.5 34.3 19.5 55.1h61.6c4.86 0 8.79-3.93 8.79-8.79v-8.79c0-29.2-23.6-52.8-52.8-52.8z" style="fill:#fff8e5;stroke-width:4;stroke:#f59a00"/>
 <circle cx="362" cy="221" r="35.2" style="fill:#fff8e5;stroke-width:4;stroke:#f59a00"/>
 <circle cx="150" cy="221" r="35.2" style="fill:#fff8e5;stroke-width:4;stroke:#f59a00"/>
 <path d="m150 188c-17.4 0-33.2 13.9-33.2 33.5s15.5 33.4 33.2 33.4c3.52 0 6.84-0.75 10.1-1.71-10.9-4.34-18.8-15.7-18.8-31.7v-0.0215c0-15.9 7.97-27.3 18.8-31.7-3.21-0.96-6.53-1.75-10.1-1.75zm211 0.0215c-17.9 0-33.2 13.9-33.2 33.5s14.8 33.5 33.2 33.5c3.52 0 6.84-0.672 10.1-1.63-10.9-4.34-18.8-15.8-18.8-31.8v-0.121c0-15.9 7.97-27.4 18.8-31.8-3.21-0.96-6.53-1.63-10.1-1.63zm0.199 87.2c-14.4 0-25.1 4.4-34.7 13.8 4.74 5.87 8.49 12.2 11.7 19.1 3.73-17 15-28.6 32.3-31.9-2.99-0.525-6.03-1.07-9.16-1.07l-0.0996-0.0293zm-211 0.246c-25.9 0-51.8 20.1-51.8 49.2v8.79c0 4.96 1.15 8.7 8.96 8.69l23.8-0.0469c-4.04-1e-3 -7.33-3.13-7.33-7.17l-0.0293 0.0469v-17.3c0-21.4 15.3-37.4 35.6-41.3-2.99-0.524-6.03-0.85-9.16-0.85z" fill="#ffebbe"/>
 <path d="m315 371h-118c-6.47 0-11.8-5.25-11.8-11.8v-14.6c0-38.8 31.5-70.3 70.3-70.3s70.3 31.5 70.3 70.3v14.6c-1e-3 6.47-5.25 11.8-11.8 11.8z" style="fill:#fff;stroke-width:4;stroke:#f59a00"/>
 <circle cx="256" cy="212" r="43.9" style="fill:#fff;stroke-width:4;stroke:#f59a00"/>
 <path d="m256 170c-23.3 0-42.1 19.4-42.1 43.1 0 20.6 19.1 41.2 42.1 41.2 4.39 0 8.55-0.903 12.5-2.08-13.5-5.34-23.5-19.5-23.5-39.1 0.0133-19.5 9.97-35.8 23.5-41.1-4-1.18-8.17-2.01-12.5-2.01zm0.299 106c-38.8 0-69 29-69 67.1v14.4c0 6.02 2.61 11.3 11.9 11.3h31.6c-5.4 2e-3 -9.77-4.1-9.77-9.4v-27.8c0-28 20.5-49.3 47.5-54.5-3.97-0.687-8.05-1.11-12.2-1.11z" fill="#fff5d7"/>
</svg>
