<?xml version="1.0" encoding="UTF-8"?>
<svg width="512" height="512" version="1.1" viewBox="0 0 512 512" xmlns="http://www.w3.org/2000/svg">
 <path d="m141 165c-197 16.7-167 251-24.6 270 90.1 11.9 182 2.29 272 2.38 162 7.08 170-251-12.2-236 8.33-162-220-160-236-35.2z" fill="#44aff2"/>
 <path d="m141 162c-97.6 9.54-112 52.5-114 110-1.45 45 41.4 124 118 127 66.7 2.54 157 2.22 252 3.69 178 3.38 129-227-20.9-205 11.2-165-226-158-235-35.2z" fill="#69bff5"/>
 <path d="m162 253 34.1 16.1c10.8-23 33.9-37.7 59.2-37.9 15.9 0.039 31.2 5.82 43.1 16.2l-33 27.9 92.4 15-0.0448-92.9-30.3 25.6c-19.2-18.9-42-29.5-75.1-29.4-33.3 0.122-73 23.1-90.4 59.2zm-9.19 42 0.0448 92.9 30.3-25.6c19.2 18.9 42.8 29.5 76.1 29.4 33.3-0.0812 72.5-23 89.4-59.2l-34.1-16.1c-10.8 23-33.9 37.7-59.2 37.9-15.9-0.039-31.2-5.82-43.1-16.2l33-27.9z" fill="#44aff2"/>
 <path d="m154 241 34.1 16.1c10.8-23 33.9-37.7 59.2-37.9 15.9 0.039 31.2 5.82 43.1 16.2l-33 27.9 92.4 15-0.0448-92.9-30.3 25.6c-19.2-18.9-42-29.5-75.1-29.4-33.3 0.122-73 23.1-90.4 59.2zm-9.19 42 0.0448 92.9 30.3-25.6c19.2 18.9 42.8 29.5 76.1 29.4 33.3-0.0812 72.5-23 89.4-59.2l-34.1-16.1c-10.8 23-33.9 37.7-59.2 37.9-15.9-0.039-31.2-5.82-43.1-16.2l33-27.9z" fill="#fff"/>
</svg>
