<?xml version="1.0" encoding="UTF-8"?>
<svg width="512" height="512" version="1.1" viewBox="0 0 512 512" xmlns="http://www.w3.org/2000/svg">
 <defs>
  <linearGradient id="a" x1="217" x2="289" y1="354" y2="463" gradientUnits="userSpaceOnUse">
   <stop style="stop-color:#ff0000" offset="0"/>
   <stop style="stop-color:#990000" offset="1"/>
  </linearGradient>
 </defs>
 <path d="m216 21.5-1.1 303s-28.9 29.5-37 48.2c-9.77 20.1-10.3 45.7-1.06 66.2 13.6 32.1 43.8 50.2 84.1 49.5 30.1-0.882 60.1-21 71.3-49.1 9.88-22.9 9.75-51.2-3.25-72.8-8.92-15.6-36.4-43.4-36.4-43.4l-1.32-301z" fill="#dbf0ff"/>
 <path d="m198 61.5c-0.189 86.1-0.413 172-0.53 258-49.1 26.6-63.3 94.6-33.3 140 23.1 38.5 73 59.8 118 47.6 50.5-11.6 85.7-59.1 79.5-113-3.78-30.2-17.7-57-48.1-75.2-0.0411-18.2 4e-3 -36.4 0-54.6h48.7v-25.2h-48.7v-56.8h48.5v-25.2h-48.5c0-19.1-0.0411-38.2-0.0494-57.3h48.5v-25.2h-48.5v-17.4c-0.37-39.1-18.2-55.2-56.8-56.1s-60.3 22.7-58.7 60.4zm88.1 11.1c0.0987 87.2 0.177 175 0.234 262 34.9 9.7 60.7 52.3 47.2 95.8-11.3 37.6-48.9 63.4-96.3 53.8-52.8-12.3-73.7-58.4-60.4-100 7.03-20.6 18.9-38.1 47.8-49.8 1-88.1 0.0494-174 0.731-262 0.0412-31.7 5.06-46.7 29.9-46.9 24.9 0.812 30.8 13.9 30.8 47.4z" fill="#003d65"/>
 <path d="m236 342c-30.7 8.46-53.1 39.2-49.7 70.3 1.99 34.9 36.1 64.2 72 61.5 36.3-0.566 67.9-33.6 65.7-68.9-3e-3 -28.7-21.8-55-49.8-62.8v-129h-38.2z" fill="url(#a)"/>
</svg>
