<?xml version="1.0" encoding="iso-8859-1"?>

<!DOCTYPE svg PUBLIC "-//W3C//DTD SVG 1.1//EN" "http://www.w3.org/Graphics/SVG/1.1/DTD/svg11.dtd">
<!-- Uploaded to: SVG Repo, www.svgrepo.com, Generator: SVG Repo Mixer Tools -->
<svg version="1.1" id="_x34_" xmlns="http://www.w3.org/2000/svg" xmlns:xlink="http://www.w3.org/1999/xlink" 
	 viewBox="0 0 512 512"  xml:space="preserve">
<g>
	<g>
		
			<rect x="267.494" y="61.466" transform="matrix(0.7071 0.7071 -0.7071 0.7071 203.459 -232.61)" style="fill:#FFFFFF;" width="230.042" height="135.651"/>
		<g>
			
				<rect x="351.111" y="58.442" transform="matrix(0.7071 0.7071 -0.7071 0.7071 160.4209 -238.8464)" style="fill:#AEDDE7;" width="34.823" height="31.558"/>
			
				<rect x="420.174" y="127.505" transform="matrix(0.7071 0.7071 -0.7071 0.7071 229.4834 -267.4529)" style="fill:#AEDDE7;" width="34.823" height="31.558"/>
		</g>
		
			<rect x="193.173" y="137.397" transform="matrix(0.7071 0.7071 -0.7071 0.7071 223.8628 -183.3509)" style="fill:#F9F3AD;" width="280.165" height="82.309"/>
		<path style="fill:#EB6B6B;" d="M48.967,462.84L48.967,462.84c-63.098-63.098-63.098-166.348,0-229.446L218.533,63.828
			l229.446,229.446L278.412,462.84C215.053,526.2,112.326,526.2,48.967,462.84z"/>
		<path style="opacity:0.1;fill:#040000;" d="M447.978,293.274L275.614,465.638c-61.805,61.805-162.022,61.827-223.85,0
			l-5.596-5.596C5.764,419.637-8.115,362.376,4.51,310.398c0.627,39.711,16.005,79.22,46.135,109.35l5.596,5.596
			c61.827,61.827,162.045,61.805,223.85,0L430.07,275.366L447.978,293.274z"/>
		<g>
			<g>
				<circle style="fill:#FFFFFF;" cx="151.435" cy="362.324" r="26.13"/>
			</g>
			<g>
				
					<rect x="204.607" y="230.204" transform="matrix(0.7071 0.7071 -0.7071 0.7071 276.4423 -59.1681)" style="fill:#FFFFFF;" width="10.074" height="147.821"/>
			</g>
			<g>
				<polygon style="fill:#FFFFFF;" points="242.129,232.074 296.163,217.596 281.684,271.63 				"/>
			</g>
			<g>
				<polygon style="fill:#FFFFFF;" points="168.813,339.229 164.634,275.976 192.377,248.234 198.5,254.357 173.533,279.323 
					177.454,338.658 				"/>
			</g>
			<g>
				<polygon style="fill:#FFFFFF;" points="192.506,327.52 193.077,318.879 252.411,322.8 277.378,297.833 283.501,303.956 
					255.758,331.699 				"/>
			</g>
			<g>
				<circle style="fill:#FFFFFF;" cx="195.438" cy="251.295" r="18.701"/>
			</g>
			<g>
				
					<rect x="263.367" y="283.822" transform="matrix(0.7071 0.7071 -0.7071 0.7071 294.2728 -109.9094)" style="fill:#FFFFFF;" width="32.885" height="32.885"/>
			</g>
		</g>
	</g>
	<path style="opacity:0.1;fill:#040000;" d="M432.309,277.604l29.101-29.1l-17.721-17.721l68.118-68.118l-81.332-81.332
		L48.966,462.84l2.798,2.798c51.689,51.689,130.196,60.116,190.672,25.387c0.558-0.321,1.129-0.612,1.684-0.94
		c1.189-0.703,2.351-1.467,3.526-2.203c1.046-0.656,2.106-1.28,3.139-1.962c0.731-0.483,1.44-1.013,2.166-1.509
		c3.625-2.482,7.189-5.09,10.643-7.907c0.547-0.446,1.073-0.932,1.615-1.387c3.566-2.989,7.052-6.125,10.405-9.478l172.364-172.364
		L432.309,277.604z"/>
</g>
</svg>