<?xml version="1.0" encoding="UTF-8"?>
<svg width="512" height="512" version="1.1" viewBox="0 0 512 512" xmlns="http://www.w3.org/2000/svg">
 <circle cx="256" cy="399" r="57.3" style="fill:#00a6f9;stroke-width:4;stroke:#1f88cd"/>
 <path d="m256 55.5c-93 0-180 36.6-245 103-9.85 10-9.7 26.1 0.333 36 4.96 4.86 11.4 7.29 17.8 7.29 6.59 0 13.2-2.55 18.2-7.62 55.5-56.6 130-87.7 209-87.7 79.2 0 153 31.1 209 87.7 9.85 10 26 10.2 36 0.335 10-9.85 10.2-26 0.335-36-65.2-66.4-152-103-245-103zm0 95.5c-70.3 0-138 30-185 82.4-9.4 10.5-8.54 26.6 1.92 35.9 4.86 4.37 10.9 6.52 17 6.52 6.97-9.9e-4 13.9-2.85 18.9-8.44 37.4-41.6 90.9-65.5 147-65.5 55.9 0 109 23.9 147 65.5 9.4 10.5 25.5 11.3 35.9 1.92 10.5-9.4 11.3-25.5 1.92-35.9-47-52.3-114-82.4-185-82.4zm0 95.5c-49.2 0-95.7 23.9-124 64-8.17 11.4-5.52 27.3 5.91 35.5 4.48 3.2 9.65 4.74 14.8 4.74 7.94 0 15.8-3.71 20.7-10.7 19.1-26.8 50.1-42.7 82.9-42.7s63.8 16 82.9 42.7c8.17 11.4 24.1 14.1 35.5 5.92 11.4-8.17 14.1-24.1 5.92-35.5-28.6-40.1-75.1-64-124-64z" style="fill:#00a6f9;stroke-width:4;stroke:#1f88cd"/>
 <path d="m256 87.9c-92.4 0-179 42.1-244 108 4.82 4.29 10.8 6.52 16.9 6.52 6.59 0 13.2-2.55 18.2-7.62 55.5-56.6 130-87.7 209-87.7 79.2 0 153 31.1 209 87.7 9.56 9.73 25 10.1 35 1.1-65-65.6-152-108-244-108zm0 95.5c-69.4 0-136 35.2-183 86.2 4.86 4.36 10.9 6.5 17 6.5 6.97-9.9e-4 13.9-2.85 18.9-8.44 37.4-41.6 90.9-65.5 147-65.5 55.9 0 109 23.9 147 65.5 9.39 10.4 25.5 9.33 35.9-0.0406-46.9-51-113-84.3-183-84.3zm0 95.5c-47.3 0-92 28.1-121 65.4 0.779 0.72 1.51 1.47 2.4 2.11 4.48 3.2 9.65 4.74 14.8 4.74 7.94 0 15.8-3.71 20.7-10.7 19.1-26.8 50.1-42.7 82.9-42.7s63.8 16 82.9 42.7c8.17 11.4 24.1 14.1 35.5 5.92 0.887-0.633 1.62-1.39 2.4-2.11-28.8-37.3-73.6-65.4-121-65.4zm-2e-3 101c-24.1 0.186-45.6 15.5-53.6 38.3 8.01 22.8 29.4 38.1 53.6 38.3 24.1-0.186 45.6-15.5 53.6-38.3-8.01-22.8-29.4-38.1-53.6-38.3z" style="fill-opacity:.2;fill:#001fd8"/>
</svg>
