<?xml version="1.0" encoding="UTF-8"?>
<svg width="512" height="512" version="1.1" viewBox="0 0 512 512" xmlns="http://www.w3.org/2000/svg">
 <path fill="#86da2f" d="m470 288c22-1.7 39 13 41 34 1.7 23-14 41-36 43-21 1.7-39-14-41-35-1.7-23 13-39 36-42z"/>
 <path fill="#24c2ff" d="m206 466c0-22 17-38 37-38s39 18 39 39c0 20-17 38-36 38-24 0-40-15-40-39z"/>
 <path fill="#ffcb12" d="m265 222c-3.3 1.7-5-0.84-5.8-3.3-31-58-22-130 33-174 14-12 41-14 53-2.5 5 4.2 5.8 9.2 6.7 15 1.7 13 4.2 25 13 35 9.2 11 21 15 34 14 12 0 23-1.7 31 12 4.2 7.5 2.5 37-4.2 43-3.3 2.5-5.8 0.84-8.4 0-19-7.5-39-7.5-59-4.2-6.7 0.84-10-0.84-10-8.4-0.84-13-3.3-24-10-35-13-23-36-23-51-2.5-13 17-16 37-19 57-3.3 18-2.5 36-1.7 54 0 0-0.84 0 0 0z"/>
 <path fill="#86da2f" d="m286 235c-1.7-2.5-0.84-5 1.7-6.7 48-43 119-52 174-9.2 14 12 23 36 16 50-3.3 5.8-7.5 8.4-13 10-12 5-23 10-30 21-7.5 11-9.2 23-5.8 37 2.5 11 6.7 23-4.2 33-5.8 5.8-34 11-42 5.8-3.3-2.5-2.5-5-1.7-8.4 2.5-21-2.5-40-10-58-2.5-6.7-1.7-10 5-12 12-3.3 23-9.2 31-18 18-18 14-40-10-50-19-8.4-39-6.7-58-5-18 0.84-36 5.8-53 11z"/>
 <path fill="#24c2ff" d="m275 256c2.5-2.5 4.2-1.7 6.7 0 55 33 84 99 58 164-6.7 17-28 33-44 29-6.7-1.7-10-5-13-9.2-7.5-10-16-19-28-23-13-4.2-25-1.7-37 5-10 5.8-20 13-33 5.8-7.5-4.2-20-30-18-38 1.7-3.3 5-3.3 8.4-3.3 21-3.3 38-13 53-27 5-4.2 9.2-4.2 13 1.7 6.7 10 15 18 26 24 22 13 43 1.7 45-23 2.5-21-5-39-12-58-7.5-17-17-33-27-48z"/>
 <path fill="#0069da" d="m248 262c-3.3 17-11 33-21 47-30 45-74 64-127 58-19-1.7-35-18-37-33-0.84-6.7 0.84-12 5-17 5.8-7.5 11-14 13-23 5-18-1.7-33-15-47-18-18-16-35 5.8-48 2.5-1.7 5.8-3.3 9.2-5 5-2.5 9.2-2.5 11 3.3 7.5 19 23 33 39 45 5.8 5 5.8 8.4 0.84 14-10 11-16 24-17 39-1.7 18 9.2 30 28 30 12 0 23-4.2 33-9.2 26-13 46-33 65-53 2.5-0.84 3.3-2.5 6.7-1.7z"/>
 <path fill="#ff4649" d="m111 86c1.7 0 5.8 0.84 10 1.7 31 5.8 50-5 60-34 6.7-19 21-25 39-15 0.84 0 0.84 0.84 1.7 0.84 19 11 19 13 7.5 29-10 13-15 28-18 44-1.7 9.2-5 11-13 7.5-13-5-28-5-42 0-16 5-23 19-18 35 6.7 21 25 30 41 41 16 11 34 17 52 24 2.5 0.84 6.7 0.84 5.8 5-0.84 2.5-4.2 2.5-7.5 2.5-38 1.7-74-4.2-103-29-28-23-48-50-44-89 2.5-13 12-22 28-24z"/>
 <path fill="#0069da" d="m43 321c-20 2.5-40-14-42-35-1.7-20 15-40 34-42 22-2.5 42 13 43 33 0.84 19-12 43-36 44z"/>
 <path fill="#ffcb12" d="m394 23c21-1.7 41 15 43 36 1.7 20-15 39-35 41-22 1.7-41-14-43-35s13-40 35-42z"/>
 <path fill="#ff4649" d="m176 39c2.5 22-13 40-35 43-19 2.5-39-13-42-32-2.5-24 11-42 33-44 21-2.5 41 13 43 33z"/>
</svg>
