<?xml version="1.0" encoding="UTF-8"?>
<svg width="512" height="512" version="1.1" viewBox="0 0 512 512" xmlns="http://www.w3.org/2000/svg">
 <path d="m180 141h149s125 45.4 125 185l-397-0.457c0-147 124-184 124-184z" fill="#fff"/>
 <path d="m128 35.1-127 221 127 221h255l127-221-127-221zm84.3 117 57.3 59.1 34 33.9 0.0425-0.0425 51.2 50.2c-4.25 2.98-8.2 5.36-12 7.31a79.8 79.8 0 0 1-10.5 4.61 57.4 57.4 0 0 1-9.03 2.36c-2.78 0.489-5.31 0.722-7.61 0.722-2.76 0-5.14-0.298-7.18-0.722a28 28 0 0 1-5.1-1.53 20.2 20.2 0 0 1-4.25-2.4l-22.6-23.2-64.6-64.6-23.4 22.4-65.2 65.3a20.7 20.7 0 0 1-4.25 2.36 27.1 27.1 0 0 1-5.04 1.55c-2.04 0.425-4.44 0.701-7.18 0.701-2.3 0-4.82-0.191-7.61-0.659a57.4 57.4 0 0 1-9.03-2.42 79.6 79.6 0 0 1-10.5-4.61 111 111 0 0 1-12-7.29zm100 16.7 97.3 97.7 29.4 28.8a111 111 0 0 1-12 7.31 79.3 79.3 0 0 1-10.5 4.61 57.3 57.3 0 0 1-9.05 2.36c-2.76 0.489-5.33 0.722-7.65 0.722-2.74 0-5.12-0.298-7.16-0.722a27.3 27.3 0 0 1-8.18-3.1c-0.701-0.425-1.06-0.765-1.13-0.85l-26.2-25.9-44.9-44.9-7.1 7.1-33.2-32.9 40.3-40.3zm-127 87.6v53.7a45.2 45.2 0 0 1-7.56-0.744 58.8 58.8 0 0 1-8.97-2.46 78.8 78.8 0 0 1-10.4-4.55 111 111 0 0 1-11.8-7.22l38.7-38.8z" fill="#055880"/>
</svg>
