<?xml version="1.0" encoding="UTF-8"?>
<svg width="512" height="512" version="1.1" viewBox="0 0 512 512" xmlns="http://www.w3.org/2000/svg">
 <path d="m79.8 162v320h342v-320z" fill="#fdd005"/>
 <path d="m371 280c-4.65 0.926-12.5 4.64-17.6 6.96-0.926 0.466-0.92 1.52 0 1.86 1.4 0.466 2.34 0.926 3.25 1.86 2.32 2.79 5.11 5.11 5.11 8.82 0 4.18-2.32 5.58-1.86 9.29 1.39 7.44 7.42 14.9 7.42 22.8-0.46 6.04-6.04 6.04-9.29 10.2-0.932 1.39-1.4 2.79-1.4 4.65s-0.46 5.11 1.4 5.11c2.32 0.466 2.79-4.18 5.11-4.18 3.25 0.46 2.79 5.11 5.58 5.11h122c-0.466-1.4-1.39-3.25-2.31-3.71-6.04-5.58-21.4-13-24.1-21.9-9.69-28.1 20.5-53.4-0.466-149-4.19-20.5-7.44-38.5-13.5-58.5-0.932-3.71-6.04-8.82-7.9-12.1-1.39-2.32-2.79-6.51-3.25-9.29-3.25-15.4-1.85-30.2-13-43.2-4.19-4.64-12.1-5.11-17.2-8.36-9.75-5.11-19.5-10.2-29.2-16.2-1.39-0.932-5.58-2.32-7.9-0.932 11.2 7.9 18.6 17.2 21.9 31.1 1.39 6.5 3.25 11.6-3.25 15.4-1.86 0.932-14 8.82-19.5 22.2-1.39 2.79-9.29 20.9-18.6 38.1-11.2-6.04-22.2-6.5-30.2-6.5-8.36 0-23.2 0.926-30.2 6.04-14.9 11.2-21.4 25.5-26 41.9-13.2 41.6-4.41 85.4-0.466 128 4.8 26 0.455 40.5-21.9 44.6-1.86 0-2.79 0.926-2.32 1.86h77.6c3.71 0 4.64-1.86 8.36-5.11 5.11-5.11-1.86-14 0-25.5 4.19-28.8 16.8-54.9 22.8-82.8 0.932-3.25 1.4-7.44 1.86-12.1 2.32 11.2 5.58 21.9 8.82 32.5 3.25 11.2 6.5 17.2 11.6 20-0.466 0-0.932 0-1.4 0.466z" fill="#231f20"/>
 <path d="m395 351c2.32-7.9 3.71-13.5 0.932-21.9-1.86-6.5-7.44-11.6-9.75-18.1-2.79-8.82-0.466-18.6-5.11-26.5-0.926-1.86-3.25-3.71-5.58-5.11-5.58-3.25-7.44-5.11-9.75-10.7-0.932-1.86-1.86-3.71-2.34-5.58-5.1-14.9-8.82-30.2-11.6-45.1-1.4 7.9-2.32 15.4-3.71 23.2-2.32 8.82-4.65 17.2-7.44 25.5-6.04 17.6-12.1 35.8-14.9 54.4-0.46 3.71-0.46 6.98 0 10.7 0.466 3.25 3.26 10.2 0 13.9-3.25 3.71-4.18 4.65-7.42 5.11h-33.9c2.32-0.926 4.64-2.79 6.04-5.11 4.18-8.82-6.51-36.8-8.84-46.9-1.85-8.82-6.04-17.2-7.42-26-0.466-6.04-1.39-24.6-0.466-29.2 0-1.39 0.926-1.86 1.86 0 0.932 7.9-1.39 25.5 2.79 34.4 0.932 2.32 5.11 0.932 6.5-0.926 3.71-4.65 5.59-10.2 7.44-15.8 2.79-9.75 5.11-15.4 6.5-28.4 1.4-12.5-1.39-16.8 0-29.2 0.669-15.2 3.6-30.5 15.4-41.4 5.58-5.58 14.4-6.98 22.2-7.9 21.4 0 18.6 23.2 23.2 35.2 1.39 4.18 5.58 14.4 7.9 18.6 1.86 4.18 5.11 11.6 7.44 18.6 1.86 5.11 1.39 12.5 0 15.4-1.4 2.32 0.932 3.71 2.79 1.86 2.32-3.71 2.32-6.5 3.71-10.7 1.39-4.18 2.32-10.7 3.71-14.4 2.32-6.51 6.98-12.5 8.36-19.5 1.39-6.5 0.46-13-1.86-19.5-1.39-2.32-6.5-17.2-9.29-21.4-6.5-6.98-11.6-7.9-22.2-16.2-1.85-1.4-4.18-2.79-6.5-4.19 5.58-13 13-24.6 18.1-37.6 4.19-10.7 11.2-16.2 19-22.2 13.5 7.9 12.5 8.36 14.4 24.1-0.466 8.36 0.466 16.8 0 24.6 0 3.25-2.32 10.7-2.32 13.9 0.466 5.11 0 6.96 0.926 12.5 0.46 4.19 4.64 7.9 3.71 12.1-2.79 18.6-10.7 35.8-11.2 54.4-0.466 18.1 2.79 42.8 18.1 54.9 1.86 1.39 5.59-0.926 6.04-3.25 2.32-10.7-0.926-22.2 0.466-33 0.926-6.98 2.79-14.9 5.11-21.9 1.86-5.58 6.5-18.6 10.2-22.8 0.932-1.86 3.25-0.46 2.32 0.932-0.511 0-26.6 53.1-9.75 77.1 2.79 4.65 8.82 9.29 13 16.2 2.32 4.19 3.71 22.8 2.79 27.4-1.86 13-17.6 33.9-33 35.2z" fill="#fff"/>
 <path d="m368 294c0.231-0.309 0.244-0.618 0-0.926-0.466-0.466-1.85-1.39-1.85-1.39-1.86-1.86-0.932-5.58 1.85-6.04 4.65-1.39 9.75 0 11.2 4.19 1.39 3.71-0.932 8.36-4.19 11.2-2.79 2.79-7.44 0.466-9.29 0.932-0.932 0.466-0.932 0.926-0.466 1.39 1.86 0.926 5.11 0.926 7.9 0.926 1.86 0 3.71-0.926 5.11-0.46 0.932 0.46 1.4 2.32 1.4 3.25 0 2.32-1.4 4.64-1.4 6.5 0.466 1.39 1.86 1.39 2.79 2.32 4.19 6.5 3.71 10.2 4.65 16.2 0.932 7.44 8.36 9.29 7.9 11.2 0 0.46-0.466 0.926-1.4 0.46-2.32-2.32-6.5-2.32-9.75-1.86-1.86 0-2.79 2.79-5.11 3.26-0.926 0.46-2.79 0-3.26-1.4-1.39-1.86 0.932-5.11-0.46-6.98-0.926-1.39-4.64-1.86-4.64-4.64 0-7.44-5.11-14.4-6.98-21.4-0.466-1.86-0.466-2.79 0-4.65 1.39-3.25 2.32-7.42 0-10.7-0.932-1.4 4.19 0.46 6.04-1.4z" fill="#fff"/>
 <path d="m378 33c7.9 4.19 17.6 19 22.8 27 2.32 3.25 5.58 0.466 4.18-2.32-7.89-11.2-17.1-20.5-27-24.6m-39.5 122c6.04 1.4 14 7.44 15.8 13 1.86 5.58 2.32 8.82 0 25.1 0 0.932 1.86 1.86 2.32 0 0.416-2.16 1.31-5.4 3.71-2.79-1.86-5.58-0.466-10.7 6.5-10.2 3.71 0.466 3.25 3.25 9.3 4.64 1.85 0.466 6.04-0.926 6.98-4.18 2.31-6.98 0-13-5.58-17.6-3.26-2.79-7.44-4.19-11.6-1.39-0.932 0.926-2.32 3.71-2.32 5.11 0.926 6.04-2.32 4.18-4.64 0-3.25-5.11-13.9-12.5-20.5-11.6m38.5 88.2c2.79-8.82-0.46-21.9-2.32-31.6-0.926-3.25 3.25-4.18 4.19-0.926 2.79 13 2.32 22.8-1.86 32.5m15.4-168c-0.932 0.46-4.64 3.25-6.98 4.64 15.2 2.76 18.4 17 20.5 28.4 0-3.25-0.466-17.6 0.932-19.5 2.32-2.79 6.98-0.466 10.2 0.926 2.32 0.932 3.71 3.71 6.04 5.11 7.38 2.96 11.6-1.86 12.5-4.18 1.39-4.19-2.79-20.9-12.1-17.2-3.71 1.39-4.19 6.98-7.44 9.75-4.12 3.1-9.65 1.2-13.5-1.86-3.25-2.31-6.5-5.11-10.2-6.04z" fill="#f57215"/>
 <path d="m372 288c1.39 0 3.25 1.86 2.79 2.32-0.932 0.926-1.39-0.466-3.25-0.466-1.39 0-2.79 0.466-2.79-0.466 0-0.926 1.39-1.39 3.25-1.39z" fill="#231f20"/>
 <path d="m32.2 276-29.5-3.02c7.34-34.1 73.8-33.9 84-7.16 5.84 20.2 0.366 44.5 2.99 56.2 0.48 2.14 1.52 4.88 3.14 8.2h-28.9c-2.21-3.96-2.61-5.22-3.32-9.86-4.05 3.9-8.06 6.68-12 8.34-10.2 4.16-30.5 5.94-40.9-3.31-10.8-9.65-8.56-24.4-2.09-31.5 14-12.1 29.8-8.06 53.2-17.4 0-14.4-22-14.2-26.9-0.605m26.9 16.1c-12 4.25-21.5 5.36-25.2 8.9-8.22 7.91 3.34 19 17.1 11.4 8.08-4.08 8.18-12.4 8.18-20.2z" fill="#231f20"/>
 <path d="m108 219h30.9v111h-30.9z" fill="#231f20"/>
 <path d="m196 219v30.6h16.9v22.6h-16.9v28.4c0 4.85 0.281 9.32 6.3 9.32 2.28 0 5.46-0.655 9.56-1.95l2.28 21.2c-7.62 1.66-14.8 2.5-21.4 2.5-22 0-27.6-8.21-27.6-31.2v-28.2h-11.3v-22.6h11.3v-14.8z" fill="#231f20"/>
 <path d="m108 346h30.9v111h-30.9z" fill="#231f20"/>
 <path d="m161 346h30.9v21h-30.9v-21m0 30.6h30.9v80.2h-30.9z" fill="#231f20"/>
 <path d="m211 377h28.8v13.1c4.28-5.36 8.6-9.19 13-11.5 8.11-4.28 43.1-11.6 43.1 27.6v51h-30.9v-44c0-18.4-15.1-15.2-19.8-9.59-2.32 2.82-3.48 7.88-3.48 15.1v38.5h-30.9z" fill="#231f20"/>
 <path d="m398 457h-28.8v-13c-4.28 5.34-8.6 9.14-13 11.4-8.04 4.18-43.1 11.5-43.1-27.6v-51.1h30.9v44.1c0 18.4 14.9 15.4 19.6 9.68 2.34-2.82 3.51-7.89 3.51-15.2v-38.6h30.9z" fill="#231f20"/>
 <path d="m411 377h36.5l12.6 22.4 14.9-22.4h33.9l-27.4 38.2 29.4 42h-35.9l-14.9-25.9-17.5 25.9h-33.2l29.1-42z" fill="#231f20"/>
</svg>
