<?xml version="1.0" encoding="UTF-8"?>
<svg width="512" height="512" version="1.1" viewBox="0 0 512 512" xmlns="http://www.w3.org/2000/svg">
 <defs>
  <linearGradient id="a" x1="34.8" x2="25.4" y1="9.91" y2="28.4" gradientTransform="matrix(7.43 0 0 8.55 -1.02 -.673)" gradientUnits="userSpaceOnUse">
   <stop stop-color="#fff" stop-opacity="0" offset="0"/>
   <stop stop-color="#fff" stop-opacity=".275" offset="1"/>
  </linearGradient>
 </defs>
 <path d="m256 1c-22.7 55.7-36.5 92.1-61.8 146 15.5 16.4 34.5 35.5 65.4 57.1-33.2-13.7-55.9-27.3-72.8-41.6-32.3 67.5-83.1 164-186 348 80.8-46.6 143-75.4 202-86.4a148 148 0 0 1-3.74-34.6l0.0637-2.55c1.28-51.8 28.2-91.6 60.1-88.9 31.9 2.7 56.8 46.9 55.5 98.7a147 147 0 0 1-3.3 27.8c57.7 11.3 120 39.9 200 86-15.7-28.9-29.8-55-43.2-79.9-21.1-16.4-43.1-37.6-88-60.7 30.9 8.02 53 17.3 70.2 27.6-136-254-147-287-194-397z" fill="#1793d1"/>
 <path d="m400 304c-111-150-136-271-143-300 59 136 58.6 138 143 300z" fill="#fff" fill-opacity=".17"/>
 <path d="m257 2.99c-2.87 7.04-5.58 13.9-8.22 20.4-2.9 7.13-5.72 14-8.46 20.7-2.74 6.67-5.52 13-8.22 19.4-2.7 6.42-5.21 12.8-7.97 19.2-2.76 6.39-5.79 12.9-8.72 19.4-2.93 6.57-5.99 13.2-9.21 20.2-3.22 6.96-6.6 14.4-10.2 21.9-0.486 1.02-0.988 2.2-1.49 3.24 15.5 16.4 34.5 35.3 65.2 56.8-33.2-13.7-55.8-27.3-72.7-41.6-0.877 1.8-1.58 3.39-2.49 5.23-3.35 6.94-6.94 13.8-10.7 21.4-0.9 1.78-1.56 3.4-2.49 5.23a3111 3111 0 0 1-12.7 25.1c-0.9 1.75-1.82 3.2-2.74 4.98-2.73 5.32-11.5 22.1-20.4 39.1-5.22 9.94-9.32 18.1-15.2 29.1-1.67 3.17-5.09 9.52-5.98 11.2 64.7-36.4 135-89.4 261-44.1-6.35-12-12.4-23.3-17.9-33.9-5.48-10.6-10.5-20.5-15.2-29.9-4.73-9.4-9.11-18.3-13.2-26.6-4.09-8.39-7.88-16.3-11.5-23.9-3.57-7.59-7.05-14.9-10.2-21.9-3.16-7-6.1-13.8-8.96-20.4-2.86-6.64-5.54-13.2-8.22-19.7-2.68-6.46-5.36-12.7-7.97-19.2-1.13-2.84-2.1-5.85-3.24-8.72-7.08-16.6-14-33.1-22.4-52.8z" fill="url(#a)"/>
</svg>
