<?xml version="1.0" encoding="UTF-8"?>
<svg width="512" height="512" version="1.1" viewBox="0 0 512 512" xmlns="http://www.w3.org/2000/svg">
 <path d="m487 384h21.6c1.78 0 2.69 0.888 2.74 2.66l0.252 6.59c0.0616 1.33-1 2.45-2.34 2.45h-22.2c-1.2 0-1.8 0.6-1.8 1.8v6.3c0 1.78 0.9 2.67 2.7 2.7l21.1 0.036c1.29 0 2.34 1.05 2.34 2.34v7.52c0 1.2-0.6 1.8-1.8 1.8h-22c-1.51 0-2.27 0.756-2.27 2.27v5.83c0 1.8 0.9 2.7 2.7 2.7h21.6c1.2 0 1.8 0.6 1.8 1.8v7.92c4.3e-4 1.48-1.23 2.68-2.74 2.66l-20.7-0.252c-1.63-0.0252-2.48 0.768-2.56 2.38-0.828 17.2 1.01 30.6-17.6 37.9-6.55 2.56-14.4 1.33-22 1.66-1.44 0.0479-2.15 0.792-2.12 2.23l0.36 21c0.0252 1.85-0.888 2.77-2.74 2.77h-7.13c-1.55 0-2.81-1.26-2.81-2.81l-0.036-21.5c-0.0252-1.2-0.624-1.8-1.8-1.8h-6.3c-1.2 0-1.8 0.6-1.8 1.8v21.9c1.4e-4 1.28-1.03 2.32-2.3 2.34l-8.46 0.108c-1.22 0-1.84-0.6-1.84-1.8v-22.5c0-1.2-0.6-1.8-1.8-1.8h-5.69c-1.15-1.8e-4 -2.07 0.94-2.05 2.09l0.396 19c0.229 7.66-10.7 9.24-12.7 1.84-1.2-4.46-1.39-9.78-0.576-15.9 0.336-2.71 0.204-4.57-0.396-5.58-1.18-1.9-3.52-2.26-7.02-1.08-2.14 0.744-3.05 2.23-2.74 4.46 0.768 5.28 0.972 10.9 0.612 16.8-0.799 8.12-12.8 7.76-13.1-0.396v-18.8c0-1.39-0.696-2.17-2.09-2.34l-4.61-0.612c-1.59-0.193-3 1.01-3.03 2.59l-0.504 22c-0.0479 1.39-0.756 2.08-2.12 2.05l-7.85-0.108c-1.28-0.018-2.31-1.06-2.3-2.34v-21.4c0-1.51-0.756-2.27-2.27-2.27h-4.93c-1.49 0-2.7 1.21-2.7 2.7v21.1c0 1.34-0.672 2.04-2.02 2.09l-8 0.18c-1.78 0.0479-2.65-0.816-2.63-2.59 0.0962-5.83 0.072-11.6-0.072-17.3-0.072-2.85-0.732-4.83-1.98-5.94-1.75-1.56-3.97-1.39-6.66 0.504-0.768 0.552-1.15 1.3-1.15 2.23v20.9c0 1.51-0.744 2.27-2.23 2.27h-7.2c-1.51 0-2.27-0.756-2.27-2.27v-21.6c0-1.49-0.744-2.23-2.23-2.23h-6.34c-1.49 0-2.23 0.756-2.23 2.27v21.4c0 1.54-0.768 2.32-2.3 2.34l-7.35 0.108c-1.54 0.0252-2.33-0.732-2.38-2.27l-0.36-21.4c-0.0479-1.63-0.876-2.45-2.48-2.45h-6.23c-1.46 0-2.2 0.732-2.2 2.2l0.108 22c0.0252 1.27-0.612 1.91-1.91 1.91h-8.07c-1.55 0-2.81-1.24-2.81-2.77l-0.036-20.8c-0.0252-1.18-0.854-2.17-1.98-2.38l-4.21-0.828c-1.45-0.268-2.79 0.832-2.81 2.3l-0.036 20.7c0 2.05-1.66 3.71-3.71 3.71h-6.16c-1.49 0-2.7-1.21-2.7-2.7v-21.2c1.4e-4 -1.28-1.03-2.32-2.3-2.34l-5.15-0.144c-1.63-0.0479-2.45 0.744-2.45 2.38v21.3c0 1.49-1.21 2.7-2.7 2.7h-6.3c-1.8 0-2.7-0.9-2.7-2.7v-20.8c-7e-3 -1.3-0.96-2.39-2.23-2.56-3.1-0.384-5.35-0.264-6.77 0.36-1.32 0.552-1.92 2.29-1.8 5.22 0.24 6.33 0.168 12.6-0.216 18.9-0.072 1.08-0.66 1.62-1.76 1.62l-8.28-0.108c-1.28-1.1e-4 -2.32-1.04-2.34-2.34l-0.036-21.3c0-1.29-1.05-2.34-2.34-2.34h-5.73c-1.8 0-2.7 0.9-2.7 2.7v21.1c0 1.51-0.756 2.27-2.27 2.27h-6.73c-1.8 0-2.7-0.9-2.7-2.7v-21.1c0-1.51-0.756-2.27-2.27-2.27h-5.37c-1.49 0-2.24 0.744-2.27 2.23l-0.036 19c-7e-3 8.38-12.3 9.01-13.2 0.684-0.504-4.8-0.576-10.3-0.216-16.4 0.144-2.5-0.324-4.21-1.4-5.15-1.44-1.27-3.49-1.36-6.16-0.252-1.73 0.744-2.45 2.05-2.16 3.92 0.984 6.33 0.984 12.8 0 19.4-0.777 7.71-12.3 6.87-11.9-0.864l-0.036-20.5c0-1.15-0.576-1.79-1.73-1.91l-6.16-0.684c-1.3-0.154-2.44 0.883-2.41 2.2l0.612 21.9c0.0407 1.36-1.05 2.48-2.41 2.48h-8.03c-1.56 0-2.34-0.78-2.34-2.34v-21.5c0-1.49-0.756-2.23-2.27-2.23h-5.83c-1.78 0-2.68 0.9-2.7 2.7l-0.036 21.5c0 1.05-0.855 1.91-1.91 1.91h-7.96c-1.2 0-1.8-0.6-1.8-1.8v-22.5c0-1.2-0.6-1.81-1.8-1.84-26.2-0.216-42.8-4.35-40.8-37.1 0.192-3-1.21-4.55-4.21-4.64l-19-0.468c-1.61-0.0374-3-1.16-3.39-2.73-1.27-5.49 0.456-8.35 5.19-8.56 6.43-0.288 12.8-0.432 19.2-0.432 1.61-0.0252 2.41-0.828 2.41-2.41v-6.59c0-1.18-0.6-1.78-1.8-1.8l-22.7-0.036c-1.35 0-2.45-1.1-2.45-2.45v-6.87c0-1.29 1.05-2.34 2.34-2.34h22.8c1.2 0 1.8-0.6 1.8-1.8v-6.3c0-1.8-0.9-2.7-2.7-2.7h-20.7c-1.59-3e-3 -2.97-1.09-3.35-2.63-3.39-13.3 18-8.85 24.9-9.32 1.39-0.12 2.06-0.864 2.02-2.23l-0.216-5.25c-0.0389-1.2-1.03-2.16-2.23-2.16h-21.9c-1.75 0-2.61-0.876-2.56-2.63l0.216-7.88c0.048-1.39 0.78-2.09 2.2-2.09h22.1c1.51 0 2.27-0.756 2.27-2.27v-6.3c0-1.54-0.768-2.29-2.3-2.27l-20.7 0.18c-2.21 0-3.52-1.08-3.93-3.24-1.01-5.23 0.756-7.95 5.29-8.17 6.46-0.288 12.9-0.444 19.3-0.468 1.58 0 2.38-0.792 2.38-2.38v-6.12c0-1.51-0.744-2.27-2.23-2.27h-20.4c-2.3 0-3.72-1.12-4.25-3.35-1.34-5.69 0.6-8.36 5.83-8.02 7.11 0.456 13.2 0.156 18.4-0.9 5.48-1.19 4.67-9.24-0.936-9.32h-17.9c-2.74 0-4.49-1.32-5.26-3.96-0.888-3.07-0.636-5.39 0.756-6.95 0.984-1.13 2.88-1.69 5.69-1.69 6.31 0.0479 12.6 0.036 18.9-0.036 1.11 4e-3 1.98-0.948 1.87-2.05l-0.54-5.29c-0.168-1.68-1.09-2.52-2.77-2.52h-19.8c-2.28 0-3.66-1.13-4.14-3.38-0.648-3.09-0.384-5.47 0.792-7.13 0.96-1.34 2.91-2.06 5.83-2.16 5.95-0.168 11.9 0.0108 17.8 0.54 1.63 0.168 2.45-0.564 2.45-2.2v-6.8c6e-4 -1.38-1.14-2.49-2.52-2.45l-22.1 0.756c-1.2 0.0414-2.18-0.928-2.16-2.12l0.18-8.35c0.0194-0.98 0.82-1.76 1.8-1.76l23-0.036c1.2-0.0252 1.8-0.624 1.8-1.8v-7.2c0-1.2-0.6-1.8-1.8-1.8h-21.5c-1.57-4e-3 -2.94-1.01-3.39-2.48-4.29-14.1 18-10.1 25.3-10.1 1.12 0.0108 1.99-0.977 1.84-2.09l-0.612-4.43c-0.216-1.61-1.14-2.41-2.77-2.41l-20.5-0.18c-1.15-0.0252-2.18-0.709-2.67-1.76-1.92-4.34-1.76-7.43 0.468-9.25 1.18-0.96 3.28-1.44 6.3-1.44 5.86 0 11.7-0.0252 17.5-0.072 1.2 0 1.8-0.6 1.8-1.8v-5.36c0-1.8-0.9-2.7-2.7-2.7h-20.7c-1.25 0-2.12-0.576-2.63-1.73-6.77-15.9 14.1-12.1 23.8-10.7 1.21 0.174 2.29-0.774 2.3-2.02v-6.23c0-1.8-0.9-2.7-2.7-2.7h-21.9c-1.56 0-2.34-0.78-2.34-2.34v-7.02c0-1.29 1.05-2.34 2.34-2.34h22.8c1.2 0 1.8-0.6 1.8-1.8v-5.69c0-1.39-0.696-2.11-2.09-2.16l-21.6-0.792c-1.15-0.0252-1.96-0.576-2.41-1.66-6.7-15.7 16.6-11.2 24.1-11.4 1.49-0.0252 2.21-0.78 2.16-2.27l-0.18-5c-0.0659-1.66-1.57-2.89-3.21-2.63-5.5 0.888-11 1.07-16.4 0.54-3.31-0.336-5.58-1.36-6.81-3.06-1.44-2.04-1.42-4.5 0.072-7.38 0.551-1.06 1.65-1.73 2.85-1.73h20.8c1.8 0 2.7-0.9 2.7-2.7v-4.93c0-1.49-0.744-2.24-2.23-2.27l-21-0.036c-8.39-0.0248-7.71-12.6 0.684-12.6h20.7c1.2 0 1.8-0.6 1.8-1.8v-6.3c0-1.8-0.9-2.7-2.7-2.7h-21.9c-1.56 0-2.34-0.78-2.34-2.34v-7.02c0-1.56 0.78-2.34 2.34-2.34h22.1c1.61 0 2.45-0.804 2.52-2.41 0.216-6.62-0.54-13.9 0.792-19.5 4.54-19.2 21.8-20.9 39.1-19.8 1.34 0.105 2.49-0.957 2.48-2.3v-22.7c-6.5e-4 -1.15 0.908-2.08 2.05-2.12l7.02-0.216c1.75-0.072 2.63 0.768 2.63 2.52v22.9c0 1.49 0.756 2.23 2.27 2.23h5.83c1.8 0 2.7-0.9 2.7-2.7v-19.8c-4e-3 -2.45 1.67-4.58 4.03-5.15 12.4-2.95 8.57 18.8 8.57 25.7 0.0252 1.46 0.768 2.15 2.23 2.05l5.76-0.324c1.27-0.096 1.91-0.78 1.91-2.05v-22.3c4e-3 -1.08 0.792-2 1.87-2.2l6.52-1.15c1.86-0.327 3.59 1.08 3.67 2.99l0.756 23.5c0.0479 0.84 0.492 1.25 1.33 1.22l5.62-0.18c1.46-0.048 2.18-0.804 2.16-2.27l-0.432-19.1c-0.0443-2.58 1.63-4.87 4.11-5.61 13.4-4.03 9.58 18.4 9.65 25.1 0 1.27 0.636 1.93 1.91 1.98l5.44 0.252c1.61 0.072 2.41-0.696 2.41-2.3v-22.8c-3e-3 -1.45 1.23-2.6 2.7-2.52l6.99 0.36c1.04 0.0569 1.86 0.921 1.87 1.98l0.504 22.8c0.0479 1.66 0.9 2.48 2.56 2.48h5.65c1.49 0 2.23-0.744 2.23-2.23v-22.2c0-1.78 0.888-2.67 2.67-2.7l7.17-0.108c1.53-0.0202 2.77 1.21 2.77 2.73v21.5c0 1.58 0.792 2.41 2.38 2.48l6.12 0.288c1.24 0.0618 2.27-0.923 2.27-2.16l0.036-22.8c0.0252-1.82 0.936-2.65 2.74-2.48l6.45 0.54c1.68 0.12 2.52 1.03 2.52 2.73v21.8c0 2.06 1.02 2.95 3.06 2.66l4.97-0.684c1.25-0.168 1.87-0.888 1.87-2.16v-20.6c4.7e-4 -2.13 1.53-3.96 3.64-4.35 13.1-2.45 8.97 19.4 9.18 26.4 0.0252 1.22 0.636 1.7 1.84 1.44l4.97-1.08c1.32-0.288 1.98-1.1 1.98-2.45v-21c-4e-3 -1.44 1.1-2.64 2.52-2.73l7.35-0.504c1.82-0.144 2.74 0.708 2.74 2.56v22.6c0 1.27 0.636 1.96 1.91 2.05l6.59 0.468c1.24 0.106 2.31-0.877 2.3-2.12v-21.4c3e-3 -2.54 2.22-4.5 4.72-4.17l5.47 0.72c1.61 0.192 2.41 1.1 2.41 2.73v21.6c0 1.63 0.804 2.47 2.41 2.52l5.51 0.216c1.92 0.072 2.88-0.852 2.88-2.77v-22.4c0-1.85 0.912-2.69 2.74-2.52l6.45 0.54c1.68 0.12 2.52 1.03 2.52 2.73v21.7c0 1.66 0.828 2.48 2.48 2.48h4.25c1.5 5.08e-4 2.73-1.2 2.77-2.7l0.504-20.6c0.0252-1.22 0.54-2.18 1.55-2.88 3.12-2.18 6.25-2.17 9.4 0.036 0.968 0.678 1.55 1.78 1.55 2.95v21.6c0 1.2 0.6 1.8 1.8 1.8h5.83c1.51 0 2.27-0.756 2.27-2.27v-22c0-1.87 0.936-2.87 2.81-2.99l6.52-0.432c1.63-0.103 3.01 1.18 3.03 2.81l0.144 22.1c0.018 1.52 1.26 2.74 2.77 2.73h5.33c1.63 0 2.38-0.804 2.23-2.41-0.54-6.87-4-25 6.66-25.5 3.06-0.144 5.62 2.3 5.62 5.36v19.4c0 1.49 0.744 2.32 2.23 2.48l5.26 0.54c1.61 0.192 2.41-0.528 2.41-2.16v-21.1c-3e-3 -1.17 0.593-2.26 1.58-2.91 2.88-1.87 5.82-2.05 8.82-0.54 1.37 0.696 2.08 1.82 2.12 3.38l0.576 21.5c0.0252 1.49 0.78 2.16 2.27 2.02l4.65-0.504c1.66-0.168 2.48-1.08 2.48-2.73-0.036-8.06-4.11-24.8 8.14-24.7 2.47 0 4.47 2 4.47 4.46v21.1c0 2.09 1.02 2.93 3.06 2.52l4.79-0.936c1.37-0.288 2.05-1.13 2.05-2.52v-21.1c-2e-3 -1.4 1.09-2.55 2.48-2.63l7.45-0.504c1.78-0.12 2.67 0.708 2.67 2.48v23.3c0 1.3 0.636 1.87 1.91 1.73 16.1-2.02 33.2 1.04 38.4 17.7 1.87 6.12 0.972 14.1 1.19 21.3 0.0479 1.61 0.888 2.41 2.52 2.41h21.8c1.22 0 1.82 0.612 1.8 1.84l-0.108 7.56c-0.018 1.28-1.06 2.3-2.34 2.3h-21.9c-1.2 0-1.8 0.6-1.8 1.8v6.77c0 1.49 0.756 2.23 2.27 2.23h21.4c1.54 0 2.32 0.768 2.34 2.3l0.108 7.41c0.0216 1.56-1.24 2.84-2.81 2.84l-20.6 0.036c-1.22 0.0169-2.28 0.862-2.56 2.05-1.1 4.7 0.036 7.13 3.42 7.27 6.79 0.312 12.5 0.54 17.1 0.684 7.57 0.761 7.24 11.9-0.36 12.2l-17.3-0.432c-1.7-0.0404-3.1 1.32-3.1 3.02v4.89c0 1.18 0.6 1.78 1.8 1.8l20.6 0.036c2.05 0 3.71 1.66 3.71 3.71v6.91c0 1.55-1.26 2.81-2.81 2.81l-21.5 0.036c-1.2 0.0252-1.8 0.624-1.8 1.8v5.4c0 1.8 0.9 2.7 2.7 2.7h21.1c1.51 0 2.27 0.756 2.27 2.27v6.73c0 1.8-0.9 2.7-2.7 2.7h-21c-1.54 0-2.32 0.768-2.34 2.3l-0.108 5.87c0 1.07 0.855 1.94 1.91 1.94h21.7c1.75 0 2.62 0.876 2.59 2.63l-0.108 8.35c-0.018 1.28-1.06 2.3-2.34 2.3h-21.9c-1.2 0-1.8 0.6-1.8 1.8v5.4c0 1.8 0.9 2.7 2.7 2.7h21.1c1.51 0 2.27 0.756 2.27 2.27v7.49c0 1.7-0.852 2.57-2.56 2.59l-21.4 0.36c-1.44 0.0252-2.16 0.768-2.16 2.23v5.07c0 1.66 0.828 2.38 2.48 2.16 7.6-1.01 26.6-4.82 23.4 9.21-0.408 1.87-1.57 2.81-3.49 2.81h-20.6c-1.2 0-1.8 0.6-1.8 1.8v6.3c0 1.8 0.9 2.7 2.7 2.7h21.2c1.51 0 2.27 0.756 2.27 2.27l-0.108 7.77c0 1.39-0.696 2.08-2.09 2.05l-21.4-0.54c-1.33-0.0403-2.43 1.01-2.45 2.34l-0.108 7.41c0 1.06 0.516 1.57 1.55 1.55l22.1-0.504c1.63-0.0479 2.45 0.744 2.45 2.38v8.02c0 1.29-1.05 2.34-2.34 2.34h-21.9c-1.2 0-1.8 0.6-1.8 1.8v5.4c0 1.8 0.9 2.7 2.7 2.7h20.7c1.8 0 2.7 0.9 2.7 2.7v7.05c0 1.55-1.26 2.81-2.81 2.81l-21.5 0.036c-1.2 0.0252-1.8 0.624-1.8 1.8v5.72c0 1.29 1.05 2.34 2.34 2.34l22 0.036c1.2 0.0252 1.8 0.624 1.8 1.8v7.2c0 1.8-0.9 2.7-2.7 2.7h-21.6c-1.2 0-1.8 0.6-1.8 1.8v6.3c0 1.8 0.9 2.7 2.7 2.7h21.6c1.2 0 1.8 0.6 1.8 1.8v7.95c0 1.55-1.24 2.81-2.77 2.81l-21.5 0.036c-1.2 0.0252-1.8 0.624-1.8 1.8v5.4c0 1.8 0.9 2.7 2.7 2.7h21.1c1.51 0 2.27 0.756 2.27 2.27v7.63c0 1.8-0.9 2.7-2.7 2.7h-21.1c-1.51 0-2.27 0.756-2.27 2.27v5.83c0 1.2 0.6 1.8 1.8 1.8z" fill="#231f20"/>
 <path d="m374 297q-8.9 15-26 8.6a5.2 5 83 0 1-2.6-2.1q-14-22 4.3-40a3.3 3.2 22 0 1 2.2-0.99l22-1.6q1.9-0.12 1.8-2l-0.95-13a3.9 3.9 0 0 0-2.3-3.2q-13-6-24 3.2-2.9 2.4-3.8-1.3l-1.4-5.8q-0.56-2.3 1.8-2.9c17-4.5 42-8.9 42 16q-0.16 26 0.8 53 0.08 1.9-1.8 1.9h-6.8q-2 0-2-2v-7a1.6 1.6 0 0 0-3-0.8zm-1.6-30c-20-1.9-31 19-14 30a4.4 4.3 49 0 0 4.3 0.28q17-8.2 13-28-0.56-2.5-3.1-2.8zm-55-33 11-0.019c0.16-2.8e-4 0.29 0.13 0.29 0.29l0.13 72c2.8e-4 0.16-0.13 0.29-0.29 0.29l-11 0.019c-0.16 2.7e-4 -0.29-0.13-0.29-0.29l-0.13-72c-2.8e-4 -0.16 0.13-0.29 0.29-0.29zm-221 62c-27 33-46-14-27-30 6.7-5.6 17-4.9 25-4.7q2 0.04 2.4-1.9c5.2-23-15-20-28-13a2.4 2.3 70 0 1-3.5-1.5l-1.1-4.6q-0.64-2.8 2.1-3.8c16-5.3 40-9.2 41 14q0.99 27 0.76 54-0.04 2.1-2.2 2.1h-6.9a2.1 2.1 0 0 1-1.9-3q1.6-3.3 0.87-7-0.56-3.2-2.6-0.68zm-1.7-29c-27-2.3-28 30-10 31a5.9 6 22 0 0 4.3-1.5q11-10 9-26-0.36-2.6-3-2.9zm39-22a1.8 1.7 0 0 0 3.3 0.95q4.7-10 16-14 3.1-0.91 3 2.3l-0.12 5.8q-0.04 2.6-2.7 2.9c-25 2.2-20 42-18 61q0.24 2.5-2.3 2.5h-7.9q-2.5 0-2.3-2.5 3.4-34-0.16-68-0.2-2 1.8-2.3l8.7-1.3a2 2 0 0 1 2.2 2.2zm42-3.9c8.7-11 24-14 31 0.8q1.1 2.3 2.6 0.28c8.3-11 33-16 33 3.3q-0.36 29 0.83 59 0.12 2.7-2.5 2.7h-7.3q-2.7 0-2.5-2.7 1.7-26 0.32-52c-0.8-16-23-10-23 3.7q-0.12 24 0.32 48a2.9 2.8 89 0 1-2.8 2.9l-7.9 0.12q-1.6 0-1.6-1.6l0.16-55a7.6 7.6 89 0 0-7.8-7.6c-9.2 0.28-13 3.8-14 13q-1.8 24 0.2 48a2.8 2.8 0 0 1-2.7 3l-7.7 0.12q-1.5 0-1.5-1.5l-0.6-70q-0.04-1.6 1.6-1.9l7.7-1a2.2 2.2 0 0 1 2.5 2.4l-0.52 5.2q-0.44 4.3 2.3 0.95zm238 0.84c8.5-11 36-16 35 3.3q-0.87 30 1.2 59 0.16 2.3-2.2 2.3h-8.2q-2.1 0-2.1-2.1l1-55a9.3 9.4 89 0 0-9.7-9.5c-24 0.88-16 47-16 64q0.04 2.3-2.3 2.3h-8.2q-2.5 0-2.3-2.5 3.2-34 0.08-67-0.16-1.9 1.7-2.3l8-1.8a2.2 2.2 0 0 1 2.6 2.5l-1.2 5.8q-0.8 3.9 1.7 0.76zm-91-17a6.3 8.4 1.3 0 1-6.1-8.5 6.3 8.4 1.3 0 1 6.5-8.2 6.3 8.4 1.3 0 1 6.1 8.5 6.3 8.4 1.3 0 1-6.5 8.2zm-55 20 6-8.3a2.2 2 3 0 1 0.83-0.68c30-15 33 23 29 42q-8 39-47 28-2-0.56-1.9-2.6c0.99-29 5.1-64-1.8-92q-0.64-2.5 2-2.5 4.7 0.04 8.3-2.5 3.7-2.6 3.6 1.9l-1.2 36q-0.12 3.7 2 0.68zm25 10c-2.2-14-19-17-23-2.1q-6 22-2.3 46a2.4 2.4 0 0 0 2.2 2.1c26 3 26-29 23-46z" fill="#f70d00"/>
</svg>
