<svg xmlns="http://www.w3.org/2000/svg" viewBox="0 0 200 200"><g fill="none" stroke="#8d1610" stroke-width="2"><path d="m102.6 97.19.29-8.98q.04-1.14-.9-.48-.91.64-2.09.63-.65-.01-.49.62c1.71 7.03.69 15.76.44 23.02q-.02.51.47.65 9.73 2.87 11.73-6.93c.98-4.8.37-14.35-7.23-10.62a.56.5 3 0 0-.21.17l-1.5 2.09q-.54.75-.51-.17M116.982 92.34a2.1 1.59 91.3 0 0 1.638-2.064 2.1 1.59 91.3 0 0-1.542-2.135 2.1 1.59 91.3 0 0-1.638 2.063 2.1 1.59 91.3 0 0 1.542 2.136M60.73 110.5q.17.93-.22 1.75a.53.53 0 0 0 .48.75h1.74q.54 0 .55-.54.06-6.81-.19-13.59c-.21-5.96-6.42-4.98-10.35-3.65q-.69.24-.53.95l.27 1.15a.6.59 68.8 0 0 .87.39c3.24-1.81 8.3-2.53 6.99 3.31q-.1.49-.6.48c-2.15-.04-4.63-.23-6.32 1.18-4.94 4.14-.21 15.97 6.66 7.65q.51-.63.65.17M69.46 97.44 69.8 95a.5.5 0 0 0-.56-.56l-2.2.33q-.5.08-.45.59.9 8.5.04 17-.07.64.57.64h1.99q.64 0 .58-.63c-.42-4.81-1.7-14.83 4.54-15.39q.66-.06.67-.72l.03-1.45q.01-.81-.76-.58-2.77.81-3.96 3.45a.44.44 0 0 1-.83-.24M79.47 96.21l.13-1.31a.55.55 0 0 0-.62-.6l-1.94.26q-.42.06-.41.47l.15 17.61q0 .37.37.37l1.94-.03a.7.7 0 0 0 .69-.76q-.51-6.08-.05-12.17c.18-2.35 1.21-3.24 3.53-3.31a1.91 1.9 89 0 1 1.97 1.91l-.04 13.95q0 .41.41.41l1.99-.03a.72.71 89.2 0 0 .7-.73q-.11-6.09-.08-12.18c.02-3.56 5.49-5.05 5.69-.93q.34 6.57-.08 13.19-.04.67.64.67h1.84q.67 0 .64-.68-.3-7.38-.21-14.76c.06-4.89-6.21-3.56-8.29-.84q-.38.5-.65-.07c-1.73-3.75-5.55-2.87-7.74-.2q-.69.85-.58-.24M139.44 96.47l.3-1.46a.55.55 0 0 0-.66-.64l-2.02.46q-.46.11-.42.58.79 8.48-.02 16.95-.06.64.58.64h2.05q.58 0 .57-.58c-.07-4.23-1.98-15.89 3.95-16.11a2.36 2.35-.5 0 1 2.44 2.4l-.26 13.76q-.01.53.52.53h2.07q.59 0 .55-.59-.53-7.45-.31-14.91c.14-4.82-6.76-3.63-8.91-.84q-.63.8-.43-.19M118.524 94.897a.26.26 0 0 0-.26-.259l-2.32.004a.26.26 0 0 0-.26.26l.032 17.82a.26.26 0 0 0 .26.26l2.32-.004a.26.26 0 0 0 .26-.26l-.032-17.82M130.75 110.73v1.77q0 .5.5.5h1.72q.47 0 .45-.47-.24-6.63-.2-13.23c.03-6.38-6.06-5.27-10.44-4.13q-.59.15-.45.74l.34 1.46q.22.92.95.32 2.83-2.31 6.13-.8a.99.99 0 0 1 .57.81l.24 3.17q.04.48-.44.51l-5.6.41a.82.81 19.8 0 0-.54.25q-4.52 4.61-1.07 10.12a1.31 1.26 83.1 0 0 .66.54q4.19 1.54 6.43-2.17a.4.4 0 0 1 .75.2" vector-effect="non-scaling-stroke"/><path d="M109.36 99.97c-.55-3.43-4.79-4.23-5.8-.53q-1.51 5.56-.57 11.51a.61.61 0 0 0 .54.52c6.42.76 6.5-7.36 5.83-11.5M59.66 103.03c-6.72-.58-7.02 7.55-2.58 7.74a1.5 1.49-64.7 0 0 1.08-.39q2.87-2.58 2.26-6.63-.09-.66-.76-.72M129.59 103.04c-4.94-.47-7.85 4.84-3.48 7.63a1.12 1.08 47.8 0 0 1.08.07q4.26-2.06 3.19-7-.14-.64-.79-.7" vector-effect="non-scaling-stroke"/></g><path fill="#231f20" d="M164 136h5.99q.74 0 .76.74l.07 1.83a.65.65 0 0 1-.65.68H164q-.5 0-.5.5v1.75q0 .74.75.75l5.85.01a.65.65 0 0 1 .65.65V145q0 .5-.5.5h-6.12q-.63 0-.63.63v1.62q0 .75.75.75h6q.5 0 .5.5v2.2a.75.74.4 0 1-.76.74l-5.76-.07q-.68-.01-.71.66c-.23 4.77.28 8.51-4.88 10.53-1.82.71-4.01.37-6.12.46q-.6.02-.59.62l.1 5.84q.01.77-.76.77h-1.98a.78.78 0 0 1-.78-.78l-.01-5.97q-.01-.5-.5-.5h-1.75q-.5 0-.5.5v6.08a.65.65 0 0 1-.64.65l-2.35.03q-.51 0-.51-.5V164q0-.5-.5-.5h-1.58a.57.57 0 0 0-.57.58l.11 5.29a1.79 1.79 0 0 1-3.52.51q-.5-1.86-.16-4.43.14-1.13-.11-1.55-.49-.79-1.95-.3-.89.31-.76 1.24.32 2.2.17 4.67a1.82 1.82 0 0 1-3.63-.11v-5.23q0-.58-.58-.65l-1.28-.17a.75.74 4.2 0 0-.84.72l-.14 6.12q-.02.58-.59.57l-2.18-.03a.65.65 0 0 1-.64-.65v-5.95q0-.63-.63-.63h-1.37a.75.75 0 0 0-.75.75v5.87q0 .56-.56.58l-2.22.05q-.74.02-.73-.72.04-2.43-.02-4.82-.03-1.19-.55-1.65-.73-.65-1.85.14-.32.23-.32.62v5.8q0 .63-.62.63h-2q-.63 0-.63-.63v-6q0-.62-.62-.62h-1.76q-.62 0-.62.63v5.95q0 .64-.64.65l-2.04.03q-.64.01-.66-.63l-.1-5.95q-.02-.68-.69-.68h-1.73q-.61 0-.61.61l.03 6.11q.01.53-.53.53h-2.24a.78.77 0 0 1-.78-.77l-.01-5.77a.69.67-85.4 0 0-.55-.66l-1.17-.23a.66.66 0 0 0-.78.64l-.01 5.76a1.03 1.03 0 0 1-1.03 1.03H93a.75.75 0 0 1-.75-.75v-5.9a.65.65 0 0 0-.64-.65l-1.43-.04q-.68-.02-.68.66V170a.75.75 0 0 1-.75.75H87q-.75 0-.75-.75v-5.77a.72.71-86.4 0 0-.62-.71q-1.29-.16-1.88.1-.55.23-.5 1.45.1 2.64-.06 5.24-.03.45-.49.45l-2.3-.03a.66.65 89.6 0 1-.65-.65l-.01-5.93a.65.65 0 0 0-.65-.65H77.5q-.75 0-.75.75v5.87q0 .63-.63.63h-1.87q-.75 0-.75-.75v-5.87q0-.63-.63-.63h-1.49q-.62 0-.63.62l-.01 5.28a1.84 1.84 0 0 1-3.67.19q-.21-2-.06-4.57.06-1.04-.39-1.43-.6-.53-1.71-.07-.72.31-.6 1.09.41 2.64 0 5.39a1.66 1.66 0 0 1-3.31-.24l-.01-5.69q0-.48-.48-.53l-1.71-.19a.6.6 0 0 0-.67.61l.17 6.09a.67.67 0 0 1-.67.69H55.4q-.65 0-.65-.65v-5.97q0-.62-.63-.62H52.5q-.74 0-.75.75l-.01 5.97a.53.53 0 0 1-.53.53H49q-.5 0-.5-.5v-6.24q0-.5-.5-.51c-7.28-.06-11.88-1.21-11.32-10.32q.08-1.25-1.17-1.29l-5.27-.13a1 .99 83.9 0 1-.94-.76q-.53-2.29 1.44-2.38 2.68-.12 5.34-.12.67-.01.67-.67V146q0-.49-.5-.5l-6.31-.01a.68.68 0 0 1-.68-.68v-1.91a.65.65 0 0 1 .65-.65h6.34q.5 0 .5-.5V140q0-.75-.75-.75h-5.76a.96.96 0 0 1-.93-.73c-.94-3.69 4.99-2.46 6.92-2.59q.58-.05.56-.62l-.06-1.46a.62.62 0 0 0-.62-.6h-6.09q-.73 0-.71-.73l.06-2.19q.02-.58.61-.58h6.14q.63 0 .63-.63v-1.75q0-.64-.64-.63l-5.75.05q-.92 0-1.09-.9-.42-2.18 1.47-2.27 2.69-.12 5.35-.13.66 0 .66-.66v-1.7q0-.63-.62-.63h-5.66q-.96 0-1.18-.93-.56-2.37 1.62-2.23 2.96.19 5.1-.25a1.31 1.31 0 0 0-.26-2.59h-4.98q-1.14 0-1.46-1.1-.37-1.28.21-1.93.41-.47 1.58-.47 2.63.02 5.24-.01a.52.52 0 0 0 .52-.57l-.15-1.47q-.07-.7-.77-.7h-5.49q-.95 0-1.15-.94-.27-1.29.22-1.98.4-.56 1.62-.6 2.48-.07 4.93.15.68.07.68-.61v-1.89a.68.68 0 0 0-.7-.68l-6.13.21a.58.58 0 0 1-.6-.59l.05-2.32a.5.5 0 0 1 .5-.49l6.38-.01q.5-.01.5-.5v-2q0-.5-.5-.5h-5.97a.99.97-8.4 0 1-.94-.69c-1.19-3.91 5.01-2.82 7.02-2.81a.51.51 0 0 0 .51-.58l-.17-1.23q-.09-.67-.77-.67l-5.68-.05a.84.83 78 0 1-.74-.49q-.8-1.81.13-2.57.49-.4 1.75-.4 2.44 0 4.86-.02.5 0 .5-.5V84q0-.75-.75-.75h-5.76q-.52 0-.73-.48c-1.88-4.41 3.92-3.36 6.6-2.98a.57.56-86 0 0 .64-.56V77.5q0-.75-.75-.75h-6.09q-.65 0-.65-.65v-1.95a.65.65 0 0 1 .65-.65h6.34q.5 0 .5-.5v-1.58q0-.58-.58-.6l-5.99-.22q-.48-.01-.67-.46c-1.86-4.35 4.62-3.11 6.68-3.16q.62-.01.6-.63l-.05-1.39a.77.77 0 0 0-.89-.73q-2.29.37-4.55.15-1.38-.14-1.89-.85-.6-.85.02-2.05a.89.89 0 0 1 .79-.48H36q.75 0 .75-.75v-1.37q0-.62-.62-.63l-5.82-.01a1.79 1.7-43.4 0 1 .19-3.49h5.75q.5 0 .5-.5V52.5q0-.75-.75-.75h-6.09q-.65 0-.65-.65v-1.95q0-.65.65-.65h6.13q.67 0 .7-.67c.06-1.84-.15-3.85.22-5.41 1.26-5.33 6.06-5.81 10.85-5.51a.64.64 0 0 0 .69-.64v-6.3a.59.59 0 0 1 .57-.59l1.95-.06q.73-.03.73.7v6.36q0 .62.63.62H54q.75 0 .75-.75v-5.51a1.47 1.46 83.3 0 1 1.12-1.43c3.43-.82 2.38 5.23 2.38 7.14q.01.61.62.57l1.6-.09q.53-.04.53-.57v-6.19a.63.62-5 0 1 .52-.61l1.81-.32a.88.87 84 0 1 1.02.83l.21 6.54q.02.35.37.34l1.56-.05q.61-.02.6-.63l-.12-5.31a1.6 1.6 0 0 1 1.14-1.56c3.71-1.12 2.66 5.12 2.68 6.98q0 .53.53.55l1.51.07q.67.03.67-.64v-6.34a.71.7 1.5 0 1 .75-.7l1.94.1a.56.55-88.9 0 1 .52.55l.14 6.34q.02.69.71.69h1.57q.62 0 .62-.62V30.2q0-.74.74-.75l1.99-.03a.76.76 0 0 1 .77.76v5.98q0 .66.66.69l1.7.08a.6.6 0 0 0 .63-.6l.01-6.33q.01-.76.76-.69l1.79.15q.7.05.7.76v6.05q0 .86.85.74l1.38-.19q.52-.07.52-.6V30.5a1.24 1.23-5.4 0 1 1.01-1.21c3.64-.68 2.49 5.39 2.55 7.33q.01.51.51.4l1.38-.3q.55-.12.55-.68V30.2a.76.75 88 0 1 .7-.76l2.04-.14q.76-.06.76.71v6.27q0 .53.53.57l1.83.13a.59.59 0 0 0 .64-.59v-5.95a1.17 1.16-86.3 0 1 1.31-1.16l1.52.2q.67.08.67.76v6q0 .68.67.7l1.53.06q.8.03.8-.77v-6.22q0-.77.76-.7l1.79.15q.7.05.7.76v6.03q0 .69.69.69h1.18a.77.77 0 0 0 .77-.75l.14-5.72q.01-.51.43-.8 1.3-.91 2.61.01a1.01 1 17.6 0 1 .43.82v6q0 .5.5.5h1.62q.63 0 .63-.63v-6.1q0-.78.78-.83l1.81-.12a.79.79 0 0 1 .84.78l.04 6.14a.77.77 0 0 0 .77.76h1.48q.68 0 .62-.67c-.15-1.91-1.11-6.96 1.85-7.09a1.49 1.49 0 0 1 1.56 1.49v5.39q0 .62.62.69l1.46.15q.67.08.67-.6V30.5a.98.96-16.9 0 1 .44-.81q1.2-.78 2.45-.15.57.29.59.94l.16 5.97q.01.62.63.56l1.29-.14q.69-.07.69-.76c-.01-2.24-1.14-6.89 2.26-6.87a1.24 1.24 0 0 1 1.24 1.24v5.86q0 .87.85.7l1.33-.26q.57-.12.57-.7v-5.87a.73.73 0 0 1 .69-.73l2.07-.14q.74-.05.74.69v6.47q0 .54.53.48c4.46-.56 9.23.29 10.65 4.93.52 1.7.27 3.91.33 5.92q.02.67.7.67h6.05q.51 0 .5.51l-.03 2.1a.65.65 0 0 1-.65.64H164q-.5 0-.5.5v1.88q0 .62.63.62h5.95q.64 0 .65.64l.03 2.06a.78.78 0 0 1-.78.79l-5.73.01a.74.74 0 0 0-.71.57q-.46 1.96.95 2.02 2.83.13 4.76.19a1.7 1.7 0 0 1-.1 3.39l-4.79-.12a.84.84 0 0 0-.86.84v1.36q0 .49.5.5l5.72.01a1.03 1.03 0 0 1 1.03 1.03v1.92a.78.78 0 0 1-.78.78l-5.97.01q-.5.01-.5.5v1.5q0 .75.75.75h5.87q.63 0 .63.63V76q0 .75-.75.75h-5.83q-.64 0-.65.64l-.03 1.63a.54.53 90 0 0 .53.54h6.02q.73 0 .72.73l-.03 2.32a.65.65 0 0 1-.65.64H164q-.5 0-.5.5v1.5q0 .75.75.75h5.87q.63 0 .63.63v2.08q0 .71-.71.72l-5.94.1q-.6.01-.6.62v1.41q0 .69.69.6c2.11-.28 7.39-1.34 6.51 2.56q-.17.78-.97.78H164q-.5 0-.5.5v1.75q0 .75.75.75h5.88q.63 0 .63.63l-.03 2.16q0 .58-.58.57l-5.95-.15a.66.66 0 0 0-.68.65l-.03 2.06q0 .44.43.43l6.14-.14q.68-.02.68.66v2.23a.65.65 0 0 1-.65.65H164q-.5 0-.5.5v1.5q0 .75.75.75H170q.75 0 .75.75v1.96a.78.78 0 0 1-.78.78l-5.97.01q-.5.01-.5.5v1.59a.65.65 0 0 0 .65.65l6.1.01q.5.01.5.5v2q0 .75-.75.75h-6q-.5 0-.5.5v1.75q0 .75.75.75h6q.5 0 .5.5v2.21a.78.77-90 0 1-.77.78L164 127q-.5.01-.5.5v1.5q0 .75.75.75h5.87q.63 0 .63.63v2.12q0 .75-.75.75h-5.87q-.63 0-.63.63v1.62q0 .5.5.5Zm-61.4-38.81.29-8.98q.04-1.14-.9-.48-.91.64-2.09.63-.65-.01-.49.62c1.71 7.03.69 15.76.44 23.02q-.02.51.47.65 9.73 2.87 11.73-6.93c.98-4.8.37-14.35-7.23-10.62a.56.5 3 0 0-.21.17l-1.5 2.09q-.54.75-.51-.17Zm14.382-4.85a2.1 1.59 91.3 0 0 1.638-2.064 2.1 1.59 91.3 0 0-1.542-2.135 2.1 1.59 91.3 0 0-1.638 2.063 2.1 1.59 91.3 0 0 1.542 2.136ZM60.73 110.5q.17.93-.22 1.75a.53.53 0 0 0 .48.75h1.74q.54 0 .55-.54.06-6.81-.19-13.59c-.21-5.96-6.42-4.98-10.35-3.65q-.69.24-.53.95l.27 1.15a.6.59 68.8 0 0 .87.39c3.24-1.81 8.3-2.53 6.99 3.31q-.1.49-.6.48c-2.15-.04-4.63-.23-6.32 1.18-4.94 4.14-.21 15.97 6.66 7.65q.51-.63.65.17Zm8.73-13.06L69.8 95a.5.5 0 0 0-.56-.56l-2.2.33q-.5.08-.45.59.9 8.5.04 17-.07.64.57.64h1.99q.64 0 .58-.63c-.42-4.81-1.7-14.83 4.54-15.39q.66-.06.67-.72l.03-1.45q.01-.81-.76-.58-2.77.81-3.96 3.45a.44.44 0 0 1-.83-.24Zm10.01-1.23.13-1.31a.55.55 0 0 0-.62-.6l-1.94.26q-.42.06-.41.47l.15 17.61q0 .37.37.37l1.94-.03a.7.7 0 0 0 .69-.76q-.51-6.08-.05-12.17c.18-2.35 1.21-3.24 3.53-3.31a1.91 1.9 89 0 1 1.97 1.91l-.04 13.95q0 .41.41.41l1.99-.03a.72.71 89.2 0 0 .7-.73q-.11-6.09-.08-12.18c.02-3.56 5.49-5.05 5.69-.93q.34 6.57-.08 13.19-.04.67.64.67h1.84q.67 0 .64-.68-.3-7.38-.21-14.76c.06-4.89-6.21-3.56-8.29-.84q-.38.5-.65-.07c-1.73-3.75-5.55-2.87-7.74-.2q-.69.85-.58-.24Zm59.97.26.3-1.46a.55.55 0 0 0-.66-.64l-2.02.46q-.46.11-.42.58.79 8.48-.02 16.95-.06.64.58.64h2.05q.58 0 .57-.58c-.07-4.23-1.98-15.89 3.95-16.11a2.36 2.35-.5 0 1 2.44 2.4l-.26 13.76q-.01.53.52.53h2.07q.59 0 .55-.59-.53-7.45-.31-14.91c.14-4.82-6.76-3.63-8.91-.84q-.63.8-.43-.19Zm-20.916-1.573a.26.26 0 0 0-.26-.259l-2.32.004a.26.26 0 0 0-.26.26l.032 17.82a.26.26 0 0 0 .26.26l2.32-.004a.26.26 0 0 0 .26-.26l-.032-17.82Zm12.226 15.833v1.77q0 .5.5.5h1.72q.47 0 .45-.47-.24-6.63-.2-13.23c.03-6.38-6.06-5.27-10.44-4.13q-.59.15-.45.74l.34 1.46q.22.92.95.32 2.83-2.31 6.13-.8a.99.99 0 0 1 .57.81l.24 3.17q.04.48-.44.51l-5.6.41a.82.81 19.8 0 0-.54.25q-4.52 4.61-1.07 10.12a1.31 1.26 83.1 0 0 .66.54q4.19 1.54 6.43-2.17a.4.4 0 0 1 .75.2Z"/><path fill="#f70d00" d="m103.11 97.36 1.5-2.09a.56.5 3 0 1 .21-.17c7.6-3.73 8.21 5.82 7.23 10.62q-2 9.8-11.73 6.93-.49-.14-.47-.65c.25-7.26 1.27-15.99-.44-23.02q-.16-.63.49-.62 1.18.01 2.09-.63.94-.66.9.48l-.29 8.98q-.03.92.51.17Zm6.25 2.61c-.55-3.43-4.79-4.23-5.8-.53q-1.51 5.56-.57 11.51a.61.61 0 0 0 .54.52c6.42.76 6.5-7.36 5.83-11.5Z"/><ellipse fill="#f70d00" rx="2.1" ry="1.59" transform="rotate(91.3 14.407 102.322)"/><path fill="#f70d00" d="M60.08 110.33c-6.87 8.32-11.6-3.51-6.66-7.65 1.69-1.41 4.17-1.22 6.32-1.18q.5.01.6-.48c1.31-5.84-3.75-5.12-6.99-3.31a.6.59 68.8 0 1-.87-.39l-.27-1.15q-.16-.71.53-.95c3.93-1.33 10.14-2.31 10.35 3.65q.25 6.78.19 13.59-.01.54-.55.54h-1.74a.53.53 0 0 1-.48-.75q.39-.82.22-1.75-.14-.8-.65-.17Zm-.42-7.3c-6.72-.58-7.02 7.55-2.58 7.74a1.5 1.49-64.7 0 0 1.08-.39q2.87-2.58 2.26-6.63-.09-.66-.76-.72ZM69.46 97.44a.44.44 0 0 0 .83.24q1.19-2.64 3.96-3.45.77-.23.76.58l-.03 1.45q-.01.66-.67.72c-6.24.56-4.96 10.58-4.54 15.39q.06.63-.58.63H67.2q-.64 0-.57-.64.86-8.5-.04-17-.05-.51.45-.59l2.2-.33a.5.5 0 0 1 .56.56l-.34 2.44ZM80.05 96.45c2.19-2.67 6.01-3.55 7.74.2q.27.57.65.07c2.08-2.72 8.35-4.05 8.29.84q-.09 7.38.21 14.76.03.68-.64.68h-1.84q-.68 0-.64-.67.42-6.62.08-13.19c-.2-4.12-5.67-2.63-5.69.93q-.03 6.09.08 12.18a.72.71 89.2 0 1-.7.73l-1.99.03q-.41 0-.41-.41l.04-13.95a1.91 1.9 89 0 0-1.97-1.91c-2.32.07-3.35.96-3.53 3.31q-.46 6.09.05 12.17a.7.7 0 0 1-.69.76l-1.94.03q-.37 0-.37-.37l-.15-17.61q-.01-.41.41-.47l1.94-.26a.55.55 0 0 1 .62.6l-.13 1.31q-.11 1.09.58.24ZM139.87 96.66c2.15-2.79 9.05-3.98 8.91.84q-.22 7.46.31 14.91.04.59-.55.59h-2.07q-.53 0-.52-.53l.26-13.76a2.36 2.35-.5 0 0-2.44-2.4c-5.93.22-4.02 11.88-3.95 16.11q.01.58-.57.58h-2.05q-.64 0-.58-.64.81-8.47.02-16.95-.04-.47.42-.58l2.02-.46a.55.55 0 0 1 .66.64l-.3 1.46q-.2.99.43.19Z"/><rect width="2.84" height="18.34" x="-1.42" y="-9.17" fill="#f70d00" rx=".26" transform="rotate(-.1 59537.294 -67052.895)"/><path fill="#f70d00" d="M130 110.53q-2.24 3.71-6.43 2.17a1.31 1.26 83.1 0 1-.66-.54q-3.45-5.51 1.07-10.12a.82.81 19.8 0 1 .54-.25l5.6-.41q.48-.03.44-.51l-.24-3.17a.99.99 0 0 0-.57-.81q-3.3-1.51-6.13.8-.73.6-.95-.32l-.34-1.46q-.14-.59.45-.74c4.38-1.14 10.47-2.25 10.44 4.13q-.04 6.6.2 13.23.02.47-.45.47h-1.72q-.5 0-.5-.5v-1.77a.4.4 0 0 0-.75-.2Zm-.41-7.49c-4.94-.47-7.85 4.84-3.48 7.63a1.12 1.08 47.8 0 0 1.08.07q4.26-2.06 3.19-7-.14-.64-.79-.7Z"/><path fill="#231f20" d="M103.56 99.44c1.01-3.7 5.25-2.9 5.8.53.67 4.14.59 12.26-5.83 11.5a.61.61 0 0 1-.54-.52q-.94-5.95.57-11.51ZM60.42 103.75q.61 4.05-2.26 6.63a1.5 1.49-64.7 0 1-1.08.39c-4.44-.19-4.14-8.32 2.58-7.74q.67.06.76.72ZM130.38 103.74q1.07 4.94-3.19 7a1.12 1.08 47.8 0 1-1.08-.07c-4.37-2.79-1.46-8.1 3.48-7.63q.65.06.79.7Z"/></svg>