<?xml version="1.0" standalone="no"?>
<!DOCTYPE svg PUBLIC "-//W3C//DTD SVG 20010904//EN"
 "http://www.w3.org/TR/2001/REC-SVG-20010904/DTD/svg10.dtd">
<svg version="1.0" xmlns="http://www.w3.org/2000/svg"
 width="200.000000pt" height="200.000000pt" viewBox="0 0 200.000000 200.000000"
 preserveAspectRatio="xMidYMid meet">

<g transform="translate(0.000000,200.000000) scale(0.100000,-0.100000)"
fill="#000000" stroke="none">
<path d="M847 1662 c-76 -163 -141 -303 -146 -311 -6 -9 -111 -32 -305 -66
-163 -28 -298 -54 -300 -56 -3 -3 92 -110 209 -239 118 -129 214 -242 215
-251 0 -9 -20 -155 -45 -323 -25 -169 -45 -315 -45 -326 0 -15 56 13 279 137
l280 155 278 -155 c153 -86 279 -155 280 -154 2 2 -82 597 -91 649 -5 23 21
56 210 263 119 131 212 241 207 245 -4 4 -134 28 -288 55 -154 26 -287 51
-296 56 -9 4 -80 145 -159 313 -78 169 -143 306 -144 306 -1 -1 -63 -134 -139
-298z m262 -120 c63 -136 117 -251 121 -255 4 -5 118 -28 254 -52 136 -24 250
-46 254 -49 3 -4 -6 -19 -20 -34 -330 -361 -339 -372 -334 -400 17 -84 78
-534 73 -538 -3 -4 -108 50 -232 120 -125 69 -232 126 -237 126 -6 0 -112 -56
-236 -125 -124 -69 -229 -125 -234 -125 -5 0 -6 15 -3 33 13 77 75 508 75 525
0 9 -81 107 -181 215 -99 109 -179 201 -176 203 2 3 118 25 257 49 139 25 254
46 254 47 1 2 37 80 81 173 43 94 96 207 117 253 21 45 41 82 45 82 5 0 59
-111 122 -248z"/>
<path d="M886 1435 l-99 -214 -91 -16 c-50 -9 -149 -26 -219 -38 l-128 -22
155 -170 156 -170 -6 -67 -7 -67 83 -115 82 -114 33 20 34 19 -43 92 c-24 51
-85 179 -135 286 -51 106 -90 195 -88 197 2 2 83 -113 181 -256 98 -143 182
-260 188 -260 5 0 36 -16 69 -35 l59 -34 -14 32 c-7 18 -68 155 -136 305 -67
150 -120 275 -118 277 2 3 111 -161 242 -363 171 -265 246 -372 268 -385 l31
-18 -6 35 c-3 19 -74 197 -157 395 -84 199 -151 364 -148 366 2 2 43 -60 91
-138 48 -78 103 -167 123 -197 35 -54 35 -55 31 -20 -4 29 1 42 34 82 21 26
39 50 39 55 0 5 -20 60 -45 122 -25 62 -45 117 -43 123 2 5 32 -41 67 -101
l63 -110 52 57 c122 133 139 153 135 156 -2 2 -98 20 -213 39 -115 20 -213 40
-217 44 -4 4 -49 98 -100 208 -51 110 -95 203 -98 207 -4 4 -51 -89 -105 -207z"/>
<path d="M608 425 l-14 -105 45 27 c25 14 50 29 54 33 7 6 -57 150 -67 150 -1
0 -10 -47 -18 -105z"/>
</g>
</svg>
