<?xml version="1.0" encoding="UTF-8"?>
<svg width="512" height="512" version="1.1" viewBox="0 0 512 512" xmlns="http://www.w3.org/2000/svg">
 <path d="m179 166c-1.62 2.43-30 8.65-82.4 17.8-44.1 7.57-80.5 14.6-81.1 15.1-1.9 1.9 114 126 115 132 0 2.43-5.41 41.9-12.2 87.3-6.76 45.7-12.2 85.1-12.2 88.1 0 4.05 15.1-3.51 75.4-37l75.7-41.9 75.1 41.9c41.4 23.2 75.4 41.9 75.7 41.6 0.541-0.541-22.2-161-24.6-175-1.35-6.22 5.68-15.1 56.8-71.1 32.2-35.4 57.3-65.1 55.9-66.2-2.68-2.68-152-26.7-158-30-6.11-2.72-81-167-81.9-167-0.675 0.675-74.5 160-77 165zm143 17.3c2.64 3.3 134 25 137 27.3 0.811 1.08-1.62 5.14-5.41 9.19-89.2 97.6-91.6 101-90.3 108 4.59 22.7 21.1 144 19.7 145-2 2.66-123-66.5-127-66.5-4.36 0-123 67.6-127 67.6-4.33 0 19.5-137 19.5-151 0-6.69-98.8-111-96.5-113 1.21-1.82 138-25.1 138-25.9 17.9-38.4 35.9-76.7 53.5-115 5.68-12.2 11.1-22.2 12.2-22.2 3.15 0 62.8 133 65.7 136z" fill="#0079c1"/>
 <path d="m203 201c-39.4 7-78.9 13.8-118 20.5 27.9 30.7 56 61.3 84.1 91.9-0.975 12.1-2.25 24.2-3.51 36.2 14.9 20.6 29.7 41.2 44.6 61.9 5.9-3.75 12-7.13 18.1-10.5-6.02-13-34.1-72.2-48.1-102-13.8-28.6-24.3-52.7-23.8-53.2 1.44-1.44 95.8 139 99.7 139 1.35 0 9.73 4.32 18.6 9.46l15.9 9.19-3.78-8.65c-4.25-10.9-70.2-156-68.6-157 1.94-2.92 124 194 138 202l8.38 4.86-1.62-9.46c-2.14-13.6-84.4-204-82.4-206 1.44-1.44 46.5 73.5 57.8 90.5 9.46 14.6 9.46 14.9 8.38 5.41-1.08-7.84 0.27-11.4 9.19-22.2 5.68-7.03 10.5-13.5 10.5-14.9 0-4.31-25-62.6-23.8-66.2 0.948-2.37 13.9 20 35.1 57l14.1-15.4c33-35.9 37.6-41.4 36.5-42.2-1.47-1.47-113-19.4-116-22.4-2.63-2.63-51.3-109-53.5-112-1.53-1.53-9.25 14.6-55.1 114z" fill="#0079c1"/>
 <path d="m150 444 12.2-7.3c6.76-3.78 13.5-7.84 14.6-8.92 1.89-1.62-15.4-40.5-18.1-40.5-0.821 0-3.71 19.7-8.65 56.8z" fill="#0079c1"/>
</svg>
