<?xml version="1.0" encoding="UTF-8"?>
<svg width="512" height="512"  version="1.1" viewBox="0 0 512 512" xmlns="http://www.w3.org/2000/svg">
 <path d="m14.58 13.12c-3.29 1.225-1.351 5.941-1.618 8.574 0.01046 2.975 0.7016 5.941 2.788 8.051 0.3691 3.457 3.279 5.97 3.749 9.387 1.062 1.114 2.579 1.39 2.894 3.194 1.459 1.701 2.336 3.615 3.232 5.573 1.686 0.7984 2.216 2.133 3.068 3.741 2.359 1.555 1.274 5.602 4.354 6.216 1.065 2.544 3.402 4.419 3.992 7.177 0.9351 1.211 2.541 1.367 2.703 3.15 2.435 3.016 3.475 6.818 6.669 9.281 1.833 1.836 2.11 5.403 4.906 6.409-0.3311 1.814 1.621 2.68 2.635 3.177 0.5444 2.332 3.41 3.235 3.241 5.953 1.386 3.025 3.434 6 6.289 7.838 2.221 0.8934 3.185 3.261 5.541 3.852 4.471 3.212 8.226 7.47 11.39 11.84-0.02513 2.492 3.191 2.268 3.378 4.714 1.898 2.158 2.281 4.895 3.51 7.344 2.58 2.928 2.16 7.344 4.141 10.67 1.054 3.18 0.4769 6.605-1.402 9.299-0.9524 3.323-1.31 6.841-3.285 9.761-0.7428 5.573-1.026 11.49 0.2007 17 3.051 3.898 1.737 9.483 4.763 13.44 0.5272 3.03-0.08109 6.596 2.652 8.755 0.9752 4.337 1.167 8.896 3.106 12.98 1.129 4.875-1.09 10.79 2.676 14.77 0.8074 3.595 1.394 7.291 3.364 10.47-0.3194 4.363 3.749 6.78 6.061 9.807 1.801 3.112 3.854 6.23 3.141 10.07-0.339 3.711 0.5377 7.271 1.982 10.61 1.249 5.222-0.462 11.25 2.279 16.01 1.776 2.096 1.796 5.433 4.196 7.131 1.245 2.612 3.083 4.933 4.021 7.639 2.312 1.735 1.784 5.43 4.001 7.458 1.67 2.374 0.0704 6.394 3.404 7.543 0.3521 2.807 2.172 5.024 3.39 7.385 0.4682 2.503 2.893 3.896 3.884 6.178 1.349 0.7835 2.127 1.476 2.83 2.841 2.344 0.453 2.371 3.177 4.468 3.966 0.9451 1.242 0.3331 3.817 1.718 5.199 1.715 2.459 1.527 5.833 4.044 7.908 3.524 3.866 7.44 7.943 12 10.33 1.156 3.066 5.205 2.224 6.981 4.714 2.068 1.11 4.5 1.187 6.099 3.028 2.134 0.7774 4.115 1.632 5.663 3.25 3.553 0.4147 6.143 3.416 9.702 3.828 1.375 2.164 3.91 2.353 6.169 2.734 3.89 3.919 9.994 2.017 14.9 2.541 7.75-0.3641 15.72 0.7189 23.34-0.8229 2.875-2.845 7.811-1.188 10.66-4.27 3.34-0.3349 6.058-2.416 9.106-3.589 2.029 0.3606 3.387-1.559 4.725-2.614 3.063-0.8355 5.488-3.028 8.375-4.068 1.674-2.507 5.374-2.258 6.888-4.971 2.842-0.6973 4.95-3.063 7.572-4.17 1.054-1.952 3.624-2.282 4.854-4.068 2.77-0.7478 4.182-3.84 7.244-3.612 2.147-0.4971 2.686-3.486 5.345-2.629 4.693 0.2738 9.842-0.7873 14.3 0.559 1.099 2.483 4.068 1.9 5.996 2.749 1.321 2.408 4.556 2.235 6.113 4.559 1.501 1.807 3.916 3.177 5.418 4.574 0.5544 2.18 3.337 2.04 4.161 4.188 2.024 0.9109 2.476 3.311 4.804 3.974 0.3434 2.375 3.349 2.141 4.12 4.357 6.204 4.012 16.81 14.9 16.81 14.9l87.02 83.61s3.869 2.922 5.123 5.196c1.022 2.823 4.293 3.206 5.836 5.772 0.7133 1.932 2.26 2.712 3.869 3.799 2.236 1.416 2.564 4.606 5.275 5.149 1.069 2.148 3.597 2.475 4.433 4.655 2.567 1.018 4.521 3.258 7.124 4.24 1.404 2.799 5.056 1.919 6.806 4.316 2.402 1.601 5.865 1.674 8.513 0.7598 1.313-2.434 0.9667-6.251-0.7788-8.484-2.225-0.7282-1.539-3.805-3.53-5.062-1.159-1.605-1.209-4.609-3.966-4.351-0.8548-2.881-4.448-2.969-6.151-5.266-1.405-1.708-3.758-2.934-5.126-4.278-0.5503-2.198-3.369-2.029-4.188-4.199-1.365-0.8285-2.425-1.305-3.01-2.889-2.771-1.349-4.714-3.977-7.376-5.675l-94.45-89.1c-2.244-2.547-4.649-5.009-6.464-7.771-2.065-0.6409-2.267-3.226-4.351-4.115-0.3869-1.441-1.604-2.512-2.835-2.922-2.041-3.665-5.71-6.146-7.309-10.08-1.724-0.4325-1.866-1.659-2.456-3.019-1.055-0.8484-2.328-0.9381-2.653-2.549-2.3-2.907-5.24-5.482-6.438-9.024-0.7116-0.996-2.367-0.7212-2.084-2.327-1.449-2.188-3.068-4.509-2.321-7.332 0.7849-3.279 3.103-6.166 2.543-9.767 0.1052-2.109 3.033-2.963 2.572-5.418 0.9398-2.636 2.831-4.907 3.571-7.592 2.638-2.318 3.425-6.271 6.75-8.069 1.474-1.245 4.261-0.5912 4.632-3.042 2.656-1.088 4.506-3.463 7.285-4.097 1.148-1.568 1.909-3.372 3.515-4.696 1.095-2.847 3.723-4.901 4.264-7.996 2.61-2.457 2.089-6.473 4.389-9.074 1.282-3.393 0.7785-7.563 3.361-10.28 0.4322-3.735 0.1727-7.683 2.359-10.98 1.025-4.471 1.489-9.524 0.0304-13.92-1.694-1.388-2.017-3.454-3.103-5.161-2.094-1.379-2.006-4.88-4.509-5.801 0.1102-2.399-1.401-4.085-2.739-5.839-0.6248-3.67-3.86-6.371-3.489-10.25-0.7355-2.596-3.054-4.424-3.08-7.335-0.9521-2.035-2.7-3.402-3.819-5.427-3.045-3.542-6.502-6.865-10.4-9.39-0.5248-2.998-4.696-1.773-6.09-4.208-1.539-0.8311-2.879-1.286-3.603-2.943-1.767-1.175-4.205-0.9027-5.599-2.845-2.075-0.6023-2.447-2.468-4.173-3.516-1.714-0.6605-1.857-2.949-3.618-3.776-0.3594-4.877-4.851-7.963-8.162-11.04-2.963-3.01-7.364-5.038-11.58-5.9-3.974-0.2621-7.691-4.591-11.59-1.671-2.103 1.684-3.606-0.0932-5.418-0.8568-2.864-0.6663-6.219 0.3039-8.428-2.128-2.897-1.218-5.994-1.736-8.603-3.548-2.596-0.4997-4.988-1.314-7.092-2.842-5.386-1.43-11.52 0.0342-16.32-3.232-2.987-0.0549-5.231-2.511-7.612-3.752-1.731-2.446-5.105-2.823-6.952-5.126-1.282-0.2335-2.315-0.2815-2.554-1.783-1.537-1.663-4.138-0.9165-5.546-2.921-7.078-4.363-15.65-0.4895-23.12-2.48-3.057-2.611-7.887-0.9018-10.73-3.887-6.432-1.424-13.2-1.02-19.54-2.995-10.6-0.82-21.42-1.23-31.94 0.4261-6.435 2.456-14.02 0.5403-20.16 4.173-6.756 0.3866-13.76 0.8536-20.41-0.2954-1.904-2.026-4.977-1.706-6.613-3.948-2.072-0.9056-3.936-1.874-5.292-3.72-0.7075-0.2278-14.56-11.57-28.7-27.38l-10.84-11.97c-0.7376-1.902-2.008-3.583-3.428-4.892-0.7142-2.252-3.366-2.987-3.928-5.319-2.414-1.366-2.576-4.366-4.608-6.213-0.4053-1.87-2.191-2.773-3.109-4.085-0.9871-2.543-3.086-4.468-3.866-7.084-2.69-1.657-2.517-5.257-4.714-7.391-0.5184-2.035-0.5205-4.378-2.463-5.646-1.283-2.767-2.196-7.674-5.947-7.969z" style="fill:#5a860a;stroke:#5a860a"/>
 <path d="m253.5 3.474c-11.9 0.3334-23.98-0.2158-35.74 1.901-6.078 2.545-13.21 0.9416-19.14 4.08-3.916 0.8837-8.466 0.1987-11.65 3.066-3.621 0.1342-7.06 1.203-10.28 2.854-2.774 0.9486-6.087 0.2704-8.247 2.711-2.782 0.7882-5.579 1.507-8.03 3.083-2.6 0.5398-5.546 0.7619-7.288 2.99-3.162 0.4857-5.707 2.644-8.67 3.475-2.515 0.2253-3.501 3.051-6.198 3.089-2.361 1.143-4.281 2.849-6.899 3.305-1.605 1.894-3.96 2.446-6.005 3.72-1.309 2.165-4.202 2.022-5.845 3.995-1.699 0.8916-3.974 1.145-4.532 3.34-2.794 0.405-4.331 3.258-7.043 3.84-1.067 0.7873-0.9193 2.508-2.648 2.226-1.786 0.8235-1.919 3.028-3.989 3.527-2.839 2.506-6.172 4.533-8.91 7.031-0.7691 1.58-2.868 2.314-3.834 3.995-3.156 0.638-2.203 4.939-4.424 6.774-0.7992 2.838 1.676 5.97 3.556 8.098 2.295 1.369 4.86 4.343 7.767 2.186 1.865-1.912 5.438-1.561 6.33-4.419 2.417-0.6315 2.418-3.393 4.681-4.065 3.627-3.7 7.975-6.704 12.2-9.533 1.014-1.697 3.399-1.67 4.234-3.665 2.136-0.7809 3.966-2.177 5.657-3.533 2.355-1.374 4.492-3.03 7.031-3.966 1.504-2.476 4.825-2.042 6.756-4.161 2.191-0.8925 4.302-1.743 6.125-3.317 3.41-0.711 6.005-3.34 9.503-3.688 1.625-1.118 2.969-2.649 5.155-2.7 2.846-1.146 5.31-3.256 8.594-2.911 2.161-0.8095 3.638-2.852 6.268-2.706 3.498-0.9118 6.482-3.156 10.27-3.019 3.629-0.7435 6.704-3.156 10.61-2.894 4.094-0.1976 7.279-3.261 11.53-2.722 4.398 0.08077 8.603-1.07 12.65-2.523 19.66-0.9591 39.48-0.8212 59.15-0.4737 4.722 0.2394 9.722 0.09933 13.95 2.392 4.828 1.159 10.26-0.2433 14.59 2.563 3.977 1.129 8.384 0.7446 11.96 3.077 3.302 0.9279 6.815 1.037 9.725 3.001 3.232 0.4822 6.084 1.765 8.939 3.22 2.848 0.162 5.006 1.663 7.414 2.882 3.156-0.07893 4.436 3.665 7.648 3.235 2.848 0.7768 5.161 2.876 7.975 3.682 2.066 2.327 5.444 2.296 7.694 4.468 1.866 0.6432 3.51 1.18 4.696 2.865 2.815 0.7908 5.053 2.925 7.557 4.258 1.447 2.396 4.76 2.062 6.382 4.424 1.383 0.683 2.523 0.986 3.036 2.54 1.589 1.165 3.667 1.438 4.915 3.215 2.438 0.9732 3.913 3.203 6.102 4.606 0.2653 2.583 3.682 1.889 4.737 4.007 10.12 8.358 19.37 17.82 27.59 27.98 0.2367 1.947 3.121 1.6 2.865 3.755 0.7405 1.476 2.729 1.139 2.963 3.071 2.898 3.06 4.816 6.9 7.329 10.18 1.878 1.2 2.636 3.907 4.12 5.652 0.1964 2.761 3.223 3.764 3.796 6.479 1.366 1.557 2.27 3.153 2.842 5.097 2.391 1.598 2.054 5.196 4.436 6.856 0.469 2.182 1.015 4.538 2.916 5.804 0.4471 2.459 1.819 4.5 3.144 6.45 0.7122 3.945 3.551 6.982 4.138 10.99 1.836 2.464 2.062 5.409 3.048 8.209 2.207 3.162 1.857 7.347 4.053 10.51 0.7724 3.884 1.02 7.943 3.095 11.4 0.7501 5.047 1.418 10.13 3.258 14.93 1.031 5.83-1.227 12.79 2.711 18.01 1.018 15.25 0.3156 30.74 0.3825 46.03 0.2312 3.776-0.5234 7.382-1.992 10.8-1.32 6.172 0.0675 12.89-1.992 18.82-2.508 4.851-0.8436 10.9-3.922 15.58-0.9661 3.539-0.8895 7.338-2.981 10.48-0.851 2.63-0.9801 5.611-3.06 7.586-0.4646 3.346-1.793 6.391-3.334 9.401-0.3369 3.258-3.276 5.403-3.527 8.773-1.948 1.681-2.398 4.492-3.743 6.534-1.881 1.733-1.889 4.705-3.831 6.575-0.3375 2.587-3.349 3.425-3.515 6.043-2.288 2.841-3.91 6.038-6.026 9.024-0.2502 2.074-2.943 2.526-3.144 4.682-2.916 1.697-3.425 5.637-5.885 7.984-3.293 2.984-3.735 8.472-2.055 12.39 1.327 3.647 5.234 4.486 8.694 3.972 5.006 0.3609 7.285-5.263 9.81-8.414 1.787-1.063 1.999-3.367 4.053-3.966 0.7989-2.575 2.696-4.559 4.053-6.911 0.7405-1.566 2.696-2.232 2.774-4.24 1.951-2.032 2.517-5.073 4.833-6.558 0.9442-2.21 1.478-4.574 3.498-6.102 0.8308-2.946 3.098-5.439 4.053-8.39 2.523-1.687 2.063-5.257 4.097-7.426 1.071-2.558 1.841-5.178 3.504-7.379 0.4337-2.506 1.439-4.652 2.762-6.742 0.5745-2.88 1.32-5.681 3.042-8.077 0.6476-2.793 0.5824-5.903 2.694-8.095 1.067-3.729 0.9433-7.791 2.984-11.19 1.049-4.588 0.6286-9.504 2.78-13.8 1.347-7.56 0.8708-15.25 3.103-22.61 0.8831-18 0.5067-36.06 0.251-54.06-0.0336-4.965-2.619-9.436-2.306-14.49 0.097-5.062-1.429-9.813-2.722-14.6-0.3799-3.901-0.7247-7.852-2.534-11.37-0.8358-3.633-0.7764-7.695-3.252-10.65-0.6689-3.051-0.3115-6.643-2.785-8.94-0.6142-3.142-1.487-6.236-3.288-8.922-0.36-2.226-0.6552-4.579-2.414-6.204-0.981-2.26-0.8866-5.108-2.969-6.672-0.8811-2.329-0.6058-5.354-3.048-6.742-0.6753-2.522-2.07-4.685-3.486-6.792-0.043-2.901-2.789-4.527-3.618-7.113-2.187-1.608-1.915-4.465-3.486-6.347-2.075-1.608-2.694-4.614-4.562-6.467-0.4696-2.267-3.095-3.165-3.466-5.628-0.7954-1.788-2.776-2.388-2.814-4.492-1.215-1.205-2.946-1.61-3.431-3.586-1.719-3.182-4.524-5.666-6.169-8.715-2.086-0.382-2.168-3.226-4.091-3.922-5.152-6.979-11.85-12.75-17.88-19-2.655-2.782-6.008-5.36-8.708-7.809-0.5058-2.15-3.188-1.904-4.03-3.922-3.419-1.975-6.262-4.983-9.582-7.245-1.901-1.934-4.345-2.812-6.216-4.766-2.578-0.9445-4.088-3.229-6.66-4.156-0.7101-2.625-4.389-1.638-5.736-3.875-1.871-1.077-3.673-1.938-5.126-3.504-2.367-0.4375-3.866-2.098-5.754-3.34-3.29-0.41-5.468-3.416-8.828-3.91-1.357-1.37-2.975-2.333-4.994-2.466-2.338-1.682-5.269-2.512-7.724-3.72-1.302-3.104-5.535-0.8256-7.592-3.133-2.928-1.598-6.344-1.908-9.109-3.825-2.741-1.009-5.88-0.789-8.156-2.791-3.615-1.004-7.499-1.118-10.75-3.185-3.732-0.7937-7.747-0.3121-11.15-2.414-5.763-1.62-11.81-1.099-17.35-3.334-13.55-1.631-27.29-1.392-40.91-1.49zm-202.8 108.8c-3.168 0.1657-5.292 2.9-7.928 4.144-0.7174 2.887-3.343 4.933-3.983 7.855-2.632 1.204-1.66 4.597-3.869 6.049-1.423 2.147-1.721 4.81-3.79 6.502-0.8401 3.609-3.197 6.622-4.544 10.08-2.459 1.797-1.488 5.588-3.933 7.414-0.796 2.28-1.141 4.728-3.083 6.342-0.7092 2.448-0.9538 4.994-2.591 7.101-1.08 2.895-1.643 5.921-3.378 8.487-0.4418 3.136-1.459 5.982-2.842 8.779-0.5991 3.635-1.278 7.227-2.877 10.55-0.8352 4.474-0.8305 9.127-2.785 13.31-1.181 6.409-0.8767 12.77-3.054 18.95-0.879 16.77-0.5517 33.61-0.2112 50.38 0.353 4.693 2.553 9.027 2.34 13.84 0.01134 4.629 1.089 9.071 2.563 13.38 0.2928 4.763 1.432 9.346 3.071 13.8 0.4293 3.045 0.7881 6.245 2.768 8.671 0.476 3.144 0.9743 6.344 2.865 8.966 0.4348 3.6 2.139 6.765 3.539 9.989 0.09889 3.396 3.136 5.643 3.454 8.989 1.159 2.079 2.632 3.925 2.643 6.42 0.6943 1.808 2.894 2.604 2.802 4.839 0.4372 2.567 3.308 3.758 2.934 6.546 0.6937 2.116 3.112 2.987 3.334 5.418 1.385 1.749 2.337 3.548 3.197 5.547 2.376 1.725 2.498 5.152 4.965 6.821 1.152 2.486 2.898 4.664 3.898 7.186 1.36 0.7362 2.217 1.344 2.586 2.928 1.738 1.622 2.465 3.761 3.755 5.599 2.092 1.296 2.584 4.068 4.719 5.52 3.74 3.901 6.897 8.414 10.24 12.5 2.138 0.1356 0.9401 3.361 3.252 3.396 2.343 1.236 3.463 3.679 4.965 5.547 2.969 0.7382 4.015 3.963 5.982 5.778 2.289-0.3314 1.785 2.661 3.808 2.975 5.394 3.472 9.614 8.522 14.9 12.07 1.262 1.048 2.297 2.696 4.161 2.963 1.369 1.566 3.714 2.445 4.965 3.802 1.011 2.183 4.024 2.082 5.532 3.995 2.822 1.106 4.509 3.571 7.504 4.48 1.227 1.338 2.636 2.271 4.436 2.654 1.366 1.928 4.109 1.957 5.646 3.39 0.9933 3.007 4.944 1.34 6.581 3.726 2.303 1.215 4.752 1.866 6.701 3.635 2.187 0.6564 4.176 1.314 5.88 2.803 2.482 0.4866 4.594 1.549 6.575 3.025 2.981 0.6692 5.754 1.637 8.413 3.109 4.027 0.55 7.151 3.612 11.35 3.606 2.378 0.668 4.144 2.75 6.856 2.631 2.727-0.0263 5.053 1.076 7.3 2.334 4.158 0.7472 8.46 0.7876 12.29 2.763 5.491 1.123 11.27 0.8802 16.5 3.127 9.5 0.8226 19.02 0.9264 28.58 1.53 17.52 0.0175 35.07-0.318 52.54-1.741 6.324-2.241 13.38-1.422 19.79-3.486 4.155-2.481 9.717-0.5252 13.56-3.694 3.279-0.8782 6.914-0.9921 9.6-3.226 2.902-0.6257 6.324-0.4983 8.39-2.975 4.079-0.4553 7.373-3.34 11.43-3.834 1.569-1.149 2.804-2.74 4.971-2.831 2.345-0.988 4.176-2.753 6.768-3.036 1.453-0.8156 2.016-2.571 3.91-2.574 2.02-1.36 3.898-2.796 6.233-3.466 1.155-1.627 2.677-2.298 4.43-3.185 2.709-2.105 5.92-3.323 8.317-5.906 1.718-2.012 5.175-1.551 5.918-4.468 2.357-0.7303 3.515-3.358 4.915-5.176 0.6674-2.609 1.134-6.309-1.547-7.844-3.159-5.339-11.18-4.252-15.34-0.7762-1.022 1.625-3.483 1.933-4.497 3.802-2.565 1.018-4.567 3.06-7.072 4.132-2.605 3.407-7.61 3.983-10.55 7.186-3.098 0.3051-4.866 3.355-8.007 3.641-2.293 1.071-4.024 2.993-6.736 3.168-2.18 1.522-4.509 2.507-7.151 3.071-3.133 2.303-7.218 2.343-10.42 4.503-3.586 0.6093-7.124 1.39-10.35 3.089-4.48 0.6546-8.945 1.453-13.14 3.18-5.216 0.59-10.85-0.2601-15.65 2.551-14.42 1.381-29.03 0.5854-43.54 0.936-11.6-0.3302-23.36 0.7265-34.8-1.478-5.152-3.253-12.03-0.3343-17.16-3.711-3.971-1.117-8.375-0.7344-11.93-3.095-3.317-0.9395-6.841-1.063-9.778-3.019-2.934-0.6146-5.748-1.377-8.252-3.025-2.603-0.5748-5.117-1.128-7.244-2.751-1.898-0.8063-4.512-0.3852-5.257-2.711-2.328-1.279-5.394-0.7198-7.396-2.888-1.929-1.088-4.199-1.055-5.582-2.975-2.084-0.8507-4.231-1.258-5.935-2.911-1.917-0.7627-3.624-1.478-4.696-3.203-2.003-0.4427-3.966-0.9922-5.307-2.74-1.499-0.77-2.896-1.198-3.819-2.706-1.958-0.8747-3.98-1.487-5.406-3.299-2.357-1.079-3.895-3.384-6.569-4.007-0.9982-1.428-2.404-2.347-3.892-3.06-1.319-2.005-3.787-2.385-5.172-4.413-2.44-1.524-4.193-3.735-6.677-5.091-1.747-1.904-3.89-3.673-5.748-5.257-0.4921-2.072-2.972-1.732-3.413-3.744-1.473-1.19-2.786-2.088-3.591-3.79-2.192-0.4378-2.453-3.416-4.681-3.846-0.6616-2.4-3.445-2.682-4.252-5.024-4.778-5.1-9.053-10.8-13.39-16.16-0.7379-2.063-3.001-3.066-3.533-5.383-1.36-1.489-2.359-2.957-3.282-4.687-2.67-1.331-1.625-5.567-4.79-6.415-0.4345-2.839-3.279-4.483-3.814-7.364-2.457-2.303-2.654-5.924-4.982-8.367-0.1467-1.998-1.112-3.764-2.586-4.933-0.5479-2.767-2.182-5.038-3.442-7.455 0.3089-2.186-1.528-3.492-2.54-5.012 0.3986-3.106-1.757-5.272-3.025-7.779-0.06417-2.701-1.071-5.114-2.54-7.312-0.5631-3.051-1.545-5.944-2.922-8.682-0.7849-3.206-0.1857-7.066-2.58-9.521-1.647-4.164-0.1532-9.486-2.963-13.05-1.861-5.956 0.3153-12.45-1.998-18.23-2.192-5.249-1.378-11.34-1.918-16.93-0.01891-11.87-0.7417-23.95 1.547-35.65 3.276-5.628-0.27-12.78 2.975-18.53 1.699-4.69 0.8401-10.09 3.796-14.31 0.915-3.256 0.1636-7.119 2.705-9.664 0.531-3.355 1.867-6.336 3.349-9.325 0.3101-2.364 1.019-4.451 2.551-6.233 0.5929-2.163 0.9521-4.422 2.882-5.783 0.8749-2.833 1.535-5.734 3.252-8.276 0.3577-2.821 3.235-4.369 3.378-7.265 1.607-2.166 2.475-4.769 3.916-6.941 1.879-1.947 1.842-4.886 4.036-6.689 0.7808-2.348 2.019-4.299 3.299-6.426 0.505-2.029 1.482-3.6 2.66-5.161 0.6487-2.969-2.218-4.942-3.042-7.534-1.37-0.773-2.399-1.622-3.46-2.825-0.7972-0.5102-1.768-0.7084-2.705-0.6622z" style="fill:#ff6600;stroke:#ff6600"/>
</svg>
