<?xml version="1.0" encoding="UTF-8"?>
<svg width="512" height="512" version="1.1" viewBox="0 0 512 512" xmlns="http://www.w3.org/2000/svg">
 <path d="m215.8 237.4 18.45 18.34-18.45 18.34h-129.8v61.11l-79.19-79.45 79.19-78.12v59.77zm57.08-156.1h157.8v157.8h-157.8z" fill="#932279"/>
 <path d="m274.6 215.8-18.34 18.45-18.34-18.45v-129.8h-61.11l79.45-79.19 78.11 79.19h-59.77zm-1.72 57.08h157.8v157.8h-157.8z" fill="#efa724"/>
 <path d="m296.2 274.6-18.45-18.34 18.45-18.34h129.8v-61.11l79.19 79.45-79.19 78.11v-59.77zm-214.9-1.72h157.8v157.8h-157.8z" fill="#262577"/>
 <path d="m237.4 296.2 18.34-18.45 18.34 18.45v129.8h61.11l-79.45 79.19-78.11-79.19h59.77zm-156.1-214.9h157.8v157.8h-157.8z" fill="#9ccd2a"/>
 <path d="m75.69 75.69h169v169h-169zm11.27 157.8h146.5v-146.5h-146.5zm180.3-157.8h169v169h-169zm11.27 157.8h146.5v-146.5h-146.5zm-11.27 33.81h169v169h-169zm11.27 157.8h146.5v-146.5h-146.5zm-202.8-157.8h169v169h-169zm11.27 157.8h146.5v-146.5h-146.5z" fill="#fff"/>
 <path d="m120.5 375.5-119.5-119.5 119.5-119.5 119.5 119.5zm-103.6-119.5 103.6 103.6 103.6-103.6-103.6-103.6zm239.1-15.94-119.5-119.5 119.5-119.5 119.5 119.5zm-103.6-119.5 103.6 103.6 103.6-103.6-103.6-103.6zm239.1 255-119.5-119.5 119.5-119.5 119.5 119.5zm-103.6-119.5 103.6 103.6 103.6-103.6-103.6-103.6zm-31.87 255-119.5-119.5 119.5-119.5 119.5 119.5zm-103.6-119.5 103.6 103.6 103.6-103.6-103.6-103.6z" fill="#fff"/>
</svg>
