<?xml version="1.0" encoding="UTF-8"?>
<svg width="512" height="512" version="1.1" viewBox="0 0 512 512" xmlns="http://www.w3.org/2000/svg">
 <path d="m296 270c-8.45 0.118 1.6 4.36 12.6 6.05a113 113 0 0 0 8.28-7.13c-6.87 1.68-13.9 1.72-20.9 1.08m45.4-11.3c5.03-6.95 8.7-14.6 9.99-22.4-1.13 5.61-4.17 10.4-7.04 15.6-15.8 9.95-1.49-5.91-9e-3 -11.9-17 21.4-2.33 12.8-2.95 18.8m16.7-43.6c1.02-15.2-3-10.4-4.34-4.6 1.58 0.818 2.82 10.7 4.34 4.6m-94.1-208c4.52 0.809 9.74 1.43 9.01 2.51 4.94-1.08 6.05-2.08-9.01-2.51m9.01 2.51-3.19 0.658 2.97-0.263 0.221-0.395" fill="#a80030"/>
 <path d="m414 221c0.503 13.7-4 20.3-8.06 32l-7.3 3.65c-5.97 11.6 0.578 7.37-3.7 16.6-9.33 8.3-28.3 26-34.4 27.6-4.44-0.0988 3.01-5.23 3.98-7.25-12.5 8.58-10 12.9-29.1 18.1l-0.56-1.24c-47.1 22.2-113-21.8-112-81.7-0.508 3.8-1.43 2.86-2.48 4.39-2.43-30.8 14.2-61.8 42.4-74.4 27.5-13.6 59.7-8.03 79.4 10.3-10.8-14.2-32.4-29.2-57.9-27.8-25 0.395-48.4 16.3-56.2 33.5-12.8 8.06-14.3 31.1-19.9 35.3-7.51 55.2 14.1 79 50.7 107 5.76 3.88 1.62 4.47 2.4 7.43-12.2-5.7-23.3-14.3-32.4-24.8 4.85 7.11 10.1 14 16.9 19.4-11.5-3.88-26.8-27.8-31.2-28.8 19.8 35.4 80.2 62.1 112 48.8-14.6 0.541-33.2 0.301-49.7-5.78-6.91-3.56-16.3-10.9-14.6-12.3 43.2 16.1 87.8 12.2 125-17.7 9.5-7.4 19.9-20 22.9-20.2-4.52 6.8 0.771 3.27-2.7 9.27 9.47-15.3-4.12-6.22 9.79-26.4l5.14 7.07c-1.91-12.7 15.7-28.1 14-48.1 4.05-6.13 4.52 6.6 0.221 20.7 5.96-15.6 1.57-18.2 3.1-31.1 1.66 4.34 3.83 8.95 4.94 13.5-3.88-15.1 3.99-25.5 5.94-34.3-1.92-0.851-6 6.69-6.93-11.2 0.141-7.76 2.16-4.07 2.94-5.98-1.52-0.875-5.52-6.82-7.95-18.2 1.76-2.68 4.71 6.95 7.11 7.35-1.54-9.07-4.2-16-4.31-23-7.01-14.6-2.48 1.95-8.16-6.29-7.46-23.3 6.19-5.4 7.11-16 11.3 16.4 17.8 41.8 20.7 52.3-2.26-12.8-5.91-25.2-10.4-37.2 3.43 1.44-5.53-26.4 4.47-7.95-10.7-39.3-45.7-76-77.9-93.2 3.94 3.61 8.92 8.14 7.13 8.85-16-9.54-13.2-10.3-15.5-14.3-13-5.31-13.9 0.428-22.6 0.0094-24.6-13-29.3-11.7-52-19.8l1.02 4.81c-16.3-5.43-19 2.06-36.6 0.0188-1.07-0.837 5.64-3.03 11.2-3.83-15.8 2.08-15-3.1-30.4 0.574 3.8-2.67 7.81-4.43 11.9-6.7-12.8 0.781-30.7 7.48-25.2 1.39-21 9.35-58.2 22.5-79 42.1l-0.658-4.39c-9.58 11.5-41.7 34.3-44.3 49.2l-2.56 0.597c-4.98 8.43-8.2 18-12.2 26.7-6.51 11.1-9.55 4.27-8.62 6.01-12.8 26-19.2 47.8-24.7 65.7 3.92 5.86 0.094 35.2 1.58 58.8-6.43 116 81.5 229 178 255 14.1 5.04 35 4.85 52.9 5.37-21-6.02-23.8-3.19-44.2-10.3-14.8-6.96-18-14.9-28.5-24l4.14 7.32c-20.5-7.27-11.9-8.99-28.6-14.3l4.42-5.78c-6.65-0.503-17.6-11.2-20.6-17.2l-7.28 0.287c-8.75-10.8-13.4-18.6-13.1-24.6l-2.35 4.19c-2.67-4.58-32.2-40.5-16.9-32.1-2.84-2.6-6.63-4.23-10.7-11.7l3.11-3.56c-7.37-9.48-13.6-21.6-13.1-25.7 3.93 5.31 6.66 6.3 9.36 7.21-18.6-46.2-19.6-2.54-33.8-47l2.98-0.24c-2.28-3.44-3.67-7.18-5.51-10.8l1.3-12.9c-13.4-15.5-3.75-65.9-1.82-93.5 1.34-11.2 11.2-23.2 18.7-42l-4.56-0.785c8.72-15.2 49.8-61.1 68.8-58.7 9.22-11.6-1.83-0.0423-3.63-2.96 20.2-20.9 26.6-14.8 40.2-18.6 14.7-8.74-12.6 3.41-5.66-3.33 25.5-6.5 18-14.8 51.3-18.1 3.5 1.99-8.13 3.08-11 5.67 21.2-10.4 67.1-8.02 97 5.76 34.6 16.2 73.5 64 75 109l1.74 0.47c-0.884 17.9 2.74 38.6-3.54 57.6l4.27-8.99" fill="#a80030"/>
 <path d="m204 282-1.18 5.92c5.55 7.54 9.96 15.7 17 21.6-5.1-9.96-8.89-14.1-15.9-27.5m13.1-0.517c-2.94-3.25-4.68-7.16-6.63-11.1 1.86 6.85 5.68 12.7 9.23 18.7l-2.6-7.66m232-50.5-1.24 3.11a150 150 0 0 1-14.7 47 148 148 0 0 0 16-50.1m-184-228c5.7-2.09 14-1.15 20.1-2.52-7.9 0.663-15.8 1.06-23.5 2.06l3.42 0.466m-201 107c1.32 12.2-9.17 16.9 2.32 8.88 6.16-13.9-2.41-3.83-2.32-8.88m-13.5 56.4c2.65-8.13 3.13-13 4.14-17.7-7.32 9.35-3.37 11.4-4.14 17.7" fill="#a80030"/>
</svg>
