<?xml version="1.0" encoding="UTF-8"?>
<svg width="512" height="512" version="1.1" viewBox="0 0 512 512" xmlns="http://www.w3.org/2000/svg">
 <circle cx="92.1" cy="299" r="41.3" fill="#ff6309"/>
 <circle cx="388" cy="470" r="41.3" fill="#ffb515"/>
 <path d="m390 313c-7.04 49.5-49.7 87.6-101 87.6-13.4 0-26.3-2.61-38-7.34l-35.4 61.3c22.7 10.7 47.6 16.3 73.4 16.3 13.5 0 26.7-1.55 39.5-4.55 0.988-19.4 11.5-37.9 29.5-48.3 18-10.4 39.2-10.2 56.5-1.45 26.9-28.6 43-64.8 46.2-104z" fill="#c90016"/>
 <path d="m187 299c0-32.5 15.3-61.5 39-80.2l-35.4-61.3c-8.3 5.79-16.1 12.4-23.5 19.7-20.5 20.5-35.2 45.2-43.2 72.2 16.3 10.5 27.1 28.8 27.1 49.7s-10.8 39.1-27.1 49.7c8.08 27 22.8 51.7 43.2 72.2 7.3 7.3 15.1 13.9 23.4 19.7l35.4-61.3c-23.8-18.7-39-47.7-39-80.2z" fill="#ffb515"/>
 <circle cx="388" cy="128" r="41.3" fill="#c90016"/>
 <path d="m415 181c-0.0632 0.0316-0.126 0.0587-0.19 0.0902-6.61 4.32-15.5 5.69-23 6.33-39.2 3.37-76.4-35-76.4-94.4 0-37.5 5.69-69.7 20.9-92 0.0316-0.0767 0.0677-0.144 0.104-0.221-29.7 24.8-54.6 61.9-68.5 107-2.22 7.16-4.04 14.3-5.59 21.4-5.48 25.3-6.82 50.1-4.39 73.2 1.68-0.55 3.38-1.05 5.11-1.52 8.42-2.25 17.2-3.48 26.4-3.48 51.4 0 94 38.2 101 87.6h70.7c-3.21-38.9-19.3-75.1-46.3-104z" fill="#ff6309"/>
</svg>
