<?xml version="1.0" encoding="UTF-8" standalone="no"?>
<svg
   xmlns:svg="http://www.w3.org/2000/svg"
   xmlns="http://www.w3.org/2000/svg"
   version="1.0"
   width="92"
   height="114"
   id="svg2">
  <defs
     id="defs42" />
  <circle
     cx="9.1420002"
     cy="66.044998"
     r="9.1420002"
     transform="translate(0.54,0.4874983)"
     id="circle13"
     style="fill:#ff6309" />
  <circle
     cx="74.693001"
     cy="103.882"
     r="9.1429996"
     transform="translate(0.54,0.4874983)"
     id="circle15"
     style="fill:#ffb515" />
  <path
     d="M 75.774,69.733498 C 74.214,80.695498 64.768,89.152498 53.381,89.152498 C 50.406,89.152498 47.563,88.573498 44.958,87.525498 L 37.117,101.1065 C 42.139,103.4725 47.664,104.7215 53.381,104.7215 C 56.368,104.7215 59.302,104.3785 62.14,103.7135 C 62.359,99.422498 64.678,95.323498 68.677,93.016498 C 72.671,90.709498 77.372,90.745498 81.196,92.695498 C 87.159,86.364498 90.726,78.342498 91.436,69.733498 L 75.774,69.733498 z"
     id="path17"
     style="fill:#c90016" />
  <path
     d="M 30.762,66.532498 C 30.762,59.325498 34.149,52.895498 39.416,48.750498 L 31.576,35.171498 C 29.737,36.455498 27.997,37.909498 26.379,39.529498 C 21.842,44.066498 18.588,49.544498 16.798,55.522498 C 20.405,57.858498 22.794,61.915498 22.794,66.532498 C 22.794,71.149498 20.405,75.206498 16.798,77.542498 C 18.588,83.520498 21.842,88.999498 26.379,93.535498 C 27.996,95.153498 29.735,96.608498 31.572,97.892498 L 39.412,84.310498 C 34.147,80.166498 30.762,73.737498 30.762,66.532498 z"
     id="path19"
     style="fill:#ffb515" />
  <circle
     cx="74.684998"
     cy="28.195"
     r="9.1420002"
     transform="translate(0.54,0.4874983)"
     id="circle21"
     style="fill:#c90016" />
  <path
     d="M 81.204,40.415498 C 81.19,40.422498 81.176,40.428498 81.162,40.435498 C 79.697,41.392498 77.718,41.697498 76.062,41.838498 C 67.367,42.584498 59.136,34.084498 59.136,20.921498 C 59.136,12.605498 60.397,5.4684983 63.774,0.53649828 C 63.781,0.51949828 63.789,0.50449828 63.797,0.48749828 C 57.218,5.9804983 51.7,14.196498 48.618,24.120498 C 48.125,25.707498 47.722,27.291498 47.38,28.869498 C 46.166,34.465498 45.868,39.967498 46.407,45.081498 C 46.78,44.959498 47.157,44.848498 47.539,44.745498 C 49.404,44.247498 51.361,43.974498 53.382,43.974498 C 64.772,43.974498 74.222,52.432498 75.788,63.396498 L 91.46,63.396498 C 90.748,54.779498 87.176,46.750498 81.204,40.415498 z"
     id="path39"
     style="fill:#ff6309" />
</svg>