<?xml version="1.0" encoding="UTF-8"?>
<svg width="512" height="512" version="1.1" viewBox="0 0 512 512" xmlns="http://www.w3.org/2000/svg">
 <path d="m296 1c42.2 60.8 220 296 98.7 345-56.5 26.5-314-15.5-310-8.67-18.5 30.9-33.1 55.8-33.1 55.8s198 9.11 352-12c219-30-45-316-107-380z" style="fill:#7f7fff"/>
 <path d="m296 1c-14 1.97-271 325-271 325s18.5 5.37 60.7 11.6c13.7-10.8 206-341 211-336-0.0987-0.133-0.258-0.182-0.482-0.151z" style="fill:#ff7f7f"/>
 <path d="m296 1c-8.86-1.47-211 336-211 336s184 19.8 259 18.5c213-3.67 1.62-288-47.6-355-0.0644-0.0673-0.139-0.102-0.229-0.116z" style="fill:#7f3fbf"/>
 <path d="m294 428c-6.19 0-11.2 5.1-11.2 11.3v59.9c0.122 6.12 5.12 11.2 11.2 11.2h6.07c5.94-0.254 10.7-5.1 10.8-11.2v-59.9c0-6.12-4.87-11.1-10.8-11.3h-0.0288zm-261 0.781c-1.99 0-3.61 1.59-3.75 3.51l-0.0047 0.0673v77.3h18.9c2.92 0 4.7-1.46 5.46-2.83l0.0288-0.0576c0.436-0.893 1.68-3.88 2.53-5.87l0.853-1.96h-17.2v-25.6c0-0.177 0.319-0.505 0.495-0.505h3.29c2.92 0 4.63-1.52 5.36-2.83l0.0288-0.0576c0.233-0.475 0.607-1.39 1.08-2.54 0.478-1.14 1.03-2.45 1.46-3.43l0.853-1.96h-12.5v-21.8c0-0.462 0.0404-0.505 0.495-0.505h6.33c2.95 0 4.75-1.57 5.41-3.06l3.51-7.76zm36.5 0v80.8h10.6v-32.3l5.72 26.4c0.16 0.763 0.419 2.24 1.37 3.61 0.95 1.37 2.73 2.51 5.21 2.51h4.97v-80.8h-10.6v32.6l-5.38-27.1v-5e-3c-0.232-1.19-0.587-2.61-1.69-3.73-1.1-1.13-2.83-1.74-5.24-1.74zm44.1 0v80.8h16.6c6.09 0 11-5 11.1-11.2v-58.4c-0.122-6.19-5.02-11.2-11.1-11.2zm51.4 0c-1.99 0-3.61 1.58-3.78 3.51l-5e-3 0.0673v77.3h18.9c2.92 0 4.7-1.46 5.46-2.83l0.0288-0.0576c0.436-0.89 1.68-3.88 2.53-5.87l0.853-1.96h-17.2v-25.6c0-0.182 0.317-0.505 0.49-0.505h3.29c2.92 0 4.63-1.53 5.36-2.83l0.0288-0.0576c0.232-0.472 0.611-1.39 1.09-2.54 0.48-1.14 1.03-2.45 1.46-3.43l0.853-1.96h-12.5v-21.8c0-0.467 0.0413-0.505 0.49-0.505h6.33c2.95 0 4.75-1.55 5.41-3.03l5e-3 -0.01 3.51-7.76zm43.6 0-12 81h11.4l5.7-44.5 5.7 44.5h11.4l-11.3-75.6v-5e-3c-0.171-1.11-0.387-2.4-1.23-3.53-0.84-1.14-2.35-1.88-4.29-1.88zm28.5 0 0.243 1.61 10.9 72.6v0.01c0.0404 0.251 0.253 1.87 1.06 3.41 0.809 1.55 2.48 3.21 4.99 3.21h5.12l12.1-80.8h-10.6l-6.6 44.3-5.97-40-5e-3 -0.0192c-0.514-3.01-2.37-4.18-3.65-4.18zm94.3 0c-1.95 0-3.48 1.59-3.65 3.51l-5e-3 0.0673v66.9c0 6.22 5.04 11 11.1 11h7.38v-0.398c5.19-0.771 9.4-4.97 9.4-10.6v-70.4h-10.6v68.9c0 1.59-1.23 2.83-2.8 2.83h-1.2c-1.56 0-2.68-1.21-2.68-2.83v-68.9zm40.7 0v80.8h10.6v-33.6h2.8c0.775 0 1.38 0.209 1.83 0.674 0.448 0.465 0.853 1.31 0.853 2.96v30.1h10.6v-31.3s0.0673-1.6-0.3-3.43c-0.261-1.31-0.938-2.71-1.97-3.9 0.305-0.298 0.792-0.431 0.999-0.773 0.546-0.9 0.834-1.89 1.01-2.81 0.353-1.84 0.256-3.51 0.256-3.51v-24c0-6.24-4.99-11.2-11-11.2zm-75 9.03h1.14c1.56 0 2.78 1.22 2.78 2.96v56.9c0 1.74-1.23 2.96-2.78 2.96h-1.14c-1.6-0.0769-2.85-1.37-2.85-2.96v-56.9c0-1.59 1.26-2.88 2.85-2.96zm85.8 1.22h2.8c0.799 0 1.48 0.222 1.92 0.597 0.438 0.376 0.758 0.9 0.758 2.03v21c0 1.52-0.368 2.16-0.775 2.51-0.407 0.363-1.06 0.555-1.9 0.555h-2.8zm-258 0.56h3.78c0.865 0 1.58 0.232 2.03 0.607 0.448 0.376 0.76 0.893 0.76 2.02v54c0 1.2-0.324 1.74-0.77 2.12-0.446 0.381-1.16 0.611-2.02 0.611h-3.78z" style="color-rendering:auto;color:#000000;dominant-baseline:auto;fill:#280b0b;font-feature-settings:normal;font-variant-alternates:normal;font-variant-caps:normal;font-variant-ligatures:normal;font-variant-numeric:normal;font-variant-position:normal;image-rendering:auto;isolation:auto;mix-blend-mode:normal;shape-padding:0;shape-rendering:auto;solid-color:#000000;stroke-width:.256;text-decoration-color:#000000;text-decoration-line:none;text-decoration-style:solid;text-indent:0;text-orientation:mixed;text-transform:none;white-space:normal"/>
 <path d="m422 428c-6.19 0-11.2 5.1-11.2 11.3v59.9c0.122 6.12 5.12 11.2 11.2 11.2h6.07c5.94-0.254 10.7-5.1 10.8-11.2v-59.9c0-6.12-4.87-11.1-10.8-11.3h-0.0288zm44.6 0c-6.26 0-11.2 5.55-11.2 11.8v7.96s-0.312 5.72 3.68 13.2l9.4 18 0.01 0.0192s0.804 1.43 1.62 3.43c0.813 1.99 1.59 4.55 1.59 6.49v8.93c0 1.74-1.23 2.96-2.8 2.96-1.56 0-2.78-1.25-2.78-2.83v-15.8l-1.92 0.87c-0.987 0.448-2.27 1.03-3.39 1.53-1.11 0.5-2.18 0.947-2.29 0.985l-0.124 0.0481-0.105 0.0673c-1.31 0.746-2.9 2.56-2.9 5.57v8.06c0.122 6.07 4.87 11 10.8 11.3h4.97c6.19 0 11.2-5.1 11.2-11.3v-9.85s0.314-5.72-3.65-13.2l-9.4-18.1-0.01-0.0288s-0.802-1.4-1.61-3.36c-0.811-1.96-1.59-4.48-1.59-6.42v-7.49c0-1.74 1.24-2.96 2.8-2.96s2.8 1.22 2.8 2.96v11.1l1.89-0.815c2.12-0.912 5.12-2.32 5.87-2.71l0.0576-0.0384c1.32-0.746 2.87-2.56 2.87-5.57v-3.01c0-6.12-4.77-11.6-10.8-11.8h-0.0192zm-42.4 9.82h1.14c1.56 0 2.78 1.22 2.78 2.96v56.9c0 1.74-1.23 2.96-2.78 2.96h-1.14c-1.6-0.0769-2.85-1.37-2.85-2.96v-56.9c0-1.59 1.26-2.88 2.85-2.96z" style="fill:#7f7fff;font-feature-settings:normal;font-variant-caps:normal;font-variant-ligatures:normal;font-variant-numeric:normal;stroke-width:.256"/>
</svg>
