<?xml version="1.0" encoding="UTF-8"?>
<svg width="512" height="512" version="1.1" viewBox="0 0 512 512" xmlns="http://www.w3.org/2000/svg">
 <path d="m511 256c0-141-114-255-255-255-141 0-255 114-255 255v197c0.0766 32 26 57.8 58 57.8h197c141-0.0556 255-114 255-255" fill="#294172"/>
 <path d="m331 89.4c-50.6 0-91.6 41.1-91.6 91.6v91.6h91.6c50.6 0 91.6-41.1 91.6-91.6 0-50.6-41.1-91.6-91.6-91.6zm-183 183h91.6v91.6c0 50.6-41.1 91.6-91.6 91.6-50.6 0-91.6-41.1-91.6-91.6 0-50.6 41.1-91.6 91.6-91.6z" style="fill:none;stroke-width:56;stroke:#3c6eb4"/>
 <path id="b" d="m331 61.7c-66.1 0-120 53.6-120 120v63.5h-50.1c-15.6 0-28.3 12.3-28.3 27.9 0 15.5 12.5 27.8 28 27.8l41.5 8e-3a8.91 8.91 0 0 1 8.93 8.9v54.9c-0.0632 34.8-28.3 63.1-63.2 63.1-11.8 0-14.7-1.55-22.8-1.55-16.9 0-28.3 11.3-28.3 27 0.0038 12.9 11.1 24 24.6 27.5 9.28 2.43 16.4 3.56 26.4 3.56 66.1 0 120-53.6 120-120v-63.6h50.1c15.6 0 28.3-12.3 28.3-27.9 0-15.5-12.5-27.8-28-27.8l-41.5-0.0115a8.91 8.91 0 0 1-8.93-8.9v-54.9c0.0632-34.8 28.3-63.1 63.2-63.1 11.8 0 14.7 1.55 22.8 1.55 16.9 0 28.3-11.3 28.3-27-4e-3 -12.9-11.1-24-24.6-27.5-9.28-2.43-16.4-3.56-26.4-3.56z" fill="#fff"/>
</svg>
