<?xml version="1.0" encoding="UTF-8"?>
<svg width="512" height="512" version="1.1" viewBox="0 0 512 512" xmlns="http://www.w3.org/2000/svg">
 <path d="m377 122h-121l-0.00194 389 130-92-23.1-63.4 54 41.5 82-58.1z" fill="#2c2c2c"/>
 <path d="m13.1 339 243 172 14.6-43.7 6.16-248-20.7-46.3 5e-5 -12-97.1-38.9h-24.3z" fill="#d3506f"/>
 <path d="m135 122 121-41.2 57.7 19.6-18.9 16.8 82.6 4.86-121 50.8" fill="#a61200"/>
 <path d="m232 49.6h72.9l-9.71-48.6z" fill="#00a67c"/>
 <path d="m256 122v-121l-48.6 24.3z" fill="#edbb60"/>
 <path d="m386 419-31.9-44.3-98 136 0.00177-338 161 224z" fill="#fff"/>
 <path d="m295 407v-115l41.4 57.4z" fill="#96caf3"/>
 <path d="m256 122h121l-63.7-21.6" fill="#530900"/>
</svg>
