<?xml version="1.0" encoding="UTF-8"?>
<svg width="512" height="512" version="1.1" viewBox="0 0 512 512" xmlns="http://www.w3.org/2000/svg" xmlns:xlink="http://www.w3.org/1999/xlink">
 <defs>
  <linearGradient id="ag" x1="84.99" x2="104" y1="236.8" y2="236.8" gradientTransform="matrix(4.922 0 0 4.922 -1.255 -954.7)" gradientUnits="userSpaceOnUse" xlink:href="#b"/>
  <linearGradient id="b">
   <stop style="stop-color:#2972e2" offset="0"/>
   <stop style="stop-color:#26c7fc" offset="1"/>
  </linearGradient>
  <linearGradient id="af" x1="60.4" x2="73.89" y1="249.9" y2="249.9" gradientTransform="matrix(4.767 -1.227 1.227 4.767 -313.5 -825.1)" gradientUnits="userSpaceOnUse" xlink:href="#a"/>
  <linearGradient id="a">
   <stop style="stop-color:#26c4fb" offset="0"/>
   <stop style="stop-color:#2977e3" offset="1"/>
  </linearGradient>
  <linearGradient id="ae" x1="60.4" x2="74" y1="249.9" y2="246.4" gradientTransform="matrix(4.922 0 0 4.922 -1.255 -954.7)" gradientUnits="userSpaceOnUse" xlink:href="#a"/>
  <linearGradient id="ad" x1="64.39" x2="84.99" y1="228.1" y2="228.1" gradientTransform="matrix(4.922 0 0 4.922 -1.255 -954.7)" gradientUnits="userSpaceOnUse" xlink:href="#b"/>
  <linearGradient id="ac" x1="84.36" x2="84.15" y1="234.1" y2="238" gradientTransform="matrix(4.922 0 0 4.922 -1.255 -954.7)" gradientUnits="userSpaceOnUse" xlink:href="#a"/>
  <linearGradient id="ab" x1="9.442" x2="50.31" y1="230.9" y2="223.5" gradientTransform="matrix(4.922 0 0 4.922 -1.255 -954.7)" gradientUnits="userSpaceOnUse" xlink:href="#a"/>
  <linearGradient id="aa" x1="26.04" x2="64.63" y1="222.3" y2="222.3" gradientTransform="matrix(4.922 0 0 4.922 -1.255 -954.7)" gradientUnits="userSpaceOnUse" xlink:href="#a"/>
  <linearGradient id="z" x1="84.99" x2="94.99" y1="226.4" y2="226.4" gradientTransform="matrix(4.922 0 0 4.922 -1.255 -954.7)" gradientUnits="userSpaceOnUse" xlink:href="#c"/>
  <linearGradient id="c">
   <stop style="stop-color:#279ff0" offset="0"/>
   <stop style="stop-color:#8de1fd" offset="1"/>
  </linearGradient>
  <linearGradient id="y" x1="84.99" x2="104" y1="228.6" y2="228.6" gradientTransform="matrix(4.922 0 0 4.922 -1.553 -955.5)" gradientUnits="userSpaceOnUse" xlink:href="#c"/>
  <linearGradient id="x" x1="96.59" x2="104" y1="242.8" y2="242.8" gradientTransform="matrix(4.922 0 0 4.922 -1.255 -954.7)" gradientUnits="userSpaceOnUse" xlink:href="#c"/>
  <linearGradient id="w" x1="68.42" x2="87.14" y1="213.7" y2="213.7" gradientTransform="matrix(4.922 0 0 4.922 -1.255 -954.7)" gradientUnits="userSpaceOnUse" xlink:href="#a"/>
  <linearGradient id="v" x1="49.31" x2="78.71" y1="210.4" y2="210.4" gradientTransform="matrix(4.922 0 0 4.922 -1.255 -954.7)" gradientUnits="userSpaceOnUse" xlink:href="#c"/>
  <linearGradient id="u" x1="26.04" x2="68.75" y1="215.5" y2="215.5" gradientTransform="matrix(4.922 0 0 4.922 -1.255 -954.7)" gradientUnits="userSpaceOnUse" xlink:href="#a"/>
  <linearGradient id="t" x1="68.47" x2="87.14" y1="219.5" y2="218.3" gradientTransform="matrix(4.922 0 0 4.922 -1.255 -954.7)" gradientUnits="userSpaceOnUse" xlink:href="#b"/>
  <linearGradient id="s" x1="73.07" x2="87.14" y1="226.4" y2="226.4" gradientTransform="matrix(4.922 0 0 4.922 -1.255 -954.7)" gradientUnits="userSpaceOnUse" xlink:href="#b"/>
  <linearGradient id="r" x1="64.01" x2="84.99" y1="229.4" y2="229.4" gradientTransform="matrix(4.922 0 0 4.922 -1.255 -954.7)" gradientUnits="userSpaceOnUse" xlink:href="#b"/>
  <linearGradient id="q" x1="60.74" x2="31.6" y1="229.8" y2="237.8" gradientTransform="matrix(4.922 0 0 4.922 -1.255 -954.7)" gradientUnits="userSpaceOnUse" xlink:href="#b"/>
  <linearGradient id="p" x1="74.36" x2="73.3" y1="245.4" y2="232.3" gradientTransform="matrix(4.922 0 0 4.922 -1.255 -954.7)" gradientUnits="userSpaceOnUse" xlink:href="#a"/>
  <linearGradient id="o" x1="15.98" x2="61.03" y1="239.5" y2="227.7" gradientTransform="matrix(4.922 0 0 4.922 -1.255 -954.7)" gradientUnits="userSpaceOnUse" xlink:href="#a"/>
  <linearGradient id="n" x1=".454" x2="47.83" y1="245.3" y2="245.3" gradientTransform="matrix(4.922 0 0 4.922 -1.255 -954.7)" gradientUnits="userSpaceOnUse" xlink:href="#a"/>
  <linearGradient id="m" x1="3.069" x2="47.83" y1="248.2" y2="248.2" gradientTransform="matrix(4.922 0 0 4.922 -1.255 -954.7)" gradientUnits="userSpaceOnUse" xlink:href="#a"/>
  <linearGradient id="l" x1="25.75" x2="35.37" y1="247.4" y2="259.5" gradientTransform="matrix(4.922 0 0 4.922 -1.255 -954.7)" gradientUnits="userSpaceOnUse" xlink:href="#c"/>
  <linearGradient id="k" x1="26.82" x2="47.83" y1="250.6" y2="257.9" gradientTransform="matrix(4.922 0 0 4.922 -1.255 -954.7)" gradientUnits="userSpaceOnUse" xlink:href="#a"/>
  <linearGradient id="j" x1="47.83" x2="72.47" y1="252.6" y2="252.6" gradientTransform="matrix(4.922 0 0 4.922 -1.255 -954.7)" gradientUnits="userSpaceOnUse" xlink:href="#a"/>
  <linearGradient id="i" x1="47.83" x2="69.11" y1="255.7" y2="255.7" gradientTransform="matrix(4.922 0 0 4.922 -1.255 -954.7)" gradientUnits="userSpaceOnUse" xlink:href="#b"/>
  <linearGradient id="h" x1="29.91" x2="50.26" y1="255.2" y2="262.2" gradientTransform="matrix(4.922 0 0 4.922 -1.255 -954.7)" gradientUnits="userSpaceOnUse" xlink:href="#a"/>
  <linearGradient id="g" x1="47.83" x2="65.87" y1="258.9" y2="258.9" gradientTransform="matrix(4.922 0 0 4.922 -1.255 -954.7)" gradientUnits="userSpaceOnUse" xlink:href="#b"/>
  <linearGradient id="f" x1="39.27" x2="52.93" y1="261.4" y2="261.1" gradientTransform="matrix(4.922 0 0 4.922 -1.255 -954.7)" gradientUnits="userSpaceOnUse" xlink:href="#a"/>
  <linearGradient id="e" x1="47.83" x2="60.35" y1="260.4" y2="260.4" gradientTransform="matrix(4.922 0 0 4.922 -1.255 -954.7)" gradientUnits="userSpaceOnUse" xlink:href="#a"/>
  <linearGradient id="d" x1="54.12" x2="73.56" y1="231.5" y2="257.9" gradientTransform="matrix(4.767 -1.227 1.227 4.767 -313.1 -825.1)" gradientUnits="userSpaceOnUse" xlink:href="#a"/>
 </defs>
 <path d="m233.4 445c-30.47-10.15-69.82-22.95-70.53-22.95-0.5447 0-1.176 1.137-2.186 3.939-0.7813 2.166-1.421 4.094-1.421 4.287 0 0.1913-0.2592 0.7038-0.5757 1.138-0.6588 0.9038 1.611 2.041-32.7-16.38-25.49-13.68-26.15-14.01-26.96-13.34-0.3473 0.2892-3.305 4.275-6.573 8.853l-5.942 8.327-0.6339-1.519c-0.663-1.588-11.79-33.23-21.87-62.18-3.239-9.306-6.074-16.92-6.301-16.92-0.6086 0-8.252 5.303-21.46 14.89-6.437 4.672-11.77 8.433-11.85 8.358-0.081-0.0767 3.613-8.603 8.21-18.95 14.69-33.05 15.75-35.62 14.85-35.62-0.1473 0-7.379 3.642-16.06 8.093-8.69 4.453-15.8 7.983-15.8 7.851 0-0.133 2.582-8.18 5.738-17.88s5.738-17.91 5.738-18.24c1.04e-4 -0.7503 0.412-0.8747-12.14 3.659-5.541 2.002-10.23 3.584-10.41 3.517-0.3519-0.1285 4.918-5.938 26.63-29.36 12.09-13.04 13.4-14.63 18.32-22.11 12.66-19.27 23.05-35.49 23.05-35.97 0-0.2941-0.4449-0.4222-1.033-0.2967-0.5681 0.121-5.455 1.191-10.86 2.377s-10.12 2.096-10.47 2.021c-0.3585-0.0752 11.7-7.84 26.81-17.26 56.55-35.26 67.96-42.22 71.03-43.24 1.155-0.395 2.101-0.824 2.101-0.9537 0-0.1296-4.804-0.0854-10.67 0.0975-5.87 0.1833-10.57 0.2374-10.44 0.1202 0.2699-0.2506 52.69-41.01 74.58-57.95 17.63-13.66 33.06-25.41 36.12-27.5 1.806-1.229 2.575-1.463 4.82-1.462 1.469 3.4e-4 16.51 0.9303 33.43 2.067 77.91 5.232 105.7 7.205 106.6 7.579 0.5303 0.2208 10.19 11.85 21.47 25.84l20.5 25.44 18.93 8.728c10.41 4.801 18.96 8.758 19 8.796 0 0 1.524 2.638 0.389 1.249l1.296 1.483c2.501 2.861 42.68 56.62 42.87 57.38 0.1731 0.6623-5.054 45.7-5.591 48.2-0.189 0.8754-26.82 26.71-26.82 29.06-0.082-0.0824 0.5613-10.29 1.431-22.68s2.996-24.72 1.87-26.75l-2.332-4.226-1.991-0.2672c-2.189-0.2937-41.69-2.815-94.05-5.999-18.56-1.129-35.45-2.176-37.53-2.326l-3.788-0.2722v1.435c0 1.51 4.419 40.22 10.58 92.76l3.673 31.29-1.607 2.325c-0.8838 1.279-5.198 7.295-9.59 13.37l-7.983 11.05 2.332 4.188-10.18 12.68c-5.598 6.974-10.18 13.03-10.18 13.47 0 0.4336 0.9737 3.089 2.164 5.904l2.164 5.114-1.522 1.198c-0.8373 0.6585-7.545 5.16-14.9 9.998l-13.38 8.804 0.1183 1.558c0.0648 0.8573 0.7511 4.116 1.524 7.242 0.7726 3.127 1.331 5.761 1.24 5.851-0.1806 0.1814-17.07-2.066-34.73-4.623-6.158-0.8906-11.45-1.619-11.77-1.619-0.44 0-0.5164 1.383-0.3303 5.988 0.1379 3.404 0.0652 5.965-0.1683 5.938-0.2257-0.0265-6.607-2.11-14.18-4.634z" fill="#297be5"/>
 <path d="m408.2 193.6 102.5 7.197-32.71 24.21z" fill="url(#ag)"/>
 <path d="m299.4 212.9 56.13 129-93.21-131.4z" fill="url(#af)"/>
 <path d="m340.4 212.2 15.28 130-59.61-133.7z" fill="url(#ae)"/>
 <path d="m315.7 153.2 101.4 43.7-58.67-56.89z" fill="url(#ad)"/>
 <path d="m478.1 224.6-61.39-28.82-184.5 13.35z" fill="url(#ac)"/>
 <path d="m44.96 212.5 101.5-62.94 263.8-17.23z" fill="url(#ab)"/>
 <path d="m336.4 99.9s-197.3 47.44-209.4 50.24l10.11-1.468-9.991 1.46 231.7-10.14-12.37-21.72h3e-3z" fill="url(#aa)"/>
 <path d="m466.4 140.7-49.22 55.91 10.58-73.75z" fill="url(#z)"/>
 <path d="m511 200.8-45.25-60.29-48.99 55.64z" fill="url(#y)"/>
 <path d="m474.4 280.2 3.935-55.26 32.71-24.21-6.067 49.71-30.58 29.75" fill="url(#x)"/>
 <path d="m427.9 123-41.73-51.56-51.9 29.06z" fill="url(#w)"/>
 <path d="m241.5 61.73 94.69 38.4 50.01-28.52z" fill="url(#v)"/>
 <path d="m126.9 150.2 114.6-88.72 95.37 38.67z" fill="url(#u)"/>
 <path d="m427.9 123-69.59 17.57-21.95-40.48z" fill="url(#t)"/>
 <path d="m427.9 123-73.11 17.68 62.52 56.06z" fill="url(#s)"/>
 <path d="m321.2 191 95.9 5.817-101.5-44.26z" fill="url(#r)"/>
 <path d="m321.8 191-277.9 58.93 272.1-97.49z" fill="url(#q)"/>
 <path d="m234.5 209.5 87.73-18.57 96.73 5.496z" fill="url(#p)"/>
 <path d="m315.9 152.4-243.6 53.9-28.46 43.39z" fill="url(#o)"/>
 <path d="m234.2 209.5-190.4 40.45-42.83 46.19z" fill="url(#n)"/>
 <path d="m13.85 324.8 220.3-115.3-207.4 77.04z" fill="url(#m)"/>
 <path d="m22.15 363.7 25.58-56.96 186.4-97.56z" fill="url(#l)"/>
 <path d="m86.01 420.4-29.06-83.5 177.2-127.6z" fill="url(#k)"/>
 <path d="m355.5 341.8-19.1 26.4-102.2-158.8z" fill="url(#j)"/>
 <path d="m317.8 398.1-83.58-188.7 104.7 162.8z" fill="url(#i)"/>
 <path d="m158.9 433.3-59.46-31.96 134.8-192z" fill="url(#h)"/>
 <path d="m323 409.9-88.79-200.5 57.8 220.6z" fill="url(#g)"/>
 <path d="m234.2 209.5 14.8 241.1-86.37-28.2z" fill="url(#f)"/>
 <path d="m234.2 209.5 14 228.8 47.93 6.812z" fill="url(#e)"/>
 <path d="m275 123.3c47.97-22.01 90.64 45.47 116 18.05-11.07 17.69-36.84 19.3-54.81 19.36 0 0-27.57-0.6566-23.96-23.8-5.957-9.839-24.83-9.647-37.25-13.62z"/>
 <path d="m320 130.1a14.61 14.61 0 0 0-6.071 11.83 14.61 14.61 0 0 0 14.61 14.61 14.61 14.61 0 0 0 14.6-14.61 14.61 14.61 0 0 0-0.4351-3.489 11.9 14.44 0 0 1-11.13 9.397 11.9 14.44 0 0 1-11.9-14.44 11.9 14.44 0 0 1 0.3263-3.296z" fill="#fff"/>
 <path d="m448.7 155.5s-16.61 4.15-14.53 13.49c0 0 6.747-0.5186 14.53-13.49z"/>
 <path d="m264.4 211.4 91.17 130.7-121.5-132.6z" fill="url(#d)"/>
</svg>
