<?xml version="1.0" encoding="UTF-8"?>
<svg width="512" height="512" version="1.1" viewBox="0 0 512 512" xmlns="http://www.w3.org/2000/svg" xmlns:xlink="http://www.w3.org/1999/xlink">
 <defs>
  <linearGradient id="ag" x1="84.99" x2="104" y1="236.8" y2="236.8" gradientTransform="matrix(1.302 0 0 1.302 -.3266 -252.6)" gradientUnits="userSpaceOnUse" xlink:href="#b"/>
  <linearGradient id="b">
   <stop style="stop-color:#2972e2" offset="0"/>
   <stop style="stop-color:#26c7fc" offset="1"/>
  </linearGradient>
  <linearGradient id="af" x1="60.4" x2="73.89" y1="249.9" y2="249.9" gradientTransform="matrix(1.261 -.3247 .3247 1.261 -82.94 -218.3)" gradientUnits="userSpaceOnUse" xlink:href="#a"/>
  <linearGradient id="a">
   <stop style="stop-color:#26c4fb" offset="0"/>
   <stop style="stop-color:#2977e3" offset="1"/>
  </linearGradient>
  <linearGradient id="ae" x1="60.4" x2="74" y1="249.9" y2="246.4" gradientTransform="matrix(1.302 0 0 1.302 -.3266 -252.6)" gradientUnits="userSpaceOnUse" xlink:href="#a"/>
  <linearGradient id="ad" x1="64.39" x2="84.99" y1="228.1" y2="228.1" gradientTransform="matrix(1.302 0 0 1.302 -.3266 -252.6)" gradientUnits="userSpaceOnUse" xlink:href="#b"/>
  <linearGradient id="ac" x1="84.36" x2="84.15" y1="234.1" y2="238" gradientTransform="matrix(1.302 0 0 1.302 -.3266 -252.6)" gradientUnits="userSpaceOnUse" xlink:href="#a"/>
  <linearGradient id="ab" x1="9.442" x2="50.31" y1="230.9" y2="223.5" gradientTransform="matrix(1.302 0 0 1.302 -.3266 -252.6)" gradientUnits="userSpaceOnUse" xlink:href="#a"/>
  <linearGradient id="aa" x1="26.04" x2="64.63" y1="222.3" y2="222.3" gradientTransform="matrix(1.302 0 0 1.302 -.3266 -252.6)" gradientUnits="userSpaceOnUse" xlink:href="#a"/>
  <linearGradient id="z" x1="84.99" x2="94.99" y1="226.4" y2="226.4" gradientTransform="matrix(1.302 0 0 1.302 -.3266 -252.6)" gradientUnits="userSpaceOnUse" xlink:href="#c"/>
  <linearGradient id="c">
   <stop style="stop-color:#279ff0" offset="0"/>
   <stop style="stop-color:#8de1fd" offset="1"/>
  </linearGradient>
  <linearGradient id="y" x1="84.99" x2="104" y1="228.6" y2="228.6" gradientTransform="matrix(1.302 0 0 1.302 -.4054 -252.8)" gradientUnits="userSpaceOnUse" xlink:href="#c"/>
  <linearGradient id="x" x1="96.59" x2="104" y1="242.8" y2="242.8" gradientTransform="matrix(1.302 0 0 1.302 -.3266 -252.6)" gradientUnits="userSpaceOnUse" xlink:href="#c"/>
  <linearGradient id="w" x1="68.42" x2="87.14" y1="213.7" y2="213.7" gradientTransform="matrix(1.302 0 0 1.302 -.3266 -252.6)" gradientUnits="userSpaceOnUse" xlink:href="#a"/>
  <linearGradient id="v" x1="49.31" x2="78.71" y1="210.4" y2="210.4" gradientTransform="matrix(1.302 0 0 1.302 -.3266 -252.6)" gradientUnits="userSpaceOnUse" xlink:href="#c"/>
  <linearGradient id="u" x1="26.04" x2="68.75" y1="215.5" y2="215.5" gradientTransform="matrix(1.302 0 0 1.302 -.3266 -252.6)" gradientUnits="userSpaceOnUse" xlink:href="#a"/>
  <linearGradient id="t" x1="68.47" x2="87.14" y1="219.5" y2="218.3" gradientTransform="matrix(1.302 0 0 1.302 -.3266 -252.6)" gradientUnits="userSpaceOnUse" xlink:href="#b"/>
  <linearGradient id="s" x1="73.07" x2="87.14" y1="226.4" y2="226.4" gradientTransform="matrix(1.302 0 0 1.302 -.3266 -252.6)" gradientUnits="userSpaceOnUse" xlink:href="#b"/>
  <linearGradient id="r" x1="64.01" x2="84.99" y1="229.4" y2="229.4" gradientTransform="matrix(1.302 0 0 1.302 -.3266 -252.6)" gradientUnits="userSpaceOnUse" xlink:href="#b"/>
  <linearGradient id="q" x1="60.74" x2="31.6" y1="229.8" y2="237.8" gradientTransform="matrix(1.302 0 0 1.302 -.3266 -252.6)" gradientUnits="userSpaceOnUse" xlink:href="#b"/>
  <linearGradient id="p" x1="74.36" x2="73.3" y1="245.4" y2="232.3" gradientTransform="matrix(1.302 0 0 1.302 -.3266 -252.6)" gradientUnits="userSpaceOnUse" xlink:href="#a"/>
  <linearGradient id="o" x1="15.98" x2="61.03" y1="239.5" y2="227.7" gradientTransform="matrix(1.302 0 0 1.302 -.3266 -252.6)" gradientUnits="userSpaceOnUse" xlink:href="#a"/>
  <linearGradient id="n" x1=".454" x2="47.83" y1="245.3" y2="245.3" gradientTransform="matrix(1.302 0 0 1.302 -.3266 -252.6)" gradientUnits="userSpaceOnUse" xlink:href="#a"/>
  <linearGradient id="m" x1="3.069" x2="47.83" y1="248.2" y2="248.2" gradientTransform="matrix(1.302 0 0 1.302 -.3266 -252.6)" gradientUnits="userSpaceOnUse" xlink:href="#a"/>
  <linearGradient id="l" x1="25.75" x2="35.37" y1="247.4" y2="259.5" gradientTransform="matrix(1.302 0 0 1.302 -.3266 -252.6)" gradientUnits="userSpaceOnUse" xlink:href="#c"/>
  <linearGradient id="k" x1="26.82" x2="47.83" y1="250.6" y2="257.9" gradientTransform="matrix(1.302 0 0 1.302 -.3266 -252.6)" gradientUnits="userSpaceOnUse" xlink:href="#a"/>
  <linearGradient id="j" x1="47.83" x2="72.47" y1="252.6" y2="252.6" gradientTransform="matrix(1.302 0 0 1.302 -.3266 -252.6)" gradientUnits="userSpaceOnUse" xlink:href="#a"/>
  <linearGradient id="i" x1="47.83" x2="69.11" y1="255.7" y2="255.7" gradientTransform="matrix(1.302 0 0 1.302 -.3266 -252.6)" gradientUnits="userSpaceOnUse" xlink:href="#b"/>
  <linearGradient id="h" x1="29.91" x2="50.26" y1="255.2" y2="262.2" gradientTransform="matrix(1.302 0 0 1.302 -.3266 -252.6)" gradientUnits="userSpaceOnUse" xlink:href="#a"/>
  <linearGradient id="g" x1="47.83" x2="65.87" y1="258.9" y2="258.9" gradientTransform="matrix(1.302 0 0 1.302 -.3266 -252.6)" gradientUnits="userSpaceOnUse" xlink:href="#b"/>
  <linearGradient id="f" x1="39.27" x2="52.93" y1="261.4" y2="261.1" gradientTransform="matrix(1.302 0 0 1.302 -.3266 -252.6)" gradientUnits="userSpaceOnUse" xlink:href="#a"/>
  <linearGradient id="e" x1="47.83" x2="60.35" y1="260.4" y2="260.4" gradientTransform="matrix(1.302 0 0 1.302 -.3266 -252.6)" gradientUnits="userSpaceOnUse" xlink:href="#a"/>
  <linearGradient id="d" x1="54.12" x2="73.56" y1="231.5" y2="257.9" gradientTransform="matrix(1.261 -.3247 .3247 1.261 -82.82 -218.3)" gradientUnits="userSpaceOnUse" xlink:href="#a"/>
 </defs>
 <g transform="matrix(3.78 0 0 3.78 -.02053 .1118)" style="stroke-width:.2646">
  <path d="m61.75 117.7c-8.06-2.685-18.47-6.071-18.66-6.071-0.1441 0-0.3111 0.3009-0.5784 1.042-0.2067 0.573-0.3758 1.083-0.3758 1.134 0 0.0506-0.06856 0.1862-0.1523 0.3011-0.1743 0.2391 0.4263 0.5399-8.652-4.334-6.744-3.62-6.919-3.707-7.133-3.53-0.09189 0.0765-0.8744 1.131-1.739 2.342l-1.572 2.203-0.1677-0.4018c-0.1754-0.4202-3.119-8.791-5.785-16.45-0.857-2.462-1.607-4.477-1.667-4.477-0.161 0-2.183 1.403-5.677 3.94-1.703 1.236-3.114 2.231-3.136 2.211-0.02143-0.0203 0.9557-2.276 2.172-5.012 3.885-8.744 4.167-9.422 3.929-9.422-0.03898 0-1.952 0.9636-4.25 2.141-2.299 1.178-4.18 2.112-4.18 2.077 0-0.0352 0.6831-2.164 1.518-4.73s1.518-4.738 1.518-4.826c2.74e-5 -0.1985 0.109-0.2314-3.212 0.9681-1.466 0.5295-2.706 0.9481-2.755 0.9303-0.0931-0.034 1.301-1.571 7.044-7.766 3.198-3.45 3.546-3.87 4.846-5.849 3.349-5.098 6.099-9.389 6.099-9.515 0-0.0778-0.1177-0.1117-0.2733-0.0785-0.1503 0.032-1.443 0.315-2.872 0.6288s-2.676 0.5544-2.771 0.5346c-0.09483-0.0199 3.096-2.074 7.092-4.565 14.96-9.328 17.98-11.17 18.79-11.44 0.3056-0.1045 0.5557-0.218 0.5557-0.2523s-1.271-0.0226-2.823 0.0258c-1.553 0.0485-2.796 0.0628-2.763 0.0318 0.0714-0.0663 13.94-10.85 19.73-15.33 4.663-3.615 8.745-6.722 9.555-7.274 0.4777-0.3252 0.6811-0.387 1.275-0.3868 0.3887 9e-5 4.368 0.2461 8.843 0.5467 20.61 1.384 27.95 1.906 28.19 2.005 0.1403 0.0584 2.696 3.134 5.679 6.835l5.424 6.729 5.007 2.309c2.754 1.27 5.016 2.317 5.026 2.327 0 0 0.4032 0.698 0.1029 0.3304l0.3428 0.3923c0.6616 0.757 11.29 14.98 11.34 15.18 0.0458 0.1752-1.337 12.09-1.479 12.75-0.05 0.2316-7.096 7.067-7.096 7.687-0.0217-0.0218 0.1485-2.722 0.3785-6s0.7925-6.539 0.4947-7.078l-0.617-1.118-0.5268-0.0707c-0.5791-0.0777-11.03-0.7448-24.88-1.587-4.909-0.2988-9.377-0.5757-9.928-0.6153l-1.002-0.072v0.3796c0 0.3995 1.169 10.64 2.8 24.54l0.9716 8.278-0.4252 0.615c-0.2338 0.3383-1.375 1.93-2.537 3.538l-2.112 2.923 0.6168 1.108-2.693 3.355c-1.481 1.845-2.693 3.448-2.693 3.563 0 0.1147 0.2576 0.8172 0.5725 1.562l0.5725 1.353-0.4027 0.3168c-0.2215 0.1742-1.996 1.365-3.942 2.645l-3.54 2.329 0.03129 0.4123c0.01713 0.2268 0.1987 1.089 0.4031 1.916 0.2044 0.8273 0.352 1.524 0.328 1.548-0.04778 0.048-4.515-0.5466-9.189-1.223-1.629-0.2356-3.03-0.4284-3.113-0.4284-0.1164 0-0.1366 0.366-0.08737 1.584 0.03647 0.9005 0.01726 1.578-0.04453 1.571-0.05971-7e-3 -1.748-0.5583-3.752-1.226z" style="fill:#297be5;stroke-width:.02465"/>
  <path d="m108 51.2 27.11 1.904-8.654 6.406z" style="fill:url(#ag);stroke-width:.2646"/>
  <path d="m79.21 56.3 14.85 34.12-24.66-34.75z" style="fill:url(#af);stroke-width:.2646"/>
  <path d="m90.05 56.1 4.042 34.4-15.77-35.38z" style="fill:url(#ae);stroke-width:.2646"/>
  <path d="m83.53 40.5 26.82 11.56-15.52-15.05z" style="fill:url(#ad);stroke-width:.2646"/>
  <path d="m126.5 59.4-16.24-7.624-48.81 3.533z" style="fill:url(#ac);stroke-width:.2646"/>
  <path d="m11.9 56.2 26.86-16.65 69.78-4.559z" style="fill:url(#ab);stroke-width:.2646"/>
  <path d="m88.99 26.4s-52.2 12.55-55.41 13.29l2.674-0.3883-2.643 0.3863 61.3-2.683-3.273-5.746h6.89e-4z" style="fill:url(#aa);stroke-width:.2646"/>
  <path d="m123.4 37.2-13.02 14.79 2.799-19.51z" style="fill:url(#z);stroke-width:.2646"/>
  <path d="m135.2 53.1-11.97-15.95-12.96 14.72z" style="fill:url(#y);stroke-width:.2646"/>
  <path d="m125.5 74.1 1.041-14.62 8.654-6.406-1.605 13.15-8.09 7.87" style="fill:url(#x);stroke-width:.2646"/>
  <path d="m113.2 32.5-11.04-13.64-13.73 7.687z" style="fill:url(#w);stroke-width:.2646"/>
  <path d="m63.89 16.3 25.05 10.16 13.23-7.545z" style="fill:url(#v);stroke-width:.2646"/>
  <path d="m33.58 39.7 30.31-23.47 25.23 10.23z" style="fill:url(#u);stroke-width:.2646"/>
  <path d="m113.2 32.5-18.41 4.649-5.807-10.71z" style="fill:url(#t);stroke-width:.2646"/>
  <path d="m113.2 32.5-19.34 4.678 16.54 14.83z" style="fill:url(#s);stroke-width:.2646"/>
  <path d="m84.98 50.5 25.37 1.539-26.86-11.71z" style="fill:url(#r);stroke-width:.2646"/>
  <path d="m85.13 50.5-73.53 15.59 71.99-25.79z" style="fill:url(#q);stroke-width:.2646"/>
  <path d="m62.04 55.4 23.21-4.914 25.59 1.454z" style="fill:url(#p);stroke-width:.2646"/>
  <path d="m83.57 40.3-64.44 14.26-7.529 11.48z" style="fill:url(#o);stroke-width:.2646"/>
  <path d="m61.96 55.4-50.36 10.7-11.33 12.22z" style="fill:url(#n);stroke-width:.2646"/>
  <path d="m3.67 85.9 58.29-30.5-54.87 20.38z" style="fill:url(#m);stroke-width:.2646"/>
  <path d="m5.865 96.2 6.768-15.07 49.32-25.81z" style="fill:url(#l);stroke-width:.2646"/>
  <path d="m22.76 111.2-7.688-22.09 46.89-33.76z" style="fill:url(#k);stroke-width:.2646"/>
  <path d="m94.04 90.4-5.053 6.985-27.03-42z" style="fill:url(#j);stroke-width:.2646"/>
  <path d="m84.07 105.3-22.11-49.93 27.71 43.06z" style="fill:url(#i);stroke-width:.2646"/>
  <path d="m42.04 114.6-15.73-8.455 35.65-50.79z" style="fill:url(#h);stroke-width:.2646"/>
  <path d="m85.45 108.4-23.49-53.04 15.29 58.36z" style="fill:url(#g);stroke-width:.2646"/>
  <path d="m61.96 55.4 3.915 63.77-22.85-7.46z" style="fill:url(#f);stroke-width:.2646"/>
  <path d="m61.96 55.4 3.703 60.52 12.68 1.802z" style="fill:url(#e);stroke-width:.2646"/>
  <path d="m72.75 32.6c12.69-5.824 23.98 12.03 30.69 4.776-2.929 4.681-9.747 5.107-14.5 5.123 0 0-7.294-0.1737-6.339-6.295-1.576-2.603-6.568-2.552-9.855-3.603z" style="stroke-width:.2646"/>
  <path d="m84.65 34.4a3.864 3.864 0 0 0-1.606 3.129 3.864 3.864 0 0 0 3.864 3.864 3.864 3.864 0 0 0 3.863-3.864 3.864 3.864 0 0 0-0.1151-0.9229 3.148 3.821 0 0 1-2.945 2.486 3.148 3.821 0 0 1-3.148-3.82 3.148 3.821 0 0 1 0.08633-0.872z" style="fill:#fff;paint-order:stroke fill markers;stroke-width:.2646"/>
  <path d="m118.7 41.1s-4.393 1.098-3.844 3.569c0 0 1.785-0.1372 3.844-3.569z" style="stroke-width:.2646"/>
  <path d="m69.95 55.9 24.12 34.57-32.15-35.08z" style="fill:url(#d);stroke-width:.2646"/>
 </g>
</svg>
