<?xml version="1.0" encoding="UTF-8"?>
<svg width="512" height="512" version="1.1" viewBox="0 0 512 512" xmlns="http://www.w3.org/2000/svg" xmlns:xlink="http://www.w3.org/1999/xlink">
 <defs>
  <linearGradient id="a">
   <stop style="stop-color:#fff" offset="0"/>
   <stop style="stop-color:#fff" offset=".342"/>
   <stop style="stop-color:#bebdf3" offset=".52"/>
   <stop style="stop-color:#8f82f9" offset=".754"/>
   <stop style="stop-color:#9f99c7" offset=".871"/>
   <stop style="stop-color:#524c76" offset="1"/>
  </linearGradient>
  <linearGradient id="b" x1="464" x2="369" y1="697" y2="270" gradientTransform="matrix(1.01 0 0 1.01 -141 -329)" gradientUnits="userSpaceOnUse" xlink:href="#a"/>
  <linearGradient id="c" x1="784" x2="1100" y1="-314" y2="1341" gradientTransform="matrix(1.01 0 0 1.01 -858 -847)" gradientUnits="userSpaceOnUse" xlink:href="#a"/>
  <radialGradient id="d" cx="333" cy="591" r="218" gradientTransform="matrix(-.0541 3.43 -2.93 -.0461 1768 -979)" gradientUnits="userSpaceOnUse" xlink:href="#a"/>
  <radialGradient id="e" cx="49.5" cy="320" r="32" gradientTransform="matrix(2.69 0 0 2.06 82.9 -546)" gradientUnits="userSpaceOnUse" xlink:href="#a"/>
 </defs>
 <path d="m12.5 408c0.0559-21.5 18.3-51.5 44.3-78.8 17.4-18.2 35-34.2 73.5-67-26.6-14.6-68-32.2-88.7-55.3-7.68-8.53-21.6-27.9-18.9-53.7 5.5-52.6 70.5-132 163-149 30.7-5.62 66-1.56 95 11.5 91.1 40.9 202 143 216 192 4.82 17.5 3.9 45.4-4.42 60.9-10.3 19.3-46 58.3-94.8 98.7-76.6 63.3-184 131-264 143-25.9 3.7-52.4-0.159-70.9-10.6-29.1-16.4-38.7-38.3-42.1-44.8-9.01-17.4-7.9-39.5-7.88-46.5zm216-242c0.989-12.2 48.8-0.0539 45.8 9.61-3.19 10.2-46.9 4.39-45.8-9.61z" style="fill-rule:evenodd;fill:url(#c)"/>
 <path d="m156 242c-25.2 21.3-41.9 35.6-62.9 54.8-50.5 46.2-84.9 81.3-67.2 129 20.4 55.4 65.2 52.6 118 42.3 135-26.7 358-198 346-261-9.18-51.1-133-153-207-189-23-11.3-49.5-17.1-76-15.9-101 4.77-180 96.8-176 147 3.93 48.5 127 90.9 125 92.3zm-15.2-170c-30.4 33.9-11 99.4 39.5 135 59.1 41.8 155 49.4 174 17.1 35.5-60.1-3.26-124-61.1-152-57.2-28-133-21.3-152-0.201z" style="fill-rule:evenodd;fill:url(#b)"/>
 <path d="m245 206c42.7 5.94 79.6-11.2 85.3-53.4 4.39-32.1-44.8-67.3-74.4-75.4-24.7-6.76-78.3 1.93-81.9 48.6-3.76 48.6 46.1 76.6 71 80.1zm-20.9-80.8c-28.1 43.5 40.8 56.9 51.3 49 45.5-34.2-38.9-68.1-51.3-49z" style="fill-rule:evenodd;fill:url(#e)"/>
 <path d="m199 14.2c-49.7 5.24-59.2 11.6-104 45.7-15.1 11.4-42.8 39.2-50 72.1-2.71 12.5 0.493 23.4 9.53 31 28.9 24.3 77.4 44.1 117 63.1 11.6 5.59 3.93 15.7-14.8 32-47.3 41-111 90.9-116 129-2.11 17.9 4.03 42.3 25.8 54.7 25.4 14.5 78.1 5.05 113-8.06 51.5-19.2 119-61.4 173-103 55.8-43.2 108-98.1 110-107 3.15-11 2.84-21.2-3.24-32.8-9.55-18.3-22.3-32-36-47.2-36.8-38.8-75.7-72.9-122-99-33.6-18.9-63.2-34.4-102-30.3zm73 86.9c35.9 17.4 72.7 62.9-0.32 89.1-19.9 7.13-82.9-17.5-80.9-51.2 2.81-49.7 37.4-59.2 81.3-38z" style="fill-rule:evenodd;fill:url(#d)"/>
</svg>
