<?xml version="1.0" encoding="UTF-8"?>
<svg width="512" height="512" version="1.1" viewBox="0 0 512 512" xmlns="http://www.w3.org/2000/svg">
 <linearGradient id="a" x1="195" x2="313" y1="357" y2="238" gradientUnits="userSpaceOnUse">
  <stop stop-color="#249eff" offset="0"/>
  <stop stop-color="#2777ff" offset="1"/>
 </linearGradient>
 <g transform="translate(-14.5 -2.41)" stroke-width=".808">
  <circle cx="271" cy="258" r="182" fill="url(#a)"/>
  <path d="m452 253a182 182 0 0 1-182 178 182 182 0 0 1-182-177 182 182 0 0 0-0.177 3.56 182 182 0 0 0 182 182 182 182 0 0 0 182-182 182 182 0 0 0-0.177-5.02z" opacity=".3"/>
  <path d="m271 76.7a182 182 0 0 0-182 182 182 182 0 0 0 0.177 5.01 182 182 0 0 1 182-178 182 182 0 0 1 182 177 182 182 0 0 0 0.177-3.55 182 182 0 0 0-182-182z" fill="#fff" opacity=".1"/>
 </g>
 <path d="m71.9 132c-29.4 0.0336-48.9 2.4-49 2.42-6.6e-4 8e-5 -0.111 0.01-0.111 0.01-1.92 0.221-1.68 3.08 0.254 2.97 0 0 107-5.05 193 29.4 3.06 13.1 11.1 33.2 15.9 43.8-6.5 4.46-13.5 8.99-19.2 16.2-6.02 7.54-10.6 17.9-11.8 33.9-2.46 32.3 25.2 60.5 59.5 61.4 31.7 1.69 53.3 1.92 79.6 15.5 12.3 6.79 23.7 20.8 32.2 37.8 8.54 17.1 14.2 37.2 15.2 56.2 0.0953 1.87 2.84 1.9 2.98 0.0371 5e-3 -0.0578-2e-3 -0.137 2e-3 -0.195 1.1-14.5-1.04-37-9.76-58.5-7.3-17.9-19.4-35-37.9-45.7 26.7 7.28 41.9 20.8 50.7 33.2 10.1 14.2 11.6 26.8 11.5 26.7 0.212 1.78 2.82 1.74 2.97-0.0469 0 0 1.32-15.5-9.35-32.5-10.7-17-33.3-35.7-80.6-42.6-12-1.76-27.1-3.11-42.4-3.14-8e-3 -6e-5 -0.0156-6e-5 -0.0234 0-37 0.49-55.7-20.6-58.6-42.3-1.45-10.8 1.09-21.8 7.38-30.3 6.29-8.5 16.3-14.6 30.1-15.7h6e-3c22.6-1.87 50.3 10.4 77.4 23-0.027 3.14 0.251 6.3 2.54 9.17 1.54 1.92 4.31 3.25 7.13 4.59 2.82 1.33 5.72 2.54 6.87 3.2 2.62 1.5 11.3 7.1 16.5 13.8 0.661 0.861 1.99 0.752 2.5-0.205 0.0267-0.05 0.809-0.952 1.84-1.82 1.03-0.864 2.34-1.85 3.62-2.77 2.55-1.84 4.97-3.41 4.97-3.41 1.26-0.82 0.655-2.77-0.846-2.74 0 0-0.367 0.0207-1.54-0.203-1.17-0.224-3.04-0.695-5.69-1.69-2.44-0.912-5.36-2.89-7.6-4.67-1.12-0.893-2.09-1.74-2.78-2.37-0.0817-0.0756-0.116-0.112-0.189-0.182 0.714-0.643 0.812-1.67 0.668-2.32-0.148-0.66-0.435-1.2-0.758-1.72-0.645-1.04-1.46-1.97-2.03-2.54l-2e-3 -2e-3c0.0821 0.0819-0.168-0.21-0.42-0.578-0.253-0.37-0.579-0.869-0.945-1.45-0.733-1.15-1.63-2.62-2.51-4.06-1.75-2.89-3.33-5.57-3.48-5.83-2e-3 -4e-3 -0.38-0.799-1.11-1.29-0.115-0.0769-0.241-0.137-0.373-0.18-0.828-0.266-1.48-0.204-2.33-0.16-0.85 0.0437-1.79 0.144-2.69 0.258-1.49 0.191-2.42 0.359-2.83 0.43-1.01-0.533-8.91-4.91-11.8-13.8-0.535-1.63-2.96-1.22-2.91 0.502 0.0158 0.586-0.87 2.33-0.678 4.97-3.51-2.11-6.53-5.47-9.16-12.4-0.483-1.28-2.28-1.29-2.79-0.0215-1.01 2.53-1.07 4.65-0.863 6.29-3.33-1.57-8.79-5.02-9.98-11.9-0.255-1.47-2.26-1.7-2.85-0.328-0.98 2.31-1.07 4.22-0.902 5.76-6.21-2.66-23.3-8.89-48.8-9.03-4.93-0.452-8.84-2.92-12.1-6.62-3.22-3.7-5.66-8.63-7.39-13.7-1.73-5.1-2.75-10.4-3.21-14.7-0.463-4.35-0.268-7.95 0.0547-8.98 0.216-0.688-0.0909-1.43-0.729-1.77 0 0-31.2-16.4-92.2-23.6-22.9-2.71-44.2-3.53-61.9-3.51zm71.3 32.5c-9.3 0.0701-19.3 0.417-29.8 1.16-56 3.98-112 23.6-112 23.6-1.8 0.623-0.997 3.33 0.854 2.86 0 0 115-28.9 211-11.9 0.0851 0.0153 0.171 0.0231 0.258 0.0234h4e-3c1.01-4.1e-4 1.72-0.975 1.43-1.94l-2.51-8.11c-0.165-0.534-0.615-0.932-1.17-1.03 0 0-27.5-4.88-67.8-4.58-4e-3 -2e-5 -8e-3 -2e-5 -0.0117 0zm68.3 17.3c-9.89-0.0418-40.3 1.2-86 15.5-57.4 17.9-90 43.5-90 43.5-1.44 1.14 0.0432 3.37 1.65 2.48 0 0 84.9-47.4 181-50.1 0.999-0.0288 1.69-1.01 1.38-1.96l-2.75-8.32c-0.191-0.577-0.712-0.981-1.32-1.02 0 0-1.22-0.0802-3.5-0.0899zm62.5-0.139c-1.46 0.0214-2.03 1.92-0.809 2.73h2e-3c0.0877 0.0585 0.181 0.108 0.279 0.146 26.2 10.7 49 24.8 66.6 44.1 0.0159 0.0173 0.0321 0.0342 0.0488 0.0508l2e-3 2e-3c0.304 0.304 0.724 0.462 1.15 0.434l4.28-0.279c1.21-0.0799 1.83-1.5 1.05-2.44 0 0-24.8-30-72-44.7-5e-3 -2e-3 -0.0101-6e-3 -0.0156-8e-3 -0.0239-9e-3 -0.048-0.0175-0.0723-0.0254-0.0136-5e-3 -0.0273-9e-3 -0.041-0.0137-0.152-0.0482-0.31-0.072-0.469-0.0703zm74.7 63.2c0.858 0.173 2.48 3.36 3.96 5.63 0.13 0.185 0.263 0.382 0.389 0.537 0 0.0138 2e-3 0.0235 0.0117 0.0371 0.168 0.24 0.335 0.488 0.496 0.688 0.081 0.476 0.216 0.766-0.896 0.537-0.094-0.489-0.254-0.631-0.254-0.631s-2.69-1.6-3.51-2.73c-0.824-1.13-0.968-3.12-0.566-3.87 0.0971-0.168 0.221-0.229 0.367-0.201z" opacity=".3"/>
 <g transform="translate(2.01)" fill="#fff">
  <path d="m69.9 128c-29.5 0.0337-48.9 2.42-48.9 2.42s108-5.17 194 29.8c2.93 13.1 11.8 35 16.5 45.5-13.6 9.4-28.9 18.2-31.3 49.6-2.39 31.4 24.6 58.9 58 59.8 31.8 1.69 53.7 1.93 80.3 15.7 25.4 14 46.2 56.8 48.3 95.3 2.22-28.5-8.48-89.9-58.5-109 69.8 12.2 76 64 76 64 0 0 5.21-59.8-88.7-73.5-11.9-1.75-26.9-3.09-42.2-3.13-75.2 0.995-78-86.8-21.3-91.2 23.5-1.94 51.6 10.7 79 23.5-0.102 3.41 0.0405 6.43 2.28 9.23 2.24 2.8 10.8 5.85 13.6 7.42 2.75 1.58 11.5 7.17 16.9 14.2 1.17-2.19 10.9-8.54 10.9-8.54s-2.34 0.0507-7.78-1.98c-5.44-2.03-11.9-8.19-12.1-8.54-0.152-0.356-0.255-0.916 1.02-1.17 0.966-0.813-1.22-3.46-2.19-4.42-0.966-0.966-7.42-12-7.58-12.2-0.152-0.254-0.204-0.509-0.661-0.815-1.42-0.458-7.68 0.661-7.68 0.661s-9.62-4.73-12.9-14.9c0.0482 1.78-1.65 3.73 0 7.83-5.02-2.12-9.32-5.74-12.7-14.7-2.02 5.09 0 8.32 0 8.32s-11.8-3.3-13.7-14.2c-2.07 4.89 0 7.83 0 7.83s-19.3-10-51.3-10.2c-21.4-1.96-25.9-39.6-23.9-46 0 0-30.9-16.3-91.7-23.5-22.8-2.7-44.1-3.52-61.8-3.5zm71.3 32.5c-9.27 0.0699-19.2 0.416-29.7 1.16-55.8 3.96-112 23.5-112 23.5s115-29 212-12h2e-3l-2.51-8.11s-27.4-4.86-67.5-4.56zm68.3 17.3c-9.75-0.0412-40 1.18-85.6 15.4-57.1 17.9-89.5 43.2-89.5 43.2s85.1-47.5 181-50.2l-2.75-8.32s-1.16-0.0779-3.41-0.0875zm62.6-0.139c26.4 10.7 49.3 24.9 67.2 44.5l2e-3 2e-3 4.28-0.28s-24.5-29.7-71.4-44.2zm72.7 57.2 5.25 3.87c0.658-1.14 3.31 6.07 4.92 8.07 0.0683 0.4-2.68 3.61-3.62 3.42-0.0787-0.411-4.35-1.64-4.35-1.64s-4.85-2.93-5.55-3.88c-0.693-0.953 3-9.19 3.34-9.82z" stroke="#fff" stroke-linejoin="round" stroke-width="2.99"/>
  <path d="m69.9 128c-29.5 0.0337-48.9 2.42-48.9 2.42s108-5.17 194 29.8c2.93 13.1 11.8 35 16.5 45.5-13.6 9.4-28.9 18.2-31.3 49.6-2.39 31.4 24.6 58.9 58 59.8 31.8 1.69 53.7 1.93 80.3 15.7 25.4 14 46.2 56.8 48.3 95.3 2.22-28.5-8.48-89.9-58.5-109 69.8 12.2 76 64 76 64 0 0 5.21-59.8-88.7-73.5-11.9-1.75-26.9-3.09-42.2-3.13-75.2 0.995-78-86.8-21.3-91.2 23.5-1.94 51.6 10.7 79 23.5-0.102 3.41 0.0404 6.43 2.28 9.23 2.24 2.8 10.8 5.85 13.6 7.42 2.75 1.58 11.5 7.17 16.9 14.2 1.17-2.19 10.9-8.54 10.9-8.54s-2.34 0.0507-7.78-1.98c-5.44-2.03-11.9-8.19-12.1-8.54-0.152-0.356-0.255-0.916 1.02-1.17 0.966-0.813-1.22-3.46-2.19-4.42-0.966-0.966-7.42-12-7.58-12.2-0.152-0.254-0.204-0.509-0.661-0.815-1.42-0.458-7.68 0.661-7.68 0.661s-9.62-4.73-12.9-14.9c0.0482 1.78-1.65 3.73 0 7.83-5.02-2.12-9.32-5.74-12.7-14.7-2.02 5.09 0 8.32 0 8.32s-11.8-3.3-13.7-14.2c-2.07 4.89 0 7.83 0 7.83s-19.3-10-51.3-10.2c-21.4-1.96-25.9-39.6-23.9-46 0 0-30.9-16.3-91.7-23.5-22.8-2.7-44.1-3.52-61.8-3.5zm71.3 32.5c-9.27 0.0699-19.2 0.416-29.7 1.16-55.8 3.96-112 23.5-112 23.5s115-29 212-12h2e-3l-2.51-8.11s-27.4-4.56-67.5-4.56zm68.3 17.3c-9.75-0.0412-40 1.18-85.6 15.4-57.1 17.9-89.5 43.2-89.5 43.2s85.1-47.5 181-50.2l-2.75-8.32s-1.16-0.0779-3.41-0.0875zm62.6-0.139c26.4 10.7 49.3 24.9 67.2 44.5l2e-3 2e-3 4.28-0.28s-24.5-29.7-71.4-44.2zm74.7 61.7c0.858 0.173 2.48 3.36 3.96 5.63 0.131 0.185 0.264 0.381 0.389 0.537 2e-3 0.0138 3e-3 0.0234 6e-3 0.037 0.168 0.24 0.337 0.489 0.498 0.688 0.0812 0.476 0.216 0.766-0.896 0.537-0.0936-0.489-0.255-0.63-0.255-0.63s-2.69-1.6-3.51-2.73c-0.824-1.13-0.969-3.12-0.568-3.87 0.0978-0.17 0.224-0.23 0.371-0.2z"/>
 </g>
</svg>
