<svg xmlns="http://www.w3.org/2000/svg" width="100" height="100"><path d="M99.99 50.01c.31 19.66-12.37 38.62-30.54 46.06-17.85 7.73-40.02 3.75-53.95-9.87C1.391 73.09-3.759 51.49 2.828 33.4 9.197 14.65 27.61.834 47.42.091c19.26-1.244 38.5 9.919 47.1 27.169 3.6 7 5.48 14.87 5.47 22.75z" fill="#0079c1"/><path d="M33.62 67.87c.56-12.29 1.13-24.57 1.7-36.86-3.77-3.43-7.54-6.86-11.3-10.29-1.78.18-2.8 2.43-4.25 3.49-1.64 1.13-2.61 2.76-.89 4.34 1.69 2.79 3.39 5.58 5.08 8.37-1.82 2.57-1.64 6.81-5.62 6.49-2.83.69-5.81 1.01-8.555 1.94a45.14 45.14 0 0 0 0 8.22c3.645 1.23 7.525 1.89 11.265 2.9.31 3.41 4.25 6.54.96 9.37-1.52 2.5-3.42 4.84-4.7 7.45 1.72 2.07 3.73 4.09 5.81 5.82 2.11-1.46 3.66-3.91 5.55-5.76 1.65-1.83 3.3-3.65 4.96-5.48zM42.2 27.06c10.53 6.45 21.05 12.91 31.58 19.36 4.94-1.08 9.88-2.17 14.82-3.25.77-1.61-.61-3.65-.77-5.44-.11-1.98-1-3.66-3.24-3.01h-9.8c-1.25-2.9-4.96-4.95-2.63-8.17.88-2.79 2.17-5.5 2.8-8.32a45.03 45.03 0 0 0-7.03-4.28c-2.94 2.47-5.52 5.44-8.32 8.11-3.08-1.5-7.8.24-8.51-4.04-1.35-2.6-2.36-5.44-3.92-7.89-2.66.39-5.44 1.06-7.99 1.94.12 3.06 1.25 6.18 1.77 9.26.41 1.91.83 3.83 1.24 5.74zM73.16 55.12C62.54 60.95 51.92 66.77 41.3 72.59c-1.29 4.86-2.57 9.72-3.86 14.59 1.04 1.45 3.5 1.21 5.14 1.94 1.8.85 3.7.88 4.21-1.4l4.71-8.58c3.14.29 6.73-1.98 8.44 1.63 2.01 2.1 3.77 4.54 5.95 6.44 2.44-1.12 4.92-2.54 7.12-4.09-.75-3.77-2.11-7.47-3.1-11.21 2.79-1.97 3.54-6.94 7.63-5.51 2.93.1 5.91.54 8.81.36.93-2.53 1.68-5.28 2.14-7.94-2.32-1.12-5.21-1.26-7.75-2-2.53-.56-5.06-1.13-7.58-1.7z" fill="#fff"/><path d="M74.13 50.01c.29 12.22-10.08 23.41-22.28 24.06-12.17 1.23-24.12-8.26-25.71-20.38-2.1-11.85 6.12-24.29 17.82-27.05 11.6-3.26 24.8 3.69 28.7 15.08.97 2.65 1.47 5.47 1.47 8.29z" fill="#0079c1"/></svg>