<?xml version="1.0" encoding="UTF-8"?>
<svg width="512" height="512" version="1.1" viewBox="0 0 512 512" xmlns="http://www.w3.org/2000/svg">
 <path d="m511 256c1.58 100-63.1 197-156 235-91.1 39.4-204 19.1-275-50.3-72-66.9-98.2-177-64.6-269 32.5-95.6 126-166 227-170 98.2-6.35 196 50.6 240 139 18.4 35.7 28 75.9 27.9 116z" fill="#0079c1"/>
 <path d="m172 347c2.86-62.7 5.76-125 8.67-188-19.2-17.5-38.5-35-57.6-52.5-7.65 2.51-15.6 11.1-21.7 17.8-10.6 11.5-12.3 10.4-4.54 22.1 8.62 14.2 1.94 1.53 25.9 42.7-14.8 31.3-3.42 28-28.7 33.1-14.4 3.52-29.6 5.15-43.6 9.9-1.27 13.9-1.27 28 0 41.9 18.6 6.27 23 4.73 57.5 14.8 9.81 32.8 18.6 30.3 4.9 47.8-7.75 12.8-17.4 24.7-24 38 8.77 10.6 19 20.9 29.6 29.7 10.1-9.25 18.7-19.9 28.3-29.4 8.42-9.34 16.8-18.6 25.3-28zm43.8-208c53.7 32.9 107 65.9 161 98.8 25.2-5.51 50.4-11.1 75.6-16.6 3.87-1.35 2.28-4.38-3.45-27.8-3.74-15.3-3.51-15.2-17-15.4 0 0-13.6-0.0401-50 0-17.2-33.1-21-18.8-13.4-41.7 4.49-14.2 11.1-28.1 14.3-42.4-11.3-8.35-23.3-15.6-35.9-21.8-15 12.6-13.7 13.8-41.9 43.1-39.8-11.4-31.5 0.595-43.9-22.3-6.89-13.3-12-27.8-20-40.2-13.6 1.99-27.8 5.41-40.8 9.9 1.96 16.9 5.26 28.1 9.03 47.2 2.09 9.74 4.23 19.5 6.33 29.3zm158 143c-54.2 29.7-108 59.4-163 89.1-6.58 24.8-13.1 49.6-19.7 74.4 6.26 5.81 17.2 8.88 26.2 9.9 13.1 1.47 14.8 3 21.5-7.14 0 0 8.93-16.8 24-43.8 27.1-4.32 27.8-9.65 43.1 8.31 10.3 10.7 19.2 23.2 30.4 32.9 12.4-5.71 25.1-13 36.3-20.9-3.83-19.2-11.5-33-15.8-57.2 31.1-29.7 14.7-29.6 38.9-28.1 14.9 0.51 30.1 2.75 44.9 1.84 4.74-12.9 8.57-26.9 10.9-40.5-11.8-5.71-26.6-6.43-39.5-10.2-12.9-2.86-25.8-5.76-38.7-8.67z" fill="#fff"/>
 <path d="m379 256c1.48 62.3-51.4 119-114 123-62.1 6.27-123-42.1-131-104-10.7-60.4 31.2-124 90.9-138 59.2-16.6 127 18.8 146 76.9 4.95 13.5 7.5 27.9 7.5 42.3z" fill="#0079c1"/>
</svg>
