<?xml version="1.0" encoding="UTF-8"?>
<svg width="512" height="512" version="1.1" viewBox="0 0 512 512" xmlns="http://www.w3.org/2000/svg">
 <path d="m228 199c29.7 99.1-30.5 142-93.9 160 62 1.42 116 42.6 130 73.8 23.5 52.3 62.4 78.4 107 78.4 65.5 0 110-47 110-105-0.0106-79.5-73-102-91.1-104-93.1-11.2-107-34.2-162-103zm143 134c36.5 0 74 28.3 74 74s-36.6 74-74 74-74-27.3-74-74 37.5-74 74-74z" style="fill-opacity:.69;fill:#1be9b5"/>
 <path d="m378 1c-36.8 0.0401-71.7 10-103 64.7-31.3 54.2-79.7 75.3-144 81.8-53.6 5.43-101 51.6-101 106-0.0715 58 47 105 105 105 90.6 0 106-78.6 134-104 36.2-33.9 65.8-34.2 114-41.6 48.5-7.53 97.2-47.9 97.3-107 0.0683-58-44.1-105-102-105zm-2.68 31.1c44.8 0 74 33.7 74 74s-30.5 74-74 74-74-36.2-74-74 29.2-74 74-74zm-236 149c42.1 0 72 32.8 72 74 0 38.5-28.8 72-72 72-43.2 3.3e-4 -74-30.6-74-72s31.9-74 74-74z" fill="#1de9b6"/>
 <circle cx="371" cy="407" r="37.6" style="fill-opacity:.69;fill:#15609f"/>
 <circle cx="376" cy="106" r="37.6" style="fill-opacity:.69;fill:#15609f"/>
 <circle cx="139" cy="255" r="37.6" fill="#97a7c3"/>
</svg>
