<svg xmlns="http://www.w3.org/2000/svg" width="512" height="512"><path d="M312.921 344.825a697.884 697.884 0 0 1-7.158 4.514c-1.506.93-3.645 3.371-4.754 5.426-1.11 2.054-3.018 4.992-4.241 6.529-4.174 5.243-2.452 28.706 2.106 28.706.452 0 1.605 1.735 2.561 3.856 1.019 2.26 3.049 4.547 4.902 5.523 1.74.917 4.692 2.781 6.561 4.144C318.713 407.762 343 406.534 343 402c0-.606 1.567-1.757 3.483-2.557 2.182-.912 4.237-2.853 5.504-5.199 1.112-2.059 3.032-5.014 4.267-6.567 4.22-5.305 3.338-22.615-1.504-29.539-2.062-2.949-3.75-5.753-3.75-6.23 0-.477-1.913-1.838-4.25-3.024-2.337-1.187-5.522-3.221-7.077-4.521-4.537-3.793-20.523-3.517-26.752.462M317.5 87.139c-1.1.651-2.36 1.786-2.8 2.522-.44.737-1.272 1.339-1.849 1.339-3.171 0-8.448 3.874-11.471 8.422-1.857 2.793-4.03 5.978-4.828 7.078-3.629 4.997-2.647 24.907 1.368 27.742.98.692 2.529 2.707 3.441 4.478.913 1.772 2.668 3.742 3.899 4.379 1.232.637 3.161 2.276 4.286 3.642 4.169 5.063 29.846 4.997 33.925-.086 1.116-1.391 3.275-2.999 4.797-3.574 1.548-.584 3.229-2.265 3.814-3.813.575-1.522 2.254-4.035 3.732-5.583 3.712-3.889 4.144-23.887.602-27.852-1.146-1.283-3.271-4.417-4.722-6.963-1.997-3.506-3.677-5.043-6.916-6.33-2.353-.935-5.326-2.676-6.608-3.87-2.76-2.571-17.115-3.634-20.67-1.531" fill="#1A67A0" fill-rule="evenodd"/><path d="M123.45 210.95c-.546.546-4.052 1.427-7.79 1.956-7.019.994-9.66 2.298-9.66 4.768 0 .787-1.327 1.893-2.949 2.458-2.066.72-3.291 2.066-4.093 4.496-.63 1.907-2.198 4.521-3.485 5.808-4.658 4.658-4.822 22.146-.246 26.083 1.356 1.166 2.794 3.439 3.195 5.051.885 3.559 7.974 10.43 10.761 10.43 1.108 0 3.276 1.35 4.817 3 3.946 4.225 24 4.188 24-.044 0-.398 2.435-1.712 5.412-2.92 3.97-1.612 5.731-2.966 6.608-5.083.657-1.588 1.978-3.135 2.936-3.439 6.023-1.912 6.956-31.098 1.204-37.646-5.678-6.462-11.748-11.918-13.66-12.277-1.1-.206-4.475-.835-7.5-1.397-3.025-.562-6.188-1.296-7.028-1.63-.841-.334-1.975-.161-2.522.386" fill="#96a6c4" fill-rule="evenodd"/><path d="M310.335 32.957c-1.19.503-2.558 1.62-3.04 2.48-.583 1.043-3.342 1.875-8.266 2.493-6.347.797-7.796 1.362-10.26 3.999-1.739 1.86-3.866 3.071-5.397 3.071-1.495 0-3.799 1.274-5.647 3.121-1.716 1.717-4.32 3.539-5.785 4.05-1.465.511-3.171 2.04-3.79 3.399-.619 1.359-2.278 2.909-3.688 3.444-1.463.557-3.005 2.246-3.596 3.939-.568 1.631-1.899 3.24-2.956 3.576-1.058.335-2.782 2.491-3.831 4.791-1.049 2.299-3.071 5.271-4.493 6.604-1.422 1.334-2.586 3.482-2.586 4.775 0 1.599-.815 2.66-2.55 3.32-1.47.559-2.997 2.252-3.605 3.996-.581 1.665-1.864 3.46-2.853 3.989-.988.529-2.797 3.027-4.019 5.551-1.268 2.621-3.228 4.972-4.569 5.482-1.292.491-2.635 2.037-2.987 3.436-.393 1.568-1.568 2.778-3.063 3.153-1.333.335-3.095 1.906-3.915 3.491-.82 1.586-2.041 2.885-2.715 2.888-.673.002-2.945 1.586-5.049 3.518-2.104 1.932-5.323 4.139-7.154 4.904-1.831.765-3.612 2.284-3.959 3.377-.404 1.275-1.88 2.221-4.117 2.64-1.918.36-5 1.982-6.848 3.605-1.849 1.623-4.253 2.951-5.344 2.951-1.809 0-6.896 3.217-8.353 5.281-.33.468-3.03 1.187-6 1.598-6.107.845-9.9 2.568-9.9 4.499 0 .93-3.016 1.594-10.452 2.298-8.049.763-11.634 1.604-15.593 3.657-4.493 2.332-6.354 2.674-14.797 2.727-12.7.078-18.677 1.139-21.535 3.824-1.285 1.207-4.088 2.461-6.23 2.785-4.119.624-10.393 3.88-10.393 5.394 0 .494-1.237 1.193-2.75 1.552-3.208.762-6.25 3.163-6.25 4.932 0 .68-1.155 1.526-2.567 1.88-1.412.355-3.319 1.954-4.237 3.554-.918 1.6-2.489 3.124-3.49 3.386-1.001.261-2.333 1.835-2.96 3.495-.662 1.753-2.09 3.259-3.406 3.589-1.572.394-2.632 1.79-3.461 4.559-.658 2.194-1.538 3.99-1.956 3.99-1.427 0-4.71 6.493-5.39 10.661-.373 2.288-1.543 4.943-2.6 5.9-5.843 5.287-5.74 55.045.121 58.705 1.07.668 1.946 1.76 1.946 2.425 0 4.948 2.318 11.133 4.554 12.152 1.345.613 2.446 1.821 2.446 2.685 0 2.459 3.033 7.71 5.636 9.757 1.3 1.023 2.364 2.509 2.364 3.302 0 .793 1.384 2.284 3.075 3.313 1.692 1.028 3.744 2.824 4.561 3.991.817 1.166 2.784 2.792 4.371 3.613 1.587.82 4.07 2.59 5.518 3.932 1.448 1.342 4.06 2.742 5.804 3.111 1.744.369 4.083 1.787 5.198 3.152 1.655 2.025 3.517 2.693 10.145 3.641 4.597.657 8.923 1.868 9.973 2.792 2.882 2.535 5.264 2.951 22.119 3.864 13.881.752 16.298 1.147 20.502 3.35 2.796 1.466 7.449 2.786 11.26 3.194 4.905.525 7.342 1.368 9.955 3.445 1.903 1.513 5.386 3.058 7.74 3.434 2.897.463 5.149 1.636 6.973 3.632 1.481 1.622 3.608 2.949 4.727 2.949 1.118 0 2.787 1.151 3.709 2.558.921 1.406 3.294 3.387 5.273 4.402 1.978 1.015 4.688 3.014 6.021 4.443 1.334 1.428 3.042 2.597 3.797 2.597.755 0 2.139 1.363 3.076 3.028.936 1.665 2.686 3.282 3.887 3.592 1.224.316 2.625 1.827 3.186 3.437.615 1.764 1.949 3.111 3.457 3.489 1.621.407 2.639 1.523 2.995 3.285.297 1.468 1.856 4.019 3.465 5.669 1.609 1.65 3.67 4.449 4.58 6.22.909 1.772 2.512 3.68 3.562 4.242 1.05.562 2.193 2.319 2.542 3.904.348 1.586 1.721 3.906 3.052 5.155 1.33 1.25 2.915 3.775 3.52 5.61.606 1.836 2.184 4.189 3.507 5.23 1.323 1.04 2.871 3.116 3.44 4.612s1.892 2.945 2.94 3.219c1.049.274 2.441 1.791 3.096 3.37.654 1.579 1.959 3.116 2.901 3.415.941.299 2.707 1.889 3.922 3.533 1.216 1.645 3.109 2.99 4.206 2.99 1.186 0 2.365.974 2.908 2.402.586 1.541 2.279 2.839 4.725 3.621 2.097.67 4.983 2.31 6.415 3.644 1.81 1.687 4.666 2.768 9.373 3.548 4.594.761 7.484 1.836 8.995 3.347 4.558 4.558 37.894 4.256 42.849-.388 1.346-1.262 4.283-2.312 7.68-2.745 6.107-.778 10.476-2.621 11.299-4.766.298-.776 2.073-1.698 3.946-2.049 1.873-.351 4.661-1.951 6.197-3.554 1.536-1.603 4.032-3.428 5.546-4.055 1.514-.627 3.254-2.241 3.868-3.587.613-1.346 2.246-2.963 3.629-3.593 1.383-.63 2.515-1.496 2.515-1.925 0-.428 1.822-2.883 4.048-5.456 2.227-2.572 4.311-5.991 4.633-7.597.321-1.605 1.352-3.465 2.292-4.133 2.37-1.683 3.669-4.454 4.534-9.671.406-2.451 1.614-5.641 2.685-7.089 5.493-7.43 5.461-45.428-.043-51.301-1.224-1.305-2.305-4.318-2.746-7.653-.54-4.086-1.414-6.143-3.397-8-1.468-1.375-2.973-3.713-3.343-5.195-.371-1.483-2.471-4.773-4.668-7.311-2.197-2.539-3.995-5.013-3.995-5.498 0-.486-1.351-1.681-3.001-2.656-1.651-.975-3.235-2.507-3.52-3.405-.284-.897-1.521-2.09-2.748-2.65-1.227-.56-4.186-2.654-6.576-4.652-2.389-1.998-5.135-3.633-6.101-3.633-.967 0-3.17-1.35-4.897-3-1.726-1.65-3.48-3.009-3.898-3.02-4.655-.123-13.582-2.16-14.799-3.377-2.298-2.298-7.607-3.335-20.727-4.047-10.24-.557-12.238-.959-15.39-3.098-1.992-1.352-4.122-2.473-4.733-2.491-7.146-.21-14.955-2.079-17.446-4.175-1.572-1.323-5.403-2.975-8.515-3.671-3.536-.792-6.026-1.957-6.643-3.11-.543-1.014-3.241-2.593-5.996-3.508-2.755-.915-5.608-2.518-6.34-3.563-.732-1.045-2.949-2.576-4.927-3.403-1.979-.827-3.885-2.41-4.237-3.518-.352-1.108-1.689-2.278-2.972-2.6-4.631-1.162-9.105-8.251-5.962-9.446 1.471-.56 3.487-2.05 4.48-3.311.992-1.262 3.686-2.916 5.987-3.675 2.552-.842 4.595-2.284 5.239-3.699.758-1.663 2.21-2.502 5.139-2.969 2.548-.406 5.029-1.662 6.599-3.34 1.934-2.067 3.875-2.86 8.38-3.423 4.346-.543 6.454-1.37 8.146-3.196 1.928-2.081 3.676-2.607 11.252-3.391 10.088-1.044 13.625-2.108 14.964-4.501.767-1.371 3.314-1.719 15.331-2.098 19.594-.618 22.744-1.092 25.282-3.8 1.454-1.551 3.842-2.494 7.535-2.975 5.793-.756 10.663-2.803 11.314-4.755.22-.661 1.949-1.715 3.84-2.341 1.892-.626 3.881-2.111 4.419-3.301.539-1.189 2.135-2.565 3.547-3.057 3.135-1.093 10.974-8.683 10.974-10.625 0-.774 1.238-1.997 2.75-2.719 1.73-.825 2.859-2.239 3.043-3.811.177-1.507 1.424-3.148 3.144-4.135 2.118-1.216 3.026-2.674 3.533-5.675.4-2.366 1.845-5.256 3.49-6.977 2.511-2.627 2.885-3.921 3.546-12.274.566-7.157 1.236-10.009 2.866-12.215 2.951-3.992 2.829-19.594-.185-23.671-1.354-1.832-2.168-5.176-2.688-11.047-.653-7.378-1.082-8.734-3.473-10.967-1.877-1.754-2.948-4.017-3.434-7.259-.508-3.392-1.451-5.297-3.367-6.804-1.463-1.151-3.216-3.413-3.894-5.027-.679-1.614-1.954-2.935-2.834-2.935-.879 0-2.235-1.522-3.012-3.383-.878-2.1-2.33-3.612-3.83-3.989-1.329-.333-2.654-1.517-2.945-2.63-.292-1.114-2.145-2.7-4.12-3.525-1.974-.825-3.59-2.153-3.59-2.951 0-1.735-2.251-3.026-7-4.013-1.925-.4-4.41-1.84-5.521-3.2-1.568-1.918-3.363-2.631-8.003-3.178-3.957-.467-7.108-1.539-9.31-3.168-3.589-2.656-33.625-4.208-38.831-2.006M306.843 73c-1.727 1.65-3.958 3-4.958 3s-3.305 1.463-5.123 3.25c-1.817 1.787-4.963 4.682-6.992 6.433-2.028 1.751-4.34 4.745-5.137 6.654-.798 1.909-2.335 3.751-3.416 4.094-1.57.499-2.097 1.873-2.621 6.846-.361 3.423-1.141 8.662-1.732 11.643-1.53 7.705 1.65 30.791 4.359 31.651.996.316 2.495 2.229 3.33 4.252 1.916 4.636 12.739 14.863 16.635 15.718 1.684.37 3.387 1.626 3.985 2.939 2.282 5.009 40.104 5.436 44.5.503 1.758-1.973 4.025-3.231 6.552-3.635 2.906-.465 4.228-1.324 5.337-3.468.811-1.568 2.503-3.109 3.759-3.424 1.335-.336 2.759-1.829 3.425-3.594.627-1.66 2.015-3.248 3.084-3.528 1.452-.379 2.231-1.966 3.077-6.265.751-3.819 1.968-6.542 3.613-8.087 3.83-3.599 3.847-29.349.021-32.943-1.509-1.418-2.931-4.422-3.682-7.779-.923-4.124-1.809-5.736-3.604-6.554-1.343-.611-2.614-2.249-2.915-3.756-.353-1.767-1.603-3.143-3.687-4.061-1.956-.862-3.274-2.243-3.473-3.639-.232-1.638-.989-2.25-2.782-2.25-3.699 0-9.093-2.561-10.353-4.915-2.084-3.895-36.981-3.119-41.202.915M108.756 197.735c-3.502.276-5.028.906-5.831 2.405-.597 1.116-2.88 2.833-5.073 3.815C93.309 205.989 83 216.139 83 218.578c0 .891-1.345 2.876-2.989 4.412-6.191 5.783-6.201 42.667-.014 48.854 1.798 1.798 3.003 4.046 3.003 5.604 0 1.858.718 2.874 2.512 3.557 1.382.525 3.034 2.1 3.672 3.499.637 1.399 2.222 2.811 3.522 3.137 1.3.326 3.035 1.891 3.855 3.476 1.017 1.967 2.256 2.883 3.9 2.883 3.658 0 7.845 1.851 9.731 4.301 2.86 3.715 29.449 3.351 33.49-.458 1.55-1.461 4.523-3.117 6.606-3.68 2.084-.562 5.362-2.404 7.285-4.093 1.923-1.688 4.166-3.07 4.983-3.07.818 0 2.025-1.238 2.683-2.75.658-1.512 2.466-4.091 4.017-5.729 1.552-1.639 3.065-4.114 3.364-5.5.969-4.504 2.523-7.841 4.471-9.604 3.305-2.99 2.846-28.188-.571-31.399-1.656-1.555-2.863-4.274-3.63-8.174-.749-3.804-1.64-5.844-2.554-5.844-.772 0-2.321-1.555-3.442-3.456-1.122-1.9-2.932-3.739-4.024-4.085-1.091-.347-2.382-1.675-2.867-2.952-.543-1.427-2.032-2.574-3.864-2.976-1.64-.361-4.254-1.843-5.81-3.295-4.062-3.79-20.436-5.169-41.573-3.501m200.286 128.004c-1.902.23-4.886 1.673-6.633 3.207-1.746 1.533-4.734 3.08-6.639 3.437-2.306.433-3.829 1.451-4.556 3.047-.601 1.318-1.987 2.681-3.08 3.028-1.094.347-2.906 2.186-4.028 4.086-1.121 1.901-2.635 3.456-3.365 3.456-.738 0-1.888 2.108-2.593 4.75-.696 2.613-2.427 5.965-3.846 7.45-4.015 4.201-4.032 34.467-.022 38.184 2.279 2.112 4.699 7.947 4.714 11.366.003.688.696 1.25 1.54 1.25.843 0 2.463 1.575 3.599 3.5 1.135 1.925 2.716 3.5 3.512 3.5.797 0 2.205 1.319 3.131 2.932 1.097 1.912 2.763 3.134 4.789 3.514 1.709.321 4.565 1.884 6.346 3.475 5.698 5.086 46.089 5.472 46.089.44 0-.805 1.688-2.153 3.75-2.997 4.615-1.887 14.73-11.558 17.321-16.56 1.053-2.033 2.658-4.112 3.565-4.62 6.003-3.36 5.206-44.894-.971-50.618-1.466-1.359-2.665-3.075-2.665-3.813 0-1.886-14.498-15.753-16.47-15.753-.891 0-2.824-1.204-4.295-2.674-3.89-3.89-22.576-5.6-39.193-3.587" fill="#1cebb4" fill-rule="evenodd"/></svg>