<?xml version="1.0" encoding="UTF-8"?>
<svg width="512" height="512" version="1.1" viewBox="0 0 512 512" xmlns="http://www.w3.org/2000/svg">
 <circle class="st0" cx="256" cy="256" r="255" fill="#FFF"/>
 <circle class="st1" cx="256" cy="256" r="215" fill="#69B53F"/>
 <path id="a" class="st2" d="m117 127v179c0.199 44 35.7 79.5 79.7 79.7h120c44-0.199 79.5-35.7 79.7-79.7v-99.6c-0.199-32.9-26.9-59.6-59.8-59.8-14.7 0-28.9 5.58-39.8 15.7-11-9.96-25.1-15.5-39.8-15.7-32.9 0.199-59.6 26.9-59.8 59.8v99.6h39.8v-99.6c0-11 8.96-19.9 19.9-19.9s19.9 8.96 19.9 19.9v99.6h39.8v-99.6c0-11 8.96-19.9 19.9-19.9s19.9 8.96 19.9 19.9v99.6c0.199 21.9-17.5 39.6-39.2 39.8h-0.598-120c-21.9 0.199-39.6-17.5-39.8-39.2v-0.598-179z" fill="#F8F8F8"/>
</svg>
