<?xml version="1.0" encoding="UTF-8"?>
<svg width="512" height="512" version="1.1" viewBox="0 0 512 512" xmlns="http://www.w3.org/2000/svg">
 <path d="m511 256c0-141-114-255-255-255-141 0-255 114-255 255 0 141 114 255 255 255 141 0 255-114 255-255z" fill="#0068c8"/>
 <path d="m241 212c-9.07-9.82-15-22.5-16.9-35.7-1.84-13.2 0.454-27 6.49-38.9 6.04-11.9 15.8-21.9 27.5-28.3 11.8-6.36 25.5-9.03 38.8-7.55 21.4 2.38 41.2 15.9 51.2 34.9l120 16.6h-137c-8.56-11-21.5-18.4-35.3-20.3-9.84-1.35-20 0.0685-29.1 4.06-9.1 3.99-17.1 10.5-22.7 18.7-5.66 8.16-9.02 17.9-9.57 27.8-0.557 9.91 1.68 20 6.4 28.7z" fill="#fff"/>
 <path d="m258 257-184-132c-8.83 17.4-12.3 37.5-9.9 56.9 2.42 19.4 10.8 38 23.6 52.7 16.9 19.3 41.5 31.6 67.1 33.6-12.1-3.9-23.1-10.9-31.8-20.1-8.7-9.23-15-20.7-18.2-32.9-3.63-14.1-3.09-29.2 1.52-42.9z" fill="#fff"/>
 <path d="m247 293-162-45.5c-1.31 15.1 1.67 30.6 8.49 44.2 6.82 13.6 17.5 25.2 30.4 33.2 19.2 11.9 43.3 15.4 65.1 9.57-21.8 0.146-43.4-10.7-56.4-28.3-7.3-9.92-11.9-21.8-13.1-34.1z" fill="#fff"/>
 <path d="m321 191c-3.01 6.24-5.1 12.9-6.19 19.8-3.37 21.2 2.94 42.7 9.23 63.2 6.29 20.5 12.7 41.9 9.53 63.2-2.37 15.9-10.1 30.7-21 42.6-10.8 11.8-24.7 20.7-39.6 26.8-24.5 9.99-52.1 12.3-77.9 6.63v70.7l21.2-50.4c27.5 6.28 57 3.74 83.1-7.16 18.7-7.8 35.7-20 48-36 12.3-16.1 19.6-36.1 19.1-56.3-0.624-24.3-12.1-46.8-23.2-68.4-11.1-21.6-22.4-44.3-22.5-68.6-0.0152-1.96 0.0533-3.92 0.19-5.88z" fill="#fff"/>
</svg>
