<?xml version="1.0" encoding="UTF-8"?>
<svg width="512" height="512" version="1.1" viewBox="0 0 512 512" xmlns="http://www.w3.org/2000/svg">
 <path d="m219 199h-0.0238c-15.9 0-28.9-12.9-28.9-28.8-0.0238-16 12.9-28.9 28.9-28.9 15.9 0 28.9 12.9 28.9 28.8 0 16-12.9 28.9-28.9 28.9z" fill="#2397d4"/>
 <path d="m297 178c-14.9 0-26.9-12.1-27-26.9-0.0238-14.9 12.1-27 26.9-27 14.9 0 27 12.1 27 26.9 0 14.9-12.1 27-26.9 27h-0.0252z" fill="#2397d4"/>
 <circle cx="251" cy="101" r="24.1" fill="#2397d4"/>
 <circle cx="290" cy="60" r="22.1" fill="#2397d4"/>
 <circle cx="243" cy="21" r="19.3" fill="#2397d4"/>
 <path d="m139 225c-24.9 32.3-45.1 68.6-45.1 113 0 95.4 72.4 174 162 174 89.7 0 162-78.7 162-174 0-44-20.2-79.2-46.6-113-9.87-10.4-24.1-8.82-34.5-2.19-30.4 15.7-46.7 22-81.1 21.8-33.2-0.149-50.6-5.57-81-22.1-10.4-6.34-26.1-7.88-36 2.48zm21.6 26.8c31.5 17.4 59.5 26.2 95.4 26.2s63.9-8.83 95.4-26.2c17.2 24.2 33.4 54.3 33.4 85.8 0 78.2-57.6 141-129 141-71.1 0-131-62.5-131-141 0-31.5 18.5-61.6 35.8-85.8z" fill="#262f45"/>
</svg>
