<?xml version="1.0" encoding="UTF-8"?>
<svg width="512" height="512" version="1.1" viewBox="0 0 512 512" xmlns="http://www.w3.org/2000/svg">
 <defs>
  <style>.cls-1 { fill: #fff; }</style>
 </defs>
 <rect x="1" y="27" width="510" height="458" rx="13.9" ry="13.9"/>
 <path d="m60 286c0.178 33.4 8.31 66.3 24.5 95.6l-35.8 42.8 422-0.101-36-43.7c15.7-28.9 24-61.2 24.2-94.1-5.1e-4 -110-89-200-199-200s-200 87.9-200 199zm208-183c50.8 0.161 98.7 23.4 130 63.2l-104 125-85.3-102-15.1 17.8 85.4 102-18.3 21.9-66.6-78.7-76.6 90.3c-11-22.6-16.6-47.3-16.7-72.5 5.1e-4 -92.2 74.8-167 167-167zm151 96.1c10.5 22.2 16.1 46.4 16.2 70.9-0.22 29.5-7.97 58.9-23 84.3l-32-38.6-32.4 39-29.3-34.9zm-116 139 29.3 35-18.1 21.7-29.5-34.9z" fill="#fff"/>
</svg>
