<?xml version="1.0" encoding="UTF-8" standalone="no"?>
<svg
   id="svg2"
   viewBox="0 0 297.953 269.885"
   version="1.1"
   xmlns="http://www.w3.org/2000/svg"
   xmlns:svg="http://www.w3.org/2000/svg">
  <defs
     id="defs1">
    <style
       id="style1"> .cls-1 { fill: #fff; } </style>
  </defs>
  <rect
     id="rect4234-3"
     x="8.68"
     y="8.402"
     width="280.594"
     height="252.002"
     rx="13.869"
     ry="13.869" />
  <path
     id="path1"
     style="fill:#ffffff;fill-opacity:1;stroke:none;stroke-width:1;stroke-linecap:round;stroke-dasharray:none"
     d="M 151.44336,41.714844 C 90.905733,41.71513 41.455367,89.884249 41.455078,151.42188 c 0.09768,18.37915 4.573043,36.49339 13.476563,52.57226 l -19.703125,23.56641 232.200754,-0.0553 -19.81208,-24.02669 c 8.64321,-15.89511 13.21739,-33.68257 13.31445,-51.77539 C 260.93136,91.165504 211.98099,41.715131 151.44336,41.714844 Z m 4.57226,8.738281 c 27.93482,0.08869 54.31152,12.883512 71.67383,34.767578 l -57.29883,68.679687 -46.9375,-55.929687 -8.30664,9.783207 47.00977,56.01757 -10.06836,12.07032 -36.61914,-43.29492 -42.128063,49.66356 C 67.264935,169.75497 64.196453,156.17467 64.152344,142.31641 64.152628,91.58184 105.28105,50.453414 156.01562,50.453125 Z m 82.97071,52.857425 c 5.79443,12.19062 8.83128,25.50836 8.89453,39.00586 -0.12079,16.23298 -4.38474,32.40969 -12.6543,46.3789 l -17.63281,-21.2539 -17.83594,21.45117 -16.13281,-19.22461 z m -63.59571,76.22851 16.14649,19.24024 -9.9375,11.95312 -16.22656,-19.18554 z" />
</svg>
