<?xml version="1.0" encoding="UTF-8"?>
<svg width="512" height="512" version="1.1" viewBox="0 0 512 512" xmlns="http://www.w3.org/2000/svg">
 <path d="m156 261 125 216-57.3 0.538-33.3-58-33.5 57.7-28.5-0.0102-14.6-25.2 47.8-82.1-33.9-59z" fill="#5277c3"/>
 <path d="m201 172-125 216-29.1-49.4 33.6-57.8-66.8-0.175-14.2-24.7 14.5-25.2 95 0.299 34.1-58.9z" fill="#7ebae4"/>
 <path d="m211 345 249 0.0153-28.2 49.9-66.9-0.185 33.2 57.9-14.2 24.7-29.1 0.0344-47.2-82.4-68.1-0.139z" fill="#7ebae4"/>
 <path d="m356 251-125-216 57.3-0.538 33.3 58 33.5-57.7 28.5 0.0102 14.6 25.2-47.8 82.1 33.9 59z" fill="#7ebae4"/>
 <path d="m156 261 125 216-57.3 0.538-33.3-58-33.5 57.7-28.5-0.0102-14.6-25.2 47.8-82.1-33.9-59z" fill="#5277c3"/>
 <path d="m301 166-249-0.014 28.2-49.9 66.9 0.19-33.2-57.9 14.2-24.7 29.1-0.0293 47.3 82.4 68.1 0.139z" fill="#5277c3"/>
 <path d="m311 339 125-216 29.1 49.4-33.6 57.9 66.8 0.175 14.2 24.7-14.5 25.2-95-0.304-34.1 58.9z" fill="#5277c3"/>
</svg>
