<?xml version="1.0" encoding="UTF-8"?>
<svg width="512" height="512" version="1.1" viewBox="0 0 512 512" xmlns="http://www.w3.org/2000/svg">
 <path d="m79 1.579c-41.74-0.1813-74.51 28.31-73.7 81.35 0.1062 121.1 0.1309 237.6 0.4808 359.9 7.125 48.39 67.87 77.21 110.1 52.92 31.81-18.55 25.75-34.07 51.97-48.72 37.16-23.95 90.56-5.153 105.8 35.6 5.128 9.557 6.737 54.57 6.737 5.159 0-32.66 1.535-69.31-3.337-86.36-10.94-30.7-46.67-47.57-73.76-49.91-27.09-2.338-47.47-25.48-47.47-59.24-1.329-36.31-2.373-76.52 24.35-104.8 36.11-44.03 104.4-48.45 148.4-3.546 15.45 14.53 24.97 48.32 24.97 48.32l71.07 22.03-68.81 20.03s0.8686 116 1.296 170.3c8.448 39.53 50.63 67.56 90.12 57.31 36.59-6.825 63.36-43.99 58.99-80.91-0.038-66.37 1.688-132.9-1.314-199.2-10.8-101.3-90.37-190.1-189.5-213.1-58.87-14.73-122.3-5.939-176.2 20.98-14.47-18.21-37.08-28.49-60.25-28.2z" style="fill:#000000;stroke:#5a860a"/>
 <ellipse cx="255.7" cy="252.6" rx="50.61" ry="50.61" style="fill:#000000;stroke:#5a860a"/>
</svg>
