<?xml version="1.0" encoding="UTF-8"?>
<svg width="512" height="512" version="1.1" viewBox="0 0 512 512" xmlns="http://www.w3.org/2000/svg">
 <rect x="0" y="0" width="512" height="512" fill="#fff"/>
 <path d="m79 1.58c-41.7-0.181-74.5 28.3-73.7 81.4 0.106 121 0.131 238 0.481 360 7.12 48.4 67.9 77.2 110 52.9 31.8-18.6 25.8-34.1 52-48.7 37.2-24 90.6-5.15 106 35.6 5.13 9.56 6.74 54.6 6.74 5.16 0-32.7 1.54-69.3-3.34-86.4-10.9-30.7-46.7-47.6-73.8-49.9-27.1-2.34-47.5-25.5-47.5-59.2-1.33-36.3-2.37-76.5 24.4-105 36.1-44 104-48.4 148-3.55 15.4 14.5 25 48.3 25 48.3l71.1 22-68.8 20s0.869 116 1.3 170c8.45 39.5 50.6 67.6 90.1 57.3 36.6-6.82 63.4-44 59-80.9-0.038-66.4 1.69-133-1.31-199-10.8-101-90.4-190-190-213-58.9-14.7-122-5.94-176 21-14.5-18.2-37.1-28.5-60.2-28.2z"/>
 <circle cx="256" cy="253" r="50.6"/>
</svg>
