<?xml version="1.0" encoding="UTF-8"?>
<svg width="512" height="512" version="1.1" viewBox="0 0 512 512" xmlns="http://www.w3.org/2000/svg">
 <path d="m222 213h33.8l-17.8-28.8-32.8 52h-14.9l39.9-62.4a9.51 9.51 0 0 1 15.5-0.111l40 62.5h-14.9l-7.02-11.6h-34.2l-7.44-11.6m155 11.6v-54.2h-12.7v59.6a6.12 6.12 0 0 0 1.88 4.43 6.4 6.4 0 0 0 4.61 1.93h57.6l7.51-11.6h-59m-209-9.75a22.3 22.3 0 0 0 0-44.5h-55.4v65.9h12.7v-54.2h42a10.7 10.7 0 0 1 0 21.3h-35.7l37.8 32.9h18.4l-25.4-21.3h5.69m-133 21.3h38.3a32.9 32.9 0 0 0 0-65.8h-38.3a32.9 32.9 0 1 0 0 65.8m37.4-11.6h-36.6a21.3 21.3 0 0 1 0-42.6h36.6a21.3 21.3 0 1 1 0 42.6m240 11.6h39.1l7.4-11.6h-45.6a21.3 21.3 0 1 1 0-42.6h37.1l7.49-11.6h-45.5a32.9 32.9 0 1 0 0 65.8m155-11.6a21.3 21.3 0 0 1-20.5-15.5h54.1l7.44-11.6h-61.6a21.3 21.3 0 0 1 20.5-15.5h37.1l7.42-11.6h-45.4a32.9 32.9 0 0 0 0 65.8h39.1l7.42-11.6h-45.6" style="fill:#c74634"/>
 <path d="m57.1 276h11v8.49h-11zm136 41.1-16-22.7h11l10.3 15.7h0.532l10.5-15.7h10.5l-16.1 22.5 16.9 24.1h-11l-11.3-17.1h-0.532l-11.3 17.1h-10.5zm-47.9 25q-14.8 0-14.8-16v-31.6h9.13v30.5q0 5.23 2.3 7.36 2.39 2.04 6.91 2.04 3.1 0 5.76-1.51 2.66-1.6 4.17-4.43 1.6-2.84 1.6-6.56v-27.4h9.13v46.6h-7.36l-0.886-6.2h-0.62q-2.57 3.55-6.47 5.41-3.9 1.86-8.86 1.86zm-65.3-47.7h7.36l0.886 6.2h0.62q2.48-3.55 6.38-5.41 3.99-1.86 8.95-1.86 14.8 0 14.8 16v31.6h-9.13v-30.5q0-5.23-2.39-7.27-2.3-2.13-6.82-2.13-3.1 0-5.76 1.6-2.66 1.51-4.25 4.34-1.51 2.84-1.51 6.56v27.4h-9.13zm-71.3-18.4h9.84v56.5h31.6v8.51h-41.5zm50.2 25.6v39.5h9.12v-46.6h-14.2v4.05z" style="fill:#c74634;paint-order:stroke fill markers;stroke-linecap:square;stroke-width:5.25"/>
</svg>
