<?xml version="1.0" encoding="UTF-8"?>
<svg width="512" height="512" version="1.1" viewBox="0 0 512 512" xmlns="http://www.w3.org/2000/svg">
 <defs>
  <linearGradient id="a" x1="102.8" x2="333.2" y1="238" y2="239" gradientUnits="userSpaceOnUse">
   <stop style="stop-color:#7a7a7a" offset="0"/>
   <stop style="stop-color:#e3e3e3" offset=".5"/>
   <stop style="stop-color:#9b9b9b" offset="1"/>
  </linearGradient>
  <linearGradient id="b" x1="368.4" x2="405.5" y1="260.6" y2="338.1" gradientUnits="userSpaceOnUse">
   <stop style="stop-color:#535353" offset="0"/>
   <stop style="stop-color:#c9c9c9" offset=".55"/>
   <stop style="stop-color:#acacac" offset="1"/>
  </linearGradient>
 </defs>
 <path d="m302 125.8c-29.16 0-27.95 25.59-39.29 31.69-25.71 5.05-87.52 0.5106-107.2-2.297l-32.43 5.432c-6.69 0.963-13.32 2.205-19.9 3.727-5.063 1.168-7.516 6.216-7.908 11.03-0.1741 27.09 0.458 57.83 4.771 84.71-19.88 3.503-31.54 23.75-43.68 37.94 9.377 7.796 20.74 12.43 32.14 16.4 10.33 3.565 13.19 2.201 21.9 5.57 4.421 2.11 8.721 4.677 12.9 7.699l1.582 4.541c0.2247 0.6542 1.195 0.4736 2.658 1.852 1.368 4.181 1.733 5.16 3.604 10.56-0.4559-0.2612-1.279-0.0969-2.473 0.4922 12.77 44.16 45.28 74.82 55.88 81.28 95.85 32.86 126.5-16.07 151.9-77.77l4.066-10.53c6.382 0.6813 11.44 0.6678 15.17-0.0391 8.659-1.652 16.73-6.369 24.17-12.17 3.77-2.935 8.087-5.395 12.95-7.377 26.27-10.7 33.68-11.61 46.44-16.4 6.69-2.336 12.79-5.782 18.29-10.34-75.94 2.345-67.72-39.57-75.53-36.28l-2.145 5.348h2e-3c0 0.2282-2.33 4.933-3.014 12.29-0.9912 6.024-5.892 9.483-11.12 11.61-0.2518 0.105-0.5432 0.064-0.7617-0.1074-1.127-0.8862-2.353-1.519-3.68-1.898-3.022-1.655-5.913-1.537-8.674 0.3535-0.8503 0.5281-1.758 0.7942-2.721 0.7988l0.4141-6.885 42.84-125.1s-8.364-1.731-12.65-1.951c-1.113-2.411-0.789-5.032-4.688-5.332-13.51-1.593-20.95-2.467-54.13-5.74-1.179 0.313-2.117 1.435-3.064 2.205-1.88-4.784-4.122-9.394-6.725-13.83z" fill="url(#a)"/>
 <path d="m245 431s-39.9 3.62-51.6-4.7c14.3 3.8 11.3-3.82 6.84-13.8-3.45-7.73-6.74-18.1-9.1-26.2 0 0 22.6 0.867 34.3-0.0419 1.97 11.3 4.27 46.4 19.6 44.7z" fill="#474747"/>
 <path d="m340 338c6.38 0.681 11.4 0.668 15.2-0.0391 8.66-1.65 16.7-6.37 24.2-12.2 3.77-2.94 8.09-5.4 13-7.38 26.3-10.7 33.7-11.6 46.4-16.4 6.69-2.34 12.8-5.78 18.3-10.3-75.9 2.34-67.7-39.6-75.5-36.3l-2.14 5.35h2e-3c0 0.228-2.33 4.93-3.01 12.3-0.991 6.02-5.89 9.48-11.1 11.6-0.252 0.105-0.543 0.064-0.762-0.107-1.13-0.886-2.35-1.52-3.68-1.9-3.02-1.66-5.91-1.54-8.67 0.354-0.85 0.528-12.3 9.32-13.2 9.32-10.4 8.05-10.5 34.9 1.13 45.7z" fill="url(#b)"/>
 <path d="m320 452c-1.43 4.7-3.52 9.06-6.25 13.1-0.195 3.11-1.17 5.82-2.92 8.13-6.72 8.87-22.2 7.25-30.2-3.12-2.96-2.07-5.64-4.46-8.05-7.18-8.67 9.28-8.72 13.8-8.65 17.6 0.131 5.98 4.67 11.1 10.8 10.3 21.3-2.75 12.5 8.94 26.3 11.6 14.3 2.6 9.84-17.2 21-16.5 6.65 0.438 19.2 1.35 23.5-4.83 1.58-3.82-20.3-22.9-25.4-29.1zm-157 9.03c-1.02 0.521-16.7 8.8-25.8 19.2-0.85 0.917-0.831 1.76 0.0606 2.51 6.74 5.72 19.9 3.41 26.8 4.52 3.76 0.607 6.02 8.9 9.26 11.6 3.36 2.81 7.23 3.55 11.6 2.21 3.96-1.21 5.68-4.53 9.17-6.33 4.93-2.54 9.97-2.14 15.3-1.4 8.7 1.21 14.3-2.87 11.7-12.6-4.18-6.62-10.2-12-16-17.1l-2.6 2.36c-0.774 4-2.86 6.98-6.27 8.97-12.8 7.48-26.7 1.13-31.4-11.2z" fill="#ffcc4e"/>
 <path d="m165 464c7.96 21 35.3 17.6 37.7 2.24-12 9.37-27.2 9.59-37.7-2.24zm149 1.28c-9.56 10.2-20.6 11.9-33.1 5.01 11.8 15.3 32.6 10.1 33.1-5.01z" fill="#f28913"/>
 <path d="m265 474c-5.16 6.48-5.19 17.7 3.88 20.7 5.52 1.78 10.4-2.86 18.3 2.78 4.03 2.87 5.99 8.88 9.9 11.2 14.7 8.56 16.4-11.5 23.9-17.3 4.74-2.4 27.9 7.03 25.7-9.03-0.635-1.63-1.53-3.11-2.69-4.42 0.541 1.07 1.61 2.3 1.33 3.51-4.22 6.18-16.8 5.27-23.5 4.83-11.1-0.738-6.62 19.1-21 16.5-10.8-1.95-4.96-14.3-26.3-11.6-6.09 0.776-10.6-4.35-10.8-10.3-0.0384-2.12 0.706-4.53 1.13-6.77zm-126 4.42c-1.55 1.14-2.9 2.48-4.03 4.03-2.8 10.2 15 9.24 20.4 8.54 4.42-0.569 7.15 0.391 9.39 4.15 4.61 7.74 10.1 16.6 21 12.1 4.57-1.89 7.08-7.23 11.9-9.05 5.53-1.91 10.7-1.13 16.4-0.414 4.35-0.453 8.95-2.17 9.99-7.06 0.743-3.5-0.272-6.7-3.04-9.62 2.57 9.74-3.02 13.8-11.7 12.6-5.33-0.738-10.4-1.14-15.3 1.4-3.5 1.8-5.22 4.73-9.17 5.94-14.3 4.35-15.2-12.5-20.9-13.4-6.87-1.11-20 1.2-26.8-4.52-1.54-1.91 0.837-3.15 1.96-4.67z" fill="#d78122"/>
 <path d="m216 2.76c-14 2.8-26.3 9.51-34 18.3-4.9 5.7-12.2 20.3-14.5 29.2-2.6 10-3.1 35.8-1 49 2.9 17.8 3 27.3 0.5 40-2.2 10.8-4.64 14.8-2.84 16.8 2.35 4.56 87.8 43.5 155-15.3-2.23-4.06-3.4-9.32-6.9-12.5-2.42 1.34-3.87 4.07-5.4 6.31-7.63-13.3-6.65-28.8-6.7-43.6 0-26.8-0.8-32.6-6-45-8.9-21.5-28.9-38.9-49.5-43.2-8.5-1.8-19.7-1.8-28.5 0z"/>
 <path d="m357 186c-11.9 21-23.7 42.4-26.2 47.6-4.9 10.1-7.4 13.4-11.8 15.7-3 1.5-3.7 3.8-1.5 4.7 2.6 1 9.2-4.8 12.8-11.3 45.8-82.1 50.9-91.5 50.4-93.2-0.4-1.1-0.9-1.9-1.3-1.9s-10.5 17.3-22.4 38.3z"/>
 <path d="m388 157c-8.9 10-31.5 50.2-46 81.5-7.8 16.8-8.6 18.3-13.5 22.1-2.9 2.3-5 4.7-4.7 5.4 0.2 0.801 0.4 4.1 0.4 7.41v6.01l4.2-3.1c2.3-1.7 4.21-2.91 4.31-2.71 0.41 0.41-2.06 11-1.47 11.6 15.4-1.85 29.8-14.9 38.7-26.7 2.5-3.5 4.7-6.31 4.9-6.31s2.2 0.701 4.4 1.6c3 1.2 4.19 4.74 5.8 7.84 5.3 10.6 16.1 19.6 26.9 24.2 8.7 3.8 23.2 6.2 34.4 6.3 11.8 0 13.9-0.0927 11.9-3.92-0.8-1.5 0.3-3.1 6.9-9.61 6.2-6.31 8.3-9.21 10-13.9 3-8.01 2.5-14-1.6-17.2-10.3-8.41-11-9.21-13.2-15.5-5.1-14-15.3-30.4-23.8-37.8-6.3-5.5-15-10.7-20.4-12.1-4.7-1.2-5.2-1.7-8.1-7.21-1.8-3.3-5.2-8.11-7.6-10.8s-4.1-5.3-3.8-5.8c0.9-1.3-1.5-6.11-3-6.11-0.7 0-3.2 2.2-5.6 4.9z"/>
 <path d="m88.7 182c-3.5 3.8-8.4 10.6-10.8 15.2-2.9 5.3-6.7 10.5-10.6 14.4-10.8 10.7-16.8 21.8-19.8 37-0.9 4.4-1.8 9.01-2.1 10.2-0.3 1.3-2.6 4.8-5.1 7.91-3.1 3.8-4.8 6.91-5.1 9.51-0.7 4.7 1.7 11.7 5 14.7 2.2 2.1 15.1 7.21 18 7.21 2.2 0 7.9-6.51 15.7-18.3 5-7.41 8.9-12 11.5-13.8 4.5-2.9 13.2-6.11 13.9-5.1-1.14 8.42 15 40.8 17.6 28.8 0.486-5.58-0.2-5.6 17.8-5 9.09 0.219 18.2 0.631 27.2 1.5l0.4 24.4 0.6-12c0.4-6.61 0.8-12.1 0.9-12.3 0-0.194 5.3-0.2 13.6-0.2l0.1 16.8c0.283 33.8 6.19 57.1 13.6 84.2l6.2 0.601c6.7 0.701 27.1 0.3 28-0.5-4.36-30.8-4.39-62-4.4-93.1h13.8l0.6-3.5c0.4-1.9 1-3.6 1.5-3.9 1.94-1.45 51.2-0.29 52.4-4.1 3.11-4.69 4.41-8.88 4.41-8.88s-5.11-0.624-13.9-0.224c-13.1 0.538-40.2 1.13-74.3 1.8-3.69-2.58-7.46-5.05-11.1-7.71-4.6-2.09-10.8 4.24-14.6 6.81-19.6-0.294-39.3-0.424-58.9-0.701-14.5-0.2-15-0.4-18.6-8.41-4.49-16.6-1.98-36.5-5.5-51.8-1.1-12.6-1.8-26.4-1.6-30.7 0.3-4.3 0.4-7.81 0.2-7.81-0.1 0-3.1 3.1-6.6 6.91z" fill="#2b2b2b"/>
 <path d="m162 197c-39.6-0.4-47.4-0.2-48.4 0.901-1.3 1.6-0.5 6.71 4.2 25.8 1.6 6.51 2.9 12.7 2.9 13.7s0.9 2.3 2.1 2.9c4.2 2.3 53.1 3.3 98 2.1 57.5-1.6 68.8-2.4 71-4.8 2-2 19-39.7 19-41.9 0-1.7-4.1-3.5-7.3-3.2-7.18 0-58.1 5.43-142 4.5z"/>
 <path d="m134 216c-2.5 1.4-4 4.6-3.3 6.91 1 3.1 5.8 5 12.5 5 5.1 0 6.5-0.4 8.5-2.5 1.4-1.3 2.5-3.1 2.5-4 0-0.901-1.1-2.7-2.5-4-2.1-2.2-3.3-2.5-9.2-2.5-3.7 0-7.6 0.5-8.5 1.1z"/>
 <path d="m194 250c-2.8 0-3.7 0.499-4.9 2.8-0.8 1.5-3.5 4.71-6 7.01l-4.6 4.2h-11c-10.8 0-11 0.1-10 2 1 1.8 2.1 2 11.5 2 9.8 0 10.5-0.101 13.7-2.7 6.2-5.2 7.7-6.8 8.7-9.61 0.8-2 1.7-2.7 3.6-2.7 1.6 0 2.5-0.601 2.5-1.5 0-1-1.1-1.5-3.5-1.5zm-87.5 11.8c-0.538-9.4e-4 -0.617 0.4-0.232 1.2 0.359 0.743 0.841 1.39 1.44 1.94 2.27 2.07 9.28 1.64 12.3 1.64-1.12-0.948-1.91-2.1-2.39-3.46-0.102-0.294-0.368-0.498-0.676-0.516l-8.17-0.506c-0.569 0.0461-1.09-6e-3 -1.56-0.154-0.282-0.0896-0.512-0.134-0.691-0.135zm141 1.21c0 2.5 0.115 3.34 16.8 2.39 5.3 6e-3 33.4-1.1 33.4-1.43l-2.13-3.62c-0.207-0.828-48 2-48 2.66z" fill="#474747"/>
 <path d="m334 336c-0.841 0.0297-2.69 0.768-6.3 2.41-3 1.4-5.2 2.8-4.9 3.1 0.6 0.601 11.8-4.2 11.8-5 0-0.344-0.165-0.523-0.606-0.508zm-204 9.1c-0.376 0.0141-0.394 0.219 0 0.613 0.6 0.5 2.4 1.2 4 1.6 3.4 0.701 1.5-0.701-2.5-1.9-0.7-0.219-1.21-0.323-1.5-0.312zm156 7c-1.05 0.015-3.85 0.465-9.31 1.42-4.2 0.701-15.1 1.3-24.7 1.4-14.9 0-17.3 0.3-17.3 1.6 0 1 0.4 1.2 1.3 0.701 0.6-0.4 8.9-0.8 18.2-0.9 15.9-0.1 28-1.4 31.5-3.5 0.875-0.482 1.12-0.732 0.303-0.721zm-124-40s-2.03 6.7 1.23 28.5c1.8 12 8.42 42.5 26.8 77.8 2.61 2.81-27.8-53.3-28-106z" fill="#474747"/>
 <path d="m332 358c-1.6 3.5-6.1 11.2-9.9 17.1-19.6 30.1-37.7 43.8-70.1 53-8 2.3-11.4 2.9-12.7 2.1-1.2-0.601-4-0.601-8.1 0.1-3.5 0.5-8.8 1-11.8 1-6.4-0.1-20.8-3-29.5-6.01-12.3-4.2-27.1-18.5-41.6-40-3.9-5.8-6.8-9.41-6.4-8.01 2.6 8.81 11.7 27.2 17.5 35.2l3.7 5.2-2.6 6.01c-2.3 5.4-2.6 7.51-2.6 17.6 0 12.3 1 15.5 7.2 23.8 5.9 7.81 19.6 10.8 29.6 6.41 6.4-2.8 14.3-10.6 17.7-17.2l2.8-5.5 12.8 0.3c10.2 0.3 15.1-0.1 23.3-1.8 5.7-1.1 10.4-2 10.5-1.8 0 0.2 1.8 3.8 3.9 8.01 11.1 22.4 33.5 28.5 47 12.8 5.5-6.51 7.9-13.8 8.5-26.4 0.5-12.3-0.6-18.9-4.9-28.4l-2.8-6.31 5.9-11.2c3.2-6.21 7.2-14.6 8.8-18.7 3.1-7.81 7.6-22.9 7-23.5-0.2-0.1-1.6 2.6-3.2 6.21z"/>
 <path d="m277 151c-6.96 3.74-22.1 8.99-22.1 8.99-1.56 3.68-3.94 10.9-2.71 15.4 2.33 0 11.4-3.38 17-5.52 25.4-9.83 36-16.9 50.3-29.4-1.8-4.55-4.29-9.73-7.49-13.4 0 0-22.5 17.2-35 23.9z" fill="#474747"/>
 <path d="m357 185c-11.9 21.1-23.6 42.5-26.1 47.7-4.92 10.1-7.57 13.8-12 16.1-3.01 1.5-4.1 3.72-1.5 4.71 3.09 1.2 9.61-5.2 13.2-11.7 45.9-82.2 50.6-91.5 50.1-93.2-0.401-1.1-0.903-1.91-1.3-1.91s-10.5 17.2-22.4 38.2z" fill="#474747"/>
 <path d="m388 156c-8.93 9.89-31.7 50.2-46.3 81.6-7.82 16.8-7.95 18.6-12.9 22.4-2.91 2.31-5.59 5.39-5.29 6.09 0.558 4.38 0.401 8.83 0.401 13.2l6.39-4.58c3.11-2.21 7.02-5.32 8.53-6.92 1.6-1.6 7.02-12.1 12.1-23.4 10.7-23.4 23-48.3 30.6-61.9 6.52-11.7 14.2-23.4 15-22.8 0.903 0.502 0.702-3.41-0.301-6.32-1.66-3.5-3.67-2.89-8.37 2.57z" fill="#474747"/>
 <path d="m93.7 179-3.95 5.75c-4.31 4.41-11.1 17.8-9.83 19.2 0.602 0.602 9.13-3.71 12.4-6.32 2.41-1.91 1.81-2.73 1.51-10.2zm-27.9 38.8c-2.75 1.52-9.58 9.11-12.5 17.1-1.72 4.45-2.32 16.1-2.32 20.8 14.8-6.62 21-16.4 22.3-28 0.642-5.62 1.46-14.8-7.43-9.91z" fill="#67686b"/>
 <path d="m412 187c-1.55 0.101-2.39 2.22-1.97 3.84 2.27 4.11 7.9 13.8 18.6 25.6 6.25 6.87 14.3 14.6 20.7 16.9 1.35 0.487 2.36-0.0796 2.79-1.45 1.54-4.92-4.64-14.8-7.41-18.8-13.3-19.7-27.2-26.5-32.7-26.1zm-43.9 46c-1.47 0.0627-3.49 0.909-6.06 2.54-2.61 1.6-5.92 4.51-7.42 6.42-3.31 4.01-10.6 22.9-9.53 24.2 1.41 1.54 19.2-3.4 24.7-22.2 2.14-7.45 1.57-11.1-1.66-11zm66 4.94c-14.6-0.358-33.4 9.32-37 16-0.903 1.7-0.701 2.41 1.2 3.91 7.32 6.05 42.8-5.25 46.9-10.5 2.01-2.41 1.1-6.02-1.91-7.42-2.69-1.31-5.83-1.93-9.2-2.01zm-2.23 34.5c-7 2.3-13.5 9.14-18.9 14 7.73 3.7 20.1 5.57 28.8 5.44 1.72-0.0244 3.11-3.24 3.67-4.95 4.35-11-2.72-17.6-13.6-14.5z" fill="#474747"/>
 <path d="m275 438-4.51 2.31c22.5 6.74 33.9-14 36.2-22.2 0.903-2.91 1.4-5.52 1.2-5.72-0.648-0.971-15.4 16.8-32.9 25.6z" fill="#474747"/>
 <path d="m194 448c4.31 0.702 11.5-0.602 12-2.11 0.201-0.502-2.21-1.8-5.32-2.91-17.9-6.05-32.7-22.6-33.9-22.6-2.64 0 8.61 24.9 27.2 27.6z" fill="#474747"/>
 <path d="m268 75.4c3.27 11.6 0.672 22.2-7.33 31-13.7-1.06-26.4-6.7-34.7-13.3-2.67-6.28-2.9-13.2-0.371-19.7 16.8-13 30.8-7.94 42.4 1.94zm-60.5-2.17c1.52 5.04 2.28 10.2 2.29 15.5-0.604 1.5-2.23 4.52-3.12 5.88-4.13 10.9-13.4 12-21.9 14.7-6.89-9.72-9.45-20.9-7.08-32.6 8.48-9.38 19.6-10 29.8-3.46z" fill="#fff"/>
 <path d="m215 15.1c2.05 2.26 3.34 4.45 3.89 6.57 1.66 6.47 1.71 13 0.146 19.5-0.236 0.978-0.779 2-1.63 3.06-1.46 1.82-3.43 1.26-5-0.23-5.04-4.76-10.9-4.75-17.8-3.52-6.85 1.21-12.4-1.7-8.14-9.22 3.85-6.76 19.9-25.7 28.6-16.1z" fill="#3f4041"/>
 <path d="m193 36.9c-10.6 1.18 0.778-12.6 11.3-19.3 12.1-6.41 13.3 14.7 10.3 22.2-5.53-4.8-13.3-5.75-21.6-2.89zm57.4 9.29c10.1 2.3 15.8 11.7 18.9 21.6-6.63-8.9-19.8-19.6-33.2-14.7-1.66 0.62-1.88 0.287-0.661-0.999 3.57-3.8 9.71-6.96 15-5.87zm-43.3 14.4c0.896 2.24 0.551 2.45-1.04 0.638-6.15-7.06-16.1-8.66-24.3-1.62-0.13 0.13-0.744 0.142-0.553-0.154 4.43-6.72 11.6-12.6 17-9.3 5.47 3.29 7.78 7.76 8.87 10.4z" fill="#58595b"/>
 <path d="m258.9 63.01c-0.1434 3.355-0.0115 6.255 0.5981 9.451-7.832-3.099-17.91-5.078-25.99-2.654-0.461-1.621-1.477-6.339-1.92-7.94 8.053-8.835 20.67-4.971 27.31 1.144zm-55.73 1.906c-0.8127 2.39-1.218 3.521-1.417 6.289-8.933-1.123-15.73 0.8561-20.11 3.013l-0.5726-6.416c6.246-9.761 15.53-11.1 22.1-2.886z" fill="#dcdbdc"/>
 <path d="m232.6 60.88c-3.647 3.381-6.146 7.755-7.222 12.74 2.863-1.701 6.002-3.066 9.142-4.096-0.461-1.621-0.9825-8.059-1.92-8.643zm25.15 1.121c-0.1434 3.355 0.0897 6.824 0.6992 10.02l9.349 3.543c-1.987-5.512-5.428-10.16-10.05-13.56zm-55.21 2.152c-1.532 1.885-2.116 4.326-1.752 6.938 2.965 0.4019 4.594 1.411 6.476 2.305-0.794-3.36-2.46-6.569-4.724-9.243zm-21.01 2.946c-2.039 2.725-3.481 6.138-4.095 9.734 1.092-1.162 3.168-2.083 4.855-2.93z" fill="#cbcccd"/>
 <path d="m246 74.3c-2.36 0.0285-4.94 1.17-7.55 3.84-4.74 4.85-5.81 13.2-3.8 19.5 4.51 2.77 8.97 4.45 14.1 5.93l0.00781 0.00195c13.6-8.6 7.5-29.4-2.74-29.3zm-51.3 3.79c-3.1-0.059-6.09 1.95-7.19 5.49-2.17 6.9-0.723 14.1 3.89 19.9 4.14-3.86 8.92-6.71 14-9.16v-0.00195c-0.143-5.02-2.21-10.4-5.41-13.8-1.55-1.64-3.44-2.42-5.3-2.46z" fill="#231f20"/>
 <path d="m211.6 89.38c-0.6531 0.2459-0.6377-0.6531-0.3074-1.022 0.2307-0.2611 9.399-8.729 10.07-5.878l1.283 5.348c0.2483 1.065-1.541 1.405-2.682 0.3457-0.4045-0.3591-3.851-0.4931-8.36 1.206z" fill="#58595b"/>
 <path d="m252.9 87.59c-2.134 0-0.6802-3.274-5.724-7.5-1.79-1.491 0.0441-3.264 1.603-2.174 3.03 2.118 5.073 5.303 5.607 8.312 0.1487 1.349-0.8137 1.362-1.486 1.362zm-52.57 2.685c-2.134 0-0.6802-3.274-5.724-7.5-1.79-1.491 0.0441-3.264 1.603-2.174 3.03 2.118 5.073 5.303 5.607 8.312 0.1487 1.349-0.8137 1.362-1.486 1.362z" fill="#969799"/>
 <path d="m225.8 92.64 9.528 4.41c7.815 5.104 15.92 6.228 25.58 9.059 6.208 2.766 6.508 11.23 4.518 16.73-16.95 8.258-60.28 23.17-83.28 3.844 2.348-14.63 14.1-23.93 25.81-33.96 6.019-1.783 11.97-1.813 17.84-0.09221z" fill="#ffcc4e"/>
 <path d="m208 92.73c-0.8145 1.777-2.1 3.15-3.857 4.118-1.145 0.1614-4.38 1.206-3.289 3.081-8.068 7.299-13.34 16.26-15.81 26.89-1.665 1.43-6.178-2.452-6.622-3.83-0.2861-2.759-0.5076-5.728 1.067-8.126 3.046-5.087 7.309-8.535 12.31-12.26 4.134-3.862 8.936-6.972 14.02-9.426 0.716-0.2751 1.428-0.3903 2.182-0.4456z" fill="#fdb94d"/>
 <path d="m227.5 97.82c-1.629-0.42-2.984-0.0256-4.065 1.183-1.583-0.4866-2.241-1.342-1.975-2.566 0.2109-1.041 4.07-1.095 6.039 1.383zm-23.41-0.9681c0.82 0.5003 0.9871 0.7721 0.9067 1.637-0.9937 1.357-2.392 1.839-4.195 1.445-1.091-1.875 1.183-2.92 3.289-3.081z" fill="#bb7c25"/>
 <path d="m227.5 97.82 0.1614 0.9297c-2.094 2.163-4.116 0.3551-4.226 0.2536 1.081-1.209 2.436-1.603 4.065-1.183z" fill="#df952c"/>
 <path d="m227.7 98.75c10.31 1.121 13.98 8.63 13.78 9.105-0.9269 2.108-1.676 4.407-2.805 6.37-3.181 1.944-5.34 5.494-8.997 6.669-4.641 1.485-9.31 2.879-14.01 4.18-1.219 0.3381-1.434 0.0128-0.6454-0.9758 5.696-7.12 9.246-15.2 10.65-24.24 0.5737 0.06147 1.247-0.3073 2.021-1.106z" fill="#ffd65c"/>
 <path d="m259.6 113.4c0 3.937-2.106 3.97-5.01 1.975-0.845 0.1739-2.148 4.755-19.04 16.02-25.49 14.48-41.78 8.873-56.51-7.966 1.777 0.6557 4.637 2.17 5.994 3.389 23.15 17.79 52.61 2.076 71.15-13.79 1.03-0.7171 2.167-0.5916 3.412 0.3765z" fill="#de683c"/>
 <path d="m259.6 113.4c4.006 1.726 5.96 4.871 5.863 9.435-2.881 13.45-54.67 29.99-65.94 13.66 5.174 0.9631 7.882 0.8915 14.77 0.55 13.33-1.466 28.11-10.61 39.53-21.53 0.2143-0.1804 0.5073-0.2332 0.7684-0.1383 2.341 0.8708 4.011 0.2126 5.01-1.975z" fill="#faa74a"/>
 <path d="m178.4 122.8c0.9835-0.1486 1.637 0.2587 1.959 1.222 5.675 5.216 8.276 7.396 9.179 7.861 6.77 3.496 4.665 2.517 19.53 8.205s29.89-0.2775 42.78-8.045c-0.5818 7.99-23.05 22.12-40.13 20.26-17.32-2.812-23.8-9.43-25.32-19.08-4.651-1.987-7.32-5.46-8.006-10.42z" fill="#e29844"/>
 <path d="m262 129c-12.3 9.94-32.3 32.4-35.1 35.3 2.19 7.28 46.3-7.56 50.5-12.8-5.66-6.34-12.6-14.5-15.4-22.6zm-75.1 4.6-5.67 25.8c1.42 2.06 15.2 4.84 22.2 5.12-8.09-8.52-14.6-21.2-16.6-30.9z" fill="#f3f4f4"/>
 <path d="m115.9 193c63.65 3.425 151.3-0.8584 192.3-3.361 5.881 0.537 7.769 3.875 5.923 8.884-2.055 6.245-12.86 28.98-19.73 43.36-62.21 4.206-121.1 5.809-176.1 1.945-1.812-10.28-6.821-32.51-8.264-42.47-0.3828-6.688 1.842-7.322 5.877-8.353z" fill="#939394"/>
 <path d="m259.5 130.4c-6.941 12.23-16.07 22.46-27.38 30.69-11.57 7.846-22.38 9.37-31.95 0.4072 0 0-8.537-6.682-13.25-26.08 18.8 21.05 48.57 20.05 64.5-2.853 0.443-0.7906 0.7759-1.442 1.575-1.414 1.981 0.0695 4.36-0.2526 6.511-0.7495z" fill="#d2d3d4"/>
 <path d="m113.9 198c4.633-2.415 81.54 0.2821 113-0.8163 33.39-1.165 80.91-5.796 82.29-1.63l-19.7 42.23c-56.37 4.348-112 4.567-166.9 0.9412-3.069-13.21-7.563-23.33-8.699-40.72z" fill="#fff"/>
 <path d="m306.3 196.9c-10.47 3.262-166.5 7.065-183.8 4.054 0 0 3.215 28.19 4.548 33.2l-5.976 5.282c-1.696-13.2-6.539-25.79-7.967-39.04-0.2152-3.219 2.793-4.133 4.941-4.134 28.29-4e-3 65.52 1.069 92.8 0.5704 25.83-0.4723 96.46-4.42 96.46-4.42 4.164 1.528 3.188 2.781-1.027 4.486z" fill="#ef535a"/>
 <path d="m311 197.9c-5.501 12.19-10.97 24.4-16.41 36.61-1.153 2.589-3.133 5.131-5.799 5.653-53.23 3.204-108.6 4.694-159.5 1.731-3.358-0.1958-6.05-0.8554-8.068-2.105l-0.2228-0.3534c0.4119-0.9141 6.173-5.967 6.173-5.967l152 0.9519 26.55-38.47s3.27-1.682 3.881-2.37c1.657 1.013 1.716 2.565 1.383 4.315z" fill="#cd1b23"/>
 <path d="m288.4 210.8c0.1281-1.777 0.4303-1.985 0.9067-0.6224 0.0865 0.2352 0.0491 0.5001-0.0999 0.7069-1.122 1.537-2.198 1.516-3.227-0.0615-0.1983-0.3004-0.1632-0.6964 0.0845-0.9528 0.9476-0.9835 1.311-0.6326 1.091 1.053-0.0807 0.5198 0.4172 0.4503 0.6301 0.4456 0.325 9e-4 0.5944-0.2482 0.6147-0.5686z" fill="#fa8b90"/>
 <path d="m298.8 216.8c-2.213 5.548-4.515 11.33-6.908 16.8-2.543 5.793-7.561 4.403-12.51 4.825-40.78 2.07-81.63 2.204-122.5 1.964-9.542-0.3667-30.37-0.4807-34.12-2.989-4.626-17.73-7.258-28.8-7.899-33.19-0.8412-5.165 2.653-6.651 7.476-6.595 39.45 0.3732 73.63 1.401 117.2-0.0432 20.19-1.226 40.2-2.624 60.32-3.44 2.869-0.1127 5.361 0.2624 7.323 1.128-0.4744 7.649-5.3 14.67-8.382 21.54zm-8.898-6.154c1e-5 -1.337-1.084-2.42-2.42-2.42-1.337 0-2.42 1.084-2.42 2.42 1e-5 1.337 1.084 2.42 2.42 2.42 1.337 0 2.42-1.084 2.42-2.42zm-24.9 10.92 14.96-0.5225c0.2586-5e-3 0.4971-0.1443 0.6301-0.3688l1.444-2.42c0.4815-0.8093 0.2536-1.196-0.6838-1.16l-16.47 0.5686c-0.5925 0.0224-0.986-0.6064-0.7069-1.129 0.7479-1.404 1.747-2.431 2.997-3.081 2.897-1.506 10.28-0.9681 13.72-1.014 0.2632-5e-3 0.5057-0.1405 0.6454-0.3611l1.521-2.451c0.502-0.8144 0.274-1.206-0.6838-1.176-2.284 0.0685-11.24-0.5896-16.5 1.129-8.168 3.289-8.859 16.29-0.6224 19.69 3.988 1.644 11.38 0.4918 16.24 0.2766 0.2597-0.015 0.4957-0.159 0.6301-0.3842l1.406-2.436c0.4764-0.8298 0.2382-1.214-0.7146-1.153-3.924 0.251-7.83 0.4226-11.72 0.5148-1.885 0.0461-3.258-0.1357-4.118-0.5455-1.26-0.5942-2.151-1.57-2.674-2.927-0.1908-0.4935 0.1627-1.028 0.6915-1.045zm-22.69 4.795-0.2689-16.22c-8e-3 -0.4183-0.3499-0.7531-0.7684-0.753h-2.489c-0.4274-2e-5 -0.7726 0.3487-0.7684 0.776l0.1306 18.82c0.0103 1.501 0.8119 2.228 2.405 2.182l17.15-0.5071c0.2595-9e-3 0.4983-0.1473 0.6377-0.3688l1.521-2.528c0.4866-0.8042 0.2587-1.191-0.6838-1.16l-16.07 0.5225c-0.4273 0.0128-0.7829-0.329-0.7914-0.7607zm-23.67-11.37c3.15-2.059 10.7-1.421 14.65-1.383 0.2753 5e-3 0.5333-0.1383 0.6762-0.3765l1.445-2.474c0.3003-0.5063-0.0569-1.148-0.6454-1.16-8.017-0.1793-12.79-0.0948-14.33 0.2536-12.94 2.92-11.23 22.17 3.335 21.77 3.324-0.0922 6.662-0.1383 10.01-0.1383 0.2713-4e-5 0.5224-0.1431 0.6608-0.3765l1.537-2.597c0.4764-0.7991 0.2484-1.186-0.6838-1.16-3.586 0.1127-7.156 0.187-10.71 0.2228-10.7-0.4607-9.335-10.36-5.947-12.58zm-18.91 1.145 3.965 6.715c0.2988 0.5034-0.0526 1.143-0.6377 1.16l-7.637 0.2075c-0.8913 0.0205-1.101 0.4098-0.6301 1.168l1.506 2.428c0.1431 0.2323 0.3982 0.3701 0.6685 0.3611l9.604-0.2075c0.2806-5e-3 0.5422 0.1419 0.6838 0.3842l1.821 3.127c0.137 0.2376 0.3889 0.384 0.6608 0.3842h3.089c0.9169 0 1.137-0.3893 0.6608-1.168-3.765-6.178-7.545-12.34-11.34-18.49-1.975-3.196-4.264-3.358-6.254 0.0384-3.642 6.213-7.281 12.43-10.92 18.66-0.4508 0.7684-0.2305 1.153 0.6608 1.153h3.089c0.2766-3.8e-4 0.5313-0.1468 0.6685-0.3842l9.013-15.53c0.2934-0.512 1.03-0.5159 1.329-7e-3zm-73.65 2.666c-0.9451 5.617 3.342 12.06 9.458 12.42 3.127 0.1844 12.6 1.16 16.65-0.5916 7.623-3.289 11.47-20.52-8.329-20.47-7.246 0.0154-16.13-1.106-17.78 8.644zm38.91-4.61h12.76c2.853 1e-3 2.885 6.723 0.1152 6.723h-10.55c-1.05 0-1.188 0.356-0.4149 1.068l10.75 9.873c0.1437 0.1286 0.3297 0.1997 0.5225 0.1998h4.111c1.081 0 1.217-0.3586 0.4072-1.076l-5.256-4.649c-0.8298-0.7376-0.6941-1.183 0.4072-1.337 2.315-0.3278 4.042-1.37 5.179-3.127 2.29-3.557 1.391-8.606-2.451-10.74-1.147-0.6403-2.848-0.9656-5.102-0.9758-4.856-0.0256-9.756 3e-3 -14.7 0.0845-0.4232 4e-3 -0.7616 0.3529-0.753 0.776l0.2612 20.09c4e-3 0.4214 0.347 0.7607 0.7684 0.7607h2.505c0.4274 2e-5 0.7726-0.3487 0.7684-0.776l-0.0999-16.12c-4e-3 -0.4274 0.341-0.7761 0.7684-0.776z" fill="#ed1c24"/>
 <rect x="130" y="214.2" width="24" height="13.3" rx="8.2" ry="8.2" fill="#ed1c24"/>
 <path d="m164 148-0.385 0.193c1.31 7.01 2.85 11.4 5.08 16.8 5.66 3.11 26.4 7.34 32.8 8.62 0.234 0.0453 0.598 0.513-0.0547 0.385-6.07-1.23-26.6-5.32-32.1-8.16-1.71-0.239-2.56 0.436-2.07 2.17 6.1 3.8 16.5 6.69 23.2 8.81-1.17 4.73-2.82 13.3-2.75 17.6l35.2-0.693s2.63-12.2 3.33-15c0 0 11.6-1.13 26.4-3.15l-0.131-2.12c-0.0537-0.859-1.62-0.363-1.84-0.324-4.07 0.69-32.7 3.36-32.8 2.13-0.0407-0.353 17-0.14 37.5-3.51 1.31-0.323 1.65-0.361 1.34-1.83-2.03-10.5 3.49-9.13 6.92-12-22.5 3.71-44.6 5.91-66.9 2.99-7.2-1.03-23.3-5.2-32.6-13zm53.2 27.7-1.2 8.38c-0.041 1.08-0.62 1.63-1.74 1.64-10.5 0.341-13.9 0.58-13.3-2.22l1.49-8.65c0.48-2.78 15.5-1.98 14.7 0.85z" fill="#a3a4a6"/>
 <path d="m316 251c-6.36 4.17-14 9.2-21.9 8.99 1.19 1.11 1.86 2.7 3.07 3.97 8.2-0.334 14.8-5.94 21.6-10-1.37-0.0604-3.14-0.296-2.79-2.95zm7.85 14.2c-9.66 4.7-20.3 7.73-31.2 9.14-0.909 3.96-2.28 6.85-4.25 9.63 12.3 0.414 23.7-2.35 35.4-3.96 0.913-5.3 0.904-10.2 0.0488-14.8zm-88.9 21.2c-1.09 1.9-1.19 5.43-0.94 7.99 0 0 10 0.35 21.3-0.349s11.5-8.35 11.5-8.35z" fill="#939394"/>
 <path d="m334 293c-13.4 8.01-2.72 12.9-5 20.3-0.347 1.03-3.1 7.65 2.22 13 2.14 2.17-0.249 4.96 2.14 8.81 1.29 2.07 3.88 2.58 6.72 3.14 6.38 0.681 11.4 0.668 15.2-0.0391 8.66-1.65 16.7-6.37 24.2-12.2 3.77-2.94 8.09-5.4 13-7.38 13.6-5.54 26.5-9.92 38.7-13.7 1.65-0.487 8.16-2.74 11.7-4.18-2.5-0.56-17.4 4.38-19.9 4.92-15.8 5.32-32.6 9.98-46.2 20-11.4 9.11-20.9 10.3-20.9 10.3-15.1 0.529-18.6 1.12-21.8-9.34-3.12-9.79 2.73-14.2 0.498-16.6-4.32-8.95 17.4-27.1 22.4-28.5-3.62 0.67-24.6-1.87-22.9 11.5z" fill="#5b5b5b"/>
 <path d="m98.7 261c-1.49-0.0129-4.13 0.989-5.79 1.6l2.56 7.32c0.0806 0.546-2.97 2.25-4.3 3.86-7.82 9.48-3.89 4.97 1.65-0.174 0.407-0.254 0.944-0.0718 1.11 0.377 3.88 9.97 7.61 19.4 11.7 29.2 1.53 1.11 3.39 1.47 4.74 2.5 5.12 3.99 8.92 8.66 0.0918 9.54-2.52 0.382 1.1 0.816-0.199 4.25 4.42 2.11 8.72 4.68 12.9 7.7-3.16-11.2-5.63-24.8-6.31-36.5-0.351 1.4-1.61 2.2-3.89 0.449-7.35-8.74-12.9-29.4-13.8-30.1-0.16-0.0474-0.35-0.0704-0.562-0.0723z" fill="#5b5b5b"/>
 <path d="m164 148c1.28 1.8 4.33 3.31 5.07 5.33 1.85 4.36-0.0192 13.7-1.45 14.5l-8.01-4.41c-2.24-2.3-3.9-4.1-3.75-7.51l5.64-9.21c0.204-0.379 0.685-0.511 1.06-0.292 0.682 0.365 1.05 0.97 1.44 1.6z" fill="#474747"/>
 <path d="m199 256 9.49 6.47c0.591 0.415 12.8-1.06 42.2-0.443-2.76 0.822-1.44 2.19 0.687 3.11-13.8 1.3-27.6 1.5-41.5 1.74-2.56-1.8-5.05-3.6-7.48-5.39-2-1.48-2.65-3.24-3.4-5.48zm-38.7 7.56c-4.29 0.54-0.757 2.96 0.905 3.5-13.4-0.109-40.4-1.08-40.4-1.08-1.46-1.07-2.12-2.46-2.76-3.85 0 0 0.752 0.561 42.3 1.43z" fill="#939394"/>
</svg>
