<?xml version="1.0" encoding="UTF-8"?>
<svg width="512" height="512" version="1.1" viewBox="0 0 512 512" xmlns="http://www.w3.org/2000/svg">
 <defs>
  <linearGradient id="a" x1="102.8" x2="333.2" y1="238" y2="239" gradientUnits="userSpaceOnUse">
   <stop style="stop-color:#828282" offset="0"/>
   <stop style="stop-color:#dadada" offset=".5"/>
   <stop style="stop-color:#9b9b9b" offset="1"/>
  </linearGradient>
 </defs>
 <path d="m302 125.8c-29.16 0-27.95 25.59-39.29 31.69-21.64 6.989-43.95 9.206-66.48 6.846-23.54-6.725-28.72-9.741-40.74-9.143l-32.43 5.432c-6.69 0.963-13.32 2.205-19.9 3.727-5.063 1.168-7.516 6.216-7.908 11.03-0.1741 27.09 0.458 57.83 4.771 84.71-19.88 3.503-31.54 23.75-43.68 37.94 9.377 7.796 20.74 12.43 32.14 16.4 10.33 3.565 13.19 2.201 21.9 5.57 4.421 2.11 8.721 4.677 12.9 7.699l1.582 4.541c0.2247 0.6542 1.195 0.4736 2.658 1.852 1.368 4.181 1.733 5.16 3.604 10.56-0.4559-0.2612-1.279-0.0969-2.473 0.4922 12.77 44.16 45.28 74.82 55.88 81.28 95.85 32.86 126.5-16.07 151.9-77.77l4.066-10.53c6.382 0.6813 11.44 0.6678 15.17-0.0391 8.659-1.652 16.73-6.369 24.17-12.17 3.77-2.935 8.087-5.395 12.95-7.377 26.27-10.7 33.68-11.61 46.44-16.4 6.69-2.336 12.79-5.782 18.29-10.34-75.94 2.345-67.72-39.57-75.53-36.28l-2.145 5.348h2e-3c0 0.2282-2.33 4.933-3.014 12.29-0.9912 6.024-5.892 9.483-11.12 11.61-0.2518 0.105-0.5432 0.064-0.7617-0.1074-1.127-0.8862-2.353-1.519-3.68-1.898-3.022-1.655-5.913-1.537-8.674 0.3535-0.8503 0.5281-1.758 0.7942-2.721 0.7988l0.4141-6.885 42.84-125.1s-8.364-1.731-12.65-1.951c-1.113-2.411-0.789-5.032-4.688-5.332-13.51-1.593-20.95-2.467-54.13-5.74-1.179 0.313-2.117 1.435-3.064 2.205-1.88-4.784-4.122-9.394-6.725-13.83z" fill="url(#a)"/>
 <path d="m319.9 452.2c-1.434 4.697-3.519 9.06-6.254 13.09-0.1946 3.109-1.168 5.819-2.92 8.129-6.716 8.874-22.15 7.247-30.19-3.119-2.961-2.069-5.645-4.461-8.053-7.176-8.672 9.281-8.72 13.82-8.652 17.56 0.1306 5.978 4.673 11.1 10.77 10.33 21.33-2.747 12.48 8.939 26.29 11.59 14.33 2.605 9.835-17.24 20.95-16.5 6.654 0.438 19.24 1.346 23.46-4.832 1.58-3.816-20.26-22.89-25.4-29.06zm-156.9 9.029c-1.019 0.5213-16.74 8.797-25.84 19.25-0.8503 0.9169-0.8307 1.756 0.0606 2.514 6.738 5.724 19.9 3.411 26.77 4.525 3.765 0.607 6.025 8.897 9.26 11.62 3.355 2.812 7.23 3.55 11.62 2.213 3.957-1.214 5.678-4.532 9.174-6.33 4.933-2.536 9.972-2.136 15.3-1.398 8.698 1.206 14.29-2.867 11.72-12.61-4.185-6.617-10.19-11.95-15.97-17.13l-2.605 2.359c-0.7735 3.995-2.863 6.984-6.27 8.967-12.85 7.485-26.74 1.127-31.43-11.2z" fill="#ffcc4e"/>
 <path d="m164.7 464c7.956 20.99 35.27 17.55 37.7 2.236-12.02 9.374-27.25 9.589-37.7-2.236zm148.9 1.275c-9.558 10.19-20.59 11.86-33.11 5.01 11.83 15.27 32.62 10.08 33.11-5.01z" fill="#f28913"/>
 <path d="m264.9 473.9c-5.156 6.485-5.186 17.73 3.881 20.66 5.519 1.782 10.41-2.86 18.32 2.783 4.026 2.866 5.986 8.882 9.896 11.17 14.67 8.56 16.44-11.47 23.88-17.32 4.74-2.403 27.88 7.027 25.73-9.033-0.6352-1.634-1.53-3.107-2.688-4.418 0.541 1.073 1.606 2.305 1.328 3.512-4.218 6.178-16.8 5.27-23.46 4.832-11.12-0.7376-6.623 19.11-20.95 16.5-10.77-1.953-4.964-14.34-26.29-11.59-6.093 0.776-10.64-4.348-10.77-10.33-0.0384-2.121 0.7063-4.526 1.129-6.77zm-125.8 4.418c-1.552 1.137-2.896 2.481-4.033 4.033-2.805 10.2 15.01 9.236 20.38 8.537 4.418-0.5686 7.153 0.3912 9.389 4.148 4.61 7.737 10.07 16.62 20.98 12.12 4.572-1.89 7.084-7.23 11.86-9.051 5.526-1.913 10.74-1.127 16.36-0.4141 4.349-0.4533 8.953-2.168 9.99-7.062 0.7427-3.499-0.2718-6.704-3.043-9.619 2.574 9.743-3.021 13.82-11.72 12.61-5.332-0.7376-10.37-1.137-15.3 1.398-3.496 1.798-5.217 4.731-9.174 5.945-14.29 4.346-15.25-12.54-20.88-13.45-6.869-1.114-20.03 1.199-26.77-4.525-1.542-1.913 0.8366-3.153 1.959-4.672z" fill="#d78122"/>
 <path d="m216 2.76c-14.01 2.803-26.31 9.509-34.02 18.32-4.902 5.705-12.21 20.32-14.51 29.23-2.601 10.01-3.102 35.83-1 49.05 2.901 17.82 3.001 27.33 0.5002 40.04-2.201 10.81-4.639 14.77-2.838 16.77 2.348 4.564 87.77 43.5 154.9-15.27-2.233-4.055-3.403-9.316-6.903-12.51-2.42 1.338-3.867 4.072-5.403 6.306-7.631-13.28-6.654-28.8-6.703-43.64 0-26.82-0.8004-32.63-6.003-45.04-8.904-21.52-28.91-38.94-49.52-43.24-8.504-1.802-19.71-1.802-28.51 0z"/>
 <path d="m356.8 185.7c-11.91 21.02-23.71 42.44-26.21 47.64-4.902 10.11-7.404 13.41-11.81 15.71-3.001 1.501-3.702 3.804-1.501 4.704 2.601 1.001 9.204-4.804 12.81-11.31 45.82-82.08 50.92-91.48 50.42-93.19-0.4002-1.101-0.9004-1.902-1.301-1.902-0.4002 0-10.51 17.32-22.41 38.34z"/>
 <path d="m387.9 157.3c-8.904 10.01-31.52 50.15-46.02 81.48-7.804 16.82-8.604 18.32-13.51 22.12-2.901 2.302-5.002 4.704-4.702 5.405 0.2001 0.8008 0.4002 4.104 0.4002 7.407v6.006l4.202-3.103c2.301-1.702 4.206-2.907 4.306-2.706 0.4098 0.41-2.064 10.99-1.473 11.58 15.38-1.854 29.8-14.93 38.69-26.69 2.501-3.503 4.702-6.306 4.902-6.306s2.201 0.7006 4.402 1.601c3.001 1.201 4.194 4.741 5.795 7.844 5.303 10.61 16.11 19.6 26.91 24.2 8.704 3.804 23.22 6.202 34.42 6.302 11.81 0 13.88-0.0927 11.91-3.915-0.8004-1.501 0.3002-3.103 6.903-9.609 6.203-6.306 8.304-9.209 10-13.91 3.001-8.007 2.501-14.01-1.601-17.22-10.31-8.408-11.01-9.209-13.21-15.51-5.102-14.01-15.31-30.43-23.81-37.84-6.303-5.505-15.01-10.71-20.41-12.11-4.702-1.201-5.203-1.702-8.104-7.207-1.801-3.303-5.203-8.108-7.604-10.81s-4.102-5.305-3.802-5.805c0.9004-1.301-1.501-6.106-3.001-6.106-0.7004 0-3.202 2.202-5.603 4.905z"/>
 <path d="m88.72 182.3c-3.502 3.804-8.404 10.61-10.81 15.21-2.901 5.305-6.703 10.51-10.61 14.41-10.81 10.71-16.81 21.82-19.81 37.03-0.9004 4.404-1.801 9.008-2.101 10.21-0.3001 1.301-2.601 4.804-5.102 7.907-3.102 3.804-4.802 6.906-5.102 9.509-0.7003 4.704 1.701 11.71 5.002 14.71 2.201 2.102 15.11 7.207 18.01 7.207 2.201 0 7.904-6.506 15.71-18.32 5.002-7.407 8.904-12.01 11.51-13.81 4.502-2.903 13.21-6.106 13.91-5.105-1.141 8.419 15 40.75 17.61 28.83 0.486-5.584-0.2001-5.605 17.81-5.005 9.09 0.2194 18.16 0.6309 27.21 1.501l0.4002 24.42 0.6003-12.01c0.4002-6.606 0.8004-12.11 0.9004-12.31 0-0.1936 5.303-0.2002 13.61-0.2002l0.1 16.82c0.283 33.83 6.193 57.14 13.61 84.18l6.203 0.6006c6.703 0.7006 27.11 0.3003 28.01-0.5005-4.364-30.82-4.392-61.98-4.402-93.09h13.81l0.6003-3.503c0.4002-1.902 1-3.603 1.501-3.904 1.937-1.453 51.15-0.2898 52.43-4.104 3.112-4.688 4.409-8.885 4.409-8.885s-5.109-0.624-13.91-0.2236c-13.1 0.5384-40.23 1.13-74.34 1.802-3.691-2.584-7.463-5.053-11.11-7.707-4.595-2.086-10.76 4.238-14.61 6.806-19.64-0.2942-39.29-0.4244-58.93-0.7006-14.51-0.2002-15.01-0.4004-18.61-8.408-4.489-16.64-1.984-36.52-5.503-51.75-1.101-12.61-1.801-26.42-1.601-30.73 0.3001-4.304 0.4002-7.807 0.2001-7.807-0.1 0-3.102 3.103-6.603 6.906z" fill="#2b2b2b"/>
 <path d="m162.3 197.1c-39.62-0.4004-47.42-0.2002-48.42 0.9008-1.301 1.601-0.5002 6.706 4.202 25.82 1.601 6.506 2.901 12.71 2.901 13.71s0.9004 2.302 2.101 2.903c4.202 2.302 53.13 3.303 97.95 2.102 57.53-1.601 68.83-2.402 71.03-4.804 2.001-2.002 19.01-39.74 19.01-41.94 0-1.702-4.102-3.503-7.304-3.203-7.178 0-58.06 5.433-141.5 4.504z"/>
 <path d="m133.7 215.6c-2.501 1.401-4.002 4.604-3.302 6.906 1 3.103 5.803 5.005 12.51 5.005 5.102 0 6.503-0.4004 8.504-2.502 1.401-1.301 2.501-3.103 2.501-4.004 0-0.9008-1.101-2.703-2.501-4.004-2.101-2.202-3.302-2.502-9.204-2.502-3.702 0-7.604 0.5005-8.504 1.101z"/>
 <path d="m196 220.7-2.301 4.104 2.401-0.6006c1.301-0.4004 3.602-0.7006 5.102-0.7006h2.701l-2.001-3.503c-1.201-1.902-2.401-3.503-2.801-3.503-0.4002 0-1.801 1.902-3.102 4.204z"/>
 <path d="m194.5 249.5c-2.801 0-3.702 0.4986-4.902 2.801-0.8004 1.501-3.501 4.706-6.002 7.008l-4.604 4.203h-11c-10.81 0-11.01 0.1002-10.01 2.002 1 1.802 2.101 2.002 11.51 2.002 9.805 0 10.51-0.1007 13.71-2.703 6.203-5.205 7.703-6.805 8.703-9.607 0.8004-2.002 1.701-2.703 3.602-2.703 1.601 0 2.502-0.6011 2.502-1.502 0-1.001-1.101-1.5-3.502-1.5zm-87.5 11.81c-0.5378-9.4e-4 -0.6166 0.4002-0.2324 1.203 0.3586 0.7428 0.8409 1.387 1.445 1.936 2.274 2.067 9.275 1.644 12.27 1.637-1.117-0.9476-1.914-2.102-2.391-3.465-0.1018-0.2936-0.3684-0.4977-0.6758-0.5156l-8.168-0.5059c-0.5686 0.0461-1.087-6e-3 -1.559-0.1543-0.2817-0.0896-0.5121-0.1344-0.6914-0.1348zm140.7 1.209c0 2.502 0.1152 3.34 16.75 2.392 5.301 6e-3 33.36-1.101 33.42-1.432l-2.131-3.619c-0.207-0.828-48.04 2-48.04 2.659z" fill="#474747"/>
 <path d="m334.4 335.7c-0.8414 0.0297-2.686 0.768-6.297 2.41-3.001 1.401-5.202 2.801-4.902 3.102 0.6003 0.6006 11.8-4.203 11.8-5.004 0-0.3441-0.1647-0.5234-0.6055-0.5078zm-204 9.104c-0.3757 0.0141-0.3939 0.2192 0 0.6133 0.6003 0.5005 2.401 1.201 4.002 1.602 3.402 0.7006 1.502-0.7012-2.5-1.902-0.7003-0.219-1.21-0.3234-1.502-0.3125zm155.9 6.998c-1.049 0.015-3.848 0.4647-9.307 1.422-4.202 0.7006-15.11 1.3-24.71 1.4-14.91 0-17.31 0.3004-17.31 1.602 0 1.001 0.4004 1.202 1.301 0.7012 0.6003-0.4004 8.904-0.8003 18.21-0.9004 15.91-0.1001 28.01-1.402 31.52-3.504 0.8754-0.4817 1.118-0.7323 0.3027-0.7207zm-124-39.95s-2.032 6.703 1.234 28.52c1.796 12 8.424 42.46 26.81 77.82 2.606 2.81-27.76-53.29-28.04-106.3z" fill="#474747"/>
 <path d="m331.9 357.5c-1.601 3.503-6.103 11.21-9.905 17.12-19.61 30.13-37.72 43.84-70.13 53.05-8.004 2.302-11.41 2.903-12.71 2.102-1.201-0.6006-4.002-0.6006-8.104 0.1001-3.502 0.5005-8.804 1.001-11.81 1.001-6.403-0.1001-20.81-3.003-29.51-6.006-12.31-4.204-27.11-18.52-41.62-40.04-3.902-5.805-6.803-9.409-6.403-8.007 2.601 8.808 11.71 27.23 17.51 35.23l3.702 5.205-2.601 6.006c-2.301 5.405-2.601 7.507-2.601 17.62 0 12.31 1 15.51 7.204 23.82 5.903 7.807 19.61 10.81 29.61 6.406 6.403-2.803 14.31-10.61 17.71-17.22l2.801-5.505 12.81 0.3003c10.2 0.3003 15.11-0.1001 23.31-1.802 5.703-1.101 10.41-2.002 10.51-1.802 0 0.2002 1.801 3.804 3.902 8.007 11.11 22.42 33.52 28.53 47.02 12.81 5.503-6.506 7.904-13.81 8.504-26.42 0.5002-12.31-0.6003-18.92-4.902-28.43l-2.801-6.306 5.903-11.21c3.202-6.206 7.204-14.61 8.804-18.72 3.102-7.807 7.604-22.92 7.003-23.52-0.2001-0.1001-1.601 2.602-3.202 6.206z"/>
 <path d="m276.9 151.3c-6.961 3.742-22.08 8.986-22.08 8.986-1.562 3.677-6.525 12.06-2.708 15.45 2.326 0 11.41-3.375 16.95-5.516 25.45-9.831 35.99-16.86 50.31-29.39-1.805-4.546-4.288-9.734-7.49-13.44 0 0-22.51 17.21-34.98 23.91z" fill="#474747"/>
 <path d="m357 185.1c-11.94 21.06-23.6 42.53-26.11 47.74-4.915 10.13-7.566 13.82-11.98 16.13-3.009 1.504-4.096 3.715-1.504 4.714 3.088 1.195 9.612-5.199 13.22-11.72 45.94-82.24 50.63-91.47 50.13-93.17-0.4012-1.103-0.9027-1.906-1.304-1.906s-10.52 17.15-22.45 38.21z" fill="#474747"/>
 <path d="m388 156.5c-8.927 9.894-31.72 50.19-46.27 81.58-7.823 16.85-7.953 18.55-12.87 22.36-2.909 2.307-5.592 5.387-5.291 6.089 0.5576 4.381 0.4012 8.829 0.4012 13.24l6.394-4.584c3.109-2.207 7.021-5.316 8.526-6.92 1.605-1.605 7.021-12.14 12.14-23.37 10.73-23.37 22.97-48.34 30.59-61.88 6.519-11.73 14.24-23.37 15.04-22.77 0.9027 0.5015 0.7021-3.41-0.3009-6.319-1.656-3.502-3.673-2.892-8.367 2.572z" fill="#474747"/>
 <path d="m93.66 179.4-3.95 5.754c-4.313 4.413-11.13 17.85-9.83 19.16 0.6018 0.6018 9.128-3.711 12.44-6.318 2.407-1.906 1.812-2.729 1.511-10.15zm-27.92 38.78c-2.753 1.522-9.584 9.106-12.54 17.12-1.717 4.449-2.316 16.14-2.316 20.82 14.77-6.622 20.95-16.39 22.28-28.03 0.6416-5.619 1.461-14.82-7.426-9.91z" fill="#67686b"/>
 <path d="m412.5 187.3c-1.552 0.1013-2.391 2.217-1.973 3.836 2.272 4.113 7.904 13.85 18.58 25.58 6.251 6.868 14.31 14.6 20.72 16.92 1.347 0.4866 2.361-0.0796 2.791-1.447 1.544-4.925-4.636-14.8-7.41-18.77-13.33-19.71-27.17-26.48-32.71-26.12zm-43.9 46.01c-1.47 0.0627-3.492 0.9092-6.062 2.539-2.608 1.605-5.917 4.512-7.422 6.418-3.31 4.012-10.63 22.87-9.529 24.17 1.412 1.541 19.2-3.405 24.67-22.17 2.138-7.447 1.574-11.1-1.66-10.96zm65.98 4.941c-14.6-0.3578-33.36 9.32-37.04 16.05-0.9027 1.705-0.7007 2.408 1.205 3.912 7.32 6.047 42.83-5.247 46.94-10.53 2.006-2.407 1.103-6.018-1.906-7.422-2.688-1.311-5.834-1.927-9.203-2.01zm0.6152 34.21c-1.122 6e-3 -2.119 0.1002-2.846 0.3008-6.845 2.738-13.5 9.136-18.87 14.05 7.73 3.696 20.17 5.244 28.83 5.445 2.344 0.4363 3.107-3.242 3.674-4.949 1.375-4.143 2.307-10.83-1.203-13.04-1.73-1.053-6.225-1.823-9.592-1.805z" fill="#474747"/>
 <path d="m275.4 438.5-4.513 2.307c22.49 6.745 33.87-14 36.21-22.17 0.9027-2.909 1.404-5.516 1.204-5.717-0.6478-0.9714-15.39 16.82-32.9 25.58z" fill="#474747"/>
 <path d="m193.8 448.1c4.313 0.7021 11.53-0.6018 12.04-2.106 0.2006-0.5015-2.207-1.805-5.316-2.909-17.94-6.053-32.69-22.57-33.9-22.57-2.642 0 8.612 24.88 27.18 27.58z" fill="#474747"/>
 <path d="m267.7 75.37c3.273 11.6 0.6723 22.16-7.334 31.04-13.68-1.059-26.36-6.696-34.72-13.31-2.669-6.285-2.897-13.16-0.3714-19.67 16.75-13.04 30.81-7.945 42.43 1.94zm-60.53-2.167c1.516 5.04 2.279 10.2 2.29 15.47-0.6037 1.497-2.227 4.518-3.119 5.884-4.129 10.87-13.44 11.96-21.86 14.73-6.89-9.722-9.448-20.9-7.081-32.62 8.477-9.383 19.63-10.04 29.77-3.464z" fill="#fff"/>
 <path d="m214.6 15.14c2.049 2.259 3.345 4.449 3.888 6.569 1.66 6.47 1.708 12.96 0.146 19.46-0.2356 0.9784-0.7786 1.998-1.629 3.058-1.46 1.821-3.427 1.26-5.002-0.2305-5.04-4.764-10.9-4.748-17.85-3.519-6.846 1.206-12.42-1.698-8.137-9.22 3.849-6.762 19.92-25.69 28.58-16.12z" fill="#3f4041"/>
 <path d="m192.8 36.94c-10.6 1.182 0.7778-12.6 11.3-19.26 12.1-6.409 13.31 14.72 10.32 22.15-5.529-4.798-13.3-5.751-21.62-2.887zm57.44 9.29c10.11 2.299 15.82 11.7 18.9 21.56-6.634-8.899-19.83-19.65-33.19-14.69-1.665 0.6198-1.885 0.2869-0.6608-0.9989 3.571-3.803 9.711-6.965 14.95-5.871zm-43.29 14.41c0.8964 2.238 0.5507 2.451-1.037 0.6377-6.148-7.055-16.09-8.657-24.32-1.621-0.1296 0.1296-0.7436 0.1425-0.5532-0.1537 4.433-6.715 11.58-12.6 17.04-9.302 5.467 3.294 7.785 7.76 8.866 10.44z" fill="#58595b"/>
 <path d="m258.9 63.01c-0.1434 3.355-0.0115 6.255 0.5981 9.451-7.832-3.099-17.91-5.078-25.99-2.654-0.461-1.621-1.477-6.339-1.92-7.94 8.053-8.835 20.67-4.971 27.31 1.144zm-55.73 1.906c-0.8127 2.39-1.218 3.521-1.417 6.289-8.933-1.123-15.73 0.8561-20.11 3.013l-0.5726-6.416c6.246-9.761 15.53-11.1 22.1-2.886z" fill="#dcdbdc"/>
 <path d="m232.6 60.88c-3.647 3.381-6.146 7.755-7.222 12.74 2.863-1.701 6.002-3.066 9.142-4.096-0.461-1.621-0.9825-8.059-1.92-8.643zm25.15 1.121c-0.1434 3.355 0.0897 6.824 0.6992 10.02l9.349 3.543c-1.987-5.512-5.428-10.16-10.05-13.56zm-55.21 2.152c-1.532 1.885-2.116 4.326-1.752 6.938 2.965 0.4019 4.594 1.411 6.476 2.305-0.794-3.36-2.46-6.569-4.724-9.243zm-21.01 2.946c-2.039 2.725-3.481 6.138-4.095 9.734 1.092-1.162 3.168-2.083 4.855-2.93z" fill="#cbcccd"/>
 <path d="m249.2 103.6c-5.107-1.48-9.566-3.162-14.08-5.928-2.013-6.339-0.9432-14.69 3.798-19.54 13.91-14.23 27.06 14.88 10.29 25.47z" fill="#231f20"/>
 <path d="m205.9 94.34c-5.087 2.454-9.873 5.302-14.01 9.164-4.61-5.809-6.053-13.04-3.886-19.94 1.767-5.655 8.36-7.407 12.49-3.027 3.196 3.386 5.264 8.782 5.407 13.8z" fill="#231f20"/>
 <path d="m211.6 89.38c-0.6531 0.2459-0.6377-0.6531-0.3074-1.022 0.2307-0.2611 9.399-8.729 10.07-5.878l1.283 5.348c0.2483 1.065-1.541 1.405-2.682 0.3457-0.4045-0.3591-3.851-0.4931-8.36 1.206z" fill="#58595b"/>
 <path d="m252.9 87.59c-2.134 0-0.6802-3.274-5.724-7.5-1.79-1.491 0.0441-3.264 1.603-2.174 3.03 2.118 5.073 5.303 5.607 8.312 0.1487 1.349-0.8137 1.362-1.486 1.362zm-52.57 2.685c-2.134 0-0.6802-3.274-5.724-7.5-1.79-1.491 0.0441-3.264 1.603-2.174 3.03 2.118 5.073 5.303 5.607 8.312 0.1487 1.349-0.8137 1.362-1.486 1.362z" fill="#969799"/>
 <path d="m225.8 92.64 9.528 4.41c7.815 5.104 15.92 6.228 25.58 9.059 6.208 2.766 6.508 11.23 4.518 16.73-16.95 8.258-60.28 23.17-83.28 3.844 2.348-14.63 14.1-23.93 25.81-33.96 6.019-1.783 11.97-1.813 17.84-0.09221z" fill="#ffcc4e"/>
 <path d="m208 92.73c-0.8145 1.777-2.1 3.15-3.857 4.118-1.145 0.1614-4.38 1.206-3.289 3.081-8.068 7.299-13.34 16.26-15.81 26.89-1.665 1.43-6.178-2.452-6.622-3.83-0.2861-2.759-0.5076-5.728 1.067-8.126 3.046-5.087 7.309-8.535 12.31-12.26 4.134-3.862 8.936-6.972 14.02-9.426 0.716-0.2751 1.428-0.3903 2.182-0.4456z" fill="#fdb94d"/>
 <path d="m227.5 97.82c-1.629-0.42-2.984-0.0256-4.065 1.183-1.583-0.4866-2.241-1.342-1.975-2.566 0.2109-1.041 4.07-1.095 6.039 1.383zm-23.41-0.9681c0.82 0.5003 0.9871 0.7721 0.9067 1.637-0.9937 1.357-2.392 1.839-4.195 1.445-1.091-1.875 1.183-2.92 3.289-3.081z" fill="#bb7c25"/>
 <path d="m227.5 97.82 0.1614 0.9297c-2.094 2.163-4.116 0.3551-4.226 0.2536 1.081-1.209 2.436-1.603 4.065-1.183z" fill="#df952c"/>
 <path d="m227.7 98.75c10.31 1.121 13.98 8.63 13.78 9.105-0.9269 2.108-1.676 4.407-2.805 6.37-3.181 1.944-5.34 5.494-8.997 6.669-4.641 1.485-9.31 2.879-14.01 4.18-1.219 0.3381-1.434 0.0128-0.6454-0.9758 5.696-7.12 9.246-15.2 10.65-24.24 0.5737 0.06147 1.247-0.3073 2.021-1.106z" fill="#ffd65c"/>
 <path d="m259.6 113.4c0 3.937-2.106 3.97-5.01 1.975-0.845 0.1739-2.148 4.755-19.04 16.02-25.49 14.48-41.78 8.873-56.51-7.966 1.777 0.6557 4.637 2.17 5.994 3.389 23.15 17.79 52.61 2.076 71.15-13.79 1.03-0.7171 2.167-0.5916 3.412 0.3765z" fill="#de683c"/>
 <path d="m259.6 113.4c4.006 1.726 5.96 4.871 5.863 9.435-2.881 13.45-54.67 29.99-65.94 13.66 5.174 0.9631 7.882 0.8915 14.77 0.55 13.33-1.466 28.11-10.61 39.53-21.53 0.2143-0.1804 0.5073-0.2332 0.7684-0.1383 2.341 0.8708 4.011 0.2126 5.01-1.975z" fill="#faa74a"/>
 <path d="m178.4 122.8c0.9835-0.1486 1.637 0.2587 1.959 1.222 5.675 5.216 8.276 7.396 9.179 7.861 6.77 3.496 4.665 2.517 19.53 8.205s29.89-0.2775 42.78-8.045c-0.5818 7.99-23.05 22.12-40.13 20.26-17.32-2.812-23.8-9.43-25.32-19.08-4.651-1.987-7.32-5.46-8.006-10.42z" fill="#e29844"/>
 <path d="m261.5 128.6c2.738 8.029 9.809 16.39 15.47 22.73-4.175 5.451-44.24 17.08-46.43 9.8 9.689-9.999 18.43-19.84 28.71-30.47z" fill="#f3f4f4"/>
 <path d="m115.9 193c63.65 3.425 151.3-0.8584 192.3-3.361 5.881 0.537 7.769 3.875 5.923 8.884-2.055 6.245-12.86 28.98-19.73 43.36-62.21 4.206-121.1 5.809-176.1 1.945-1.812-10.28-6.821-32.51-8.264-42.47-0.3828-6.688 1.842-7.322 5.877-8.353z" fill="#939394"/>
 <path d="m259.5 130.4c-6.941 12.23-16.07 22.46-27.38 30.69-11.57 7.846-22.38 9.37-31.95 0.4072 0 0-8.537-6.682-13.25-26.08 18.8 21.05 48.57 20.05 64.5-2.853 0.443-0.7906 0.7759-1.442 1.575-1.414 1.981 0.0695 4.36-0.2526 6.511-0.7495z" fill="#d2d3d4"/>
 <path d="m186.4 133.2c3.216 8.561 7.975 21.1 13.76 28.19-5.801-0.8322-17.95-3.012-18.88-4.354z" fill="#f3f4f4"/>
 <path d="m113.9 198c4.633-2.415 81.54 0.2821 113-0.8163 33.39-1.165 80.91-5.796 82.29-1.63l-19.7 42.23c-56.37 4.348-112 4.567-166.9 0.9412-3.069-13.21-7.563-23.33-8.699-40.72z" fill="#fff"/>
 <path d="m306.3 196.9c-10.47 3.262-166.5 7.065-183.8 4.054 0 0 3.215 28.19 4.548 33.2l-5.976 5.282c-1.696-13.2-6.539-25.79-7.967-39.04-0.2152-3.219 2.793-4.133 4.941-4.134 28.29-4e-3 65.52 1.069 92.8 0.5704 25.83-0.4723 96.46-4.42 96.46-4.42 4.164 1.528 3.188 2.781-1.027 4.486z" fill="#ef535a"/>
 <path d="m311 197.9c-5.501 12.19-10.97 24.4-16.41 36.61-1.153 2.589-3.133 5.131-5.799 5.653-53.23 3.204-108.6 4.694-159.5 1.731-3.358-0.1958-6.05-0.8554-8.068-2.105l-0.2228-0.3534c0.4119-0.9141 6.173-5.967 6.173-5.967l152 0.9519 26.55-38.47s3.27-1.682 3.881-2.37c1.657 1.013 1.716 2.565 1.383 4.315z" fill="#cd1b23"/>
 <path d="m288.4 210.8c0.1281-1.777 0.4303-1.985 0.9067-0.6224 0.0865 0.2352 0.0491 0.5001-0.0999 0.7069-1.122 1.537-2.198 1.516-3.227-0.0615-0.1983-0.3004-0.1632-0.6964 0.0845-0.9528 0.9476-0.9835 1.311-0.6326 1.091 1.053-0.0807 0.5198 0.4172 0.4503 0.6301 0.4456 0.325 9e-4 0.5944-0.2482 0.6147-0.5686z" fill="#fa8b90"/>
 <path d="m298.8 216.8c-2.213 5.548-4.515 11.33-6.908 16.8-2.543 5.793-7.561 4.403-12.51 4.825-40.78 2.07-81.63 2.204-122.5 1.964-9.542-0.3667-30.37-0.4807-34.12-2.989-4.626-17.73-7.258-28.8-7.899-33.19-0.8412-5.165 2.653-6.651 7.476-6.595 39.45 0.3732 73.63 1.401 117.2-0.0432 20.19-1.226 40.2-2.624 60.32-3.44 2.869-0.1127 5.361 0.2624 7.323 1.128-0.4744 7.649-5.3 14.67-8.382 21.54zm-8.898-6.154c1e-5 -1.337-1.084-2.42-2.42-2.42-1.337 0-2.42 1.084-2.42 2.42 1e-5 1.337 1.084 2.42 2.42 2.42 1.337 0 2.42-1.084 2.42-2.42zm-24.9 10.92 14.96-0.5225c0.2586-5e-3 0.4971-0.1443 0.6301-0.3688l1.444-2.42c0.4815-0.8093 0.2536-1.196-0.6838-1.16l-16.47 0.5686c-0.5925 0.0224-0.986-0.6064-0.7069-1.129 0.7479-1.404 1.747-2.431 2.997-3.081 2.897-1.506 10.28-0.9681 13.72-1.014 0.2632-5e-3 0.5057-0.1405 0.6454-0.3611l1.521-2.451c0.502-0.8144 0.274-1.206-0.6838-1.176-2.284 0.0685-11.24-0.5896-16.5 1.129-8.168 3.289-8.859 16.29-0.6224 19.69 3.988 1.644 11.38 0.4918 16.24 0.2766 0.2597-0.015 0.4957-0.159 0.6301-0.3842l1.406-2.436c0.4764-0.8298 0.2382-1.214-0.7146-1.153-3.924 0.251-7.83 0.4226-11.72 0.5148-1.885 0.0461-3.258-0.1357-4.118-0.5455-1.26-0.5942-2.151-1.57-2.674-2.927-0.1908-0.4935 0.1627-1.028 0.6915-1.045zm-22.69 4.795-0.2689-16.22c-8e-3 -0.4183-0.3499-0.7531-0.7684-0.753h-2.489c-0.4274-2e-5 -0.7726 0.3487-0.7684 0.776l0.1306 18.82c0.0103 1.501 0.8119 2.228 2.405 2.182l17.15-0.5071c0.2595-9e-3 0.4983-0.1473 0.6377-0.3688l1.521-2.528c0.4866-0.8042 0.2587-1.191-0.6838-1.16l-16.07 0.5225c-0.4273 0.0128-0.7829-0.329-0.7914-0.7607zm-23.67-11.37c3.15-2.059 10.7-1.421 14.65-1.383 0.2753 5e-3 0.5333-0.1383 0.6762-0.3765l1.445-2.474c0.3003-0.5063-0.0569-1.148-0.6454-1.16-8.017-0.1793-12.79-0.0948-14.33 0.2536-12.94 2.92-11.23 22.17 3.335 21.77 3.324-0.0922 6.662-0.1383 10.01-0.1383 0.2713-4e-5 0.5224-0.1431 0.6608-0.3765l1.537-2.597c0.4764-0.7991 0.2484-1.186-0.6838-1.16-3.586 0.1127-7.156 0.187-10.71 0.2228-10.7-0.4607-9.335-10.36-5.947-12.58zm-18.91 1.145 3.965 6.715c0.2988 0.5034-0.0526 1.143-0.6377 1.16l-7.637 0.2075c-0.8913 0.0205-1.101 0.4098-0.6301 1.168l1.506 2.428c0.1431 0.2323 0.3982 0.3701 0.6685 0.3611l9.604-0.2075c0.2806-5e-3 0.5422 0.1419 0.6838 0.3842l1.821 3.127c0.137 0.2376 0.3889 0.384 0.6608 0.3842h3.089c0.9169 0 1.137-0.3893 0.6608-1.168-3.765-6.178-7.545-12.34-11.34-18.49-1.975-3.196-4.264-3.358-6.254 0.0384-3.642 6.213-7.281 12.43-10.92 18.66-0.4508 0.7684-0.2305 1.153 0.6608 1.153h3.089c0.2766-3.8e-4 0.5313-0.1468 0.6685-0.3842l9.013-15.53c0.2934-0.512 1.03-0.5159 1.329-7e-3zm-73.65 2.666c-0.9451 5.617 3.342 12.06 9.458 12.42 3.127 0.1844 12.6 1.16 16.65-0.5916 7.623-3.289 11.47-20.52-8.329-20.47-7.246 0.0154-16.13-1.106-17.78 8.644zm38.91-4.61h12.76c2.853 1e-3 2.885 6.723 0.1152 6.723h-10.55c-1.05 0-1.188 0.356-0.4149 1.068l10.75 9.873c0.1437 0.1286 0.3297 0.1997 0.5225 0.1998h4.111c1.081 0 1.217-0.3586 0.4072-1.076l-5.256-4.649c-0.8298-0.7376-0.6941-1.183 0.4072-1.337 2.315-0.3278 4.042-1.37 5.179-3.127 2.29-3.557 1.391-8.606-2.451-10.74-1.147-0.6403-2.848-0.9656-5.102-0.9758-4.856-0.0256-9.756 3e-3 -14.7 0.0845-0.4232 4e-3 -0.7616 0.3529-0.753 0.776l0.2612 20.09c4e-3 0.4214 0.347 0.7607 0.7684 0.7607h2.505c0.4274 2e-5 0.7726-0.3487 0.7684-0.776l-0.0999-16.12c-4e-3 -0.4274 0.341-0.7761 0.7684-0.776z" fill="#ed1c24"/>
 <rect x="130" y="214.2" width="23.97" height="13.31" rx="8.2" ry="8.2" fill="#ed1c24"/>
 <path d="m164.2 147.8-0.3848 0.1934c1.311 7.008 2.849 11.37 5.08 16.79 5.665 3.109 11.67 5.303 18.01 6.578 0.2345 0.0453 0.5984 0.5134-0.0547 0.3848-6.07-1.234-11.85-3.274-17.34-6.117-1.713-0.2392-2.559 0.4365-2.074 2.174 5.727 2.874 9.618 4.549 11.67 5.025 2.705 0.6249 5.401 1.368 8.09 2.229 0.3486 0.1109 0.5716 0.455 0.5312 0.8223-0.3186 2.726-1.275 11.77-0.123 13.19 11.92 0.2201 23.82-0.4767 35.73-0.9609 0.893-2.74 1.92-5.506 2.621-8.283-0.461-3.573 4.25 1.545 26.21-3.771l-0.1309-2.396c-0.0537-0.8586-1.027-0.7376-1.246-0.6992-3.693 0.6265-14.4 1.536-23.21 0.8965-0.5821 0 0.5181-0.0763 0.4824-0.5293-0.0407-0.3528 6.784 1.464 27.37-1.746 1.311-0.3227 1.651-0.3607 1.342-1.828-2.029-10.51 3.491-9.134 6.916-11.99-22.52 3.714-44.65 5.914-66.92 2.993-7.197-1.032-23.33-5.198-32.56-12.95zm52.36 24.72 0.8301 11.02c-0.041 1.081-0.6197 1.629-1.736 1.645-6.091 0.1974-10.4 1.8-14.51 3.098-0.5538 0.1284-1.05-0.37-0.9219-0.9238l1.943-8.428 0.8145-3.688c0.0943-0.437-0.2002-0.8613-0.6387-0.9219-3.893-0.5635-7.754-1.197-11.59-1.898-0.4431-0.0867-0.1162-0.3893 0.084-0.3535 4.021 0.7223 8.066 1.268 12.13 1.637 0.7651-1.043 3.02-2.763 13.59-1.189z" fill="#a3a4a6"/>
 <path d="m316.3 250.7c-6.361 4.167-13.98 9.195-21.87 8.986 1.191 1.108 1.855 2.703 3.072 3.973 8.201-0.3337 14.77-5.94 21.58-10.01-1.374-0.0604-3.14-0.2955-2.787-2.947zm7.85 14.25c-9.657 4.701-20.34 7.729-31.17 9.141-0.9089 3.957-2.279 6.848-4.246 9.629 12.34 0.4141 23.67-2.346 35.37-3.961 0.9127-5.295 0.9039-10.22 0.0488-14.81zm-57.03 20.74s-20.87 0.5346-31.89 0.4844c-1.09 1.897-1.078 5.865-0.8301 8.434 0 0 9.766-0.42 21.04-1.119s11.68-7.799 11.68-7.799z" fill="#939394"/>
 <path d="m352.2 283.3c-0.8503 0.5281-1.798 0.5827-2.761 0.5874-1.608 0.5891-3.222 1.047-4.922 0.9497-4.764 0.5071-14.35-0.2069-10.5 8.184 0.6978 1.563-5.258 1.917-3.842 8.789 0.1496 0.8642-2.047 3.775-0.4375 7.607 0.881 2.1 0.9336 4.285 0.1602 6.555-0.3473 1.029-1.142 5.53 1.338 10.39 1.112 2.838 1.825 5.774 2.143 8.807 0.9784 0.2203 1.995 0.515 1.922 1.729l4.803 1.406c6.382 0.6813 11.44 0.6678 15.17-0.0391 8.659-1.652 16.73-6.369 24.17-12.17 3.77-2.935 8.087-5.395 12.95-7.377 13.6-5.537 26.51-10.1 38.72-13.7 1.649-0.4866 4.224-1.386 7.723-2.697-0.2269-2.213-13.43 2.891-15.95 3.434-15.77 5.316-32.59 9.98-46.16 19.96-11.43 9.112-20.92 10.27-20.92 10.27-15.09 0.5289-18.57 1.119-21.77-9.344-3.116-9.79 2.732-14.15 0.4977-16.62-6.168-6.743 9.913-11.41 13.88-23.74 0.0805-0.2534 0.2912-0.4463 0.5547-0.5078 0.753-0.1844 5.893-1.061 3.234-2.467z" fill="#5b5b5b"/>
 <path d="m98.66 261.2c-1.489-0.0129-4.126 0.989-5.787 1.6l2.564 7.324c0.1513 0.4146-0.07755 0.8703-0.5 0.998-0.0922 0.023-4.611 2.352-3.797 2.867 0.06656 0.0384 0.1502 0.0384 0.2168 0l1.406-0.8613c0.407-0.2539 0.9437-0.0718 1.113 0.377 3.875 9.974 7.64 20.11 11.76 29.94 1.529 1.106 3.388 1.474 4.74 2.496 5.123 3.989 8.921 8.664 0.0918 9.535-2.522 0.3817 1.097 0.816-0.1992 4.25 4.421 2.11 8.721 4.677 12.9 7.699-3.155-11.25-5.628-24.81-6.314-36.47-0.3507 1.402-1.606 2.195-3.887 0.4492-7.351-8.736-12.86-29.42-13.75-30.13-0.1596-0.0474-0.3498-0.0704-0.5625-0.0723z" fill="#5b5b5b"/>
 <path d="m163.6 147.9c1.283 1.798 4.331 3.31 5.069 5.331 1.849 4.363-0.0192 13.74-1.45 14.49l-8.014-4.407c-2.244-2.3-3.905-4.095-3.746-7.507l5.636-9.209c0.2042-0.379 0.6849-0.5114 1.06-0.292 0.6818 0.3653 1.05 0.9696 1.445 1.598z" fill="#818181"/>
 <path d="m198.7 256.1 9.489 6.47c0.5909 0.4152 12.76-1.057 42.18-0.443-2.756 0.8215-1.444 2.191 0.6873 3.108-13.8 1.297-27.63 1.501-41.47 1.738-2.561-1.798-5.053-3.596-7.476-5.394-1.998-1.483-2.651-3.235-3.404-5.478zm-38.74 7.565c-4.287 0.5403-0.757 2.96 0.9051 3.502-13.36-0.1088-40.4-1.08-40.4-1.08-1.456-1.069-2.12-2.455-2.76-3.85 0 0 0.7525 0.561 42.26 1.428z" fill="#939394"/>
</svg>
