<?xml version="1.0" encoding="UTF-8"?>
<svg width="512" height="512" version="1.1" viewBox="0 0 512 512" xmlns="http://www.w3.org/2000/svg">
 <path d="m388 135c-22.8 0.392-45.3 7.16-65.1 18.4-21.5 12.3-40 29.2-56.3 47.8-5.63 6.42-11.1 13-16.4 19.7-5.12 6.61-10.1 13.3-15 20.1-7.88 10.9-15.6 22-25.1 31.7-5.97 6.21-12 12.3-18.3 18.3-3.84 3.62-7.77 7.15-11.8 10.6-0.947 0.791-2.05 1.74-3 2.53-10.8 8.97-22.3 17.3-34.6 24-9.06 4.9-18.8 8.96-29.2 9.92-2.88 0.274-5.73 0.224-8.57 0.0685-1.92-0.102-3.91-0.297-5.71-0.533-0.722-0.0871-1.33-0.19-2.11-0.306-14.5-2.3-28.4-8.85-39.3-18.7-10.6-9.53-18.5-22.1-22.7-35.7-0.697-2.26-1.3-4.56-1.82-6.87-0.0928-0.433-0.258-1.18-0.346-1.64-2.36-11.7-2.43-24-0.407-35.6 0.529-2.94 1.22-5.85 2.05-8.65 2.54-8.61 6.62-16.8 12.2-23.8 0.353-0.447 0.922-1.15 1.37-1.67 7.7-9.1 17.9-16 29-20.2 0.451-0.16 1.05-0.397 1.54-0.566 11.8-4.19 24.4-5.69 36.8-4.89 1.16 0.0892 2.34 0.19 3.4 0.316 13.5 1.47 24.5 4.28 36.4 10.8 6.49 3.58 7.93 4.69 13.5 9.29-4.61 4.71-9.23 9.42-13.8 14.1 23.9 6.02 47.8 12 71.6 18.1-6.63-23.7-13.3-47.4-19.9-71.1-5.06 5.25-10.1 10.5-15.2 15.8-13.9-12-23.7-16.3-41-22.5-16.9-6.16-35.3-8.19-53.1-6.17-18.4 2.05-36.4 8.48-51.5 19.1-14.7 10.3-26.7 24.4-34.2 40.7-7.79 16.6-11.1 35.1-10.5 53.3 0.541 16.8 4.68 33.4 12.4 48.3 9.12 17.7 23.2 32.8 40.2 43 16.2 9.7 35 15 53.9 14.7 21.2-0.154 42.3-6.25 60.7-16.7 15.6-8.72 29.6-20 42.3-32.6 8.77-8.65 17-17.9 25.2-27 5.32-6 10.2-12.4 14.5-19.1 3.84-5.78 7.65-11.6 11.5-17.4 4.08-6.1 8.57-11.8 13-17.6 8.64-11.1 17.6-21.9 27.7-31.7 3.9-3.82 7.97-7.55 12.1-11 10.5-8.79 22.1-16.5 34.7-21.9 3.27-1.39 6.63-2.59 10-3.63 0.728-0.207 1.74-0.517 2.58-0.737 4.45-1.23 9.11-2.16 13.6-2.75 1.89-0.244 3.76-0.434 5.59-0.569 4.71-0.357 9.48-0.371 14.1-0.117 2.98 0.157 6.02 0.433 8.9 0.815 12.6 1.64 25 5.6 35.8 12.3 11.3 6.82 20.7 16.6 27.3 27.9 1.06 1.8 2.18 3.86 3.15 5.84 5.46 11.1 8.52 23.3 9.61 35.7 0.166 1.92 0.307 4.1 0.375 6.16 0.203 5.82 4e-3 11.8-0.709 17.7-0.0808 0.602-0.174 1.4-0.266 2.01-2.23 15.8-8.24 31.3-18.3 43.8-3.6 4.48-7.69 8.56-12.2 12.1-0.64 0.508-1.5 1.17-2.25 1.72-11.1 8.23-24.5 13.2-38.2 15-2.44 0.328-4.87 0.55-7.27 0.701-3.77 0.213-7.57 0.222-11.4 0.117-1.88-0.0539-3.98-0.158-5.86-0.292-3.79-0.264-7.6-0.666-11.3-1.23-15.2-2.28-30-7.22-43.2-15.1-7.01-4.13-10.2-6.52-16-10.5 5.29-6.4 10.6-12.8 15.9-19.2-24.3-4.01-48.6-8.03-72.9-12 8.63 23.1 17.2 46.1 25.9 69.2 4.51-5.44 9.01-10.9 13.5-16.3 15.3 13.5 28.5 21.2 47.5 28.6 15.2 5.93 31.5 8.98 47.9 9.17 17.9 0.262 35.9-2.96 52.2-10.3 15.3-6.88 29.1-17.3 39.7-30.3 12.3-15 20.6-33.1 24.6-52 4.16-19.6 3.99-40-0.164-59.6-3.85-17.8-11.5-34.9-23-49.1-11.1-13.7-25.7-24.6-41.9-31.5-17.2-7.37-36.1-10.5-54.8-10.2z" style="fill:#3ab6a9"/>
</svg>
