<?xml version="1.0" encoding="UTF-8"?>
<svg width="512" height="512" version="1.1" viewBox="0 0 512 512" xmlns="http://www.w3.org/2000/svg">
 <path d="m256 1c-141 0-255 114-255 255s114 255 255 255c141 0 255-114 255-255 0-141-114-255-255-255zm1.22 35.3c121 0 220 98.4 220 220 0 121-98.5 220-220 220-65.5 0-124-28.7-165-74.2 16.5-12.8 44.2-9.71 78.3-5.82 16.3 1.86 35 3.99 54.2 4.41 53.7 0.298 112-9.49 147-25.1 23.1-10.1 37.8-16.8 47.1-25.2 3.33-2.73 5.08-7.29 6.86-12l1.22-3.19c1.5-3.82 3.64-12 4.6-16.5 0.429-1.96 0.64-4.07-0.751-5.17l-4.98 0.939c-15.7 9.39-54.8 27.3-91.4 28-45.4 0.948-137-45.7-146-50.6l-0.939-1.13c-2.29-5.46-16-38-18.9-44.8 65.9 43.4 120 67.4 162 71.1 46.5 4.14 82.8-21.3 98.3-32.1 3.03-2.07 5.34-3.69 6.29-4.04l1.03-1.69c-2.57-16.4-27-95.5-45.4-114-5.1-5.21-9.15-10.3-17.4-15.1-66.5-38.8-224-62.1-232-63.2l-1.22 0.382-0.47 1.03s-0.592 32.8-0.657 36.4c-5.42-1.79-22.2-7.3-46.3-13.9 31.4-38.9 79.6-73.4 164-73.4zm58 116c1.12-0.017 2.25-0.0374 3.38 0 37.3 1.34 66.6 32.7 65.3 70-0.663 18-8.26 34.7-21.4 47-13.2 12.4-30.3 18.8-48.5 18.2-37.2-1.39-66.5-32.8-65.3-70 0.637-18 8.27-34.8 21.5-47.1 12.4-11.6 28.2-17.9 45-18.1zm-1.78 19.9c-10.9 0.659-21.1 5.07-29.1 12.6-9.14 8.58-14.5 20.2-14.9 32.8-0.858 26 19.5 47.9 45.5 48.8 12.6 0.382 24.6-4.03 33.8-12.6 9.19-8.62 14.5-20.3 14.9-32.9 0.871-26-19.6-47.8-45.6-48.7-1.57-0.0425-3.05-0.085-4.6 0zm12.4 23.6c11.5 0 20.9 6.27 20.9 14 0 7.68-9.31 14-20.9 14-11.6 0-20.9-6.32-20.9-14 0-7.72 9.36-14 20.9-14z" style="fill:#73ba25"/>
</svg>
