<?xml version="1.0" encoding="UTF-8"?>
<svg width="512" height="512" version="1.1" viewBox="0 0 512 512" xmlns="http://www.w3.org/2000/svg">
 <circle cx="255" cy="255" r="255" style="fill:#3ab6a9"/>
 <path d="m360 161c-17.8 0.307-35.5 5.61-51 14.4-16.8 9.63-31.3 22.9-44.1 37.4-4.41 5.03-8.69 10.2-12.8 15.4-4.01 5.17-7.91 10.4-11.7 15.7-6.17 8.53-12.2 17.2-19.7 24.8-4.67 4.86-9.39 9.63-14.3 14.3-3.01 2.83-6.08 5.6-9.24 8.3-0.741 0.619-1.6 1.36-2.35 1.98-8.46 7.02-17.5 13.5-27.1 18.8-7.09 3.84-14.7 7.01-22.9 7.77-2.25 0.215-4.49 0.175-6.71 0.0536-1.5-0.0799-3.06-0.233-4.47-0.417-0.565-0.0682-1.04-0.149-1.65-0.24-11.4-1.8-22.2-6.93-30.8-14.6-8.3-7.46-14.5-17.3-17.8-27.9-0.546-1.77-1.02-3.57-1.42-5.38-0.0726-0.339-0.202-0.924-0.271-1.28-1.85-9.16-1.9-18.8-0.319-27.9 0.414-2.3 0.955-4.58 1.6-6.77 1.99-6.74 5.18-13.2 9.55-18.6 0.276-0.35 0.722-0.9 1.07-1.31 6.03-7.12 14-12.5 22.7-15.8 0.353-0.125 0.822-0.311 1.21-0.443 9.24-3.28 19.1-4.45 28.8-3.83 0.908 0.0698 1.83 0.149 2.66 0.247 10.6 1.15 19.2 3.35 28.5 8.46 5.08 2.8 6.21 3.67 10.6 7.27-3.61 3.69-7.23 7.37-10.8 11 18.7 4.71 37.4 9.39 56.1 14.2-5.19-18.6-10.4-37.1-15.6-55.7-3.96 4.11-7.91 8.22-11.9 12.4-10.9-9.39-18.6-12.8-32.1-17.6-13.2-4.82-27.6-6.41-41.6-4.83-14.4 1.6-28.5 6.64-40.3 15-11.5 8.06-20.9 19.1-26.8 31.9-6.1 13-8.69 27.5-8.22 41.7 0.424 13.2 3.66 26.1 9.71 37.8 7.14 13.9 18.2 25.7 31.5 33.7 12.7 7.59 27.4 11.7 42.2 11.5 16.6-0.121 33.1-4.89 47.5-13.1 12.2-6.83 23.2-15.7 33.1-25.5 6.87-6.77 13.3-14 19.7-21.1 4.16-4.7 7.99-9.71 11.4-15 3.01-4.53 5.99-9.08 9-13.6 3.19-4.78 6.71-9.24 10.2-13.8 6.76-8.69 13.8-17.1 21.7-24.8 3.05-2.99 6.24-5.91 9.47-8.61 8.22-6.88 17.3-12.9 27.2-17.1 2.56-1.09 5.19-2.03 7.83-2.84 0.57-0.162 1.36-0.405 2.02-0.577 3.48-0.963 7.13-1.69 10.6-2.15 1.48-0.191 2.94-0.34 4.38-0.445 3.69-0.279 7.42-0.29 11-0.0916 2.33 0.123 4.71 0.339 6.97 0.638 9.86 1.28 19.6 4.38 28 9.63 8.85 5.34 16.2 13 21.4 21.8 0.83 1.41 1.71 3.02 2.47 4.57 4.27 8.69 6.67 18.2 7.52 27.9 0.13 1.5 0.24 3.21 0.294 4.82 0.159 4.56 3e-3 9.24-0.555 13.9-0.0633 0.471-0.136 1.1-0.208 1.57-1.75 12.4-6.45 24.5-14.3 34.3-2.82 3.51-6.02 6.7-9.55 9.47-0.501 0.398-1.17 0.916-1.76 1.35-8.69 6.44-19.2 10.3-29.9 11.7-1.91 0.257-3.81 0.431-5.69 0.549-2.95 0.167-5.93 0.174-8.92 0.0916-1.47-0.0422-3.12-0.124-4.59-0.229-2.97-0.207-5.95-0.521-8.85-0.963-11.9-1.78-23.5-5.65-33.8-11.8-5.49-3.23-7.99-5.1-12.5-8.22 4.14-5.01 8.3-10 12.4-15-19-3.14-38-6.29-57.1-9.39 6.76 18.1 13.5 36.1 20.3 54.2 3.53-4.26 7.05-8.53 10.6-12.8 12 10.6 22.3 16.6 37.2 22.4 11.9 4.64 24.7 7.03 37.5 7.18 14 0.205 28.1-2.32 40.9-8.06 12-5.39 22.8-13.5 31.1-23.7 9.63-11.7 16.1-25.9 19.3-40.7 3.26-15.3 3.12-31.3-0.128-46.7-3.01-13.9-9-27.3-18-38.4-8.69-10.7-20.1-19.3-32.8-24.7-13.5-5.77-28.3-8.22-42.9-7.99z"/>
</svg>
