<?xml version="1.0" encoding="UTF-8"?>
<svg width="512" height="512" version="1.1" viewBox="0 0 512 512" xmlns="http://www.w3.org/2000/svg">
 <style type="text/css">
 	.st0{fill:#15E0ED;}
 	.st1{fill:url(#a);}
 </style>
 <linearGradient id="a" x1="61.3" x2="168" y1="97.6" y2="91.6" gradientUnits="userSpaceOnUse">
 	<stop style="stop-color:#000000;stop-opacity:.9" offset="0"/>
 	<stop style="stop-color:#000909;stop-opacity:.823" offset=".0856"/>
 	<stop style="stop-color:#002023;stop-opacity:.695" offset=".228"/>
 	<stop style="stop-color:#00464C;stop-opacity:.532" offset=".409"/>
 	<stop style="stop-color:#007A85;stop-opacity:.34" offset=".622"/>
 	<stop style="stop-color:#00BCCD;stop-opacity:.127" offset=".859"/>
 	<stop style="stop-color:#00E7FC;stop-opacity:0" offset="1"/>
 </linearGradient>
 <circle class="st0" cx="256" cy="256" r="255"/><polygon class="st1" transform="matrix(2.91 0 0 2.91 1 1)" points="168 121 167 125 165 128 163 132 160 136 157 141 154 144 150 148 146 152 141 157 136 160 133 162 128 165 122 168 117 162 80.6 122 54.6 61.3 60.6 31.7 142 19 147 23.2 149 25.6 153 30 156 33.5 159 37.5 162 41.6 164 45.8 166 49.3 168 53.7 170 58.1 172 62.8 173 68.6 174 73.9 174 78.4 175 83.7 175 89.9 175 94.3 174 100 173 104 172 111 170 117" style="fill:url(#a);stroke-width:.343"/><path d="m236 357 105 117-35-73.4 32.6 34.1-106-192 45.8-57.1 171-70.8-171 3.79 111-58.6-212 33.2-17.5 86.3-85.4 5.54-14.9 73.1 42.8-35"/>
</svg>
