<?xml version="1.0" encoding="UTF-8"?>
<svg width="512" height="512" version="1.1" viewBox="0 0 512 512" xmlns="http://www.w3.org/2000/svg">
 <defs>
  <linearGradient id="a" x1="61.3" x2="168" y1="97.6" y2="91.6" gradientUnits="userSpaceOnUse">
   <stop style="stop-color:#000000;stop-opacity:.9" offset="0"/>
   <stop style="stop-color:#000909;stop-opacity:.823" offset=".0856"/>
   <stop style="stop-color:#002023;stop-opacity:.695" offset=".228"/>
   <stop style="stop-color:#00464C;stop-opacity:.532" offset=".409"/>
   <stop style="stop-color:#007A85;stop-opacity:.34" offset=".622"/>
   <stop style="stop-color:#00BCCD;stop-opacity:.127" offset=".859"/>
   <stop style="stop-color:#00E7FC;stop-opacity:0" offset="1"/>
  </linearGradient>
 </defs>
 <circle fill="#15E0ED" cx="256" cy="256" r="255"/>
 <path fill="url(#a)" transform="matrix(2.91 0 0 2.91 1 1)" d="m168 121-1 4-2 3-2 4-3 4-3 5-16 16-5 3-3 2-5 3-6 3-5-6-36.4-40-26-60.7 6-29.6 81.4-12.7 5 4.2 2 2.4 4 4.4 3 3.5 3 4 3 4.1 2 4.2 2 3.5 4 8.8 2 4.7 1 5.8 1 5.3v4.5l1 5.3v10.6l-1 5.7-1 4-1 7-2 6z"/>
 <path d="m236 357 105 117-35-73.4 32.6 34.1-106-192 45.8-57.1 171-70.8-171 3.79 111-58.6-212 33.2-17.5 86.3-85.4 5.54-14.9 73.1 42.8-35"/>
</svg>
