<?xml version="1.0" encoding="UTF-8" standalone="no"?>
<!-- Created with Inkscape (http://www.inkscape.org/) -->

<svg
   xmlns:dc="http://purl.org/dc/elements/1.1/"
   xmlns:cc="http://creativecommons.org/ns#"
   xmlns:rdf="http://www.w3.org/1999/02/22-rdf-syntax-ns#"
   xmlns:svg="http://www.w3.org/2000/svg"
   xmlns="http://www.w3.org/2000/svg"
   xmlns:xlink="http://www.w3.org/1999/xlink"
   xmlns:sodipodi="http://sodipodi.sourceforge.net/DTD/sodipodi-0.dtd"
   xmlns:inkscape="http://www.inkscape.org/namespaces/inkscape"
   version="1.0"
   width="500"
   height="500"
   id="svg2"
   sodipodi:version="0.32"
   inkscape:version="0.47 r22583"
   sodipodi:docname="PCLinuxOS_logo.svg"
   inkscape:output_extension="org.inkscape.output.svg.inkscape">
  <metadata
     id="metadata103">
    <rdf:RDF>
      <cc:Work
         rdf:about="">
        <dc:format>image/svg+xml</dc:format>
        <dc:type
           rdf:resource="http://purl.org/dc/dcmitype/StillImage" />
      </cc:Work>
    </rdf:RDF>
  </metadata>
  <sodipodi:namedview
     inkscape:window-height="789"
     inkscape:window-width="1152"
     inkscape:pageshadow="2"
     inkscape:pageopacity="0.0"
     guidetolerance="10.0"
     gridtolerance="10.0"
     objecttolerance="10.0"
     borderopacity="1.0"
     bordercolor="#666666"
     pagecolor="#ffffff"
     id="base"
     showgrid="false"
     inkscape:zoom="0.67175144"
     inkscape:cx="302.60352"
     inkscape:cy="165.1814"
     inkscape:current-layer="svg2"
     inkscape:window-x="0"
     inkscape:window-y="24"
     inkscape:window-maximized="1" />
  <defs
     id="defs4">
    <linearGradient
       id="linearGradient3290">
      <stop
         offset="0"
         style="stop-color: rgb(189, 233, 255); stop-opacity: 1;"
         id="stop3292" />
      <stop
         id="stop3302"
         style="stop-color: rgb(28, 125, 189); stop-opacity: 1;"
         offset="0.20003237" />
      <stop
         offset="0.30369416"
         style="stop-color: rgb(30, 91, 161); stop-opacity: 1;"
         id="stop3294" />
      <stop
         offset="0.53801841"
         style="stop-color: rgb(38, 46, 54); stop-opacity: 1;"
         id="stop3296" />
      <stop
         offset="0.73399651"
         style="stop-color: rgb(24, 109, 153); stop-opacity: 1;"
         id="stop3298" />
      <stop
         offset="1"
         style="stop-color: rgb(0, 113, 191); stop-opacity: 1;"
         id="stop3300" />
    </linearGradient>
    <linearGradient
       id="linearGradient5929">
      <stop
         id="stop5931"
         style="stop-color: rgb(255, 255, 255); stop-opacity: 1;"
         offset="0" />
      <stop
         id="stop5933"
         style="stop-color:#707070;stop-opacity:1;"
         offset="1" />
    </linearGradient>
    <linearGradient
       inkscape:collect="always"
       xlink:href="#linearGradient3290"
       id="linearGradient2915"
       gradientUnits="userSpaceOnUse"
       gradientTransform="matrix(8.01055,0,0,8.02948,-1519.2579,-3056.7816)"
       x1="272.85699"
       y1="389.56207"
       x2="272.85699"
       y2="500.52286" />
    <linearGradient
       inkscape:collect="always"
       xlink:href="#linearGradient5929"
       id="linearGradient2921"
       gradientUnits="userSpaceOnUse"
       gradientTransform="matrix(1.3805802,0,0,1.4808968,-1462.7995,-1288.1326)"
       x1="1240.7153"
       y1="1046.4941"
       x2="1240.7153"
       y2="1007.4582" />
    <linearGradient
       inkscape:collect="always"
       xlink:href="#linearGradient3290"
       id="linearGradient3692"
       x1="649.47369"
       y1="5.0526428"
       x2="649.47369"
       y2="994.52631"
       gradientUnits="userSpaceOnUse" />
  </defs>
  <path
     sodipodi:type="arc"
     style="fill:url(#linearGradient3692);fill-opacity:1;stroke:#000000;stroke-width:10.14635468;stroke-linecap:round;stroke-linejoin:round;stroke-miterlimit:4;stroke-opacity:1;stroke-dasharray:none"
     id="path2912"
     sodipodi:cx="649.47369"
     sodipodi:cy="499.78946"
     sodipodi:rx="489.47369"
     sodipodi:ry="494.73682"
     d="m 1138.9474,499.78946 a 489.47369,494.73682 0 1 1 -978.9474,0 489.47369,494.73682 0 1 1 978.9474,0 z"
     transform="matrix(0.4954301,0,0,0.4901596,-70.453027,7.9181391)" />
  <path
     sodipodi:type="arc"
     style="fill:#000000;fill-opacity:1;fill-rule:nonzero;stroke:none"
     id="path3288"
     sodipodi:cx="412.63159"
     sodipodi:cy="474.52631"
     sodipodi:rx="107.36842"
     sodipodi:ry="105.26316"
     d="m 520.00002,474.52631 a 107.36842,105.26316 0 1 1 -214.73685,0 107.36842,105.26316 0 1 1 214.73685,0 z"
     transform="matrix(1.8394607,0,0,1.8762499,-508.14856,-636.81052)" />
  <path
     style="font-size:49.00590134px;font-style:normal;font-variant:normal;font-weight:bold;font-stretch:normal;text-align:start;line-height:125%;text-anchor:start;fill:#000000;fill-opacity:1;fill-rule:evenodd;stroke:none;stroke-width:3.52981997;marker:none;visibility:visible;display:inline;overflow:visible;font-family:Bitstream Vera Sans"
     id="path4053"
     d="m 243.74381,230.16858 c -2.55018,1.5e-4 -4.88434,0.58509 -6.99385,1.75368 -2.1098,1.14401 -4.11701,2.92167 -5.99474,5.35878 l 0,-6.08947 -12.4437,0 0,41.74857 12.4437,0 0,-20.55766 c 0,-3.80472 0.74149,-6.77614 2.22521,-8.9147 1.48372,-2.16361 3.53457,-3.21519 6.131,-3.21519 1.06651,0 2.02657,0.23339 2.86125,0.73068 0.83442,0.47254 1.46591,1.12696 1.95284,1.99728 0.3708,0.64656 0.63284,1.65268 0.77201,3.02029 0.16224,1.36775 0.22696,3.84765 0.22711,7.45336 l 0.0452,0.0487 0,3.16644 c 0,5.64504 1.201,9.95017 3.54245,12.90942 2.36462,2.95927 5.76611,4.43307 10.26377,4.43307 2.52687,0 4.8618,-0.56111 6.94845,-1.70511 2.10947,-1.1687 4.07133,-2.97024 5.94929,-5.4072 l 0,6.0406 12.48899,0 0,-41.74856 -12.48899,0 0,20.60637 c -1.4e-4,3.80472 -0.74177,6.77614 -2.22536,8.9147 -1.48386,2.13873 -3.48911,3.21518 -6.08556,3.21518 -1.0665,0 -2.02671,-0.25825 -2.86116,-0.73067 -0.81146,-0.4724 -1.48821,-1.12698 -1.9982,-1.99729 -0.39416,-0.67144 -0.65519,-1.74791 -0.81746,-3.21517 -0.16235,-1.492 -0.2271,-3.90126 -0.2271,-7.25846 l 0,-3.21516 c 0,-5.64503 -1.15539,-9.95015 -3.49697,-12.90942 -2.31831,-2.95931 -5.7207,-4.43293 -10.21823,-4.43307 z m -178.500097,-12.92211 22.221065,0 c 6.607156,5e-5 11.672666,1.57915 15.196522,4.73731 3.547,3.13337 5.32049,7.60957 5.32056,13.4286 -7e-5,5.84392 -1.77356,10.34498 -5.32056,13.50316 -3.523856,3.13336 -8.589366,4.70004 -15.196522,4.7 l -8.832792,0 0,19.32225 -13.388273,0 0,-55.69132 m 13.388273,10.40717 0,15.55476 7.407012,0 c 2.596491,4e-5 4.601822,-0.67141 6.016033,-2.01428 1.414135,-1.36771 2.121229,-3.29495 2.121262,-5.78174 -3.3e-5,-2.48676 -0.707127,-4.40159 -2.121262,-5.74447 -1.414211,-1.34282 -3.419542,-2.01424 -6.016033,-2.01427 l -7.407012,0 m 75.794914,42.2254 c -2.45745,1.36774 -5.01921,2.39976 -7.68522,3.09606 -2.66611,0.69628 -5.44807,1.04444 -8.34594,1.04444 -8.64734,0 -15.49793,-2.58624 -20.55186,-7.75875 -5.05394,-5.19733 -7.58088,-12.23492 -7.58088,-21.11271 0,-8.90262 2.52694,-15.94018 7.58088,-21.11271 5.05393,-5.19731 11.90452,-7.796 20.55186,-7.79606 2.89787,6e-5 5.67983,0.34821 8.34594,1.04445 2.66601,0.69637 5.22777,1.72838 7.68522,3.09605 l 0,11.52619 c -2.48065,-1.8153 -4.92645,-3.14572 -7.33747,-3.99126 -2.41108,-0.84547 -4.94962,-1.2682 -7.61568,-1.26826 -4.77573,6e-5 -8.5314,1.6413 -11.26701,4.92381 -2.73563,3.28259 -4.10344,7.80851 -4.1034,13.57779 -4e-5,5.74445 1.36777,10.25797 4.1034,13.54049 2.73561,3.28257 6.49128,4.9238 11.26701,4.9238 2.66606,0 5.2046,-0.42273 7.61568,-1.26826 2.41102,-0.84548 4.85682,-2.1759 7.33747,-3.99126 l 0,11.52619 m 204.51995,-43.23256 c -4.08026,6e-5 -7.24477,1.61645 -9.49354,4.84923 -2.24877,3.23281 -3.37313,7.78362 -3.37313,13.65237 0,5.84394 1.12436,10.38231 3.37313,13.6151 2.24877,3.23283 5.41328,4.84919 9.49354,4.84919 4.10334,0 7.27946,-1.61636 9.52828,-4.84919 2.24872,-3.23279 3.37307,-7.77116 3.37313,-13.6151 -6e-5,-5.86875 -1.12441,-10.41956 -3.37313,-13.65237 -2.24882,-3.23278 -5.42494,-4.84917 -9.52828,-4.84923 m 0,-10.40717 c 8.34588,6e-5 14.88351,2.56146 19.6129,7.68415 4.72932,5.12281 7.09405,12.19767 7.0941,21.22462 -5e-5,9.00213 -2.36478,16.06458 -7.0941,21.1873 -4.72939,5.12278 -11.26702,7.68416 -19.6129,7.68416 -8.3228,0 -14.86045,-2.56138 -19.61297,-7.68416 -4.72933,-5.12272 -7.09405,-12.18517 -7.09405,-21.1873 0,-9.02695 2.36472,-16.10181 7.09405,-21.22462 4.75252,-5.12269 11.29017,-7.68409 19.61297,-7.68415 m 66.66699,2.76033 0,11.78732 c -2.85161,-1.36768 -5.63357,-2.39969 -8.34598,-3.09602 -2.71251,-0.69626 -5.27424,-1.0444 -7.68524,-1.04446 -3.19924,6e-5 -5.56398,0.47254 -7.09403,1.41747 -1.53011,0.94501 -2.29519,2.41221 -2.29519,4.40158 0,1.49211 0.51008,2.66087 1.53016,3.50635 1.04319,0.82066 2.92102,1.5294 5.63347,2.1262 l 5.70306,1.23095 c 5.77263,1.24342 9.87599,3.13337 12.31023,5.66985 2.43424,2.53654 3.65133,6.14236 3.65143,10.81745 -10e-5,6.14235 -1.70403,10.71803 -5.11189,13.72702 -3.38478,2.98411 -8.56627,4.47619 -15.54438,4.47619 -3.29201,0 -6.59559,-0.33574 -9.91076,-1.00716 -3.31518,-0.67143 -6.6304,-1.66613 -9.94556,-2.98412 l 0,-12.12303 c 3.31516,1.88998 6.51447,3.31985 9.59779,4.28968 3.10655,0.94499 6.09716,1.41746 8.97191,1.41746 2.92104,0 5.15823,-0.52221 6.71153,-1.56666 1.5532,-1.04443 2.32983,-2.5365 2.32993,-4.4762 -10e-5,-1.74071 -0.53331,-3.08359 -1.59967,-4.02856 -1.04323,-0.94497 -3.1413,-1.79045 -6.29425,-2.53651 l -5.18136,-1.23096 c -5.19304,-1.19363 -8.99513,-3.096 -11.40613,-5.70713 -2.3879,-2.61109 -3.58187,-6.12988 -3.58181,-10.5564 -6e-5,-5.54543 1.66914,-9.81026 5.00752,-12.79444 3.33839,-2.98405 8.13734,-4.47614 14.39675,-4.4762 2.85156,6e-5 5.78415,0.23632 8.79805,0.70874 3.01377,0.44769 6.13189,1.13154 9.35442,2.05159 m -265.8628,-1.74314 13.38827,0 0,44.83651 23.50777,0 0,10.85482 -36.89604,0 0,-55.69133 m 144.19104,34.31741 -14.04886,-20.40395 13.17952,0 7.96345,12.38415 8.06767,-12.38415 13.17966,0 -14.04901,20.32946 14.7446,21.44841 -13.17968,0 -8.76324,-13.20486 -8.65898,13.20486 -13.17953,0 14.7444,-21.37392 m -96.88435,-41.2785 c 2.13327,1.4e-4 3.9515,0.83227 5.45455,2.49633 1.50288,1.61226 2.25435,3.56261 2.25447,5.85073 -1.2e-4,2.39254 -0.75159,4.3947 -2.25447,6.00682 -1.45458,1.61239 -3.27284,2.41843 -5.45455,2.41829 -1.98789,1.4e-4 -3.75751,-0.83198 -5.309,-2.49632 -1.50304,-1.71606 -2.25446,-3.69234 -2.25434,-5.92879 -1.2e-4,-2.23616 0.7513,-4.18633 2.25434,-5.85073 1.55149,-1.66406 3.32111,-2.49619 5.309,-2.49633 m 5.52717,62.65242 -11.34519,0 0,-31.22677 -8.01353,0 0,-10.5314 19.35872,0 0,41.75817" />
  <path
     style="font-size:49.00590134px;font-style:normal;font-variant:normal;font-weight:bold;font-stretch:normal;text-align:start;line-height:125%;text-anchor:start;fill:url(#linearGradient2921);fill-opacity:1;fill-rule:evenodd;stroke:none;stroke-width:3.52981997;marker:none;visibility:visible;display:inline;overflow:visible;font-family:Bitstream Vera Sans"
     id="path4057"
     d="m 246.71501,234.03052 c -2.55023,1.6e-4 -4.88437,0.58511 -6.99389,1.7537 -2.1098,1.14399 -4.11701,2.92166 -5.99474,5.35876 l 0,-6.08945 -12.4437,0 0,41.74855 12.4437,0 0,-20.55764 c 0,-3.80473 0.74151,-6.77614 2.22521,-8.91471 1.48372,-2.1636 3.53456,-3.21517 6.131,-3.21517 1.06651,0 2.02656,0.23339 2.86124,0.73067 0.83444,0.47254 1.46591,1.12694 1.95285,1.9973 0.37079,0.64652 0.63284,1.65266 0.77202,3.02026 0.16225,1.36776 0.22694,3.84767 0.2271,7.45336 l 0.0453,0.0486 0,3.16645 c 0,5.64502 1.20099,9.95015 3.54242,12.90942 2.36464,2.95926 5.76613,4.43305 10.26378,4.43305 2.52688,0 4.8618,-0.5611 6.94845,-1.70508 2.1095,-1.16873 4.07133,-2.97025 5.94929,-5.40722 l 0,6.04059 12.48899,0 0,-41.74854 -12.48899,0 0,20.60637 c -1.4e-4,3.80471 -0.74177,6.77612 -2.22534,8.91468 -1.48384,2.13873 -3.48913,3.21521 -6.08557,3.21521 -1.0665,0 -2.02671,-0.25828 -2.86117,-0.73069 -0.81146,-0.47239 -1.48821,-1.12696 -1.9982,-1.99727 -0.39416,-0.67145 -0.65519,-1.74791 -0.81746,-3.21518 -0.16235,-1.492 -0.22711,-3.90126 -0.22711,-7.25848 l 0,-3.21514 c 0,-5.64505 -1.15538,-9.95017 -3.49696,-12.90944 -2.31828,-2.95928 -5.7207,-4.43292 -10.21819,-4.43307 z m -178.500138,-12.9221 22.221066,0 c 6.607181,6e-5 11.672662,1.57914 15.196542,4.7373 3.54697,3.13338 5.32049,7.6096 5.32054,13.42861 -5e-5,5.84391 -1.77357,10.34499 -5.32054,13.50316 -3.52388,3.13337 -8.589361,4.70003 -15.196542,4.70001 l -8.832793,0 0,19.32223 -13.388273,0 0,-55.69131 m 13.388273,10.40716 0,15.55478 7.407014,0 c 2.596509,1e-5 4.601824,-0.67143 6.016035,-2.01428 1.414124,-1.36773 2.121229,-3.29495 2.121251,-5.78175 -2.2e-5,-2.48678 -0.707127,-4.40159 -2.121251,-5.74445 -1.414211,-1.34283 -3.419526,-2.01425 -6.016035,-2.0143 l -7.407014,0 M 157.39807,273.741 c -2.45746,1.36775 -5.01921,2.39975 -7.68523,3.09604 -2.66611,0.69627 -5.44809,1.04444 -8.34594,1.04444 -8.64734,0 -15.49794,-2.58622 -20.55186,-7.75874 -5.05393,-5.19733 -7.58089,-12.23491 -7.58089,-21.1127 0,-8.90261 2.52696,-15.9402 7.58089,-21.11271 5.05392,-5.19732 11.90452,-7.79599 20.55186,-7.79605 2.89785,6e-5 5.67983,0.3482 8.34594,1.04444 2.66602,0.69635 5.22777,1.72836 7.68523,3.09603 l 0,11.52621 c -2.48066,-1.81531 -4.92646,-3.14571 -7.33748,-3.99128 -2.41108,-0.84544 -4.94962,-1.26819 -7.61567,-1.26826 -4.77575,7e-5 -8.5314,1.64131 -11.267,4.92381 -2.73565,3.28262 -4.10345,7.80853 -4.10343,13.57781 -2e-5,5.74445 1.36778,10.25797 4.10343,13.54049 2.7356,3.28255 6.49125,4.9238 11.267,4.9238 2.66605,0 5.20459,-0.42274 7.61567,-1.26825 2.41102,-0.84551 4.85682,-2.1759 7.33748,-3.99128 l 0,11.5262 m 204.51996,-43.23258 c -4.08029,7e-5 -7.2448,1.61647 -9.49356,4.84923 -2.24877,3.23284 -3.37312,7.78363 -3.37312,13.65239 0,5.84394 1.12435,10.3823 3.37312,13.61508 2.24876,3.23283 5.41327,4.84921 9.49356,4.84921 4.10332,0 7.27946,-1.61638 9.52826,-4.84921 2.24873,-3.23278 3.37311,-7.77114 3.37312,-13.61508 -1e-5,-5.86876 -1.12439,-10.41955 -3.37312,-13.65239 -2.2488,-3.23276 -5.42494,-4.84916 -9.52826,-4.84923 m 0,-10.40714 c 8.34589,6e-5 14.88352,2.56145 19.61291,7.68412 4.72929,5.12282 7.09397,12.19767 7.09408,21.22464 -1.1e-4,9.00213 -2.36479,16.06458 -7.09408,21.1873 -4.72939,5.12279 -11.26702,7.68414 -19.61291,7.68414 -8.32278,0 -14.86047,-2.56135 -19.61296,-7.68414 -4.72936,-5.12272 -7.09409,-12.18517 -7.09409,-21.1873 0,-9.02697 2.36473,-16.10182 7.09409,-21.22464 4.75249,-5.12267 11.29018,-7.68406 19.61296,-7.68412 m 66.66689,2.76032 0,11.7873 c -2.85152,-1.36767 -5.63352,-2.39969 -8.34584,-3.09603 -2.7125,-0.69624 -5.27428,-1.04438 -7.68528,-1.04445 -3.19929,7e-5 -5.56394,0.47254 -7.09404,1.41748 -1.53012,0.94501 -2.29514,2.41221 -2.29514,4.40157 0,1.49213 0.51002,2.66089 1.53011,3.50636 1.04325,0.82066 2.92101,1.52939 5.63351,2.12619 l 5.70303,1.23095 c 5.77258,1.24343 9.87594,3.13339 12.31023,5.66986 2.43423,2.53655 3.65138,6.14236 3.65143,10.81745 -5e-5,6.14236 -1.70408,10.71803 -5.11193,13.72703 -3.38479,2.98409 -8.56618,4.47617 -15.54434,4.47617 -3.29196,0 -6.59561,-0.33571 -9.91072,-1.00715 -3.31523,-0.67143 -6.63045,-1.66613 -9.94562,-2.98412 l 0,-12.12303 c 3.31517,1.88998 6.51447,3.31987 9.59784,4.28969 3.10649,0.94497 6.09716,1.41746 8.97185,1.41746 2.92102,0 5.15821,-0.52221 6.71162,-1.56667 1.55319,-1.04443 2.32981,-2.53649 2.32981,-4.47619 0,-1.74072 -0.53325,-3.08358 -1.59962,-4.02858 -1.04323,-0.94495 -3.14135,-1.79044 -6.29422,-2.53651 l -5.18139,-1.23095 c -5.1931,-1.19364 -8.99514,-3.09599 -11.40619,-5.70713 -2.38783,-2.61108 -3.58181,-6.12988 -3.58176,-10.55639 -5e-5,-5.54546 1.66914,-9.81027 5.00753,-12.79445 3.33838,-2.98406 8.13728,-4.47612 14.39675,-4.47618 2.85151,6e-5 5.7842,0.23632 8.79802,0.70872 3.01382,0.44767 6.13183,1.13154 9.35436,2.0516 m -265.86273,-1.74313 13.38828,0 0,44.83648 23.50777,0 0,10.85484 -36.89605,0 0,-55.69132 m 144.19105,34.31738 -14.04886,-20.40394 13.17953,0 7.96343,12.38415 8.06768,-12.38415 13.17966,0 -14.04902,20.32946 14.74462,21.44842 -13.1797,0 -8.76324,-13.20488 -8.65896,13.20488 -13.17953,0 14.74439,-21.37394 m -96.88433,-41.2785 c 2.13325,1.5e-4 3.95148,0.83227 5.45454,2.49633 1.50288,1.61227 2.25433,3.5626 2.25448,5.85075 -1.5e-4,2.39252 -0.7516,4.39469 -2.25448,6.0068 -1.45457,1.61239 -3.27284,2.41844 -5.45454,2.41829 -1.9879,1.5e-4 -3.75753,-0.83195 -5.30902,-2.49632 -1.50304,-1.71606 -2.25447,-3.69232 -2.25435,-5.92877 -1.2e-4,-2.23616 0.75131,-4.18634 2.25435,-5.85075 1.55149,-1.66406 3.32112,-2.49618 5.30902,-2.49633 m 5.52715,62.65244 -11.34518,0 0,-31.22679 -8.01354,0 0,-10.53138 19.35872,0 0,41.75817" />
</svg>
