<?xml version="1.0" encoding="UTF-8"?>
<svg width="512" height="512" version="1.1" viewBox="0 0 512 512" xmlns="http://www.w3.org/2000/svg">
 <defs>
  <linearGradient id="b" x1="1241" x2="1241" y1="1046" y2="1007" gradientTransform="matrix(1.38 0 0 1.48 -1458 -1285)" gradientUnits="userSpaceOnUse">
   <stop style="stop-color:rgb(255, 255, 255)" offset="0"/>
   <stop style="stop-color:#707070" offset="1"/>
  </linearGradient>
  <linearGradient id="a" x1="649" x2="649" y1="5.05" y2="995" gradientTransform="matrix(.495 0 0 .49 -65.8 11)" gradientUnits="userSpaceOnUse">
   <stop style="stop-color:rgb(189, 233, 255)" offset="0"/>
   <stop style="stop-color:rgb(28, 125, 189)" offset=".2"/>
   <stop style="stop-color:rgb(30, 91, 161)" offset=".304"/>
   <stop style="stop-color:rgb(38, 46, 54)" offset=".538"/>
   <stop style="stop-color:rgb(24, 109, 153)" offset=".734"/>
   <stop style="stop-color:rgb(0, 113, 191)" offset="1"/>
  </linearGradient>
 </defs>
 <circle cx="256" cy="256" r="242" style="fill:url(#a);stroke-linecap:round;stroke-linejoin:round;stroke-width:5;stroke:#000000"/>
 <circle cx="256" cy="257" r="198"/>
 <path d="m248 233c-2.55 1.5e-4 -4.88 0.585-6.99 1.75-2.11 1.14-4.12 2.92-5.99 5.36v-6.09h-12.4v41.7h12.4v-20.6c0-3.8 0.741-6.78 2.23-8.91 1.48-2.16 3.53-3.22 6.13-3.22 1.07 0 2.03 0.233 2.86 0.731 0.834 0.473 1.47 1.13 1.95 2 0.371 0.647 0.633 1.65 0.772 3.02 0.162 1.37 0.227 3.85 0.227 7.45l0.0452 0.0487v3.17c0 5.65 1.2 9.95 3.54 12.9 2.36 2.96 5.77 4.43 10.3 4.43 2.53 0 4.86-0.561 6.95-1.71 2.11-1.17 4.07-2.97 5.95-5.41v6.04h12.5v-41.7h-12.5v20.6c-1.4e-4 3.8-0.742 6.78-2.23 8.91-1.48 2.14-3.49 3.22-6.09 3.22-1.07 0-2.03-0.258-2.86-0.731-0.811-0.472-1.49-1.13-2-2-0.394-0.671-0.655-1.75-0.817-3.22-0.162-1.49-0.227-3.9-0.227-7.26v-3.22c0-5.65-1.16-9.95-3.5-12.9-2.32-2.96-5.72-4.43-10.2-4.43zm-179-12.9h22.2c6.61 5e-5 11.7 1.58 15.2 4.74 3.55 3.13 5.32 7.61 5.32 13.4-7e-5 5.84-1.77 10.3-5.32 13.5-3.52 3.13-8.59 4.7-15.2 4.7h-8.83v19.3h-13.4v-55.7m13.4 10.4v15.6h7.41c2.6 4e-5 4.6-0.671 6.02-2.01 1.41-1.37 2.12-3.29 2.12-5.78-3.3e-5 -2.49-0.707-4.4-2.12-5.74-1.41-1.34-3.42-2.01-6.02-2.01h-7.41m75.8 42.2c-2.46 1.37-5.02 2.4-7.69 3.1-2.67 0.696-5.45 1.04-8.35 1.04-8.65 0-15.5-2.59-20.6-7.76-5.05-5.2-7.58-12.2-7.58-21.1 0-8.9 2.53-15.9 7.58-21.1 5.05-5.2 11.9-7.8 20.6-7.8 2.9 6e-5 5.68 0.348 8.35 1.04 2.67 0.696 5.23 1.73 7.69 3.1v11.5c-2.48-1.82-4.93-3.15-7.34-3.99-2.41-0.845-4.95-1.27-7.62-1.27-4.78 6e-5 -8.53 1.64-11.3 4.92-2.74 3.28-4.1 7.81-4.1 13.6-4e-5 5.74 1.37 10.3 4.1 13.5 2.74 3.28 6.49 4.92 11.3 4.92 2.67 0 5.2-0.423 7.62-1.27 2.41-0.845 4.86-2.18 7.34-3.99v11.5m205-43.2c-4.08 6e-5 -7.24 1.62-9.49 4.85-2.25 3.23-3.37 7.78-3.37 13.7 0 5.84 1.12 10.4 3.37 13.6 2.25 3.23 5.41 4.85 9.49 4.85 4.1 0 7.28-1.62 9.53-4.85 2.25-3.23 3.37-7.77 3.37-13.6-6e-5 -5.87-1.12-10.4-3.37-13.7-2.25-3.23-5.42-4.85-9.53-4.85m0-10.4c8.35 6e-5 14.9 2.56 19.6 7.68 4.73 5.12 7.09 12.2 7.09 21.2-5e-5 9-2.36 16.1-7.09 21.2-4.73 5.12-11.3 7.68-19.6 7.68-8.32 0-14.9-2.56-19.6-7.68-4.73-5.12-7.09-12.2-7.09-21.2 0-9.03 2.36-16.1 7.09-21.2 4.75-5.12 11.3-7.68 19.6-7.68m66.7 2.76v11.8c-2.85-1.37-5.63-2.4-8.35-3.1-2.71-0.696-5.27-1.04-7.69-1.04-3.2 6e-5 -5.56 0.473-7.09 1.42-1.53 0.945-2.3 2.41-2.3 4.4 0 1.49 0.51 2.66 1.53 3.51 1.04 0.821 2.92 1.53 5.63 2.13l5.7 1.23c5.77 1.24 9.88 3.13 12.3 5.67 2.43 2.54 3.65 6.14 3.65 10.8-1e-4 6.14-1.7 10.7-5.11 13.7-3.38 2.98-8.57 4.48-15.5 4.48-3.29 0-6.6-0.336-9.91-1.01-3.32-0.671-6.63-1.67-9.95-2.98v-12.1c3.32 1.89 6.51 3.32 9.6 4.29 3.11 0.945 6.1 1.42 8.97 1.42 2.92 0 5.16-0.522 6.71-1.57 1.55-1.04 2.33-2.54 2.33-4.48-1e-4 -1.74-0.533-3.08-1.6-4.03-1.04-0.945-3.14-1.79-6.29-2.54l-5.18-1.23c-5.19-1.19-9-3.1-11.4-5.71-2.39-2.61-3.58-6.13-3.58-10.6-6e-5 -5.55 1.67-9.81 5.01-12.8 3.34-2.98 8.14-4.48 14.4-4.48 2.85 6e-5 5.78 0.236 8.8 0.709 3.01 0.448 6.13 1.13 9.35 2.05m-266-1.74h13.4v44.8h23.5v10.9h-36.9v-55.7m144 34.3-14-20.4h13.2l7.96 12.4 8.07-12.4h13.2l-14 20.3 14.7 21.4h-13.2l-8.76-13.2-8.66 13.2h-13.2l14.7-21.4m-96.9-41.3c2.13 1.4e-4 3.95 0.832 5.45 2.5 1.5 1.61 2.25 3.56 2.25 5.85-1.2e-4 2.39-0.752 4.39-2.25 6.01-1.45 1.61-3.27 2.42-5.45 2.42-1.99 1.4e-4 -3.76-0.832-5.31-2.5-1.5-1.72-2.25-3.69-2.25-5.93-1.2e-4 -2.24 0.751-4.19 2.25-5.85 1.55-1.66 3.32-2.5 5.31-2.5m5.53 62.7h-11.3v-31.2h-8.01v-10.5h19.4v41.8" style="fill-rule:evenodd"/>
 <path d="m251 237c-2.55 1.6e-4 -4.88 0.585-6.99 1.75-2.11 1.14-4.12 2.92-5.99 5.36v-6.09h-12.4v41.7h12.4v-20.6c0-3.8 0.742-6.78 2.23-8.91 1.48-2.16 3.53-3.22 6.13-3.22 1.07 0 2.03 0.233 2.86 0.731 0.834 0.473 1.47 1.13 1.95 2 0.371 0.647 0.633 1.65 0.772 3.02 0.162 1.37 0.227 3.85 0.227 7.45l0.0453 0.0486v3.17c0 5.65 1.2 9.95 3.54 12.9 2.36 2.96 5.77 4.43 10.3 4.43 2.53 0 4.86-0.561 6.95-1.71 2.11-1.17 4.07-2.97 5.95-5.41v6.04h12.5v-41.7h-12.5v20.6c-1.4e-4 3.8-0.742 6.78-2.23 8.91-1.48 2.14-3.49 3.22-6.09 3.22-1.07 0-2.03-0.258-2.86-0.731-0.811-0.472-1.49-1.13-2-2-0.394-0.671-0.655-1.75-0.817-3.22-0.162-1.49-0.227-3.9-0.227-7.26v-3.22c0-5.65-1.16-9.95-3.5-12.9-2.32-2.96-5.72-4.43-10.2-4.43zm-179-12.9h22.2c6.61 6e-5 11.7 1.58 15.2 4.74 3.55 3.13 5.32 7.61 5.32 13.4-5e-5 5.84-1.77 10.3-5.32 13.5-3.52 3.13-8.59 4.7-15.2 4.7h-8.83v19.3h-13.4v-55.7m13.4 10.4v15.6h7.41c2.6 1e-5 4.6-0.671 6.02-2.01 1.41-1.37 2.12-3.29 2.12-5.78-2e-5 -2.49-0.707-4.4-2.12-5.74-1.41-1.34-3.42-2.01-6.02-2.01h-7.41m75.8 42.2c-2.46 1.37-5.02 2.4-7.69 3.1-2.67 0.696-5.45 1.04-8.35 1.04-8.65 0-15.5-2.59-20.6-7.76-5.05-5.2-7.58-12.2-7.58-21.1 0-8.9 2.53-15.9 7.58-21.1 5.05-5.2 11.9-7.8 20.6-7.8 2.9 6e-5 5.68 0.348 8.35 1.04 2.67 0.696 5.23 1.73 7.69 3.1v11.5c-2.48-1.82-4.93-3.15-7.34-3.99-2.41-0.845-4.95-1.27-7.62-1.27-4.78 7e-5 -8.53 1.64-11.3 4.92-2.74 3.28-4.1 7.81-4.1 13.6-2e-5 5.74 1.37 10.3 4.1 13.5 2.74 3.28 6.49 4.92 11.3 4.92 2.67 0 5.2-0.423 7.62-1.27 2.41-0.846 4.86-2.18 7.34-3.99v11.5m205-43.2c-4.08 7e-5 -7.24 1.62-9.49 4.85-2.25 3.23-3.37 7.78-3.37 13.7 0 5.84 1.12 10.4 3.37 13.6 2.25 3.23 5.41 4.85 9.49 4.85 4.1 0 7.28-1.62 9.53-4.85 2.25-3.23 3.37-7.77 3.37-13.6-1e-5 -5.87-1.12-10.4-3.37-13.7-2.25-3.23-5.42-4.85-9.53-4.85m0-10.4c8.35 6e-5 14.9 2.56 19.6 7.68 4.73 5.12 7.09 12.2 7.09 21.2-1.1e-4 9-2.36 16.1-7.09 21.2-4.73 5.12-11.3 7.68-19.6 7.68-8.32 0-14.9-2.56-19.6-7.68-4.73-5.12-7.09-12.2-7.09-21.2 0-9.03 2.36-16.1 7.09-21.2 4.75-5.12 11.3-7.68 19.6-7.68m66.7 2.76v11.8c-2.85-1.37-5.63-2.4-8.35-3.1-2.71-0.696-5.27-1.04-7.69-1.04-3.2 7e-5 -5.56 0.473-7.09 1.42-1.53 0.945-2.3 2.41-2.3 4.4 0 1.49 0.51 2.66 1.53 3.51 1.04 0.821 2.92 1.53 5.63 2.13l5.7 1.23c5.77 1.24 9.88 3.13 12.3 5.67 2.43 2.54 3.65 6.14 3.65 10.8-5e-5 6.14-1.7 10.7-5.11 13.7-3.38 2.98-8.57 4.48-15.5 4.48-3.29 0-6.6-0.336-9.91-1.01-3.32-0.671-6.63-1.67-9.95-2.98v-12.1c3.32 1.89 6.51 3.32 9.6 4.29 3.11 0.945 6.1 1.42 8.97 1.42 2.92 0 5.16-0.522 6.71-1.57 1.55-1.04 2.33-2.54 2.33-4.48 0-1.74-0.533-3.08-1.6-4.03-1.04-0.945-3.14-1.79-6.29-2.54l-5.18-1.23c-5.19-1.19-9-3.1-11.4-5.71-2.39-2.61-3.58-6.13-3.58-10.6-5e-5 -5.55 1.67-9.81 5.01-12.8 3.34-2.98 8.14-4.48 14.4-4.48 2.85 6e-5 5.78 0.236 8.8 0.709 3.01 0.448 6.13 1.13 9.35 2.05m-266-1.74h13.4v44.8h23.5v10.9h-36.9v-55.7m144 34.3-14-20.4h13.2l7.96 12.4 8.07-12.4h13.2l-14 20.3 14.7 21.4h-13.2l-8.76-13.2-8.66 13.2h-13.2l14.7-21.4m-96.9-41.3c2.13 1.5e-4 3.95 0.832 5.45 2.5 1.5 1.61 2.25 3.56 2.25 5.85-1.5e-4 2.39-0.752 4.39-2.25 6.01-1.45 1.61-3.27 2.42-5.45 2.42-1.99 1.5e-4 -3.76-0.832-5.31-2.5-1.5-1.72-2.25-3.69-2.25-5.93-1.2e-4 -2.24 0.751-4.19 2.25-5.85 1.55-1.66 3.32-2.5 5.31-2.5m5.53 62.7h-11.3v-31.2h-8.01v-10.5h19.4v41.8" style="fill-rule:evenodd;fill:url(#b)"/>
</svg>
