<?xml version="1.0" encoding="UTF-8"?>
<svg width="512" height="512" version="1.1" viewBox="0 0 512 512" xmlns="http://www.w3.org/2000/svg">
 <circle cx="256" cy="256" r="255" fill="#48b9c7"/>
 <path d="m290 193c-12.9 27.5-34.5 49.6-64.7 60.4l25.9 67.4c4.85 12.4 9.16 25.3 5.39 37.2-3.77 11.9-21 15.6-33.4 2.7-23.7-25.3-104-185-109-197s-12.4-21.6-12.4-33.4c0.539-17.8 28-36.1 41.5-45.3 13.5-9.16 39.9-21.6 63.1-22.1 23.2-0.539 32.9 4.85 46.4 13.5 20.5 13.5 35 34.5 40.4 58.8 5.39 24.3 3.77 43.1-2.7 56.6m-60.9-29.1c-4.85-16.7-15.1-32.9-28.6-43.7-2.7-2.16-5.93-4.85-9.7-5.93-24.8-8.09-14 33.4-10.2 44.2s14 33.4 25.3 44.7c2.7 2.7 5.39 4.85 8.63 5.39 3.23 0.539 9.7-2.7 12.4-7.01 2.7-4.31 3.23-7.55 3.23-11.9a69 69 0 0 0-1.08-25.9z" fill="#fff"/>
 <path d="m338 358c-1.08 4.85-3.77 9.16-8.09 11.9-4.31 2.7-14.6 2.7-20.5-2.16-5.93-4.85-7.01-12.9-5.39-19.4 1.62-6.47 7.01-13.5 14.6-15.6 15.6-4.85 22.6 12.4 19.4 25.3z" fill="#fff"/>
 <path d="m328 309c-9.7-3.77-6.47-55.5 2.7-119 2.7-17.3 7.01-25.9 11.9-30.2 4.85-4.31 19.4-6.47 28-4.85a48.5 48.5 0 0 1 26.4 12.9c6.47 5.93 7.01 12.4 4.85 20.5s-9.7 25.3-15.6 37.7l-15.1 28.6c-29.1 51.8-35 57.1-43.1 53.9z" fill="#fff"/>
 <rect x="137" y="409" width="238" height="34" rx="4.48" ry="4.48" fill="#fff"/>
</svg>
