<svg width="512" height="512" viewBox="0 0 100 100" xmlns="http://www.w3.org/2000/svg"><g transform="translate(100,100) rotate(180) translate(0, 6.698729810778069)"><polygon points="29.7,17.5 25.9,27.8 15.0,26.0 0.0,0.0 65.0,0.0 58.0,8.5 65.0,17.0 29.8,17.0" fill="#090" /><g transform="translate(100,0) rotate(120) "><polygon points="29.7,17.5 25.9,27.8 15.0,26.0 0.0,0.0 65.0,0.0 58.0,8.5 65.0,17.0 29.8,17.0" fill="#090" /></g><g transform="translate(50,86.60254037844386) rotate(240) "><polygon points="29.7,17.5 25.9,27.8 15.0,26.0 0.0,0.0 65.0,0.0 58.0,8.5 65.0,17.0 29.8,17.0" fill="#090" /></g></g></svg>
