<?xml version="1.0" encoding="UTF-8" standalone="no"?>
<!-- Creator: CorelDRAW -->

<svg
   xmlns:dc="http://purl.org/dc/elements/1.1/"
   xmlns:cc="http://creativecommons.org/ns#"
   xmlns:rdf="http://www.w3.org/1999/02/22-rdf-syntax-ns#"
   xmlns:svg="http://www.w3.org/2000/svg"
   xmlns="http://www.w3.org/2000/svg"
   xmlns:xlink="http://www.w3.org/1999/xlink"
   xmlns:sodipodi="http://sodipodi.sourceforge.net/DTD/sodipodi-0.dtd"
   xmlns:inkscape="http://www.inkscape.org/namespaces/inkscape"
   xml:space="preserve"
   width="400"
   height="400"
   style="fill-rule:evenodd"
   viewBox="0 0 112.88889 112.88889"
   sodipodi:version="0.32"
   inkscape:version="0.47 r22583"
   sodipodi:docname="Puppy_logo.svg"
   inkscape:output_extension="org.inkscape.output.svg.inkscape"
   id="svg2"
   inkscape:export-filename="D:\Puppy\puppy0912.png"
   inkscape:export-xdpi="600"
   inkscape:export-ydpi="600"
   version="1.1"><metadata
   id="metadata70"><rdf:RDF><cc:Work
       rdf:about=""><dc:format>image/svg+xml</dc:format><dc:type
         rdf:resource="http://purl.org/dc/dcmitype/StillImage" /></cc:Work><cc:Work
       rdf:about=""><dc:format>image/svg+xml</dc:format><dc:type
         rdf:resource="http://purl.org/dc/dcmitype/StillImage" /></cc:Work><cc:Work
       rdf:about=""><dc:format>image/svg+xml</dc:format><dc:type
         rdf:resource="http://purl.org/dc/dcmitype/StillImage" /></cc:Work></rdf:RDF></metadata><sodipodi:namedview
   inkscape:window-height="789"
   inkscape:window-width="1152"
   inkscape:pageshadow="2"
   inkscape:pageopacity="0.0"
   guidetolerance="10.0"
   gridtolerance="10.0"
   objecttolerance="10.0"
   borderopacity="1.0"
   bordercolor="#666666"
   pagecolor="#ffffff"
   id="namedview68"
   showgrid="false"
   inkscape:zoom="0.46884674"
   inkscape:cx="693.98256"
   inkscape:cy="383.42552"
   inkscape:window-x="0"
   inkscape:window-y="24"
   inkscape:current-layer="svg2"
   inkscape:window-maximized="1" />
 <defs
   id="defs4"><linearGradient
     y2="295.10199"
     x2="188.735"
     y1="6.0749002"
     x1="21.865101"
     gradientUnits="userSpaceOnUse"
     id="linearGradient3226">
   <stop
   id="stop3228"
   style="stop-color: rgb(0, 0, 0); stop-opacity: 0;"
   offset="0" /><stop
   offset="0.63258851"
   style="stop-color: rgb(255, 255, 255); stop-opacity: 0;"
   id="stop3234" /><stop
   id="stop3236"
   style="stop-color: rgb(0, 0, 0); stop-opacity: 0.392157;"
   offset="0.69750071" /><stop
   offset="1"
   style="stop-color: rgb(0, 0, 0); stop-opacity: 1;"
   id="stop3232" />
   
  </linearGradient><style
     type="text/css"
     id="style6">
   
    .str0 {stroke:#1F1A17;stroke-width:0.2}
    .fil11 {fill:none}
    .fil12 {fill:#838281}
    .fil9 {fill:black}
    .fil10 {fill:url(#id0)}
    .fil0 {fill:url(#id1)}
    .fil5 {fill:url(#id2)}
    .fil3 {fill:url(#id3)}
    .fil2 {fill:url(#id4)}
    .fil4 {fill:url(#id5)}
    .fil6 {fill:url(#id6)}
    .fil7 {fill:url(#id7)}
    .fil1 {fill:url(#id8)}
    .fil8 {fill:url(#id9)}
   
  </style><linearGradient
     id="id0"
     gradientUnits="userSpaceOnUse"
     x1="52.195999"
     y1="88.3992"
     x2="-7.8656001"
     y2="24.4438">
   
   <stop
   offset="0"
   style="stop-color: rgb(255, 255, 255); stop-opacity: 0.00884956;"
   id="stop11" />
   <stop
   offset="1"
   style="stop-color: rgb(255, 255, 255); stop-opacity: 0.784314;"
   id="stop13" />
  </linearGradient><linearGradient
     id="id1"
     gradientUnits="userSpaceOnUse"
     x1="21.865101"
     y1="6.0749002"
     x2="188.735"
     y2="295.10199">
   <stop
   offset="0"
   style="stop-color: rgb(0, 0, 0); stop-opacity: 0.392157;"
   id="stop16" /><stop
   id="stop2212"
   style="stop-color: rgb(255, 255, 255); stop-opacity: 0;"
   offset="1" />
   
  </linearGradient><linearGradient
     id="id6"
     gradientUnits="userSpaceOnUse"
     x1="213.07401"
     y1="57.513599"
     x2="138.261"
     y2="26.319201">
   <stop
   offset="0"
   style="stop-color: rgb(255, 253, 255); stop-opacity: 1;"
   id="stop25" /><stop
   id="stop3190"
   style="stop-color: rgb(255, 255, 255); stop-opacity: 0;"
   offset="1" />
   
  </linearGradient><linearGradient
     id="id7"
     gradientUnits="userSpaceOnUse"
     x1="89.160797"
     y1="14.9416"
     x2="147.45399"
     y2="115.908">
   <stop
   offset="0"
   style="stop-color: rgb(255, 255, 255); stop-opacity: 1;"
   id="stop30" />
   <stop
   offset="1"
   style="stop-color: rgb(255, 255, 255); stop-opacity: 0;"
   id="stop32" />
   
  </linearGradient><filter
     inkscape:collect="always"
     id="filter3680"
     color-interpolation-filters="sRGB"><feGaussianBlur
       inkscape:collect="always"
       stdDeviation="8.0485938"
       id="feGaussianBlur3682" /></filter><radialGradient
     inkscape:collect="always"
     xlink:href="#id1"
     id="radialGradient2226"
     gradientUnits="userSpaceOnUse"
     gradientTransform="matrix(1.93068,1.99551,-1.58489,1.5334,311.909,-141.182)"
     cx="-10.779238"
     cy="130.98541"
     fx="-10.779238"
     fy="130.98541"
     r="129.02905" /><linearGradient
     inkscape:collect="always"
     xlink:href="#id6"
     id="linearGradient2228"
     gradientUnits="userSpaceOnUse"
     gradientTransform="translate(7.07143,2.68095)"
     x1="163.3857"
     y1="5.9747305"
     x2="208.36693"
     y2="51.360291" /><linearGradient
     inkscape:collect="always"
     xlink:href="#id7"
     id="linearGradient2230"
     gradientUnits="userSpaceOnUse"
     gradientTransform="translate(7.07143,2.68095)"
     x1="91.30751"
     y1="31.001986"
     x2="145.81064"
     y2="82.995872" /><linearGradient
     inkscape:collect="always"
     xlink:href="#id0"
     id="linearGradient2232"
     gradientUnits="userSpaceOnUse"
     x1="32.651817"
     y1="64.169998"
     x2="14.327238"
     y2="43.990253" /><radialGradient
     inkscape:collect="always"
     xlink:href="#linearGradient3226"
     id="radialGradient2234"
     gradientUnits="userSpaceOnUse"
     gradientTransform="matrix(0.636836,1.21177,-1.44027,0.756923,1103.64,-313.46)"
     cx="293.21979"
     cy="615.11548"
     fx="293.21979"
     fy="615.11548"
     r="460.78125" /></defs>
 
<g
   id="g2434"
   inkscape:export-xdpi="3000.0005"
   inkscape:export-ydpi="3000.0005"
   inkscape:export-filename="D:\Puppy\puppy0912.png"
   transform="matrix(0.37957408,0,0,0.37957408,14.000289,-2.2075042)"><path
     id="path2488_4"
     class="fil5"
     d="m 174.64043,24.019546 c 6.194,0.0161 12.6918,0.2405 19.0235,0.7056 15.0484,1.1052 28.9409,3.5513 35.022,7.8405 3.2107,2.9371 5.4829,8.7486 6.5882,15.6016 1.0113,6.2702 1.0002,13.2978 -0.2029,19.8173 -1.1706,6.3437 -3.4495,12.1421 -6.985,16.1307 -2.4042,2.7124 -5.42,4.5847 -9.0928,5.1771 -8.1038,1.3071 -12.8144,-6.6527 -19.3499,-17.7007 -5.8014,-9.8071 -12.8864,-21.772 -24.8532,-32.4114 -4.7965,-3.463 -8.9924,0.0661 -6.4567,2.9003 l 0.0464,0.044 c 12.6859,10.5402 19.8985,22.7739 25.7778,32.7127 7.8198,13.2192 13.4492,22.740504 25.8322,20.743302 2.5451,-0.410504 4.8607,-1.242102 6.9497,-2.416502 9.5593,18.012644 14.9754,38.567744 14.9754,60.386644 0,35.6202 -14.431,67.8598 -37.756,91.1931 -23.3185,23.3265 -55.5431,37.756 -91.149,37.756 -35.606905,0 -67.8353,-14.4282 -91.157802,-37.756 -23.3276988,-23.3332 -37.756003,-55.5741 -37.756003,-91.1931 0,-8.7491 0.869705,-17.2983 2.531205,-25.5587 -0.8922,-4.7599 -1.298,-9.9068 -1.5522,-13.8377 -0.0035,-0.0362 -0.0054,-0.0696 -0.0089,-0.1059 -1.065905,-11.30556 -1.788805,-27.234944 -0.582005,-40.745744 0.995805,-11.1487 3.195405,-20.4229 7.4170996,-23.2657 0.295,-0.1976 0.5446,-0.4388 0.7497,-0.7055 1.3961,-1.8012 9.4690092,-7.1177 21.8457084,-10.6098 6.231095,-1.7581 13.4741,-2.9828 21.3872,-2.9457 1.8261,0.0085 3.6894,0.0866 5.582695,0.2381 11.161697,0.8934 23.056097,10.3332 31.309007,21.8546 3.40799,4.7578 6.167895,9.8246 7.972795,14.7725 1.7586,4.8211 2.614005,9.5143 2.2842,13.6349 -0.3461,4.3251 -2.0555,8.0103 -5.5121,10.4863 -6.0574,4.338394 -14.558295,1.671102 -24.288805,-1.384602 C 38.068833,90.615746 20.280528,85.038246 1.2854292,99.364142 l 2e-4,0.0048 c -4.7566,3.342788 -1.36000006,8.251648 1.4638046,7.209458 17.8090942,-14.774754 34.4635992,-9.550354 48.5863012,-5.11526 11.3468,3.56327 21.26,6.67165 29.897995,0.48509 5.132695,-3.676586 7.664,-9.006484 8.1579,-15.178284 0.4033,-5.0399 -0.5989,-10.6387 -2.663405,-16.2983 -2.01819,-5.5326 -5.049395,-11.1354 -8.766595,-16.3248 -5.074395,-7.084 -11.4859,-13.4702 -18.415,-17.9564 16.287095,-7.4339 34.3923,-11.5711 53.4635,-11.5711 9.5957,0 18.9444,1.0545 27.94,3.0427 3.8046,-1.6383 8.9215,-2.2094 13.3822,-2.8416 l 0.0498,-0.0159 c 5.0823,-0.4496 11.1341,-0.7316 17.6213,-0.7761 0.8709,-0.006 1.7521,-0.0111 2.637,-0.0089 l 0,0 z"
     sodipodi:nodetypes="cscsccsccccscscscsssccsccscssscsccccscscscsccssccsssssscccccccssscscccsccsssccsssccsssccccccccsscccssscssscssscssscsssssssssccsc"
     style="fill:url(#radialGradient2226);fill-opacity:1" /><path
     class="fil6"
     d="m 171.72343,25.152946 c 29.1592,0 52.8063,9.0114 52.8063,20.1232 0,8.5457 -13.9878,15.8482 -33.7116,18.7656 -2.8947,-16.0124 -22.7132,-29.4114 -49.8686,-35.1181 8.6655,-2.3727 19.2916,-3.7707 30.7739,-3.7707 l 0,0 z"
     id="path52"
     style="fill:url(#linearGradient2228)" /><path
     class="fil7"
     d="m 111.63643,25.968646 c 43.9277,0 79.5516,18.8693 79.5516,42.1368 0,23.2677 -35.6239,42.136944 -79.5516,42.136944 -13.626301,0 -26.452101,-1.817 -37.664901,-5.01638 0.3955,-0.0729 0.7904,-0.1596 1.1845,-0.2615 2.8793,-0.74469 5.7194,-2.29638 8.4983,-5.108964 2.5152,-2.9481 4.3187,-6.1615 5.2452,-9.7006 0.9266,-3.5393 0.9768,-7.4058 -0.0138,-11.6601 -0.9597,-4.101 -2.2892,-8.0117 -3.9298,-11.7615 -1.6407,-3.7503 -3.5928,-7.3403 -5.7979,-10.8001 -2.6422,-3.9468 -5.4644,-7.5787 -8.6687,-10.8716 -3.1928,-3.2811 -6.766,-6.2265 -10.9195,-8.8123 13.9542,-6.4047 32.1576,-10.2807 52.066601,-10.2807 l 0,0 z"
     id="path55"
     style="fill:url(#linearGradient2230)" /><path
     id="path2488_5"
     class="fil9"
     d="m 174.02465,17.777953 c -14.41627,0.01508 -27.31368,1.118897 -33.14262,2.82806 -0.33187,0.09739 -0.63833,0.246235 -0.90886,0.431636 -8.72921,-1.766501 -17.76006,-2.695803 -27.00993,-2.695803 -21.723666,0 -42.249026,5.110308 -60.443707,14.192845 -3.515674,-1.520566 -7.098882,-2.492021 -10.64157,-2.775117 -10.930315,-0.873162 -20.891541,0.593762 -29.198333,2.933647 -13.03607842,3.672253 -22.2654346,9.762307 -24.786306,12.395676 -5.855055,4.286992 -8.727204,15.105364 -9.856274,27.725 -1.710963,19.125542 0.330867,42.918023 1.888353,52.613103 0.05123,0.38588 0.174188,0.75698 0.361783,1.10121 -1.770494,8.72153 -2.700163,17.75082 -2.700163,26.99379 0,37.32558 15.1579484,71.11576 39.654609,95.57946 24.506466,24.4734 58.348837,39.60963 95.721608,39.60963 37.37186,0 71.21033,-15.13733 95.71279,-39.60963 24.49406,-24.464 39.64581,-58.25298 39.64581,-95.57946 0,-23.26839 -5.89047,-45.16746 -16.26251,-64.286355 0.27324,-0.280698 0.54088,-0.568189 0.80301,-0.863372 4.3582,-4.909023 7.12129,-11.781436 8.48858,-19.179284 1.33487,-7.222337 1.34998,-15.008468 0.22942,-21.945612 -1.33428,-8.260022 -4.33319,-15.454489 -8.718,-19.381967 -0.0991,-0.0926 -0.20461,-0.183003 -0.31766,-0.264316 -7.09128,-5.118898 -22.26224,-7.932174 -38.4369,-9.118299 -6.65836,-0.488275 -13.53032,-0.711635 -20.08313,-0.704842 l 0,0 z m 0.6,6.351972 c 6.19713,0.01608 12.69821,0.240242 19.03311,0.704842 15.05599,1.104014 28.95551,3.547487 35.03968,7.832082 3.21232,2.933946 5.48566,8.739207 6.59152,15.584848 1.01181,6.263468 1.00071,13.283523 -0.203,19.796023 -1.17119,6.336888 -3.45124,12.129062 -6.98853,16.11338 -2.40541,2.709488 -5.42273,4.579777 -9.09739,5.171541 -8.10789,1.305697 -12.82087,-6.645557 -19.35967,-17.681694 -5.80432,-9.796571 -12.8929,-21.748624 -24.86574,-32.3766 -4.79892,-3.459282 -8.99694,0.06603 -6.45996,2.897186 l 0.0464,0.04395 c 12.69231,10.528882 19.90855,22.749447 25.79082,32.677576 7.82374,13.205006 13.45599,22.716088 25.84524,20.721026 2.54638,-0.410054 4.86315,-1.240768 6.9532,-2.413904 9.56413,17.993319 14.98297,38.526349 14.98297,60.321819 0,35.58195 -14.43829,67.78694 -37.77507,91.09518 -23.33027,23.30146 -55.57114,37.71547 -91.19501,37.71547 -35.624886,0 -67.869554,-14.41271 -91.203828,-37.71547 -23.339478,-23.30814 -37.775061,-55.51442 -37.775061,-91.09518 0,-8.73971 0.870139,-17.27973 2.532478,-25.53126 -0.89265,-4.75479 -1.298655,-9.89616 -1.552984,-13.82284 -0.0035,-0.0362 -0.0054,-0.0695 -0.0089,-0.10579 -1.066438,-11.29343 -1.789703,-27.20571 -0.582294,-40.702004 0.996303,-11.136729 3.197013,-20.400971 7.4208434,-23.240719 0.295149,-0.197388 0.544875,-0.438329 0.750079,-0.704743 1.3968047,-1.799266 9.4737802,-7.110057 21.8567296,-10.598408 6.234245,-1.756212 13.480902,-2.979597 21.397997,-2.942537 1.827022,0.0085 3.691262,0.08651 5.585518,0.237844 11.167335,0.892441 23.06774,10.322106 31.324805,21.831135 3.40972,4.752692 6.171015,9.814051 7.976825,14.756639 1.75949,4.815923 2.615325,9.504084 2.285355,13.62026 -0.346275,4.320456 -2.056535,8.001699 -5.514885,10.475046 C 71.395457,101.12836 62.890266,98.463928 53.154853,95.411504 37.984099,90.65462 20.186818,85.083109 1.1821286,99.393632 l 2e-4,0.0048 c -4.7590016,3.339198 -1.36068702,8.242788 1.464539,7.201718 17.8180914,-14.758895 34.4809994,-9.540104 48.6108284,-5.10977 11.352529,3.55945 21.270733,6.66448 29.913098,0.48457 5.135285,-3.672636 7.66786,-8.996817 8.16201,-15.161991 0.40351,-5.034488 -0.5992,-10.627277 -2.664745,-16.2808 C 84.648849,65.005489 81.616114,59.408705 77.897034,54.224877 72.820079,47.148483 66.405339,40.76914 59.472741,36.287757 75.768059,28.861839 93.882404,24.729081 112.96324,24.729081 c 9.60054,0 18.95396,1.053368 27.9541,3.039433 3.80652,-1.636541 8.92601,-2.207028 13.38896,-2.838549 l 0.0498,-0.01588 c 5.08486,-0.449117 11.13972,-0.730814 17.63019,-0.775267 0.87134,-0.006 1.75299,-0.01109 2.63833,-0.0089 l 0,0 z m 13.79176,68.576889 c -12.46779,0 -22.58039,10.096436 -22.58039,22.544716 0,12.44803 10.1126,22.54467 22.58039,22.54467 12.46779,0 22.58029,-10.09664 22.58029,-22.54467 0,-12.44818 -10.1125,-22.544716 -22.58029,-22.544716 l 0,0 z M 47.613357,109.17257 c -24.375299,0 -44.1459754,19.73948 -44.1459754,44.07632 0,24.33684 19.7706764,44.06754 44.1459754,44.06754 24.375302,0 44.145977,-19.7307 44.145977,-44.06754 0,-24.33684 -19.770675,-44.07632 -44.145977,-44.07632 l 0,0 z m 12.194654,23.06451 c 11.173638,1e-4 20.242013,9.05407 20.242013,20.21007 0,11.15611 -9.068375,20.21018 -20.242013,20.21018 -11.173638,0 -20.242014,-9.05407 -20.242014,-20.21018 0,-11.156 9.068376,-20.21007 20.242014,-20.21007 z m 112.178609,17.59359 c -0.55488,0 -1.08555,0.10468 -1.5795,0.28189 L 107.528,168.41969 c -0.12347,0.0307 -0.24243,0.0654 -0.36179,0.10568 l -0.0176,0.009 -0.0353,0.009 -0.009,0.009 c -1.81351,0.64142 -3.11487,2.36396 -3.11487,4.39618 0,1.93362 1.17419,3.59024 2.85014,4.29928 0.011,0.005 0.0243,0.004 0.0353,0.009 l 38.70163,21.80466 0,0.16742 c 0,6.70649 -2.98191,12.79835 -7.80915,17.22349 -4.91848,4.50895 -11.74802,7.29466 -19.31554,7.29466 -4.77311,0 -9.34662,-1.11071 -13.33293,-3.14512 -3.89496,-1.98786 -7.253871,-4.86347 -9.706301,-8.43114 -0.03312,-0.0539 -0.07044,-0.10638 -0.10586,-0.15863 -0.76218,-1.12419 -2.051335,-1.86769 -3.511865,-1.86769 -2.33828,0 -4.235545,1.89416 -4.235545,4.22875 0,0.9384 0.31106,1.80037 0.82952,2.50201 3.247545,4.75 7.70879,8.57878 12.891711,11.22394 5.19813,2.65295 11.0908,4.11428 17.17127,4.11428 9.75012,0 18.60959,-3.65308 25.04223,-9.55004 4.67436,-4.28499 8.06748,-9.74742 9.61806,-15.87553 6.31268,5.22268 14.63738,8.37829 23.70096,8.37829 9.75012,0 18.60959,-3.64438 25.04223,-9.54124 6.52409,-5.98067 10.55333,-14.26577 10.55333,-23.43451 0,-0.38819 -0.01,-0.85978 -0.0352,-1.37433 5e-4,-0.0267 0,-0.0525 0,-0.0793 0,-2.33459 -1.89726,-4.22876 -4.23554,-4.22876 -2.33828,0 -4.23543,1.89417 -4.23543,4.22876 0,0.0366 -9.1e-4,0.0781 0,0.11448 0.002,0.0659 0.013,0.12876 0.0176,0.19389 0.0143,0.30986 0.0177,0.68256 0.0177,1.14527 0,6.70649 -2.9819,12.79834 -7.80914,17.22348 -4.91858,4.50896 -11.74792,7.29466 -19.31554,7.29466 -7.26357,0 -13.869,-2.57303 -18.75076,-6.7925 -1.00681,-0.87026 -1.93818,-1.80795 -2.78841,-2.81038 l 20.75387,-40.26152 c 0.4013,-0.68896 0.63532,-1.4894 0.63532,-2.34348 0,-2.57813 -2.09446,-4.66928 -4.67666,-4.66928 l 0,0 z"
     sodipodi:nodetypes="cscsccsccccscscscsssccsccscssscsccccscscscsccssccsssssscccccccssscscccsccsssccsssccsssccccccccsscccssscssscssscssscsssssssssccsc"
     style="fill:#000000" /><ellipse
     transform="translate(7.07143,2.68095)"
     class="fil10"
     cx="22.165199"
     cy="56.421501"
     rx="38.182999"
     ry="20.1476"
     id="ellipse60"
     style="fill:url(#linearGradient2232)"
     sodipodi:cx="22.165199"
     sodipodi:cy="56.421501"
     sodipodi:rx="38.182999"
     sodipodi:ry="20.1476"
     d="m 60.348198,56.421501 c 0,11.127212 -17.095111,20.1476 -38.182999,20.1476 -21.0878876,0 -38.182998,-9.020388 -38.182998,-20.1476 0,-11.127212 17.0951104,-20.1476 38.182998,-20.1476 21.087888,0 38.182999,9.020388 38.182999,20.1476 z" /><path
     class="fil12"
     d="m 64.140529,104.93091 c 5.2078,1.86889 11.2401,3.68088 15.1902,3.69358 10.6393,0.0341 14.6513,-7.36675 14.6565,-16.360544 0.0029,-5.0804 -3.4077,-15.2357 -5.8281,-18.5506 l -0.1178,0.8694 c 1.156,4.2384 1.6559,8.3726 1.3507,12.1867 -0.4939,6.1718 -3.0252,11.501698 -8.1579,15.178284 -5.22,3.73858 -10.9059,4.08208 -17.0923,2.98278 l -0.0013,4e-4 0,0 z"
     id="path64"
     style="fill:#141414;fill-opacity:0.39215698" /><path
     class="fil12"
     d="m 215.14743,95.761948 c 1.4732,1.104798 2.9281,1.980296 4.3927,2.433896 3.9826,1.233298 7.3474,1.306002 10.1666,0.499804 -0.8791,-1.868702 -1.8012,-3.713404 -2.7661,-5.531602 -2.089,1.1744 -4.4046,2.005998 -6.9497,2.416502 -1.7395,0.2806 -3.3458,0.3337 -4.8435,0.1814 l 0,0 z"
     id="path66"
     style="fill:#141414;fill-opacity:0.39215698" /><path
     transform="matrix(0.282222,0,0,0.282222,-1.39196e-6,8.46667)"
     id="path2419"
     d="m 806.90625,286.375 c 3.14475,21.77786 4.78125,44.04321 4.78125,66.6875 0,255.66731 -207.52019,463.15625 -463.1875,463.15625 -173.99385,0 -325.687892,-96.07821 -404.84375,-238.0625 32.400861,224.06213 225.38386,396.37501 458.375,396.375 255.66731,0 463.1875,-207.48893 463.1875,-463.15625 0,-81.63943 -21.18519,-158.37131 -58.3125,-225 z"
     style="fill:url(#radialGradient2234);fill-opacity:1;fill-rule:evenodd;stroke:none;filter:url(#filter3680)" /></g></svg>