<?xml version="1.0" encoding="UTF-8"?>
<svg width="512" height="512" version="1.1" viewBox="0 0 512 512" xmlns="http://www.w3.org/2000/svg" xmlns:xlink="http://www.w3.org/1999/xlink">
 <defs>
  <style type="text/css">
   .str0 {stroke:#1F1A17;stroke-width:0.2}
   .fil11 {fill:none}
   .fil12 {fill:#838281}
   .fil9 {fill:black}
   .fil10 {fill:url(#d)}
   .fil0 {fill:url(#c)}
   .fil5 {fill:url(#id2)}
   .fil3 {fill:url(#id3)}
   .fil2 {fill:url(#id4)}
   .fil4 {fill:url(#id5)}
   .fil6 {fill:url(#b)}
   .fil7 {fill:url(#a)}
   .fil1 {fill:url(#id8)}
   .fil8 {fill:url(#id9)}
  </style>
  <linearGradient id="d" x1="52.2" x2="-7.87" y1="88.4" y2="24.4" gradientUnits="userSpaceOnUse">
   <stop style="stop-color:rgb(255,255,255);stop-opacity:.00885" offset="0"/>
   <stop style="stop-color:rgb(255,255,255);stop-opacity:.784" offset="1"/>
  </linearGradient>
  <linearGradient id="c" x1="21.9" x2="189" y1="6.07" y2="295" gradientUnits="userSpaceOnUse">
   <stop style="stop-color:rgb(0,0,0);stop-opacity:.392" offset="0"/>
   <stop style="stop-color:rgb(255,255,255);stop-opacity:0" offset="1"/>
  </linearGradient>
  <linearGradient id="b" x1="213" x2="138" y1="57.5" y2="26.3" gradientUnits="userSpaceOnUse">
   <stop style="stop-color:rgb(255,253,255)" offset="0"/>
   <stop style="stop-color:rgb(255,255,255);stop-opacity:0" offset="1"/>
  </linearGradient>
  <linearGradient id="a" x1="89.2" x2="147" y1="14.9" y2="116" gradientUnits="userSpaceOnUse">
   <stop style="stop-color:rgb(255,255,255)" offset="0"/>
   <stop style="stop-color:rgb(255,255,255);stop-opacity:0" offset="1"/>
  </linearGradient>
  <filter id="j" x="-.021" y="-.0281" width="1.04" height="1.06" color-interpolation-filters="sRGB">
   <feGaussianBlur stdDeviation="8.0485938"/>
  </filter>
  <radialGradient id="f" cx="-10.8" cy="131" r="129" gradientTransform="matrix(3.62 3.75 -2.98 2.87 629 -298)" gradientUnits="userSpaceOnUse" xlink:href="#c"/>
  <linearGradient id="i" x1="163" x2="208" y1="5.97" y2="51.4" gradientTransform="matrix(1.88 0 0 1.87 56.7 -28.3)" gradientUnits="userSpaceOnUse" xlink:href="#b"/>
  <linearGradient id="h" x1="91.3" x2="146" y1="31" y2="83" gradientTransform="matrix(1.88 0 0 1.87 56.7 -28.3)" gradientUnits="userSpaceOnUse" xlink:href="#a"/>
  <linearGradient id="g" x1="32.7" x2="14.3" y1="64.2" y2="44" gradientTransform="matrix(1.88 0 0 1.87 56.7 -28.3)" gradientUnits="userSpaceOnUse" xlink:href="#d"/>
  <radialGradient id="e" cx="293" cy="615" r="461" gradientTransform="matrix(.637 1.21 -1.44 .757 1104 -313)" gradientUnits="userSpaceOnUse">
   <stop style="stop-color:rgb(0,0,0);stop-opacity:0" offset="0"/>
   <stop style="stop-color:rgb(255,255,255);stop-opacity:0" offset=".633"/>
   <stop style="stop-color:rgb(0,0,0);stop-opacity:.392" offset=".698"/>
   <stop style="stop-color:rgb(0,0,0)" offset="1"/>
  </radialGradient>
 </defs>
 <path class="fil5" d="m373 11.7c11.6 0.0301 23.9 0.45 35.9 1.32 28.3 2.07 54.3 6.66 65.7 14.7 6.04 5.49 10.3 16.4 12.4 29.2 1.9 11.8 1.88 24.9-0.38 37.2-2.2 11.9-6.5 22.7-13.1 30.2-4.51 5.06-10.2 8.57-17.1 9.7-15.2 2.45-24.1-12.5-36.2-33.1-10.9-18.4-24.2-40.7-46.9-60.6-9.02-6.48-16.9 0.124-12.1 5.42l0.0873 0.0825c23.9 19.7 37.3 42.5 48.3 61.3 14.7 24.8 25.3 42.5 48.6 39 4.79-0.769 9.12-2.33 13.1-4.53 18 33.8 28.2 72.2 28.2 113 0 66.6-27.1 127-71 171-43.7 43.6-104 70.8-171 70.8-67.1 0-127-27-171-70.8-43.7-43.6-71-104-71-171 0-16.4 1.63-32.4 4.76-47.8-1.68-8.92-2.44-18.6-2.92-25.9-0.0066-0.0676-0.0102-0.13-0.0167-0.198-2-21.2-3.36-51-1.09-76.1 1.87-20.9 6-38.2 14-43.6 0.554-0.368 1.02-0.822 1.41-1.32 2.62-3.38 17.8-13.3 41.2-19.9 11.7-3.29 25.3-5.6 40.1-5.52 3.43 0.0159 6.92 0.162 10.5 0.446 21 1.67 43.3 19.3 58.9 41.1 6.39 8.92 11.6 18.4 15 27.7 3.31 9.03 4.9 17.8 4.3 25.5-0.65 8.11-3.87 15-10.4 19.7-11.4 8.11-27.4 3.13-45.8-2.59-28.5-8.92-61.8-19.4-97.6 7.47l3.76e-4 9e-3c-8.95 6.27-2.56 15.4 2.75 13.5 33.5-27.7 64.6-17.9 91.2-9.6 21.3 6.66 40.1 12.5 56.1 0.91 9.66-6.87 14.4-16.9 15.3-28.4 0.76-9.46-1.13-19.9-5.01-30.5-3.8-10.4-9.48-20.9-16.5-30.6-9.55-13.3-21.6-25.2-34.6-33.6 30.6-13.9 64.6-21.7 100-21.7 18 0 35.5 1.98 52.5 5.7 7.14-3.07 16.8-4.14 25.1-5.31l0.0937-0.0298c9.55-0.843 20.9-1.37 33.1-1.45 1.64-0.0112 3.29-0.0208 4.97-0.0167z" style="fill:url(#f);stroke-width:.38"/>
 <path class="fil6" d="m366 13.8c54.7 0 99.4 16.9 99.4 37.5 0 16-26.3 29.7-63.2 35.1-5.43-30-42.6-55.2-93.7-65.9 16.3-4.43 36.2-7.05 57.9-7.05z" style="fill:url(#i);stroke-width:.38"/>
 <path class="fil7" d="m253 15.3c82.7 0 149 35.3 149 79 0 43.6-67.1 79-149 79-25.6 0-49.7-3.4-70.7-9.39 0.742-0.137 1.48-0.299 2.23-0.489 5.4-1.4 10.8-4.29 16-9.56 4.72-5.52 8.13-11.5 9.87-18.2 1.74-6.62 1.84-13.9-0.0259-21.9-1.8-7.69-4.3-15-7.38-22-3.09-7.01-6.75-13.7-10.9-20.2-4.97-7.4-10.3-14.2-16.3-20.4-6-6.16-12.7-11.7-20.5-16.5 26.2-12 60.4-19.3 98-19.3z" style="fill:url(#h);stroke-width:.38"/>
 <path class="fil9" d="m370-4.4e-8c-27.1 0.0282-51.5 2.1-62.1 5.31-0.625 0.182-1.2 0.46-1.71 0.807-16.4-3.31-33.4-5.06-50.8-5.06-40.8 0-79.5 9.56-114 26.6-6.6-2.85-13.3-4.67-20-5.21-20.6-1.64-39.4 1.11-55 5.49-24.5 6.87-41.9 18.3-46.5 23.2-11 8.04-16.4 28.3-18.5 52.1-3.22 35.8 0.621 80.4 3.55 98.5 0.0962 0.722 0.327 1.42 0.682 2.06-3.33 16.3-5.08 33.3-5.08 50.6 0 69.8 28.5 133 74.6 179 46.2 45.7 110 74 180 74 70.3 0 134-28.3 180-74 46.2-45.7 74.6-109 74.6-179 0-43.6-11.1-84.6-30.6-120 0.515-0.524 1.02-1.06 1.51-1.62 8.2-9.21 13.4-22.1 15.9-35.8 2.51-13.5 2.54-28.1 0.43-41.1-2.51-15.5-8.13-28.9-16.4-36.1-0.186-0.174-0.383-0.343-0.596-0.496-13.3-9.6-41.9-14.8-72.1-17.1-12.5-0.914-25.4-1.33-37.6-1.32zm1.13 11.9c11.6 0.0301 23.9 0.45 35.9 1.32 28.3 2.07 54.3 6.66 66 14.7 6.04 5.49 10.3 16.4 12.4 29.2 1.9 11.7 1.88 24.9-0.38 37.2-2.2 11.9-6.5 22.7-13.1 30.2-4.51 5.06-10.2 8.57-17.1 9.67-15.2 2.44-24.1-12.4-36.2-33.1-10.9-18.3-24.2-40.7-46.9-60.6-9.02-6.48-16.9 0.124-12.1 5.42l0.0873 0.0822c23.9 19.7 37.3 42.5 48.6 61.3 14.7 24.7 25.3 42.5 48.6 39 4.79-0.769 9.12-2.32 13.1-4.53 18 33.7 28.2 72.2 28.2 113 0 66.6-27.1 127-71 171-44 43.6-104 70.5-171 70.5s-127-27-171-70.5c-44-43.6-71-104-71-171 0-16.4 1.64-32.4 4.76-47.8-1.68-8.89-2.44-18.5-2.92-25.9-0.0066-0.0676-0.0102-0.13-0.0167-0.198-2.01-21.1-3.36-51-1.09-76.1 1.87-20.9 6-38.2 14-43.6 0.554-0.368 1.02-0.822 1.41-1.32 2.62-3.37 17.8-13.3 41.2-19.8 11.7-3.29 25.3-5.6 40.1-5.52 3.43 0.0159 6.92 0.162 10.5 0.446 21 1.67 43.3 19.3 58.9 40.7 6.43 8.89 11.6 18.4 15 27.6 3.31 9.03 4.9 17.8 4.3 25.5-0.65 8.07-3.87 15-10.4 19.6-11.4 8.11-27.4 3.13-45.8-2.59-28.5-8.92-62.1-19.3-97.6 7.47l3.77e-4 9e-3c-8.95 6.27-2.56 15.4 2.75 13.5 33.5-27.6 65-17.8 91.2-9.56 21.3 6.66 40.1 12.5 56.1 0.907 9.66-6.87 14.4-16.9 15.3-28.4 0.76-9.42-1.13-19.9-5.01-30.5-3.8-10.3-9.48-20.8-16.5-30.5-9.55-13.2-21.6-25.2-34.6-33.6 30.6-13.9 64.6-21.6 100-21.6 18 0 35.5 1.97 52.5 5.7 7.17-3.06 16.8-4.14 25.2-5.31l0.0937-0.0298c9.55-0.843 20.9-1.37 33.1-1.45 1.64-0.0112 3.29-0.0208 4.97-0.0167zm25.9 129c-23.4 0-42.6 18.9-42.6 42.1 0 23.3 19 42.1 42.6 42.1 23.6 0 42.6-18.9 42.6-42.1 0-23.3-19-42.1-42.6-42.1zm-265 30.8c-45.8 0-83.1 36.8-83.1 82.5 0 45.7 37.3 82.5 83.1 82.5 45.8 0 83.1-36.8 83.1-82.5 0-45.7-37.3-82.5-83.1-82.5zm22.9 43.2c21 1.9e-4 38 17 38 37.9 0 20.9-17 37.9-38 37.9s-38-17-38-37.9c0-20.9 17-37.9 38-37.9zm211 32.9c-1.04 0-2.04 0.196-2.97 0.528l-118 34.3c-0.232 0.0574-0.454 0.123-0.682 0.198l-0.033 0.017-0.0664 0.017-0.017 0.017c-3.41 1.2-5.86 4.43-5.86 8.22 0 3.61 2.21 6.73 5.36 8.04 0.0206 9e-3 0.0458 7e-3 0.0664 0.017l72.8 40.7v0.313c0 12.6-5.61 24-14.7 32.3-9.23 8.43-22.1 13.7-36.2 13.7-8.98 0-17.6-2.08-25.1-5.88-7.31-3.72-13.6-9.1-18.2-15.8-0.0621-0.101-0.132-0.199-0.199-0.297-1.43-2.1-3.87-3.5-6.6-3.5-4.4 0-7.95 3.54-7.95 7.93 0 1.76 0.586 3.37 1.56 4.67 6.11 8.89 14.5 16.1 24.2 21 9.76 4.96 20.8 7.72 32.3 7.72 18.3 0 35-6.84 47.2-17.9 8.77-8.04 15.2-18.2 18.1-29.7 11.9 9.77 27.5 15.7 44.4 15.7 18.3 0 35-6.84 47.2-17.9 12.2-11.2 19.8-26.7 19.8-43.9 0-0.726-0.0177-1.61-0.066-2.57 9.2e-4 -0.0499 0-0.0985 0-0.148 0-4.36-3.55-7.93-7.95-7.93s-7.95 3.54-7.95 7.93c0 0.0687-2e-3 0.146 0 0.214 4e-3 0.123 0.0249 0.241 0.032 0.365 0.0284 0.581 0.032 1.28 0.032 2.15 0 12.6-5.61 24-14.7 32.3-9.23 8.43-22.1 13.7-36.2 13.7-13.7 0-26.1-4.82-35.3-12.7-1.89-1.63-3.66-3.39-5.25-5.28l39.1-75.4c0.753-1.29 1.19-2.79 1.19-4.39 0-4.82-3.94-8.75-8.8-8.75z" style="stroke-width:.38"/>
 <ellipse class="fil10" cx="98.3" cy="77.4" rx="71.7" ry="37.9" style="fill:url(#g);stroke-width:.38"/>
 <path class="fil12" d="m164 163c9.8 3.5 21.1 6.91 28.5 6.91 20 0.0637 27.6-13.8 27.6-30.6 5e-3 -9.53-6.39-28.5-11-34.7l-0.222 1.63c2.17 7.93 3.11 15.7 2.54 22.8-0.927 11.5-5.68 21.5-15.3 28.4-9.8 7.01-20.5 7.65-32.1 5.6z" style="fill-opacity:.392;fill:#141414;stroke-width:.38"/>
 <path class="fil12" d="m448 146c2.77 2.07 5.5 3.72 8.27 4.57 7.49 2.31 13.8 2.45 19.1 0.935-1.65-3.5-3.39-6.94-5.18-10.4-3.94 2.2-8.27 3.75-13.1 4.53-3.27 0.524-6.28 0.623-9.09 0.34z" style="fill-opacity:.392;fill:#141414;stroke-width:.38"/>
 <path transform="matrix(.529 0 0 .528 43.6 -17.5)" d="m807 286c3.14 21.8 4.78 44 4.78 66.7 0 256-208 463-463 463-174 0-326-96.1-405-238 32.4 224 225 396 458 396 256 0 463-207 463-463 0-81.6-21.2-158-58.3-225z" style="fill-rule:evenodd;fill:url(#e);filter:url(#j);stroke-width:.0795"/>
</svg>
