<?xml version="1.0" encoding="UTF-8"?>
<svg width="512" height="512" version="1.1" viewBox="0 0 512 512" xmlns="http://www.w3.org/2000/svg">
 <rect width="512" height="512" fill="#fff"/>
 <rect x="93" y="101" width="326" height="197" style="fill:none;stroke-width:30;stroke:#000"/>
 <path d="m55.4 347h31.2c38.6 0 36.4 47.6 0 47.6h-12.4v25.3h-18.8zm18.8 13.6v20.4h10.4c15.9-0.284 14.9-20 0-20.4zm53.1 38v-33.4h17.6c0 138-0.0976-102-0.0976 25.6-0.0844 6.93-0.892 16.8 8.3 17.3 7.05 0 11.7-5.54 11.7-15.9v-27h17.5v54.7h-17.5v-7.91c-2.64 3.19-5.44 5.55-8.4 7.08-7.48 3.82-29.1 5.89-29.1-20.5zm112-18.5c-7.56-3.54-23.1-4.69-23.1 14.6v25.2h-17.5v-54.7h17.5v8.98c6.63-10.6 15.3-10.9 23.1-9.91zm63.3 17.3h-40.9c1.91 18.5 25.5 12.6 38.3 5.71v13.5c-8.64 3.27-33.7 10.2-47.9-2.78-11-10.2-11.1-31.8-0.146-42.2 10.1-9.58 31.7-11.2 42.9 0.0976 7.24 6.84 7.76 16.5 7.76 25.7zm-18-10.8c0-14.6-21.4-15.5-22.7 0zm65.3-27.3c-11.3 0-18.1 8.59-18.1 24.2 0 15.5 6.68 24.2 18.1 24.2 11.6 0 18.1-8.86 18.1-24.2 0-15.5-6.64-24.2-18.1-24.2zm0-13.6c23.5 0 37.5 14.2 37.5 37.8 0 23.5-13.9 37.8-37.5 37.8-23.3 0-37.5-14-37.5-37.8 0-24 14.3-37.8 37.5-37.8zm102 3.61v15.4c-13.4-6-26.7-6.89-32.5-3.56-4.13 2.38-4.17 7.96-1.07 10.4 15.4 6.79 37.1 3.97 38.3 26 0 33.4-43.3 23.6-56.9 18.6v-15.9c19.6 10.4 32 7.62 35.5 5.42 4.61-2.89 3.88-8.78 1.03-11.1-5.63-4.76-22.1-3.09-32.1-12.4-11.5-11.7-8.02-47.6 47.7-32.8z"/>
</svg>
