<?xml version="1.0" encoding="UTF-8"?>
<svg width="512" height="512" version="1.1" viewBox="0 0 512 512" xmlns="http://www.w3.org/2000/svg">
 <path d="m156 4.52c-7.72-2.97-15.2-4.01-21.9 2.05-10.3-1.34-13.7 1.43-16.2 4.66-2.27-0.0468-17-2.33-23.7 7.72-17-2-22.3 9.94-16.2 21.1-3.46 5.36-7.05 10.6 1.05 20.9-2.86 5.69-1.09 11.8 5.66 19.3-1.78 8.03 1.72 13.6 8.03 18-1.18 10.9 10 17.3 13.4 19.6 1.28 6.38 3.97 12.4 16.7 15.7 2.11 9.48 9.79 11.2 17.3 13.1-24.6 14.3-45.7 33.2-45.6 79.5l-3.61 6.44c-28.2 17.2-53.7 72.4-13.9 117 2.59 14.1 6.95 24.2 10.9 35.3 5.79 45 43.7 66.1 53.6 68.6 14.6 11.2 30.2 21.7 51.3 29.1 19.9 20.5 41.4 28.3 63 28.3 0.318 0 44.1-7.8 64-28.3 21.1-7.4 36.6-18 51.3-29.1 9.94-2.49 47.8-23.5 53.6-68.6 3.88-11.2 8.26-21.3 10.9-35.3 39.8-44.9 14.3-100-13.9-117l-3.62-6.44c0.144-46.2-20.9-65.1-45.6-79.5 7.45-2 15.1-3.63 17.3-13.1 12.8-3.33 15.5-9.33 16.7-15.7 3.35-2.27 14.5-8.64 13.4-19.6 6.28-4.4 9.79-10 8.03-18 6.74-7.47 8.49-13.6 5.66-19.3 8.1-10.2 4.5-15.5 1.05-20.9 6.06-11.2 0.713-23.2-16.2-21.1-6.74-10.1-21.4-7.8-23.7-7.72-2.55-3.23-5.9-5.99-16.2-4.66-6.69-6.05-14.1-5.02-21.9-2.05-9.17-7.23-15.2-1.44-22.2 0.757-11.1-3.62-13.6 1.34-19.1 3.36-12.1-2.55-15.7 3.01-21.6 8.87l-6.75-0.135c-18.3 10.8-27.3 32.6-30.5 43.9-3.21-11.2-12.2-33.2-30.5-43.9l-6.75 0.135c-5.81-5.88-9.48-11.5-21.6-8.87-5.45-2.03-7.95-6.99-19.1-3.36-9.17-4.47-15-6.39-22.4-0.757z"/>
 <path d="m128 48.3c48.4 25 76.5 45.2 91.7 62.4-7.87 31.7-49.1 33.1-64.1 32.2 3.08-1.44 5.66-3.16 6.57-5.79-3.78-2.68-17.2-0.284-26.5-5.54 3.59-0.746 5.28-1.47 6.96-4.12-8.87-2.82-18.3-5.25-23.9-9.94 3.02 0.0375 5.84 0.677 9.79-2.06-7.95-4.27-16.4-7.65-22.9-14.1 4.09-0.1 8.49-0.0405 9.79-1.54-7.25-4.49-13.4-9.48-18.4-14.9 5.73 0.691 8.18 0.0963 9.56-0.902-5.48-5.61-12.4-10.3-15.7-17.3 4.25 1.47 8.18 2.03 10.9-0.128-1.86-4.2-9.86-6.67-14.4-16.5 4.48 0.435 9.25 0.979 10.2 0-2.08-8.49-5.64-13.2-9.17-18.2 9.56-0.142 24.1 0.0375 23.5-0.772l-5.92-6.05c9.33-2.52 19 0.404 25.9 2.58 3.12-2.46-0.0558-5.58-3.87-8.79 7.95 1.06 15.1 2.89 21.6 5.41 3.47-3.13-2.26-6.27-5.02-9.4 12.3 2.33 17.5 5.61 22.7 8.87 3.75-3.6 0.216-6.66-2.32-9.79 9.25 3.43 14.1 7.87 19 12.2 1.7-2.3 4.33-3.98 1.16-9.56 6.58 3.79 11.5 8.26 15.2 13.3 4.07-2.59 2.42-6.14 2.45-9.4 6.84 5.57 11.2 11.5 16.5 17.3 1.07-0.78 2-3.42 2.84-7.6 16.3 15.8 39.4 55.7 5.92 71.5-28.4-23.5-62.5-40.5-100-53.4l0.0107-0.0062m257 0c-48.4 25-76.5 45.2-91.7 62.4 7.87 31.7 49.1 33.1 64.1 32.2-3.08-1.44-5.66-3.16-6.57-5.79 3.78-2.68 17.2-0.284 26.5-5.54-3.59-0.746-5.28-1.47-6.96-4.12 8.87-2.82 18.3-5.25 23.9-9.94-3.02 0.0375-5.84 0.677-9.79-2.06 7.95-4.27 16.4-7.65 22.9-14.1-4.1-0.1-8.49-0.0405-9.79-1.54 7.25-4.49 13.4-9.48 18.4-14.9-5.73 0.691-8.18 0.0963-9.56-0.902 5.47-5.61 12.4-10.3 15.7-17.3-4.25 1.47-8.18 2.03-10.9-0.128 1.86-4.2 9.86-6.67 14.4-16.5-4.48 0.435-9.25 0.979-10.2 0 2.08-8.49 5.65-13.2 9.17-18.2-9.56-0.142-24.1 0.0375-23.5-0.772l5.92-6.05c-9.33-2.52-19 0.406-25.9 2.58-3.12-2.46 0.0543-5.58 3.86-8.79-7.95 1.06-15.1 2.89-21.6 5.41-3.47-3.13 2.26-6.27 5.02-9.4-12.3 2.33-17.5 5.61-22.7 8.87-3.75-3.6-0.214-6.66 2.32-9.79-9.25 3.43-14.1 7.87-19 12.2-1.7-2.3-4.33-3.98-1.16-9.56-6.58 3.79-11.5 8.26-15.2 13.3-4.07-2.59-2.42-6.14-2.45-9.4-6.84 5.57-11.2 11.5-16.5 17.3-1.07-0.78-2-3.42-2.84-7.6-16.3 15.8-39.4 55.7-5.92 71.5 28.4-23.5 62.5-40.5 100-53.4h-6e-3" fill="#75a928"/>
 <path d="m316 371c0.168 29.5-25.7 53.6-57.7 53.7-32 0.156-58.1-23.7-58.3-53.2a33.9 33.9 0 0 1 0-0.563c-0.168-29.5 25.7-53.6 57.7-53.7 32-0.156 58.1 23.7 58.3 53.2v0.563m-91.7-153c24 15.7 28.4 51.5 9.71 79.5-18.7 28.3-53.3 38.5-77.2 22.7-24-15.7-28.4-51.5-9.71-79.5 18.7-28.3 53.3-38.5 77.2-22.7m64.8-2.85c-24 15.7-28.4 51.5-9.71 79.5 18.7 28.3 53.3 38.5 77.2 22.7 24-15.7 28.4-51.5 9.71-79.5-18.7-28.3-53.3-38.5-77.2-22.7m-185 28.6c25.9-6.96 8.79 107-12.4 97.9-23.2-18.7-30.7-73.4 12.4-97.9m300-1.42c-25.9-6.96-8.79 107 12.4 97.9 23.2-18.7 30.7-73.4-12.4-97.9m-87.9-84.9c44.8-7.56 81.8 19 80.3 67.6-1.48 18.6-97.1-64.8-80.3-67.6m-124-1.42c-44.8-7.56-81.8 19-80.3 67.6 1.48 18.6 97.1-64.8 80.3-67.6m64.3-11.3c-26.8-0.696-52.4 19.8-52.4 31.7-0.0734 14.4 21.1 29.3 52.6 29.7 32.2 0.229 52.7-11.8 52.8-26.8 0.118-16.9-29.3-34.9-53-34.6v2e-3m1.63 297c23.3-1.02 54.6 7.51 54.7 18.8 0.387 11-28.4 35.8-56.2 35.3-28.8 1.25-57-23.6-56.7-32.2-0.432-12.6 35.1-22.5 58.3-21.9m-86.4-67c16.6 20 24.2 55.1 10.3 65.4-13.1 7.87-44.9 4.65-67.5-27.8-15.2-27.2-13.3-55-2.58-63.1 16-9.79 40.7 3.42 59.8 25.5h-2e-3m169-6.34c-18 21-28 59.4-14.8 71.7 12.5 9.63 46.1 8.26 70.9-26.2 18-23.2 12-61.8 1.69-72-15.3-11.8-37.2 3.31-57.8 26.5v6e-3" fill="#bc1142"/>
</svg>
