<?xml version="1.0" encoding="UTF-8"?>
<svg width="512" height="512" version="1.1" viewBox="0 0 512 512" xmlns="http://www.w3.org/2000/svg">
 <path d="m296 270c-8.45 0.118 1.6 4.35 12.6 6.05a113 113 0 0 0 8.28-7.13c-6.87 1.68-13.9 1.72-20.9 1.08m45.4-11.3c5.03-6.95 8.7-14.6 9.99-22.4-1.13 5.61-4.17 10.4-7.04 15.6-15.8 9.95-1.49-5.91-9e-3 -11.9-17 21.4-2.33 12.8-2.95 18.8m16.7-43.6c1.02-15.2-3-10.4-4.35-4.6 1.58 0.818 2.82 10.7 4.35 4.6m-94.1-208c4.51 0.809 9.74 1.43 9.01 2.51 4.94-1.08 6.05-2.08-9.01-2.51m9.01 2.51-3.19 0.658 2.97-0.263 0.221-0.395" fill="#a80030"/>
 <path d="m414 221c0.503 13.7-4 20.3-8.06 32l-7.3 3.65c-5.97 11.6 0.578 7.37-3.7 16.6-9.33 8.3-28.3 26-34.4 27.6-4.43-0.0988 3.01-5.23 3.98-7.25-12.5 8.58-10 12.9-29.1 18.1l-0.56-1.24c-47.1 22.2-113-21.8-112-81.7-0.508 3.8-1.43 2.85-2.48 4.39-2.43-30.8 14.2-61.8 42.4-74.5 27.5-13.6 59.7-8.03 79.4 10.3-10.8-14.2-32.4-29.2-57.9-27.8-25 0.395-48.4 16.3-56.2 33.5-12.8 8.07-14.3 31.1-19.9 35.3-7.51 55.2 14.1 79 50.7 107 5.76 3.88 1.62 4.47 2.4 7.43-12.2-5.69-23.3-14.3-32.4-24.8 4.85 7.11 10.1 14 16.9 19.5-11.5-3.88-26.8-27.8-31.3-28.8 19.8 35.4 80.2 62.1 112 48.8-14.6 0.541-33.2 0.301-49.7-5.78-6.91-3.56-16.3-10.9-14.6-12.3 43.2 16.1 87.8 12.2 125-17.7 9.5-7.4 19.9-20 22.9-20.2-4.51 6.8 0.771 3.27-2.7 9.27 9.47-15.3-4.11-6.22 9.79-26.4l5.14 7.07c-1.91-12.7 15.7-28.1 14-48.1 4.05-6.13 4.52 6.6 0.221 20.7 5.96-15.7 1.57-18.2 3.1-31.1 1.66 4.34 3.83 8.95 4.94 13.5-3.88-15.1 3.99-25.5 5.93-34.3-1.92-0.851-6 6.69-6.93-11.2 0.141-7.76 2.16-4.07 2.94-5.98-1.52-0.875-5.52-6.82-7.95-18.2 1.76-2.68 4.71 6.95 7.11 7.35-1.54-9.07-4.2-16-4.31-22.9-7.01-14.6-2.48 1.95-8.16-6.29-7.46-23.3 6.19-5.4 7.11-16 11.3 16.4 17.8 41.8 20.7 52.3-2.26-12.8-5.91-25.2-10.4-37.3 3.43 1.44-5.53-26.4 4.47-7.95-10.7-39.3-45.7-76-77.9-93.2 3.94 3.61 8.92 8.14 7.13 8.85-16-9.54-13.2-10.3-15.5-14.3-13-5.31-13.9 0.428-22.5 0.0094-24.6-13-29.3-11.7-52-19.8l1.03 4.81c-16.3-5.43-19 2.06-36.6 0.0188-1.07-0.837 5.64-3.03 11.2-3.83-15.8 2.08-15-3.1-30.4 0.574 3.8-2.67 7.81-4.43 11.9-6.7-12.8 0.781-30.7 7.48-25.2 1.39-21 9.35-58.2 22.5-79.1 42.1l-0.658-4.39c-9.57 11.5-41.7 34.3-44.3 49.2l-2.56 0.597c-4.98 8.43-8.2 18-12.2 26.7-6.51 11.1-9.55 4.27-8.62 6.01-12.8 26-19.2 47.8-24.7 65.7 3.92 5.85 0.094 35.2 1.58 58.8-6.43 116 81.5 229 178 255 14.1 5.04 35.1 4.85 52.9 5.37-21-6.01-23.7-3.19-44.2-10.3-14.8-6.96-18-14.9-28.5-24l4.14 7.32c-20.5-7.27-11.9-8.99-28.6-14.3l4.42-5.78c-6.65-0.503-17.6-11.2-20.6-17.1l-7.28 0.287c-8.75-10.8-13.4-18.6-13.1-24.6l-2.35 4.19c-2.67-4.58-32.2-40.5-16.9-32.1-2.85-2.6-6.63-4.23-10.7-11.7l3.11-3.56c-7.37-9.48-13.6-21.6-13.1-25.7 3.93 5.31 6.66 6.3 9.36 7.21-18.6-46.2-19.7-2.54-33.7-47l2.98-0.24c-2.29-3.44-3.67-7.18-5.51-10.8l1.3-12.9c-13.4-15.5-3.75-65.9-1.82-93.5 1.34-11.2 11.2-23.2 18.7-41.9l-4.56-0.785c8.72-15.2 49.8-61.1 68.8-58.7 9.22-11.6-1.83-0.0423-3.63-2.96 20.2-20.9 26.6-14.8 40.3-18.6 14.7-8.74-12.6 3.41-5.66-3.33 25.5-6.5 18-14.8 51.3-18.1 3.5 1.99-8.13 3.08-11.1 5.67 21.2-10.4 67.1-8.02 97 5.76 34.6 16.2 73.5 64 75 109l1.74 0.47c-0.884 17.9 2.74 38.6-3.54 57.6l4.27-8.99" fill="#a80030"/>
 <path d="m204 282-1.19 5.93c5.55 7.54 9.96 15.7 17.1 21.6-5.1-9.96-8.89-14.1-15.9-27.5m13.1-0.517c-2.94-3.25-4.68-7.16-6.63-11.1 1.86 6.85 5.68 12.7 9.23 18.7l-2.6-7.67m232-50.5-1.24 3.11a150 150 0 0 1-14.7 47 148 148 0 0 0 16-50.1m-184-228c5.7-2.09 14-1.15 20.1-2.53-7.9 0.663-15.8 1.06-23.5 2.06l3.42 0.466m-201 107c1.32 12.2-9.17 16.9 2.32 8.88 6.16-13.9-2.41-3.83-2.32-8.88m-13.5 56.4c2.65-8.13 3.13-13 4.14-17.7-7.32 9.35-3.37 11.3-4.14 17.7" fill="#a80030"/>
 <path d="m250 73.8c-0.283-0.151-4.41-2.28-7.54 1.6-3.94-1.52-7.76-2.05-11.2 1.05-5.28-0.685-6.99 0.728-8.29 2.38-1.16-0.0239-8.67-1.19-12.1 3.95-8.66-1.02-11.4 5.09-8.29 10.8-1.77 2.74-3.6 5.44 0.534 10.7-1.46 2.91-0.555 6.06 2.89 9.87-0.908 4.09 0.878 6.97 4.08 9.21-0.6 5.59 5.13 8.84 6.84 10 0.657 3.26 2.02 6.33 8.57 8.03 1.08 4.85 5.01 5.69 8.82 6.71-12.6 7.31-23.4 16.9-23.3 40.5l-1.84 3.29c-14.4 8.77-27.4 37-7.11 59.9 1.33 7.17 3.55 12.3 5.53 18 2.96 23 22.3 33.7 27.4 35 7.47 5.69 15.4 11.1 26.2 14.9 10.1 10.5 21.1 14.5 32.2 14.4 0.163 0 22.5-3.98 32.7-14.4 10.8-3.78 18.7-9.18 26.2-14.9 5.1-1.27 24.4-12 27.4-35 1.98-5.7 4.2-10.9 5.53-18 20.3-22.9 7.32-51.1-7.11-59.9l-1.85-3.29c0.0733-23.6-10.7-33.2-23.3-40.5 3.81-1.02 7.74-1.86 8.82-6.71 6.54-1.7 7.91-4.77 8.57-8.03 1.71-1.16 7.44-4.41 6.84-10 3.2-2.25 4.99-5.13 4.08-9.21 3.45-3.81 4.35-6.97 2.89-9.87 4.14-5.21 2.3-7.92 0.535-10.7 3.1-5.7 0.364-11.8-8.29-10.8-3.44-5.14-11-3.97-12.1-3.95-1.3-1.65-3.01-3.06-8.29-2.38-3.42-3.09-7.24-2.57-11.2-1.05-4.68-3.69-7.78-0.733-11.3 0.386-5.67-1.85-6.96 0.685-9.75 1.72-6.18-1.31-8.06 1.54-11 4.54l-3.45-0.0685c-9.32 5.49-14 16.7-15.6 22.4-1.64-5.75-6.26-16.9-15.6-22.4l-3.45 0.0685c-2.97-3-4.84-5.84-11-4.54-2.79-1.03-4.08-3.57-9.75-1.72"/>
 <path d="m228 97.7c24.7 12.8 39.1 23.1 47 31.9-4.03 16.2-25.1 16.9-32.8 16.5 1.58-0.733 2.89-1.61 3.36-2.96-1.93-1.37-8.78-0.145-13.6-2.83 1.84-0.381 2.7-0.751 3.55-2.11-4.52-1.44-9.38-2.68-12.2-5.07 1.54 0.0191 2.99 0.346 5-1.05-4.04-2.18-8.36-3.91-11.7-7.24 2.09-0.051 4.35-0.0207 5-0.79-3.7-2.29-6.83-4.84-9.41-7.63 2.93 0.353 4.16 0.0494 4.87-0.461-2.8-2.87-6.34-5.29-8.03-8.82 2.17 0.749 4.16 1.04 5.59-0.0653-0.951-2.15-5.02-3.41-7.37-8.42 2.29 0.222 4.71 0.499 5.2 0-1.06-4.33-2.88-6.76-4.67-9.28 4.9-0.0725 12.3 0.0191 12-0.394l-3.03-3.09c4.78-1.29 9.68 0.206 13.2 1.32 1.59-1.26-0.0287-2.85-1.97-4.47 4.06 0.543 7.74 1.48 11.1 2.76 1.77-1.6-1.15-3.2-2.57-4.8 6.28 1.19 8.94 2.86 11.6 4.54 1.92-1.84 0.11-3.4-1.18-5 4.73 1.75 7.17 4.02 9.74 6.25 0.87-1.17 2.21-2.04 0.592-4.87 3.36 1.94 5.89 4.22 7.77 6.78 2.08-1.32 1.24-3.13 1.25-4.8 3.49 2.84 5.71 5.87 8.42 8.82 0.547-0.398 1.02-1.75 1.45-3.88 8.33 8.08 20.1 28.4 3.03 36.5-14.5-12-31.9-20.7-51.1-27.2l6e-3 -0.0031m131 0c-24.7 12.8-39.1 23.1-47 31.9 4.03 16.2 25.1 16.9 32.8 16.5-1.58-0.733-2.89-1.61-3.36-2.96 1.93-1.37 8.78-0.145 13.6-2.83-1.84-0.381-2.69-0.751-3.55-2.11 4.52-1.44 9.38-2.68 12.2-5.07-1.54 0.0191-2.99 0.346-5-1.05 4.05-2.18 8.36-3.91 11.7-7.24-2.09-0.051-4.35-0.0207-5-0.79 3.7-2.29 6.83-4.84 9.41-7.63-2.93 0.353-4.16 0.0494-4.87-0.461 2.8-2.87 6.34-5.29 8.03-8.82-2.17 0.749-4.16 1.04-5.59-0.0653 0.951-2.15 5.03-3.41 7.37-8.42-2.29 0.222-4.71 0.499-5.2 0 1.06-4.33 2.89-6.76 4.67-9.28-4.9-0.0725-12.3 0.0191-12-0.394l3.03-3.09c-4.78-1.29-9.68 0.207-13.2 1.32-1.59-1.26 0.0279-2.85 1.97-4.47-4.06 0.542-7.74 1.48-11.1 2.76-1.77-1.6 1.15-3.2 2.57-4.8-6.28 1.19-8.94 2.86-11.6 4.54-1.92-1.84-0.109-3.4 1.18-5-4.73 1.75-7.17 4.02-9.74 6.25-0.871-1.17-2.21-2.04-0.593-4.87-3.36 1.94-5.89 4.22-7.76 6.78-2.08-1.32-1.24-3.14-1.25-4.8-3.49 2.84-5.71 5.87-8.42 8.82-0.547-0.398-1.02-1.75-1.45-3.88-8.33 8.09-20.1 28.4-3.03 36.5 14.5-12 31.9-20.7 51.1-27.2h-3e-3" fill="#75a928"/>
 <path d="m324 262c0.0861 15.1-13.1 27.4-29.5 27.5-16.4 0.0797-29.7-12.1-29.8-27.2a17.3 17.3 0 0 1 0-0.288c-0.0861-15.1 13.1-27.4 29.5-27.5 16.4-0.0797 29.7 12.1 29.8 27.2v0.288m-46.8-78c12.3 8.04 14.5 26.3 4.94 40.7-9.55 14.4-27.2 19.6-39.5 11.6-12.3-8.04-14.5-26.3-4.94-40.7 9.55-14.4 27.2-19.6 39.5-11.6m33.1-1.46c-12.3 8.04-14.5 26.3-4.94 40.7 9.55 14.4 27.2 19.6 39.5 11.6 12.3-8.04 14.5-26.3 4.94-40.7-9.55-14.4-27.2-19.6-39.5-11.6m-94.5 14.6c13.3-3.55 4.47 54.8-6.31 50-11.9-9.54-15.7-37.5 6.31-50m153-0.728c-13.3-3.55-4.47 54.8 6.31 50 11.9-9.54 15.7-37.5-6.31-50m-45-43.5c22.9-3.86 41.9 9.73 41.1 34.5-0.752 9.51-49.6-33.1-41.1-34.5m-63.2-0.728c-22.9-3.86-41.9 9.73-41.1 34.5 0.752 9.51 49.6-33.1 41.1-34.5m32.9-5.78c-13.7-0.355-26.8 10.1-26.8 16.2-0.0374 7.39 10.8 15 26.9 15.1 16.4 0.117 26.9-6.06 27-13.7 0.0606-8.64-14.9-17.8-27.1-17.7v8e-4m0.834 152c11.9-0.52 27.9 3.83 27.9 9.61 0.198 5.61-14.5 18.3-28.7 18-14.7 0.635-29.1-12.1-29-16.5-0.221-6.45 17.9-11.5 29.7-11.2m-44-34.2c8.47 10.2 12.3 28.1 5.27 33.4-6.69 4.04-22.9 2.37-34.5-14.2-7.79-13.9-6.78-28.1-1.32-32.2 8.18-4.98 20.8 1.75 30.5 13h-8e-4m86.2-3.24c-9.17 10.7-14.3 30.3-7.59 36.6 6.4 4.9 23.6 4.22 36.2-13.4 9.21-11.8 6.12-31.6 0.863-36.8-7.81-6.04-19 1.69-29.5 13.5v3e-3" fill="#bc1142"/>
</svg>
