<svg xmlns="http://www.w3.org/2000/svg" width="571" height="571" viewBox="0 0 151.043 151.043"><path d="M113.28 140.924H37.76L.001 75.52l37.76-65.4h75.52l37.76 65.402z" fill="#00222b" stroke="#aef" stroke-opacity="0"/><path d="M40.688 15.2L24.914 42.5l15.588 9L51.08 33.188h21.147v-18zm38.127 0v18h21.147l10.578 18.3 15.588-9-15.774-27.32zm50.608 33.027l-15.588 9 10.57 18.305-10.578 18.322 15.588 9 15.774-27.32zm-107.804 0L5.855 75.522l15.774 27.32 15.587-9L26.638 75.52l10.57-18.305zM40.5 99.55l-15.588 9 15.765 27.305h31.538v-18H51.08zm70.02 0l-10.57 18.305H78.816v18h31.54l15.764-27.305z" fill="#006680"/><path d="M54.256 38.688l-9 15.57 13.457 7.77 4.505-7.802h9v-15.54zm24.56 0v15.54h9l4.505 7.802 13.457-7.77-9-15.57zM41.97 59.966L33 75.52l9 15.57 13.457-7.77-4.505-7.802 4.495-7.785zm67.1 0l-13.457 7.77 4.495 7.785-4.505 7.802 13.457 7.77 9-15.57zM58.732 89.03L45.275 96.8l8.98 15.556h17.97v-15.54h-9zm33.578 0l-4.495 7.785h-9v15.54h17.97l8.98-15.556z" fill="#08a"/><path d="M84.45 90.986H66.592l-8.93-15.465 8.93-15.465H84.45l8.93 15.465z" fill="#00aad4"/></svg>