<?xml version="1.0" encoding="UTF-8"?>
<svg width="512" height="512" version="1.1" viewBox="0 0 512 512" xmlns="http://www.w3.org/2000/svg">
 <path d="m384 477h-255l-127-221 127-221h255l127 221z" fill="#00222b"/>
 <path d="m139 50.8-53.4 92.3 52.6 30.4 35.7-61.8h71.3v-60.7zm129 0v60.7h71.3l35.7 61.8 52.6-30.4-53.4-92.3zm171 111-52.6 30.4 35.7 61.8-35.7 61.8 52.6 30.4 53.4-92.3zm-364 0-53.4 92.3 53.4 92.3 52.6-30.4-35.7-61.8 35.7-61.8zm63.7 173-52.6 30.4 53.4 92.3h106v-60.7h-71.3zm236 0-35.7 61.8h-71.3v60.7h106l53.4-92.3z" fill="#006680"/>
 <path d="m185 130-30.4 52.6 45.4 26.2 15.2-26.4h30.4v-52.6zm82.8 0v52.6h30.4l15.2 26.4 45.4-26.2-30.4-52.6zm-124 71.7-30.3 52.6 30.4 52.6 45.4-26.2-15.2-26.4 15.2-26.3zm227 0-45.4 26.2 15.2 26.3-15.2 26.4 45.4 26.2 30.4-52.6zm-170 98-45.4 26.2 30.3 52.6h60.7v-52.6h-30.4zm113 0-15.2 26.3h-30.4v52.6h60.7l30.3-52.6z" fill="#0088aa"/>
 <path d="m287 307h-60.3l-30.2-52.3 30.2-52.3h60.3l30.2 52.3z" fill="#00aad4"/>
</svg>
