<?xml version="1.0" encoding="UTF-8"?>
<svg width="512" height="512" version="1.1" viewBox="0 0 512 512" xmlns="http://www.w3.org/2000/svg">
 <defs>
  <linearGradient id="a" x1="279" x2="347" y1="346" y2="35" gradientUnits="userSpaceOnUse">
   <stop style="stop-color:#ff513d" offset="0"/>
   <stop style="stop-color:#ffbc49" offset="1"/>
  </linearGradient>
 </defs>
 <circle cx="256" cy="256" r="255"/>
 <path d="m463 171c16.6 104-40 183-121 186-84.4 2.98-99.9-37.4-98.7-46.3 1.23-9.54 12.7-11.8 27.8-7.63 41 11.4 58.9 6.74 84.4-5.28 68.6-39.6 85.3-259-173-270 90.5-39.2 257 2.84 280 144z" fill="url(#a)"/>
 <path d="m268 186c5.4 12.1 4.71 33.2-7.19 38.9-11.6 5.6-22.8-9.05-34.1-18.1-92.6-74.7-228 193 81.6 286-162 21.1-281-83.6-263-220 20.3-153 190-161 223-87.3z" fill="#8db7ff"/>
 <path d="m495 215c19.6 98.7-41.8 247-169 244-95.4-2.16-190-77.5-183-169 2.15-27.6 13.7-44.7 27.1-54 20.2-14 41.4-8.77 45.1 2.03 3.82 10.5-5.36 20.7-8.12 32.5-17.3 73.5 54.4 123 112 127 68.2 4.51 164-42.2 176-182z" fill="#ffc84a"/>
 <path d="m365 183c9.58 84-34.8 95.4-53.6 95.4-9.26 0-11.4-5.64-7.75-18.1 20.3-69-14.7-134-108-142-152-3.52-181 150-183 165-6.9-75.9 14.8-134 51.2-175 95-108 288-42.6 301 75.1z" fill="#fe4f3c"/>
</svg>
