<?xml version="1.0" encoding="UTF-8"?>
<svg version="1.1" xmlns="http://www.w3.org/2000/svg" width="140" height="133">
<path d="M0 0 C0.86109375 0.3609375 1.7221875 0.721875 2.609375 1.09375 C17.97971857 8.15837997 29.75356393 21.03541931 35.6875 36.75 C41.41683261 53.57766244 41.37193632 70.24639485 34.1484375 86.67578125 C25.45662022 104.26636384 12.67607645 115.26821874 -5.66015625 121.97265625 C-21.38630997 126.72810358 -40.25973272 125.34418244 -54.8125 117.6875 C-56.22403161 116.81661163 -57.61959123 115.91942356 -59 115 C-59.84304687 114.46246094 -60.68609375 113.92492187 -61.5546875 113.37109375 C-66.94841219 109.79394993 -71.12646507 106.19869162 -75 101 C-75 100.34 -75 99.68 -75 99 C-75.66 99 -76.32 99 -77 99 C-80.76101728 93.98531029 -83.05074094 88.69703853 -85.25 82.875 C-85.50813477 82.194375 -85.76626953 81.51375 -86.03222656 80.8125 C-91.84391573 64.90193685 -90.00897932 46.90462989 -83.52734375 31.5 C-74.97190936 14.34867999 -60.66343423 3.34588199 -42.7109375 -2.78125 C-40.83215274 -3.29024348 -38.91460135 -3.64898975 -37 -4 C-36.36578125 -4.12117187 -35.7315625 -4.24234375 -35.078125 -4.3671875 C-23.17734919 -6.20151761 -11.03539509 -4.66639564 0 0 Z " fill="#201E1D" transform="translate(96,6)"/>
<path d="M0 0 C11.53728985 7.93677877 19.9673593 19.0954771 23.7109375 32.74609375 C25.13373113 44.50785438 24.1779447 55.65317705 17.19140625 65.54296875 C11.24203343 72.711963 4.38951494 78.46285811 -5.14453125 79.515625 C-14.69880097 79.77174179 -22.36541703 78.12361887 -29.99609375 72.16796875 C-31.99609375 69.16796875 -31.99609375 69.16796875 -31.62109375 66.98046875 C-31.41484375 66.38234375 -31.20859375 65.78421875 -30.99609375 65.16796875 C-28.22647258 64.10272984 -27.10611544 64.12983623 -24.24609375 65.12109375 C-17.64168655 67.24847491 -9.81587216 67.43810996 -3.43359375 64.48046875 C2.0593855 61.15698551 4.64781029 56.79041829 6.4609375 50.75 C8.6503093 40.33867081 6.63284753 31.34720286 1.30859375 22.28125 C-4.86714356 13.11765598 -12.98365518 7.55866927 -22.99609375 3.16796875 C-24.19234375 2.63171875 -25.38859375 2.09546875 -26.62109375 1.54296875 C-32.49271367 -0.61467471 -38.82015715 -1.09473545 -44.99609375 -1.83203125 C-33.08927641 -12.31003051 -11.97615482 -7.32309858 0 0 Z " fill="#FA8141" transform="translate(97.99609375,12.83203125)"/>
<path d="M0 0 C3.74379071 2.40803559 6.60056426 5.0190932 9.01171875 8.78515625 C9.39675361 13.17455363 9.48514141 15.07502226 7.01171875 18.78515625 C3.36211737 18.44300612 1.18361874 17.29136144 -1.73828125 15.22265625 C-5.46334907 12.82796979 -8.32033481 11.95188054 -12.75390625 12.25 C-18.10046902 13.53055787 -21.66041477 16.68956548 -24.5625 21.26953125 C-29.07152096 30.00333689 -31.23708664 40.03731891 -28.42578125 49.72314453 C-23.33772913 63.02051987 -14.08755052 71.06906123 -1.4453125 76.97265625 C3.39508431 79.01387785 8.11985324 80.40132001 13.296875 81.29296875 C13.86277344 81.45539063 14.42867187 81.6178125 15.01171875 81.78515625 C15.34171875 82.44515625 15.67171875 83.10515625 16.01171875 83.78515625 C-2.10741491 84.32334834 -18.47745322 82.11108093 -32.42578125 69.22265625 C-42.2872853 58.6451354 -45.50744597 46.74266288 -45.24609375 32.66015625 C-44.80814333 21.58808939 -40.76202331 14.00831392 -32.89453125 6.3671875 C-23.94463254 -1.58426821 -11.47610056 -4.66544742 0 0 Z " fill="#8AB3FA" transform="translate(63.98828125,40.21484375)"/>
<path d="M0 0 C0.99 0.495 0.99 0.495 2 1 C2.68525952 19.75502604 0.80907501 34.91784426 -12.3125 49.40625 C-20.86513058 57.48373444 -30.0920042 60.54593945 -41.70214844 60.48999023 C-55.20894985 59.97617869 -68.5975995 54.06215804 -77.875 44.1875 C-84.0717387 36.54584867 -87.40751075 28.40747676 -87.27734375 18.6015625 C-86.67152173 12.91878129 -84.38848915 9.20738187 -80.125 5.5 C-76.72149435 3.86631729 -74.72325007 3.49228408 -71 4 C-70.34 4.66 -69.68 5.32 -69 6 C-69.30652045 8.9425963 -69.67271154 11.34542308 -71 14 C-71.99299198 21.2400428 -71.06885886 26.63308889 -66.96484375 32.70703125 C-60.88125876 39.80656284 -52.62795999 44.307963 -43.34375 45.27734375 C-32.06750911 45.67327917 -23.6079273 42.19067757 -15 35 C-5.07334839 25.57293917 -1.50886784 13.27803696 0 0 Z " fill="#F9C448" transform="translate(129,56)"/>
<path d="M0 0 C8.11555399 6.28121644 14.91845318 13.5268388 17.28125 23.765625 C18.00967265 30.93948441 17.64055871 36.83696515 13.28125 42.765625 C11.35982381 44.92393935 9.75850208 46.14782773 7.28125 47.765625 C4.58984375 47.890625 4.58984375 47.890625 2.28125 47.765625 C2.38824219 46.47527344 2.49523437 45.18492188 2.60546875 43.85546875 C2.72746869 42.13808497 2.84851178 40.42063302 2.96875 38.703125 C3.07799805 37.43178711 3.07799805 37.43178711 3.18945312 36.13476562 C3.67827352 28.68744311 2.18081624 23.52387605 -2.65625 17.640625 C-8.2899262 11.44117363 -17.30484893 8.21864004 -25.56640625 7.52734375 C-37.17803226 7.25927462 -45.56690262 9.89173232 -54.43359375 17.5078125 C-62.67282811 25.64845773 -68.12213468 36.28358289 -69.71875 47.765625 C-70.04875 47.765625 -70.37875 47.765625 -70.71875 47.765625 C-71.38494565 31.30812511 -68.6248298 17.84805793 -57.96875 4.953125 C-42.50719126 -11.47845548 -18.42905239 -12.16317458 0 0 Z " fill="#F94D3B" transform="translate(80.71875,25.234375)"/>
<path d="M0 0 C0.66 0.33 1.32 0.66 2 1 C-3.28 6.28 -8.56 11.56 -14 17 C-14 12.95607032 -12.51908749 11.99868382 -9.8125 9.0625 C-9.03519531 8.20785156 -8.25789063 7.35320313 -7.45703125 6.47265625 C-5.09786332 4.09848566 -2.65532732 2.0327639 0 0 Z " fill="#101010" transform="translate(33,13)"/>
<path d="M0 0 C2.67927341 4.01891012 2.15601248 6.24161923 2 11 C1.34 11 0.68 11 0 11 C0 15.29 0 19.58 0 24 C-0.33 24 -0.66 24 -1 24 C-1.02712325 21.12493579 -1.04689851 18.25013092 -1.0625 15.375 C-1.07087891 14.56675781 -1.07925781 13.75851563 -1.08789062 12.92578125 C-1.1058955 8.49658082 -0.89622662 4.36116576 0 0 Z " fill="#151414" transform="translate(8,51)"/>
</svg>
