<?xml version="1.0" encoding="UTF-8"?>
<svg width="512" height="512" version="1.1" viewBox="0 0 512 512" xmlns="http://www.w3.org/2000/svg">
 <path d="m470 395c-9.87-2.27-20.2-3.67-30.8-3.67-18.1 0-34.5 3.12-46.6 8.16a4.1 4.1 0 0 0-2.29 3.64c0 0.573 0.148 1.17 0.37 1.65 1.43 4.15-0.927 8.66-12.6 11.2-17.4 3.81-28.3 21.8-34.6 27.7-7.37 7-28.1 11.3-25 7.13 2.45-3.26 11.8-13.5 17.5-24.4 5.1-9.87 9.63-12.6 15.9-22 1.84-2.76 8.95-12.4 11-20 2.33-7.46 1.53-16.8 2.43-20.7 1.28-5.56 6.53-17.6 6.92-24.4 0.228-3.86-16.1 5.49-23.8 5.49s-15.2-4.62-22.2-4.97c-8.56-0.403-14.1 6.6-21.8 5.37-4.43-0.698-8.15-4.59-15.9-4.89-11-0.403-24.4 6.11-49.7 5.31-24.8-0.805-47.8-31.4-50.9-36.2-3.66-5.72-8.15-5.72-13-1.23s-10.9 0.966-12.6-2.03c-3.25-5.71-12-22.4-25.5-25.9-18.7-4.84-28.1 10.4-26.9 22.4 1.24 12.2 9.16 15.7 12.8 22.2 3.66 6.52 5.54 10.7 12.4 13.6 4.89 2.03 6.71 5.05 5.26 9.07-1.28 3.5-6.37 4.3-9.71 4.46-7.11 0.337-12.1-1.59-15.7-3.91-4.22-2.69-7.66-6.43-11.3-12.8-4.27-7.01-10.9-10.1-18.9-10.1-3.73 0-7.23 0.987-10.4 2.58-12.3 6.38-26.9 10.2-42.6 10.2l-17.8 8e-3c-8.64-25.6-13.3-53.1-13.3-81.6 0-141 114-255 255-255s255 114 255 255c0 51.1-15 98.7-40.9 139"/>
 <path d="m470 395c-9.87-2.27-20.2-3.68-30.8-3.68-18.1 0-34.5 3.13-46.6 8.17a4.1 4.1 0 0 0-2.29 3.64c0 0.578 0.148 1.17 0.37 1.66 1.43 4.15-0.927 8.65-12.6 11.2-17.4 3.82-28.3 21.8-34.6 27.6-7.37 7.01-28.1 11.3-25 7.13 2.45-3.25 11.8-13.4 17.5-24.4 5.1-9.87 9.63-12.6 15.9-22 1.84-2.75 8.95-12.4 11-20 2.33-7.45 1.53-16.8 2.43-20.7 1.28-5.57 6.53-17.6 6.92-24.4 0.228-3.85-16.1 5.5-23.8 5.5s-15.2-4.63-22.2-4.97c-8.56-0.403-14.1 6.59-21.8 5.38-4.43-0.711-8.15-4.61-15.9-4.89-11-0.397-24.4 6.12-49.7 5.31-24.8-0.807-47.8-31.4-50.9-36.2-3.66-5.7-8.15-5.7-13-1.22-4.89 4.47-10.9 0.958-12.6-2.05-3.25-5.7-12-22.4-25.5-25.9-18.7-4.84-28.1 10.4-26.9 22.4 1.24 12.2 9.16 15.7 12.8 22.2 3.66 6.52 5.54 10.7 12.4 13.6 4.89 2.04 6.71 5.06 5.26 9.08-1.28 3.49-6.37 4.29-9.71 4.46-7.11 0.343-12.1-1.59-15.7-3.9-4.22-2.71-7.66-6.44-11.3-12.8-4.27-7.01-10.9-10.1-18.9-10.1-3.73 0-7.23 0.997-10.4 2.59-12.3 6.4-26.9 10.2-42.6 10.2l-17.8 6e-3c34 101 129 174 241 174 89.8 0 169-46.3 214-116" fill="#fff"/>
 <path d="m313 371c1.31 1.28 3.58 5.59 0.805 11-1.55 2.89-3.21 4.93-6.2 7.32-3.59 2.87-10.6 6.19-20.2 0.0938-5.18-3.28-5.48-4.39-12.6-3.46-5.1 0.663-7.13-4.48-5.3-8.77 1.84-4.27 9.37-7.73 18.8-2.24 4.21 2.48 10.7 7.7 16.5 3.08 2.38-1.91 3.81-3.19 7.12-7.01a0.837 0.837 0 0 1 1.13-0.0596"/>
 <path d="m400 188c-2.52 8.47-6.1 19.3-22.1 27.6-2.33 1.18-3.2-0.765-2.13-2.6 6.02-10.3 7.09-12.8 8.85-16.9 2.45-5.91 3.73-14.4-1.14-31.9-9.59-34.5-29.6-80.7-44.2-95.6-14.1-14.5-39.5-18.6-62.4-12.6-8.46 2.18-25 10.7-55.8 3.87-53.1-12-61.1 14.7-64.1 26.3-3.06 11.6-10.4 44.6-10.4 44.6-2.44 13.4-5.64 36.7 76.9 52.5 38.5 7.33 40.4 17.3 42.1 24.4 3.06 12.8 7.93 20.1 13.4 23.8 5.5 3.66 0 6.7-6.1 7.33-16.4 1.7-76.9-15.6-112-36.1-29.3-17.9-29.8-34-23.1-47.7-44.3-4.79-77.5 4.15-83.5 25.1-10.4 36 79 97.4 181 128 106 32.3 217 9.77 229-57.4 5.55-30.5-20.1-53.1-63.5-62.8m-164-65.8c-29.5 2.13-32.5 5.31-38 11.2-7.78 8.29-18.1-10.7-18.1-10.7-6.16-1.3-13.6-11.2-9.58-20.5 3.96-9.16 11.3-6.41 13.6-3.56 2.79 3.47 8.74 9.15 16.5 8.95 7.74-0.209 16.6-1.84 29.1-1.84 12.6 0 21.1 4.71 21.6 8.75 0.41 3.45-1.02 6.71-15 7.73m31-48.7a0.845 0.845 0 0 1-0.136 0.014c-0.456 0-0.826-0.355-0.826-0.78 0-0.307 0.188-0.576 0.464-0.698 5.72-3.02 14.3-5.41 24-6.41a92.1 92.1 0 0 1 8.54-0.483c0.483 0 0.966 6e-3 1.46 0.0119 16.3 0.37 29.4 6.87 29.2 14.6-0.195 7.65-13.6 13.6-30 13.2-5.3-0.119-10.3-0.885-14.6-2.12a1.12 1.12 0 0 1-0.872-1.07 1.11 1.11 0 0 1 0.887-1.06c10.2-2.36 17.1-6.22 16.6-9.87-0.644-4.83-14-7.46-29.8-5.87-1.73 0.173-3.42 0.395-5.05 0.65" fill="#cc0000"/>
</svg>
