<?xml version="1.0" encoding="UTF-8"?>
<svg width="512" height="512" version="1.1" viewBox="0 0 512 512" xmlns="http://www.w3.org/2000/svg">
 <path d="m423.3 238.9c0.2089-3.342-0.2088-6.475-0.8354-9.398l-20.05-86.67c-4.595-19.21-8.772-27.78-41.98-44.69-26.11-13.16-82.7-35.09-99.41-35.09-15.66 0-20.05 19.84-38.85 19.84s-31.12-14.62-48.24-14.62c-16.92 0-26.52 10.86-34.46 33.21 0 0-22.56 63.49-25.48 72.89-0.4177 1.671-0.6265 3.341-0.6265 5.221 0 24.64 95.65 105.9 227.6 105.9 33.42 0 82.29-6.683 82.29-46.57zm5.012 15.66a150.4 150.4 0 0 1 4.595 27.15c0 37.59-42.19 58.48-97.74 58.48-125.3 0-234.7-73.3-234.7-122 0-6.892 1.462-13.57 4.177-20.05-44.69 2.924-103.6 11.28-103.6 62.44 0 84.37 199.7 188.4 358.2 188.4 121.1 0 151.8-54.93 151.8-98.37 0-34.04-29.24-72.68-82.49-95.86" fill="#e00"/>
 <path d="m428.5 254.7c2.506 8.98 3.968 17.96 4.595 27.15 0 37.59-42.19 58.48-97.74 58.48-125.3 0-235-73.3-235-122 0-6.892 1.253-13.57 4.177-20.05l9.607-23.81-0.6265 5.012c0 24.85 97.32 105.9 227.6 105.9 33.21 0 82.08-8.563 82.08-46.57 0-3.342-0.2088-6.475-0.8354-9.398z"/>
</svg>
