<?xml version="1.0" encoding="UTF-8"?>
<svg width="512" height="512" version="1.1" viewBox="0 0 512 512" xmlns="http://www.w3.org/2000/svg">
 <defs>
  <filter id="a" x="-.08055" y="-.1454" width="1.1" height="1.4">
   <feGaussianBlur stdDeviation="1.28"/>
  </filter>
  <filter id="b" x="-.1543" y="-.1047" width="1.3" height="1.2">
   <feGaussianBlur stdDeviation="3.18"/>
  </filter>
  <linearGradient id="d" x1="127" x2="127" y1="16.2" y2="119" gradientTransform="matrix(3.84 0 0 4.92 -236 -298)" gradientUnits="userSpaceOnUse">
   <stop stop-color="#fff" offset="0"/>
   <stop stop-color="#fff" stop-opacity="0" offset="1"/>
  </linearGradient>
  <linearGradient id="c" x1="124" x2="122" y1="132" y2="93" gradientTransform="matrix(2.92 0 0 2.92 -46.5 -148)" gradientUnits="userSpaceOnUse">
   <stop offset="0"/>
   <stop stop-opacity="0" offset="1"/>
  </linearGradient>
 </defs>
 <ellipse filter="url(#a)" style="fill-opacity:.4;fill:#000" transform="matrix(4.83,0,0,6.64,-217,-316)" cx="97.9" cy="88.1" rx="52" ry="33.9"/>
 <ellipse fill="#3e5495" stroke="#3d5292" stroke-width="2" cx="255" cy="253" rx="250" ry="228"/>
 <ellipse fill="#4962ae" cx="253" cy="240" rx="247" ry="215"/>
 <path filter="url(#b)" style="fill:none;stroke-opacity:.8;stroke-width:7.5;stroke:#fff" transform="matrix(3.25,0,0,2.63,709,-156)" d="m-105 77.1v13.9c-26.5-12.7-53.3-9.7-53.3 9.63 0 28.4 59.6 5.01 59.6 49.1 0 29.3-28.7 31-40.2 31-11.9 0-23.8-3.19-33.3-6.68v-14.6c27.8 15.6 58.6 12.7 58.6-8.65 0-10.4-6.29-15.8-20.3-18.6-15.9-3.23-38-5.12-38.7-30.4 0-18.2 13.3-30 36.8-30 9.83 0 20 1.78 30.7 5.34z"/>
 <path filter="url(#a)" style="fill:none;stroke-opacity:.8;stroke-width:6;stroke:#fff" transform="matrix(4.07,0,0,4.34,-262,-273)" d="m91.5 127 0.478 21.6h74.6"/>
 <path fill="#4962ae" d="m370.5 47.31v36.23c-95.02-36.97-173.1-20.72-173.1 25.18 0 38.29 46.78 38.59 93.9 46.73 44.04 8.851 98.18 22.22 99.66 81.97 1.903 76.93-94.45 81.54-132.3 81.54-38.41 0 82.46-23.67 82.25-78.75-0.1098-28.55-21.19-41.03-66.26-49.07-51.19-9.987-125.3-11.9-125.4-79.81 0.1854-46.7 41.93-78.44 119.9-78.42 35.27 0.0087 72.44 6.224 101.4 14.4z"/>
 <path fill="url(#c)" transform="scale(1.11 .9)" d="m189.1 150.6c20.46 17.92 59.92 16.89 93.69 27.63 36.23 12.18 67.84 32.23 70.47 85.69 0 85.5-86.18 91.42-120.3 91.42-34.6 0-69.4-9.32-97.2-19.5v-42.7c83.1 46.6 169.6 35.93 171.2-25.24 2.353-91.87-171.8-22.07-173.1-143.9 0-53.3 108-87.5 108-87.5s-93.73 76.86-52.8 114.1z"/>
 <path fill-opacity=".6" d="m269.2 33-5.951 0.1504v4.75h5.951zm1.26 0.0176v4.908h5.951v-4.799zm7.285 0.1328v4.775h5.951l-0.0391-4.582-5.912-0.1934zm-15.83 0.0352-5.178 0.1328-0.0566 4.582h5.234zm-6.465 0.1641-5.953 0.3906v4.16h5.953zm29.53 0.0664-0.0547 4.51h5.951v-4.189l-5.896-0.3203zm7.23 0.3926v4.117h5.953l-0.0312-3.631-5.922-0.4863zm-44.05 0.0332-5.908 0.5606-0.043 3.498h5.951zm51.23 0.5664v3.518h5.953v-2.984zm-58.45 0.1543-5.922 0.7676v2.57h5.951zm65.73 0.5312v2.832h5.951v-2.094zm-72.99 0.4453-5.936 0.998-0.0176 1.363h5.953zm80.2 0.4492-0.0234 1.938h5.951v-1.145l-5.928-0.793zm-87.38 0.7871-5.387 1.125h5.387zm94.64 0.2168v0.9336h5.92zm-105.5 2.242-2.381 0.6309 0.0449 5.271 5.9 0.0508v-5.953zm4.9 0v5.953l5.9-0.0508 0.0508-5.902zm7.182 0 0.0527 5.902 5.9 0.0508v-5.953zm7.287 0v5.953l5.9-0.0508 0.0508-5.902zm7.184 0 0.0508 5.902 5.9 0.0508v-5.953zm7.285 0v5.953h5.953v-5.953zm7.184 0 0.0508 5.902 5.184 0.0508v-5.953zm6.568 0v5.953h5.951v-5.953zm7.211 0.0254v5.951h5.951v-5.951zm7.285 0v5.951l5.9-0.0508 0.0508-5.9zm7.184 0 0.0508 5.9 5.9 0.0508v-5.951zm7.285 0v5.951l5.902-0.0508 0.0508-5.9zm7.184 0 0.0508 5.9 5.902 0.0508v-5.951zm7.287 0v5.951l5.9-0.0508 0.0508-5.9zm7.184 0 0.0508 5.9 5.9 0.0508v-5.951zm7.285 0v5.951h5.953v-5.951zm7.287 0v5.951l5.9-0.0508 0.0508-5.9zm7.186 0.1797 0.0488 5.721 5.9 0.0508v-4.639l-5.949-1.133zm-123.6 0.7852-5.943 1.877v3.086l5.9-0.0508 0.043-4.912zm130.9 0.6035v4.383l5.9-0.0508 0.0254-3.023-5.926-1.309zm7.211 1.594 0.0234 2.738 5.9 0.0508v-1.469l-5.924-1.32zm-145.4 0.1465-5.951 2.252v0.3672h5.951zm152.6 1.512v1.131l4.297-0.0371-4.297-1.094zm-141.1 2.322-2.936 0.0879-0.0723 5.881h5.951v-5.953l-2.943-0.0156zm14.47 0-2.938 0.0879-0.0723 5.881h5.953v-5.953l-2.943-0.0156zm14.47 0-2.936 0.0879-0.0723 5.881h5.951v-5.953l-2.943-0.0156zm-50.08 4e-3 -3.566 1.684-0.0527 4.281h5.953v-5.953l-2.334-0.0117zm3.668 0.0117v5.953h5.951v-5.953zm7.285 0v5.953h5.953l-0.0527-5.902-5.9-0.0508zm14.47 0v5.953h5.951l-0.0508-5.902-5.9-0.0508zm14.47 0v5.953h5.951l-0.0508-5.902-5.9-0.0508zm14.47 0v5.953h5.953l-0.0527-5.902-5.9-0.0508zm12.42 0-5.162 0.0723-0.0723 5.881h5.234zm1.334 0v5.953h5.951l-0.0508-5.902zm13.16 0.0254-5.879 0.0723h-2e-3l-0.0703 5.879h5.951zm1.334 0v5.951h5.951l-0.0508-5.9zm13.13 0-5.879 0.0723-0.0723 5.879h5.951zm1.334 0v5.951h5.953l-0.0508-5.9-5.9-0.0508zm13.14 0-5.881 0.0723-0.0723 5.879h5.953zm1.334 0v5.951h5.951l-0.0508-5.9zm13.13 0-5.879 0.0723-0.0723 5.879h5.951zm1.334 0v5.951h5.953v-5.951zm7.287 0v5.951h5.951l-0.0508-5.9zm13.13 0-5.881 0.0723-0.0703 5.879h5.951zm1.334 0v5.951h5.951l-0.0508-5.9zm13.13 0-5.879 0.0723-0.0723 5.879h5.951zm1.334 0v5.951h5.953l-0.0508-5.9zm9.463 0.0449-2.207 0.0273-0.0723 5.879h5.768v-4.99l-3.488-0.9164zm-176.6 2.266-5.92 3.27v0.3477h5.953zm-8.568 4.951-4.609 3.195 0.0235 2.705 5.9 0.0508v-5.951zm2.648 0v5.951l5.9-0.0508 0.0527-5.9zm7.184 0 0.0527 5.9 5.9 0.0508v-5.951zm7.287 0v5.951h5.951v-5.951zm7.285 0v5.951l5.9-0.0508 0.0527-5.9zm7.184 0 0.0508 5.9 5.9 0.0508v-5.951zm7.287 0v5.951l5.9-0.0508 0.0508-5.9zm7.182 0 0.0527 5.9 5.9 0.0508v-5.951zm7.287 0v5.951l5.9-0.0508 0.0508-5.9zm7.184 0 0.0508 5.9 5.9 0.0508v-5.951zm7.285 0v5.951l5.9-0.0508 0.0527-5.9zm7.184 0 0.0508 5.9 5.184 0.0508v-5.951zm6.568 0v5.951h5.951v-5.951zm7.211 0.0234 0.0508 5.9 5.9 0.0527v-5.953zm7.285 0v5.953l5.9-0.0527 0.0508-5.9zm7.184 0 0.0508 5.9 5.9 0.0527v-5.953zm7.285 0v5.953l5.902-0.0527 0.0508-5.9zm7.184 0 0.0508 5.9 5.902 0.0527v-5.953zm7.287 0v5.953l5.9-0.0527 0.0508-5.9zm7.184 0 0.0508 5.9 5.9 0.0527v-5.953zm7.285 0v5.953h5.953v-5.953zm7.287 0v5.953l5.9-0.0527 0.0508-5.9zm7.184 0 0.0508 5.9 5.9 0.0527v-5.953zm7.285 0v5.953l5.9-0.0527 0.0508-5.9zm7.184 0 0.0508 5.9 5.9 0.0527v-5.953zm7.285 0v5.953l5.902-0.0527 0.0508-5.9zm7.184 0 0.0527 5.9 5.715 0.0508v-5.951zm-188.8 4.189-2.139 1.705 2.125-0.0176 0.0136-1.688zm4.277 2.953-2.936 0.0879-0.0722 5.881h5.951v-5.951l-2.943-0.0176zm14.47 0-2.938 0.0879-0.0723 5.881h5.953v-5.951l-2.943-0.0176zm21.75 0-2.936 0.0879-0.0723 5.881h5.951v-5.951l-2.943-0.0176zm28.94 0-2.936 0.0879-0.0606 4.959 5.939-1.127v-3.902l-2.943-0.0176zm-60.89 0.0176v5.951h5.953l-0.0527-5.9-5.9-0.0508zm14.47 0v5.951h5.951v-5.951zm7.285 0v5.951h5.953l-0.0527-5.9-5.9-0.0508zm14.47 0v5.951h5.951v-5.951zm13.11 0-5.857 0.0703-0.0723 5.881h5.953zm1.357 0v5.951h3.424l2.521-0.6211-0.0449-5.279-5.9-0.0508zm14.47 0v3.713l5.953-0.7774v-2.936zm12.42 0-5.162 0.0703-0.0332 2.744 5.195-0.4297zm1.334 0v2.312l5.951-0.2266v-2.086zm-91.07 0.0195-2.314 2.105v3.826h5.951l-0.0508-5.9-3.586-0.0312zm104.2 4e-3 -5.879 0.0723h-2e-3l-0.0234 1.971 5.904 0.0215zm1.334 0v2.096l5.92 0.248-0.0195-2.293zm13.13 0-5.879 0.0723-0.0293 2.348 5.908 0.4531zm1.334 0v2.998l5.934 0.6484-0.0312-3.596-5.9-0.0508zm13.14 0-5.881 0.0723-0.0469 3.736 5.928 0.8281zm1.334 0v4.848l5.951 1.002-0.0508-5.799zm13.13 0-5.879 0.0723-0.0723 5.879h5.951zm1.334 0v5.951h5.953v-5.951zm7.287 0v5.951h5.951l-0.0508-5.9zm13.13 0-5.881 0.0723-0.0703 5.879h5.951zm1.334 0v5.951h5.951v-5.951zm13.11 0-5.857 0.0723-0.0723 5.879h5.951zm1.355 0v5.951h5.953l-0.0508-5.9zm12.95 2e-3 -5.695 0.0703-0.0723 5.879h5.768zm-201.8 3.441-2.344 2.484h2.344zm-3.518 3.818-2.408 3.006 0.0254 2.895 5.9 0.0527v-5.953zm4.852 0v5.953l5.9-0.0527 0.0508-5.9zm7.184 0 0.0508 5.9 5.9 0.0527v-5.953zm7.285 0v5.953h5.953v-5.953zm7.184 0 0.0508 5.9 5.902 0.0527v-5.953zm7.287 0v5.953h5.951v-5.953zm7.285 0v5.953l5.9-0.0527 0.0527-5.9zm7.184 0 0.0508 5.9 5.9 0.0527v-5.953zm7.285 0 0.0859 5.355 5.867-2.785v-2.57zm7.184 0 0.0195 2.088 5.934-2.072v-0.0156zm93.41 0.0254v0.2539l5.953 1.32v-1.574zm7.287 0v1.91l5.922 1.488 0.0293-3.398zm7.184 0 0.0312 3.73 5.92 1.67v-5.4zm7.285 0 0.0918 5.803 0.5254 0.1484h5.334v-5.951zm7.184 0 0.0508 5.9 5.838 0.0293 0.0625-5.93zm7.285 0v5.951l5.902-0.0508 0.0508-5.9zm7.184 0 0.0527 5.9 5.715 0.0488v-5.949zm-199 7.143-2.938 0.0879-0.0722 5.879h5.953v-5.951l-2.943-0.0156zm14.47 0-2.936 0.0879-0.0722 5.879h5.951v-5.951l-2.943-0.0156zm14.47 0-2.938 0.0879-0.0723 5.879h5.953v-5.951l-2.943-0.0156zm21.75 0-2.936 0.0879-0.0332 2.674 4.09-2.756-1.121-6e-3zm-46.42 0.0156v5.951h5.951l-0.0508-5.9-5.9-0.0508zm14.47 0v5.951h5.953l-0.0527-5.9-5.9-0.0508zm14.47 0v5.951h5.951v-5.951zm7.285 0v5.951h3.348l2.586-2.209-0.0332-3.691-5.9-0.0508zm150 0.0234-5.879 0.0723-0.01 0.7539 5.889 1.941zm1.334 0v3.223l5.947 2.094-0.0449-5.264zm12.95 2e-3 -5.695 0.0703-0.0703 5.705 0.4688 0.1758h5.297zm-210.7 0.0117-3.32 5.914h5.02l-0.0508-5.9-1.648-0.0137zm-3.994 7.25-0.2597 0.5723v5.379h5.953v-5.951zm6.926 0v5.951h5.951v-5.951zm7.285 0v5.951h5.951v-5.951zm7.184 0v5.951h5.951v-5.951zm7.285 0v5.951h5.953v-5.951zm7.184 0v5.951h5.953v-5.951zm7.287 0v5.951h4.334l1.617-2.279v-3.672zm7.285 0v2.104l1.912-2.104zm-52.03 3.713-0.8047 2.238h0.8047zm-1.272 3.572-1.613 5.926 2.883 0.0254v-5.951zm2.604 0v5.951l5.902-0.0508 0.0508-5.9zm7.186 0 0.0508 5.9 5.9 0.0508v-5.951zm7.285 0v5.951l5.9-0.0508 0.0508-5.9zm7.184 0 0.0508 5.9 5.9 0.0508v-5.951zm7.285 0v5.951l5.9-0.0508 0.0527-5.9zm7.184 0 0.0508 5.9 5.902 0.0508v-5.951zm7.287 0v5.951h0.6094l2.871-5.951zm-47.69 7.168-0.2051 6e-3 -0.9785 5.961h4.127v-5.951l-2.943-0.0156zm14.47 0-2.938 0.0879-0.0722 5.879h5.953v-5.951l-2.943-0.0156zm14.47 0-2.936 0.0879-0.0722 5.879h5.951v-5.951l-2.943-0.0156zm14.47 0-2.938 0.0879-0.0723 5.879h5.953v-5.951l-2.943-0.0156zm-39.13 0.0156v5.951h5.953l-0.0508-5.9-5.9-0.0508zm14.47 0v5.951h5.951l-0.0508-5.9-5.9-0.0508zm14.47 0v5.951h5.953l-0.0527-5.9-5.9-0.0508zm-34.51 7.285-0.3399 5.953h4.582v-5.953zm5.574 0v5.953h5.953v-5.953zm7.186 0 0.0508 5.902 5.9 0.0508v-5.953zm7.285 0v5.953l5.9-0.0508 0.0508-5.902zm7.184 0 0.0508 5.902 5.9 0.0508v-5.953zm7.285 0v5.953h5.953v-5.953zm7.184 0 0.0508 5.902 5.703 0.0488-0.1016-1.754 0.2266-4.197zm-40.4 7.168-1.674 0.0508-4e-3 0.1289 0.207 5.789h4.414v-5.953l-2.943-0.0156zm14.47 0-2.938 0.0879-0.0722 5.881h5.953v-5.953l-2.943-0.0156zm14.47 0-2.936 0.0879-0.0722 5.881h5.951v-5.953l-2.943-0.0156zm14.47 0-2.938 0.0879-0.0723 5.881h5.953v-3.75l-0.127-2.203-2.816-0.0156zm-39.13 0.0156v5.953h5.953l-0.0508-5.9-5.9-0.0527zm14.47 0v5.953h5.951l-0.0508-5.9-5.9-0.0527zm14.47 0v5.953h5.953l-0.0527-5.9-5.9-0.0527zm-34.57 7.287 0.7188 5.92 3.578 0.0312v-5.951zm5.631 0v5.951l5.902-0.0508 0.0508-5.9zm7.186 0 0.0508 5.9 5.9 0.0508v-5.951zm7.285 0v5.951l5.9-0.0508 0.0508-5.9zm7.184 0 0.0508 5.9 5.9 0.0508v-5.951zm7.285 0v5.951l5.9-0.0508 0.0527-5.9zm7.184 0 0.0508 5.9 5.902 0.0508v-5.951zm7.287 1.076v4.875h1.975zm-47.69 6.09-0.4453 0.0137 1.414 5.955h1.975v-5.951l-2.943-0.0176zm14.47 0-2.938 0.0899-0.0722 5.879h5.953v-5.951l-2.943-0.0176zm14.47 0-2.936 0.0899-0.0722 5.879h5.951v-5.951l-2.943-0.0176zm14.47 0-2.938 0.0899-0.0723 5.879h5.953v-5.951l-2.943-0.0176zm-39.13 0.0176v5.951h5.953l-0.0508-5.9-5.9-0.0508zm14.47 0v5.951h5.951l-0.0508-5.9-5.9-0.0508zm14.47 0v5.951h5.953l-0.0527-5.9-5.9-0.0508zm14.47 0v5.951h5.951v-1.234l-3.34-4.717zm-46.33 7.285 1.588 4.535v-4.535zm2.92 0v5.953h5.953v-5.953zm7.186 0 0.0508 5.9 5.9 0.0527v-5.953zm7.285 0v5.953l5.9-0.0527 0.0508-5.9zm7.184 0 0.0508 5.9 5.9 0.0527v-5.953zm7.285 0v5.953h5.953v-5.953zm7.184 0 0.0508 5.9 5.902 0.0527v-5.953zm7.287 0v5.953h5.951v-5.953zm7.285 0v5.953l5.9-0.0527 0.0195-2.271-4.77-3.629zm7.223 4.447 0.0117 1.453 2.576 0.0234-2.588-1.477zm-47.72 2.721-2.938 0.0879-0.0722 5.162h5.953v-5.234l-2.943-0.0156zm14.47 0-2.936 0.0879-0.0722 5.162h5.951v-5.234l-2.943-0.0156zm14.47 0-2.938 0.0879-0.0723 5.162h5.953v-5.234l-2.943-0.0156zm21.75 0-2.936 0.0879-0.0723 5.162h5.951v-4.844l-0.8281-0.3945-2.115-0.0117zm-60.89 0.0156v0.3613l2.605 4.873h3.348l-0.0508-5.184-5.9-0.0508zm14.47 0v5.234h5.951l-0.0508-5.184-5.9-0.0508zm14.47 0v5.234h5.953l-0.0527-5.184-5.9-0.0508zm14.47 0v5.234h5.951v-5.234zm7.285 0v5.234h5.953l-0.0527-5.184-5.9-0.0508zm14.47 0.9356v4.299h5.953l-0.0195-2.076-5.934-2.223zm7.207 2.652-0.0234 1.646h5.713l-5.689-1.646zm-68.91 2.98 2.492 3.539v-3.539zm3.725 0v5.092l0.7403 0.8594h5.211v-5.951zm7.285 0v5.951h5.951v-5.951zm7.184 0v5.951h5.951v-5.951zm7.285 0v5.951h5.953v-5.951zm7.184 0v5.951h5.953v-5.951zm7.287 0v5.951h5.951v-5.951zm7.285 0v5.951h5.953v-5.951zm7.184 0v5.951h5.951v-5.951zm7.285 0v5.951h5.953v-5.951zm7.184 0v5.951h5.953v-5.951zm7.287 0v5.951h5.951v-5.514l-2.023-0.4375zm7.184 0.6914v5.26h5.951v-4.119zm7.285 1.373v3.887h5.953v-2.852zm7.213 1.254 0.0215 2.582 5.184 0.0508v-1.803l-5.205-0.8301zm6.775 1.074 0.0137 1.52 5.67 0.0508v-0.6875l-5.684-0.8828zm6.973 1.082v0.5h3.223zm-101.9 1.742-4.074 0.0508 4.074 3.975zm1.334 0v5.215l0.914 0.7363h5.039l-0.0508-5.9zm7.184 0v5.951h5.953v-5.951zm7.287 0v5.951h5.951v-5.951zm13.13 0-5.881 0.0723-0.0703 5.879h5.951zm1.334 0v5.951h5.951v-5.951zm7.287 0v5.951h5.951l-0.0508-5.9zm7.182 0v5.951h5.953v-5.951zm7.287 0v5.951h5.951v-5.951zm13.13 0-5.879 0.0723-0.0723 5.879h5.951zm1.334 0v5.951h5.953l-0.0527-5.9zm13.14 0-5.881 0.0723-0.0723 5.879h5.953zm1.334 0v5.951h5.951v-5.951zm12.42 0-5.162 0.0723-0.0723 5.879h5.234zm1.334 0v5.951h5.953v-5.951zm7.211 0.0234v5.953h5.951v-5.953zm7.285 0v5.953h5.953l-0.0488-5.672-1.566-0.2441zm7.25 0.4922-0.0664 5.461h5.953v-4.408l-5.887-1.053zm7.221 1.291v4.17h5.951l-0.0273-3.109-5.924-1.061zm7.184 1.301v2.869h5.951v-1.631zm7.285 1.535v1.334h5.691zm-134.2 2.643 3.328 2.383 0.0215-2.383zm4.58 0 0.0273 3.213 4.703 2.729 1.221 0.0117v-5.953zm7.287 0v5.953l5.9-0.0527 0.0508-5.9zm7.184 0 0.0508 5.9 5.9 0.0527v-5.953zm7.285 0v5.953h5.951v-5.953zm7.287 0v5.953l5.9-0.0527 0.0508-5.9zm7.182 0 0.0527 5.9 5.9 0.0527v-5.953zm7.287 0v5.953l5.9-0.0527 0.0508-5.9zm7.184 0 0.0508 5.9 5.9 0.0527v-5.953zm7.285 0v5.953l5.9-0.0527 0.0527-5.9zm7.184 0 0.0508 5.9 5.902 0.0527v-5.953zm7.287 0v5.953h5.951v-5.953zm7.182 0 0.0527 5.9 5.182 0.0527v-5.953zm6.568 0v5.953h5.953v-5.953zm7.211 0.0254v5.951h5.951v-5.951zm7.285 0v5.951l5.902-0.0508 0.0508-5.9zm7.184 0 0.0527 5.9 5.9 0.0508v-5.951zm7.287 0v5.951l5.9-0.0508 0.0508-5.9zm7.184 0 0.0508 5.9 5.9 0.0508v-5.951zm7.285 0v5.951l5.9-0.0508 0.0527-5.9zm7.184 0 0.0508 5.9 5.902 0.0508v-5.322l-2.361-0.6289zm7.287 1.027v4.924h5.951v-3.111zm7.285 2.277v2.646l5.9-0.0508 4e-3 -0.5137-5.904-2.082zm-144.1 3.854v0.1211l5.926 2.779-0.0254-2.85zm13.13 0-5.881 0.0723-0.041 3.385 5.922 2.295zm1.334 0v5.953h5.951v-5.953zm7.287 0v5.953h5.951l-0.0508-5.902zm13.13 0-5.881 0.0723-0.0723 5.881h5.953zm1.334 0v5.953h5.951l-0.0508-5.902zm13.13 0-5.879 0.0723-0.0723 5.881h5.951zm1.334 0v5.953h5.953l-0.0527-5.902zm13.14 0-5.881 0.0723-0.0723 5.881h5.953zm1.334 0v5.953h5.951l-0.0508-5.902zm12.42 0-5.162 0.0723-0.0723 5.881h5.234zm1.334 0v5.953h5.953l-0.0527-5.902zm13.16 0.0254-5.879 0.0703-0.0723 5.881h5.951zm1.334 0v5.951h5.953l-0.0508-5.9zm13.14 0-5.881 0.0703-0.0723 5.881h5.953zm1.334 0v5.951h5.951l-0.0508-5.9zm13.13 0-5.879 0.0703-0.0723 5.881h5.951zm1.334 0v5.951h5.953l-0.0527-5.9zm13.14 0-5.881 0.0703-0.0723 5.881h5.953zm1.334 0v5.951h5.951v-5.951zm7.285 0v5.951h5.951l-0.0508-5.9zm10.47 0.0312-3.219 0.0391-0.0723 5.881h5.951v-4.797l-2.66-1.123zm3.994 1.736v4.184h5.953l-0.0117-1.334-5.941-2.85zm-136.8 5.494v1.283l5.926 1.67 0.0254-2.953zm7.182 0 0.0293 3.275 5.924 1.465v-4.74zm7.287 0v5.027l4.129 0.8887 1.771-0.0156 0.0508-5.9zm7.184 0 0.0508 5.9 5.9 0.0508v-5.951zm7.285 0v5.951l5.9-0.0508 0.0527-5.9zm7.184 0 0.0508 5.9 5.902 0.0508v-5.951zm7.287 0v5.951l5.9-0.0508 0.0508-5.9zm7.182 0 0.0527 5.9 5.182 0.0508v-5.951zm6.568 0v5.951h5.953v-5.951zm7.211 0.0234 0.0508 5.9 5.9 0.0527v-5.953zm7.285 0v5.953l5.902-0.0527 0.0508-5.9zm7.184 0 0.0527 5.9 5.9 0.0527v-5.953zm7.287 0v5.953l5.9-0.0527 0.0508-5.9zm7.184 0 0.0508 5.9 5.9 0.0527v-5.953zm7.285 0v5.953l5.9-0.0527 0.0527-5.9zm7.184 0 0.0508 5.9 5.902 0.0527v-5.953zm7.287 0v5.953h5.951v-5.953zm7.285 0v5.953l5.9-0.0527 0.0508-5.9zm7.184 0 0.0508 5.9 5.9 0.0527v-5.953zm7.285 0v5.953l5.9-0.0527 0.0527-5.9zm7.184 0 0.0527 5.9 5.9 0.0527v-4.613l-2.193-1.34zm7.287 2.156v3.797l5.643-0.0508-5.643-3.746zm-122.4 5.004v0.707l5.916 1.076-0.0156-1.732zm13.13 0-5.879 0.0703-0.0234 1.951 5.902 1.027zm1.336 0v3.27l5.951 0.9805v-4.25zm12.42 0-5.162 0.0703-0.0547 4.385 5.217 0.8594zm1.334 0v5.535l2.326 0.416h3.627v-5.951zm13.16 0.0234-5.879 0.0723-0.0723 5.879h5.951zm1.334 0v5.951h5.953l-0.0508-5.9zm13.14 0-5.881 0.0723-0.0723 5.879h5.953zm1.334 0v5.951h5.951l-0.0508-5.9zm13.13 0-5.879 0.0723-0.0723 5.879h5.951zm1.334 0v5.951h5.953l-0.0527-5.9zm13.14 0-5.881 0.0723-0.0723 5.879h5.953zm1.334 0v5.951h5.951v-5.951zm7.285 0v5.951h5.951l-0.0508-5.9zm13.13 0-5.879 0.0723-0.0723 5.879h5.951zm1.334 0v5.951h5.953v-5.951zm13.11 0-5.857 0.0723-0.0723 5.879h5.953zm1.357 0v5.951h5.951l-0.0508-5.9zm7.555 0.0684-0.3008 4e-3 -0.0703 5.879h5.951v-1.094l-4.621-4.111-0.959-0.6777zm-87.19 7.217v0.8301l5.936 1.166 0.0176-1.996zm7.184 0 0.0195 2.266 5.934 1.336v-3.602zm7.287 0v3.936l5.904 1.535 0.0469-5.471zm7.184 0 0.0508 5.871 0.1035 0.0312 5.797 0.0508v-5.953zm7.285 0v5.953h5.953v-5.953zm7.184 0 0.0508 5.902 5.9 0.0508v-5.953zm7.287 0v5.953h5.951v-5.953zm7.285 0v5.953l5.9-0.0508 0.0508-5.902zm7.184 0 0.0508 5.902 5.9 0.0508v-5.953zm7.285 0 0.0957 5.953h5.857v-5.953zm7.184 0 0.0527 5.902 5.836 0.0293 0.0644-5.932zm7.287 0v5.953l5.9-0.0508 0.0508-5.902zm7.184 0 0.0508 5.902 5.9 0.0508v-5.953zm7.285 0v5.953h5.951v-0.127l-4.883-5.826zm-65.16 7.184v1.021l5.93 2.301-0.0293-3.27zm13.14 0-5.881 0.0723-0.0469 3.842 4.34 2.039h1.588zm1.334 0v5.953h5.951v-5.953zm7.285 0v5.953h5.951l-0.0508-5.9zm13.13 0-5.879 0.0723-0.0723 5.881h5.951zm1.334 0v5.953h5.953l-0.0527-5.9zm13.14 0-5.881 0.0723-0.0723 5.881h5.953zm1.334 0v5.953h5.951l-0.0508-5.9zm13.13 0-5.881 0.0723-0.0703 5.881h5.951zm1.334 0v5.953h5.951l-0.0508-5.9zm7.252 0.4316-0.0684 5.521h3.457l-3.389-5.521zm-57.95 6.855v0.3047l5.951 4.129v-4.434zm7.285 0v5.539l0.4883 0.4121h5.463v-5.951zm7.184 0v5.951h5.951v-5.951zm7.285 0v5.951h5.953v-5.951zm7.184 0v5.951h5.953v-5.951zm7.287 0v5.951h5.951v-5.951zm7.184 0v5.951h5.951v-5.951zm7.285 0v5.951h5.951v-5.951zm7.184 0v5.951h5.234v-3.77l-1.082-2.182zm-48.72 7.285 4.035 4.654 0.041-4.654zm5.309 0 0.0508 5.9 5.9 0.0527v-5.953zm7.285 0v5.953h5.953v-5.953zm7.184 0 0.0527 5.9 5.9 0.0527v-5.953zm7.287 0v5.953l5.9-0.0527 0.0508-5.9zm7.184 0 0.0508 5.9 5.9 0.0527v-5.953zm7.285 0v5.953h5.951l-0.0508-5.887zm7.184 0 0.0508 5.9 5.184 0.0527v-5.953zm6.568 0v5.953h2.598l-1.854-5.953zm-44.03 7.184-5.494 0.0684 2.844 5.885h2.65zm1.334 0v5.953h5.953v-5.953zm13.14 0-5.881 0.0723-0.0723 5.881h5.953zm1.334 0v5.953h5.951l-0.0508-5.9zm13.13 0-5.881 0.0723-0.0703 5.881h5.951zm1.334 0v5.953h5.951v-5.953zm12.42 0-5.162 0.0723-0.0723 5.881h5.234zm1.334 0v5.953h4.055l-1.172-5.953zm-46.19 7.287 1.445 5.945 0.7168 6e-3v-5.951zm3.496 0v5.951h5.953v-5.951zm7.184 0 0.0527 5.9 5.9 0.0508v-5.951zm7.287 0v5.951l5.9-0.0508 0.0508-5.9zm7.184 0 0.0508 5.9 5.9 0.0508v-5.951zm7.285 0v5.951h5.951v-5.951zm7.184 0 0.0508 5.9 5.184 0.0508v-5.951zm6.568 0v5.951h4.785l-0.5625-5.951z"/>
 <path fill="url(#d)" d="m258 35.3c-139 2.41-235 93.9-236 188 147 42 313 44.6 463-7.02-12.9-105-120-183-227-181z"/>
 <path style="fill:none;stroke-width:15;stroke:#000" d="m111 284 1.91 87.4h298"/>
</svg>
