<?xml version="1.0" encoding="UTF-8"?>
<svg width="512" height="512" version="1.1" viewBox="0 0 512 512" xmlns="http://www.w3.org/2000/svg">
 <defs>
  <filter id="a" x="-.08055" y="-.1454" width="1.1" height="1.4">
   <feGaussianBlur stdDeviation="1.28"/>
  </filter>
  <filter id="b" x="-.1543" y="-.1047" width="1.3" height="1.2">
   <feGaussianBlur stdDeviation="3.18"/>
  </filter>
  <linearGradient id="d" x1="127" x2="127" y1="16.2" y2="119" gradientTransform="matrix(3.84 0 0 4.92 -236 -298)" gradientUnits="userSpaceOnUse">
   <stop stop-color="#fff" offset="0"/>
   <stop stop-color="#fff" stop-opacity="0" offset="1"/>
  </linearGradient>
  <linearGradient id="c" x1="124" x2="122" y1="132" y2="93" gradientTransform="matrix(2.92 0 0 2.92 -46.5 -148)" gradientUnits="userSpaceOnUse">
   <stop offset="0"/>
   <stop stop-opacity="0" offset="1"/>
  </linearGradient>
 </defs>
 <ellipse filter="url(#a)" style="fill-opacity:.4;fill:#000" transform="matrix(4.83,0,0,6.64,-217,-316)" cx="97.9" cy="88.1" rx="52" ry="33.9"/>
 <ellipse fill="#3e5495" stroke="#3d5292" stroke-width="2" cx="255" cy="253" rx="250" ry="228"/>
 <ellipse fill="#4962ae" cx="253" cy="240" rx="247" ry="215"/>
 <path filter="url(#b)" style="fill:none;stroke-opacity:.8;stroke-width:7.5;stroke:#fff" transform="matrix(3.25,0,0,2.466,709,-125.2)" d="m-112.8 87.47c-18.47-6.023-44.22-4.787-45.46 13.16-0.4538 28.39 59.6 5.01 59.6 49.1 0 29.3-28.7 31-40.2 31-11.9 0-23.8-3.19-33.3-6.68v-14.6c27.8 15.6 58.6 12.7 58.6-8.65 0-10.4-6.29-15.8-20.3-18.6-15.9-3.23-38-5.12-38.7-30.4 0-37.68 40.4-33.9 59.76-27.05z"/>
 <path filter="url(#a)" style="fill:none;stroke-opacity:.8;stroke-width:6;stroke:#fff" transform="matrix(4.07,0,0,4.34,-262,-273)" d="m91.5 127 0.478 21.6h74.6"/>
 <path fill="#4962ae" d="m341.6 90.23c-18.23-4.757-41.03-10.91-75.09-9.818-34.05 1.088-68.09 11.64-69.09 42.2 0 35.76 46.78 36.04 93.9 43.64 44.04 8.266 98.18 20.75 99.66 76.56 1.903 71.85-94.45 76.15-132.3 76.15-38.41 0 82.46-22.11 82.25-73.55-0.1098-26.66-21.19-38.32-66.26-45.83-51.19-9.327-125.3-11.11-125.4-74.54 0.1854-43.62 41.93-73.26 119.9-73.24 17.64 4e-3 44.8 1.803 72.55 7.285z"/>
 <path fill="url(#c)" d="m209.9 147.4c22.71 15.09 66.51 14.22 104 23.27 40.22 10.26 75.3 27.14 78.22 72.16 0 72-95.66 76.99-133.5 76.99-38.41 0-77.03-7.849-107.9-16.42v-35.96c92.24 39.24 188.3 30.26 190-21.26 2.612-77.37-190.7-18.59-192.1-121.2 0-44.89 119.9-73.69 119.9-73.69s-104 64.73-58.61 96.09z"/>
 <path fill-opacity=".6" d="m269.2 52.11-5.951 0.14v4.421h5.951zm1.26 0.01638v4.568h5.951v-4.467zm7.285 0.1236v4.444h5.951l-0.0391-4.265-5.912-0.18zm-15.83 0.03277-5.178 0.1236-0.0566 4.265h5.234zm-6.465 0.1527-5.953 0.3635v3.872h5.953zm29.53 0.0618-0.0547 4.198h5.951v-3.899l-5.896-0.2981zm7.23 0.3654v3.832h5.953l-0.0312-3.379-5.922-0.4526zm-44.05 0.0309-5.908 0.5218-0.043 3.256h5.951zm51.23 0.5272v3.274h5.953v-2.777zm-58.45 0.1436-5.922 0.7144v2.392h5.951zm65.73 0.4944v2.636h5.951v-1.949zm-72.99 0.4145-5.936 0.9289-0.0176 1.269h5.953zm80.2 0.4181-0.0234 1.804h5.951v-1.066l-5.928-0.7381zm-87.38 0.7326-5.387 1.047h5.387zm94.64 0.2018v0.8689h5.92zm-105.5 2.087-2.381 0.5872 0.0449 4.906 5.9 0.04728v-5.541zm4.9 0v5.541l5.9-0.04728 0.0508-5.493zm7.182 0 0.0527 5.493 5.9 0.04728v-5.541zm7.287 0v5.541l5.9-0.04728 0.0508-5.493zm7.184 0 0.0508 5.493 5.9 0.04728v-5.541zm7.285 0v5.541h5.953v-5.541zm7.184 0 0.0508 5.493 5.184 0.04728v-5.541zm6.568 0v5.541h5.951v-5.541zm7.211 0.02364v5.539h5.951v-5.539zm7.285 0v5.539l5.9-0.04728 0.0508-5.491zm7.184 0 0.0508 5.491 5.9 0.04728v-5.539zm7.285 0v5.539l5.902-0.04728 0.0508-5.491zm7.184 0 0.0508 5.491 5.902 0.04728v-5.539zm7.287 0v5.539l5.9-0.04728 0.0508-5.491zm7.184 0 0.0508 5.491 5.9 0.04728v-5.539zm7.285 0v5.539h5.953v-5.539zm7.287 0v5.539l5.9-0.04728 0.0508-5.491zm7.186 0.1673 0.0488 5.325 5.9 0.04728v-4.318l-5.949-1.055zm-123.6 0.7308-5.943 1.747v2.872l5.9-0.04728 0.043-4.572zm-7.289 2.182-5.951 2.096v0.3418h5.951zm11.5 3.568-2.936 0.08181-0.0723 5.474h5.951v-5.541l-2.943-0.01452zm14.47 0-2.938 0.08181-0.0723 5.474h5.953v-5.541l-2.943-0.01452zm14.47 0-2.936 0.08181-0.0723 5.474h5.951v-5.541l-2.943-0.01452zm-50.08 0.0037-3.566 1.567-0.0527 3.984h5.953v-5.541l-2.334-0.01089zm3.668 0.0109v5.541h5.951v-5.541zm7.285 0v5.541h5.953l-0.0527-5.493-5.9-0.04728zm14.47 0v5.541h5.951l-0.0508-5.493-5.9-0.04728zm14.47 0v5.541h5.951l-0.0508-5.493-5.9-0.04728zm14.47 0v5.541h5.953l-0.0527-5.493-5.9-0.04728zm12.42 0-5.162 0.06729-0.0723 5.474h5.234zm1.334 0v5.541h5.951l-0.0508-5.493zm13.16 0.02364-5.879 0.06729h-2e-3l-0.0703 5.472h5.951zm1.334 0v5.539h5.951l-0.0508-5.491zm13.13 0-5.879 0.06729-0.0723 5.472h5.951zm1.334 0v5.539h5.953l-0.0508-5.491-5.9-0.04728zm13.14 0-5.881 0.06729-0.0723 5.472h5.953zm1.334 0v5.539h5.951l-0.0508-5.491zm13.13 0-5.879 0.06729-0.0723 5.472h5.951zm1.334 0v5.539h5.953v-5.539zm7.287 0v5.539h5.951l-0.0508-5.491zm13.13 0-5.881 0.06729-0.0703 5.472h5.951zm-151.3 2.151-5.92 3.044v0.3236h5.953zm-8.568 4.608-4.609 2.974 0.0235 2.518 5.9 0.04728v-5.539zm2.648 0v5.539l5.9-0.04728 0.0527-5.491zm7.184 0 0.0527 5.491 5.9 0.04728v-5.539zm7.287 0v5.539h5.951v-5.539zm7.285 0v5.539l5.9-0.04728 0.0527-5.491zm7.184 0 0.0508 5.491 5.9 0.04728v-5.539zm7.287 0v5.539l5.9-0.04728 0.0508-5.491zm7.182 0 0.0527 5.491 5.9 0.04728v-5.539zm7.287 0v5.539l5.9-0.04728 0.0508-5.491zm7.184 0 0.0508 5.491 5.9 0.04728v-5.539zm7.285 0v5.539l5.9-0.04728 0.0527-5.491zm7.184 0 0.0508 5.491 5.184 0.04728v-5.539zm6.568 0v5.539h5.951v-5.539zm7.211 0.02178 0.0508 5.491 5.9 0.04904v-5.541zm7.285 0v5.541l5.9-0.04905 0.0508-5.491zm7.184 0 0.0508 5.491 5.9 0.04904v-5.541zm7.285 0v5.541l5.902-0.04905 0.0508-5.491zm7.184 0 0.0508 5.491 5.902 0.04904v-5.541zm7.287 0v5.541l5.9-0.04905 0.0508-5.491zm7.184 0 0.0508 5.491 5.9 0.04904v-5.541zm7.285 0v5.541h5.953v-5.541zm7.287 0v5.541l5.9-0.04905 0.0508-5.491zm7.184 0 0.0508 5.491 5.9 0.04904v-5.541zm-159.9 3.899-2.139 1.587 2.125-0.01638 0.0136-1.571zm4.277 2.748-2.936 0.08181-0.0722 5.474h5.951v-5.539l-2.943-0.01639zm14.47 0-2.938 0.08181-0.0723 5.474h5.953v-5.539l-2.943-0.01639zm21.75 0-2.936 0.08181-0.0723 5.474h5.951v-5.539l-2.943-0.01639zm28.94 0-2.936 0.08181-0.0606 4.616 5.939-1.049v-3.632l-2.943-0.01639zm-60.89 0.01638v5.539h5.953l-0.0527-5.491-5.9-0.04728zm14.47 0v5.539h5.951v-5.539zm7.285 0v5.539h5.953l-0.0527-5.491-5.9-0.04728zm14.47 0v5.539h5.951v-5.539zm13.11 0-5.857 0.06543-0.0723 5.474h5.953zm1.357 0v5.539h3.424l2.521-0.5781-0.0449-4.913-5.9-0.04728zm14.47 0v3.456l5.953-0.7236v-2.733zm12.42 0-5.162 0.06543-0.0332 2.554 5.195-0.3999zm1.334 0v2.152l5.951-0.2109v-1.942zm-91.07 0.01816-2.314 1.959v3.561h5.951l-0.0508-5.491-3.586-0.02903zm104.2 0.0037-5.879 0.06729h-2e-3l-0.0234 1.834 5.904 0.02001zm1.334 0v1.951l5.92 0.2308-0.0195-2.134zm13.13 0-5.879 0.06729-0.0293 2.185 5.908 0.4217zm1.334 0v2.79l5.934 0.6035-0.0312-3.347-5.9-0.04728zm13.14 0-5.881 0.06729-0.0469 3.477 5.928 0.7707zm1.334 0v4.512l5.951 0.9326-0.0508-5.397zm13.13 0-5.879 0.06729-0.0723 5.472h5.951zm1.334 0v5.539h5.953v-5.539zm7.287 0v5.539h5.951l-0.0508-5.491zm13.13 0-5.881 0.06729-0.0703 5.472h5.951zm-173.1 3.205-2.344 2.312h2.344zm-3.518 3.554-2.408 2.798 0.0254 2.694 5.9 0.04904v-5.541zm4.852 0v5.541l5.9-0.04904 0.0508-5.491zm7.184 0 0.0508 5.491 5.9 0.04905v-5.541zm7.285 0v5.541h5.953v-5.541zm7.184 0 0.0508 5.491 5.902 0.04905v-5.541zm7.287 0v5.541h5.951v-5.541zm7.285 0v5.541l5.9-0.04904 0.0527-5.491zm7.184 0 0.0508 5.491 5.9 0.04905v-5.541zm7.285 0 0.0859 4.984 5.867-2.592v-2.392zm7.184 0 0.0195 1.943 5.934-1.928v-0.01452zm93.41 0.02364v0.2363l5.953 1.229v-1.465zm7.287 0v1.778l5.922 1.385 0.0293-3.163zm7.184 0 0.0312 3.472 5.92 1.554v-5.026zm-170.1 6.648-2.938 0.08181-0.0722 5.472h5.953v-5.539l-2.943-0.01452zm14.47 0-2.936 0.08181-0.0722 5.472h5.951v-5.539l-2.943-0.01452zm14.47 0-2.938 0.08181-0.0723 5.472h5.953v-5.539l-2.943-0.01452zm21.75 0-2.936 0.08181-0.0332 2.489 4.09-2.565-1.121-0.0056zm-46.42 0.01452v5.539h5.951l-0.0508-5.491-5.9-0.04728zm14.47 0v5.539h5.953l-0.0527-5.491-5.9-0.04728zm14.47 0v5.539h5.951v-5.539zm7.285 0v5.539h3.348l2.586-2.056-0.0332-3.435-5.9-0.04728zm-46.42 0.03458-3.32 5.504h5.02l-0.0508-5.491-1.648-0.01275zm-3.994 6.748-0.2597 0.5327v5.006h5.953v-5.539zm6.926 0v5.539h5.951v-5.539zm7.285 0v5.539h5.951v-5.539zm7.184 0v5.539h5.951v-5.539zm7.285 0v5.539h5.953v-5.539zm7.184 0v5.539h5.953v-5.539zm7.287 0v5.539h4.334l1.617-2.121v-3.418zm7.285 0v1.958l1.912-1.958zm-52.03 3.456-0.8047 2.083h0.8047zm-1.272 3.325-1.613 5.516 2.883 0.0237v-5.539zm2.604 0v5.539l5.902-0.0472 0.0508-5.491zm7.186 0 0.0508 5.491 5.9 0.0472v-5.539zm7.285 0v5.539l5.9-0.0472 0.0508-5.491zm7.184 0 0.0508 5.491 5.9 0.0472v-5.539zm7.285 0v5.539l5.9-0.0472 0.0527-5.491zm7.184 0 0.0508 5.491 5.902 0.0472v-5.539zm7.287 0v5.539h0.6094l2.871-5.539zm-47.69 6.672-0.2051 5e-3 -0.9785 5.548h4.127v-5.539l-2.943-0.0145zm14.47 0-2.938 0.0817-0.0722 5.472h5.953v-5.539l-2.943-0.0145zm14.47 0-2.936 0.0817-0.0722 5.472h5.951v-5.539l-2.943-0.0145zm14.47 0-2.938 0.0817-0.0723 5.472h5.953v-5.539l-2.943-0.0145zm-39.13 0.0145v5.539h5.953l-0.0508-5.491-5.9-0.0474zm14.47 0v5.539h5.951l-0.0508-5.491-5.9-0.0474zm14.47 0v5.539h5.953l-0.0527-5.491-5.9-0.0474zm-34.51 6.78-0.3399 5.541h4.582v-5.541zm5.574 0v5.541h5.953v-5.541zm7.186 0 0.0508 5.493 5.9 0.0472v-5.541zm7.285 0v5.541l5.9-0.0472 0.0508-5.493zm7.184 0 0.0508 5.493 5.9 0.0472v-5.541zm7.285 0v5.541h5.953v-5.541zm7.184 0 0.0508 5.493 5.703 0.0454-0.1016-1.632 0.2266-3.906zm-40.4 6.672-1.674 0.0472-4e-3 0.12 0.207 5.388h4.414v-5.541l-2.943-0.0145zm14.47 0-2.938 0.0817-0.0722 5.474h5.953v-5.541l-2.943-0.0145zm14.47 0-2.936 0.0817-0.0722 5.474h5.951v-5.541l-2.943-0.0145zm14.47 0-2.938 0.0817-0.0723 5.474h5.953v-3.49l-0.127-2.05-2.816-0.0145zm-39.13 0.0145v5.541h5.953l-0.0508-5.491-5.9-0.049zm14.47 0v5.541h5.951l-0.0508-5.491-5.9-0.049zm14.47 0v5.541h5.953l-0.0527-5.491-5.9-0.049zm-34.57 6.782 0.7188 5.51 3.578 0.029v-5.539zm5.631 0v5.539l5.902-0.0472 0.0508-5.491zm7.186 0 0.0508 5.491 5.9 0.0472v-5.539zm7.285 0v5.539l5.9-0.0472 0.0508-5.491zm7.184 0 0.0508 5.491 5.9 0.0472v-5.539zm7.285 0v5.539l5.9-0.0472 0.0527-5.491zm7.184 0 0.0508 5.491 5.902 0.0472v-5.539zm7.287 1.001v4.537h1.975zm-47.69 5.668-0.4453 0.0127 1.414 5.543h1.975v-5.539l-2.943-0.0165zm14.47 0-2.938 0.0837-0.0722 5.472h5.953v-5.539l-2.943-0.0165zm14.47 0-2.936 0.0837-0.0722 5.472h5.951v-5.539l-2.943-0.0165zm14.47 0-2.938 0.0837-0.0723 5.472h5.953v-5.539l-2.943-0.0165zm-39.13 0.0165v5.539h5.953l-0.0508-5.491-5.9-0.0472zm14.47 0v5.539h5.951l-0.0508-5.491-5.9-0.0472zm14.47 0v5.539h5.953l-0.0527-5.491-5.9-0.0472zm14.47 0v5.539h5.951v-1.149l-3.34-4.39zm-46.33 6.78 1.588 4.221v-4.221zm2.92 0v5.541h5.953v-5.541zm7.186 0 0.0508 5.491 5.9 0.049v-5.541zm7.285 0v5.541l5.9-0.049 0.0508-5.491zm7.184 0 0.0508 5.491 5.9 0.049v-5.541zm7.285 0v5.541h5.953v-5.541zm7.184 0 0.0508 5.491 5.902 0.049v-5.541zm7.287 0v5.541h5.951v-5.541zm7.285 0v5.541l5.9-0.049 0.0195-2.114-4.77-3.378zm7.223 4.139 0.0117 1.352 2.576 0.0218-2.588-1.375zm-47.72 2.533-2.938 0.0817-0.0722 4.804h5.953v-4.871l-2.943-0.0145zm14.47 0-2.936 0.0817-0.0722 4.804h5.951v-4.871l-2.943-0.0145zm14.47 0-2.938 0.0817-0.0723 4.804h5.953v-4.871l-2.943-0.0145zm21.75 0-2.936 0.0817-0.0723 4.804h5.951v-4.508l-0.8281-0.3672-2.115-0.0109zm-60.89 0.0145v0.3363l2.605 4.535h3.348l-0.0508-4.825-5.9-0.0472zm14.47 0v4.871h5.951l-0.0508-4.825-5.9-0.0472zm14.47 0v4.871h5.953l-0.0527-4.825-5.9-0.0472zm14.47 0v4.871h5.951v-4.871zm7.285 0v4.871h5.953l-0.0527-4.825-5.9-0.0472zm14.47 0.8708v4.001h5.953l-0.0195-1.932-5.934-2.069zm7.207 2.468-0.0234 1.532h5.713l-5.689-1.532zm-68.91 2.774 2.492 3.294v-3.294zm3.725 0v4.739l0.7403 0.7999h5.211v-5.539zm7.285 0v5.539h5.951v-5.539zm7.184 0v5.539h5.951v-5.539zm7.285 0v5.539h5.953v-5.539zm7.184 0v5.539h5.953v-5.539zm7.287 0v5.539h5.951v-5.539zm7.285 0v5.539h5.953v-5.539zm7.184 0v5.539h5.951v-5.539zm7.285 0v5.539h5.953v-5.539zm7.184 0v5.539h5.953v-5.539zm7.287 0v5.539h5.951v-5.132l-2.023-0.4072zm7.184 0.6435v4.896h5.951v-3.834zm7.285 1.278v3.618h5.953v-2.654zm7.213 1.167 0.0215 2.403 5.184 0.0472v-1.678l-5.205-0.7726zm6.775 0.9996 0.0137 1.415 5.67 0.0472v-0.6399l-5.684-0.8216zm6.973 1.007v0.4654h3.223zm-101.9 1.621-4.074 0.0472 4.074 3.7zm1.334 0v4.854l0.914 0.6853h5.039l-0.0508-5.491zm7.184 0v5.539h5.953v-5.539zm7.287 0v5.539h5.951v-5.539zm13.13 0-5.881 0.0673-0.0703 5.472h5.951zm1.334 0v5.539h5.951v-5.539zm7.287 0v5.539h5.951l-0.0508-5.491zm7.182 0v5.539h5.953v-5.539zm7.287 0v5.539h5.951v-5.539zm13.13 0-5.879 0.0673-0.0723 5.472h5.951zm1.334 0v5.539h5.953l-0.0527-5.491zm13.14 0-5.881 0.0673-0.0723 5.472h5.953zm1.334 0v5.539h5.951v-5.539zm12.42 0-5.162 0.0673-0.0723 5.472h5.234zm1.334 0v5.539h5.953v-5.539zm7.211 0.0218v5.541h5.951v-5.541zm7.285 0v5.541h5.953l-0.0488-5.279-1.566-0.2272zm7.25 0.4581-0.0664 5.083h5.953v-4.103l-5.887-0.9801zm7.221 1.202v3.881h5.951l-0.0273-2.894-5.924-0.9875zm7.184 1.211v2.67h5.951v-1.518zm7.285 1.429v1.242h5.691zm-134.2 2.46 3.328 2.218 0.0215-2.218zm4.58 0 0.0273 2.99 4.703 2.54 1.221 0.0108v-5.541zm7.287 0v5.541l5.9-0.049 0.0508-5.491zm7.184 0 0.0508 5.491 5.9 0.049v-5.541zm7.285 0v5.541h5.951v-5.541zm7.287 0v5.541l5.9-0.049 0.0508-5.491zm7.182 0 0.0527 5.491 5.9 0.049v-5.541zm7.287 0v5.541l5.9-0.049 0.0508-5.491zm7.184 0 0.0508 5.491 5.9 0.049v-5.541zm7.285 0v5.541l5.9-0.049 0.0527-5.491zm7.184 0 0.0508 5.491 5.902 0.049v-5.541zm7.287 0v5.541h5.951v-5.541zm7.182 0 0.0527 5.491 5.182 0.049v-5.541zm6.568 0v5.541h5.953v-5.541zm7.211 0.0237v5.539h5.951v-5.539zm7.285 0v5.539l5.902-0.0472 0.0508-5.491zm7.184 0 0.0527 5.491 5.9 0.0472v-5.539zm7.287 0v5.539l5.9-0.0472 0.0508-5.491zm7.184 0 0.0508 5.491 5.9 0.0472v-5.539zm7.285 0v5.539l5.9-0.0472 0.0527-5.491zm7.184 0 0.0508 5.491 5.902 0.0472v-4.953l-2.361-0.5853zm7.287 0.9559v4.583h5.951v-2.896zm7.285 2.119v2.463l5.9-0.0472 4e-3 -0.4781-5.904-1.938zm-144.1 3.587v0.1127l5.926 2.586-0.0254-2.653zm13.13 0-5.881 0.0673-0.041 3.151 5.922 2.136zm1.334 0v5.541h5.951v-5.541zm7.287 0v5.541h5.951l-0.0508-5.493zm13.13 0-5.881 0.0673-0.0723 5.474h5.953zm1.334 0v5.541h5.951l-0.0508-5.493zm13.13 0-5.879 0.0673-0.0723 5.474h5.951zm1.334 0v5.541h5.953l-0.0527-5.493zm13.14 0-5.881 0.0673-0.0723 5.474h5.953zm1.334 0v5.541h5.951l-0.0508-5.493zm12.42 0-5.162 0.0673-0.0723 5.474h5.234zm1.334 0v5.541h5.953l-0.0527-5.493zm13.16 0.0237-5.879 0.0655-0.0723 5.474h5.951zm1.334 0v5.539h5.953l-0.0508-5.491zm13.14 0-5.881 0.0655-0.0723 5.474h5.953zm1.334 0v5.539h5.951l-0.0508-5.491zm13.13 0-5.879 0.0655-0.0723 5.474h5.951zm1.334 0v5.539h5.953l-0.0527-5.491zm13.14 0-5.881 0.0655-0.0723 5.474h5.953zm1.334 0v5.539h5.951v-5.539zm7.285 0v5.539h5.951l-0.0508-5.491zm10.47 0.029-3.219 0.0364-0.0723 5.474h5.951v-4.465l-2.66-1.045zm3.994 1.616v3.894h5.953l-0.0117-1.242-5.941-2.653zm-136.8 5.113v1.194l5.926 1.554 0.0254-2.748zm7.182 0 0.0293 3.048 5.924 1.364v-4.412zm7.287 0v4.679l4.129 0.8271 1.771-0.0145 0.0508-5.491zm7.184 0 0.0508 5.491 5.9 0.0472v-5.539zm7.285 0v5.539l5.9-0.0472 0.0527-5.491zm7.184 0 0.0508 5.491 5.902 0.0472v-5.539zm7.287 0v5.539l5.9-0.0472 0.0508-5.491zm7.182 0 0.0527 5.491 5.182 0.0472v-5.539zm6.568 0v5.539h5.953v-5.539zm7.211 0.0218 0.0508 5.491 5.9 0.0491v-5.541zm7.285 0v5.541l5.902-0.0491 0.0508-5.491zm7.184 0 0.0527 5.491 5.9 0.0491v-5.541zm7.287 0v5.541l5.9-0.0491 0.0508-5.491zm7.184 0 0.0508 5.491 5.9 0.0491v-5.541zm7.285 0v5.541l5.9-0.0491 0.0527-5.491zm7.184 0 0.0508 5.491 5.902 0.0491v-5.541zm7.287 0v5.541h5.951v-5.541zm7.285 0v5.541l5.9-0.0491 0.0508-5.491zm7.184 0 0.0508 5.491 5.9 0.0491v-5.541zm7.285 0v5.541l5.9-0.0491 0.0527-5.491zm7.184 0 0.0527 5.491 5.9 0.0491v-4.293l-2.193-1.247zm7.287 2.007v3.534l5.643-0.0472-5.643-3.487zm-122.4 4.657v0.658l5.916 1.001-0.0156-1.612zm13.13 0-5.879 0.0654-0.0234 1.816 5.902 0.9559zm1.336 0v3.044l5.951 0.9126v-3.956zm12.42 0-5.162 0.0654-0.0547 4.081 5.217 0.7999zm1.334 0v5.152l2.326 0.3872h3.627v-5.539zm13.16 0.0218-5.879 0.0673-0.0723 5.472h5.951zm1.334 0v5.539h5.953l-0.0508-5.491zm13.14 0-5.881 0.0673-0.0723 5.472h5.953zm1.334 0v5.539h5.951l-0.0508-5.491zm13.13 0-5.879 0.0673-0.0723 5.472h5.951zm1.334 0v5.539h5.953l-0.0527-5.491zm13.14 0-5.881 0.0673-0.0723 5.472h5.953zm1.334 0v5.539h5.951v-5.539zm7.285 0v5.539h5.951l-0.0508-5.491zm13.13 0-5.879 0.0673-0.0723 5.472h5.951zm1.334 0v5.539h5.953v-5.539zm13.11 0-5.857 0.0673-0.0723 5.472h5.953zm1.357 0v5.539h5.951l-0.0508-5.491zm7.555 0.0637-0.3008 4e-3 -0.0703 5.472h5.951v-1.018l-4.621-3.826-0.959-0.6308zm-87.19 6.717v0.7726l5.936 1.085 0.0176-1.858zm7.184 0 0.0195 2.109 5.934 1.243v-3.352zm7.287 0v3.663l5.904 1.429 0.0469-5.092zm7.184 0 0.0508 5.464 0.1035 0.029 5.797 0.0472v-5.541zm7.285 0v5.541h5.953v-5.541zm7.184 0 0.0508 5.493 5.9 0.0472v-5.541zm7.287 0v5.541h5.951v-5.541zm7.285 0v5.541l5.9-0.0472 0.0508-5.493zm7.184 0 0.0508 5.493 5.9 0.0472v-5.541zm7.285 0 0.0957 5.541h5.857v-5.541zm7.184 0 0.0527 5.493 5.836 0.0273 0.0644-5.521zm7.287 0v5.541l5.9-0.0472 0.0508-5.493zm7.184 0 0.0508 5.493 5.9 0.0472v-5.541zm7.285 0v5.541h5.951v-0.1182l-4.883-5.422zm-65.16 6.686v0.9503l5.93 2.142-0.0293-3.044zm13.14 0-5.881 0.0673-0.0469 3.576 4.34 1.898h1.588zm1.334 0v5.541h5.951v-5.541zm7.285 0v5.541h5.951l-0.0508-5.491zm13.13 0-5.879 0.0673-0.0723 5.474h5.951zm1.334 0v5.541h5.953l-0.0527-5.491zm13.14 0-5.881 0.0673-0.0723 5.474h5.953zm1.334 0v5.541h5.951l-0.0508-5.491zm13.13 0-5.881 0.0673-0.0703 5.474h5.951zm1.334 0v5.541h5.951l-0.0508-5.491zm7.252 0.4017-0.0684 5.139h3.457l-3.389-5.139zm-57.95 6.38v0.2836l5.951 3.843v-4.127zm7.285 0v5.155l0.4883 0.3836h5.463v-5.539zm7.184 0v5.539h5.951v-5.539zm7.285 0v5.539h5.953v-5.539zm7.184 0v5.539h5.953v-5.539zm7.287 0v5.539h5.951v-5.539zm7.184 0v5.539h5.951v-5.539zm7.285 0v5.539h5.951v-5.539zm7.184 0v5.539h5.234v-3.509l-1.082-2.031zm-48.72 6.78 4.035 4.332 0.041-4.332zm5.309 0 0.0508 5.491 5.9 0.0491v-5.541zm7.285 0v5.541h5.953v-5.541zm7.184 0 0.0527 5.491 5.9 0.0491v-5.541zm7.287 0v5.541l5.9-0.0491 0.0508-5.491zm7.184 0 0.0508 5.491 5.9 0.0491v-5.541zm7.285 0v5.541h5.951l-0.0508-5.479zm7.184 0 0.0508 5.491 5.184 0.0491v-5.541zm6.568 0v5.541h2.598l-1.854-5.541zm-44.03 6.686-5.494 0.0637 2.844 5.477h2.65zm1.334 0v5.541h5.953v-5.541zm13.14 0-5.881 0.0673-0.0723 5.474h5.953zm1.334 0v5.541h5.951l-0.0508-5.491zm13.13 0-5.881 0.0673-0.0703 5.474h5.951zm1.334 0v5.541h5.951v-5.541zm12.42 0-5.162 0.0673-0.0723 5.474h5.234zm1.334 0v5.541h4.055l-1.172-5.541zm-46.19 6.782 1.445 5.533 0.7168 5e-3v-5.539zm3.496 0v5.539h5.953v-5.539zm7.184 0 0.0527 5.491 5.9 0.0472v-5.539zm7.287 0v5.539l5.9-0.0472 0.0508-5.491zm7.184 0 0.0508 5.491 5.9 0.0472v-5.539zm7.285 0v5.539h5.951v-5.539zm7.184 0 0.0508 5.491 5.184 0.0472v-5.539zm6.568 0v5.539h4.785l-0.5625-5.539z"/>
 <path fill="url(#d)" d="m258 35.3c-139 2.41-235 93.9-236 188 147 42 313 44.6 463-7.02-12.9-105-120-183-227-181z"/>
 <path style="fill:none;stroke-width:15;stroke:#000" d="m111 284 1.91 87.4h298"/>
</svg>
