<?xml version="1.0" encoding="UTF-8"?>
<svg width="512" height="512" version="1.1" viewBox="0 0 512 512" xmlns="http://www.w3.org/2000/svg">
 <defs>
  <filter id="e" width="1.05" height="1.05" x="-.024" y="-.024">
   <feGaussianBlur stdDeviation=".429"/>
  </filter>
  <filter id="f" width="1.08" height="1.32" x="-.041" y="-.161">
   <feGaussianBlur stdDeviation="1.366"/>
  </filter>
  <filter id="h" width="1.13" height="1.11" x="-.064" y="-.056">
   <feGaussianBlur stdDeviation="1.644"/>
  </filter>
  <filter id="d" width="1.05" height="1.05" x="-.024" y="-.024">
   <feGaussianBlur stdDeviation="1.983"/>
  </filter>
  <filter id="g" width="1.01" height="1.03" x="-.004" y="-.015">
   <feGaussianBlur stdDeviation=".218"/>
  </filter>
  <filter id="j" width="1.01" height="1.01" x="-.006" y="-.006">
   <feGaussianBlur stdDeviation=".716"/>
  </filter>
  <radialGradient id="b" cx="238" cy="617" r="99.2" gradientTransform="matrix(2.4 0 0 2.4 -927 -1478)" gradientUnits="userSpaceOnUse">
   <stop offset="0" stop-color="#313163"/>
   <stop offset=".98" stop-color="#313163" stop-opacity=".996"/>
   <stop offset="1" stop-color="#bcbcde" stop-opacity=".992"/>
  </radialGradient>
  <radialGradient id="a" cx="186" cy="588" r="89.7" gradientTransform="matrix(2.79 0 0 2.79 -258 -1377)" gradientUnits="userSpaceOnUse">
   <stop offset=".89" stop-opacity=".5"/>
   <stop offset="1" stop-opacity="0"/>
  </radialGradient>
  <linearGradient id="c" x1="139" x2="337" y1="617" y2="617" gradientUnits="userSpaceOnUse">
   <stop offset="0" stop-color="#596dbd"/>
   <stop offset=".75" stop-color="#4f63b3"/>
   <stop offset="1" stop-color="#4f63b3"/>
  </linearGradient>
  <linearGradient id="i" x1="356" x2="356" y1="220" y2="525" gradientTransform="translate(-70 -99)" gradientUnits="userSpaceOnUse">
   <stop offset="0" stop-color="#5468b8"/>
   <stop offset=".66" stop-color="#212142"/>
   <stop offset="1" stop-color="#212142"/>
  </linearGradient>
 </defs>
 <circle cx="259" cy="260" r="250" fill="url(#a)"/>
 <circle cx="-356" cy=".216" r="238" fill="url(#b)" transform="rotate(225)"/>
 <circle cx="238" cy="617" r="99.2" fill="url(#c)" filter="url(#d)" transform="matrix(-1.65 -1.65 1.65 -1.65 -374 1658)"/>
 <path fill="#fff" d="M113 524c-6.17 6.38-12.2 13.5-15.1 22.1-.411 1.19-1.42 3.51-1.59 3.91 4.76-9.1 10.8-17.4 18.1-24.7 7.3-7.29 15.8-13.4 24.9-18.2-4.22 1.91-8.76 3.18-12.6 5.87-4.93 3.23-9.58 6.79-13.7 11z" filter="url(#e)" transform="matrix(2.26 0 0 2.26 -171 -1091)"/>
 <path fill="#fff" stroke="#fff" stroke-linecap="round" stroke-linejoin="round" stroke-width="4.81" d="M117 622v35.3h139v-3.28H120v-32.1z" filter="url(#f)" transform="matrix(2.26 0 0 2.26 -171 -1091)"/>
 <path fill="#212142" d="M117 622v35.3h139v-3.28H120v-32.1z" filter="url(#g)" transform="matrix(2.26 0 0 2.26 -171 -1091)"/>
 <path fill="#fff" stroke="#fff" stroke-width="4.81" d="M156 634c16 7.48 34.6 7.47 51.5 4.12 14.6-3.88 29-16.4 27.9-32.6-.95-14.9-15.6-24.2-29.1-26.4-13.3-2.33-27.8-.046-40.1-6.96-6.64-3.25-11.3-11.9-6.91-18.7 5.11-10.1 17.9-12 28-12.1 9.28.824 20.7 1.98 25.3 11.9 2.84 8.23 14 13.2 17.8 4.94.676-7.67-.366-14.4-.09-22.1-2.5-8.74-14-7.28-17.6-2.16-11-4.4-23.3-5.13-35-4.56-14.8 2.15-31.4 9.17-36.7 24.3-4.5 12.9 4.95 26.1 16.5 31.2 13.9 7.17 29.9 6.05 44.9 8.21 8.55 1.11 18.9 9.62 15.7 18.8-2.32 10.3-13 14.8-22.5 15.7-11.6 1.28-24.9 1.19-34.4-6.53-7.21-4.65-5.4-16.5-14.3-19-5.57-1.42-11.7 2.71-10.1 8.63l.147 23.4c1.23 8.96 16.6 10.5 18.4 1.23l.437-1.51z" filter="url(#h)" transform="matrix(2.26 0 0 2.26 -171 -1091)"/>
 <path fill="url(#i)" d="M216 405c43.3 20.3 93.7 20.2 140 11.2 39.5-10.5 78.5-44.3 75.7-88.3-2.57-40.5-42.2-65.5-78.9-71.5-36.1-6.31-75.3-.124-109-18.9-18-8.8-30.7-32.2-18.7-50.7 13.8-27.4 48.5-32.4 76-32.7 25.2 2.23 56 5.37 68.6 32.3 7.7 22.3 38 35.7 48.4 13.4 1.83-20.8-.993-39-.246-59.9-6.78-23.7-37.8-19.7-47.7-5.87-29.9-11.9-63.1-13.9-94.9-12.4-40.1 5.84-85.1 24.9-99.5 66-12.2 34.9 13.4 70.8 44.9 84.6 37.6 19.4 80.9 16.4 122 22.3 23.2 3.01 51.1 26.1 42.6 51.1-6.3 27.8-35.4 40-61.1 42.5-31.4 3.47-67.5 3.22-93.2-17.7-19.5-12.6-14.6-44.7-38.8-51.4-15.1-3.84-31.7 7.34-27.3 23.4l.402 63.4c3.34 24.3 44.9 28.5 49.8 3.33z" filter="url(#j)" transform="matrix(.832 0 0 .832 1.34 1.63)"/>
</svg>
