<?xml version="1.0" encoding="UTF-8"?>
<svg width="512" height="512" version="1.1" viewBox="0 0 512 512" xmlns="http://www.w3.org/2000/svg" xmlns:xlink="http://www.w3.org/1999/xlink">
 <defs>
  <pattern id="a" patternTransform="matrix(1.034 0 0 1.018 -309.9 245.2)" xlink:href="#c"/>
  <filter id="f" x="-.01222" y="-.01872" width="1.024" height="1.037">
   <feGaussianBlur stdDeviation="0.4258"/>
  </filter>
  <filter id="e" x="-.08059" y="-.1457" width="1.122" height="1.426">
   <feGaussianBlur stdDeviation="1.2812"/>
  </filter>
  <pattern id="c" width="3.2504" height="2.7861" patternTransform="translate(-298.3 240.9)" patternUnits="userSpaceOnUse">
   <g transform="matrix(.03317 0 0 .03317 21.89 -5.373)">
    <rect x="-658" y="162" width="32" height="28" style="opacity:.99"/>
    <rect x="-626" y="190" width="32" height="28" style="opacity:.99"/>
    <rect x="-594" y="162" width="32" height="28" style="opacity:.99"/>
    <rect x="-594" y="218" width="32" height="28" style="opacity:.99"/>
    <rect x="-660" y="218" width="32" height="28" style="opacity:.99"/>
   </g>
  </pattern>
  <filter id="g" x="-.1202" y="-.08154" width="1.24" height="1.163">
   <feGaussianBlur stdDeviation="3.1826"/>
  </filter>
  <linearGradient id="d" x1="127.3" x2="127.3" y1="16.18" y2="119" gradientTransform="matrix(3.844 0 0 4.917 -235.7 -297.6)" gradientUnits="userSpaceOnUse">
   <stop style="stop-color:#fff" offset="0"/>
   <stop style="stop-color:#fff;stop-opacity:0" offset="1"/>
  </linearGradient>
  <linearGradient id="b" x1="124.4" x2="122.3" y1="132" y2="92.97" gradientTransform="matrix(2.922 0 0 2.922 -46.52 -148.3)" gradientUnits="userSpaceOnUse">
   <stop offset="0"/>
   <stop style="stop-opacity:0" offset="1"/>
  </linearGradient>
 </defs>
 <ellipse transform="matrix(4.833 0 0 6.642 -217.3 -316.4)" cx="97.93" cy="88.06" rx="51.97" ry="33.94" style="fill:#7b7b7b;filter:url(#f);opacity:.99;stroke-linejoin:round;stroke-width:.497;stroke:#8f8f8f"/>
 <ellipse cx="254.8" cy="252.7" rx="250.5" ry="227.7" style="fill:#3e5495;opacity:.99;stroke-linejoin:round;stroke-width:2;stroke:#3d5292"/>
 <ellipse cx="253.4" cy="239.6" rx="246.8" ry="215.2" style="fill:#4962ae;opacity:.99"/>
 <text transform="matrix(3.247,0,0,2.63,709.2,-155.8)" x="-181.64458" y="178.59599" style="fill:#fff0ff;filter:url(#g);font-family:'Bitstream Vera Sans';line-height:0%;stroke-width:5.133;stroke:#fff0ff" xml:space="preserve"><tspan x="-181.64458" y="178.59599" style="fill:#fff0ff;font-family:'Courier 10 Pitch';font-size:144px;line-height:125%;stroke-width:5.133;stroke:#fff0ff">S</tspan></text>
 <text transform="scale(1.111 .9001)" x="107.44498" y="348.88443" style="fill:#4962ae;font-family:'Bitstream Vera Sans';font-size:24.77px;line-height:0%;stroke-width:1.026px" xml:space="preserve"><tspan x="107.44498" y="348.88443" style="fill:#4962ae;font-family:'Courier 10 Pitch';font-size:420.8px;line-height:125%;stroke-width:1.026px">S</tspan></text>
 <text transform="scale(1.111 .9001)" x="107.44498" y="348.88443" style="fill:url(#b);font-family:'Bitstream Vera Sans';font-size:24.77px;line-height:0%;stroke-width:1.026px" xml:space="preserve"><tspan x="107.44498" y="348.88443" style="fill:url(#b);font-family:'Courier 10 Pitch';font-size:420.8px;line-height:125%;stroke-width:1.026px">S</tspan></text>
 <text transform="scale(1.111 .9001)" x="107.44498" y="348.88443" style="fill:url(#a);font-family:'Bitstream Vera Sans';font-size:24.77px;line-height:0%;stroke-width:1.026px" xml:space="preserve"><tspan x="107.44498" y="348.88443" style="fill:url(#a);font-family:'Courier 10 Pitch';font-size:420.8px;line-height:125%;stroke-width:1.026px">S</tspan></text>
 <path d="m258.5 35.29c-139 2.406-234.9 93.86-235.6 188.2 147 42.01 312.8 44.56 463.4-7.024-12.91-105-120.6-183.1-227.9-181.2z" style="fill-rule:evenodd;fill:url(#d)"/>
 <path transform="matrix(4.072 0 0 4.337 -261.9 -272.9)" d="m91.47 127 0.4781 21.56h74.58" style="fill:none;filter:url(#e);stroke-width:5.949;stroke:#ffffff"/>
 <path d="m110.7 283.6 1.909 87.44h297.8" style="fill:none;stroke-width:15;stroke:#000"/>
</svg>
