<?xml version="1.0" encoding="UTF-8"?>
<svg width="512" height="512" version="1.1" viewBox="0 0 512 512" xmlns="http://www.w3.org/2000/svg">
 <rect width="512" height="512" rx="50" ry="50" style="fill:#6ba4e7;stroke-linejoin:bevel;stroke-width:30"/>
 <path d="m299 336q0-14.8-47.1-44l-88.1-55.3q-47.1-34.3-47.1-60.4 0-52.7 92.7-84 70.1-23.6 136-23.6 72.7 0 72.7 18.4 0 5.12-7.17 10.2-6.66 4.61-12.8 5.63-66.6 13.3-94.7 22.5-73.7 24.1-73.7 53.8 0 16.9 51.7 49.7 32.8 20 97.3 60.4 52.2 34.3 52.2 60.4 0 34.3-65.5 60.4-42.5 16.9-95.7 26.1-39.4 6.66-99.3 6.66-90.1 0-89.6-20l0.512-3.58q1.02-6.14 13.8-12.8 8.19-4.1 65.5-15.9 63.5-12.8 91.6-22 46.6-14.8 46.6-32.8z" fill="#f2f2f2"/>
</svg>
