<svg xmlns="http://www.w3.org/2000/svg" version="1.1" xmlns:xlink="http://www.w3.org/1999/xlink" width="512" height="512"> 
          <rect id="rounded-rectangle" x="5" y="5" height="500" width="500" fill="white" rx="150" stroke-width="10">
          </rect>
          <svg x="0" y="100"  width="500" height="500" viewBox="0 0 400 400" >
              <path fill="#ba3925" id="path1" d="M200.000 160.099 C 196.906 161.206,195.945 169.231,198.577 171.977 C 201.358 174.878,207.791 174.522,209.869 171.352 C 211.457 168.929,210.674 161.671,208.688 160.417 C 207.495 159.663,201.801 159.455,200.000 160.099 M119.422 161.182 C 116.744 162.947,116.639 164.158,116.169 198.600 L 115.885 219.400 116.978 223.400 C 119.155 231.373,122.647 234.831,130.556 236.849 C 140.281 239.330,146.025 237.914,145.987 233.046 C 145.960 229.458,143.766 228.261,136.709 227.985 C 130.574 227.744,130.101 227.561,127.751 224.498 C 125.913 222.105,125.886 221.586,125.973 191.387 L 126.052 163.774 125.159 162.639 C 123.515 160.548,121.254 159.974,119.422 161.182 M46.617 167.266 C 28.908 172.668,26.783 192.797,43.000 201.527 C 44.320 202.237,46.390 203.370,47.600 204.044 C 48.810 204.718,51.414 206.001,53.386 206.895 C 60.236 209.999,63.051 212.285,64.372 215.818 C 69.512 229.554,47.658 235.936,41.150 222.600 C 39.230 218.666,38.491 218.000,36.045 218.000 C 31.404 218.000,30.161 223.182,33.409 228.989 C 41.594 243.626,65.223 242.806,72.725 227.625 L 74.200 224.641 74.195 219.221 C 74.185 209.167,70.220 204.293,56.873 197.928 C 47.678 193.543,46.730 193.016,44.933 191.292 C 42.687 189.137,42.000 187.492,42.000 184.272 C 42.000 174.668,59.235 172.574,63.992 181.600 C 68.056 189.311,76.216 185.014,72.414 177.165 C 68.004 168.060,57.380 163.984,46.617 167.266 M340.020 170.719 C 338.644 172.095,338.002 174.819,337.994 179.320 C 337.986 183.758,337.993 183.751,333.315 184.040 C 327.475 184.401,325.137 186.194,325.732 189.856 C 326.215 192.836,328.251 194.000,332.980 194.000 C 338.408 194.000,338.021 192.716,337.954 210.505 L 337.898 225.400 339.157 228.987 C 341.282 235.040,343.530 237.209,349.333 238.801 C 360.367 241.828,372.101 235.682,366.439 229.841 C 364.613 227.956,363.442 227.764,360.563 228.879 C 357.410 230.099,351.970 230.186,350.284 229.043 C 347.347 227.052,346.852 222.604,347.465 203.689 C 347.803 193.257,346.855 194.247,356.746 194.000 L 364.758 193.800 366.175 192.426 C 368.438 190.230,368.462 187.844,366.241 185.895 C 364.354 184.239,363.083 184.000,356.113 183.994 C 347.614 183.986,348.244 184.485,348.000 177.582 L 347.800 171.933 346.494 170.767 C 344.640 169.111,341.650 169.089,340.020 170.719 M186.958 184.419 C 183.108 185.577,182.099 190.072,185.063 192.860 C 186.012 193.753,186.409 193.810,192.971 194.000 C 197.882 194.142,200.066 194.354,200.520 194.732 C 201.086 195.203,201.172 197.501,201.279 214.932 C 201.389 232.814,201.464 234.717,202.104 235.888 C 203.470 238.387,206.658 238.830,208.894 236.833 L 210.200 235.666 210.321 212.333 C 210.454 186.631,210.465 186.768,208.105 185.200 C 206.474 184.116,189.988 183.508,186.958 184.419 M274.600 184.254 C 270.561 185.321,267.294 186.541,265.226 187.753 C 262.057 189.610,261.510 189.583,260.114 187.500 C 258.509 185.105,256.367 184.361,254.170 185.435 C 251.492 186.745,251.592 185.646,251.701 212.744 L 251.800 237.288 253.185 238.444 C 255.051 240.002,256.948 240.002,258.815 238.444 L 260.200 237.289 260.400 222.722 L 260.600 208.155 262.095 205.131 C 267.226 194.757,279.205 190.332,285.375 196.533 C 288.905 200.082,289.263 202.220,289.559 221.533 L 289.800 237.267 291.106 238.433 C 292.887 240.023,294.919 240.027,296.815 238.443 L 298.200 237.287 298.200 219.143 L 298.200 201.000 296.903 197.488 C 294.424 190.772,290.972 187.287,284.869 185.339 C 281.893 184.389,276.317 183.800,274.600 184.254 " stroke="none" fill-rule="evenodd">
              </path>
          </svg>
         <svg x="105" y="0"  height="300" width="300" viewBox="15 28 58 33">
             <path fill="#2378f0" fill-rule="evenodd" clip-rule="evenodd" d="M47.279 36.845A8.01 8.01 0 1 0 41.706 51.86z">
             </path>
             <path fill="#2378f0" fill-rule="evenodd" clip-rule="evenodd" d="M60.773 35.077C51.8 29.151 46.78 28.94 44.922 28.964 43.062 28.987 38.599 28.546 29.209 34.705S16.176 41.303 15.755 41.287V46.882S22.05 48.675 28.791 53.278 39.366 59.623 44.946 59.552C50.523 59.481 55.823 57.25 61.332 52.881S72.489 46.978 73.768 46.931V41.286C73.767 41.287 69.745 41.005 60.773 35.077M65.517 44.68L65.461 44.682C65.329 44.697 65.194 44.722 65.04 44.765 63.485 45.247 59.825 47.748 55.684 50.397 51.036 53.374 48.223 54.139 44.69 54.188 41.154 54.233 38.275 53.582 32.232 49.537 26.19 45.493 23.935 44.68 23.935 44.68V44.608H23.934V43.84C25.072 43.886 29.117 41.098 33.767 38.122 38.415 35.145 41.227 34.38 44.761 34.331 48.296 34.286 51.176 34.937 57.219 38.982 63.261 43.026 65.516 43.839 65.516 43.839V43.911H65.518z">
             </path>
         </svg>
</svg>



