<svg xmlns="http://www.w3.org/2000/svg" version="1.1" xmlns:xlink="http://www.w3.org/1999/xlink" width="512" height="512"> 
          <rect id="rounded-rectangle" x="5" y="5" height="500" width="500" fill="white" rx="150" stroke-width="10">
          </rect>
         <svg x="28" y="28"  height="450" width="450" viewBox="15 28 58 33">
             <path fill="#2378f0" fill-rule="evenodd" clip-rule="evenodd" d="M47.279 36.845A8.01 8.01 0 1 0 41.706 51.86z">
             </path>
             <path fill="#2378f0" fill-rule="evenodd" clip-rule="evenodd" d="M60.773 35.077C51.8 29.151 46.78 28.94 44.922 28.964 43.062 28.987 38.599 28.546 29.209 34.705S16.176 41.303 15.755 41.287V46.882S22.05 48.675 28.791 53.278 39.366 59.623 44.946 59.552C50.523 59.481 55.823 57.25 61.332 52.881S72.489 46.978 73.768 46.931V41.286C73.767 41.287 69.745 41.005 60.773 35.077M65.517 44.68L65.461 44.682C65.329 44.697 65.194 44.722 65.04 44.765 63.485 45.247 59.825 47.748 55.684 50.397 51.036 53.374 48.223 54.139 44.69 54.188 41.154 54.233 38.275 53.582 32.232 49.537 26.19 45.493 23.935 44.68 23.935 44.68V44.608H23.934V43.84C25.072 43.886 29.117 41.098 33.767 38.122 38.415 35.145 41.227 34.38 44.761 34.331 48.296 34.286 51.176 34.937 57.219 38.982 63.261 43.026 65.516 43.839 65.516 43.839V43.911H65.518z">
             </path>
         </svg>
</svg>





