<?xml version="1.0" encoding="UTF-8"?>
<!DOCTYPE svg PUBLIC "-//W3C//DTD SVG 1.1//EN" "http://www.w3.org/Graphics/SVG/1.1/DTD/svg11.dtd">
<svg xmlns="http://www.w3.org/2000/svg" version="1.1" width="268px" height="321px" style="shape-rendering:geometricPrecision; text-rendering:geometricPrecision; image-rendering:optimizeQuality; fill-rule:evenodd; clip-rule:evenodd" xmlns:xlink="http://www.w3.org/1999/xlink">
<g><path style="opacity:1" fill="#fefefe" d="M -0.5,-0.5 C 88.8333,-0.5 178.167,-0.5 267.5,-0.5C 267.5,106.5 267.5,213.5 267.5,320.5C 178.167,320.5 88.8333,320.5 -0.5,320.5C -0.5,213.5 -0.5,106.5 -0.5,-0.5 Z"/></g>
<g><path style="opacity:1" fill="#142bfe" d="M 174.5,67.5 C 178.691,66.8686 180.525,68.5352 180,72.5C 155.058,95.4406 130.725,119.107 107,143.5C 106.294,145.971 106.627,148.305 108,150.5C 115.333,159.167 123.333,167.167 132,174.5C 132.684,175.784 132.517,176.951 131.5,178C 129.5,178.667 127.5,178.667 125.5,178C 111.312,171.493 96.8125,165.66 82,160.5C 76.6003,158.217 71.4336,155.551 66.5,152.5C 64.556,147.833 65.556,144 69.5,141C 104.916,116.97 139.916,92.4702 174.5,67.5 Z"/></g>
<g><path style="opacity:1" fill="#112afe" d="M 133.5,142.5 C 154.732,149.968 175.732,158.135 196.5,167C 200.582,171.551 200.249,175.884 195.5,180C 160.833,204 126.167,228 91.5,252C 89.6547,253.128 87.6547,253.628 85.5,253.5C 85.2011,251.396 85.5344,249.396 86.5,247.5C 110.912,224.754 134.578,201.421 157.5,177.5C 158.724,175.102 158.558,172.769 157,170.5C 150,162.167 142.333,154.5 134,147.5C 132.481,145.861 132.314,144.194 133.5,142.5 Z"/></g>
</svg>
