<?xml version="1.0" encoding="UTF-8"?>
<svg width="512" height="512" version="1.1" viewBox="0 0 512 512" xmlns="http://www.w3.org/2000/svg">
 <defs>
  <radialGradient id="e" cx="23.33" cy="41.64" r="22.63" gradientTransform="matrix(7.777 0 0 2.084 65.12 207.3)" gradientUnits="userSpaceOnUse">
   <stop style="stop-color:#000000" offset="0"/>
   <stop style="stop-color:#000000;stop-opacity:0" offset="1"/>
  </radialGradient>
  <linearGradient id="n" x1="15" x2="32.51" y1="11.19" y2="34.31" gradientTransform="matrix(9.255 0 0 9.307 24.49 -50.11)" gradientUnits="userSpaceOnUse">
   <stop style="stop-color:#EBEBEB" offset="0"/>
   <stop style="stop-color:#FFFFFF" offset=".5"/>
   <stop style="stop-color:#EBEBEB" offset="1"/>
  </linearGradient>
  <linearGradient id="m" x1="12.27" x2="35.39" y1="32.42" y2="14.2" gradientTransform="matrix(9.255 0 0 9.307 24.49 -50.11)" gradientUnits="userSpaceOnUse">
   <stop style="stop-color:#FBFBFB" offset="0"/>
   <stop style="stop-color:#B6B6B6" offset=".5"/>
   <stop style="stop-color:#E4E4E4" offset="1"/>
  </linearGradient>
  <linearGradient id="l" x1="25.99" x2="15.89" y1="24.92" y2="11.67" gradientTransform="matrix(7.777 0 0 7.821 61.89 -22.89)" gradientUnits="userSpaceOnUse">
   <stop style="stop-color:#ffffff" offset="0"/>
   <stop style="stop-color:#ffffff;stop-opacity:0" offset="1"/>
  </linearGradient>
  <linearGradient id="k" x1="10.5" x2="48.8" y1="3.61" y2="54.7" gradientTransform="matrix(7.777 0 0 7.821 57.34 -30.55)" gradientUnits="userSpaceOnUse">
   <stop style="stop-color:#ffffff" offset="0"/>
   <stop style="stop-color:#ffffff;stop-opacity:0" offset="1"/>
  </linearGradient>
  <linearGradient id="j" x1="28.7" x2="17.74" y1="31.49" y2="18.37" gradientTransform="matrix(7.777 0 0 7.821 58.03 -29.86)" gradientUnits="userSpaceOnUse">
   <stop style="stop-color:#ffffff" offset="0"/>
   <stop style="stop-color:#ffffff;stop-opacity:0" offset="1"/>
  </linearGradient>
  <radialGradient id="d" cx="8" cy="17" r="8" gradientTransform="matrix(9.853 0 0 2.693 310.9 259.7)" gradientUnits="userSpaceOnUse">
   <stop style="stop-color:black" offset="0"/>
   <stop style="stop-color:black;stop-opacity:0" offset="1"/>
  </radialGradient>
  <radialGradient id="c" cx="24" cy="22.14" r="19.5" gradientTransform="matrix(3.281 0 0 3.418 311 175.6)" gradientUnits="userSpaceOnUse">
   <stop style="stop-color:#eeeeec" offset="0"/>
   <stop style="stop-color:#eeeeec" offset=".5"/>
   <stop style="stop-color:white" offset=".7831"/>
   <stop style="stop-color:#d3d7cf" offset="1"/>
  </radialGradient>
  <linearGradient id="i" x1="6.055" x2="4.483" y1="6.312" y2="4.74" gradientTransform="matrix(6.562 0 0 6.84 317.5 179.6)" gradientUnits="userSpaceOnUse">
   <stop style="stop-color:#ef2929" offset="0"/>
   <stop style="stop-color:#ef2929;stop-opacity:0" offset="1"/>
  </linearGradient>
  <linearGradient id="h" x1="6.43" x2="8.122" y1="15.97" y2="14.28" gradientTransform="matrix(6.562 0 0 6.84 317.5 179.6)" gradientUnits="userSpaceOnUse">
   <stop style="stop-color:#ef2929" offset="0"/>
   <stop style="stop-color:#ef2929;stop-opacity:0" offset="1"/>
  </linearGradient>
  <linearGradient id="g" x1="15.29" x2="17.42" y1="6.444" y2="4.318" gradientTransform="matrix(6.562 0 0 6.84 317.5 179.6)" gradientUnits="userSpaceOnUse">
   <stop style="stop-color:#ef2929" offset="0"/>
   <stop style="stop-color:#ef2929;stop-opacity:0" offset="1"/>
  </linearGradient>
  <linearGradient id="f" x1="15.82" x2="14.37" y1="15.99" y2="14.54" gradientTransform="matrix(6.562 0 0 6.84 317.5 179.6)" gradientUnits="userSpaceOnUse">
   <stop style="stop-color:#ef2929" offset="0"/>
   <stop style="stop-color:#ef2929;stop-opacity:0" offset="1"/>
  </linearGradient>
  <radialGradient id="b" cx="7.593" cy="3.155" r="8.462" gradientTransform="matrix(20.08 0 0 21.04 216 134.1)" gradientUnits="userSpaceOnUse">
   <stop style="stop-color:white" offset="0"/>
   <stop style="stop-color:white;stop-opacity:.3393" offset="1"/>
  </radialGradient>
  <radialGradient id="a" cx="10.86" cy="16.15" r="8.714" gradientTransform="matrix(9.006 0 0 9.422 299.7 126.6)" gradientUnits="userSpaceOnUse">
   <stop style="stop-color:white" offset="0"/>
   <stop style="stop-color:white;stop-opacity:0" offset="1"/>
  </radialGradient>
 </defs>
 <g>
  <path d="m422.6 294.1a176 47.17 0 1 1-351.9 0 176 47.17 0 1 1 351.9 0z" style="fill-rule:evenodd;fill:url(#e);opacity:.55;stroke-width:2.125"/>
  <path d="m246.7 2.031c-89.83 0-162 72.63-162 162.9 0 90.34 72.22 162.9 162 162.9s162-72.63 162-162.9c0-90.34-72.22-162.9-162-162.9zm0 202c-21.29 0-38.89-17.69-38.89-39.11s17.59-39.11 38.89-39.11c21.29 0 38.89 17.69 38.89 39.11s-17.59 39.11-38.89 39.11z" style="fill:url(#n);stroke-width:2.058"/>
  <path d="m246.7 2.031c-89.83 0-162 72.63-162 162.9 0 90.34 72.22 162.9 162 162.9s162-72.63 162-162.9c0-90.34-72.22-162.9-162-162.9zm0 202c-21.29 0-38.89-17.69-38.89-39.11s17.59-39.11 38.89-39.11c21.29 0 38.89 17.69 38.89 39.11s-17.59 39.11-38.89 39.11z" style="fill:url(#m);stroke-width:2.058;stroke:#808080"/>
  <path d="m240.1 6.927c-83.68 3.175-150.1 72.09-150.1 157.1 0 38.53 13.59 73.54 36.3 100.8l86.48-73.6c-5.61-6.596-8.158-15.98-8.158-25.23 0-26.51 17.92-43.54 43.3-43.54 11.54 0 23.11 5.267 30.01 13.66l88.43-72.62c-28.58-34.6-71.89-56.52-120.4-56.52-2.028 0-3.845-0.07618-5.854 0z" style="fill:url(#l);stroke-width:2.058"/>
  <path d="m246.7 85.93c-43.89 0-78.55 35.92-78.55 79 0 44.14 35.72 79 78.55 79 43.89 0 78.55-35.92 78.55-79 0-44.14-35.72-79-78.55-79zm0 122.2c-23.47 0-42.86-19.5-42.86-43.1s19.39-43.1 42.86-43.1c23.47 0 42.86 19.5 42.86 43.1s-19.39 43.1-42.86 43.1z" fill="#eeeeec;opacity:.511;stroke-width:2.058"/>
  <path d="m246.7 10.13c-85.32 0-154 69.02-154 154.9 0 85.8 68.63 154.9 154 154.9s154-69.02 154-154.9c0-85.8-68.63-154.9-154-154.9z" style="fill:none;opacity:.5464;stroke-width:2.058;stroke:url(#k)"/>
  <path d="m294.5 165.1a47.44 47.71 0 1 1-94.88 0 47.44 47.71 0 1 1 94.88 0z" style="fill:none;opacity:.6721;stroke-width:1.915;stroke:url(#j)"/>
 </g>
 <g>
  <path d="m366.8 210.4c0 11.33-15.44 30.58-19.69 20.52-8.167-19.34-20.35-1.927-26.1-13.39-5.687-11.33 21.11-11.96 23.73-22.55 3.779-15.28 22.05 4.102 22.05 15.43z" style="fill:none;stroke-dashoffset:1.2;stroke-linecap:round;stroke-width:2.606;stroke:#edd400"/>
  <path d="m453.4 215c13.86 7.926-10.12 15.93-20.99 15.93s-19.69-9.193-19.69-20.52c0-11.33 15.73-21.23 25.88-14.29 10 6.837 0.7689 10.86 14.79 18.88z" style="fill:none;stroke-dashoffset:1.2;stroke-linecap:round;stroke-width:2.606;stroke:#edd400"/>
  <path d="m468.6 305.4a78.82 21.55 0 1 1-157.6 0 78.82 21.55 0 1 1 157.6 0z" style="fill:url(#d);opacity:.5;stroke-width:1.72"/>
  <path d="m366.8 299.3c-11.81 3.771-13.24 29.11-22.55 22.1-9.853-7.41 1.791-20.66-13.62-18.56-15.35 2.092-5.023-19.24 16.49-24.07 10.61-2.377 19.69 9.193 19.69 20.52z" style="fill:none;stroke-dashoffset:1.2;stroke-linecap:round;stroke-width:2.606;stroke:#edd400"/>
  <path d="m451.2 301.1c-16.7 4.718-4.35 18.75-16.22 20.35-11.4 1.529-16.11-11.95-17.64-22.17-1.517-10.16 6.8-27.63 15.05-20.52 7.097 6.124 35.63 17.59 18.81 22.34z" style="fill:none;stroke-dashoffset:1.2;stroke-linecap:round;stroke-width:2.606;stroke:#edd400"/>
  <path d="m366.8 210.4c0 11.33-15.44 30.58-19.69 20.52-8.167-19.34-20.35-1.927-26.1-13.39-5.687-11.33 21.11-11.96 23.73-22.55 3.779-15.28 22.05 4.102 22.05 15.43z" style="fill:none;stroke-dashoffset:1.2;stroke-linecap:round;stroke-width:.8684;stroke:#ffffff"/>
  <path d="m453.4 215c13.86 7.926-10.12 15.93-20.99 15.93s-19.69-9.193-19.69-20.52c0-11.33 15.73-21.23 25.88-14.29 10 6.837 0.7689 10.86 14.79 18.88z" style="fill:none;stroke-dashoffset:1.2;stroke-linecap:round;stroke-width:.8684;stroke:#ffffff"/>
  <path d="m366.8 299.3c-11.81 3.771-13.24 29.11-22.55 22.1-9.853-7.41 1.791-20.66-13.62-18.56-15.35 2.092-5.023-19.24 16.49-24.07 10.61-2.377 19.69 9.193 19.69 20.52z" style="fill:none;stroke-dashoffset:1.2;stroke-linecap:round;stroke-width:.8684;stroke:#ffffff"/>
  <path d="m451.2 301.1c-16.7 4.718-4.35 18.75-16.22 20.35-11.4 1.529-16.11-11.95-17.64-22.17-1.517-10.16 6.8-27.63 15.05-20.52 7.097 6.124 35.63 17.59 18.81 22.34z" style="fill:none;stroke-dashoffset:1.2;stroke-linecap:round;stroke-width:.8684;stroke:#ffffff"/>
  <path d="m389.7 189.9c-34.42 0-62.34 29.11-62.34 65 0 35.87 27.93 65 62.34 65 34.42 0 62.34-29.11 62.34-65 0-35.87-27.93-65-62.34-65zm0 34.22c16.3 0 29.53 13.79 29.53 30.78s-13.23 30.78-29.53 30.78-29.53-13.79-29.53-30.78 13.23-30.78 29.53-30.78z" style="fill:url(#c);stroke-dashoffset:1.2;stroke-linecap:round;stroke-linejoin:round;stroke-width:.8684;stroke:#888a85"/>
  <path d="m364.7 195.4c-14.25 6.543-25.71 18.49-31.99 33.36 13.11-0.1559 21.62 6.616 29.94 13.68 2.972-7.012 8.449-12.72 15.17-15.82-2.366-11.85-6.487-22.43-13.12-31.21z" style="fill-rule:evenodd;fill:url(#i);stroke-width:.8684"/>
  <path d="m362.7 267.2c-9.981 2.564-19.96 3.242-29.94 13.68 6.277 14.85 17.74 26.8 31.99 33.36 1.78-12.14 5.187-23.2 13.12-31.21-6.726-3.098-12.2-8.807-15.17-15.82z" style="fill:url(#h);stroke-width:.8684"/>
  <path d="m414.7 195.4c-6.395 8.371-11.84 17.7-13.12 31.21 6.726 3.098 12.2 8.807 15.17 15.82 10.43-8.651 20.54-14.34 29.94-13.68-6.277-14.85-17.74-26.8-31.99-33.36z" style="fill-rule:evenodd;fill:url(#g);stroke-width:.8684"/>
  <path d="m416.8 267.2c-2.972 7.012-8.449 12.72-15.17 15.82 6.631 8.133 10.61 18.94 13.12 31.21 14.25-6.543 25.71-18.49 31.99-33.36-7.1-8.038-17.7-11.85-29.94-13.68z" style="fill-rule:evenodd;fill:url(#f);stroke-width:.8684"/>
  <path d="m362.7 242.4c2.972-7.012 8.449-12.72 15.17-15.82m-13.12-31.21c-14.25 6.543-25.71 18.49-31.99 33.36" style="fill:none;stroke-linecap:round;stroke-width:.8684px;stroke:#a40000"/>
  <path d="m446.7 228.8c-6.277-14.85-17.74-26.8-31.99-33.36m-13.12 31.21c6.726 3.098 12.2 8.807 15.17 15.82" style="fill:none;stroke-linecap:round;stroke-width:.8684px;stroke:#a40000"/>
  <path d="m416.8 267.2c-2.972 7.012-8.449 12.72-15.17 15.82m13.12 31.21c14.25-6.543 25.71-18.49 31.99-33.36" style="fill:none;stroke-linecap:round;stroke-width:.8684px;stroke:#a40000"/>
  <path d="m377.8 283.1c-6.726-3.098-12.2-8.807-15.17-15.82m-29.94 13.68c6.277 14.85 17.74 26.8 31.99 33.36" style="fill:none;stroke-dashoffset:1.2;stroke-linecap:round;stroke-width:.8684;stroke:#a40000"/>
  <ellipse cx="389.7" cy="254.8" rx="58.98" ry="61.69" style="fill:none;opacity:.4;stroke-dashoffset:1.2;stroke-linecap:round;stroke-width:.8685;stroke:url(#b)"/>
  <path d="m422.3 254.8a32.6 34 0 1 1-65.2 0 32.6 34 0 1 1 65.2 0z" style="fill:none;opacity:.8;stroke-dashoffset:1.2;stroke-linecap:round;stroke-width:.8683;stroke:url(#a)"/>
 </g>
 <g>
  <path d="m137.1 509.9c0-4.806-0.0557-9.416-0.1666-13.83-0.0557-4.416-0.1113-8.775-0.1666-13.08v-13.08c0.0557-4.358 0.1666-8.887 0.3336-13.58h7.086c4.726 8e-5 8.169 0.7265 10.34 2.18 2.223 1.397 3.334 3.911 3.334 7.543-4e-5 3.577-1.334 6.343-4 8.3-2.668 1.956-6.28 2.934-10.84 2.934h-2.501v4.945h2.084c1.779 0 3.223 0.1957 4.334 0.5868 1.167 0.3355 2.112 0.8385 2.834 1.509 0.7781 0.615 1.389 1.397 1.834 2.347 0.5002 0.8941 0.9728 1.872 1.417 2.934l8.668 20.29h6.334l-10.42-23.56c-0.2779-0.6146-0.5835-1.23-0.9171-1.845-0.3336-0.6706-0.7781-1.257-1.334-1.76-0.5559-0.559-1.251-1.062-2.084-1.509-0.7781-0.447-1.779-0.7825-3.001-1.006 4.668-0.8385 8.058-2.543 10.17-5.115 2.112-2.571 3.168-5.559 3.168-8.972-4e-5 -4.864-1.501-8.551-4.503-11.06-2.946-2.515-7.171-3.772-12.67-3.772h-15.09v58.6h5.751m43.3-21.88 0.0833-4.358h20.01c-0.1113-5.196-1.084-9.25-2.918-12.16-1.834-2.962-4.418-4.443-7.754-4.443-4 4e-5 -7.225 1.816-9.67 5.451-1.889 2.906-3.029 6.625-3.418 11.15v4.528c0.2779 5.532 1.528 9.837 3.751 12.91 2.557 3.521 6.169 5.281 10.84 5.281 1.167 0 2.39-0.1957 3.668-0.5868 1.278-0.3911 2.445-0.8385 3.501-1.341 1.111-0.559 2.056-1.118 2.834-1.677 0.8338-0.6146 1.389-1.118 1.667-1.509l2.584 3.605c-0.5559 0.559-1.417 1.202-2.584 1.928-1.167 0.6706-2.473 1.313-3.919 1.928-1.445 0.6146-2.946 1.118-4.503 1.509-1.501 0.447-2.862 0.6706-4.084 0.6706-6.392 0-11.22-2.068-14.51-6.204-3.223-4.192-4.837-10.2-4.837-18.02 0-3.465 0.4445-6.652 1.334-9.559 0.8891-2.962 2.112-5.505 3.668-7.628 1.556-2.18 3.418-3.884 5.585-5.115 2.167-1.23 4.53-1.844 7.086-1.845 5.835 4e-5 10.25 2.068 13.26 6.204 3.056 4.135 4.445 9.921 4.169 17.35l-0.0833 2.096-25.76-0.1676m58.85 9.559c-3e-5 -3.353-1.028-6.092-3.084-8.215-2.001-2.18-4.779-4.081-8.338-5.702-2.668-1.23-4.918-2.543-6.752-3.942-1.779-1.453-2.668-3.102-2.668-4.945 0-2.347 0.7225-4.22 2.167-5.617 1.445-1.397 3.668-2.096 6.668-2.096 1.612 4e-5 3.307 0.2235 5.086 0.6706 1.834 0.3914 3.362 0.8663 4.584 1.425l0.5835-4.443c-0.4445-0.2235-1.084-0.447-1.917-0.6706-0.7781-0.2795-1.667-0.5308-2.668-0.7543-1-0.2235-2.028-0.3911-3.084-0.503-1.056-0.1676-2.028-0.2513-2.917-0.2517-2.001 4e-5 -3.862 0.2795-5.585 0.8385-1.667 0.559-3.112 1.369-4.334 2.431-1.167 1.006-2.112 2.292-2.834 3.856-0.6668 1.509-1 3.242-1 5.196 0 1.845 0.3612 3.465 1.084 4.864 0.7225 1.342 1.64 2.515 2.751 3.521 1.112 1.006 2.334 1.872 3.668 2.599 1.334 0.7266 2.612 1.397 3.835 2.012s2.39 1.258 3.501 1.928c1.111 0.6146 2.084 1.313 2.918 2.096 0.8338 0.7825 1.473 1.705 1.917 2.766 0.5002 1.006 0.7501 2.18 0.7501 3.521-4e-5 1.174-0.2503 2.263-0.7501 3.269-0.5002 1.006-1.195 1.872-2.084 2.599s-1.917 1.313-3.084 1.76c-1.112 0.3915-2.334 0.5868-3.668 0.5868-1.167 0-2.362-0.112-3.585-0.3355-1.167-0.2235-2.251-0.4748-3.251-0.7543-1-0.3355-1.862-0.6706-2.584-1.006-0.7225-0.3355-1.195-0.6146-1.417-0.8385l-0.5835 5.196c1.056 0.6146 2.668 1.146 4.837 1.593 2.167 0.503 4.361 0.7543 6.587 0.7543 2.334 0 4.418-0.3355 6.253-1.006 1.889-0.6146 3.501-1.509 4.837-2.683 1.334-1.174 2.362-2.571 3.084-4.192 0.7225-1.677 1.084-3.521 1.084-5.532m37.15 5.281c-0.1666 0.2795-0.5282 0.6146-1.084 1.006-0.5559 0.3911-1.251 0.7825-2.084 1.174-0.8338 0.3355-1.779 0.6428-2.834 0.9223-1.056 0.2795-2.112 0.4192-3.168 0.4192-2.445 0-4.641-0.4752-6.587-1.425-1.945-1.006-3.612-2.375-5.002-4.108-1.389-1.789-2.473-3.884-3.251-6.289-0.7225-2.459-1.084-5.169-1.084-8.13 0-2.906 0.3612-5.559 1.084-7.964 0.7781-2.403 1.862-4.443 3.251-6.119 1.445-1.677 3.168-2.962 5.167-3.856 2.001-0.9501 4.253-1.425 6.752-1.425 0.8891 4e-5 1.779 0.112 2.668 0.3355 0.9447 0.1675 1.806 0.3914 2.584 0.6706 0.8338 0.2235 1.584 0.4752 2.251 0.7543 0.6668 0.2235 1.167 0.4192 1.501 0.5868l0.5002-4.945c-1.167-0.447-2.64-0.8663-4.418-1.257-1.779-0.447-3.724-0.6706-5.835-0.6706-3.168 4e-5 -6.058 0.5868-8.668 1.76-2.612 1.174-4.864 2.822-6.752 4.945-1.834 2.124-3.279 4.667-4.334 7.628-1 2.962-1.501 6.231-1.501 9.81 0 3.689 0.4726 7.015 1.417 9.976 1 2.962 2.39 5.505 4.169 7.628 1.779 2.124 3.946 3.772 6.503 4.945 2.557 1.118 5.42 1.677 8.587 1.677 2.834 0 5.086-0.3355 6.752-1.006 1.667-0.6146 2.973-1.341 3.919-2.18l-0.5002-4.864m42.88-39.3h-5.251v26.83c-4e-5 2.347-0.3056 4.528-0.9171 6.54-0.5559 1.956-1.389 3.633-2.501 5.03-1.112 1.397-2.445 2.487-4 3.269-1.556 0.7825-3.279 1.174-5.167 1.174-3.334 0-5.893-1.23-7.67-3.689-1.723-2.459-2.584-5.895-2.584-10.31v-28.84h-5.251v28.84c0 6.092 1.195 10.7 3.585 13.83 2.445 3.13 6.196 4.694 11.26 4.694 3.334 0 6.169-0.7543 8.503-2.263 2.334-1.565 4.084-3.772 5.251-6.625l0.0833 7.879h4.668v-46.36m19.23 24.48 0.0833-4.358h20.01c-0.1113-5.196-1.084-9.25-2.918-12.16-1.834-2.962-4.418-4.443-7.754-4.443-4 4e-5 -7.225 1.816-9.67 5.451-1.889 2.906-3.029 6.625-3.418 11.15v4.528c0.2779 5.532 1.528 9.837 3.751 12.91 2.557 3.521 6.169 5.281 10.84 5.281 1.167 0 2.39-0.1957 3.668-0.5868 1.278-0.3911 2.445-0.8385 3.501-1.341 1.111-0.559 2.056-1.118 2.834-1.677 0.8338-0.6146 1.389-1.118 1.667-1.509l2.584 3.605c-0.5559 0.559-1.417 1.202-2.584 1.928-1.167 0.6706-2.473 1.313-3.919 1.928-1.445 0.6146-2.946 1.118-4.503 1.509-1.501 0.447-2.862 0.6706-4.084 0.6706-6.392 0-11.22-2.068-14.51-6.204-3.223-4.192-4.837-10.2-4.837-18.02 0-3.465 0.4445-6.652 1.334-9.559 0.8891-2.962 2.112-5.505 3.668-7.628 1.556-2.18 3.418-3.884 5.585-5.115 2.167-1.23 4.53-1.844 7.086-1.845 5.835 4e-5 10.25 2.068 13.26 6.204 3.056 4.135 4.445 9.921 4.169 17.35l-0.0833 2.096-25.76-0.1676m58.31-7.377c0-3.856 0.5559-7.323 1.667-10.4 1.111-3.13 2.696-5.783 4.752-7.964 2.056-2.236 4.53-3.942 7.42-5.115 2.89-1.23 6.111-1.844 9.67-1.845 2.39 7e-5 4.726 0.2235 7.002 0.6706 2.279 0.3915 4.334 1.062 6.169 2.012l0.5835-5.281c-1.612-0.7266-3.585-1.313-5.919-1.76-2.334-0.447-5.002-0.6706-8.004-0.6706-4.334 4e-5 -8.307 0.7265-11.92 2.18-3.557 1.453-6.614 3.521-9.171 6.204-2.501 2.683-4.472 5.895-5.919 9.64-1.389 3.689-2.084 7.798-2.084 12.32 0 4.64 0.6948 8.829 2.084 12.57 1.389 3.689 3.334 6.845 5.835 9.474 2.557 2.627 5.639 4.667 9.252 6.119 3.612 1.397 7.67 2.096 12.17 2.096 2.668 0 5.14-0.2235 7.42-0.6706 2.334-0.447 4.418-1.174 6.253-2.18l-0.5002-4.864c-1.445 1.006-3.39 1.705-5.835 2.096-2.39 0.3911-4.864 0.5868-7.42 0.5868-3.612 0-6.864-0.5868-9.754-1.76-2.89-1.174-5.363-2.85-7.42-5.03-2.056-2.236-3.64-4.891-4.752-7.964-1.056-3.13-1.584-6.625-1.584-10.48m84.07 0c-7e-5 8.215-2.306 14.31-6.918 18.28-4.614 3.969-11.5 5.953-20.68 5.953h-4.584v-48.53h8.085c16.06 8e-5 24.09 8.103 24.09 24.31m-37.93-29.34v58.6h10.67c10.61 0 18.76-2.459 24.43-7.377 5.724-4.972 8.587-12.27 8.587-21.88-4e-5 -9.613-2.445-16.91-7.336-21.88-4.891-4.972-12.09-7.462-21.59-7.462h-14.76" fill="#2e3436;stroke-width:1.016"/>
  <path d="m80.27 415.7c-3.9e-5 -7.018-1.792-12.66-5.374-16.93-3.584-4.27-9.056-8.204-16.41-11.81-7.827-3.888-13.68-7.493-17.54-10.81-3.866-3.415-5.8-7.018-5.8-10.81-1.9e-5 -5.123 1.886-9.25 5.658-12.38 3.866-3.13 8.818-4.694 14.86-4.694 5.186 1.2e-4 9.148 0.427 11.88 1.281 2.83 0.8539 5.094 1.755 6.791 2.703l1.698-8.536c-5.374-2.656-12.12-3.984-20.23-3.984-4.246 8e-5 -8.253 0.664-12.03 1.992-3.678 1.233-6.887 2.988-9.62 5.266-2.735 2.182-4.906 4.837-6.507 7.968-1.509 3.035-2.264 6.308-2.264 9.817-8e-6 3.699 0.7547 7.065 2.264 10.1 1.603 2.941 3.631 5.598 6.085 7.968 2.547 2.277 5.374 4.362 8.488 6.262 3.207 1.897 6.461 3.652 9.762 5.266 3.301 1.613 6.131 3.178 8.488 4.694 2.358 1.518 4.292 3.083 5.8 4.694 1.509 1.613 2.593 3.367 3.254 5.266 0.7543 1.802 1.132 3.842 1.132 6.119-3.9e-5 2.751-0.5658 5.312-1.698 7.682-1.038 2.277-2.547 4.27-4.526 5.976-1.981 1.613-4.338 2.893-7.075 3.842-2.735 0.9485-5.704 1.423-8.914 1.423-2.547 0-4.998-0.1896-7.355-0.569-2.264-0.3795-4.338-0.8536-6.227-1.423-1.886-0.664-3.584-1.375-5.094-2.134-1.415-0.759-2.452-1.47-3.113-2.134l-0.9904 9.96c6.131 3.225 13.82 4.837 23.06 4.837 4.434 0 8.537-0.664 12.31-1.992 3.866-1.423 7.217-3.32 10.05-5.69 2.83-2.466 5.044-5.312 6.649-8.536 1.698-3.32 2.547-6.876 2.547-10.67m50.86-53.51-21.22 66.01-20.51-66.01h-9.478l25.61 77.83-2.688 10.38c-1.132 4.362-2.688 7.729-4.668 10.1-1.981 2.371-4.48 3.557-7.497 3.557l-6.507-1.138-0.7075 7.54c0.7547 0.1896 1.934 0.427 3.537 0.7115 1.698 0.2845 3.678 0.427 5.942 0.427 2.264-4e-5 4.338-0.6165 6.227-1.85 1.981-1.138 3.726-2.656 5.236-4.552 1.509-1.897 2.83-4.03 3.962-6.401 1.132-2.371 2.122-4.791 2.971-7.258l29.43-89.33h-9.62m65.18 57.75c-4e-5 -5.69-1.745-10.34-5.236-13.94-3.395-3.699-8.111-6.926-14.15-9.674-4.526-2.087-8.346-4.316-11.46-6.686-3.018-2.466-4.526-5.266-4.526-8.393 0-3.984 1.226-7.161 3.678-9.532 2.452-2.371 6.227-3.557 11.32-3.557 2.735 4e-5 5.612 0.3795 8.63 1.138 3.112 0.664 5.704 1.47 7.781 2.419l0.9904-7.54c-0.7547-0.3795-1.839-0.7586-3.254-1.138-1.321-0.4741-2.83-0.901-4.526-1.281-1.698-0.3795-3.443-0.664-5.236-0.8536-1.792-0.2845-3.443-0.4266-4.952-0.427-3.395 7e-5 -6.557 0.4744-9.478 1.423-2.83 0.9485-5.282 2.324-7.355 4.127-1.981 1.708-3.584 3.888-4.81 6.544-1.132 2.561-1.698 5.501-1.698 8.821 0 3.13 0.613 5.88 1.839 8.254 1.226 2.277 2.782 4.27 4.668 5.976 1.886 1.707 3.962 3.178 6.227 4.409 2.264 1.233 4.434 2.371 6.507 3.415 2.075 1.043 4.054 2.134 5.942 3.272 1.886 1.043 3.537 2.229 4.952 3.557 1.415 1.328 2.499 2.893 3.254 4.694 0.8488 1.707 1.273 3.699 1.273 5.976-4e-5 1.992-0.4246 3.842-1.273 5.548-0.8488 1.707-2.028 3.178-3.537 4.409-1.509 1.233-3.254 2.229-5.236 2.988-1.886 0.664-3.962 0.996-6.227 0.996-1.981 4e-5 -4.008-0.1896-6.084-0.569-1.981-0.3795-3.82-0.8061-5.516-1.281-1.698-0.569-3.16-1.138-4.384-1.707-1.226-0.569-2.028-1.043-2.405-1.423l-0.9904 8.821c1.792 1.043 4.526 1.945 8.207 2.703 3.678 0.8536 7.405 1.281 11.17 1.281 3.962 0 7.497-0.569 10.61-1.707 3.207-1.043 5.942-2.561 8.207-4.552 2.263-1.992 4.008-4.362 5.236-7.115 1.226-2.846 1.839-5.976 1.839-9.389m35.22 4.127v-54.2h16.55v-7.682h-16.55v-20.77l-8.914 3.13v17.64h-14.15v7.682h14.15v51.34c0 7.682 1.132 13.18 3.395 16.5 2.358 3.225 6.557 4.837 12.59 4.837 2.452 0 4.714-0.2845 6.791-0.8536 2.075-0.4741 3.395-0.8536 3.962-1.138l-0.2829-7.258c-0.7547 0.2845-1.792 0.664-3.112 1.138-1.226 0.3795-2.877 0.569-4.952 0.569-2.924 0-5.236-0.9485-6.933-2.846-1.698-1.897-2.547-4.602-2.547-8.111m42.88-20.34 0.1416-7.397h33.95c-0.1889-8.821-1.839-15.7-4.952-20.63-3.113-5.026-7.497-7.54-13.16-7.54-6.791 4e-5 -12.26 3.083-16.41 9.25-3.207 4.934-5.14 11.24-5.8 18.92v7.682c0.4714 9.389 2.594 16.69 6.365 21.91 4.338 5.976 10.47 8.964 18.39 8.964 1.981 4e-5 4.054-0.332 6.227-0.996 2.169-0.664 4.15-1.423 5.942-2.277 1.886-0.9485 3.49-1.897 4.81-2.846 1.415-1.043 2.358-1.897 2.83-2.561l4.384 6.119c-0.9432 0.9485-2.405 2.039-4.384 3.272-1.981 1.138-4.196 2.229-6.649 3.272-2.452 1.043-4.998 1.897-7.639 2.561-2.547 0.759-4.856 1.138-6.933 1.138-10.85 0-19.05-3.51-24.62-10.53-5.47-7.115-8.207-17.31-8.207-30.59 0-5.88 0.7547-11.29 2.264-16.22 1.509-5.026 3.584-9.342 6.227-12.95 2.641-3.699 5.8-6.594 9.478-8.678 3.678-2.087 7.685-3.13 12.03-3.13 9.904 8e-5 17.4 3.51 22.5 10.53 5.186 7.018 7.547 16.84 7.075 29.45l-0.1417 3.557-43.72-0.2845m157.9 37.13v-49.8c-1.1e-4 -9.771-1.981-17.31-5.942-22.62-3.866-5.312-9.62-7.968-17.26-7.968-6.035 8e-5 -10.99 1.47-14.86 4.409-3.866 2.846-6.695 6.733-8.488 11.67-0.8488-5.405-3.065-9.439-6.649-12.09-3.584-2.656-7.781-3.984-12.59-3.984-5.658 8e-5 -10.42 1.233-14.29 3.699-3.773 2.371-6.745 6.262-8.914 11.67v-13.66h-8.065v78.68h8.914v-44.24c-4e-5 -8.632 1.745-15.55 5.236-20.77 3.49-5.216 8.395-7.825 14.71-7.825 4.81 8e-5 8.537 2.04 11.17 6.119 2.735 4.081 4.104 9.582 4.104 16.5v50.22h8.914v-44.24c-8e-5 -8.632 1.745-15.55 5.236-20.77 3.489-5.216 8.395-7.825 14.71-7.825 4.81 8e-5 8.538 2.04 11.17 6.119 2.641 4.081 3.962 9.582 3.962 16.5v50.22h8.914" fill="#000000;stroke-width:1.016"/>
 </g>
</svg>
