<?xml version="1.0" encoding="UTF-8"?>
<svg width="512" height="512" version="1.1" viewBox="0 0 512 512" xmlns="http://www.w3.org/2000/svg">
 <path d="m511 256c0 141-114 255-255 255-141 0-255-114-255-255 0-141 114-255 255-255 141 0 255 114 255 255z" fill="#87a556"/>
 <path d="m256 100c-64.2 0-119 39.1-143 94.7l18.4 10.8c19.9-49.4 68.3-84.1 125-84.1 7.29 0 14.4 0.646 21.4 1.77v-21.7c-6.99-0.97-14.1-1.55-21.4-1.55zm63.9 13.7-0.111 23.8c3.54 1.9 6.95 4 10.3 6.2l20.1-11.8c-9.36-7.12-19.5-13.3-30.3-18.2zm-63.9 39.3c-44.7 0-83 28.9-97.1 69l19 11.3c9.77-33.9 40.8-58.7 78-58.7 7.36 0 14.5 0.956 21.2 2.77v-22c-6.87-1.46-14-2.32-21.2-2.32zm125 9.85-18.5 11c17.5 22.7 27.9 51.2 27.9 82.1 0 31.5-10.8 60.4-28.9 83.3l18.5 11c20-26.2 31.9-58.9 31.9-94.3 0-34.8-11.5-67.1-30.9-93.1zm-46.2 27.3-18.7 11c13.1 14.4 21.1 33.6 21.1 54.8 0 21.8-8.52 41.4-22.4 55.9l18.9 11.2c15.6-18 25-41.5 25-67.1 0-25-9.07-47.9-24-65.7zm-234 47c-0.769 6.13-1.22 12.4-1.22 18.7 0 6.32 0.479 12.5 1.22 18.6l20.5-12.1c-0.104-2.16-0.221-4.34-0.221-6.53s0.117-4.37 0.221-6.53zm76.7 41.4-19 11.2c14.1 40.1 52.3 69.1 97.1 69.1 7.27 0 14.4-0.866 21.2-2.32v-22.1c-6.78 1.78-13.9 2.77-21.2 2.77-37.2 0-68.3-24.6-78-58.5zm-46.9 27.7-18.4 10.8c23.9 55.6 79.1 94.7 143 94.7 7.18 0 14.2-0.589 21.1-1.55v-21.6c-6.89 1.09-13.9 1.66-21.1 1.66-56.6 0-105-34.7-125-84.1zm198 62.9c-2.86 1.83-5.86 3.58-8.85 5.2l-0.111 23.8c10.3-4.66 20.1-10.3 29.1-17z" fill="#fff"/>
 <path d="m299 70-0.111 117 99.2-58.5zm-223 128-0.111 117 99.2-58.5zm223 129-0.111 117 99.2-58.5z" fill="#fff"/>
</svg>
