<?xml version="1.0" encoding="UTF-8"?>
<svg width="512" height="512" version="1.1" viewBox="0 0 512 512" xmlns="http://www.w3.org/2000/svg">
 <circle cx="256" cy="256" r="255" fill="#404552"/>
 <path id="a" d="m344 300c-35 0-64.4 24.8-73.7 57.8-1.97 6.95-3.33 9.33-5.98 13.9-3.42 5.95-10.4 14.5-19.9 19.9-7.78 4.38-14.5 8.1-24.5 6.59-2.61-0.393-7.23-1.12-11.9-3.78-7.37-4.24-9.8-7.97-15.4-18.7 0.805 11.5-0.678 15.7 4.98 35.9 11.3 40.1 54.5 71.7 106 71.7 37.8 0 72.9-15.8 92.6-39.8 7.22-8.8 12.6-15.7 17.9-27.9 4.8-11 5.98-25.2 5.98-37.9 0.012-42.9-33.9-77.7-75.7-77.7z" fill="#fff"/>
 <path d="m131 125c-35.7-0.457-73.9 20.8-95.5 58.1-18.9 32.8-22.8 71-11.8 100 4.02 10.7 7.32 18.8 15.2 29.5 7.16 9.68 18.8 17.8 29.8 24.1 37.2 21.5 84.2 9.49 105-26.7v8e-3c17.5-30.3 10.7-68.2-13.2-92.7-5.03-5.18-6.42-7.55-9.09-12.1-3.44-5.93-7.41-16.2-7.29-27.2 0.0995-8.93 0.226-16.6 6.54-24.5 1.64-2.06 4.59-5.7 9.2-8.37 7.36-4.26 11.8-4.51 24-4-10.4-5.05-13.3-8.44-33.5-13.6-6.31-1.61-12.8-2.44-19.4-2.53z" fill="#fff"/>
 <path d="m324 39.4c-2.84 0.0662-5.86 0.268-9.14 0.642-12 1.36-24.8 7.43-35.8 13.7-37.2 21.5-50.3 68.2-29.4 104l-8e-3 -4e-3c17.5 30.3 53.7 43.3 86.9 34.9 7-1.77 9.74-1.79 15.1-1.8 6.86-0.0145 17.8 1.7 27.2 7.3 7.68 4.55 14.3 8.49 18 17.9 0.964 2.46 2.65 6.82 2.65 12.2 0.01 8.51-2 12.5-8.51 22.7 9.56-6.45 13.9-7.26 28.6-22.2 29.1-29.8 34.8-83.1 9.32-127-18.9-32.8-50.1-55.2-80.8-60.3-8.42-1.39-15.4-2.42-24-2.23z" fill="#fff"/>
</svg>
