<?xml version="1.0" encoding="UTF-8" standalone="no"?>
<svg xmlns:rdf="http://www.w3.org/1999/02/22-rdf-syntax-ns#" xmlns="http://www.w3.org/2000/svg" height="256" width="256" version="1.1" xmlns:cc="http://creativecommons.org/ns#" xmlns:xlink="http://www.w3.org/1999/xlink" viewBox="0 0 256 256" xmlns:dc="http://purl.org/dc/elements/1.1/">
 <title>budgie-remix Logo</title>
 <metadata>
  <rdf:RDF>
   <cc:Work rdf:about="">
    <dc:format>image/svg+xml</dc:format>
    <dc:type rdf:resource="http://purl.org/dc/dcmitype/StillImage"/>
    <dc:title>budgie-remix Logo</dc:title>
    <dc:creator>
     <cc:Agent>
      <dc:title>HEXcube and Joshua &quot;Foggalong&quot; Fogg</dc:title>
     </cc:Agent>
    </dc:creator>
    <cc:license rdf:resource="http://creativecommons.org/licenses/by-sa/4.0/"/>
    <dc:source>Budgie Logo by Yuri Henrique</dc:source>
    <dc:description>Official logo for budgie-remix</dc:description>
   </cc:Work>
  </rdf:RDF>
 </metadata>
 <circle cy="128" cx="128" r="128" fill="#404552"/>
 <path id="budgie" fill="#fff" d="m172 150c-17.556 0-32.315 12.472-37 29-0.98896 3.4889-1.6694 4.6841-3 7-1.7157 2.9862-5.1986 7.2988-10 10-3.9063 2.1976-7.2726 4.0674-12.303 3.3096-1.3094-0.19726-3.6295-0.56196-5.951-1.8976-3.7-2.13-4.92-4-7.75-9.41 0.40401 5.7738-0.34048 7.8803 2.5 18 5.6541 20.144 27.381 36 53 36 18.991 0 36.592-7.9151 46.496-19.998 3.6222-4.4191 6.3498-7.9058 9-14 2.4112-5.5448 3.0022-12.653 3.004-19.002 0.006-21.556-17.013-39-38-39z"/>
 <use xlink:href="#budgie" transform="matrix(-.5 .86603 -.86603 -.5 302.85 81.149)" height="100%" width="100%" y="0" x="0"/>
 <use xlink:href="#budgie" transform="matrix(-.5 -.86603 .86603 -.5 81.149 302.85)" height="100%" width="100%" y="0" x="0"/>
</svg>
