<?xml version="1.0" encoding="UTF-8"?>
<svg width="512" height="512" version="1.1" viewBox="0 0 512 512" xmlns="http://www.w3.org/2000/svg">
 <circle cx="256" cy="256" r="242" fill="#fff"/>
 <path d="m256 1c-141 0-254 114-254 254 0 141 114 256 254 256 141 0 254-115 254-256s-114-254-254-254zm53.2 39.4c2.76-0.347 5.67-0.798 8.52 0 38 10.6 70.4 29.3 98 57.5 2.4 2.39 4.28 6.37 5.32 9.58 1.99 5.96 0.835 11.9-2.13 17-1.78 3.1-4.22 5.52-7.45 7.45-8.63 5.15-19.7 4.14-26.6-3.19-23-23.6-47.1-38-78.8-46.8-11.4-3.19-17-15.2-13.8-26.6 2.39-8.54 8.75-13.9 17-14.9zm-54.3 66c38.7 0 77.1 14.2 106 43.7 58.8 58.8 58.8 155 0 214-58.8 58.8-154 58.8-213 0-5.28-5.13-8.26-13.1-6.39-20.2 1.87-7.12 7.78-12 14.9-13.8 7.12-1.87 15.1 0.0315 20.2 5.32 43.2 43.2 112 43.2 155 0 43.2-43.2 43.2-113 0-157-43.2-43.2-112-43.2-155 0-7.59 8.36-20.4 9.72-28.7 2.13-8.36-7.59-9.72-21.5-2.13-29.8 0.439-0.488 1.64-0.623 2.13-1.06 29.4-29.4 67.7-43.7 106-43.7zm0 70.3c20.6 0 40.8 7.83 56.4 23.4 31.2 31.2 31.2 82.7 0 114-31.2 31.2-81.7 31.2-113 0-31.2-31.2-31.2-82.7 0-114 15.6-15.6 35.8-23.4 56.4-23.4zm-194 7.45c3.57-0.0315 7.34 0.341 10.6 2.13 8.83 4.8 12.4 14.8 9.58 24.5-8.52 31.8-8.52 59.8 0 91.6 3.07 11.4-3.48 22.5-14.9 25.6-11.4 3.07-23.6-3.48-26.6-14.9-10.2-38.1-10.2-74.8 0-113 0.835-3.28 3.09-5.98 5.32-8.52 4.11-4.75 10-7.37 16-7.45zm64.9 18.1c4.33-0.443 8.86 0.798 12.8 3.19 7.83 4.79 12.1 14.6 9.58 23.4-5.42 20.2-5.42 36.2 0 56.4 2.92 10.9-4.01 22.6-14.9 25.6-10.9 2.92-21.6-4-24.5-14.9-7.03-26.2-7.03-51.5 0-77.7 0.961-3.81 2.45-7.97 5.32-10.6 3.35-3.14 7.38-4.88 11.7-5.32zm129 13.8c-10.4 0-20.7 4.75-28.7 12.8-16.1 16.1-16.1 41.4 0 57.5s41.4 16.1 57.5 0 16.1-41.4 0-57.5c-8.03-8.03-18.3-12.8-28.7-12.8zm139 164c4.68-0.638 9.54 0.603 13.8 3.19 3.23 1.94 5.69 4.35 7.45 7.45 2.94 5.17 4.14 12.2 2.13 18.1-1.06 3.21-2.92 6.14-5.32 8.52-27.7 28.1-59.9 45.9-98 56.4-11.4 3.14-23.5-3.5-26.6-14.9-3.14-11.4 3.5-22.4 14.9-25.6 31.7-8.77 55.7-23.4 78.8-46.8 3.45-3.65 8.09-5.75 12.8-6.39z" fill="#009bf9"/>
</svg>
