<?xml version="1.0" encoding="UTF-8"?>
<svg width="512" height="512" version="1.1" viewBox="0 0 512 512" xmlns="http://www.w3.org/2000/svg">
 <path d="m511 256c0 141-114 255-255 255s-255-114-255-255 114-255 255-255 255 114 255 255z" fill="#dd4814"/>
 <path d="m82.7 222c-18.9 0-34.1 15.2-34.1 34.1s15.2 34.1 34.1 34.1c18.9 0 34.1-15.2 34.1-34.1s-15.2-34.1-34.1-34.1zm243 154c-16.3 9.41-21.9 30.2-12.5 46.5 9.4 16.3 30.2 21.9 46.5 12.5 16.3-9.4 21.9-30.2 12.5-46.5-9.4-16.3-30.2-21.9-46.5-12.5zm-169-121c0-33.7 16.7-63.4 42.3-81.4l-24.9-41.7c-29.8 19.9-52 50.3-61.2 86 10.7 8.77 17.6 22.1 17.6 37.1 0 14.9-6.88 28.3-17.6 37.1 9.2 35.7 31.4 66.1 61.2 86l24.9-41.7c-25.6-18-42.3-47.8-42.3-81.4zm99.7-99.7c52 0 94.6 39.9 98.7 90.7l48.6-0.715c-2.38-37.5-18.8-71.2-44-95.9-13 4.89-27.9 4.14-40.8-3.31-13-7.47-21.1-20.1-23.3-33.8a149 149 0 0 0-39.6-5.37 148 148 0 0 0-65.6 15.3l23.6 42.4a98.7 98.7 0 0 1 41.9-9.25zm0 199a98.7 98.7 0 0 1-41.9-9.25l-23.6 42.4a148 148 0 0 0 65.6 15.3 148 148 0 0 0 39.6-5.39c2.22-13.7 10.4-26.3 23.3-33.8 12.9-7.46 27.8-8.2 40.8-3.31 25.2-24.8 41.6-58.4 44-95.9l-48.6-0.715c-4.46 50.8-47.1 90.7-98.7 90.7zm69.7-220c16.3 9.41 37.1 3.84 46.5-12.4 9.41-16.3 3.84-37.1-12.4-46.5-16.3-9.4-37.1-3.82-46.5 12.5-9.4 16.3-3.81 37.1 12.5 46.5z" fill="#fff"/>
</svg>
