<?xml version="1.0" encoding="UTF-8" standalone="no"?>
<svg xmlns:sketch="http://www.bohemiancoding.com/sketch/ns" xmlns="http://www.w3.org/2000/svg" height="59px" width="59px" version="1.1" xmlns:xlink="http://www.w3.org/1999/xlink" viewBox="0 0 59 59"><!-- Generator: Sketch 3.4.2 (15855) - http://www.bohemiancoding.com/sketch -->
 <title>Group</title>
 <desc>Created with Sketch.</desc>
 <g id="Page-1" fill-rule="evenodd" sketch:type="MSPage" fill="none">
  <g id="Group" transform="translate(0.714 0.714)" sketch:type="MSLayerGroup">
   <circle id="Oval" sketch:type="MSShapeGroup" cy="29.041" cx="29.041" r="28.928" fill="#DD4814"/>
   <path id="Shape" sketch:type="MSShapeGroup" fill="#fff" d="m9.3714 25.178c-2.1338 0-3.8633 1.729-3.8633 3.863 0 2.133 1.7295 3.863 3.8633 3.863 2.1336 0 3.8626-1.73 3.8626-3.863-0.002-2.134-1.73-3.863-3.8626-3.863zm27.576 17.554c-1.848 1.067-2.481 3.427-1.414 5.274 1.066 1.847 3.427 2.481 5.274 1.413 1.848-1.065 2.482-3.426 1.414-5.274-1.067-1.845-3.428-2.479-5.274-1.413zm-19.187-13.69c0-3.817 1.896-7.189 4.797-9.231l-2.823-4.729c-3.38 2.259-5.894 5.71-6.938 9.752 1.219 0.996 1.999 2.51 1.999 4.208 0 1.696-0.78 3.21-1.999 4.206 1.043 4.044 3.557 7.494 6.938 9.753l2.823-4.73c-2.901-2.041-4.797-5.412-4.797-9.229zm11.281-11.283c5.894 0 10.729 4.519 11.236 10.281l5.504-0.082c-0.271-4.254-2.129-8.073-4.986-10.881-1.468 0.554-3.164 0.469-4.63-0.376-1.469-0.847-2.39-2.277-2.641-3.829-1.428-0.394-2.93-0.609-4.484-0.609-2.67 0-5.194 0.626-7.434 1.736l2.684 4.809c1.443-0.671 3.054-1.049 4.752-1.049h-0.001zm0 22.563c-1.697 0-3.308-0.377-4.751-1.049l-2.684 4.808c2.241 1.111 4.766 1.739 7.435 1.739 1.553 0 3.055-0.216 4.482-0.611 0.252-1.552 1.173-2.981 2.642-3.829 1.467-0.847 3.162-0.931 4.631-0.376 2.856-2.808 4.714-6.627 4.985-10.882l-5.505-0.081c-0.507 5.764-5.342 10.282-11.235 10.282v-0.001zm7.905-24.973c1.848 1.067 4.208 0.435 5.273-1.413 1.068-1.847 0.436-4.2081-1.412-5.2755-1.847-1.066-4.208-0.4327-5.275 1.4155-1.065 1.846-0.432 4.207 1.414 5.272v0.001z"/>
   <g id="Shape" sketch:type="MSShapeGroup" transform="translate(21.262 19.671)">
    <path fill="#fff" d="m7.9398 0.072319l-2.1287 2.1817-0.2824-0.0332 0.5434-1.4432-2.1786 2.1782 0.4231 3.7488-0.2488-2.1754-0.1743-1.5731-1.7568 1.0712-0.8898 1.8191-1.2158 2.0889 1.1487 2.8377 0.3694 2.235 0.4566 1.091-0.769 0.918-0.80853 0.978h2.2125l0.2786-1.993 0.8902-1.363 1.484 0.255 1.6359-0.655 1.2092-0.618 1.1817 0.785-1.4171 1.696-1.454 1.37 2.2809 0.033 0.0058-0.928 1.727-1.371 0.631 0.795-1.8167 2.588 2.3177 0.014-0.084-1.297 1.658-1.574-0.849-1.722-0.098-2.1156 1.7-1.0013 0.96 0.2032 1.307-0.4857 0.372-2.6341-2.035 0.5951-1.236 1.8594-2.092 1.1108-2.9193-1.1839-2.1255-1.5799 1.39-1.9459-0.4903-2.0357 0.8866-2.7241 0.0003 0.000019z" fill-opacity=".706"/>
    <path d="m4.8133 10.905l2.116 1.334 1.2089-0.619-3.3249-0.715zm-2.3142 0.529l0.42 2.567 0.8902-1.363-1.3101-1.204h-0.0001zm9.8209 0.575l-1.226 1.992 2.075-0.269-0.849-1.723zm-1.226 1.992l-1.817 2.588 2.318 0.014-0.085-1.297-0.416-1.305zm-1.7738-1.596l-1.417 1.697 0.8327 0.475 0.5843-2.172zm-1.417 1.697l-1.4542 1.369 2.2809 0.034-0.8267-1.403zm-6.6664 0.914l-0.80881 0.978h2.2127l-1.404-0.978h0.0001z" fill="#DD8371"/>
    <path d="m3.8934 2.9558l0.423 3.7486 0.5141-2.7406-0.9373-1.0081 0.0002 0.0001zm0.423 3.7486l1.837 0.0734 0.0269-1.2543-1.864 1.1809h0.0001zm-3.0696-0.8583l-1.2158 2.0886 2.022-1.6195-0.8062-0.4692v0.0001zm-1.2158 2.0886l1.1487 2.8373 0.8733-2.3284-2.022-0.5089h-0.000047zm15.274-0.3824l-1.384 1.3402 0.961 0.2032 0.423-1.5433v-0.0001zm-3.083 2.3417l-1.632 1.217 1.729 0.898-0.097-2.1152v0.0002zm-1.633 1.217l-2.4509 0.509 1.1817 0.785 1.2692-1.294zm-1.2691 1.294l-0.5843 2.172 1.7264-1.371-1.1421-0.801zm-0.5843 2.172l-0.8327-0.476 0.8266 1.404 0.0061-0.928zm-0.5974-2.957l0.151-1.444-3.4759 0.729 3.3249 0.715zm-3.3252-0.715l-2.3138 0.529 1.31 1.204 1.0038-1.733zm-2.3139 0.529l-0.9503 1.573 1.37 0.995-0.4199-2.568h0.0002zm0.4197 2.567l-1.6826 1.015 1.4039 0.978 0.2786-1.993h0.0001zm10.249-0.269l-2.074 0.269 0.416 1.304 1.659-1.574-0.001 0.001z" fill="#E5AE9B"/>
    <path d="m7.9398 0.072319l-2.1287 2.1817 1.0643-0.402 1.0645-1.7797-0.0001 0.000019zm-2.1287 2.1817l-0.5377-0.0665-0.4431 1.7762 2.2226-1.1676-1.2419-0.5421h0.0001zm-0.9806 1.7097l-0.5141 2.7409 1.8637-1.1811-1.3495-1.5597-0.0001-0.0001zm-0.5141 2.7409l-2.1797-2.6776-0.0838 2.2882 2.2635 0.3891v0.0003zm-2.2635-0.3891l-2.0221 1.6194 2.0221 0.5088v-2.1284 0.0002zm0 2.1282l-0.8734 2.3283 1.3197 0.662-0.4465-2.9902 0.0002-0.0001zm0.4463 2.9903l2.683-2.3552-1.6686-0.432-1.0145 2.7872h0.0001zm2.6833-2.3552l3.0962-0.7212-2.1255-1.5798-0.9705 2.3009-0.0002 0.0001zm-3.046-5.0516l1.9312 0.5019-0.1745-1.5731-1.7567 1.0712zm1.7567-1.0712l1.3799-0.7681 0.7998-1.4102-2.1797 2.1783zm10.633 3.6155l-0.605 2.3214 1.384-1.3402-0.779-0.9812zm0.779 0.9811l-0.423 1.5433 1.306-0.486-0.883-1.0573zm-1.384 1.3402l-0.631-0.4624-1.068 1.4637 1.699-1.0013zm-1.699 1.0013l-1.024-0.3526-0.608 1.5705 1.632-1.2179zm-1.633 1.2179l-2.2998-0.935-0.151 1.444 2.4518-0.509h-0.001zm-5.7759-0.207l0.4802 1.989 1.6359-0.655-2.1161-1.334zm7.5059 1.104l-2.9991 0.396 1.1421 0.801 0.632 0.795 1.226-1.992h-0.001zm-10.77 0.998l0.4565 1.091-0.7691 0.918 1.6825-1.015-1.3702-0.994h0.0003z" fill="#EBCFC6"/>
    <path d="m6.8755 1.8518l-1.0642 0.4021 1.2418 0.5424-0.1776-0.9445zm-1.6021 0.3359l-1.3802 0.768 0.9373 1.0081 0.4426-1.7761h0.0003zm-0.4431 1.7761l1.3495 1.5595 1.3632-0.6917-2.7127-0.8678zm-2.6938 0.0632l2.1797 2.6773-0.2485-2.1751-1.9312-0.5022zl-0.8899 1.8191 0.8063 0.469 0.0836-2.2882v0.0001zm-0.0839 2.2882v2.1285l2.2636-1.7393-2.2636-0.3891v-0.0001zm2.2636 0.3891l0.8663 2.3744 0.9706-2.3009-1.8369-0.0734v-0.0001zm0.8663 2.3744l3.1069 1.0973-0.0106-1.8185-3.0964 0.7212h0.0001zl-2.6831 2.3553 2.3139-0.529 0.3694-1.8263h-0.0002zm-0.3694 1.8263l-1.0038 1.733 1.484 0.256-0.4802-1.989zm-2.3142 0.529l-1.3195-0.662 0.3694 2.235 0.9503-1.573h-0.0002zl1.0147-2.7874-1.4609-0.2025 0.4464 2.9899h-0.0002zm5.7903-1.257l2.3008 0.935 0.608-1.5705-2.9086 0.6345-0.0002 0.001zm2.9088-0.6353l1.024 0.3524 1.068-1.4637-2.092 1.1111v0.0002zm2.092-1.1113l0.631 0.4624 0.605-2.3214-1.236 1.859zm-2.7 2.6816l-1.2699 1.293 2.9999-0.396-1.73-0.897zm5.971-5.1361l-1.256 1.5765 0.884 1.0573 0.372-2.6338z" fill="#EDD9D3"/>
    <path d="m7.9398 0.072319l-1.0646 1.7795 0.1779 0.9445 0.8867-2.724v0.000019zm-0.8867 2.724l-2.2225 1.1677 2.7127 0.8678-0.4903-2.0355h0.0001zm0.4901 2.0355l-1.3631 0.6917-0.0269 1.2543 1.39-1.946zm-1.471-4.0542l-0.7988 1.4102 0.2519 0.0431 0.5473-1.4536-0.0007-0.00001 0.0003 0.00029zm10.489 5.1983l-2.035 0.5953 0.779 0.9811 1.256-1.5766v0.0002zm-12.245 0.7285l-2.2636 1.7393 3.13 0.635-0.8664-2.3743zm0.8664 2.3743l-0.3696 1.8263 3.4761-0.729-3.1065-1.0973zm3.1065 1.0973l2.9088-0.6345-2.9192-1.184 0.0106 1.8185h-0.0002z" fill="#fff"/>
   </g>
  </g>
 </g>
</svg>
