<?xml version="1.0" encoding="UTF-8" standalone="no"?>
<!-- Created with Inkscape (http://www.inkscape.org/) -->

<svg
   xmlns:dc="http://purl.org/dc/elements/1.1/"
   xmlns:cc="http://creativecommons.org/ns#"
   xmlns:rdf="http://www.w3.org/1999/02/22-rdf-syntax-ns#"
   xmlns:svg="http://www.w3.org/2000/svg"
   xmlns="http://www.w3.org/2000/svg"
   xmlns:xlink="http://www.w3.org/1999/xlink"
   xmlns:sodipodi="http://sodipodi.sourceforge.net/DTD/sodipodi-0.dtd"
   xmlns:inkscape="http://www.inkscape.org/namespaces/inkscape"
   version="1.1"
   width="534.27728"
   height="535.35321"
   id="svg2"
   inkscape:version="0.48.4 r9939"
   sodipodi:docname="Ubuntustudio_v3_logo-alt[1].svg">
  <sodipodi:namedview
     pagecolor="#ffffff"
     bordercolor="#666666"
     borderopacity="1"
     objecttolerance="10"
     gridtolerance="10"
     guidetolerance="10"
     inkscape:pageopacity="0"
     inkscape:pageshadow="2"
     inkscape:window-width="1366"
     inkscape:window-height="706"
     id="namedview3007"
     showgrid="false"
     fit-margin-top="10"
     fit-margin-left="10"
     fit-margin-right="10"
     fit-margin-bottom="10"
     inkscape:zoom="0.87857143"
     inkscape:cx="210"
     inkscape:cy="219.95761"
     inkscape:window-x="-8"
     inkscape:window-y="-8"
     inkscape:window-maximized="1"
     inkscape:current-layer="svg2" />
  <title
     id="title14594">Ubuntu Studio v3</title>
  <defs
     id="defs4">
    <linearGradient
       id="linearGradient3927">
      <stop
         id="stop3929"
         style="stop-color:#000000;stop-opacity:1"
         offset="0" />
      <stop
         id="stop3931"
         style="stop-color:#525252;stop-opacity:1"
         offset="1" />
    </linearGradient>
    <linearGradient
       x1="-654.12848"
       y1="579.76819"
       x2="-654.12848"
       y2="402.60345"
       id="linearGradient3933"
       xlink:href="#linearGradient3927"
       gradientUnits="userSpaceOnUse"
       gradientTransform="matrix(0.94157008,0,0,1,-52.592035,0)" />
  </defs>
  <metadata
     id="metadata7">
    <rdf:RDF>
      <cc:Work
         rdf:about="">
        <dc:format>image/svg+xml</dc:format>
        <dc:type
           rdf:resource="http://purl.org/dc/dcmitype/StillImage" />
        <dc:title>Ubuntu Studio v3</dc:title>
        <dc:creator>
          <cc:Agent>
            <dc:title>Cory Kontros</dc:title>
          </cc:Agent>
        </dc:creator>
        <dc:description>New Ubuntu Studio logo based on the Ubuntu logo 1st used in Ubuntu 10.04.</dc:description>
        <dc:date>August 8th 2010</dc:date>
      </cc:Work>
    </rdf:RDF>
  </metadata>
  <path
     inkscape:connector-curvature="0"
     style="fill:#009bf9;fill-opacity:1;stroke:none"
     id="path10060-3"
     d="M 267.13867,10 C 124.93166,10 10,124.93165 10,267.13867 c 0,142.20702 114.93166,258.21456 257.13867,258.21456 142.20702,0 257.13859,-116.00754 257.13859,-258.21456 C 524.27726,124.93165 409.34569,10 267.13867,10 z m 53.79466,39.808006 c 2.79222,-0.350526 5.73006,-0.80599 8.60719,0 38.3713,10.757914 71.1305,29.595929 98.98218,58.098304 2.42047,2.41351 4.32297,6.43199 5.37956,9.68308 2.01053,6.01946 0.84345,12.00079 -2.15181,17.21432 -1.7971,3.12953 -4.26014,5.58159 -7.5312,7.53125 -8.72325,5.19974 -19.95664,4.18548 -26.89742,-3.22595 -23.25962,-23.80328 -47.57096,-38.35519 -79.61609,-47.339425 -11.5092,-3.219007 -17.20707,-15.388509 -13.98664,-26.897233 2.41691,-8.632055 8.83745,-14.014558 17.21423,-15.062633 z m -54.87047,66.705434 c 39.1346,0 77.8623,14.38461 107.58932,44.11179 59.45406,59.45399 59.45406,156.80023 0,216.25461 -59.45438,59.45436 -155.72466,59.45409 -215.17887,0 -5.33739,-5.18875 -8.34775,-13.2426 -6.45536,-20.44204 1.89372,-7.19926 7.86333,-12.09404 15.06255,-13.98651 7.19939,-1.89363 15.25329,0.0319 20.44198,5.37944 43.66174,43.66165 113.41894,43.66165 157.08059,0 43.66166,-43.66181 43.66166,-114.49473 0,-158.1564 -43.66165,-43.6618 -113.41885,-43.6618 -157.08059,0 -7.67205,8.44808 -20.60098,9.82377 -29.04917,2.15171 -8.44807,-7.67204 -9.82379,-21.67691 -2.1517,-30.12509 0.44398,-0.49305 1.65954,-0.62936 2.1517,-1.074 29.72718,-29.72718 68.45485,-44.11182 107.58955,-44.11182 z m 0,71.00904 c 20.79728,0 41.26022,7.90764 57.02233,23.66959 31.52447,31.52464 31.52447,83.59616 0,115.1208 -31.52464,31.52444 -82.52019,31.52444 -114.04482,0 -31.52448,-31.52464 -31.52448,-83.59616 0,-115.1208 15.76211,-15.76195 36.22514,-23.66959 57.02249,-23.66959 z m -195.812777,7.53124 c 3.607802,-0.0319 7.41359,0.34429 10.758889,2.15178 8.921212,4.85168 12.520352,14.9947 9.683112,24.74557 -8.61376,32.14658 -8.61376,60.3802 0,92.52698 3.09867,11.54246 -3.52032,22.72238 -15.062557,25.8213 -11.542527,3.0986 -23.798426,-3.52016 -26.897341,-15.06239 -10.314106,-38.4933 -10.314106,-75.55192 0,-114.04489 0.843605,-3.31193 3.122612,-6.04038 5.379549,-8.60713 4.151984,-4.80038 10.125768,-7.44989 16.138348,-7.53122 z m 65.629517,18.29022 c 4.38037,-0.44792 8.95214,0.80605 12.91076,3.22595 7.91719,4.84104 12.23769,14.74814 9.68295,23.66966 -5.47815,20.44478 -5.47815,36.57762 0,57.0225 2.95403,11.01541 -4.04706,22.86592 -15.06247,25.82125 -11.0154,2.95403 -21.7902,-4.04703 -24.74553,-15.06245 -7.103,-26.50824 -7.103,-52.03197 0,-78.54019 0.97126,-3.85397 2.47199,-8.05017 5.37952,-10.75891 3.38773,-3.1709 7.45449,-4.93257 11.83477,-5.37953 z m 130.18326,13.9867 c -10.53185,0 -20.93475,4.79617 -29.04921,12.91063 -16.229,16.22902 -16.229,41.86933 0,58.09823 16.22896,16.229 41.86931,16.229 58.09831,0 16.22895,-16.2289 16.22857,-41.86921 0,-58.09823 -8.11451,-8.11446 -18.51751,-12.91063 -29.0491,-12.91063 z m 140.94206,165.68764 c 4.73285,-0.64419 9.63551,0.60914 13.98657,3.22597 3.26383,1.9624 5.74578,4.39578 7.53121,7.53121 2.97469,5.22561 4.18758,12.27859 2.15187,18.29019 -1.07075,3.24662 -2.95058,6.20269 -5.3795,8.60721 -27.96428,28.39153 -60.56846,46.41666 -98.9822,57.02236 -11.5216,3.1743 -23.72242,-3.54066 -26.89733,-15.06255 -3.17433,-11.52157 3.54063,-22.6465 15.0625,-25.82142 32.0806,-8.85718 56.2621,-23.6288 79.61613,-47.33936 3.48517,-3.69282 8.17783,-5.81255 12.91075,-6.45533 z" />
</svg>
