<?xml version="1.0" encoding="UTF-8"?>
<svg width="512" height="512" version="1.1" viewBox="0 0 512 512" xmlns="http://www.w3.org/2000/svg">
 <circle id="a" cx="256" cy="256" r="255" fill="#dd4814"/>
 <path id="b" d="m82.6 222c-18.8 0-34.1 15.2-34.1 34.1 0 18.8 15.2 34.1 34.1 34.1 18.8 0 34-15.2 34-34.1-0.0176-18.8-15.2-34.1-34-34.1zm243 155c-16.3 9.41-21.9 30.2-12.5 46.5 9.4 16.3 30.2 21.9 46.5 12.5 16.3-9.39 21.9-30.2 12.5-46.5-9.41-16.3-30.2-21.9-46.5-12.5zm-169-121c0-33.6 16.7-63.4 42.3-81.4l-24.9-41.7c-29.8 19.9-52 50.3-61.2 86 10.7 8.78 17.6 22.1 17.6 37.1 0 15-6.88 28.3-17.6 37.1 9.19 35.6 31.4 66.1 61.2 86l24.9-41.7c-25.6-18-42.3-47.7-42.3-81.4zm99.4-99.5c52 0 94.6 39.8 99 90.6l48.5-0.723c-2.39-37.5-18.8-71.2-44-95.9-12.9 4.88-27.9 4.13-40.8-3.31-12.9-7.47-21.1-20.1-23.3-33.8-12.6-3.47-25.8-5.37-39.5-5.37-23.5 0-45.8 5.52-65.5 15.3l23.7 42.4c12.7-5.91 26.9-9.25 41.9-9.25zm0 199c-15 0-29.2-3.32-41.9-9.25l-23.7 42.4c19.8 9.79 42 15.3 65.5 15.3 13.7 0 26.9-1.9 39.5-5.39 2.22-13.7 10.3-26.3 23.3-33.8 12.9-7.47 27.9-8.21 40.8-3.31 25.2-24.8 41.6-58.4 43.9-95.9l-48.5-0.714c-4.47 50.8-47.1 90.6-99 90.6zm69.7-220c16.3 9.41 37.1 3.83 46.5-12.5 9.41-16.3 3.84-37.1-12.4-46.5-16.3-9.4-37.1-3.81-46.5 12.5-9.39 16.3-3.81 37.1 12.5 46.5z" fill="#fff"/>
 <path d="m257 174-18.8 19.2-2.49-0.293 4.79-12.7-19.2 19.2 3.73 33-2.19-19.2-1.54-13.9-15.5 9.44-7.84 16-10.7 18.4 10.1 25 3.26 19.7 4.02 9.62-6.78 8.09-7.13 8.62h19.5l2.46-17.6 7.85-12 13.1 2.25 14.4-5.77 10.7-5.45 10.4 6.92-12.5 15-12.8 12.1 20.1 0.291 0.0511-8.18 15.2-12.1 5.56 7.01-16 22.8 20.4 0.123-0.74-11.4 14.6-13.9-7.48-15.2-0.864-18.6 15-8.83 8.46 1.79 11.5-4.28 3.28-23.2-17.9 5.25-10.9 16.4-18.4 9.79-25.7-10.4-18.7-13.9 12.3-17.2-4.32-17.9 7.82-24 3e-3 1.7e-4z" fill="#fff" fill-opacity=".7"/>
 <path d="m230 270 18.7 11.8 10.7-5.46zm-20.4 4.66 3.7 22.6 7.85-12-11.5-10.6zm86.6 5.07-10.8 17.6 18.3-2.37zm-10.8 17.6-16 22.8 20.4 0.123-0.749-11.4zm-15.6-14.1-12.5 15 7.34 4.19zm-12.5 15-12.8 12.1 20.1 0.3zm-58.8 8.06-7.13 8.62h19.5l-12.4-8.62h8.8e-4z" fill="#dd8371"/>
 <path d="m222 199 3.73 33 4.53-24.2-8.26-8.89zm3.73 33 16.2 0.647 0.237-11.1-16.4 10.4zm-27.1-7.57-10.7 18.4 17.8-14.3-7.11-4.14zm-10.7 18.4 10.1 25 7.7-20.5-17.8-4.49h-4.2e-4zm135-3.37-12.2 11.8 8.47 1.79 3.73-13.6zm-27.2 20.6-14.4 10.7 15.2 7.92-0.855-18.6zm-14.4 10.7-21.6 4.49 10.4 6.92zm-11.2 11.4-5.15 19.1 15.2-12.1zm-5.15 19.1-7.34-4.2 7.29 12.4zm-5.27-26.1 1.33-12.7-30.6 6.43zm-29.3-6.3-20.4 4.66 11.5 10.6zm-20.4 4.66-8.38 13.9 12.1 8.77-3.7-22.6zm3.7 22.6-14.8 8.95 12.4 8.62 2.46-17.6zm90.3-2.37-18.3 2.37 3.67 11.5 14.6-13.9z" fill="#e5ae9b"/>
 <path d="m257 174-18.8 19.2 9.38-3.54 9.38-15.7-8.8e-4 1.7e-4zm-18.8 19.2-4.74-0.586-3.91 15.7 19.6-10.3-10.9-4.78zm-8.64 15.1-4.53 24.2 16.4-10.4-11.9-13.7zm-4.53 24.2-19.2-23.6-0.739 20.2 20 3.43zm-20-3.43-17.8 14.3 17.8 4.49v-18.8zm0 18.8-7.7 20.5 11.6 5.84-3.94-26.4zm3.93 26.4 23.7-20.8-14.7-3.81-8.94 24.6zm23.7-20.8 27.3-6.36-18.7-13.9-8.55 20.3zm-26.9-44.5 17 4.42-1.54-13.9zm15.5-9.44 12.2-6.77 7.05-12.4zm93.7 31.9-5.33 20.5 12.2-11.8zm6.87 8.65-3.73 13.6 11.5-4.28zm-12.2 11.8-5.56-4.08-9.41 12.9zm-15 8.83-9.03-3.11-5.36 13.8zm-14.4 10.7-20.3-8.24-1.33 12.7 21.6-4.49zm-50.9-1.82 4.23 17.5 14.4-5.77zm66.2 9.73-26.4 3.49 10.1 7.06 5.57 7.01 10.8-17.6zm-94.9 8.8 4.02 9.62-6.78 8.09 14.8-8.95-12.1-8.76z" fill="#ebcfc6"/>
 <path d="m248 190-9.38 3.54 10.9 4.78zm-14.1 2.96-12.2 6.77 8.26 8.89 3.9-15.7zm-3.91 15.7 11.9 13.7 12-6.1zm-23.7 0.557 19.2 23.6-2.19-19.2zm0 0-7.84 16 7.11 4.13 0.737-20.2zm-0.74 20.2v18.8l20-15.3-20-3.43zm20 3.43 7.64 20.9 8.56-20.3-16.2-0.647zm7.64 20.9 27.4 9.67-0.0934-16-27.3 6.36zm0 0-23.7 20.8 20.4-4.66 3.26-16.1zm-3.26 16.1-8.85 15.3 13.1 2.26zm-20.4 4.66-11.6-5.84 3.26 19.7 8.38-13.9zm0 0 8.94-24.6-12.9-1.79 3.94 26.4zm51-11.1 20.3 8.24 5.36-13.8-25.6 5.59zm25.6-5.6 9.03 3.11 9.41-12.9-18.4 9.79zm18.4-9.8 5.56 4.08 5.33-20.5zm-23.8 23.6-11.2 11.4 26.4-3.49zm52.6-45.3-11.1 13.9 7.79 9.32z" fill="#edd9d3"/>
 <path d="m257 174-9.38 15.7 1.57 8.33 7.82-24v1.7e-4zm-7.82 24-19.6 10.3 23.9 7.65-4.32-17.9zm4.32 17.9-12 6.1-0.237 11.1zm-13-35.7-7.04 12.4 2.22 0.38 4.82-12.8-6e-3 -9e-5 3e-3 3e-3zm92.5 45.8-17.9 5.25 6.87 8.65 11.1-13.9zm-108 6.42-20 15.3 27.6 5.6zm7.64 20.9-3.26 16.1 30.6-6.43zm27.4 9.67 25.6-5.59-25.7-10.4 0.0934 16z" fill="#fff"/>
</svg>
