<?xml version="1.0" encoding="UTF-8"?>
<svg width="512" height="512" version="1.1" viewBox="0 0 512 512" xmlns="http://www.w3.org/2000/svg">
 <path d="m511 256c0 141-114 255-255 255-141 0-255-114-255-255 0-141 114-255 255-255 141 0 255 114 255 255z" fill="#0087ed"/>
 <path d="m364 87.1c-70.3 0-83.4 100-43.9 100 39.5 0 114-100 43.9-100z" fill="#fff"/>
 <path d="m248 175c21 1.29 44.1-80.3 4.58-75.2-39.5 5.13-25.6 73.9-4.58 75.2z" fill="#fff"/>
 <path d="m151 226c15-6.59 1.93-71-23.5-53.5-25.4 17.6 8.56 60 23.5 53.5z" fill="#fff"/>
 <path d="m193 192c17.8-3.63 18.8-76.7-13-63.6-31.8 13.1-4.82 67.2 13 63.6z" fill="#fff"/>
 <path d="m287 355c3.16 24.1-17.7 36.1-38.2 20.5-65.1-49.5 108-74.3 96.4-142-9.46-56.2-182-38.9-201 49-13.3 59.5 54.7 142 126 142 34.9 0 75.2-31.5 82.7-71.4 5.75-30.4-67.7-18.2-65 1.9z" fill="#fff"/>
</svg>
