<?xml version="1.0" encoding="UTF-8"?>
<svg width="512" height="512" version="1.1" viewBox="0 0 512 512" xmlns="http://www.w3.org/2000/svg">
 <defs>
  <linearGradient id="a" x1="145" x2="305" y1="450" y2="197" gradientUnits="userSpaceOnUse">
   <stop style="stop-color:#000d9b" offset="0"/>
   <stop style="stop-color:#000d9b;stop-opacity:0" offset="1"/>
  </linearGradient>
 </defs>
 <circle cx="256" cy="256" r="255" fill="#91fdfe"/>
 <path d="m236 30.2c-55.3 9.39-106 29.3-142 67.7-97.4 104-55.9 223-47.5 244 51 127 225 181 345 90.4 33.6-25.5 73.8-79.2 75.2-113-50.3 6.03-90.9-4.39-69.8-46.4 4.47-8.92 25.1-45.5 25.1-52 0-2.96-9.53-20-13-15.8-7.22 8.74-7.63 9.13-13.8 16.7-13.4 1.4-18.4-2.08-18.4-2.08 8.64-28.1 11.4-43.1 13.9-64.3-17.5-13.7-21.9-15.9-40.9-33.8-65.7 114-28.9 65.8-103 73-25.8 3.99-40.1 20.8-54.1 33.8-14.5-11.4-24.1-21.9-36.6-36.8-5.24 11.1-5.14 34-2.04 56.7-13.2-11.2-15.9-15.4-24.2-27-3.14 13.2-4.69 29.3-2.15 40.8 2.3 10.5 5 21 16 35.3 0.291 8.36 1.51 19.8 3.74 26.2-6.73-6.59-7.56-7.65-17.4-17 0.848 27.5 27.6 53.3 36.3 67.6-7.11-2.74-13.2-7.6-23-14.7 0.551 6.08 15.1 33.6 34.6 55.9-20.1-6.86-34.3-15.9-39.7-19.4-114-72.8-111-275 43.1-345 17.8-8.07 36.1-15 54.6-20.8zm30.5 184 16.2 2.12c0.0739 0.969-0.794 3.27-4.22 4.46-4.4 1.53-9.32 1.05-9.32 1.05s-4.66 8.25-9.46 13.4c-1.54 1.66-9.54 7.58-6.84 2.85z" style="fill:#0331cc;stroke-width:4;stroke:url(#a)"/>
</svg>
