<?xml version="1.0" encoding="UTF-8"?>
<!DOCTYPE svg PUBLIC "-//W3C//DTD SVG 1.1//EN" "http://www.w3.org/Graphics/SVG/1.1/DTD/svg11.dtd">
<svg xmlns="http://www.w3.org/2000/svg" version="1.1" width="183px" height="183px" style="shape-rendering:geometricPrecision; text-rendering:geometricPrecision; image-rendering:optimizeQuality; fill-rule:evenodd; clip-rule:evenodd" xmlns:xlink="http://www.w3.org/1999/xlink">
<g><path style="opacity:0.94" fill="#90fdfe" d="M 71.5,-0.5 C 84.5,-0.5 97.5,-0.5 110.5,-0.5C 148.193,9.85977 172.193,33.8598 182.5,71.5C 182.5,84.5 182.5,97.5 182.5,110.5C 172.193,148.14 148.193,172.14 110.5,182.5C 97.5,182.5 84.5,182.5 71.5,182.5C 33.8069,172.14 9.80689,148.14 -0.5,110.5C -0.5,97.5 -0.5,84.5 -0.5,71.5C 9.80689,33.8598 33.8069,9.85977 71.5,-0.5 Z"/></g>
<g><path style="opacity:1" fill="#2a53c6" d="M 52.5,24.5 C 52.5299,23.5028 52.0299,22.8361 51,22.5C 49.8615,22.9891 48.6948,23.3225 47.5,23.5C 58.5332,15.6554 70.8665,11.4887 84.5,11C 72.744,13.0803 62.0773,17.5803 52.5,24.5 Z"/></g>
<g><path style="opacity:1" fill="#2c54c5" d="M 38.5,30.5 C 35.0846,33.588 32.4179,37.2547 30.5,41.5C 29.2342,42.3624 27.9008,43.0291 26.5,43.5C 28.1667,40.8333 29.8333,38.1667 31.5,35.5C 33.5732,33.4202 35.9066,31.7536 38.5,30.5 Z"/></g>
<g><path style="opacity:1" fill="#0532cb" d="M 52.5,24.5 C 25.0379,48.413 17.2046,77.7463 29,112.5C 32.8864,122.3 38.7197,130.633 46.5,137.5C 48.9018,140.215 51.5685,142.715 54.5,145C 55.8767,146.241 57.21,146.408 58.5,145.5C 55.7064,140.747 53.0398,135.914 50.5,131C 52.0468,130.667 53.3801,131.167 54.5,132.5C 54.5726,129.668 53.2393,127.334 50.5,125.5C 48.4432,121.882 46.7765,118.048 45.5,114C 45.6842,112.624 46.3509,111.791 47.5,111.5C 47.3691,112.376 47.7025,113.043 48.5,113.5C 49.7969,111.027 49.7969,108.693 48.5,106.5C 47.5592,104.95 46.8925,103.284 46.5,101.5C 46.9412,97.1637 47.2746,92.8304 47.5,88.5C 50.0037,89.6392 52.6703,90.3059 55.5,90.5C 55.5,85.1667 55.5,79.8333 55.5,74.5C 56.8333,74.5 58.1667,74.5 59.5,74.5C 61.9097,77.0727 64.7431,79.0727 68,80.5C 71.3656,77.6315 74.8656,74.9649 78.5,72.5C 79.7079,71.7659 81.0413,71.4326 82.5,71.5C 88.1209,70.6463 93.7876,70.313 99.5,70.5C 101.857,70.6633 104.19,70.4966 106.5,70C 109.21,67.3722 111.544,64.5389 113.5,61.5C 115.821,58.8858 118.154,56.2191 120.5,53.5C 121.333,51.5 122.167,49.5 123,47.5C 124.011,46.6634 125.178,46.33 126.5,46.5C 127.922,47.925 129.589,48.925 131.5,49.5C 133.5,51.5 135.5,53.5 137.5,55.5C 137.073,59.8244 136.739,64.1578 136.5,68.5C 136.007,70.8056 135.674,73.139 135.5,75.5C 134.566,76.5676 134.232,77.901 134.5,79.5C 136.735,79.7947 138.735,79.4614 140.5,78.5C 141.894,76.4083 143.728,74.7416 146,73.5C 148.614,74.4449 150.114,76.2783 150.5,79C 146.308,87.0552 142.641,95.3885 139.5,104C 139.757,108.75 142.09,111.916 146.5,113.5C 152.98,114.701 159.313,116.034 165.5,117.5C 163.042,125.755 159.042,133.089 153.5,139.5C 149.5,138.833 147.833,140.5 148.5,144.5C 144.653,145.757 142.32,148.424 141.5,152.5C 136.947,154.609 132.28,156.443 127.5,158C 127.833,158.333 128.167,158.667 128.5,159C 126.944,159.72 125.944,160.887 125.5,162.5C 121.486,162.334 117.486,162.501 113.5,163C 110.907,166.8 107.24,168.8 102.5,169C 91.8192,169.61 81.1525,169.444 70.5,168.5C 70.1667,168.5 69.8333,168.5 69.5,168.5C 66.665,166.215 63.3316,164.882 59.5,164.5C 57.0326,164.245 55.0326,163.245 53.5,161.5C 52.4975,159.989 51.8308,158.322 51.5,156.5C 47.5516,156.399 44.385,154.732 42,151.5C 41.6667,151.833 41.3333,152.167 41,152.5C 38.8918,150.618 37.5585,148.285 37,145.5C 35.3333,144.833 33.6667,144.167 32,143.5C 28.5204,139.893 26.0204,135.559 24.5,130.5C 23.5,129.833 22.5,129.167 21.5,128.5C 19.4696,124.439 17.4696,120.439 15.5,116.5C 14.2616,114.786 13.595,112.786 13.5,110.5C 13.5,108.5 13.5,106.5 13.5,104.5C 13.5,94.5 13.5,84.5 13.5,74.5C 15.5115,67.8174 17.5115,61.1508 19.5,54.5C 21.0875,50.3171 23.4208,46.6505 26.5,43.5C 27.9008,43.0291 29.2342,42.3624 30.5,41.5C 32.4179,37.2547 35.0846,33.588 38.5,30.5C 40.9485,27.4442 43.9485,25.1108 47.5,23.5C 48.6948,23.3225 49.8615,22.9891 51,22.5C 52.0299,22.8361 52.5299,23.5028 52.5,24.5 Z"/></g>
<g><path style="opacity:1" fill="#3768e4" d="M 137.5,55.5 C 138.404,56.209 138.737,57.209 138.5,58.5C 138.678,62.1224 138.011,65.4557 136.5,68.5C 136.739,64.1578 137.073,59.8244 137.5,55.5 Z"/></g>
<g><path style="opacity:1" fill="#3866e5" d="M 122.5,45.5 C 124.099,45.2322 125.432,45.5655 126.5,46.5C 125.178,46.33 124.011,46.6634 123,47.5C 122.167,49.5 121.333,51.5 120.5,53.5C 118.154,56.2191 115.821,58.8858 113.5,61.5C 115.707,55.6495 118.707,50.3162 122.5,45.5 Z"/></g>
<g><path style="opacity:1" fill="#88f2ff" d="M 138.5,58.5 C 138.737,57.209 138.404,56.209 137.5,55.5C 135.5,53.5 133.5,51.5 131.5,49.5C 129.577,45.1599 126.577,43.8265 122.5,45.5C 118.707,50.3162 115.707,55.6495 113.5,61.5C 111.544,64.5389 109.21,67.3722 106.5,70C 104.19,70.4966 101.857,70.6633 99.5,70.5C 94.3497,69.3493 89.0164,69.1826 83.5,70C 82.944,70.3826 82.6107,70.8826 82.5,71.5C 81.0413,71.4326 79.7079,71.7659 78.5,72.5C 78.5652,70.3043 79.2319,68.3043 80.5,66.5C 83.1804,69.4429 83.847,69.1096 82.5,65.5C 82.8457,64.3044 83.3457,64.3044 84,65.5C 84.3333,64.5 84.6667,63.5 85,62.5C 91.0029,66.1723 97.5029,68.339 104.5,69C 103.672,66.9926 102.672,64.9926 101.5,63C 103.906,62.2211 105.573,63.0544 106.5,65.5C 107.086,65.2907 107.586,64.9574 108,64.5C 108.311,62.444 108.811,60.444 109.5,58.5C 111.671,56.8281 113.671,54.9948 115.5,53C 116.083,48.6629 117.25,44.4963 119,40.5C 120.46,38.5776 122.127,37.9109 124,38.5C 125.204,37.5294 125.704,36.5294 125.5,35.5C 126.308,35.8076 126.975,36.3076 127.5,37C 126.594,38.6995 126.261,40.5328 126.5,42.5C 128.201,42.9662 129.701,42.9662 131,42.5C 131.374,43.4162 131.874,44.2496 132.5,45C 134.631,45.5431 136.631,46.3764 138.5,47.5C 136.004,49.905 136.171,52.2383 139,54.5C 139.765,56.0657 139.598,57.3991 138.5,58.5 Z"/></g>
<g><path style="opacity:1" fill="#64b5fe" d="M 122.5,45.5 C 126.577,43.8265 129.577,45.1599 131.5,49.5C 129.589,48.925 127.922,47.925 126.5,46.5C 125.432,45.5655 124.099,45.2322 122.5,45.5 Z"/></g>
<g><path style="opacity:1" fill="#2b59c9" d="M 19.5,54.5 C 17.5115,61.1508 15.5115,67.8174 13.5,74.5C 13.1667,74.5 12.8333,74.5 12.5,74.5C 13.6646,67.3354 15.998,60.6687 19.5,54.5 Z"/></g>
<g><path style="opacity:1" fill="#4182e5" d="M 99.5,70.5 C 93.7876,70.313 88.1209,70.6463 82.5,71.5C 82.6107,70.8826 82.944,70.3826 83.5,70C 89.0164,69.1826 94.3497,69.3493 99.5,70.5 Z"/></g>
<g><path style="opacity:1" fill="#5199f7" d="M 56.5,71.5 C 55.5041,71.4142 54.6708,71.7476 54,72.5C 53.829,77.5329 53.329,82.5329 52.5,87.5C 51.8933,87.3764 51.56,87.0431 51.5,86.5C 52.3261,81.6835 52.8261,76.6835 53,71.5C 54.5545,69.0728 55.7211,69.0728 56.5,71.5 Z"/></g>
<g><path style="opacity:0.969" fill="#5daafb" d="M 135.5,75.5 C 135.5,76.5 135.5,77.5 135.5,78.5C 137.167,78.5 138.833,78.5 140.5,78.5C 138.735,79.4614 136.735,79.7947 134.5,79.5C 134.232,77.901 134.566,76.5676 135.5,75.5 Z"/></g>
<g><path style="opacity:1" fill="#64bcfb" d="M 93.5,76.5 C 100.472,77.4499 100.805,78.6165 94.5,80C 93.6959,81.7713 92.5292,83.2713 91,84.5C 91.4293,81.8285 92.2626,79.1619 93.5,76.5 Z"/></g>
<g><path style="opacity:1" fill="#133bc4" d="M 56.5,71.5 C 57.8333,72.1667 58.8333,73.1667 59.5,74.5C 58.1667,74.5 56.8333,74.5 55.5,74.5C 55.5,79.8333 55.5,85.1667 55.5,90.5C 52.6703,90.3059 50.0037,89.6392 47.5,88.5C 47.2746,92.8304 46.9412,97.1637 46.5,101.5C 43.9114,95.5556 42.9114,89.2223 43.5,82.5C 43.9867,81.5266 44.4867,80.5266 45,79.5C 47.3722,81.7032 49.5389,84.0365 51.5,86.5C 51.56,87.0431 51.8933,87.3764 52.5,87.5C 53.329,82.5329 53.829,77.5329 54,72.5C 54.6708,71.7476 55.5041,71.4142 56.5,71.5 Z"/></g>
<g><path style="opacity:1" fill="#89f3fe" d="M 43.5,82.5 C 42.9114,89.2223 43.9114,95.5556 46.5,101.5C 46.8925,103.284 47.5592,104.95 48.5,106.5C 48.7845,108.415 48.4511,110.081 47.5,111.5C 46.3509,111.791 45.6842,112.624 45.5,114C 46.7765,118.048 48.4432,121.882 50.5,125.5C 50.5106,127.017 51.1772,128.184 52.5,129C 51.552,129.483 50.552,129.649 49.5,129.5C 48.3998,128.442 47.0664,127.608 45.5,127C 46.1747,124.758 45.6747,122.591 44,120.5C 42.6569,121.214 41.3236,120.88 40,119.5C 38.4681,116.088 38.6348,112.921 40.5,110C 38.3781,108.262 38.5448,106.428 41,104.5C 41.6667,103.5 41.6667,102.5 41,101.5C 38.3341,100.107 35.8341,98.4408 33.5,96.5C 34.6094,94.6147 35.4427,92.6147 36,90.5C 36.5522,93.0467 37.8856,95.0467 40,96.5C 40.624,94.5355 40.124,92.8689 38.5,91.5C 41.4812,89.1015 43.1479,86.1015 43.5,82.5 Z"/></g>
<g><path style="opacity:1" fill="#0a32ab" d="M 12.5,74.5 C 12.8333,74.5 13.1667,74.5 13.5,74.5C 13.5,84.5 13.5,94.5 13.5,104.5C 11.7686,96.4014 11.1019,88.0681 11.5,79.5C 11.2155,77.5853 11.5489,75.9187 12.5,74.5 Z"/></g>
<g><path style="opacity:1" fill="#346adb" d="M 11.5,79.5 C 11.1019,88.0681 11.7686,96.4014 13.5,104.5C 13.5,106.5 13.5,108.5 13.5,110.5C 12.2395,107.742 11.4061,104.742 11,101.5C 10.1782,93.9882 10.3448,86.6549 11.5,79.5 Z"/></g>
<g><path style="opacity:1" fill="#539bfb" d="M 48.5,106.5 C 49.7969,108.693 49.7969,111.027 48.5,113.5C 47.7025,113.043 47.3691,112.376 47.5,111.5C 48.4511,110.081 48.7845,108.415 48.5,106.5 Z"/></g>
<g><path style="opacity:0.988" fill="#63b1ea" d="M 146.5,113.5 C 153.131,114.331 159.798,114.664 166.5,114.5C 166.737,115.791 166.404,116.791 165.5,117.5C 159.313,116.034 152.98,114.701 146.5,113.5 Z"/></g>
<g><path style="opacity:1" fill="#89f5fe" d="M 31.5,35.5 C 29.8333,38.1667 28.1667,40.8333 26.5,43.5C 23.4208,46.6505 21.0875,50.3171 19.5,54.5C 15.998,60.6687 13.6646,67.3354 12.5,74.5C 11.5489,75.9187 11.2155,77.5853 11.5,79.5C 10.3448,86.6549 10.1782,93.9882 11,101.5C 11.4061,104.742 12.2395,107.742 13.5,110.5C 13.595,112.786 14.2616,114.786 15.5,116.5C 21.6672,137 34.3339,152 53.5,161.5C 55.0326,163.245 57.0326,164.245 59.5,164.5C 59.5,164.833 59.5,165.167 59.5,165.5C 58.4168,165.539 57.4168,165.873 56.5,166.5C 54.677,165.253 52.677,164.586 50.5,164.5C 50.5,163.5 50.5,162.5 50.5,161.5C 47.5342,161.89 44.8676,161.223 42.5,159.5C 41.8076,160.025 41.3076,160.692 41,161.5C 38.6078,158.772 36.6078,155.772 35,152.5C 34.1072,153.711 33.2739,153.711 32.5,152.5C 32.7093,151.914 33.0426,151.414 33.5,151C 32.2986,150.097 31.4652,148.931 31,147.5C 29.6439,146.62 28.1439,146.286 26.5,146.5C 26.728,148.355 26.0613,149.188 24.5,149C 24.8333,148.667 25.1667,148.333 25.5,148C 25.1905,144.579 23.5238,142.079 20.5,140.5C 20.9312,139.707 21.2645,138.873 21.5,138C 19.5145,135.029 18.0145,131.862 17,128.5C 15.7188,128.619 14.5521,128.119 13.5,127C 16.1667,126 16.1667,125 13.5,124C 15.9741,121.572 15.4741,121.072 12,122.5C 11.7083,120.674 11.875,118.841 12.5,117C 6.21237,99.4224 6.21237,81.9224 12.5,64.5C 12.4061,62.3115 11.7394,60.3115 10.5,58.5C 10.6667,58.1667 10.8333,57.8333 11,57.5C 11.9057,59.612 13.4057,60.4453 15.5,60C 14.5336,57.901 13.2003,56.0676 11.5,54.5C 12.2472,54.2635 13.0805,53.9302 14,53.5C 14.3333,54.5 14.6667,55.5 15,56.5C 16.6016,54.7373 17.1016,52.904 16.5,51C 18.9969,48.3419 20.9969,45.3419 22.5,42C 20.9559,41.7104 19.6226,41.0437 18.5,40C 19.7839,39.3162 20.9505,39.4829 22,40.5C 24.6228,38.9849 25.6228,36.9849 25,34.5C 27.0408,35.4231 29.2075,35.7564 31.5,35.5 Z"/></g>
<g><path style="opacity:0.998" fill="#77d8fe" d="M 50.5,125.5 C 53.2393,127.334 54.5726,129.668 54.5,132.5C 53.3801,131.167 52.0468,130.667 50.5,131C 53.0398,135.914 55.7064,140.747 58.5,145.5C 57.21,146.408 55.8767,146.241 54.5,145C 51.5685,142.715 48.9018,140.215 46.5,137.5C 48.1703,137.751 49.6703,138.418 51,139.5C 50.3072,136.744 49.8072,133.41 49.5,129.5C 50.552,129.649 51.552,129.483 52.5,129C 51.1772,128.184 50.5106,127.017 50.5,125.5 Z"/></g>
<g><path style="opacity:1" fill="#1e42c0" d="M 153.5,139.5 C 150.208,144.46 146.208,148.793 141.5,152.5C 142.32,148.424 144.653,145.757 148.5,144.5C 147.833,140.5 149.5,138.833 153.5,139.5 Z"/></g>
<g><path style="opacity:1" fill="#2045bf" d="M 15.5,116.5 C 17.4696,120.439 19.4696,124.439 21.5,128.5C 22.5,129.167 23.5,129.833 24.5,130.5C 26.0204,135.559 28.5204,139.893 32,143.5C 33.6667,144.167 35.3333,144.833 37,145.5C 37.5585,148.285 38.8918,150.618 41,152.5C 41.3333,152.167 41.6667,151.833 42,151.5C 44.385,154.732 47.5516,156.399 51.5,156.5C 51.8308,158.322 52.4975,159.989 53.5,161.5C 34.3339,152 21.6672,137 15.5,116.5 Z"/></g>
<g><path style="opacity:1" fill="#294fc9" d="M 141.5,152.5 C 136.803,156.849 131.47,160.182 125.5,162.5C 125.944,160.887 126.944,159.72 128.5,159C 128.167,158.667 127.833,158.333 127.5,158C 132.28,156.443 136.947,154.609 141.5,152.5 Z"/></g>
<g><path style="opacity:1" fill="#3a78d9" d="M 59.5,165.5 C 59.5,165.167 59.5,164.833 59.5,164.5C 63.3316,164.882 66.665,166.215 69.5,168.5C 66.1667,167.5 62.8333,166.5 59.5,165.5 Z"/></g>
<g><path style="opacity:1" fill="#2b58c4" d="M 125.5,162.5 C 107.963,172.008 89.6296,174.008 70.5,168.5C 81.1525,169.444 91.8192,169.61 102.5,169C 107.24,168.8 110.907,166.8 113.5,163C 117.486,162.501 121.486,162.334 125.5,162.5 Z"/></g>
</svg>
