<?xml version="1.0" encoding="UTF-8"?>
<svg width="512" height="512" version="1.1" viewBox="0 0 512 512" xmlns="http://www.w3.org/2000/svg">
 <path d="m256 45.8c-44 0.0935-86.9 14-123 39.8l47.8 47.8c22.5-13.8 48.4-21.1 74.8-21.1 79.5-1.5e-4 144 64.4 144 144-0.0635 26.4-7.39 52.3-21.2 74.8l47.8 47.8c25.7-35.7 39.6-78.6 39.7-123 0-116-94.1-210-210-210z" fill="#abc2ab"/>
 <path d="m379 426-47.8-47.8c-22.5 13.8-48.4 21.1-74.8 21.1-79.5 1.6e-4 -144-64.4-144-144 0.0636-26.4 7.39-52.3 21.2-74.8l-47.8-47.8c-25.7 35.7-39.6 78.6-39.7 123 0 116 94.1 210 210 210 44-0.0935 86.9-14 123-39.8z" fill="#478061"/>
 <circle cx="256" cy="256" r="66.9" fill="#abc2ab"/>
 <path d="m61.4 295c-2.29 1.64-4.38 2.46-6.26 2.46h-8.11c-1.15 0-2.05-0.205-2.7-0.614-0.655-0.409-1.19-1.02-1.6-1.84l-41.5-77.1c-0.164-0.164-0.246-0.368-0.246-0.614v-0.737c0-0.819 0.287-1.47 0.86-1.97 0.655-0.573 1.68-0.86 3.07-0.86h50.5c2.7 0 4.46 0.819 5.28 2.46l25.5 49.3 71.6-49.3c2.37-1.64 4.87-2.46 7.49-2.46h7.98c1.06 0 1.6 0.45 1.6 1.35 0 0.737-0.655 1.64-1.97 2.7z"/>
 <path d="m173 298c-4.26 0-8.02-0.655-11.3-1.97-3.28-1.39-6.02-3.28-8.23-5.65-2.21-2.37-3.89-5.16-5.04-8.35-1.15-3.28-1.72-6.8-1.72-10.6 0-4.83 0.819-9.58 2.46-14.2 1.64-4.67 3.89-9.13 6.76-13.4 2.95-4.26 6.39-8.19 10.3-11.8 4.01-3.6 8.35-6.71 13-9.33 4.75-2.62 9.74-4.67 15-6.14 5.24-1.56 10.6-2.33 16.1-2.33h60.2c4.34 0 8.15 0.655 11.4 1.97 3.36 1.31 6.14 3.15 8.35 5.53 2.21 2.29 3.89 5.04 5.04 8.23 1.15 3.19 1.72 6.67 1.72 10.4 0 4.83-0.86 9.62-2.58 14.4-1.64 4.67-3.93 9.13-6.88 13.4-2.95 4.26-6.43 8.23-10.4 11.9-4.01 3.6-8.39 6.76-13.1 9.46-4.75 2.62-9.74 4.71-15 6.26-5.24 1.47-10.5 2.21-15.8 2.21zm73.9-50.2c2.7-5.73 4.05-10 4.05-12.9 0-2.37-0.86-4.01-2.58-4.91-1.64-0.901-4.09-1.35-7.37-1.35h-16.7c-2.37 0-4.59 0.328-6.63 0.983-1.97 0.573-3.81 1.6-5.53 3.07-1.72 1.47-3.4 3.44-5.04 5.9-1.56 2.46-3.15 5.53-4.79 9.21l-5.9 13.4c-3.11 6.96-4.67 12.2-4.67 15.7 0 2.37 0.696 4.09 2.09 5.16 1.39 0.983 3.4 1.47 6.02 1.47h16.8c2.54 0 4.87-0.368 7-1.11 2.13-0.819 4.18-2.09 6.14-3.81 1.97-1.72 3.85-4.01 5.65-6.88 1.8-2.87 3.64-6.39 5.53-10.6z"/>
 <path d="m288 298c-1.47 0-2.21-0.491-2.21-1.47 0-0.491 0.123-1.11 0.368-1.84l34.5-77.3c0.983-2.13 2.54-3.19 4.67-3.19h42.3c1.56 0 2.33 0.532 2.33 1.6 0 0.491-0.164 1.02-0.491 1.6l-34.4 77.3c-0.983 2.21-2.54 3.32-4.67 3.32z"/>
 <path d="m349 298c-1.47 0-2.21-0.491-2.21-1.47 0-0.491 0.123-1.11 0.368-1.84l34.5-77.3c0.983-2.13 2.54-3.19 4.67-3.19h98.7c4.26 0 8.02 0.655 11.3 1.97 3.28 1.31 6.02 3.15 8.23 5.53 2.21 2.29 3.89 5.04 5.04 8.23 1.15 3.19 1.72 6.67 1.72 10.4 0 4.99-0.86 9.91-2.58 14.7-1.72 4.75-4.09 9.25-7.12 13.5-2.95 4.26-6.47 8.19-10.6 11.8-4.01 3.6-8.39 6.71-13.1 9.33-4.67 2.54-9.58 4.54-14.7 6.02-5.16 1.47-10.3 2.21-15.5 2.21zm107-50.2c2.62-5.9 3.93-10.2 3.93-12.9 0-2.37-0.819-4.01-2.46-4.91-1.64-0.901-4.01-1.35-7.12-1.35h-24.9l-24.3 54.9h24.8c2.46 0 4.75-0.368 6.88-1.11 2.13-0.819 4.13-2.09 6.02-3.81 1.97-1.8 3.85-4.09 5.65-6.88 1.88-2.87 3.77-6.39 5.65-10.6z"/>
</svg>
