<?xml version="1.0" encoding="UTF-8"?>
<svg width="512" height="512" version="1.1" viewBox="0 0 512 512" xmlns="http://www.w3.org/2000/svg">
 <path d="m1.6 128-0.638-127 126 0.8859c69.39 0.4866 126.6 56.41 126.6 126 2e-3 69.54-56.24 126.1-125.8 126.1-69.56-7.6e-4 -125.2-56.28-126.2-126z" fill="#0095ff"/>
 <path d="m510.4 128 0.638-127-126 0.8859c-69.39 0.4866-126.6 56.38-126.6 125.9 2e-3 69.56 56.25 126.2 126 126.2 69.71 0.00717 125-56.27 126-126z" fill="#0095ff"/>
 <path d="m1.6 384-0.638 127 126-0.8859c69.39-0.4866 126.6-56.4 126.6-125.9 2e-3 -69.54-56.25-126.2-125.8-126.2-69.55-6.3e-4 -125.2 56.28-126.2 126z" fill="#0095ff"/>
 <path d="m510.4 384 0.638 127-126-0.8859c-69.39-0.4866-126.6-56.4-126.6-125.9 2e-3 -69.55 56.25-126.2 126-126.2 69.71 3.1e-4 125 56.28 126 126z" fill="#0095ff"/>
</svg>
