<?xml version="1.0" encoding="UTF-8"?>
<svg version="1.1" xmlns="http://www.w3.org/2000/svg" width="150" height="150">
<path d="M0 0 C6.33115807 -0.12789222 12.66197717 -0.21480336 18.99414062 -0.2746582 C21.14335579 -0.29963783 23.29248745 -0.33363366 25.44140625 -0.37719727 C41.44883942 -0.69332919 53.54926616 -0.3683287 65.73046875 11.2421875 C69.86891992 16.27101113 72.44340439 22.04871949 75 28 C75.42410156 27.07058594 75.84820312 26.14117188 76.28515625 25.18359375 C82.17616793 12.60975861 87.99231853 6.66708929 101 1 C103.85487115 0.04837628 105.60454317 -0.12163139 108.56323242 -0.11352539 C109.48396042 -0.11344986 110.40468842 -0.11337433 111.35331726 -0.11329651 C112.34402725 -0.10813522 113.33473724 -0.10297394 114.35546875 -0.09765625 C115.37224197 -0.0962413 116.3890152 -0.09482635 117.43659973 -0.09336853 C120.68692964 -0.08776707 123.93719088 -0.07521432 127.1875 -0.0625 C129.38997296 -0.05748519 131.59244701 -0.05292225 133.79492188 -0.04882812 C139.19663804 -0.03779717 144.59831412 -0.02105762 150 0 C150.10208207 6.36786075 150.17174934 12.73550763 150.21972656 19.10400391 C150.2397439 21.26684454 150.2669663 23.42963173 150.30175781 25.59228516 C150.35071247 28.71530406 150.37306817 31.8376026 150.390625 34.9609375 C150.41127014 35.91551849 150.43191528 36.87009949 150.45318604 37.85360718 C150.45645894 47.8221183 147.05243079 56.68332073 140.1328125 63.96484375 C134.66917426 69.18543759 129.01548383 72.27248479 122 75 C122.9178125 75.4125 123.835625 75.825 124.78125 76.25 C136.46478078 81.67216469 144.10646994 87.65066234 149 100 C149.87956681 102.96168753 150.12200132 105.59151773 150.11352539 108.67675781 C150.11344986 109.59741028 150.11337433 110.51806274 150.11329651 111.46661377 C150.10813522 112.45216248 150.10297394 113.43771118 150.09765625 114.453125 C150.09553383 115.97616241 150.09553383 115.97616241 150.09336853 117.52996826 C150.08777516 120.77000892 150.07522385 124.00998025 150.0625 127.25 C150.05748414 129.44791567 150.05292139 131.64583242 150.04882812 133.84375 C150.0378079 139.22919029 150.02107633 144.61459019 150 150 C143.63213925 150.10208207 137.26449237 150.17174934 130.89599609 150.21972656 C128.73315546 150.2397439 126.57036827 150.2669663 124.40771484 150.30175781 C121.28469594 150.35071247 118.1623974 150.37306817 115.0390625 150.390625 C113.60719101 150.42159271 113.60719101 150.42159271 112.14639282 150.45318604 C102.1778817 150.45645894 93.31667927 147.05243079 86.03515625 140.1328125 C80.81456241 134.66917426 77.72751521 129.01548383 75 122 C74.5875 122.9178125 74.175 123.835625 73.75 124.78125 C68.32783531 136.46478078 62.34933766 144.10646994 50 149 C47.03831247 149.87956681 44.40848227 150.12200132 41.32324219 150.11352539 C40.40258972 150.11344986 39.48193726 150.11337433 38.53338623 150.11329651 C37.54783752 150.10813522 36.56228882 150.10297394 35.546875 150.09765625 C34.53151672 150.0962413 33.51615845 150.09482635 32.47003174 150.09336853 C29.22999108 150.08777516 25.99001975 150.07522385 22.75 150.0625 C20.55208433 150.05748414 18.35416758 150.05292139 16.15625 150.04882812 C10.77080971 150.0378079 5.38540981 150.02107633 0 150 C-0.12789222 143.66884193 -0.21480336 137.33802283 -0.2746582 131.00585938 C-0.29963783 128.85664421 -0.33363366 126.70751255 -0.37719727 124.55859375 C-0.69332919 108.55116058 -0.3683287 96.45073384 11.2421875 84.26953125 C16.27101113 80.13108008 22.04871949 77.55659561 28 75 C27.07058594 74.57589844 26.14117188 74.15179688 25.18359375 73.71484375 C12.60975861 67.82383207 6.66708929 62.00768147 1 49 C0.04837628 46.14512885 -0.12163139 44.39545683 -0.11352539 41.43676758 C-0.11344986 40.51603958 -0.11337433 39.59531158 -0.11329651 38.64668274 C-0.10813522 37.65597275 -0.10297394 36.66526276 -0.09765625 35.64453125 C-0.0962413 34.62775803 -0.09482635 33.6109848 -0.09336853 32.56340027 C-0.08776707 29.31307036 -0.07521432 26.06280912 -0.0625 22.8125 C-0.05748519 20.61002704 -0.05292225 18.40755299 -0.04882812 16.20507812 C-0.03779717 10.80336196 -0.02105762 5.40168588 0 0 Z M75 46 C74.52691406 46.99 74.05382812 47.98 73.56640625 49 C66.99836518 62.29944111 59.70150276 68.87953176 46 75 C48.16241572 76.08626023 50.32843436 77.15554733 52.515625 78.19140625 C64.2514359 84.07607715 69.7253431 92.19196126 75 104 C76.08626023 101.83758428 77.15554733 99.67156564 78.19140625 97.484375 C83.1821863 87.5312524 89.82668287 81.40044981 100 77 C101.33659434 76.33989562 102.67079988 75.67486982 104 75 C103.01 74.52691406 102.02 74.05382812 101 73.56640625 C89.64693276 67.95526883 82.13808549 61.87864318 77 50 C76.33989562 48.66340566 75.67486982 47.32920012 75 46 Z " fill="#0094FE" transform="translate(0,0)"/>
</svg>
