<?xml version="1.0" encoding="UTF-8"?>
<svg width="512" height="512" version="1.1" viewBox="0 0 512 512" xmlns="http://www.w3.org/2000/svg">
 <path d="m511 256c0 141-114 255-255 255s-255-114-255-255 114-255 255-255 255 114 255 255z" fill="#0044aa"/>
 <path d="m339 96.7c-0.892 0.518-1.04 0.789-0.797 0.398-8.66 14.6-8.89 33.8-12.8 51a6.35 6.35 0 0 1 0 0.398c-0.0637 0.255 0.0638 0.55 0 0.797-1.88 18.4-7.95 37.2-3.59 55a6.35 6.35 0 0 1 0.398 1.2c0.0398 0.128-0.0398 0.271 0 0.398 0.0638 0.104-0.0637 0.303 0 0.398 0.0797 0.112 0.319-0.104 0.398 0 0.932 1.28 2.07 2.24 2.79 2.39 0.51 0.104 1.4 0.0478 3.19-1.2 1.93-1.35 3.02-4.03 3.59-7.57a6.35 6.35 0 0 1 0.797-1.2 6.35 6.35 0 0 1 0-0.398 6.35 6.35 0 0 1 0.398-1.2 6.35 6.35 0 0 1 0.398-0.398c7.63-30.4 12.8-62.4 10.8-93.6a7.83 7.83 0 0 0-1.99-4.38 12.5 12.5 0 0 0-1.99-1.99c-0.247-0.167 0.0797-0.0478-0.797 0a6.35 6.35 0 0 1-0.398 0c-0.327 0.0398-0.207 0-0.398 0zm70.2 14.9c-13.2 6.42-20 21.7-29.1 34.3a5.95 5.95 0 0 1-0.398 1.2 5.95 5.95 0 0 1-0.398 0.797c-11.6 20.5-26.3 40.9-27.9 64.5-0.0159 0.128 0 0.263 0 0.398 0.175 3.56 2.22 5.5 4.38 5.98 2.12 0.454 6.05-0.757 7.57-3.19a5.95 5.95 0 0 1 0.398-0.398 5.95 5.95 0 0 1 0-0.398 5.95 5.95 0 0 1 0-0.398c21-28.8 36.8-62.8 49.8-96a5.95 5.95 0 0 1 0-0.398c0.892-2.18 1.2-2.74 0.398-4.38-0.239-0.486-2.71-2.15-3.98-1.99-0.215 0.0877-0.598-0.104-0.797 0z" fill="#fff"/>
 <path d="m204 121c-2.13 0.398-5.3 2.3-7.57 3.19-8.01 3.03-12.4 9.91-14.3 17.9-1.94 8.21-1.29 17.3 0 26.7 1.3 9.32 3.16 18.9 5.18 26.3 1.75 6.35 2.99 9.44 3.59 11.6v1.59c0 0.693-0.327 0.638-0.797 1.2-0.255 0.135 0.255 0.797 0 0.797a3.41 3.41 0 0 1-1.99 0.797c-1.41 0.0797-2.52-0.43-3.98-0.797-0.996-0.239-2.29-1.04-1.99-0.797-0.462-0.279-1.29-0.319-1.59-0.797 0 0.183 0.279 0.175 0-0.398-0.319-0.606-0.677-2.13-1.2-3.19-1.13-2.42-2.02-5.22-3.59-8.77a318 318 0 0 0-11.6-23.9c-4.46-8.18-9.71-15.6-15.5-20.7-2.91-2.56-6.49-5.12-9.96-5.98-3.34-0.837-7.3-0.128-10.8 1.59-8.92 4.94-14 13.1-15.9 21.5-1.97 8.58-1.04 18.5 0.398 27.1 1.47 8.6 3.72 15.7 5.18 21.5 0.63 2.45 1.39 4.74 1.59 5.98 0 1.21-0.494 4.39-0.797 5.58-1.51 5.21-5.16 13.9-5.18 13.9 0 0-69.5 185 79.7 172 1.24-0.0956 4.02-0.797 5.18-0.797 29.3-5.9 57-14.8 81.7-24.7 4.84-2.33 11.2-4.63 18.3-7.97 14.3-6.69 32.2-15.3 49.4-24.7 17.2-9.47 33.2-19.5 45.4-30.3 12.2-10.8 21.2-22.5 19.5-34.3-2.59-18.9-15.2-33-31.9-43.8-16.8-10.9-37.7-18.4-58.6-23.9-20.9-5.49-41.1-9.94-56.6-12.4-7.73-1.21-15-1.56-19.5-2.39-1.34-0.239-2.06-0.566-2.79-0.797-0.39-0.0558-0.422-0.167-0.797-0.398-0.462-0.279-1.31-0.319-1.59-0.797-0.255-0.462 0-1.06 0-1.59v-12.4c-0.255-9.54-0.813-22.1-2.79-33.9-1.99-11.8-5.07-23.1-11.6-30.7a22.6 22.6 0 0 0-15.9-7.97c-1.99-0.239-4.22-0.398-6.38 0z" fill="#fff"/>
</svg>
